<?xml version="1.0" encoding="utf-8"?>
<!-- Generator: Adobe Illustrator 19.0.1, SVG Export Plug-In . SVG Version: 6.00 Build 0)  -->
<svg version="1.1" id="Calque_1" xmlns="http://www.w3.org/2000/svg" xmlns:xlink="http://www.w3.org/1999/xlink" x="0px" y="0px"
	 viewBox="0 0 275.929 257.768" style="enable-background:new 0 0 275.929 257.768;" xml:space="preserve">
<style type="text/css">
	.st0{fill:#FFFFFF;}
</style>
<g>
	<path class="st0" d="M0,121.563c0-28.198,14.853-44.31,42.044-44.31c27.19,0,42.044,16.113,42.044,44.31v91.642
		c0,28.199-14.854,44.312-42.044,44.312C14.853,257.517,0,241.404,0,213.205V121.563z M27.694,214.969
		c0,12.587,5.538,17.371,14.351,17.371c8.811,0,14.351-4.784,14.351-17.371v-95.167c0-12.588-5.539-17.371-14.351-17.371
		c-8.813,0-14.351,4.783-14.351,17.371V214.969z"/>
	<path class="st0" d="M128.399,115.775v99.445c0,12.588,5.539,17.12,14.351,17.12c8.813,0,14.351-4.532,14.351-17.12V79.268h26.184
		v134.19c0,28.198-14.099,44.31-41.29,44.31s-41.29-16.113-41.29-44.31v-97.683H128.399z"/>
</g>
<g>
	<path class="st0" d="M1.058,25.246h10.973c6.938,0,10.343,3.848,10.343,10.91v22.325c0,7.063-3.405,10.91-10.343,10.91H1.058
		V25.246z M7.995,31.553v31.532h3.91c2.208,0,3.532-1.135,3.532-4.288V35.841c0-3.152-1.324-4.288-3.532-4.288H7.995z"/>
	<path class="st0" d="M26.788,25.246h6.937v44.146h-6.937V25.246z"/>
	<path class="st0" d="M48.102,24.742c6.748,0,10.217,4.036,10.217,11.099v1.388H51.76v-1.829c0-3.153-1.261-4.352-3.468-4.352
		c-2.208,0-3.469,1.198-3.469,4.352c0,9.082,13.559,10.784,13.559,23.397c0,7.063-3.532,11.1-10.343,11.1s-10.342-4.036-10.342-11.1
		v-2.712h6.559v3.153c0,3.153,1.387,4.288,3.595,4.288c2.207,0,3.595-1.135,3.595-4.288c0-9.081-13.559-10.784-13.559-23.397
		C37.886,28.778,41.355,24.742,48.102,24.742z"/>
	<path class="st0" d="M85.877,69.266h-1.577l-10.91-41.938v42.064h-1.261V25.246h2.145l10.847,41.875l10.847-41.875h2.145v44.146
		h-1.388V27.327L85.877,69.266z"/>
	<path class="st0" d="M103.093,36.094c0-7.315,3.216-11.163,9.333-11.163c6.243,0,9.46,3.848,9.46,11.163v22.451
		c0,7.315-3.217,11.162-9.46,11.162c-6.117,0-9.333-3.847-9.333-11.162V36.094z M104.48,58.607c0,6.496,2.712,9.838,7.946,9.838
		c5.298,0,8.072-3.342,8.072-9.838V36.03c0-6.495-2.774-9.838-8.072-9.838c-5.234,0-7.946,3.343-7.946,9.838V58.607z"/>
	<path class="st0" d="M128.255,25.246v44.146h-1.388V25.246H128.255z"/>
</g>
<g>
	<path class="st0" d="M198.958,198.321c0.255-79.049,48.906-89.562,48.906-133.954c0-12.757-4.793-35.476-30.363-36.448
		c-23.075-0.877-33.894,21.178-33.894,33.936l-0.33,17.592h-26.204V63.64C157.073,35.064,176.864,0,217.01,0
		c38.842,0,58.919,32.527,58.919,66.152c0,46.434-50.225,68.599-50.754,132.337v16.616h-26.216V198.321z M225.704,226.053v27.045
		H198.66v-27.045H225.704z"/>
</g>
<g>
	<path class="st0" d="M118.787,80.486l9.66,25.314h-28.402L89.153,80.486H118.787z"/>
</g>
</svg>
