<?xml version="1.0" encoding="utf-8"?>
<!-- Generator: Adobe Illustrator 19.0.1, SVG Export Plug-In . SVG Version: 6.00 Build 0)  -->
<svg version="1.0" id="mur" xmlns="http://www.w3.org/2000/svg" xmlns:xlink="http://www.w3.org/1999/xlink" x="0px" y="0px"
	 width="983px" height="1010px" viewBox="0 0 983 1010" style="enable-background:new 0 0 983 1010;" xml:space="preserve">
<style type="text/css">
	.st0{fill:#FFFFFF;stroke:#383838;stroke-width:0.5;stroke-miterlimit:10;}
	.st1{fill:#EBF0F2;stroke:#383838;stroke-width:0.5;stroke-miterlimit:10;}
	.st2{fill:#BFD9E0;stroke:#383838;stroke-width:0.5;stroke-miterlimit:10;}
	.st3{fill:#61A1A1;stroke:#383838;stroke-width:0.5;stroke-miterlimit:10;}
	.st4{fill:#A3CCCB;stroke:#383838;stroke-width:0.5;stroke-miterlimit:10;}
	.st5{fill:#C7DEE2;stroke:#383838;stroke-width:0.5;stroke-miterlimit:10;}
	.st6{fill:#ED9B7E;stroke:#383838;stroke-width:0.5;stroke-miterlimit:10;}
	.st7{fill:#ED865B;stroke:#383838;stroke-width:0.5;stroke-miterlimit:10;}
	.st8{fill:#FFFFFF;}
	.st9{fill:none;stroke:#383838;stroke-width:0.5;stroke-miterlimit:10;}
	.st10{fill:none;stroke:#383838;stroke-width:0.5;stroke-miterlimit:10;stroke-dasharray:2.001,2.001;}
	.st11{fill:none;stroke:#383838;stroke-width:0.5;stroke-miterlimit:10;stroke-dasharray:2.0485,2.0485;}
	.st12{fill:none;stroke:#383838;stroke-width:0.5;stroke-miterlimit:10;stroke-dasharray:1.9069,1.9069;}
	.st13{fill:none;stroke:#383838;stroke-width:0.5;stroke-miterlimit:10;stroke-dasharray:1.9045,1.9045;}
	.st14{fill:none;stroke:#383838;stroke-width:0.5;stroke-miterlimit:10;stroke-dasharray:1.9103,1.9103;}
	.st15{fill:none;stroke:#383838;stroke-width:0.5;stroke-miterlimit:10;stroke-dasharray:1.9638,1.9638;}
	.st16{fill:none;stroke:#383838;stroke-width:0.5;stroke-miterlimit:10;stroke-dasharray:2.0901,2.0901;}
	.st17{fill:none;stroke:#383838;stroke-width:0.5;stroke-miterlimit:10;stroke-dasharray:2.0297,2.0297;}
	.st18{fill:none;stroke:#383838;stroke-width:0.5;stroke-miterlimit:10;stroke-dasharray:2.0013,2.0013;}
</style>
<path class="st0" d="M368.866,728.976c-8.005-11.89-40.097-64.169-40.097-64.169l20.919-13.071l-30.523-48.848l-21.046,13.072
	l-37.624-60.211l5.18-3.237l-90.837-145.37l-5.088,3.18l-18.856-30.176l20.636-12.895l-19.784-31.66l-20.728,12.952l-54.582-87.349
	l20.728-12.952l5.123,8.198l143.037-89.38l-7.066-11.307l55.123-34.445l7.242,11.59L433.767,49.7l156.326,250.174l47.491-29.675
	l138.486,221.623l16.396-10.245l49.812,79.716l-50.6,31.619l-9.892-15.83l-59.646,37.271l9.892,15.83l-65.3,40.804l23.14,37.031
	l61.306-27.695l95.381,202.963l-25.616,10.64l6.533,15.434l-21.484,10.28l9.539,15.265l-42.685,26.673l-86.553-138.515
	l17.244-10.775l-8.832-14.134l5.936-3.709l-34.231-74.91l11.748-4.787l-7.949-12.721l-10.865,6.2l-25.613-40.989
	c0,0-137.633,86.077-143.603,89.733C458.573,776.295,401.651,777.668,368.866,728.976z"/>
<polygon class="st1" points="808.606,882.041 800.127,868.472 802.389,867.059 795.271,851.265 825.241,837.927 839.233,867.7 "/>
<polygon class="st1" points="815.636,896.122 846.395,883.387 839.233,867.7 808.606,882.041 801.919,886.22 805.805,892.439 
	812.177,889.193 "/>
<polygon class="st1" points="818.944,913.466 805.805,892.439 812.177,889.193 815.636,896.122 820.942,893.925 827.312,909.461 "/>
<rect x="699.134" y="626.223" transform="matrix(0.5299 0.848 -0.848 0.5299 869.7765 -304.1725)" class="st1" width="20.25" height="12.5"/>
<rect x="692.755" y="628.872" transform="matrix(0.848 -0.5299 0.5299 0.848 -232.4304 467.4138)" class="st1" width="12.125" height="20.25"/>
<rect x="681.548" y="635.563" transform="matrix(0.848 -0.5299 0.5299 0.848 -237.6026 462.7567)" class="st1" width="13.125" height="20.25"/>
<rect x="671.149" y="642.308" transform="matrix(0.848 -0.5299 0.5299 0.848 -242.8175 458.0612)" class="st1" width="12.333" height="20.25"/>
<rect x="660.405" y="648.925" transform="matrix(0.848 -0.5299 0.5299 0.848 -247.9333 453.455)" class="st1" width="12.641" height="20.25"/>
<rect x="689.892" y="600.984" transform="matrix(0.848 -0.5299 0.5299 0.848 -217.8315 461.5498)" class="st1" width="12" height="19.25"/>
<rect x="679.138" y="607.509" transform="matrix(0.848 -0.5299 0.5299 0.848 -222.8756 457.008)" class="st1" width="12.625" height="19.25"/>
<polygon class="st1" points="685.198,628.641 679.544,632.174 672.239,630.548 658.66,608.817 668.836,602.458 "/>
<rect x="653.613" y="610.264" transform="matrix(0.848 -0.5299 0.5299 0.848 -228.4607 443.541)" class="st1" width="11.125" height="19.75"/>
<rect x="640.621" y="617.179" transform="matrix(0.848 -0.5299 0.5299 0.848 -233.8069 438.7273)" class="st1" width="14.975" height="19.75"/>
<rect x="654.724" y="634.298" transform="matrix(-0.5299 -0.848 0.848 -0.5299 472.5412 1540.4875)" class="st1" width="17" height="9.958"/>
<rect x="646.749" y="639.835" transform="matrix(-0.5299 -0.848 0.848 -0.5299 456.1138 1541.3484)" class="st1" width="17" height="8.85"/>
<rect x="624.378" y="577.814" transform="matrix(0.5299 0.848 -0.848 0.5299 808.3737 -264.6169)" class="st1" width="37" height="38.1"/>
<rect x="660.242" y="560.861" transform="matrix(-0.848 0.5299 -0.5299 -0.848 1553.0079 725.0295)" class="st1" width="24.625" height="48.625"/>
<polygon class="st1" points="722.139,614.352 720.316,615.492 700.002,582.983 731.698,563.178 752.011,595.686 "/>
<rect x="687.546" y="538.704" transform="matrix(0.5299 0.848 -0.848 0.5299 804.5938 -336.7423)" class="st1" width="37" height="37.375"/>
<polygon class="st1" points="712.091,531.8 731.596,519.612 743.469,512.193 783.389,576.079 752.011,595.686 "/>
<rect x="733.347" y="515.095" transform="matrix(-0.848 0.5299 -0.5299 -0.848 1643.9717 569.4138)" class="st1" width="14" height="10.625"/>
<polygon class="st0" points="812.072,512.954 763.076,543.571 783.389,576.079 781.785,577.081 791.677,592.912 842.277,561.293 "/>
<polygon class="st0" points="776.069,491.822 769.44,495.964 789.047,527.342 812.072,512.954 792.465,481.577 "/>
<rect x="750.945" y="501.267" transform="matrix(0.848 -0.5299 0.5299 0.848 -159.0004 485.0344)" class="st0" width="30.625" height="37"/>
<rect x="721.938" y="470.219" transform="matrix(0.848 -0.5299 0.5299 0.848 -142.8153 467.756)" class="st1" width="44.567" height="25.375"/>
<rect x="713.89" y="485.306" transform="matrix(0.848 -0.5299 0.5299 0.848 -154.4792 457.2538)" class="st1" width="12.375" height="25.375"/>
<polygon class="st1" points="717.844,506.095 712.331,509.54 702.594,493.957 692.418,500.316 663.007,453.249 673.078,446.957 
	636.977,389.183 642.595,385.673 657.83,410.054 706.12,379.879 756.396,460.338 708.107,490.513 "/>
<rect x="696.375" y="495.74" transform="matrix(0.848 -0.5299 0.5299 0.848 -160.8439 448.9265)" class="st2" width="12" height="18.375"/>
<polygon class="st1" points="681.212,528.617 684.822,534.394 673.904,541.217 660.722,520.122 670.262,514.16 679.834,529.478 "/>
<rect x="637.498" y="530.258" transform="matrix(0.848 -0.5299 0.5299 0.848 -187.5088 424.8865)" class="st2" width="19.25" height="18.292"/>
<polygon class="st3" points="643.807,552.26 606.939,575.298 580.973,533.744 617.559,510.883 "/>
<rect x="622.502" y="503.85" transform="matrix(-0.848 0.5299 -0.5299 -0.848 1441.9388 618.501)" class="st3" width="19.583" height="24.271"/>
<rect x="595.442" y="479.04" transform="matrix(0.5299 0.848 -0.848 0.5299 705.2497 -289.7244)" class="st3" width="37.042" height="24.5"/>
<rect x="560.791" y="478.841" transform="matrix(0.848 -0.5299 0.5299 0.848 -174.7046 382.6649)" class="st3" width="38.225" height="34.25"/>
<rect x="594.443" y="457.954" transform="matrix(0.5299 0.848 -0.848 0.5299 681.1735 -288.4626)" class="st3" width="12.688" height="24.5"/>
<rect x="559.655" y="431.638" transform="matrix(0.5299 0.848 -0.848 0.5299 651.1263 -286.8879)" class="st1" width="49.375" height="24.5"/>
<rect x="538.634" y="435.82" transform="matrix(0.848 -0.5299 0.5299 0.848 -159.281 365.5353)" class="st1" width="38.225" height="49.375"/>
<rect x="580.075" y="507.438" transform="matrix(0.5299 0.848 -0.848 0.5299 717.5956 -253.8921)" class="st3" width="15.479" height="25.808"/>
<rect x="597.814" y="502.475" transform="matrix(-0.848 0.5299 -0.5299 -0.848 1386.6355 622.8173)" class="st3" width="12.417" height="15.479"/>
<path class="st4" d="M633.73,667.238l-37.801-60.494l-104.261,65.149L458.012,694.3l-2.651,11.483l9.001,2.139l-0.822,3.56
	l11.393,18.233l-12.367,7.728l7.859,28.176c0,0,11.189-3.354,21.66-9.871L633.73,667.238z"/>
<polygon class="st1" points="485.771,675.82 464.206,670.875 458.012,694.3 "/>
<rect x="373.489" y="633.926" transform="matrix(-0.848 0.5299 -0.5299 -0.848 1037.1805 974.8622)" class="st1" width="10.666" height="4.417"/>
<rect x="335.727" y="617.38" transform="matrix(-0.848 0.5299 -0.5299 -0.848 970.5524 974.8762)" class="st1" width="19.558" height="18.417"/>
<rect x="331.191" y="603.771" transform="matrix(0.5299 0.848 -0.848 0.5299 678.9055 2.3222)" class="st1" width="12.333" height="19.558"/>
<rect x="349.106" y="595.834" transform="matrix(-0.848 0.5299 -0.5299 -0.848 986.3815 939.5783)" class="st1" width="18.749" height="30.75"/>
<rect x="343.267" y="584.879" transform="matrix(0.5299 0.848 -0.848 0.5299 665.7524 -18.458)" class="st1" width="12.517" height="12.832"/>
<rect x="320.545" y="595.187" transform="matrix(-0.848 0.5299 -0.5299 -0.848 934.6399 934.8871)" class="st1" width="25.475" height="12.517"/>
<rect x="291.128" y="591.61" transform="matrix(-0.848 0.5299 -0.5299 -0.848 879.5098 950.2463)" class="st1" width="24.775" height="19.221"/>
<polygon class="st1" points="351.651,582.588 342.607,568.115 328.273,577.071 327.081,575.163 308.928,586.506 319.129,602.831 "/>
<path class="st0" d="M260.494,555.749l5.18-3.237l-1.369-2.191l15.83-9.892l10.024,16.042l18.768,30.035l-21.011,13.129
	C287.917,599.635,261.727,557.926,260.494,555.749z"/>
<rect x="655.31" y="479.747" transform="matrix(0.5299 0.848 -0.848 0.5299 737.2773 -333.2144)" class="st1" width="27.792" height="37.375"/>
<rect x="640.678" y="456.231" transform="matrix(0.5299 0.848 -0.848 0.5299 710.4275 -331.8073)" class="st1" width="27.667" height="37.375"/>
<polygon class="st1" points="631.333,473.09 602.011,426.165 643.778,400.067 673.078,446.957 "/>
<rect x="592.958" y="409.272" transform="matrix(0.5299 0.848 -0.848 0.5299 635.1848 -315.4843)" class="st1" width="18.417" height="11.875"/>
<polygon class="st5" points="636.977,389.183 634.018,384.448 624.442,390.432 634.202,406.05 643.778,400.067 "/>
<rect x="649.287" y="380.259" transform="matrix(-0.848 0.5299 -0.5299 -0.848 1458.2531 358.288)" class="st1" width="56.942" height="15.917"/>
<rect x="656.921" y="359.154" transform="matrix(0.848 -0.5299 0.5299 0.848 -92.5745 414.3781)" class="st1" width="38.692" height="18.917"/>
<rect x="653.546" y="371.216" transform="matrix(0.848 -0.5299 0.5299 0.848 -101.8999 405.9816)" class="st1" width="6.833" height="18.917"/>
<rect x="476.468" y="631.826" transform="matrix(-0.848 0.5299 -0.5299 -0.848 1237.2163 926.8857)" class="st2" width="18.5" height="18"/>
<rect x="492.131" y="621.931" transform="matrix(-0.848 0.5299 -0.5299 -0.848 1261.2361 900.2089)" class="st2" width="18.844" height="18"/>
<polygon class="st1" points="504.774,618.306 497.752,607.069 489.441,605.151 478.576,611.94 488.793,628.292 "/>
<polygon class="st1" points="478.576,611.94 473.593,615.054 471.69,623.3 466.058,626.819 473.104,638.095 488.793,628.292 "/>
<polygon class="st1" points="473.593,615.054 470.629,610.31 459.923,617 466.058,626.819 471.69,623.3 "/>
<polygon class="st3" points="470.629,610.31 486.345,600.49 488.184,592.523 461.704,550.147 453.415,548.234 427.192,564.62 
	459.923,617 "/>
<polygon class="st1" points="427.192,564.62 423.888,559.333 408.199,569.136 417.936,584.719 433.625,574.916 "/>
<rect x="401.633" y="571.019" transform="matrix(0.848 -0.5299 0.5299 0.848 -245.4935 304.2755)" class="st1" width="12.375" height="18.375"/>
<rect x="391.023" y="577.61" transform="matrix(0.848 -0.5299 0.5299 0.848 -250.5889 299.6876)" class="st1" width="12.5" height="18.375"/>
<rect x="380.769" y="584.135" transform="matrix(0.848 -0.5299 0.5299 0.848 -255.633 295.1458)" class="st1" width="12.125" height="18.375"/>
<rect x="388.85" y="600.192" transform="matrix(-0.5299 -0.848 0.848 -0.5299 90.0512 1262.4258)" class="st1" width="12.125" height="12.125"/>
<rect x="399.579" y="595.324" transform="matrix(-0.848 0.5299 -0.5299 -0.848 1062.9026 897.9899)" class="st1" width="6.25" height="12.125"/>
<rect x="403.939" y="588.733" transform="matrix(-0.848 0.5299 -0.5299 -0.848 1078.9023 880.2203)" class="st1" width="18.625" height="12.125"/>
<polygon class="st1" points="424.362,595.002 427.868,600.613 443.557,590.81 433.625,574.916 417.936,584.719 "/>
<rect x="431.216" y="594.574" transform="matrix(-0.5299 -0.848 0.848 -0.5299 162.289 1297.6071)" class="st1" width="19.133" height="18.5"/>
<rect x="424.024" y="607.307" transform="matrix(0.848 -0.5299 0.5299 0.848 -260.1257 320.9895)" class="st1" width="11.25" height="13.542"/>
<rect x="412.289" y="613.898" transform="matrix(0.848 -0.5299 0.5299 0.848 -265.221 316.4016)" class="st1" width="13.625" height="13.542"/>
<polygon class="st1" points="392.984,614.609 406.629,636.446 416.912,630.021 409.736,618.537 430.831,605.355 424.362,595.002 "/>
<polygon class="st1" points="406.629,636.446 412.834,646.375 428.364,636.671 432.625,643.491 448.473,633.588 438.007,616.839 "/>
<polygon class="st1" points="412.834,646.375 415.174,650.121 440.375,655.893 428.364,636.671 "/>
<polygon class="st1" points="440.375,655.893 451.241,649.104 452.433,651.012 457.415,647.899 448.473,633.588 432.625,643.491 "/>
<rect x="450.048" y="622.206" transform="matrix(0.848 -0.5299 0.5299 0.848 -265.8895 339.6459)" class="st1" width="18.5" height="22.5"/>
<rect x="442.532" y="608.677" transform="matrix(-0.5299 -0.848 0.848 -0.5299 163.8113 1326.6552)" class="st1" width="14.125" height="18.5"/>
<rect x="368.801" y="567.024" transform="matrix(-0.848 0.5299 -0.5299 -0.848 1002.3305 859.1343)" class="st1" width="18.375" height="12.5"/>
<rect x="384.835" y="558.86" transform="matrix(-0.848 0.5299 -0.5299 -0.848 1022.1494 837.1232)" class="st1" width="12.437" height="12.5"/>
<rect x="395.378" y="552.253" transform="matrix(-0.848 0.5299 -0.5299 -0.848 1038.1895 819.309)" class="st1" width="12.5" height="12.5"/>
<rect x="406.003" y="545.711" transform="matrix(-0.848 0.5299 -0.5299 -0.848 1054.0687 801.6733)" class="st1" width="12.188" height="12.5"/>
<polygon class="st1" points="420.576,554.032 426.512,550.323 431.283,547.342 424.659,536.742 413.952,543.432 "/>
<polygon class="st1" points="425.929,550.687 434.585,552.686 450.3,542.865 452.224,534.533 445.476,523.734 424.659,536.742 
	431.283,547.342 "/>
<polygon class="st6" points="800.127,868.472 793.44,872.651 767.033,830.39 732.775,756.283 777.335,735.984 825.241,837.927 
	795.271,851.265 802.389,867.059 "/>
<polygon class="st7" points="751.177,680.322 777.335,735.984 732.775,756.283 723.06,735.036 726.673,733.466 721.233,722.715 
	704.855,730.885 699.352,722.924 727.921,709.397 720.872,694.013 "/>
<polygon class="st7" points="801.021,943.971 783.379,915.738 797.867,906.685 728.911,796.333 686.247,822.992 772.845,961.577 "/>
<polygon class="st7" points="698.805,790.429 666.409,719.534 678.157,714.747 719.866,781.496 "/>
<line class="st1" x1="719.866" y1="781.496" x2="724.172" y2="788.387"/>
<polygon class="st3" points="519.119,433.645 550.929,413.767 531.587,382.813 541.87,376.388 523.058,346.282 507.616,355.931 
	514.77,367.38 493.579,380.622 505.502,399.703 500.042,403.115 "/>
<polygon class="st4" points="500.042,403.115 417.684,454.578 339.344,329.208 422.55,277.215 482.872,373.751 487.485,370.869 
	493.579,380.622 493.579,380.622 505.502,399.703 "/>
<polygon class="st1" points="520.595,608.42 526.954,618.596 534.899,620.461 545.288,613.969 535.529,598.351 "/>
<rect x="507.934" y="565.187" transform="matrix(0.5299 0.848 -0.848 0.5299 742.0402 -172.0873)" class="st1" width="36.625" height="36.215"/>
<polygon class="st1" points="551.307,589.229 566.966,579.444 569.881,584.108 580.541,577.447 582.469,569.093 563.359,538.51 
	531.899,558.169 "/>
<rect x="518.656" y="513.731" transform="matrix(0.5299 0.848 -0.848 0.5299 704.1112 -205.6909)" class="st1" width="37.875" height="37.097"/>
<rect x="487.403" y="533.504" transform="matrix(0.5299 0.848 -0.848 0.5299 705.8654 -170.1915)" class="st1" width="38.094" height="36.215"/>
<rect x="475.929" y="530.244" transform="matrix(0.5299 0.848 -0.848 0.5299 681.6069 -157.1643)" class="st1" width="13.281" height="12"/>
<rect x="485.764" y="524.5" transform="matrix(0.5299 0.848 -0.848 0.5299 681.0184 -168.3941)" class="st1" width="13.281" height="11.195"/>
<polygon class="st1" points="493.633,521.5 495.071,517.801 503.416,512.586 511.712,525.864 500.671,532.763 "/>
<polygon class="st1" points="495.071,517.801 490.718,516.836 481.387,501.902 492.428,495.003 503.416,512.586 "/>
<rect x="475.708" y="503.53" transform="matrix(0.848 -0.5299 0.5299 0.848 -198.361 332.9033)" class="st1" width="11.195" height="17.609"/>
<polygon class="st1" points="481.224,522.768 471.048,529.127 464.887,519.269 466.751,511.047 471.893,507.835 "/>
<path class="st1" d="M543.289,506.39c0,0-16.226-25.2-16.096-25.759c0.129-0.56-8.816-1.843-8.816-1.843l-25.948,16.214
	l19.284,30.861L543.289,506.39z"/>
<polygon class="st1" points="278.913,541.193 283.648,538.234 273.535,522.051 254.193,534.137 264.306,550.321 "/>
<rect x="150.204" y="453.687" transform="matrix(0.5299 0.848 -0.848 0.5299 499.9507 28.2474)" class="st3" width="148.583" height="22.808"/>
<polygon class="st3" points="337.075,504.85 248.225,362.66 204.268,390.128 283.005,516.133 312.97,497.41 323.082,513.593 "/>
<polygon class="st1" points="501.46,474.453 511.837,467.969 513.775,459.572 507.333,449.263 499.862,447.538 488.923,454.374 "/>
<rect x="451.029" y="444.789" transform="matrix(0.848 -0.5299 0.5299 0.848 -171.2055 318.2641)" class="st1" width="36.656" height="25.75"/>
<rect x="480.755" y="462.016" transform="matrix(0.848 -0.5299 0.5299 0.848 -175.3458 330.9024)" class="st2" width="17.139" height="18.375"/>
<rect x="464.022" y="471.728" transform="matrix(0.848 -0.5299 0.5299 0.848 -182.8545 324.1416)" class="st2" width="19.517" height="18.375"/>
<line class="st1" x1="479.452" y1="439.233" x2="448.366" y2="458.658"/>
<line class="st1" x1="480.804" y1="441.397" x2="449.718" y2="460.822"/>
<line class="st1" x1="482.156" y1="443.56" x2="451.07" y2="462.985"/>
<line class="st1" x1="483.508" y1="445.724" x2="452.421" y2="465.149"/>
<line class="st1" x1="484.86" y1="447.887" x2="453.773" y2="467.312"/>
<line class="st1" x1="486.212" y1="450.051" x2="455.125" y2="469.476"/>
<line class="st1" x1="487.563" y1="452.214" x2="456.477" y2="471.639"/>
<line class="st1" x1="488.915" y1="454.378" x2="457.829" y2="473.803"/>
<polygon class="st1" points="343.541,500.809 361.103,489.835 298.882,390.26 293.652,393.528 316.748,430.489 304.416,438.195 "/>
<rect x="300.828" y="421.665" transform="matrix(0.5299 0.848 -0.848 0.5299 508.1682 -58.889)" class="st1" width="12.75" height="14.542"/>
<rect x="294.263" y="410.958" transform="matrix(0.5299 0.848 -0.848 0.5299 495.9436 -58.2483)" class="st1" width="12.5" height="14.542"/>
<rect x="287.767" y="400.428" transform="matrix(0.5299 0.848 -0.848 0.5299 483.9206 -57.6182)" class="st1" width="12.333" height="14.542"/>
<polygon class="st1" points="293.652,393.528 289.413,386.744 277.081,394.449 284.499,406.322 296.832,398.616 "/>
<polygon class="st1" points="277.081,394.449 254.692,358.619 272.253,347.646 298.882,390.26 293.652,393.528 289.413,386.744 "/>
<rect x="356.588" y="474.089" transform="matrix(-0.848 0.5299 -0.5299 -0.848 928.6577 694.2231)" class="st1" width="16.417" height="12.333"/>
<rect x="362.415" y="437.16" transform="matrix(-0.848 0.5299 -0.5299 -0.848 945.3548 640.2434)" class="st1" width="36.938" height="37"/>
<rect x="347.666" y="422.722" transform="matrix(-0.848 0.5299 -0.5299 -0.848 905.589 604.4381)" class="st1" width="36.938" height="18.667"/>
<rect x="337.774" y="406.892" transform="matrix(-0.848 0.5299 -0.5299 -0.848 878.9197 580.4249)" class="st1" width="36.938" height="18.667"/>
<rect x="350.052" y="463.63" transform="matrix(-0.848 0.5299 -0.5299 -0.848 911.0369 678.3574)" class="st1" width="16.417" height="12.333"/>
<rect x="343.517" y="453.171" transform="matrix(-0.848 0.5299 -0.5299 -0.848 893.4161 662.4915)" class="st1" width="16.417" height="12.333"/>
<rect x="336.981" y="442.711" transform="matrix(-0.848 0.5299 -0.5299 -0.848 875.7953 646.6257)" class="st1" width="16.417" height="12.333"/>
<rect x="330.445" y="432.252" transform="matrix(-0.848 0.5299 -0.5299 -0.848 858.1745 630.7598)" class="st1" width="16.417" height="12.333"/>
<rect x="323.998" y="421.934" transform="matrix(-0.848 0.5299 -0.5299 -0.848 840.7918 615.1084)" class="st1" width="16.417" height="12.333"/>
<rect x="317.462" y="411.475" transform="matrix(-0.848 0.5299 -0.5299 -0.848 823.171 599.2426)" class="st1" width="16.417" height="12.333"/>
<rect x="310.816" y="400.631" transform="matrix(-0.848 0.5299 -0.5299 -0.848 805.2526 583.1087)" class="st1" width="16.417" height="12.75"/>
<rect x="301.145" y="384.904" transform="matrix(-0.848 0.5299 -0.5299 -0.848 779.1786 559.6315)" class="st1" width="16.417" height="13.25"/>
<rect x="294.355" y="374.476" transform="matrix(-0.848 0.5299 -0.5299 -0.848 760.8732 543.1493)" class="st1" width="16.417" height="12.375"/>
<rect x="287.798" y="363.981" transform="matrix(-0.848 0.5299 -0.5299 -0.848 743.1929 527.2299)" class="st1" width="16.417" height="12.375"/>
<rect x="281.24" y="353.486" transform="matrix(-0.848 0.5299 -0.5299 -0.848 725.5125 511.3104)" class="st1" width="16.417" height="12.375"/>
<rect x="274.484" y="342.299" transform="matrix(-0.848 0.5299 -0.5299 -0.848 707.2964 494.9086)" class="st1" width="16.417" height="13.125"/>
<polygon class="st1" points="322.607,397.249 335.634,418.097 366.959,398.523 347.551,367.464 316.226,387.038 319.825,392.797 
	305.903,401.497 308.685,405.949 "/>
<rect x="303.282" y="342.925" transform="matrix(0.5299 0.848 -0.848 0.5299 457.8361 -103.1703)" class="st1" width="37.396" height="36.938"/>
<rect x="305.13" y="323.22" transform="matrix(0.5299 0.848 -0.848 0.5299 429.9124 -110.673)" class="st2" width="19.313" height="18.469"/>
<rect x="289.889" y="332.585" transform="matrix(0.848 -0.5299 0.5299 0.848 -135.9081 210.5156)" class="st2" width="18.469" height="19.313"/>
<rect x="347.061" y="309.235" transform="matrix(0.5299 0.848 -0.848 0.5299 434.775 -147.384)" class="st1" width="6.542" height="18.5"/>
<rect x="400.516" y="265.001" transform="matrix(0.5299 0.848 -0.848 0.5299 425.2835 -218.4891)" class="st1" width="18.417" height="18.74"/>
<rect x="383.991" y="275.229" transform="matrix(0.848 -0.5299 0.5299 0.848 -90.918 251.8053)" class="st1" width="19.25" height="18.417"/>
<rect x="386.332" y="239.863" transform="matrix(-0.5299 -0.848 0.848 -0.5299 396.4334 712.3377)" class="st1" width="18.625" height="12.865"/>
<rect x="381.721" y="226.983" transform="matrix(-0.5299 -0.848 0.848 -0.5299 395.043 685.8076)" class="st2" width="11.75" height="12.865"/>
<rect x="364.116" y="210.712" transform="matrix(-0.5299 -0.848 0.848 -0.5299 393.2864 652.29)" class="st1" width="26.625" height="12.865"/>
<rect x="345.039" y="180.182" transform="matrix(-0.5299 -0.848 0.848 -0.5299 389.9907 589.4037)" class="st1" width="26.625" height="12.865"/>
<rect x="342.117" y="163.804" transform="matrix(-0.5299 -0.848 0.848 -0.5299 388.2227 555.6678)" class="st1" width="12" height="12.865"/>
<rect x="330.786" y="150.871" transform="matrix(-0.5299 -0.848 0.848 -0.5299 386.8265 529.0284)" class="st1" width="18.5" height="12.865"/>
<rect x="310.769" y="122.777" transform="matrix(-0.5299 -0.848 0.848 -0.5299 378.8114 474.2719)" class="st1" width="20.167" height="18.74"/>
<rect x="294.678" y="132.597" transform="matrix(-0.5299 -0.848 0.848 -0.5299 345.6668 476.0089)" class="st1" width="20.167" height="19.208"/>
<polygon class="st4" points="353.57,283.568 390.142,260.715 357.552,208.56 331.58,224.789 320.98,231.413 "/>
<rect x="333.088" y="194.999" transform="matrix(0.5299 0.848 -0.848 0.5299 334.0904 -196.966)" class="st1" width="23.25" height="15.75"/>
<polygon class="st4" points="345.231,188.843 324.697,155.981 298.301,172.475 308.105,188.164 297.928,194.523 320.98,231.413 
	344.195,216.906 331.875,197.189 "/>
<polygon class="st3" points="297.928,194.523 353.57,283.568 343.393,289.927 277.948,185.193 298.301,172.475 308.105,188.164 "/>
<rect x="326.001" y="114.037" transform="matrix(0.5299 0.848 -0.848 0.5299 357.7215 -287.1952)" class="st3" width="223.833" height="130.077"/>
<polygon class="st1" points="507.616,355.931 523.058,346.282 541.87,376.388 531.587,382.813 550.929,413.767 677.769,334.509 
	637.584,270.199 590.093,299.874 552.38,239.521 442.069,308.452 482.872,373.751 487.485,370.869 493.579,380.622 514.77,367.38 
	"/>
<rect x="219.6" y="235.927" transform="matrix(-0.5299 -0.848 0.848 -0.5299 145.0946 664.5308)" class="st7" width="74.25" height="112.25"/>
<rect x="172.535" y="168.681" transform="matrix(-0.5299 -0.848 0.848 -0.5299 123.4185 535.0237)" class="st3" width="74.917" height="129.25"/>
<rect x="156.791" y="313.361" transform="matrix(-0.5299 -0.848 0.848 -0.5299 15.7191 671.3111)" class="st6" width="74.25" height="35.875"/>
<rect x="127.293" y="322.036" transform="matrix(-0.5299 -0.848 0.848 -0.5299 -74.6298 627.1462)" class="st0" width="18.417" height="24.442"/>
<rect x="156.88" y="369.385" transform="matrix(-0.5299 -0.848 0.848 -0.5299 -69.5184 724.6782)" class="st0" width="18.417" height="24.442"/>
<polygon class="st0" points="114.59,322.253 124.908,315.805 116.606,302.519 127.016,296.014 97.163,248.241 76.436,261.193 "/>
<rect x="122.574" y="270.191" transform="matrix(-0.848 0.5299 -0.5299 -0.848 396.665 458.3073)" class="st1" width="20.1" height="31.667"/>
<rect x="133.663" y="245.099" transform="matrix(-0.848 0.5299 -0.5299 -0.848 405.4229 415.7788)" class="st1" width="18.875" height="41.833"/>
<polygon class="st1" points="159.031,309.321 152.893,299.497 162.398,293.558 155.686,282.816 162.188,278.753 175.038,299.318 "/>
<rect x="147.956" y="285.552" transform="matrix(0.5299 0.848 -0.848 0.5299 319.4434 6.0222)" class="st1" width="12.667" height="11.208"/>
<path class="st7" d="M375.469,640.833l-2.34-3.746l-44.36,27.719l40.097,64.169c0,0,32.427,55.149,101.558,36.643l-7.859-28.176
	l12.367-7.728l-11.393-18.233l0.822-3.56l-9.001-2.139l8.845-34.908l-43.009-9.385l-6.628,28.708l-7.844-1.78l2.783-13.236
	l-18.68-29.894l-9.045,5.652L375.469,640.833z"/>
<polygon class="st1" points="409.509,675.181 417.592,677.107 414.57,690.197 406.726,688.417 "/>
<polygon class="st2" points="762.922,850.762 748.307,860.019 756.974,874.333 771.769,864.92 "/>
<polygon class="st2" points="771.769,864.92 756.974,874.333 766.141,889.193 781.009,879.707 "/>
<g>
	<line class="st8" x1="97.163" y1="248.241" x2="114.59" y2="322.253"/>
	<g>
		<line class="st9" x1="97.163" y1="248.241" x2="97.393" y2="249.214"/>
		<line class="st10" x1="97.851" y1="251.162" x2="114.131" y2="320.306"/>
		<line class="st9" x1="114.361" y1="321.279" x2="114.59" y2="322.253"/>
	</g>
</g>
<g>
	<line class="st8" x1="76.436" y1="261.193" x2="127.016" y2="296.014"/>
	<g>
		<line class="st9" x1="76.436" y1="261.193" x2="77.259" y2="261.76"/>
		<line class="st11" x1="78.947" y1="262.922" x2="125.348" y2="294.867"/>
		<line class="st9" x1="126.192" y1="295.447" x2="127.016" y2="296.015"/>
	</g>
</g>
<g>
	<line class="st8" x1="141.986" y1="319.972" x2="131.017" y2="348.542"/>
	<g>
		<line class="st9" x1="141.986" y1="319.972" x2="141.627" y2="320.905"/>
		<line class="st12" x1="140.944" y1="322.686" x2="131.717" y2="346.719"/>
		<line class="st9" x1="131.376" y1="347.609" x2="131.017" y2="348.542"/>
	</g>
</g>
<g>
	<g>
		<line class="st9" x1="121.258" y1="332.924" x2="122.254" y2="333.011"/>
		<line class="st12" x1="124.154" y1="333.177" x2="149.799" y2="335.42"/>
		<line class="st9" x1="150.749" y1="335.503" x2="151.745" y2="335.59"/>
	</g>
</g>
<g>
	<g>
		<line class="st9" x1="150.893" y1="380.145" x2="151.889" y2="380.237"/>
		<line class="st13" x1="153.785" y1="380.411" x2="179.388" y2="382.761"/>
		<line class="st9" x1="180.336" y1="382.848" x2="181.332" y2="382.939"/>
	</g>
</g>
<g>
	<g>
		<line class="st9" x1="171.529" y1="367.251" x2="171.172" y2="368.185"/>
		<line class="st14" x1="170.492" y1="369.97" x2="161.301" y2="394.065"/>
		<line class="st9" x1="160.961" y1="394.957" x2="160.604" y2="395.892"/>
	</g>
</g>
<polyline class="st9" points="720.872,694.013 727.921,709.397 699.352,722.924 696.652,718.602 "/>
<polyline class="st9" points="686.307,525.802 702.155,515.899 692.418,500.316 670.262,514.16 679.834,529.478 681.212,528.617 "/>
<polyline class="st9" points="634.202,406.05 624.442,390.432 608.1,400.644 "/>
<line class="st9" x1="649.053" y1="374.464" x2="644.318" y2="377.422"/>
<polyline class="st9" points="457.07,658.432 458.262,660.341 476.176,664.476 485.822,658.448 473.104,638.095 452.433,651.012 
	452.433,651.012 "/>
<line class="st9" x1="485.822" y1="658.448" x2="496.529" y2="651.758"/>
<polyline class="st9" points="514.312,633.571 517.492,638.659 506.494,645.532 "/>
<line class="st9" x1="576.395" y1="594.532" x2="545.076" y2="614.102"/>
<line class="st9" x1="323.082" y1="513.593" x2="293.118" y2="532.317"/>
<line class="st9" x1="380.573" y1="281.728" x2="350.15" y2="300.739"/>
<line class="st9" x1="127.016" y1="296.014" x2="137.172" y2="312.269"/>
<line class="st9" x1="291.273" y1="138.74" x2="268.8" y2="152.782"/>
<line class="st9" x1="301.96" y1="155.842" x2="279.487" y2="169.885"/>
<g>
	<line class="st8" x1="812.072" y1="512.954" x2="791.677" y2="592.912"/>
	<g>
		<line class="st9" x1="812.072" y1="512.954" x2="811.825" y2="513.923"/>
		<line class="st15" x1="811.339" y1="515.826" x2="792.167" y2="590.991"/>
		<line class="st9" x1="791.924" y1="591.943" x2="791.677" y2="592.912"/>
	</g>
</g>
<g>
	<line class="st8" x1="792.465" y1="481.577" x2="789.047" y2="527.342"/>
	<g>
		<line class="st9" x1="792.465" y1="481.577" x2="792.39" y2="482.574"/>
		<line class="st16" x1="792.235" y1="484.658" x2="789.199" y2="525.302"/>
		<line class="st9" x1="789.122" y1="526.345" x2="789.047" y2="527.342"/>
	</g>
</g>
<g>
	<line class="st8" x1="763.076" y1="543.571" x2="842.277" y2="561.293"/>
	<g>
		<line class="st9" x1="763.076" y1="543.571" x2="764.051" y2="543.789"/>
		<line class="st17" x1="766.032" y1="544.232" x2="840.311" y2="560.853"/>
		<line class="st9" x1="841.301" y1="561.075" x2="842.277" y2="561.293"/>
	</g>
</g>
<g>
	<line class="st8" x1="769.44" y1="495.964" x2="812.072" y2="512.954"/>
	<g>
		<line class="st9" x1="769.44" y1="495.964" x2="770.369" y2="496.334"/>
		<line class="st16" x1="772.311" y1="497.108" x2="810.172" y2="512.197"/>
		<line class="st9" x1="811.143" y1="512.584" x2="812.072" y2="512.954"/>
	</g>
</g>
<g>
	<line class="st8" x1="743.469" y1="512.193" x2="789.047" y2="527.342"/>
	<g>
		<line class="st9" x1="743.469" y1="512.193" x2="744.418" y2="512.508"/>
		<line class="st18" x1="746.317" y1="513.139" x2="787.149" y2="526.711"/>
		<line class="st9" x1="788.098" y1="527.026" x2="789.047" y2="527.342"/>
	</g>
</g>
<g>
	<line class="st8" x1="769.44" y1="495.964" x2="763.076" y2="543.571"/>
	<g>
		<line class="st9" x1="769.44" y1="495.964" x2="769.308" y2="496.955"/>
		<line class="st18" x1="769.042" y1="498.939" x2="763.341" y2="541.588"/>
		<line class="st9" x1="763.208" y1="542.579" x2="763.076" y2="543.571"/>
	</g>
</g>
<line class="st1" x1="689.871" y1="708.018" x2="692.432" y2="712.117"/>
</svg>
