<?xml version="1.0" encoding="utf-8"?>
<!-- Generator: Adobe Illustrator 19.0.1, SVG Export Plug-In . SVG Version: 6.00 Build 0)  -->
<svg version="1.0" xmlns="http://www.w3.org/2000/svg" xmlns:xlink="http://www.w3.org/1999/xlink" x="0px" y="0px"
	 viewBox="0 0 890 1000" style="enable-background:new 0 0 890 1000;" xml:space="preserve">
<style type="text/css">
	.st0{fill:#FFFFFF;stroke:#383838;stroke-width:0.5;stroke-miterlimit:10;}
	.st1{fill:#61A1A1;stroke:#383838;stroke-width:0.5;stroke-miterlimit:10;}
	.st2{fill:#EBF0F2;stroke:#383838;stroke-width:0.5;stroke-miterlimit:10;}
	.st3{fill:#BFD9E0;stroke:#383838;stroke-width:0.5;stroke-miterlimit:10;}
	.st4{fill:#ED865B;stroke:#383838;stroke-width:0.5;stroke-miterlimit:10;}
	.st5{fill:none;stroke:#383838;stroke-width:0.5;stroke-miterlimit:10;}
	.st6{fill:#A3CCCB;stroke:#383838;stroke-width:0.5;stroke-miterlimit:10;}
	.st7{fill:#ED9B7E;stroke:#383838;stroke-width:0.5;stroke-miterlimit:10;}
	.st8{fill:none;stroke:#383838;stroke-width:0.5;stroke-miterlimit:10;stroke-dasharray:2;}
</style>
<g id="locaux">
	<path class="st0" d="M799.06,924.182l9.661,15.461l-43.563,27.221l-87.662-140.289l17.465-10.914l-8.95-14.323l6.013-3.757
		l-34.671-75.873l12.086-4.965l-8.051-12.884l-26.21-41.945c0,0-150.326,94.009-156.372,97.712
		c-31.96,19.573-89.614,20.963-122.82-28.355c-8.108-12.042-41.117-65.802-41.117-65.802l21.188-13.239l-30.411-48.668
		l-21.317,13.24l-38.108-60.986L154.306,408.52l-19.099-30.564l-30.036-47.86l-47.693-76.324l38.313-23.94l7.589,12.145
		l127.559-79.707l55.832-34.888l134.856-84.267l158.429,253.539l48.101-30.057l140.266,224.473l40.189,64.523l-2.968,1.855
		l-18.94,11.835l-12.643,7.9l-60.413,37.75l-66.404,41.494l33.608,53.785l62.358-28.217l103.344,219.269L799.06,924.182z"/>
	<polygon class="st1" points="306.589,177.016 338.497,157.078 396.526,249.942 375.446,263.699 364.88,270.302 335.205,222.811 
		319.136,232.852 305.8,211.509 321.868,201.468 	"/>
	<polyline class="st2" points="713.575,695.381 720.327,710.106 689.308,723.741 695.137,733.069 713.118,724.044 718.676,735.24 
		722.207,733.399 808.727,919.554 	"/>
	<polygon class="st2" points="832.489,871.417 794.52,888.987 808.727,919.554 846.555,901.262 	"/>
	<polygon class="st2" points="832.489,871.417 818.33,841.375 780.614,859.067 794.52,888.987 	"/>
	<polygon class="st2" points="818.33,841.375 804.289,811.583 766.813,829.372 780.614,859.067 	"/>
	<polygon class="st2" points="804.289,811.583 790.457,782.235 752.907,799.453 766.813,829.372 	"/>
	<polygon class="st2" points="790.457,782.235 776.393,752.397 738.988,769.505 752.907,799.453 	"/>
	<polygon class="st2" points="776.393,752.397 762.315,722.526 725.37,740.205 738.988,769.505 	"/>
	<polygon class="st2" points="722.207,733.399 725.37,740.205 762.315,722.526 743.211,681.993 713.575,695.381 729.786,729.842 	
		"/>
	<polygon class="st2" points="724.509,718.625 704.424,728.532 699.973,719.086 720.327,710.106 	"/>
	<polygon class="st2" points="699.973,719.086 689.308,723.741 695.137,733.069 704.424,728.532 	"/>
	<polygon class="st2" points="794.381,948.603 776.364,919.77 783.643,915.221 779.359,908.366 742.857,931.175 765.158,966.864 	
		"/>
	<line class="st2" x1="783.643" y1="915.221" x2="790.703" y2="910.809"/>
	<line class="st2" x1="799.06" y1="924.182" x2="795.782" y2="918.936"/>
	<polygon class="st2" points="779.359,908.366 775.694,902.501 767.85,907.402 749.712,878.376 721.054,896.284 742.857,931.175 	
		"/>
	<polygon class="st3" points="775.694,902.501 782.755,898.089 767.034,872.93 752.129,882.244 767.85,907.402 	"/>
	
		<rect x="742.051" y="859.082" transform="matrix(0.5299 0.848 -0.848 0.5299 1090.2052 -231.0434)" class="st3" width="22.917" height="17.576"/>
	
		<rect x="735.58" y="842.792" transform="matrix(0.5299 0.848 -0.848 0.5299 1071.606 -230.0687)" class="st2" width="15.5" height="17.576"/>
	<polygon class="st2" points="739.616,844.763 735.906,838.826 699.404,861.636 721.054,896.284 749.712,878.376 731.771,849.664 	
		"/>
	<polygon class="st2" points="735.906,838.826 732.153,832.819 724.308,837.721 706.154,808.668 677.496,826.576 699.404,861.636 	
		"/>
	<polygon class="st2" points="732.153,832.819 739.213,828.407 732.192,817.171 717.287,826.484 724.308,837.721 	"/>
	
		<rect x="708.668" y="804.132" transform="matrix(0.5299 0.848 -0.848 0.5299 1027.464 -227.7553)" class="st2" width="21.009" height="17.576"/>
	<polygon class="st2" points="690.133,793.445 711.304,783.743 702.119,769.044 682.958,777.743 	"/>
	<polygon class="st2" points="702.119,769.044 693.375,755.051 676.085,762.702 682.958,777.743 	"/>
	<polygon class="st2" points="693.375,755.051 684.56,740.944 669.168,747.566 676.085,762.702 	"/>
	<polygon class="st2" points="684.56,740.944 675.932,727.136 662.556,733.096 669.168,747.566 	"/>
	<polygon class="st2" points="675.932,727.136 669.438,716.744 657.353,721.709 662.556,733.096 	"/>
	<line class="st2" x1="711.304" y1="783.743" x2="714.307" y2="788.549"/>
	<line class="st2" x1="721.059" y1="799.354" x2="718.458" y2="795.192"/>
	
		<rect x="636.015" y="635.419" transform="matrix(-0.5299 -0.848 0.848 -0.5299 447.7739 1531.043)" class="st2" width="24.414" height="12"/>
	
		<rect x="646.545" y="628.422" transform="matrix(-0.5299 -0.848 0.848 -0.5299 469.4639 1529.9063)" class="st2" width="24.414" height="12.833"/>
	
		<rect x="657.331" y="621.798" transform="matrix(-0.5299 -0.848 0.848 -0.5299 491.6809 1528.7418)" class="st2" width="24.414" height="12.603"/>
	
		<rect x="663.175" y="612.433" transform="matrix(-0.5299 -0.848 0.848 -0.5299 513.4073 1522.0564)" class="st2" width="30.748" height="12.603"/>
	
		<rect x="644.648" y="585.12" transform="matrix(-0.5299 -0.848 0.848 -0.5299 510.4588 1465.7955)" class="st2" width="33.667" height="12.603"/>
	
		<rect x="642.999" y="565.544" transform="matrix(-0.5299 -0.848 0.848 -0.5299 508.3456 1425.4727)" class="st2" width="12.5" height="12.603"/>
	
		<rect x="659.894" y="553.627" transform="matrix(-0.5299 -0.848 0.848 -0.5299 546.5037 1429.0197)" class="st2" width="18.833" height="18.833"/>
	
		<rect x="675.866" y="543.647" transform="matrix(-0.5299 -0.848 0.848 -0.5299 579.4026 1427.2955)" class="st2" width="18.833" height="18.833"/>
	
		<rect x="689.223" y="538.384" transform="matrix(-0.5299 -0.848 0.848 -0.5299 606.9153 1425.8536)" class="st2" width="18.833" height="12.667"/>
	
		<rect x="701.355" y="546.304" transform="matrix(-0.5299 -0.848 0.848 -0.5299 653.3779 1479.615)" class="st2" width="70.831" height="24.833"/>
	
		<rect x="623.492" y="575.299" transform="matrix(-0.5299 -0.848 0.848 -0.5299 469.7536 1430.1226)" class="st2" width="15.5" height="19.135"/>
	
		<rect x="631.706" y="588.444" transform="matrix(-0.5299 -0.848 0.848 -0.5299 471.1726 1457.1986)" class="st2" width="15.5" height="19.135"/>
	
		<rect x="639.919" y="601.589" transform="matrix(-0.5299 -0.848 0.848 -0.5299 472.5916 1484.2747)" class="st2" width="15.5" height="19.135"/>
	
		<rect x="620.789" y="610.12" transform="matrix(-0.5299 -0.848 0.848 -0.5299 445.0428 1478.9309)" class="st2" width="23.25" height="12"/>
	
		<rect x="608.468" y="590.403" transform="matrix(-0.5299 -0.848 0.848 -0.5299 442.9144 1438.3168)" class="st2" width="23.25" height="12"/>
	<polygon class="st2" points="692.039,628.433 718.436,611.939 687.658,562.683 666.315,576.02 656.335,560.048 651.281,563.206 	
		"/>
	<polygon class="st2" points="718.436,611.939 745.008,595.335 704.25,530.108 699.02,533.376 709,549.347 687.658,562.683 	"/>
	
		<rect x="703.975" y="523.066" transform="matrix(-0.848 0.5299 -0.5299 -0.848 1602.7208 592.6419)" class="st2" width="24.833" height="6.083"/>
	<polygon class="st2" points="725.31,516.948 721.865,511.436 732.325,504.9 735.769,510.412 767.947,490.306 808.705,555.533 
		766.068,582.175 	"/>
	<polygon class="st2" points="721.865,511.436 732.325,504.9 735.769,510.412 767.947,490.306 748.075,458.504 724.095,473.488 
		732.22,486.491 713.563,498.15 	"/>
	
		<rect x="711.162" y="474.819" transform="matrix(0.5299 0.848 -0.848 0.5299 749.9055 -381.2276)" class="st2" width="15.333" height="22"/>
	<polygon class="st2" points="748.075,458.504 705.438,485.146 702.258,480.058 712.859,473.434 695.99,446.438 728.026,426.419 	
		"/>
	
		<rect x="683.207" y="456.998" transform="matrix(0.5299 0.848 -0.848 0.5299 721.5013 -375.127)" class="st2" width="31.833" height="12.5"/>
	
		<rect x="666.976" y="430.355" transform="matrix(0.5299 0.848 -0.848 0.5299 691.0808 -373.5327)" class="st2" width="31" height="12.5"/>
	
		<rect x="683.228" y="401.932" transform="matrix(-0.848 0.5299 -0.5299 -0.848 1520.4277 405.2209)" class="st2" width="37.777" height="37.333"/>
	
		<rect x="664.573" y="411.839" transform="matrix(-0.5299 -0.848 0.848 -0.5299 671.8721 1208.6034)" class="st2" width="12.667" height="12.5"/>
	<polygon class="st2" points="672.85,409.406 678.08,406.139 662.27,380.838 646.44,390.73 662.249,416.03 	"/>
	
		<rect x="632.419" y="341.834" transform="matrix(-0.848 0.5299 -0.5299 -0.848 1406.5437 318.8481)" class="st2" width="50.277" height="38.5"/>
	
		<rect x="613.961" y="315.96" transform="matrix(-0.848 0.5299 -0.5299 -0.848 1356.7769 274.0379)" class="st2" width="50.277" height="31.167"/>
	
		<rect x="593.701" y="276.475" transform="matrix(-0.848 0.5299 -0.5299 -0.848 1302.1561 224.8571)" class="st2" width="50.277" height="45.295"/>
	
		<rect x="638.615" y="469.971" transform="matrix(-0.848 0.5299 -0.5299 -0.848 1485.7186 551.7524)" class="st2" width="50.277" height="37.833"/>
	
		<rect x="613.753" y="421.1" transform="matrix(-0.848 0.5299 -0.5299 -0.848 1418.6882 491.3979)" class="st2" width="50.277" height="56"/>
	
		<rect x="605.405" y="404.494" transform="matrix(-0.848 0.5299 -0.5299 -0.848 1373.1333 434.2479)" class="st2" width="37.805" height="19"/>
	
		<rect x="596.753" y="417.815" transform="matrix(-0.848 0.5299 -0.5299 -0.848 1340.7949 470.1634)" class="st2" width="12.472" height="19"/>
	
		<rect x="585.301" y="396.877" transform="matrix(-0.848 0.5299 -0.5299 -0.848 1309.9188 442.3624)" class="st2" width="12.472" height="24.222"/>
	
		<rect x="651.832" y="519.382" transform="matrix(-0.5299 -0.848 0.848 -0.5299 570.7526 1367.6093)" class="st0" width="25.167" height="12.472"/>
	<line class="st2" x1="672.971" y1="527.543" x2="687.812" y2="518.27"/>
	<line class="st2" x1="593.837" y1="400.901" x2="608.678" y2="391.628"/>
	
		<rect x="633.792" y="531.492" transform="matrix(-0.5299 -0.848 0.848 -0.5299 520.5023 1370.1698)" class="st2" width="12.417" height="18.667"/>
	<polygon class="st0" points="572.722,531.915 598.909,573.823 635.375,551.036 609.28,509.071 	"/>
	
		<rect x="608.453" y="510.564" transform="matrix(-0.5299 -0.848 0.848 -0.5299 518.3353 1327.0032)" class="st2" width="37" height="18.558"/>
	
		<rect x="599.913" y="485.321" transform="matrix(-0.5299 -0.848 0.848 -0.5299 510.2707 1278.3435)" class="st2" width="19.042" height="24.854"/>
	
		<rect x="595.441" y="472.287" transform="matrix(-0.5299 -0.848 0.848 -0.5299 520.1003 1244.4741)" class="st2" width="19.042" height="11.604"/>
	
		<rect x="569.242" y="440.512" transform="matrix(-0.5299 -0.848 0.848 -0.5299 516.6701 1179.0222)" class="st2" width="31.729" height="11.604"/>
	
		<rect x="543.785" y="408.813" transform="matrix(-0.5299 -0.848 0.848 -0.5299 484.8916 1131.447)" class="st2" width="24.493" height="45.042"/>
	
		<rect x="559.18" y="446.538" transform="matrix(-0.5299 -0.848 0.848 -0.5299 495.9445 1180.1084)" class="st2" width="31.729" height="12.125"/>
	
		<rect x="548.897" y="452.964" transform="matrix(-0.5299 -0.848 0.848 -0.5299 474.7641 1181.2184)" class="st2" width="31.729" height="12.125"/>
	
		<rect x="538.482" y="459.315" transform="matrix(-0.5299 -0.848 0.848 -0.5299 453.3107 1182.3427)" class="st2" width="31.729" height="12.438"/>
	
		<rect x="527.537" y="465.686" transform="matrix(-0.5299 -0.848 0.848 -0.5299 430.7655 1183.5243)" class="st2" width="31.729" height="13.375"/>
	
		<rect x="517.637" y="439.36" transform="matrix(-0.5299 -0.848 0.848 -0.5299 431.0306 1134.2698)" class="st2" width="24.493" height="16.625"/>
	
		<rect x="579.293" y="498.745" transform="matrix(-0.5299 -0.848 0.848 -0.5299 477.8357 1274.2958)" class="st2" width="25.604" height="11.938"/>
	
		<rect x="569.169" y="505.071" transform="matrix(-0.5299 -0.848 0.848 -0.5299 456.9828 1275.3885)" class="st2" width="25.604" height="11.938"/>
	
		<rect x="558.621" y="511.162" transform="matrix(-0.5299 -0.848 0.848 -0.5299 435.2564 1276.5272)" class="st2" width="25.604" height="12.938"/>
	<polygon class="st2" points="598.434,456.693 604.837,466.94 594.996,473.089 605.087,489.238 593.85,496.259 590.372,490.694 
		559.154,510.201 546.137,489.371 	"/>
	
		<rect x="580.821" y="643.334" transform="matrix(-0.5299 -0.848 0.848 -0.5299 355.3463 1521.668)" class="st2" width="37.179" height="38.028"/>
	
		<rect x="561.766" y="612.163" transform="matrix(-0.5299 -0.848 0.848 -0.5299 351.9813 1457.4604)" class="st2" width="36.333" height="38.028"/>
	
		<rect x="549.289" y="663.884" transform="matrix(-0.5299 -0.848 0.848 -0.5299 290.3973 1525.0718)" class="st2" width="37.179" height="36.333"/>
	
		<rect x="532.48" y="690.9" transform="matrix(-0.5299 -0.848 0.848 -0.5299 246.8477 1532.4631)" class="st2" width="31.346" height="13.833"/>
	
		<rect x="520.749" y="698.23" transform="matrix(-0.5299 -0.848 0.848 -0.5299 222.683 1533.7295)" class="st2" width="31.346" height="13.833"/>
	
		<rect x="508.099" y="705.052" transform="matrix(-0.5299 -0.848 0.848 -0.5299 196.626 1535.0951)" class="st2" width="31.346" height="16"/>
	
		<rect x="495.802" y="714.236" transform="matrix(-0.5299 -0.848 0.848 -0.5299 171.2967 1536.4226)" class="st2" width="31.346" height="13"/>
	
		<rect x="484.212" y="720.811" transform="matrix(-0.5299 -0.848 0.848 -0.5299 147.4232 1537.6737)" class="st2" width="31.346" height="14.333"/>
	
		<rect x="471.774" y="728.25" transform="matrix(-0.5299 -0.848 0.848 -0.5299 121.8029 1539.0165)" class="st2" width="31.346" height="15"/>
	
		<rect x="530.235" y="632.713" transform="matrix(-0.5299 -0.848 0.848 -0.5299 287.0323 1460.8643)" class="st2" width="36.333" height="36.333"/>
	<polygon class="st2" points="489.392,753.016 474.291,762.18 461.474,733.498 472.781,726.433 	"/>
	<path class="st2" d="M474.291,762.18c0,0-10.29,4.797-15.14,6.114l-7.995-29.92l10.318-4.875L474.291,762.18z"/>
	<path class="st2" d="M451.156,738.374l-12.455,2.083l-1.641,31.698c0,0,11.114-0.212,22.091-3.861L451.156,738.374z"/>
	<path class="st2" d="M438.701,740.457l-15.405-1.379l-3.991,32.407c0,0,14.668,1.434,17.755,0.67L438.701,740.457z"/>
	<path class="st2" d="M414.127,737.928l-12.472-3.605l-13.707,26.842c0,0,10.659,5.356,15.798,6.833L414.127,737.928z"/>
	<path class="st2" d="M401.654,734.323l-9.522-8.004l-19.919,23.66c0,0,9.343,7.908,15.733,11.186L401.654,734.323z"/>
	<path class="st2" d="M392.133,726.319l-6.589-7.085l-24.743,18.63c0,0,7.001,8.564,11.414,12.115L392.133,726.319z"/>
	<path class="st2" d="M385.544,719.234l-5.829-9.328l-26.769,16.727c0,0,6.641,9.778,7.855,11.232L385.544,719.234z"/>
	<polygon class="st2" points="379.715,709.906 372.384,698.175 345.529,714.955 352.946,726.633 	"/>
	<polygon class="st2" points="372.384,698.175 365.849,687.715 356.55,693.526 352.929,687.731 335.373,698.701 345.529,714.955 	
		"/>
	
		<rect x="348.45" y="678.071" transform="matrix(0.5299 0.848 -0.848 0.5299 747.4031 18.756)" class="st2" width="16.667" height="10.965"/>
	<polygon class="st2" points="357.017,673.581 352.159,665.807 325.304,682.588 335.373,698.701 352.929,687.731 347.718,679.392 	
		"/>
	
		<rect x="323.489" y="649.915" transform="matrix(0.5299 0.848 -0.848 0.5299 721.2716 30.069)" class="st2" width="20.048" height="31.447"/>
	
		<rect x="480.063" y="660.529" transform="matrix(0.848 -0.5299 0.5299 0.848 -281.831 369.3633)" class="st2" width="46.167" height="31.167"/>
	
		<rect x="468.547" y="680.236" transform="matrix(0.848 -0.5299 0.5299 0.848 -295.3882 358.3309)" class="st2" width="17.167" height="28"/>
	<polygon class="st2" points="475.312,675.129 450.297,670.322 445.861,687.44 456.637,690.533 476.99,677.815 	"/>
	<polygon class="st2" points="456.637,690.533 454.322,696.893 466.952,717.104 477.27,710.657 462.432,686.912 	"/>
	<polygon class="st2" points="466.952,717.104 453.666,725.406 450.575,720.46 453.862,707.793 459.091,704.525 	"/>
	<polygon class="st2" points="453.666,725.406 449.002,728.321 433.631,730.457 427.721,729.04 430.47,715.334 450.575,720.46 	"/>
	<polygon class="st2" points="430.47,715.334 433.157,702.65 453.862,707.793 450.575,720.46 	"/>
	<polygon class="st2" points="433.157,702.65 437.611,684.931 445.861,687.44 456.637,690.533 454.322,696.893 459.091,704.525 
		453.862,707.793 	"/>
	<polygon class="st2" points="415.947,726.375 406.09,725.066 395.844,714.96 404.183,709.749 419.023,713.054 	"/>
	<polygon class="st2" points="419.023,713.054 422.717,696.006 413.883,694.451 411.815,704.98 404.183,709.749 	"/>
	<polygon class="st2" points="422.717,696.006 425.739,682.916 405.175,677.684 401.429,691.817 413.883,694.451 	"/>
	<polygon class="st2" points="417.736,680.88 421.589,663.694 408.816,660.866 405.175,677.684 	"/>
	<polygon class="st2" points="403.916,682.606 395.511,680.775 393.254,689.998 401.429,691.817 	"/>
	<polygon class="st2" points="393.254,689.998 401.429,691.817 413.883,694.451 411.815,704.98 395.844,714.96 383.899,695.844 	"/>
	<polygon class="st2" points="395.511,680.775 396.775,674.777 393.198,669.053 374.47,680.755 383.899,695.844 393.254,689.998 	
		"/>
	
		<rect x="378.261" y="660.773" transform="matrix(0.5299 0.848 -0.848 0.5299 745.1691 -14.6076)" class="st2" width="15" height="8.167"/>
	
		<rect x="363.67" y="660.852" transform="matrix(0.5299 0.848 -0.848 0.5299 742.4211 -3.7427)" class="st2" width="21.833" height="13.917"/>
	<polygon class="st2" points="378.324,660.66 374.703,654.865 362.901,662.24 357.116,652.982 375.843,641.279 385.249,656.332 	"/>
	
		<rect x="481.455" y="621.189" transform="matrix(0.5299 0.848 -0.848 0.5299 765.4628 -119.8864)" class="st3" width="18.833" height="18.667"/>
	
		<rect x="465.272" y="630.885" transform="matrix(-0.5299 -0.848 0.848 -0.5299 182.9453 1382.6785)" class="st3" width="18.833" height="19.5"/>
	
		<rect x="449.055" y="592.79" transform="matrix(-0.5299 -0.848 0.848 -0.5299 196.6782 1332.7668)" class="st2" width="37.333" height="38.167"/>
	<path class="st4" d="M441.646,606.156l-29.72-47.561l-7.774,4.858l-11.217-17.95c0,0,13.278-20.58,41.438-11.055l2.898-7.314
		l36.741,58.798L441.646,606.156z"/>
	<polygon class="st4" points="434.374,534.446 430.716,544.789 434.558,550.938 437.314,549.216 451.975,572.678 444.626,577.271 
		456.77,596.705 474.013,585.93 437.272,527.132 	"/>
	<polygon class="st4" points="434.558,550.938 432.393,557.695 444.626,577.271 451.975,572.678 437.314,549.216 	"/>
	<path class="st4" d="M390.991,560.67l-4.152,2.594l-3.348-0.954c0,0-2.624,9.796-0.373,18.117l3.162-0.6l2.526,6.873l-2.615,1.634
		l37.845,60.565l5.795-3.621l5.52,8.834l26.077-16.295l-49.503-79.222l-7.774,4.858l-8.215,5.134L390.991,560.67z"/>
	
		<rect x="402.541" y="556.672" transform="matrix(0.5299 0.848 -0.848 0.5299 670.6964 -77.771)" class="st4" width="5.917" height="18.854"/>
	
		<rect x="330.997" y="635.131" transform="matrix(-0.5299 -0.848 0.848 -0.5299 -27.1657 1269.5004)" class="st2" width="14.535" height="14.296"/>
	
		<rect x="342.318" y="628.906" transform="matrix(-0.5299 -0.848 0.848 -0.5299 -3.8472 1268.2783)" class="st2" width="14.535" height="12.598"/>
	
		<rect x="353.002" y="622.23" transform="matrix(-0.5299 -0.848 0.848 -0.5299 18.1602 1267.125)" class="st2" width="14.535" height="12.598"/>
	
		<rect x="316.306" y="593.832" transform="matrix(-0.5299 -0.848 0.848 -0.5299 -7.6299 1222.83)" class="st2" width="37.583" height="39.395"/>
	
		<rect x="315.642" y="572.631" transform="matrix(-0.5299 -0.848 0.848 -0.5299 -9.9186 1179.1589)" class="st2" width="12.417" height="39.395"/>
	
		<rect x="241.969" y="556.869" transform="matrix(-0.5299 -0.848 0.848 -0.5299 -70.5622 1099.7181)" class="st5" width="55.083" height="25.094"/>
	<polygon class="st3" points="265.556,539.41 260.301,531 251.719,536.363 246.817,528.519 234.131,536.446 244.288,552.7 	"/>
	
		<rect x="248.934" y="524.699" transform="matrix(0.5299 0.848 -0.848 0.5299 568.4549 33.9995)" class="st2" width="9.25" height="10.12"/>
	
		<rect x="238.587" y="509.54" transform="matrix(-0.5299 -0.848 0.848 -0.5299 -58.866 1000.8673)" class="st2" width="18.75" height="14.417"/>
	
		<rect x="226.125" y="517.049" transform="matrix(-0.5299 -0.848 0.848 -0.5299 -84.5359 1002.2126)" class="st2" width="18.75" height="14.973"/>
	
		<rect x="222.302" y="490.12" transform="matrix(-0.5299 -0.848 0.848 -0.5299 -73.6606 968.7994)" class="st2" width="18.75" height="29.39"/>
	
		<rect x="212.366" y="474.219" transform="matrix(-0.5299 -0.848 0.848 -0.5299 -75.3771 936.0461)" class="st2" width="18.75" height="29.39"/>
	
		<rect x="202.43" y="458.318" transform="matrix(-0.5299 -0.848 0.848 -0.5299 -77.0937 903.2928)" class="st2" width="18.75" height="29.39"/>
	
		<rect x="178.278" y="434.538" transform="matrix(-0.5299 -0.848 0.848 -0.5299 -79.6608 854.3085)" class="st2" width="37.333" height="29.39"/>
	
		<rect x="157.029" y="402.064" transform="matrix(-0.5299 -0.848 0.848 -0.5299 -83.1664 787.4189)" class="st2" width="39.25" height="29.39"/>
	
		<rect x="141.278" y="366.135" transform="matrix(-0.5299 -0.848 0.848 -0.5299 -90.63 707.6726)" class="st2" width="19.083" height="25.64"/>
	<polygon class="st2" points="424.037,648.898 427.769,654.87 426.143,655.886 403.062,650.557 400.656,646.705 416.486,636.814 	
		"/>
	
		<rect x="398.467" y="626.826" transform="matrix(-0.5299 -0.848 0.848 -0.5299 80.2327 1316.7915)" class="st6" width="13.208" height="18.667"/>
	
		<rect x="392.392" y="616.137" transform="matrix(-0.5299 -0.848 0.848 -0.5299 79.0788 1294.774)" class="st6" width="12" height="18.667"/>
	
		<rect x="385.555" y="605.695" transform="matrix(-0.5299 -0.848 0.848 -0.5299 77.9516 1273.266)" class="st6" width="12.625" height="18.667"/>
	
		<rect x="376.389" y="599.567" transform="matrix(-0.5299 -0.848 0.848 -0.5299 71.6338 1251.5922)" class="st1" width="12.625" height="12.75"/>
	
		<rect x="369.507" y="588.755" transform="matrix(-0.5299 -0.848 0.848 -0.5299 70.4666 1229.3199)" class="st0" width="12.875" height="12.75"/>
	
		<rect x="353.712" y="572.863" transform="matrix(-0.5299 -0.848 0.848 -0.5299 68.751 1196.5848)" class="st1" width="24.604" height="12.75"/>
	<path class="st1" d="M437.272,527.132l-36.299-58.091l-74.664,46.655l25.524,40.848l5.406-3.378l4.841-3.025l7.662,12.261
		l-4.841,3.025l26.551,42.491l5.018-3.135l-10.278-16.449l2.615-1.634l-2.526-6.873l-3.162,0.6c0,0-1.731-5.6,0.373-18.117
		l3.348,0.954l4.152-2.594l4.946,7.915l8.215-5.134l-11.217-17.95c0,0,13.42-20.669,41.438-11.055L437.272,527.132z"/>
	<line class="st2" x1="275.289" y1="554.986" x2="294.655" y2="542.885"/>
	<polygon class="st2" points="509.604,607.713 526.259,597.306 536.106,613.066 524.95,620.037 516.094,618.099 	"/>
	<polyline class="st2" points="567.645,571.445 565.576,580.407 560.326,583.688 556.879,578.173 526.259,597.306 	"/>
	<polygon class="st2" points="541.569,587.739 567.645,571.445 569.862,562.838 552.691,535.358 521.152,555.065 	"/>
	
		<rect x="496.532" y="562.125" transform="matrix(0.848 -0.5299 0.5299 0.848 -229.7768 361.452)" class="st2" width="37.692" height="38.528"/>
	<polygon class="st2" points="552.691,535.358 554.59,527.134 541.487,506.165 532.647,504.085 501.469,523.567 521.152,555.065 	
		"/>
	<polygon class="st2" points="521.152,555.065 489.187,575.039 479.817,572.876 467.255,552.774 469.413,543.598 501.469,523.567 	
		"/>
	<polygon class="st2" points="532.647,504.085 516.222,477.799 507.9,475.878 481.844,492.16 501.469,523.567 	"/>
	<polygon class="st2" points="469.413,543.598 453.352,517.895 455.41,508.98 481.98,492.377 501.469,523.567 	"/>
	<polygon class="st2" points="468.482,412.903 470.565,403.88 454.34,377.914 422.385,397.881 442.08,429.401 	"/>
	<polygon class="st2" points="442.08,429.401 415.903,445.758 406.394,443.562 390.355,417.896 422.385,397.881 	"/>
	<polygon class="st1" points="454.34,377.914 456.4,368.99 443.228,347.91 434.335,345.721 402.208,365.796 422.294,397.938 	"/>
	<polygon class="st2" points="422.294,397.938 390.355,417.896 381.675,415.892 367.967,393.955 369.952,385.952 402.208,365.796 	
		"/>
	
		<rect x="416.745" y="335.97" transform="matrix(-0.5299 -0.848 0.848 -0.5299 356.8999 885.5238)" class="st2" width="14.264" height="15.751"/>
	
		<rect x="403.822" y="344.558" transform="matrix(-0.5299 -0.848 0.848 -0.5299 330.2813 886.9189)" class="st2" width="14.264" height="14.725"/>
	
		<rect x="388.206" y="350.564" transform="matrix(-0.5299 -0.848 0.848 -0.5299 298.1144 888.6047)" class="st2" width="14.264" height="22.23"/>
	
		<rect x="397.934" y="312.37" transform="matrix(-0.5299 -0.848 0.848 -0.5299 341.9183 844.6822)" class="st2" width="14.264" height="30.413"/>
	
		<rect x="375.586" y="330.459" transform="matrix(-0.5299 -0.848 0.848 -0.5299 295.8836 847.0948)" class="st2" width="14.264" height="22.167"/>
	
		<rect x="356.705" y="342.16" transform="matrix(-0.5299 -0.848 0.848 -0.5299 256.9925 849.133)" class="st2" width="14.264" height="22.361"/>
	
		<rect x="369.069" y="362.186" transform="matrix(-0.5299 -0.848 0.848 -0.5299 258.6962 890.6705)" class="st2" width="14.264" height="22.901"/>
	<polygon class="st2" points="382.06,333.581 414.183,313.47 416.296,304.318 403.351,283.603 393.575,281.346 361.846,301.172 	"/>
	<polygon class="st2" points="382.178,333.507 350.712,353.131 341.681,350.943 328.736,330.227 330.864,320.532 361.911,301.132 	
		"/>
	<path class="st2" d="M346.489,310.769l-2.688-4.301l-16.136,10.083l2.688,4.301C330.353,320.852,347.196,310.327,346.489,310.769z"
		/>
	
		<rect x="372.041" y="269.409" transform="matrix(0.5299 0.848 -0.848 0.5299 415.4071 -192.1131)" class="st2" width="17.905" height="18.482"/>
	
		<rect x="491.697" y="384.028" transform="matrix(-0.5299 -0.848 0.848 -0.5299 444.3567 1051.1799)" class="st2" width="43.642" height="36.813"/>
	
		<rect x="535.942" y="358.033" transform="matrix(-0.5299 -0.848 0.848 -0.5299 526.3144 1052.1396)" class="st2" width="37.642" height="44.333"/>
	
		<rect x="560.821" y="346.657" transform="matrix(-0.5299 -0.848 0.848 -0.5299 586.7425 1043.7178)" class="st2" width="43.642" height="25.167"/>
	
		<rect x="601.099" y="356.345" transform="matrix(-0.5299 -0.848 0.848 -0.5299 621.2596 1069.6431)" class="st2" width="11.975" height="12.583"/>
	
		<rect x="583.999" y="330.066" transform="matrix(-0.5299 -0.848 0.848 -0.5299 618.4228 1015.5128)" class="st2" width="13.333" height="12.583"/>
	
		<rect x="563.701" y="307.821" transform="matrix(-0.5299 -0.848 0.848 -0.5299 616.0214 969.6919)" class="st2" width="26.128" height="12.583"/>
	
		<rect x="547.659" y="311.54" transform="matrix(-0.5299 -0.848 0.848 -0.5299 582.9778 971.4236)" class="st2" width="26.128" height="25.194"/>
	
		<rect x="531.741" y="327.785" transform="matrix(-0.5299 -0.848 0.848 -0.5299 550.1893 973.142)" class="st2" width="26.128" height="12.597"/>
	
		<rect x="521.058" y="334.46" transform="matrix(-0.5299 -0.848 0.848 -0.5299 528.1841 974.2952)" class="st2" width="26.128" height="12.597"/>
	
		<rect x="504.925" y="338.114" transform="matrix(-0.5299 -0.848 0.848 -0.5299 494.9512 976.0369)" class="st2" width="26.128" height="25.452"/>
	
		<rect x="476.995" y="351.688" transform="matrix(-0.5299 -0.848 0.848 -0.5299 440.8655 984.5642)" class="st2" width="32.628" height="36.813"/>
	
		<rect x="443.456" y="312.677" transform="matrix(-0.5299 -0.848 0.848 -0.5299 438.8849 907.7783)" class="st4" width="55.164" height="39.146"/>
	
		<rect x="485.091" y="244.012" transform="matrix(-0.5299 -0.848 0.848 -0.5299 552.3771 885.9562)" class="st7" width="73.289" height="91.744"/>
	
		<rect x="313.083" y="108.042" transform="matrix(-0.5299 -0.848 0.848 -0.5299 504.5014 626.6234)" class="st0" width="225.679" height="130.89"/>
	
		<rect x="589.889" y="343.493" transform="matrix(-0.5299 -0.848 0.848 -0.5299 619.8723 1043.1711)" class="st2" width="18.333" height="12.583"/>
	
		<rect x="360.601" y="255.471" transform="matrix(0.5299 0.848 -0.848 0.5299 394.384 -188.0871)" class="st2" width="12.5" height="12.459"/>
	
		<rect x="324.928" y="248.156" transform="matrix(0.5299 0.848 -0.848 0.5299 388.3048 -160.501)" class="st2" width="28" height="43.708"/>
	
		<rect x="310.09" y="224.411" transform="matrix(0.5299 0.848 -0.848 0.5299 361.1927 -159.0801)" class="st2" width="28" height="43.708"/>
	
		<rect x="281.502" y="230.584" transform="matrix(0.5299 0.848 -0.848 0.5299 336.4048 -139.5559)" class="st2" width="25.167" height="6.167"/>
	
		<rect x="292.001" y="217.81" transform="matrix(0.5299 0.848 -0.848 0.5299 335.7766 -151.5432)" class="st2" width="25.167" height="18.593"/>
	
		<rect x="260.37" y="167.379" transform="matrix(-0.5299 -0.848 0.848 -0.5299 280.8315 534.1338)" class="st1" width="56.167" height="43.708"/>
	
		<rect x="301.634" y="136.644" transform="matrix(-0.5299 -0.848 0.848 -0.5299 350.55 505.2272)" class="st1" width="27.333" height="37.626"/>
	<polygon class="st1" points="324.013,133.898 271.01,167.018 267.565,161.505 288.06,148.699 278.117,132.787 310.626,112.474 	"/>
	<line class="st2" x1="267.565" y1="161.505" x2="257.248" y2="167.953"/>
	
		<rect x="237.939" y="150.937" transform="matrix(0.5299 0.848 -0.848 0.5299 249.737 -130.0515)" class="st2" width="8.477" height="18.612"/>
	<polygon class="st2" points="124.055,229.056 163.232,291.752 142.667,304.602 135.38,292.942 128.663,291.391 108.857,259.695 
		110.401,253.21 103.38,241.975 	"/>
	
		<rect x="237.307" y="246.867" transform="matrix(-0.5299 -0.848 0.848 -0.5299 194.4615 640.1094)" class="st0" width="74.667" height="38.583"/>
	
		<rect x="198.68" y="256.138" transform="matrix(0.848 -0.5299 0.5299 0.848 -120.426 166.9679)" class="st0" width="64.5" height="74.667"/>
	<polygon class="st2" points="142.667,304.602 183.797,278.901 223.364,342.222 182.234,367.923 168.434,345.839 162.922,349.283 
		150.667,329.672 156.18,326.228 	"/>
	
		<rect x="127.325" y="307.739" transform="matrix(0.5299 0.848 -0.848 0.5299 330.8727 25.0673)" class="st2" width="31" height="6.5"/>
	<polygon class="st4" points="103.38,241.975 86.262,252.479 107.508,286.48 111.217,292.416 100.809,298.92 98.556,295.316 
		87.591,302.168 57.386,253.829 95.792,229.831 	"/>
	
		<rect x="102.862" y="334.262" transform="matrix(-0.5299 -0.848 0.848 -0.5299 -94.0707 642.0204)" class="st4" width="56.083" height="25.64"/>
	
		<rect x="85.364" y="306.296" transform="matrix(0.5299 0.848 -0.848 0.5299 313.0738 60.6113)" class="st2" width="33" height="12.82"/>
	<line class="st2" x1="111.217" y1="292.416" x2="122.478" y2="310.437"/>
	<polygon class="st2" points="234.139,359.466 254.144,391.48 210.257,418.903 205.753,411.694 216.86,404.754 201.36,379.949 	"/>
	
		<rect x="197.008" y="381.197" transform="matrix(0.848 -0.5299 0.5299 0.848 -178.8227 168.0143)" class="st2" width="13.097" height="29.25"/>
	<polygon class="st2" points="210.257,418.903 213.967,424.839 225.074,417.899 241.148,443.623 273.927,423.14 254.144,391.48 	"/>
	
		<rect x="197.155" y="393.831" transform="matrix(-0.5299 -0.848 0.848 -0.5299 -23.7587 787.5898)" class="st2" width="18.5" height="13.097"/>
	<polygon class="st2" points="273.927,423.14 241.148,443.623 257.134,469.206 246.027,476.146 249.913,482.365 293.799,454.942 	
		"/>
	<polygon class="st2" points="249.913,482.365 293.799,454.942 313.671,486.744 280.892,507.226 264.95,481.714 253.843,488.655 	
		"/>
	
		<rect x="214.761" y="423.407" transform="matrix(0.5299 0.848 -0.848 0.5299 470.3373 11.3999)" class="st2" width="20.25" height="13.097"/>
	
		<rect x="227.849" y="436.251" transform="matrix(0.5299 0.848 -0.848 0.5299 485.0029 10.6313)" class="st2" width="10.125" height="13.097"/>
	
		<rect x="233.226" y="444.855" transform="matrix(0.5299 0.848 -0.848 0.5299 494.827 10.1165)" class="st2" width="10.125" height="13.097"/>
	
		<rect x="238.808" y="453.05" transform="matrix(0.5299 0.848 -0.848 0.5299 504.1841 9.6261)" class="st2" width="9.202" height="13.097"/>
	
		<rect x="257.169" y="482.655" transform="matrix(0.5299 0.848 -0.848 0.5299 537.9865 7.8546)" class="st2" width="9.479" height="13.097"/>
	
		<rect x="262.006" y="491.03" transform="matrix(0.5299 0.848 -0.848 0.5299 547.5484 7.3535)" class="st2" width="10.271" height="13.097"/>
	
		<rect x="267.434" y="499.767" transform="matrix(0.5299 0.848 -0.848 0.5299 557.5238 6.8307)" class="st2" width="10.333" height="13.097"/>
	
		<rect x="243.304" y="461.54" transform="matrix(0.5299 0.848 -0.848 0.5299 513.877 9.1181)" class="st2" width="10.819" height="13.097"/>
	
		<rect x="301.852" y="490.816" transform="matrix(0.5299 0.848 -0.848 0.5299 569.95 -29.3344)" class="st2" width="19.167" height="17.25"/>
	<polygon class="st2" points="323.828,502.998 352.238,485.246 339.718,465.21 334.141,460.294 330.343,454.216 303.735,470.843 	
		"/>
	<polygon class="st2" points="303.735,470.843 332.145,453.09 319.626,433.055 314.048,428.139 310.25,422.061 283.643,438.688 	"/>
	<polygon class="st2" points="264.19,407.557 292.6,389.805 280.08,369.77 274.503,364.853 271.235,359.624 244.627,376.25 	"/>
	<polygon class="st2" points="264.146,407.486 292.556,389.734 305.075,409.769 307.048,416.938 310.25,422.061 283.643,438.688 	
		"/>
	
		<rect x="242.791" y="343.857" transform="matrix(0.5299 0.848 -0.848 0.5299 423.6945 -45.2757)" class="st2" width="19.792" height="31.375"/>
	<polygon class="st2" points="354.623,394.866 322.468,414.959 309.889,394.829 307.916,387.661 304.118,381.583 334.471,362.616 	
		"/>
	<polygon class="st2" points="314.975,331.415 282.819,351.508 295.339,371.543 300.917,376.459 304.118,381.583 334.471,362.616 	
		"/>
	<polygon class="st2" points="394.271,458.317 362.116,478.41 349.597,458.374 347.623,451.206 343.826,445.128 374.179,426.162 	
		"/>
	<polygon class="st2" points="354.623,394.866 322.468,414.959 335.046,435.088 340.624,440.005 343.826,445.128 374.179,426.162 	
		"/>
	
		<rect x="292.365" y="318.882" transform="matrix(-0.5299 -0.848 0.848 -0.5299 183.399 758.3831)" class="st3" width="19.048" height="18.958"/>
	
		<rect x="276.305" y="328.897" transform="matrix(-0.5299 -0.848 0.848 -0.5299 150.3182 760.1168)" class="st3" width="19.048" height="19"/>
	<polygon class="st2" points="689.077,364.088 708.243,394.759 676.206,414.777 672.85,409.406 678.08,406.139 662.27,380.838 	"/>
	
		<rect x="285.669" y="614.443" transform="matrix(0.5299 0.848 -0.848 0.5299 675.3213 35.6681)" class="st6" width="39.636" height="25.094"/>
	<line class="st8" x1="232.04" y1="161.58" x2="162.711" y2="292.077"/>
	<line class="st8" x1="271.217" y1="224.275" x2="123.396" y2="229.468"/>
	<line class="st8" x1="310.784" y1="287.596" x2="238.496" y2="244.721"/>
	<line class="st8" x1="451.818" y1="445.009" x2="410.661" y2="448.716"/>
	<line class="st8" x1="492.072" y1="440.235" x2="471.925" y2="442.049"/>
	<line class="st8" x1="451.818" y1="445.009" x2="473.508" y2="409.444"/>
	<line class="st8" x1="429.552" y1="479.302" x2="440.027" y2="461.751"/>
	<line class="st8" x1="278.063" y1="308.042" x2="183.797" y2="278.901"/>
	
		<rect x="160.671" y="162.999" transform="matrix(-0.5299 -0.848 0.848 -0.5299 110.1436 514.3851)" class="st5" width="73.929" height="127.333"/>
	<line class="st8" x1="421.627" y1="43.113" x2="430.218" y2="303.861"/>
	<line class="st8" x1="310.626" y1="112.474" x2="541.219" y2="234.5"/>
	<line class="st8" x1="271.217" y1="224.275" x2="278.063" y2="308.042"/>
	<line class="st8" x1="238.461" y1="244.743" x2="223.364" y2="342.222"/>
	<line class="st8" x1="265.546" y1="539.393" x2="273.465" y2="599.421"/>
	<line class="st8" x1="294.746" y1="586.123" x2="244.275" y2="552.708"/>
	<line class="st8" x1="384.763" y1="597.211" x2="367.127" y2="593.049"/>
	<polygon class="st2" points="393.575,281.346 384.028,266.1 378.082,269.914 387.57,285.098 	"/>
	<line class="st8" x1="635.375" y1="551.036" x2="572.722" y2="531.915"/>
	<line class="st8" x1="598.909" y1="573.823" x2="609.28" y2="509.071"/>
	<line class="st8" x1="676.372" y1="532.985" x2="652.459" y2="518.251"/>
	<line class="st8" x1="665.795" y1="539.594" x2="663.035" y2="511.642"/>
	
		<rect x="636.903" y="482.095" transform="matrix(-0.848 0.5299 -0.5299 -0.848 1446.6989 569.097)" class="st2" width="9.706" height="19.741"/>
	<line class="st8" x1="377.94" y1="586.292" x2="373.95" y2="603.967"/>
</g>
<g id="murs">
	<line class="st5" x1="477.038" y1="450.96" x2="445.951" y2="470.385"/>
	<line class="st5" x1="478.389" y1="453.124" x2="447.303" y2="472.549"/>
	<line class="st5" x1="479.741" y1="455.288" x2="448.655" y2="474.712"/>
	<line class="st5" x1="481.093" y1="457.451" x2="450.007" y2="476.876"/>
	<line class="st5" x1="482.445" y1="459.615" x2="451.359" y2="479.039"/>
	<line class="st5" x1="483.797" y1="461.778" x2="452.711" y2="481.203"/>
	<line class="st5" x1="485.149" y1="463.942" x2="454.063" y2="483.366"/>
	<line class="st5" x1="486.501" y1="466.105" x2="455.415" y2="485.53"/>
	<line class="st5" x1="467.438" y1="435.598" x2="436.352" y2="455.023"/>
	<line class="st5" x1="468.79" y1="437.761" x2="437.703" y2="457.186"/>
	<line class="st5" x1="470.142" y1="439.925" x2="439.055" y2="459.35"/>
	<line class="st5" x1="471.494" y1="442.088" x2="440.407" y2="461.513"/>
	<line class="st5" x1="472.845" y1="444.252" x2="441.759" y2="463.677"/>
	<line class="st5" x1="474.197" y1="446.415" x2="443.111" y2="465.84"/>
	<line class="st5" x1="475.549" y1="448.579" x2="444.463" y2="468.004"/>
	<line class="st5" x1="466.585" y1="434.233" x2="487.605" y2="467.872"/>
	<line class="st5" x1="456.519" y1="487.297" x2="435.499" y2="453.658"/>
	<polyline class="st5" points="476.609,450.275 492.728,440.202 473.651,409.673 410.509,449.128 429.586,479.658 445.523,469.7 	
		"/>
	<line class="st5" x1="343.801" y1="306.467" x2="342.211" y2="303.923"/>
	<polyline class="st5" points="338.7,298.256 337.022,295.57 368.413,275.955 377.901,291.14 	"/>
	<line class="st5" x1="131.855" y1="299.566" x2="125.495" y2="303.541"/>
	<polyline class="st5" points="103.16,250.578 95.422,255.414 100.854,264.106 95.298,267.578 	"/>
	<polyline class="st5" points="309.199,512.139 279.942,530.421 277.16,525.969 	"/>
	<line class="st5" x1="269.785" y1="514.167" x2="272.523" y2="518.549"/>
	<polyline class="st5" points="314.975,331.415 301.524,309.891 290.465,316.802 	"/>
	<polyline class="st5" points="280.076,323.293 269.369,329.983 282.819,351.508 	"/>
	<polyline class="st5" points="327.932,518.293 307.755,530.901 331.25,568.5 341.338,562.196 	"/>
	<polyline class="st5" points="485.746,652.199 474.722,659.088 461.43,637.816 493.797,617.591 507.089,638.863 495.852,645.884 	
		"/>
	<polyline class="st5" points="445.492,658.387 446.641,660.225 465.535,664.829 474.722,659.088 	"/>
	<polyline class="st5" points="536.106,613.066 566.727,593.932 564.676,590.649 	"/>
	<polyline class="st5" points="166.748,380.253 169.928,378.266 172.931,383.071 	"/>
	<polyline class="st5" points="695.096,491.609 708.432,512.951 697.714,519.648 	"/>
	<polyline class="st5" points="684.378,498.306 694.005,513.712 700.648,509.561 	"/>
	<polyline class="st5" points="635.303,395.921 622.232,375.002 611.514,381.699 	"/>
	<polyline class="st5" points="621.822,383.414 615.179,387.565 624.585,402.618 	"/>
	<polyline class="st5" points="399.073,573.603 405.299,583.568 410.617,580.245 	"/>
	<line class="st2" x1="416.836" y1="576.358" x2="421.288" y2="573.576"/>
</g>
</svg>
