<?xml version="1.0" encoding="utf-8"?>
<!-- Generator: Adobe Illustrator 19.0.0, SVG Export Plug-In . SVG Version: 6.00 Build 0)  -->
<svg version="1.0" id="icones" xmlns="http://www.w3.org/2000/svg" xmlns:xlink="http://www.w3.org/1999/xlink" x="0px" y="0px"
	 viewBox="0 0 720.667 762.667" style="enable-background:new 0 0 720.667 762.667;" xml:space="preserve">
<style type="text/css">
	.st0{fill:#1D1D1B;}
	.st1{fill:#FFFFFF;}
</style>
<g>
	<path class="st0" d="M58.489,181.464h-7.594c-1.034,0-1.872-0.838-1.872-1.872v-7.594c0-1.034,0.838-1.872,1.872-1.872h7.594
		c1.034,0,1.872,0.838,1.872,1.872v7.594C60.361,180.626,59.523,181.464,58.489,181.464z"/>
	<polygon class="st1" points="54.692,172.098 54.692,174.563 52.605,174.563 52.605,177.028 50.518,177.028 50.518,179.492 
		54.692,179.492 54.692,177.028 56.779,177.028 56.779,174.563 58.866,174.563 58.866,172.098 	"/>
</g>
<g>
	<path class="st0" d="M550.217,313.264h-7.594c-1.034,0-1.872-0.838-1.872-1.872v-7.594c0-1.034,0.838-1.872,1.872-1.872h7.594
		c1.034,0,1.872,0.838,1.872,1.872v7.594C552.089,312.426,551.251,313.264,550.217,313.264z"/>
	<polygon class="st1" points="546.42,303.897 546.42,306.362 544.333,306.362 544.333,308.827 542.245,308.827 542.245,311.292 
		546.42,311.292 546.42,308.827 548.507,308.827 548.507,306.362 550.594,306.362 550.594,303.897 	"/>
</g>
<g>
	<path class="st0" d="M34.834,193.967H27.24c-1.034,0-1.872-0.838-1.872-1.872V184.5c0-1.034,0.838-1.872,1.872-1.872h7.594
		c1.034,0,1.872,0.838,1.872,1.872v7.594C36.706,193.129,35.868,193.967,34.834,193.967z"/>
	<polygon class="st1" points="31.037,184.6 31.037,187.065 28.95,187.065 28.95,189.53 26.863,189.53 26.863,191.995 
		31.037,191.995 31.037,189.53 33.124,189.53 33.124,187.065 35.211,187.065 35.211,184.6 	"/>
</g>
<g>
	<path class="st0" d="M164.135,311.939h-7.594c-1.034,0-1.872-0.838-1.872-1.872v-7.594c0-1.034,0.838-1.872,1.872-1.872h7.594
		c1.034,0,1.872,0.838,1.872,1.872v7.594C166.007,311.101,165.169,311.939,164.135,311.939z"/>
	<polygon class="st1" points="160.338,302.573 160.338,305.037 158.251,305.037 158.251,307.502 156.164,307.502 156.164,309.967 
		160.338,309.967 160.338,307.502 162.425,307.502 162.425,305.037 164.512,305.037 164.512,302.573 	"/>
</g>
<g>
	<path class="st0" d="M331.672,451.718h-7.594c-1.034,0-1.872-0.838-1.872-1.872v-7.594c0-1.034,0.838-1.872,1.872-1.872h7.594
		c1.034,0,1.872,0.838,1.872,1.872v7.594C333.544,450.88,332.706,451.718,331.672,451.718z"/>
	<polygon class="st1" points="327.875,442.352 327.875,444.816 325.788,444.816 325.788,447.281 323.701,447.281 323.701,449.746 
		327.875,449.746 327.875,447.281 329.962,447.281 329.962,444.816 332.049,444.816 332.049,442.352 	"/>
</g>
<g>
	<path class="st0" d="M287.704,548.033h-7.594c-1.034,0-1.872-0.838-1.872-1.872v-7.594c0-1.034,0.838-1.872,1.872-1.872h7.594
		c1.034,0,1.872,0.838,1.872,1.872v7.594C289.576,547.195,288.738,548.033,287.704,548.033z"/>
	<polygon class="st1" points="283.907,538.666 283.907,541.131 281.819,541.131 281.819,543.596 279.732,543.596 279.732,546.061 
		283.907,546.061 283.907,543.596 285.994,543.596 285.994,541.131 288.081,541.131 288.081,538.666 	"/>
</g>
<g>
	<path class="st0" d="M419.768,394.857h-7.594c-1.034,0-1.872-0.838-1.872-1.872v-7.594c0-1.034,0.838-1.872,1.872-1.872h7.594
		c1.034,0,1.872,0.838,1.872,1.872v7.594C421.64,394.019,420.802,394.857,419.768,394.857z"/>
	<polygon class="st1" points="415.971,385.491 415.971,387.955 413.883,387.955 413.883,390.42 411.796,390.42 411.796,392.885 
		415.971,392.885 415.971,390.42 418.058,390.42 418.058,387.955 420.145,387.955 420.145,385.491 	"/>
</g>
<g>
	<path class="st0" d="M277.955,360.371h-7.594c-1.034,0-1.872-0.838-1.872-1.872v-7.594c0-1.034,0.838-1.872,1.872-1.872h7.594
		c1.034,0,1.872,0.838,1.872,1.872v7.594C279.827,359.533,278.989,360.371,277.955,360.371z"/>
	<polygon class="st1" points="274.158,351.004 274.158,353.469 272.071,353.469 272.071,355.934 269.984,355.934 269.984,358.399 
		274.158,358.399 274.158,355.934 276.245,355.934 276.245,353.469 278.332,353.469 278.332,351.004 	"/>
</g>
<g>
	<path class="st0" d="M481.431,201.381h-7.594c-1.034,0-1.872-0.838-1.872-1.872v-7.594c0-1.034,0.838-1.872,1.872-1.872h7.594
		c1.034,0,1.872,0.838,1.872,1.872v7.594C483.303,200.543,482.465,201.381,481.431,201.381z"/>
	<polygon class="st1" points="477.634,192.015 477.634,194.48 475.547,194.48 475.547,196.945 473.46,196.945 473.46,199.409 
		477.634,199.409 477.634,196.945 479.721,196.945 479.721,194.48 481.808,194.48 481.808,192.015 	"/>
</g>
<g>
	<path class="st0" d="M572.413,509.5h-7.594c-1.034,0-1.872-0.838-1.872-1.872v-7.594c0-1.034,0.838-1.872,1.872-1.872h7.594
		c1.034,0,1.872,0.838,1.872,1.872v7.594C574.285,508.662,573.447,509.5,572.413,509.5z"/>
	<polygon class="st1" points="568.616,500.133 568.616,502.598 566.528,502.598 566.528,505.063 564.441,505.063 564.441,507.528 
		568.616,507.528 568.616,505.063 570.703,505.063 570.703,502.598 572.79,502.598 572.79,500.133 	"/>
</g>
<g>
	<path class="st0" d="M576.587,595.614h-7.594c-1.034,0-1.872-0.838-1.872-1.872v-7.594c0-1.034,0.838-1.872,1.872-1.872h7.594
		c1.034,0,1.872,0.838,1.872,1.872v7.594C578.459,594.776,577.621,595.614,576.587,595.614z"/>
	<polygon class="st1" points="572.79,586.247 572.79,588.712 570.703,588.712 570.703,591.177 568.616,591.177 568.616,593.642 
		572.79,593.642 572.79,591.177 574.877,591.177 574.877,588.712 576.964,588.712 576.964,586.247 	"/>
</g>
<g>
	<path class="st0" d="M662.565,723.201h-7.594c-1.034,0-1.872-0.838-1.872-1.872v-7.594c0-1.034,0.838-1.872,1.872-1.872h7.594
		c1.034,0,1.872,0.838,1.872,1.872v7.594C664.437,722.363,663.599,723.201,662.565,723.201z"/>
	<polygon class="st1" points="658.768,713.835 658.768,716.3 656.681,716.3 656.681,718.765 654.594,718.765 654.594,721.229 
		658.768,721.229 658.768,718.765 660.855,718.765 660.855,716.3 662.942,716.3 662.942,713.835 	"/>
</g>
<g>
	<g>
		<path class="st0" d="M589.862,529.649h-7.594c-1.034,0-1.872-0.838-1.872-1.872v-7.594c0-1.034,0.838-1.872,1.872-1.872h7.594
			c1.034,0,1.872,0.838,1.872,1.872v7.594C591.734,528.811,590.896,529.649,589.862,529.649z"/>
		<g>
			<path class="st1" d="M584.596,528.571h-2.058c-0.517,0-0.936-0.419-0.936-0.936v-7.311c0-0.517,0.419-0.936,0.936-0.936h2.058
				c0.517,0,0.936,0.419,0.936,0.936v7.311C585.532,528.152,585.113,528.571,584.596,528.571z"/>
			<path class="st1" d="M589.592,528.571h-2.058c-0.517,0-0.936-0.419-0.936-0.936v-7.311c0-0.517,0.419-0.936,0.936-0.936h2.058
				c0.517,0,0.936,0.419,0.936,0.936v7.311C590.528,528.152,590.109,528.571,589.592,528.571z"/>
		</g>
	</g>
	<path class="st0" d="M585.051,523.317l-1.444-1.444c-0.061-0.061-0.159-0.061-0.22,0l-1.444,1.444
		c-0.098,0.098-0.029,0.265,0.11,0.265h0.849v2.19c0,0.199,0.161,0.36,0.36,0.36h0.471c0.199,0,0.36-0.161,0.36-0.36v-2.19h0.849
		C585.079,523.582,585.149,523.415,585.051,523.317z"/>
	<path class="st0" d="M587.009,524.642l1.444,1.444c0.061,0.061,0.159,0.061,0.22,0l1.444-1.444c0.098-0.098,0.029-0.265-0.11-0.265
		h-0.849v-2.19c0-0.199-0.161-0.36-0.36-0.36h-0.471c-0.199,0-0.36,0.161-0.36,0.36v2.19h-0.849
		C586.981,524.377,586.911,524.544,587.009,524.642z"/>
</g>
<g>
	<g>
		<path class="st0" d="M273.353,481.683h-7.594c-1.034,0-1.872-0.838-1.872-1.872v-7.594c0-1.034,0.838-1.872,1.872-1.872h7.594
			c1.034,0,1.872,0.838,1.872,1.872v7.594C275.225,480.845,274.387,481.683,273.353,481.683z"/>
		<g>
			<path class="st1" d="M268.087,480.605h-2.058c-0.517,0-0.936-0.419-0.936-0.936v-7.311c0-0.517,0.419-0.936,0.936-0.936h2.058
				c0.517,0,0.936,0.419,0.936,0.936v7.311C269.023,480.186,268.604,480.605,268.087,480.605z"/>
			<path class="st1" d="M273.083,480.605h-2.058c-0.517,0-0.936-0.419-0.936-0.936v-7.311c0-0.517,0.419-0.936,0.936-0.936h2.058
				c0.517,0,0.936,0.419,0.936,0.936v7.311C274.019,480.186,273.6,480.605,273.083,480.605z"/>
		</g>
	</g>
	<path class="st0" d="M268.541,475.351l-1.444-1.444c-0.061-0.061-0.159-0.061-0.22,0l-1.444,1.444
		c-0.098,0.098-0.029,0.265,0.11,0.265h0.849v2.19c0,0.199,0.161,0.36,0.36,0.36h0.471c0.199,0,0.36-0.161,0.36-0.36v-2.19h0.849
		C268.57,475.617,268.639,475.449,268.541,475.351z"/>
	<path class="st0" d="M270.5,476.676l1.444,1.444c0.061,0.061,0.159,0.061,0.22,0l1.444-1.444c0.098-0.098,0.029-0.265-0.11-0.265
		h-0.849v-2.19c0-0.199-0.161-0.36-0.36-0.36h-0.471c-0.199,0-0.36,0.161-0.36,0.36v2.19h-0.849
		C270.471,476.411,270.402,476.579,270.5,476.676z"/>
</g>
<g>
	<g>
		<path class="st0" d="M132.706,322.486h-7.594c-1.034,0-1.872-0.838-1.872-1.872v-7.594c0-1.034,0.838-1.872,1.872-1.872h7.594
			c1.034,0,1.872,0.838,1.872,1.872v7.594C134.579,321.647,133.74,322.486,132.706,322.486z"/>
		<g>
			<path class="st1" d="M127.44,321.408h-2.058c-0.517,0-0.936-0.419-0.936-0.936v-7.311c0-0.517,0.419-0.936,0.936-0.936h2.058
				c0.517,0,0.936,0.419,0.936,0.936v7.311C128.376,320.989,127.957,321.408,127.44,321.408z"/>
			<path class="st1" d="M132.437,321.408h-2.058c-0.517,0-0.936-0.419-0.936-0.936v-7.311c0-0.517,0.419-0.936,0.936-0.936h2.058
				c0.517,0,0.936,0.419,0.936,0.936v7.311C133.373,320.989,132.953,321.408,132.437,321.408z"/>
		</g>
	</g>
	<path class="st0" d="M127.895,316.154l-1.444-1.444c-0.061-0.061-0.159-0.061-0.22,0l-1.444,1.444
		c-0.098,0.098-0.029,0.265,0.11,0.265h0.849v2.19c0,0.199,0.161,0.36,0.36,0.36h0.471c0.199,0,0.36-0.161,0.36-0.36v-2.19h0.849
		C127.923,316.419,127.993,316.252,127.895,316.154z"/>
	<path class="st0" d="M129.853,317.479l1.444,1.444c0.061,0.061,0.159,0.061,0.22,0l1.444-1.444c0.098-0.098,0.029-0.265-0.11-0.265
		h-0.849v-2.19c0-0.199-0.161-0.36-0.36-0.36h-0.471c-0.199,0-0.36,0.161-0.36,0.36v2.19h-0.849
		C129.825,317.214,129.755,317.381,129.853,317.479z"/>
</g>
<g>
	<g>
		<path class="st0" d="M259.024,401.05h-7.594c-1.034,0-1.872-0.838-1.872-1.872v-7.594c0-1.034,0.838-1.872,1.872-1.872h7.594
			c1.034,0,1.872,0.838,1.872,1.872v7.594C260.896,400.212,260.058,401.05,259.024,401.05z"/>
		<g>
			<path class="st1" d="M253.758,399.972H251.7c-0.517,0-0.936-0.419-0.936-0.936v-7.311c0-0.517,0.419-0.936,0.936-0.936h2.058
				c0.517,0,0.936,0.419,0.936,0.936v7.311C254.694,399.553,254.275,399.972,253.758,399.972z"/>
			<path class="st1" d="M258.754,399.972h-2.058c-0.517,0-0.936-0.419-0.936-0.936v-7.311c0-0.517,0.419-0.936,0.936-0.936h2.058
				c0.517,0,0.936,0.419,0.936,0.936v7.311C259.69,399.553,259.271,399.972,258.754,399.972z"/>
		</g>
	</g>
	<path class="st0" d="M254.213,394.718l-1.444-1.444c-0.061-0.061-0.159-0.061-0.22,0l-1.444,1.444
		c-0.098,0.098-0.029,0.265,0.11,0.265h0.849v2.19c0,0.199,0.161,0.36,0.36,0.36h0.471c0.199,0,0.36-0.161,0.36-0.36v-2.19h0.849
		C254.241,394.984,254.311,394.816,254.213,394.718z"/>
	<path class="st0" d="M256.171,396.043l1.444,1.444c0.061,0.061,0.159,0.061,0.22,0l1.444-1.444c0.098-0.098,0.029-0.265-0.11-0.265
		h-0.849v-2.19c0-0.199-0.161-0.36-0.36-0.36h-0.471c-0.199,0-0.36,0.161-0.36,0.36v2.19h-0.849
		C256.143,395.778,256.073,395.946,256.171,396.043z"/>
</g>
<g>
	<circle class="st0" cx="266.438" cy="340.185" r="4.535"/>
	<path class="st1" d="M267.858,338.15l-2.923-0.675c-0.123-0.028-0.245,0.048-0.274,0.171l-0.675,2.923
		c-0.046,0.198,0.171,0.353,0.343,0.245l1.057-0.661l1.704,2.728c0.155,0.248,0.481,0.323,0.729,0.168l0.587-0.367
		c0.248-0.155,0.323-0.481,0.168-0.729l-1.704-2.728l1.057-0.661C268.1,338.458,268.056,338.195,267.858,338.15z"/>
</g>
<g>
	<circle class="st0" cx="353.91" cy="359.079" r="4.535"/>
	<path class="st1" d="M352.49,361.114l2.923,0.675c0.123,0.028,0.245-0.048,0.274-0.171l0.675-2.923
		c0.046-0.198-0.171-0.353-0.343-0.245l-1.057,0.661l-1.704-2.728c-0.155-0.248-0.481-0.323-0.729-0.168l-0.587,0.367
		c-0.248,0.155-0.323,0.481-0.168,0.729l1.704,2.728l-1.057,0.661C352.248,360.806,352.291,361.068,352.49,361.114z"/>
</g>
<g>
	<path class="st0" d="M117.101,320.63h-7.594c-1.034,0-1.872-0.838-1.872-1.872v-7.594c0-1.034,0.838-1.872,1.872-1.872h7.594
		c1.034,0,1.872,0.838,1.872,1.872v7.594C118.973,319.792,118.135,320.63,117.101,320.63z"/>
	<g>
		<circle class="st1" cx="113.304" cy="311.055" r="0.779"/>
		<path class="st1" d="M115.415,314.881l-0.668-2.199c-0.13-0.389-0.518-0.695-1.084-0.695h-0.718c-0.567,0-0.955,0.306-1.085,0.695
			l-0.668,2.199c-0.138,0.473,0.408,0.641,0.551,0.199l0.705-2.011h0.081c0,0-0.926,3.6-0.965,3.735
			c-0.02,0.067,0.008,0.116,0.08,0.116c0.044,0,0.802,0,0.802,0l0.001,2.364c0,0.481,0.72,0.481,0.72,0v-2.382h0.276l0,2.382
			c0,0.481,0.72,0.481,0.72,0l0-2.364c0,0,0.757,0,0.801,0c0.071,0,0.1-0.049,0.08-0.116c-0.039-0.135-0.966-3.735-0.966-3.735
			h0.082l0.705,2.011C115.008,315.522,115.554,315.354,115.415,314.881z"/>
	</g>
</g>
<g>
	<path class="st0" d="M348.403,439.826h-7.594c-1.034,0-1.872-0.838-1.872-1.872v-7.594c0-1.034,0.838-1.872,1.872-1.872h7.594
		c1.034,0,1.872,0.838,1.872,1.872v7.594C350.275,438.988,349.437,439.826,348.403,439.826z"/>
	<g>
		<circle class="st1" cx="344.607" cy="430.251" r="0.779"/>
		<path class="st1" d="M346.718,434.076l-0.668-2.199c-0.13-0.389-0.518-0.695-1.084-0.695h-0.718c-0.567,0-0.955,0.306-1.085,0.695
			l-0.668,2.199c-0.138,0.473,0.408,0.641,0.551,0.199l0.705-2.011h0.081c0,0-0.926,3.6-0.965,3.735
			c-0.02,0.067,0.008,0.116,0.08,0.116c0.044,0,0.802,0,0.802,0l0.001,2.364c0,0.481,0.72,0.481,0.72,0v-2.382h0.276l0,2.382
			c0,0.481,0.72,0.481,0.72,0l0-2.364c0,0,0.757,0,0.801,0c0.071,0,0.1-0.049,0.08-0.116c-0.039-0.135-0.966-3.735-0.966-3.735
			h0.082l0.705,2.011C346.31,434.717,346.856,434.549,346.718,434.076z"/>
	</g>
</g>
<g>
	<path class="st0" d="M638.886,686.482h-7.594c-1.034,0-1.872-0.838-1.872-1.872v-7.594c0-1.034,0.838-1.872,1.872-1.872h7.594
		c1.034,0,1.872,0.838,1.872,1.872v7.594C640.758,685.644,639.92,686.482,638.886,686.482z"/>
	<g>
		<circle class="st1" cx="635.09" cy="676.907" r="0.779"/>
		<path class="st1" d="M637.201,680.732l-0.668-2.199c-0.13-0.389-0.518-0.695-1.084-0.695h-0.718c-0.567,0-0.955,0.306-1.085,0.695
			l-0.668,2.199c-0.138,0.473,0.408,0.641,0.551,0.199l0.705-2.011h0.081c0,0-0.926,3.6-0.965,3.735
			c-0.02,0.067,0.008,0.116,0.08,0.116c0.044,0,0.802,0,0.802,0l0.001,2.364c0,0.481,0.72,0.481,0.72,0v-2.382h0.276l0,2.382
			c0,0.481,0.72,0.481,0.72,0l0-2.364c0,0,0.757,0,0.801,0c0.071,0,0.1-0.049,0.08-0.116c-0.039-0.135-0.966-3.735-0.966-3.735
			h0.082l0.705,2.011C636.793,681.373,637.339,681.205,637.201,680.732z"/>
	</g>
</g>
<g>
	<path class="st0" d="M347.625,395.86h-7.594c-1.034,0-1.872-0.838-1.872-1.872v-7.594c0-1.034,0.838-1.872,1.872-1.872h7.594
		c1.034,0,1.872,0.838,1.872,1.872v7.594C349.497,395.022,348.659,395.86,347.625,395.86z"/>
	<g>
		<circle class="st1" cx="343.828" cy="386.285" r="0.779"/>
		<path class="st1" d="M345.939,390.111l-0.668-2.199c-0.13-0.389-0.518-0.695-1.084-0.695h-0.718c-0.567,0-0.955,0.306-1.085,0.695
			l-0.668,2.199c-0.138,0.473,0.408,0.641,0.551,0.199l0.705-2.011h0.081c0,0-0.926,3.6-0.965,3.735
			c-0.02,0.067,0.008,0.116,0.08,0.116c0.044,0,0.802,0,0.802,0l0.001,2.364c0,0.481,0.72,0.481,0.72,0v-2.382h0.276l0,2.382
			c0,0.481,0.72,0.481,0.72,0l0-2.364c0,0,0.757,0,0.801,0c0.071,0,0.1-0.049,0.08-0.116c-0.039-0.135-0.966-3.735-0.966-3.735
			h0.082l0.705,2.011C345.532,390.751,346.078,390.583,345.939,390.111z"/>
	</g>
</g>
<g>
	<path class="st0" d="M126.545,337.545h-7.594c-1.034,0-1.872-0.838-1.872-1.872v-7.594c0-1.034,0.838-1.872,1.872-1.872h7.594
		c1.034,0,1.872,0.838,1.872,1.872v7.594C128.417,336.707,127.579,337.545,126.545,337.545z"/>
	<g>
		<circle class="st1" cx="122.748" cy="327.926" r="0.787"/>
		<path class="st1" d="M123.595,328.869l-0.847,0.001l-0.846-0.001c-0.759,0-1.006,0.196-1.006,1.022v2.417
			c0,0.469,0.634,0.469,0.634,0l0.054-2.21h0.163v6.051c0,0.628,0.862,0.61,0.862,0l0.055-3.513h0.171l0.054,3.513
			c0,0.61,0.862,0.628,0.862,0v-6.051h0.163l0.055,2.21c0,0.469,0.633,0.469,0.633,0v-2.417
			C124.599,329.064,124.353,328.869,123.595,328.869z"/>
	</g>
</g>
<g>
	<path class="st0" d="M363.834,429.84h-7.594c-1.034,0-1.872-0.838-1.872-1.872v-7.594c0-1.034,0.838-1.872,1.872-1.872h7.594
		c1.034,0,1.872,0.838,1.872,1.872v7.594C365.706,429.002,364.868,429.84,363.834,429.84z"/>
	<g>
		<circle class="st1" cx="360.037" cy="420.221" r="0.787"/>
		<path class="st1" d="M360.884,421.163l-0.847,0.001l-0.846-0.001c-0.759,0-1.006,0.196-1.006,1.022v2.417
			c0,0.469,0.634,0.469,0.634,0l0.054-2.21h0.163v6.051c0,0.628,0.862,0.61,0.862,0l0.055-3.513h0.171l0.054,3.513
			c0,0.61,0.862,0.628,0.862,0v-6.051h0.163l0.055,2.21c0,0.469,0.633,0.469,0.633,0v-2.417
			C361.889,421.358,361.642,421.163,360.884,421.163z"/>
	</g>
</g>
<g>
	<path class="st0" d="M625.849,665.79h-7.594c-1.034,0-1.872-0.838-1.872-1.872v-7.594c0-1.034,0.838-1.872,1.872-1.872h7.594
		c1.034,0,1.872,0.838,1.872,1.872v7.594C627.721,664.952,626.883,665.79,625.849,665.79z"/>
	<g>
		<circle class="st1" cx="622.052" cy="656.171" r="0.787"/>
		<path class="st1" d="M622.898,657.114l-0.847,0.001l-0.846-0.001c-0.759,0-1.006,0.196-1.006,1.022v2.417
			c0,0.469,0.634,0.469,0.634,0l0.054-2.21h0.163v6.051c0,0.628,0.862,0.61,0.862,0l0.055-3.513h0.171l0.054,3.513
			c0,0.61,0.862,0.628,0.862,0v-6.051h0.163l0.055,2.21c0,0.469,0.633,0.469,0.633,0v-2.417
			C623.903,657.309,623.657,657.114,622.898,657.114z"/>
	</g>
</g>
<g>
	<path class="st0" d="M325.567,409.46h-7.594c-1.034,0-1.872-0.838-1.872-1.872v-7.594c0-1.034,0.838-1.872,1.872-1.872h7.594
		c1.034,0,1.872,0.838,1.872,1.872v7.594C327.439,408.622,326.601,409.46,325.567,409.46z"/>
	<g>
		<circle class="st1" cx="321.77" cy="399.841" r="0.787"/>
		<path class="st1" d="M322.616,400.783l-0.847,0.001l-0.846-0.001c-0.759,0-1.006,0.196-1.006,1.022v2.417
			c0,0.469,0.634,0.469,0.634,0l0.054-2.21h0.163v6.051c0,0.628,0.862,0.61,0.862,0l0.055-3.513h0.171l0.054,3.513
			c0,0.61,0.862,0.628,0.862,0v-6.051h0.163l0.055,2.21c0,0.469,0.633,0.469,0.633,0v-2.417
			C323.621,400.978,323.375,400.783,322.616,400.783z"/>
	</g>
</g>
<g>
	<path class="st0" d="M229.489,97.126h-7.594c-1.034,0-1.872-0.838-1.872-1.872v-7.594c0-1.034,0.838-1.872,1.872-1.872h7.594
		c1.034,0,1.872,0.838,1.872,1.872v7.594C231.361,96.288,230.523,97.126,229.489,97.126z"/>
	<polygon class="st1" points="225.692,87.759 225.692,90.224 223.605,90.224 223.605,92.689 221.518,92.689 221.518,95.154 
		225.692,95.154 225.692,92.689 227.779,92.689 227.779,90.224 229.866,90.224 229.866,87.759 	"/>
</g>
<g>
</g>
<g>
</g>
<g>
</g>
<g>
</g>
<g>
</g>
<g>
</g>
</svg>
