<?xml version="1.0" encoding="utf-8"?>
<!-- Generator: Adobe Illustrator 19.0.1, SVG Export Plug-In . SVG Version: 6.00 Build 0)  -->
<svg version="1.1" xmlns="http://www.w3.org/2000/svg" xmlns:xlink="http://www.w3.org/1999/xlink" x="0px" y="0px"
	 viewBox="0 0 789.169 923.751" style="enable-background:new 0 0 789.169 923.751;" xml:space="preserve">
<style type="text/css">
	.st0{display:none;}
	.st1{fill:#FFFFFF;stroke:#383838;stroke-width:0.5;stroke-miterlimit:10;}
	.st2{fill:#EBF0F2;stroke:#383838;stroke-width:0.5;stroke-miterlimit:10;}
	.st3{fill:#D87979;stroke:#383838;stroke-width:0.5;stroke-miterlimit:10;}
	.st4{fill:none;stroke:#383838;stroke-width:0.5;stroke-miterlimit:10;}
	.st5{fill:#A3CCCB;stroke:#383838;stroke-width:0.5;stroke-miterlimit:10;}
	.st6{fill:#61A1A1;stroke:#383838;stroke-width:0.5;stroke-miterlimit:10;}
	.st7{fill:#D74641;stroke:#383838;stroke-width:0.5;stroke-miterlimit:10;}
	.st8{fill:none;stroke:#A8A8A8;stroke-width:0.5;stroke-miterlimit:10;stroke-dasharray:2;}
	.st9{fill:#FFFFFF;stroke:#A8A8A8;stroke-width:0.5;stroke-miterlimit:10;stroke-dasharray:2;}
</style>
<g id="Calque_2" class="st0">
</g>
<g id="Calque_4">
	<path class="st1" d="M741.674,881.069l9.661,15.461l-43.563,27.221L620.11,783.463l17.465-10.914l-8.95-14.323l6.013-3.757
		l-34.671-75.873l12.085-4.965l-8.051-12.884l-26.21-41.945c0,0-150.326,94.01-156.372,97.712
		c-31.96,19.573-89.614,20.963-122.82-28.355c-8.108-12.042-41.117-65.802-41.117-65.802l21.188-13.239l-30.411-48.668
		l-21.317,13.24l-38.108-60.986L96.921,365.407l-19.099-30.564l-30.036-47.86L0.093,210.658l38.313-23.94l7.589,12.145
		l127.559-79.707l55.832-34.888L364.241,0L522.67,253.539l48.101-30.057l140.266,224.473l40.189,64.523l-2.968,1.855l-18.94,11.835
		l-12.643,7.9l-60.413,37.75l-66.404,41.494l33.608,53.785l62.358-28.217l103.344,219.269L741.674,881.069z"/>
	<polyline class="st2" points="656.189,652.268 662.942,666.993 631.922,680.628 637.751,689.956 655.732,680.931 661.29,692.128 
		664.821,690.286 751.341,876.441 	"/>
	<polygon class="st2" points="775.103,828.304 737.134,845.874 751.341,876.441 789.169,858.149 	"/>
	<polygon class="st2" points="775.103,828.304 760.944,798.262 723.228,815.954 737.134,845.874 	"/>
	<polygon class="st2" points="760.944,798.262 746.903,768.471 709.427,786.259 723.228,815.954 	"/>
	<polygon class="st2" points="746.903,768.471 733.071,739.122 695.521,756.34 709.427,786.259 	"/>
	<polygon class="st2" points="733.071,739.122 719.008,709.284 681.602,726.392 695.521,756.34 	"/>
	<polygon class="st2" points="719.008,709.284 704.929,679.413 667.984,697.092 681.602,726.392 	"/>
	<polygon class="st2" points="664.821,690.286 667.984,697.092 704.929,679.413 685.825,638.88 656.189,652.268 672.4,686.73 	"/>
	<polygon class="st2" points="667.124,675.513 647.038,685.419 642.587,675.973 662.942,666.993 	"/>
	<polygon class="st2" points="642.587,675.973 631.922,680.628 637.751,689.956 647.038,685.419 	"/>
	<polygon class="st2" points="736.995,905.49 718.978,876.657 726.257,872.108 721.974,865.253 685.471,888.063 707.772,923.751 	
		"/>
	<line class="st2" x1="726.257" y1="872.108" x2="733.318" y2="867.696"/>
	<line class="st2" x1="741.674" y1="881.069" x2="738.396" y2="875.824"/>
	<polygon class="st2" points="721.974,865.253 718.308,859.388 710.464,864.289 692.327,835.264 663.669,853.171 685.471,888.063 	
		"/>
	<polygon class="st2" points="718.308,859.388 725.369,854.976 709.648,829.817 694.743,839.131 710.464,864.289 	"/>
	
		<rect x="684.665" y="815.969" transform="matrix(0.5299 0.848 -0.848 0.5299 1026.6675 -202.6441)" class="st2" width="22.917" height="17.576"/>
	
		<rect x="678.195" y="799.679" transform="matrix(0.5299 0.848 -0.848 0.5299 1008.0683 -201.6693)" class="st2" width="15.5" height="17.576"/>
	<polygon class="st2" points="682.23,801.65 678.52,795.713 642.018,818.523 663.669,853.171 692.327,835.264 674.385,806.551 	"/>
	<polygon class="st2" points="678.52,795.713 674.767,789.706 666.922,794.608 648.768,765.555 620.11,783.463 642.018,818.523 	"/>
	<polygon class="st2" points="674.767,789.706 681.827,785.294 674.806,774.058 659.901,783.371 666.922,794.608 	"/>
	
		<rect x="651.283" y="761.019" transform="matrix(0.5299 0.848 -0.848 0.5299 963.9263 -199.356)" class="st2" width="21.009" height="17.576"/>
	<polygon class="st2" points="632.747,750.332 653.918,740.631 644.733,725.931 625.572,734.63 	"/>
	<polygon class="st2" points="644.733,725.931 635.989,711.938 618.699,719.589 625.572,734.63 	"/>
	<polygon class="st2" points="635.989,711.938 627.174,697.831 611.782,704.453 618.699,719.589 	"/>
	<polygon class="st2" points="627.174,697.831 618.546,684.023 605.17,689.983 611.782,704.453 	"/>
	<polygon class="st2" points="618.546,684.023 612.052,673.631 599.967,678.596 605.17,689.983 	"/>
	<line class="st2" x1="653.918" y1="740.631" x2="656.921" y2="745.436"/>
	<line class="st2" x1="663.673" y1="756.242" x2="661.072" y2="752.079"/>
	
		<rect x="578.63" y="592.306" transform="matrix(-0.5299 -0.848 0.848 -0.5299 396.5402 1416.4178)" class="st2" width="24.414" height="12"/>
	
		<rect x="589.159" y="585.31" transform="matrix(-0.5299 -0.848 0.848 -0.5299 418.2301 1415.281)" class="st2" width="24.414" height="12.833"/>
	
		<rect x="599.945" y="578.685" transform="matrix(-0.5299 -0.848 0.848 -0.5299 440.4472 1414.1167)" class="st2" width="24.414" height="12.603"/>
	
		<rect x="605.789" y="569.32" transform="matrix(-0.5299 -0.848 0.848 -0.5299 462.1736 1407.4313)" class="st2" width="30.748" height="12.603"/>
	
		<rect x="587.262" y="542.007" transform="matrix(-0.5299 -0.848 0.848 -0.5299 459.2251 1351.1704)" class="st2" width="33.667" height="12.603"/>
	
		<rect x="585.613" y="522.431" transform="matrix(-0.5299 -0.848 0.848 -0.5299 457.1118 1310.8475)" class="st2" width="12.5" height="12.603"/>
	
		<rect x="602.509" y="510.514" transform="matrix(-0.5299 -0.848 0.848 -0.5299 495.27 1314.3945)" class="st2" width="18.833" height="18.833"/>
	
		<rect x="618.48" y="500.534" transform="matrix(-0.5299 -0.848 0.848 -0.5299 528.1688 1312.6704)" class="st2" width="18.833" height="18.833"/>
	
		<rect x="631.837" y="495.271" transform="matrix(-0.5299 -0.848 0.848 -0.5299 555.6816 1311.2285)" class="st2" width="18.833" height="12.667"/>
	
		<rect x="643.97" y="503.191" transform="matrix(-0.5299 -0.848 0.848 -0.5299 602.1442 1364.9899)" class="st2" width="70.831" height="24.833"/>
	
		<rect x="566.106" y="532.187" transform="matrix(-0.5299 -0.848 0.848 -0.5299 418.5199 1315.4974)" class="st2" width="15.5" height="19.135"/>
	
		<rect x="574.32" y="545.331" transform="matrix(-0.5299 -0.848 0.848 -0.5299 419.9389 1342.5735)" class="st2" width="15.5" height="19.135"/>
	
		<rect x="582.534" y="558.476" transform="matrix(-0.5299 -0.848 0.848 -0.5299 421.3579 1369.6495)" class="st2" width="15.5" height="19.135"/>
	
		<rect x="563.403" y="567.007" transform="matrix(-0.5299 -0.848 0.848 -0.5299 393.8091 1364.3058)" class="st2" width="23.25" height="12"/>
	
		<rect x="551.082" y="547.29" transform="matrix(-0.5299 -0.848 0.848 -0.5299 391.6806 1323.6917)" class="st2" width="23.25" height="12"/>
	<polygon class="st2" points="634.654,585.32 661.05,568.826 630.272,519.571 608.93,532.907 598.95,516.935 593.895,520.093 	"/>
	<polygon class="st2" points="661.05,568.826 687.623,552.222 646.864,486.995 641.635,490.263 651.615,506.234 630.272,519.571 	
		"/>
	
		<rect x="646.589" y="479.953" transform="matrix(-0.848 0.5299 -0.5299 -0.848 1473.8229 543.377)" class="st2" width="24.833" height="6.083"/>
	<polygon class="st2" points="667.924,473.835 664.48,468.323 674.939,461.787 678.383,467.299 710.561,447.193 751.319,512.42 
		708.682,539.062 	"/>
	<polygon class="st2" points="664.48,468.323 674.939,461.787 678.383,467.299 710.561,447.193 690.689,415.391 666.709,430.375 
		674.835,443.379 656.178,455.037 	"/>
	
		<rect x="653.777" y="431.706" transform="matrix(0.5299 0.848 -0.848 0.5299 686.3677 -352.8283)" class="st2" width="15.333" height="22"/>
	<polygon class="st2" points="690.689,415.391 648.052,442.033 644.873,436.945 655.473,430.321 638.604,403.325 670.641,383.306 	
		"/>
	
		<rect x="625.822" y="413.885" transform="matrix(0.5299 0.848 -0.848 0.5299 657.9635 -346.7277)" class="st2" width="31.833" height="12.5"/>
	
		<rect x="609.59" y="387.242" transform="matrix(0.5299 0.848 -0.848 0.5299 627.543 -345.1334)" class="st2" width="31" height="12.5"/>
	
		<rect x="625.842" y="358.819" transform="matrix(-0.848 0.5299 -0.5299 -0.848 1391.5297 355.956)" class="st2" width="37.777" height="37.333"/>
	
		<rect x="607.187" y="368.726" transform="matrix(-0.5299 -0.848 0.848 -0.5299 620.6383 1093.9783)" class="st2" width="12.667" height="12.5"/>
	<polygon class="st2" points="615.464,366.293 620.694,363.026 604.885,337.725 589.054,347.617 604.864,372.917 	"/>
	
		<rect x="575.034" y="298.721" transform="matrix(-0.848 0.5299 -0.5299 -0.848 1277.6458 269.5833)" class="st2" width="50.277" height="38.5"/>
	
		<rect x="556.575" y="272.847" transform="matrix(-0.848 0.5299 -0.5299 -0.848 1227.8789 224.773)" class="st2" width="50.277" height="31.167"/>
	
		<rect x="536.316" y="233.362" transform="matrix(-0.848 0.5299 -0.5299 -0.848 1173.2582 175.5923)" class="st2" width="50.277" height="45.295"/>
	
		<rect x="581.229" y="426.858" transform="matrix(-0.848 0.5299 -0.5299 -0.848 1356.8207 502.4875)" class="st2" width="50.277" height="37.833"/>
	
		<rect x="556.367" y="377.987" transform="matrix(-0.848 0.5299 -0.5299 -0.848 1289.7903 442.133)" class="st2" width="50.277" height="56"/>
	
		<rect x="548.019" y="361.381" transform="matrix(-0.848 0.5299 -0.5299 -0.848 1244.2354 384.983)" class="st2" width="37.805" height="19"/>
	
		<rect x="539.367" y="374.702" transform="matrix(-0.848 0.5299 -0.5299 -0.848 1211.897 420.8985)" class="st2" width="12.472" height="19"/>
	
		<rect x="527.915" y="353.764" transform="matrix(-0.848 0.5299 -0.5299 -0.848 1181.0209 393.0975)" class="st2" width="12.472" height="24.222"/>
	
		<rect x="594.446" y="476.269" transform="matrix(-0.5299 -0.848 0.848 -0.5299 519.5188 1252.9841)" class="st2" width="25.167" height="12.472"/>
	<line class="st2" x1="615.586" y1="484.43" x2="630.427" y2="475.157"/>
	<line class="st2" x1="536.451" y1="357.788" x2="551.292" y2="348.515"/>
	
		<rect x="576.406" y="488.379" transform="matrix(-0.5299 -0.848 0.848 -0.5299 469.2685 1255.5447)" class="st2" width="12.417" height="18.667"/>
	
		<rect x="521.954" y="476.863" transform="matrix(-0.5299 -0.848 0.848 -0.5299 413.7139 1226.0508)" class="st2" width="49.417" height="43"/>
	
		<rect x="551.067" y="467.451" transform="matrix(-0.5299 -0.848 0.848 -0.5299 467.1015 1212.3781)" class="st2" width="37" height="18.558"/>
	
		<rect x="542.527" y="442.208" transform="matrix(-0.5299 -0.848 0.848 -0.5299 459.0369 1163.7184)" class="st2" width="19.042" height="24.854"/>
	
		<rect x="538.055" y="429.174" transform="matrix(-0.5299 -0.848 0.848 -0.5299 468.8665 1129.849)" class="st2" width="19.042" height="11.604"/>
	
		<rect x="511.856" y="397.399" transform="matrix(-0.5299 -0.848 0.848 -0.5299 465.4363 1064.3971)" class="st2" width="31.729" height="11.604"/>
	
		<rect x="486.399" y="365.7" transform="matrix(-0.5299 -0.848 0.848 -0.5299 433.6578 1016.822)" class="st2" width="24.493" height="45.042"/>
	
		<rect x="501.794" y="403.426" transform="matrix(-0.5299 -0.848 0.848 -0.5299 444.7108 1065.4833)" class="st2" width="31.729" height="12.125"/>
	
		<rect x="491.512" y="409.851" transform="matrix(-0.5299 -0.848 0.848 -0.5299 423.5303 1066.5933)" class="st2" width="31.729" height="12.125"/>
	
		<rect x="481.097" y="416.203" transform="matrix(-0.5299 -0.848 0.848 -0.5299 402.0769 1067.7175)" class="st2" width="31.729" height="12.438"/>
	
		<rect x="470.152" y="422.573" transform="matrix(-0.5299 -0.848 0.848 -0.5299 379.5317 1068.8992)" class="st2" width="31.729" height="13.375"/>
	
		<rect x="460.251" y="396.247" transform="matrix(-0.5299 -0.848 0.848 -0.5299 379.7968 1019.6447)" class="st2" width="24.493" height="16.625"/>
	
		<rect x="521.907" y="455.632" transform="matrix(-0.5299 -0.848 0.848 -0.5299 426.6019 1159.6707)" class="st2" width="25.604" height="11.938"/>
	
		<rect x="511.783" y="461.958" transform="matrix(-0.5299 -0.848 0.848 -0.5299 405.749 1160.7634)" class="st2" width="25.604" height="11.938"/>
	
		<rect x="501.236" y="468.049" transform="matrix(-0.5299 -0.848 0.848 -0.5299 384.0226 1161.9021)" class="st2" width="25.604" height="12.938"/>
	<polygon class="st2" points="541.048,413.58 547.451,423.827 537.61,429.977 547.701,446.125 536.464,453.146 532.987,447.581 
		501.768,467.089 488.752,446.258 	"/>
	
		<rect x="523.435" y="600.221" transform="matrix(-0.5299 -0.848 0.848 -0.5299 304.1125 1407.0428)" class="st2" width="37.179" height="38.028"/>
	
		<rect x="504.38" y="569.05" transform="matrix(-0.5299 -0.848 0.848 -0.5299 300.7475 1342.8353)" class="st2" width="36.333" height="38.028"/>
	
		<rect x="491.904" y="620.771" transform="matrix(-0.5299 -0.848 0.848 -0.5299 239.1635 1410.4467)" class="st2" width="37.179" height="36.333"/>
	
		<rect x="475.094" y="647.787" transform="matrix(-0.5299 -0.848 0.848 -0.5299 195.6139 1417.838)" class="st2" width="31.346" height="13.833"/>
	
		<rect x="463.363" y="655.118" transform="matrix(-0.5299 -0.848 0.848 -0.5299 171.4493 1419.1044)" class="st2" width="31.346" height="13.833"/>
	
		<rect x="450.713" y="661.939" transform="matrix(-0.5299 -0.848 0.848 -0.5299 145.3922 1420.47)" class="st2" width="31.346" height="16"/>
	
		<rect x="438.416" y="671.123" transform="matrix(-0.5299 -0.848 0.848 -0.5299 120.063 1421.7975)" class="st2" width="31.346" height="13"/>
	
		<rect x="426.826" y="677.698" transform="matrix(-0.5299 -0.848 0.848 -0.5299 96.1895 1423.0486)" class="st2" width="31.346" height="14.333"/>
	
		<rect x="414.388" y="685.137" transform="matrix(-0.5299 -0.848 0.848 -0.5299 70.5691 1424.3914)" class="st2" width="31.346" height="15"/>
	
		<rect x="472.849" y="589.6" transform="matrix(-0.5299 -0.848 0.848 -0.5299 235.7986 1346.2391)" class="st2" width="36.333" height="36.333"/>
	<polygon class="st2" points="432.006,709.903 416.905,719.067 404.088,690.386 415.395,683.32 	"/>
	<path class="st2" d="M416.905,719.067c0,0-10.29,4.797-15.14,6.114l-7.995-29.92l10.318-4.875L416.905,719.067z"/>
	<path class="st2" d="M393.77,695.261l-12.455,2.083l-1.641,31.698c0,0,11.114-0.212,22.091-3.861L393.77,695.261z"/>
	<path class="st2" d="M381.315,697.344l-15.405-1.379l-3.991,32.407c0,0,14.668,1.434,17.755,0.67L381.315,697.344z"/>
	<path class="st2" d="M356.741,694.815l-12.472-3.605l-13.707,26.842c0,0,10.659,5.356,15.798,6.833L356.741,694.815z"/>
	<path class="st2" d="M344.269,691.21l-9.522-8.004l-19.919,23.66c0,0,9.343,7.908,15.733,11.186L344.269,691.21z"/>
	<path class="st2" d="M334.747,683.206l-6.589-7.085l-24.743,18.63c0,0,7.001,8.564,11.414,12.115L334.747,683.206z"/>
	<path class="st2" d="M328.158,676.122l-5.829-9.329L295.56,683.52c0,0,6.641,9.778,7.855,11.232L328.158,676.122z"/>
	<polygon class="st2" points="322.329,666.793 314.998,655.062 288.144,671.842 295.56,683.52 	"/>
	<polygon class="st2" points="314.998,655.062 308.463,644.602 299.164,650.413 295.543,644.618 277.987,655.588 288.144,671.842 	
		"/>
	
		<rect x="291.064" y="634.958" transform="matrix(0.5299 0.848 -0.848 0.5299 683.8654 47.1554)" class="st2" width="16.667" height="10.965"/>
	<polygon class="st2" points="299.631,630.468 294.773,622.694 267.918,639.475 277.987,655.588 295.543,644.618 290.332,636.279 	
		"/>
	
		<rect x="266.103" y="606.802" transform="matrix(0.5299 0.848 -0.848 0.5299 657.7339 58.4683)" class="st2" width="20.048" height="31.447"/>
	
		<rect x="422.677" y="617.416" transform="matrix(0.848 -0.5299 0.5299 0.848 -267.7045 332.4023)" class="st2" width="46.167" height="31.167"/>
	
		<rect x="411.161" y="637.123" transform="matrix(0.848 -0.5299 0.5299 0.848 -281.2617 321.37)" class="st2" width="17.167" height="28"/>
	<polygon class="st2" points="417.926,632.016 392.911,627.209 388.475,644.327 399.251,647.42 419.604,634.702 	"/>
	<polygon class="st2" points="399.251,647.42 396.936,653.78 409.566,673.991 419.884,667.544 405.046,643.799 	"/>
	<polygon class="st2" points="409.566,673.991 396.28,682.294 393.189,677.347 396.476,664.68 401.706,661.412 	"/>
	<polygon class="st2" points="396.28,682.294 391.616,685.208 376.246,687.344 370.336,685.927 373.085,672.221 393.189,677.347 	
		"/>
	<polygon class="st2" points="373.085,672.221 375.771,659.537 396.476,664.68 393.189,677.347 	"/>
	<polygon class="st2" points="375.771,659.537 380.225,641.818 388.475,644.327 399.251,647.42 396.936,653.78 401.706,661.412 
		396.476,664.68 	"/>
	<polygon class="st2" points="358.562,683.262 348.704,681.953 338.458,671.847 346.797,666.636 361.637,669.941 	"/>
	<polygon class="st2" points="361.637,669.941 365.331,652.893 356.498,651.338 354.43,661.867 346.797,666.636 	"/>
	<polygon class="st2" points="365.331,652.893 368.353,639.803 347.79,634.571 344.043,648.704 356.498,651.338 	"/>
	<polygon class="st2" points="360.35,637.767 364.203,620.581 351.431,617.753 347.79,634.571 	"/>
	<polygon class="st2" points="346.53,639.493 338.126,637.662 335.868,646.885 344.043,648.704 	"/>
	<polygon class="st2" points="335.868,646.885 344.043,648.704 356.498,651.338 354.43,661.867 338.458,671.847 326.513,652.731 	
		"/>
	<polygon class="st2" points="338.126,637.662 339.389,631.664 335.812,625.94 317.085,637.643 326.513,652.731 335.868,646.885 	
		"/>
	
		<rect x="320.875" y="617.66" transform="matrix(0.5299 0.848 -0.848 0.5299 681.6313 13.7917)" class="st2" width="15" height="8.167"/>
	
		<rect x="306.284" y="617.739" transform="matrix(0.5299 0.848 -0.848 0.5299 678.8834 24.6566)" class="st2" width="21.833" height="13.917"/>
	<polygon class="st2" points="320.938,617.547 317.317,611.752 305.515,619.127 299.73,609.869 318.458,598.167 327.864,613.219 	
		"/>
	
		<rect x="424.069" y="578.076" transform="matrix(0.5299 0.848 -0.848 0.5299 701.925 -91.4871)" class="st2" width="18.833" height="18.667"/>
	
		<rect x="407.886" y="587.772" transform="matrix(-0.5299 -0.848 0.848 -0.5299 131.7116 1268.0533)" class="st2" width="18.833" height="19.5"/>
	
		<rect x="391.669" y="549.677" transform="matrix(-0.5299 -0.848 0.848 -0.5299 145.4444 1218.1417)" class="st2" width="37.333" height="38.167"/>
	<path class="st3" d="M384.26,563.043l-29.72-47.561l-7.774,4.858l-11.217-17.95c0,0,13.278-20.58,41.438-11.055l2.898-7.314
		l36.741,58.798L384.26,563.043z"/>
	<polygon class="st3" points="376.988,491.333 373.33,501.677 377.172,507.825 379.928,506.103 394.59,529.565 387.24,534.158 
		399.384,553.592 416.627,542.817 379.886,484.019 	"/>
	<polygon class="st3" points="377.172,507.825 375.008,514.582 387.24,534.158 394.59,529.565 379.928,506.103 	"/>
	<path class="st3" d="M333.605,517.557l-4.152,2.594l-3.348-0.954c0,0-2.624,9.796-0.373,18.117l3.162-0.6l2.526,6.873l-2.615,1.634
		l37.845,60.565l5.795-3.621l5.52,8.834l26.077-16.295l-49.503-79.222l-7.774,4.858l-8.215,5.134L333.605,517.557z"/>
	
		<rect x="345.155" y="513.559" transform="matrix(0.5299 0.848 -0.848 0.5299 607.1586 -49.3717)" class="st3" width="5.917" height="18.854"/>
	
		<rect x="273.611" y="592.018" transform="matrix(-0.5299 -0.848 0.848 -0.5299 -78.3994 1154.8752)" class="st2" width="14.535" height="14.296"/>
	
		<rect x="284.932" y="585.793" transform="matrix(-0.5299 -0.848 0.848 -0.5299 -55.0809 1153.6532)" class="st2" width="14.535" height="12.598"/>
	
		<rect x="295.616" y="579.117" transform="matrix(-0.5299 -0.848 0.848 -0.5299 -33.0735 1152.4999)" class="st2" width="14.535" height="12.598"/>
	
		<rect x="258.92" y="550.719" transform="matrix(-0.5299 -0.848 0.848 -0.5299 -58.8637 1108.2048)" class="st2" width="37.583" height="39.395"/>
	
		<rect x="258.256" y="529.518" transform="matrix(-0.5299 -0.848 0.848 -0.5299 -61.1524 1064.5338)" class="st2" width="12.417" height="39.395"/>
	
		<rect x="184.583" y="513.756" transform="matrix(-0.5299 -0.848 0.848 -0.5299 -121.796 985.093)" class="st4" width="55.083" height="25.094"/>
	<polygon class="st2" points="208.171,496.297 202.915,487.887 194.333,493.25 189.431,485.406 176.745,493.333 186.902,509.587 	
		"/>
	
		<rect x="191.548" y="481.587" transform="matrix(0.5299 0.848 -0.848 0.5299 504.9171 62.3989)" class="st2" width="9.25" height="10.12"/>
	
		<rect x="181.201" y="466.427" transform="matrix(-0.5299 -0.848 0.848 -0.5299 -110.0997 886.2422)" class="st2" width="18.75" height="14.417"/>
	
		<rect x="168.739" y="473.936" transform="matrix(-0.5299 -0.848 0.848 -0.5299 -135.7696 887.5875)" class="st2" width="18.75" height="14.973"/>
	
		<rect x="164.916" y="447.007" transform="matrix(-0.5299 -0.848 0.848 -0.5299 -124.8943 854.1743)" class="st2" width="18.75" height="29.39"/>
	
		<rect x="154.98" y="431.106" transform="matrix(-0.5299 -0.848 0.848 -0.5299 -126.6109 821.421)" class="st2" width="18.75" height="29.39"/>
	
		<rect x="145.044" y="415.205" transform="matrix(-0.5299 -0.848 0.848 -0.5299 -128.3274 788.6677)" class="st2" width="18.75" height="29.39"/>
	
		<rect x="120.893" y="391.425" transform="matrix(-0.5299 -0.848 0.848 -0.5299 -130.8946 739.6833)" class="st2" width="37.333" height="29.39"/>
	
		<rect x="99.643" y="358.951" transform="matrix(-0.5299 -0.848 0.848 -0.5299 -134.4001 672.7938)" class="st2" width="39.25" height="29.39"/>
	
		<rect x="83.892" y="323.022" transform="matrix(-0.5299 -0.848 0.848 -0.5299 -141.8638 593.0475)" class="st2" width="19.083" height="25.64"/>
	<polygon class="st5" points="366.651,605.785 370.383,611.757 368.758,612.773 345.677,607.444 343.27,603.593 359.1,593.701 	"/>
	
		<rect x="341.081" y="583.713" transform="matrix(-0.5299 -0.848 0.848 -0.5299 28.999 1202.1664)" class="st5" width="13.208" height="18.667"/>
	
		<rect x="335.006" y="573.024" transform="matrix(-0.5299 -0.848 0.848 -0.5299 27.8451 1180.1489)" class="st5" width="12" height="18.667"/>
	
		<rect x="328.169" y="562.582" transform="matrix(-0.5299 -0.848 0.848 -0.5299 26.7179 1158.6409)" class="st5" width="12.625" height="18.667"/>
	
		<rect x="319.003" y="556.455" transform="matrix(-0.5299 -0.848 0.848 -0.5299 20.4001 1136.967)" class="st5" width="12.625" height="12.75"/>
	
		<rect x="312.122" y="545.642" transform="matrix(-0.5299 -0.848 0.848 -0.5299 19.2328 1114.6948)" class="st5" width="12.875" height="12.75"/>
	
		<rect x="296.327" y="529.75" transform="matrix(-0.5299 -0.848 0.848 -0.5299 17.5173 1081.9597)" class="st5" width="24.604" height="12.75"/>
	<path class="st6" d="M379.886,484.019l-36.299-58.091l-74.664,46.655l25.524,40.848l5.406-3.378l4.841-3.025l7.662,12.261
		l-4.841,3.025l26.551,42.491l5.018-3.135l-10.278-16.449l2.615-1.634l-2.526-6.873l-3.162,0.6c0,0-1.731-5.601,0.373-18.117
		l3.348,0.954l4.152-2.594l4.946,7.915l8.215-5.134l-11.217-17.95c0,0,13.42-20.669,41.438-11.055L379.886,484.019z"/>
	<line class="st2" x1="217.903" y1="511.873" x2="237.269" y2="499.772"/>
	<polygon class="st2" points="452.218,564.601 468.873,554.193 478.721,569.953 467.565,576.924 458.708,574.986 	"/>
	<polyline class="st2" points="510.259,528.333 508.19,537.294 502.94,540.575 499.493,535.06 468.873,554.193 	"/>
	<polygon class="st2" points="484.183,544.627 510.259,528.333 512.476,519.725 495.305,492.245 463.766,511.953 	"/>
	
		<rect x="439.146" y="519.012" transform="matrix(0.848 -0.5299 0.5299 0.848 -215.6503 324.4911)" class="st2" width="37.692" height="38.528"/>
	<polygon class="st2" points="495.305,492.245 497.204,484.021 484.101,463.052 475.261,460.972 444.084,480.454 463.766,511.953 	
		"/>
	<polygon class="st2" points="463.766,511.953 431.801,531.927 422.431,529.763 409.87,509.661 412.027,500.485 444.084,480.454 	
		"/>
	<polygon class="st2" points="475.261,460.972 458.836,434.686 450.514,432.765 424.458,449.047 444.084,480.454 	"/>
	<polygon class="st2" points="412.027,500.485 395.966,474.782 398.024,465.867 424.594,449.264 444.084,480.454 	"/>
	<polygon class="st2" points="411.096,369.79 413.179,360.767 396.954,334.801 364.999,354.769 384.694,386.288 	"/>
	<polygon class="st2" points="384.694,386.288 358.517,402.645 349.008,400.449 332.97,374.783 364.999,354.769 	"/>
	<polygon class="st6" points="396.954,334.801 399.014,325.877 385.842,304.797 376.95,302.608 344.823,322.683 364.908,354.826 	
		"/>
	<polygon class="st2" points="364.908,354.826 332.97,374.783 324.289,372.779 310.582,350.842 312.566,342.839 344.823,322.683 	
		"/>
	
		<rect x="359.359" y="292.857" transform="matrix(-0.5299 -0.848 0.848 -0.5299 305.6662 770.8987)" class="st2" width="14.264" height="15.751"/>
	
		<rect x="346.436" y="301.445" transform="matrix(-0.5299 -0.848 0.848 -0.5299 279.0475 772.2937)" class="st2" width="14.264" height="14.725"/>
	
		<rect x="330.82" y="307.451" transform="matrix(-0.5299 -0.848 0.848 -0.5299 246.8807 773.9795)" class="st2" width="14.264" height="22.23"/>
	
		<rect x="340.549" y="269.257" transform="matrix(-0.5299 -0.848 0.848 -0.5299 290.6846 730.0571)" class="st2" width="14.264" height="30.413"/>
	
		<rect x="318.2" y="287.346" transform="matrix(-0.5299 -0.848 0.848 -0.5299 244.6498 732.4697)" class="st2" width="14.264" height="22.167"/>
	
		<rect x="299.319" y="299.047" transform="matrix(-0.5299 -0.848 0.848 -0.5299 205.7587 734.5079)" class="st2" width="14.264" height="22.361"/>
	
		<rect x="311.683" y="319.073" transform="matrix(-0.5299 -0.848 0.848 -0.5299 207.4624 776.0453)" class="st2" width="14.264" height="22.901"/>
	<polygon class="st2" points="324.674,290.469 356.797,270.357 358.91,261.205 345.966,240.49 336.19,238.233 304.461,258.059 	"/>
	<polygon class="st2" points="324.793,290.394 293.326,310.019 284.295,307.83 271.351,287.115 273.478,277.419 304.525,258.019 	
		"/>
	<path class="st2" d="M289.103,267.656l-2.688-4.301l-16.136,10.083l2.688,4.301C272.967,277.739,289.81,267.214,289.103,267.656z"
		/>
	
		<rect x="314.656" y="226.296" transform="matrix(0.5299 0.848 -0.848 0.5299 351.8693 -163.7137)" class="st2" width="17.905" height="18.482"/>
	
		<rect x="434.311" y="340.915" transform="matrix(-0.5299 -0.848 0.848 -0.5299 393.1229 936.5548)" class="st2" width="43.642" height="36.813"/>
	
		<rect x="478.556" y="314.92" transform="matrix(-0.5299 -0.848 0.848 -0.5299 475.0806 937.5145)" class="st2" width="37.642" height="44.333"/>
	
		<rect x="503.436" y="303.544" transform="matrix(-0.5299 -0.848 0.848 -0.5299 535.5087 929.0927)" class="st2" width="43.642" height="25.167"/>
	
		<rect x="543.713" y="313.232" transform="matrix(-0.5299 -0.848 0.848 -0.5299 570.0259 955.018)" class="st2" width="11.975" height="12.583"/>
	
		<rect x="526.613" y="286.953" transform="matrix(-0.5299 -0.848 0.848 -0.5299 567.189 900.8877)" class="st2" width="13.333" height="12.583"/>
	
		<rect x="506.315" y="264.708" transform="matrix(-0.5299 -0.848 0.848 -0.5299 564.7877 855.0668)" class="st2" width="26.128" height="12.583"/>
	
		<rect x="490.274" y="268.427" transform="matrix(-0.5299 -0.848 0.848 -0.5299 531.744 856.7985)" class="st2" width="26.128" height="25.194"/>
	
		<rect x="474.356" y="284.672" transform="matrix(-0.5299 -0.848 0.848 -0.5299 498.9555 858.5168)" class="st2" width="26.128" height="12.597"/>
	
		<rect x="463.673" y="291.348" transform="matrix(-0.5299 -0.848 0.848 -0.5299 476.9504 859.6701)" class="st2" width="26.128" height="12.597"/>
	
		<rect x="447.539" y="295.002" transform="matrix(-0.5299 -0.848 0.848 -0.5299 443.7174 861.4117)" class="st2" width="26.128" height="25.452"/>
	
		<rect x="419.609" y="308.575" transform="matrix(-0.5299 -0.848 0.848 -0.5299 389.6317 869.9391)" class="st2" width="32.628" height="36.813"/>
	
		<rect x="386.07" y="269.564" transform="matrix(-0.5299 -0.848 0.848 -0.5299 387.6511 793.1532)" class="st7" width="55.164" height="39.146"/>
	
		<rect x="427.705" y="200.899" transform="matrix(-0.5299 -0.848 0.848 -0.5299 501.1434 771.3311)" class="st3" width="73.289" height="91.744"/>
	
		<rect x="255.697" y="64.929" transform="matrix(-0.5299 -0.848 0.848 -0.5299 453.2676 511.9982)" class="st1" width="225.679" height="130.89"/>
	
		<rect x="532.503" y="300.381" transform="matrix(-0.5299 -0.848 0.848 -0.5299 568.6385 928.546)" class="st2" width="18.333" height="12.583"/>
	
		<rect x="303.215" y="212.358" transform="matrix(0.5299 0.848 -0.848 0.5299 330.8463 -159.6878)" class="st2" width="12.5" height="12.459"/>
	
		<rect x="267.542" y="205.043" transform="matrix(0.5299 0.848 -0.848 0.5299 324.7671 -132.1017)" class="st2" width="28" height="43.708"/>
	
		<rect x="252.705" y="181.298" transform="matrix(0.5299 0.848 -0.848 0.5299 297.655 -130.6808)" class="st2" width="28" height="43.708"/>
	
		<rect x="224.116" y="187.471" transform="matrix(0.5299 0.848 -0.848 0.5299 272.8671 -111.1566)" class="st2" width="25.167" height="6.167"/>
	
		<rect x="234.615" y="174.697" transform="matrix(0.5299 0.848 -0.848 0.5299 272.2389 -123.1439)" class="st2" width="25.167" height="18.593"/>
	
		<rect x="202.984" y="124.266" transform="matrix(-0.5299 -0.848 0.848 -0.5299 229.5978 419.5087)" class="st2" width="56.167" height="43.708"/>
	
		<rect x="244.249" y="93.531" transform="matrix(-0.5299 -0.848 0.848 -0.5299 299.3162 390.6021)" class="st2" width="27.333" height="37.626"/>
	<polygon class="st2" points="266.627,90.785 213.624,123.905 210.18,118.393 230.674,105.586 220.732,89.675 253.24,69.361 	"/>
	<line class="st2" x1="210.18" y1="118.393" x2="199.862" y2="124.84"/>
	
		<rect x="180.554" y="107.824" transform="matrix(0.5299 0.848 -0.848 0.5299 186.1992 -101.6521)" class="st2" width="8.477" height="18.612"/>
	<polygon class="st2" points="66.67,185.943 105.846,248.639 85.281,261.489 77.995,249.829 71.277,248.278 51.471,216.582 
		53.015,210.097 45.995,198.862 	"/>
	
		<rect x="179.921" y="203.754" transform="matrix(-0.5299 -0.848 0.848 -0.5299 143.2278 525.4843)" class="st1" width="74.667" height="38.583"/>
	
		<rect x="141.294" y="213.025" transform="matrix(0.848 -0.5299 0.5299 0.848 -106.2996 130.007)" class="st1" width="64.5" height="74.667"/>
	<polygon class="st2" points="85.281,261.489 126.411,235.788 165.979,299.109 124.848,324.81 111.048,302.726 105.536,306.17 
		93.282,286.559 98.794,283.115 	"/>
	
		<rect x="69.939" y="264.626" transform="matrix(0.5299 0.848 -0.848 0.5299 267.335 53.4666)" class="st2" width="31" height="6.5"/>
	<polygon class="st7" points="45.995,198.862 28.876,209.367 50.122,243.367 53.832,249.303 43.423,255.807 41.171,252.203 
		30.205,259.055 0,210.716 38.406,186.718 	"/>
	
		<rect x="45.476" y="291.149" transform="matrix(-0.5299 -0.848 0.848 -0.5299 -145.3044 527.3953)" class="st7" width="56.083" height="25.64"/>
	
		<rect x="27.978" y="263.183" transform="matrix(0.5299 0.848 -0.848 0.5299 249.536 89.0106)" class="st2" width="33" height="12.82"/>
	<line class="st2" x1="53.832" y1="249.303" x2="65.092" y2="267.324"/>
	<polygon class="st2" points="176.754,316.353 196.758,348.367 152.872,375.79 148.367,368.582 159.474,361.641 143.974,336.836 	
		"/>
	
		<rect x="139.622" y="338.084" transform="matrix(0.848 -0.5299 0.5299 0.848 -164.6962 131.0534)" class="st2" width="13.097" height="29.25"/>
	<polygon class="st2" points="152.872,375.79 156.581,381.726 167.688,374.786 183.762,400.51 216.542,380.027 196.758,348.367 	"/>
	
		<rect x="139.769" y="350.718" transform="matrix(-0.5299 -0.848 0.848 -0.5299 -74.9925 672.9647)" class="st2" width="18.5" height="13.097"/>
	<polygon class="st2" points="216.542,380.027 183.762,400.51 199.748,426.093 188.641,433.033 192.527,439.252 236.414,411.829 	
		"/>
	<polygon class="st2" points="192.527,439.252 236.414,411.829 256.286,443.631 223.506,464.114 207.564,438.601 196.457,445.542 	
		"/>
	
		<rect x="157.375" y="380.294" transform="matrix(0.5299 0.848 -0.848 0.5299 406.7996 39.7992)" class="st2" width="20.25" height="13.097"/>
	
		<rect x="170.463" y="393.138" transform="matrix(0.5299 0.848 -0.848 0.5299 421.4651 39.0307)" class="st2" width="10.125" height="13.097"/>
	
		<rect x="175.84" y="401.742" transform="matrix(0.5299 0.848 -0.848 0.5299 431.2892 38.5158)" class="st2" width="10.125" height="13.097"/>
	
		<rect x="181.422" y="409.938" transform="matrix(0.5299 0.848 -0.848 0.5299 440.6463 38.0254)" class="st2" width="9.202" height="13.097"/>
	
		<rect x="199.783" y="439.542" transform="matrix(0.5299 0.848 -0.848 0.5299 474.4488 36.2539)" class="st2" width="9.479" height="13.097"/>
	
		<rect x="204.62" y="447.917" transform="matrix(0.5299 0.848 -0.848 0.5299 484.0107 35.7528)" class="st2" width="10.271" height="13.097"/>
	
		<rect x="210.048" y="456.654" transform="matrix(0.5299 0.848 -0.848 0.5299 493.9861 35.23)" class="st2" width="10.333" height="13.097"/>
	
		<rect x="185.919" y="418.427" transform="matrix(0.5299 0.848 -0.848 0.5299 450.3393 37.5174)" class="st2" width="10.819" height="13.097"/>
	
		<rect x="244.466" y="447.703" transform="matrix(0.5299 0.848 -0.848 0.5299 506.4122 -0.9351)" class="st2" width="19.167" height="17.25"/>
	<polygon class="st2" points="266.442,459.885 294.852,442.133 282.333,422.098 276.755,417.181 272.957,411.104 246.35,427.73 	"/>
	<polygon class="st2" points="246.35,427.73 274.759,409.978 262.24,389.942 256.662,385.026 252.864,378.948 226.257,395.575 	"/>
	<polygon class="st2" points="206.804,364.444 235.214,346.692 222.695,326.657 217.117,321.741 213.849,316.511 187.242,333.137 	
		"/>
	<polygon class="st2" points="206.76,364.374 235.17,346.621 247.689,366.656 249.663,373.825 252.864,378.948 226.257,395.575 	"/>
	
		<rect x="185.405" y="300.744" transform="matrix(0.5299 0.848 -0.848 0.5299 360.1568 -16.8764)" class="st2" width="19.792" height="31.375"/>
	<polygon class="st2" points="297.237,351.753 265.082,371.846 252.504,351.716 250.53,344.548 246.732,338.47 277.085,319.503 	"/>
	<polygon class="st2" points="257.589,288.302 225.434,308.395 237.953,328.43 243.531,333.347 246.732,338.47 277.085,319.503 	"/>
	<polygon class="st2" points="336.886,415.204 304.73,435.297 292.211,415.261 290.238,408.093 286.44,402.015 316.793,383.049 	"/>
	<polygon class="st2" points="297.237,351.753 265.082,371.846 277.66,391.975 283.238,396.892 286.44,402.015 316.793,383.049 	"/>
	
		<rect x="234.979" y="275.77" transform="matrix(-0.5299 -0.848 0.848 -0.5299 132.1653 643.7579)" class="st2" width="19.048" height="18.958"/>
	
		<rect x="218.919" y="285.784" transform="matrix(-0.5299 -0.848 0.848 -0.5299 99.0845 645.4916)" class="st2" width="19.048" height="19"/>
	<polygon class="st2" points="631.691,320.975 650.857,351.646 618.82,371.664 615.464,366.293 620.694,363.026 604.885,337.725 	
		"/>
	
		<rect x="228.283" y="571.33" transform="matrix(0.5299 0.848 -0.848 0.5299 611.7836 64.0674)" class="st6" width="39.636" height="25.094"/>
	<line class="st8" x1="174.654" y1="118.467" x2="105.326" y2="248.964"/>
	<line class="st9" x1="213.831" y1="181.162" x2="66.01" y2="186.355"/>
	<line class="st9" x1="253.398" y1="244.483" x2="181.11" y2="201.608"/>
	<line class="st9" x1="394.432" y1="401.896" x2="353.275" y2="405.603"/>
	<line class="st9" x1="434.686" y1="397.122" x2="414.539" y2="398.936"/>
	<line class="st9" x1="394.432" y1="401.896" x2="416.122" y2="366.331"/>
	<line class="st9" x1="372.167" y1="436.189" x2="382.641" y2="418.638"/>
	<line class="st9" x1="220.678" y1="264.929" x2="126.411" y2="235.788"/>
	
		<rect x="103.286" y="119.886" transform="matrix(-0.5299 -0.848 0.848 -0.5299 58.9098 399.7599)" class="st4" width="73.929" height="127.333"/>
	<line class="st8" x1="364.241" y1="0" x2="372.832" y2="260.748"/>
	<line class="st8" x1="253.24" y1="69.361" x2="483.833" y2="191.387"/>
	<line class="st9" x1="213.831" y1="181.162" x2="220.678" y2="264.929"/>
	<line class="st9" x1="181.075" y1="201.631" x2="165.979" y2="299.109"/>
	<line class="st9" x1="208.16" y1="496.281" x2="216.079" y2="556.308"/>
	<line class="st9" x1="237.36" y1="543.011" x2="186.89" y2="509.595"/>
</g>
<g id="Calque_3">
	<line class="st4" x1="419.652" y1="407.848" x2="388.566" y2="427.272"/>
	<line class="st4" x1="421.004" y1="410.011" x2="389.917" y2="429.436"/>
	<line class="st4" x1="422.356" y1="412.175" x2="391.269" y2="431.599"/>
	<line class="st4" x1="423.708" y1="414.338" x2="392.621" y2="433.763"/>
	<line class="st4" x1="425.059" y1="416.502" x2="393.973" y2="435.927"/>
	<line class="st4" x1="426.411" y1="418.665" x2="395.325" y2="438.09"/>
	<line class="st4" x1="427.763" y1="420.829" x2="396.677" y2="440.254"/>
	<line class="st4" x1="429.115" y1="422.992" x2="398.029" y2="442.417"/>
	<line class="st4" x1="410.052" y1="392.485" x2="378.966" y2="411.91"/>
	<line class="st4" x1="411.404" y1="394.648" x2="380.318" y2="414.073"/>
	<line class="st4" x1="412.756" y1="396.812" x2="381.67" y2="416.237"/>
	<line class="st4" x1="414.108" y1="398.975" x2="383.022" y2="418.4"/>
	<line class="st4" x1="415.46" y1="401.139" x2="384.373" y2="420.564"/>
	<line class="st4" x1="416.812" y1="403.302" x2="385.725" y2="422.727"/>
	<line class="st4" x1="418.164" y1="405.466" x2="387.077" y2="424.891"/>
	<line class="st4" x1="409.199" y1="391.12" x2="430.219" y2="424.759"/>
	<line class="st4" x1="399.133" y1="444.184" x2="378.113" y2="410.545"/>
	<polyline class="st4" points="419.223,407.162 435.343,397.09 416.266,366.56 353.123,406.016 372.2,436.545 388.137,426.587 	"/>
	<line class="st4" x1="286.415" y1="263.354" x2="284.826" y2="260.81"/>
	<polyline class="st4" points="281.314,255.143 279.636,252.458 311.027,232.842 320.516,248.027 	"/>
	<line class="st4" x1="334.739" y1="210.165" x2="339.403" y2="207.25"/>
	<line class="st4" x1="328.237" y1="214.227" x2="318.06" y2="220.586"/>
	<line class="st4" x1="74.469" y1="256.453" x2="68.109" y2="260.428"/>
	<polyline class="st4" points="45.775,207.465 38.036,212.301 43.468,220.993 37.913,224.465 	"/>
	<polyline class="st4" points="251.814,469.026 222.556,487.308 219.774,482.856 	"/>
	<line class="st4" x1="212.399" y1="471.054" x2="215.137" y2="475.436"/>
	<polyline class="st4" points="257.589,288.302 244.139,266.778 233.079,273.689 	"/>
	<polyline class="st4" points="222.69,280.18 211.984,286.871 225.434,308.395 	"/>
	<polyline class="st4" points="270.546,475.18 250.37,487.788 273.864,525.387 283.952,519.083 	"/>
	<polyline class="st4" points="428.361,609.086 417.336,615.975 404.044,594.703 436.411,574.478 449.703,595.75 438.467,602.771 	
		"/>
	<polyline class="st4" points="388.107,615.274 389.255,617.112 408.149,621.716 417.336,615.975 	"/>
	<polyline class="st4" points="478.721,569.953 509.341,550.819 507.29,547.537 	"/>
	<polyline class="st4" points="109.362,337.14 112.542,335.153 115.545,339.959 	"/>
	<polyline class="st4" points="637.71,448.496 651.046,469.838 640.329,476.536 	"/>
	<polyline class="st4" points="626.992,455.193 636.619,470.599 643.262,466.448 	"/>
	<polyline class="st4" points="577.918,352.808 564.846,331.889 554.128,338.586 	"/>
	<polyline class="st4" points="564.437,340.301 557.794,344.452 567.2,359.505 	"/>
	<polyline class="st4" points="341.687,530.49 347.913,540.455 353.231,537.132 	"/>
	<line class="st2" x1="359.45" y1="533.246" x2="363.903" y2="530.464"/>
</g>
<g id="Calque_5">
</g>
</svg>
