<?xml version="1.0" encoding="utf-8"?>
<!-- Generator: Adobe Illustrator 19.0.1, SVG Export Plug-In . SVG Version: 6.00 Build 0)  -->
<svg version="1.1" id="Calque_1" xmlns="http://www.w3.org/2000/svg" xmlns:xlink="http://www.w3.org/1999/xlink" x="0px" y="0px"
	 width="770.1px" height="911.9px" viewBox="79 -59.9 770.1 911.9" style="enable-background:new 79 -59.9 770.1 911.9;"
	 xml:space="preserve">
<style type="text/css">
	.st0{display:none;}
	.st1{display:inline;fill:none;stroke:#383838;stroke-width:0.5;stroke-miterlimit:10;}
	.st2{display:inline;fill:#EBF0F2;stroke:#383838;stroke-width:0.5;stroke-miterlimit:10;}
	.st3{display:inline;fill:#61A1A1;stroke:#383838;stroke-width:0.5;stroke-miterlimit:10;}
	.st4{display:inline;fill:#A3CCCB;stroke:#383838;stroke-width:0.5;stroke-miterlimit:10;}
	.st5{display:inline;fill:#C6E5E3;stroke:#383838;stroke-width:0.5;stroke-miterlimit:10;}
	.st6{display:inline;fill:#D87979;stroke:#383838;stroke-width:0.5;stroke-miterlimit:10;}
	.st7{display:inline;fill:#D74641;stroke:#383838;stroke-width:0.5;stroke-miterlimit:10;}
	.st8{display:inline;}
	.st9{display:inline;fill:#FFFFFF;}
	.st10{font-family:'MyriadPro-Regular';}
	.st11{font-size:10px;}
	.st12{clip-path:url(#SVGID_2_);}
	.st13{clip-path:url(#SVGID_4_);fill:#FFFFFF;}
	.st14{clip-path:url(#SVGID_4_);fill:none;stroke:#383938;stroke-width:0.5;stroke-miterlimit:10;}
	.st15{clip-path:url(#SVGID_4_);fill:#ECF0F2;}
	.st16{clip-path:url(#SVGID_4_);fill:#C6E4E2;}
	.st17{clip-path:url(#SVGID_2_);fill:none;stroke:#383938;stroke-width:0.5;stroke-miterlimit:10;}
	.st18{clip-path:url(#SVGID_2_);fill:#C6E4E2;}
	.st19{clip-path:url(#SVGID_2_);fill:none;stroke:#383938;stroke-width:0.5;stroke-miterlimit:10;stroke-dasharray:2,2;}
</style>
<g id="Calque_1_1_" class="st0">
	
		<image style="display:inline;overflow:visible;enable-background:new    ;" width="4627" height="2327" xlink:href="965D88BA.jpeg"  transform="matrix(0.1272 0.2035 -0.2035 0.1272 421.5215 -234.1817)">
	</image>
	
		<image style="display:inline;overflow:visible;enable-background:new    ;" width="540" height="961" xlink:href="965D88BE.jpeg"  transform="matrix(0.9981 0 0 0.999 1110.985 -97.0477)">
	</image>
</g>
<g id="Calque_2" class="st0">
	<path class="st1" d="M371.4,619.4c-8-11.9-40.1-64.2-40.1-64.2l20.9-13.1l-30.5-48.8l-21,13.1l-37.6-60.2l5.2-3.2l-90.8-145.4
		l-5.1,3.2l-18.9-30.2l20.6-12.9L154.3,226l-20.7,13L79,151.6l20.7-13l5.1,8.2l143-89.4l-7.1-11.3l55.1-34.4l7.2,11.6l133.1-83.2
		l156.3,250.2l47.5-29.7l138.5,221.6L795,372l49.8,79.7l-50.6,31.6l-9.9-15.8l-59.6,37.3l9.9,15.8l-65.3,40.8l23.1,37l61.3-27.7
		l95.4,203l-25.5,10.8l6.4,15.3l-21.5,10.3l9.5,15.3L775.4,852l-86.6-138.5l17.2-10.8l-8.8-14.1l5.9-3.7L669,610l11.7-4.8l-7.9-12.7
		l-10.9,6.2l-25.6-41c0,0-137.6,86.1-143.6,89.7C461.1,666.7,404.2,668.1,371.4,619.4z"/>
	<polygon class="st2" points="811.2,772.5 802.7,758.9 805,757.5 797.8,741.7 827.6,728.4 841.6,758.2 	"/>
	<polygon class="st2" points="818.2,786.5 849,773.8 841.6,758.2 811.2,772.5 804.5,776.6 808.4,782.9 814.7,779.6 	"/>
	<polygon class="st2" points="821.5,803.9 808.4,782.9 814.7,779.6 818.2,786.5 823.5,784.6 829.9,799.9 	"/>
	<line class="st1" x1="692.4" y1="598.4" x2="695" y2="602.5"/>
	
		<rect x="701.7" y="516.6" transform="matrix(-0.5299 -0.848 0.848 -0.5299 645.6594 1403.6005)" class="st2" width="20.2" height="12.5"/>
	
		<rect x="695.3" y="519.3" transform="matrix(-0.848 0.5299 -0.5299 -0.848 1576.6547 606.7023)" class="st2" width="12.1" height="20.2"/>
	
		<rect x="684.1" y="526" transform="matrix(-0.848 0.5299 -0.5299 -0.848 1560.4133 624.739)" class="st2" width="13.1" height="20.2"/>
	
		<rect x="673.7" y="532.7" transform="matrix(-0.848 0.5299 -0.5299 -0.848 1544.0381 642.9236)" class="st2" width="12.3" height="20.2"/>
	
		<rect x="662.9" y="539.3" transform="matrix(-0.848 0.5299 -0.5299 -0.848 1527.9755 660.7645)" class="st2" width="12.6" height="20.2"/>
	
		<rect x="692.4" y="491.4" transform="matrix(-0.848 0.5299 -0.5299 -0.848 1556.2041 555.7922)" class="st2" width="12" height="19.2"/>
	
		<rect x="681.7" y="497.9" transform="matrix(-0.848 0.5299 -0.5299 -0.848 1540.3665 573.3826)" class="st2" width="12.6" height="19.2"/>
	<polygon class="st2" points="687.8,519.1 682.1,522.6 674.8,521 661.2,499.2 671.4,492.9 	"/>
	
		<rect x="656.1" y="500.7" transform="matrix(-0.848 0.5299 -0.5299 -0.848 1493.4032 592.8582)" class="st2" width="11.1" height="19.7"/>
	
		<rect x="643.1" y="507.6" transform="matrix(-0.848 0.5299 -0.5299 -0.848 1476.6179 611.5009)" class="st2" width="15" height="19.7"/>
	
		<rect x="657.3" y="524.8" transform="matrix(0.5299 0.848 -0.848 0.5299 762.2031 -315.5864)" class="st2" width="17" height="10"/>
	
		<rect x="649.3" y="530.3" transform="matrix(0.5299 0.848 -0.848 0.5299 762.6799 -306.481)" class="st2" width="17" height="8.8"/>
	
		<rect x="627" y="468.2" transform="matrix(-0.5299 -0.848 0.848 -0.5299 574.2946 1292.8317)" class="st2" width="37" height="38.1"/>
	
		<rect x="662.8" y="451.3" transform="matrix(0.848 -0.5299 0.5299 0.848 -149.4447 430.0567)" class="st2" width="24.6" height="48.6"/>
	<polygon class="st2" points="724.7,504.8 722.9,505.9 702.6,473.4 734.3,453.6 754.6,486.1 	"/>
	
		<rect x="690.1" y="429.1" transform="matrix(-0.5299 -0.848 0.848 -0.5299 704.41 1286.006)" class="st2" width="37" height="37.4"/>
	<polygon class="st2" points="714.7,422.2 734.2,410 746,402.6 786,466.5 754.6,486.1 	"/>
	
		<rect x="736" y="405.5" transform="matrix(0.848 -0.5299 0.5299 0.848 -104.8189 456.1409)" class="st2" width="14" height="10.6"/>
	<polygon class="st2" points="814.6,403.4 765.6,434 786,466.5 784.3,467.5 794.2,483.3 844.8,451.7 	"/>
	<polygon class="st2" points="778.6,382.2 772,386.4 791.6,417.8 814.6,403.4 795,372 	"/>
	
		<rect x="753.5" y="391.7" transform="matrix(-0.848 0.5299 -0.5299 -0.848 1638.106 350.6356)" class="st2" width="30.6" height="37"/>
	
		<rect x="724.5" y="360.6" transform="matrix(-0.848 0.5299 -0.5299 -0.848 1577.8523 294.193)" class="st2" width="44.6" height="25.4"/>
	
		<rect x="716.4" y="375.7" transform="matrix(-0.848 0.5299 -0.5299 -0.848 1541.2271 334.8673)" class="st2" width="12.4" height="25.4"/>
	<polygon class="st2" points="720.4,396.5 714.9,400 705.2,384.4 695,390.7 665.6,343.7 675.6,337.4 639.5,279.6 645.2,276.1 
		660.4,300.5 708.7,270.3 759,350.8 710.7,380.9 	"/>
	
		<rect x="698.9" y="386.2" transform="matrix(-0.848 0.5299 -0.5299 -0.848 1512.1884 357.0626)" class="st2" width="12" height="18.4"/>
	<polygon class="st2" points="683.8,419 687.4,424.8 676.5,431.6 663.3,410.5 672.8,404.6 682.4,419.9 	"/>
	
		<rect x="640" y="420.7" transform="matrix(-0.848 0.5299 -0.5299 -0.848 1428.3536 450.0477)" class="st3" width="19.2" height="18.3"/>
	<polygon class="st3" points="646.4,442.7 609.5,465.7 583.5,424.2 620.1,401.3 	"/>
	
		<rect x="625.1" y="394.3" transform="matrix(0.848 -0.5299 0.5299 0.848 -118.8965 398.2055)" class="st3" width="19.6" height="24.3"/>
	
		<rect x="598" y="369.4" transform="matrix(-0.5299 -0.848 0.848 -0.5299 619.5791 1106.7926)" class="st3" width="37" height="24.5"/>
	
		<rect x="563.3" y="369.3" transform="matrix(-0.848 0.5299 -0.5299 -0.848 1281.1162 405.3943)" class="st3" width="38.2" height="34.2"/>
	
		<rect x="597" y="348.3" transform="matrix(-0.5299 -0.848 0.848 -0.5299 617.2998 1063.3593)" class="st3" width="12.7" height="24.5"/>
	
		<rect x="562.2" y="322" transform="matrix(-0.5299 -0.848 0.848 -0.5299 614.4562 1009.1529)" class="st2" width="49.4" height="24.5"/>
	
		<rect x="541.2" y="326.2" transform="matrix(-0.848 0.5299 -0.5299 -0.848 1221.3829 351.6078)" class="st2" width="38.2" height="49.4"/>
	
		<rect x="582.7" y="397.8" transform="matrix(-0.5299 -0.848 0.848 -0.5299 554.9388 1129.0667)" class="st3" width="15.5" height="25.8"/>
	
		<rect x="600.4" y="392.9" transform="matrix(0.848 -0.5299 0.5299 0.848 -120.1349 382.3464)" class="st3" width="12.4" height="15.5"/>
	<path class="st4" d="M636.3,557.7l-37.8-60.5l-104.3,65.1l-33.7,22.4l-2.7,11.5l9,2.1l-0.8,3.6l11.4,18.2l-12.4,7.7L473,656
		c0,0,11.2-3.4,21.7-9.9L636.3,557.7z"/>
	<polygon class="st2" points="488.3,566.2 466.8,561.3 460.6,584.7 	"/>
	
		<rect x="376.1" y="524.4" transform="matrix(0.848 -0.5299 0.5299 0.848 -221.0909 282.138)" class="st2" width="10.7" height="4.4"/>
	
		<rect x="338.3" y="507.8" transform="matrix(0.848 -0.5299 0.5299 0.848 -221.0951 263.0312)" class="st2" width="19.6" height="18.4"/>
	
		<rect x="333.8" y="494.2" transform="matrix(-0.5299 -0.848 0.848 -0.5299 92.7197 1059.2942)" class="st2" width="12.3" height="19.6"/>
	
		<rect x="351.7" y="486.3" transform="matrix(0.848 -0.5299 0.5299 0.848 -210.973 267.5701)" class="st2" width="18.7" height="30.7"/>
	
		<rect x="345.9" y="475.3" transform="matrix(-0.5299 -0.848 0.848 -0.5299 130.2055 1035.5643)" class="st2" width="12.5" height="12.8"/>
	
		<rect x="323.1" y="485.6" transform="matrix(0.848 -0.5299 0.5299 0.848 -209.6284 252.7325)" class="st2" width="25.5" height="12.5"/>
	
		<rect x="293.7" y="482.1" transform="matrix(0.848 -0.5299 0.5299 0.848 -214.0327 236.9234)" class="st2" width="24.8" height="19.2"/>
	<polygon class="st2" points="354.2,473 345.2,458.5 330.8,467.5 329.6,465.6 311.5,476.9 321.7,493.3 	"/>
	<path class="st2" d="M263.1,446.2l5.2-3.2l-1.4-2.2l15.8-9.9l10,16l18.8,30l-21,13.1C290.5,490.1,264.3,448.3,263.1,446.2z"/>
	
		<rect x="657.9" y="370.1" transform="matrix(-0.5299 -0.848 0.848 -0.5299 698.0394 1164.5671)" class="st2" width="27.8" height="37.4"/>
	
		<rect x="643.3" y="346.6" transform="matrix(-0.5299 -0.848 0.848 -0.5299 695.4971 1116.129)" class="st2" width="27.7" height="37.4"/>
	<polygon class="st2" points="633.9,363.5 604.6,316.6 646.3,290.5 675.6,337.4 	"/>
	
		<rect x="595.5" y="299.7" transform="matrix(-0.5299 -0.848 0.848 -0.5299 666.0442 980.3915)" class="st2" width="18.4" height="11.9"/>
	<polygon class="st2" points="639.5,279.6 636.6,274.9 627,280.9 636.8,296.5 646.3,290.5 	"/>
	
		<rect x="651.9" y="270.7" transform="matrix(0.848 -0.5299 0.5299 0.848 -44.2765 402.8819)" class="st2" width="56.9" height="15.9"/>
	
		<rect x="659.5" y="249.6" transform="matrix(-0.848 0.5299 -0.5299 -0.848 1391.7128 118.9896)" class="st2" width="38.7" height="18.9"/>
	
		<rect x="656.1" y="261.6" transform="matrix(-0.848 0.5299 -0.5299 -0.848 1362.4314 151.5077)" class="st2" width="6.8" height="18.9"/>
	
		<rect x="479.1" y="522.3" transform="matrix(0.848 -0.5299 0.5299 0.848 -207.3318 339.5004)" class="st5" width="18.5" height="18"/>
	
		<rect x="494.7" y="512.4" transform="matrix(0.848 -0.5299 0.5299 0.848 -199.6816 346.3887)" class="st5" width="18.8" height="18"/>
	<polygon class="st2" points="507.3,508.7 500.3,497.5 492,495.6 481.1,502.4 491.4,518.7 	"/>
	<polygon class="st2" points="481.1,502.4 476.2,505.5 474.3,513.7 468.6,517.2 475.7,528.5 491.4,518.7 	"/>
	<polygon class="st2" points="476.2,505.5 473.2,500.7 462.5,507.4 468.6,517.2 474.3,513.7 	"/>
	<polygon class="st3" points="473.2,500.7 488.9,490.9 490.7,482.9 464.3,440.6 456,438.7 429.8,455 462.5,507.4 	"/>
	<polygon class="st2" points="429.8,455 426.5,449.8 416.1,456.2 425.9,471.8 436.2,465.3 	"/>
	
		<rect x="415.1" y="456.5" transform="matrix(-0.848 0.5299 -0.5299 -0.848 1019.7701 638.8999)" class="st2" width="6.3" height="18.4"/>
	
		<rect x="404.2" y="461.4" transform="matrix(-0.848 0.5299 -0.5299 -0.848 1007.7491 652.2488)" class="st2" width="12.4" height="18.4"/>
	
		<rect x="393.6" y="468" transform="matrix(-0.848 0.5299 -0.5299 -0.848 991.7502 670.0173)" class="st2" width="12.5" height="18.4"/>
	
		<rect x="383.3" y="474.5" transform="matrix(-0.848 0.5299 -0.5299 -0.848 975.9122 687.6076)" class="st2" width="12.1" height="18.4"/>
	
		<rect x="391.4" y="490.6" transform="matrix(0.5299 0.848 -0.848 0.5299 608.0595 -103.5727)" class="st2" width="12.1" height="12.1"/>
	
		<rect x="402.2" y="485.8" transform="matrix(0.848 -0.5299 0.5299 0.848 -199.0462 289.5136)" class="st2" width="6.2" height="12.1"/>
	
		<rect x="406.5" y="479.2" transform="matrix(0.848 -0.5299 0.5299 0.848 -193.9509 294.1014)" class="st2" width="18.6" height="12.1"/>
	<polygon class="st2" points="426.9,485.4 430.4,491 446.1,481.2 436.2,465.3 420.5,475.1 	"/>
	
		<rect x="433.8" y="485" transform="matrix(0.5299 0.848 -0.848 0.5299 627.5634 -143.6151)" class="st2" width="19.1" height="18.5"/>
	
		<rect x="426.6" y="497.7" transform="matrix(-0.848 0.5299 -0.5299 -0.848 1066.035 703.2758)" class="st2" width="11.2" height="13.5"/>
	
		<rect x="414.8" y="504.3" transform="matrix(-0.848 0.5299 -0.5299 -0.848 1050.0359 721.0443)" class="st2" width="13.6" height="13.5"/>
	<polygon class="st2" points="395.5,505 409.2,526.9 419.5,520.4 412.3,509 433.4,495.8 426.9,485.4 	"/>
	<polygon class="st2" points="409.2,526.9 415.4,536.8 430.9,527.1 435.2,533.9 451,524 440.6,507.3 	"/>
	<polygon class="st2" points="415.4,536.8 417.7,540.5 442.9,546.3 430.9,527.1 	"/>
	<polygon class="st2" points="442.9,546.3 453.8,539.5 455,541.4 460,538.3 451,524 435.2,533.9 	"/>
	<path class="st2" d="M448.1,519.2"/>
	<path class="st2" d="M448.1,519.2"/>
	
		<rect x="452.6" y="512.6" transform="matrix(-0.848 0.5299 -0.5299 -0.848 1131.0956 723.3762)" class="st2" width="18.5" height="22.5"/>
	
		<rect x="445.1" y="499.1" transform="matrix(0.5299 0.848 -0.848 0.5299 643.6652 -144.4582)" class="st2" width="14.1" height="18.5"/>
	
		<rect x="371.4" y="457.5" transform="matrix(0.848 -0.5299 0.5299 0.848 -187.9047 272.1434)" class="st2" width="18.4" height="12.5"/>
	
		<rect x="387.4" y="449.3" transform="matrix(0.848 -0.5299 0.5299 0.848 -181.5925 277.8267)" class="st2" width="12.4" height="12.5"/>
	
		<rect x="398" y="442.7" transform="matrix(0.848 -0.5299 0.5299 0.848 -176.4839 282.4259)" class="st2" width="12.5" height="12.5"/>
	
		<rect x="408.6" y="436.2" transform="matrix(0.848 -0.5299 0.5299 0.848 -171.4264 286.9794)" class="st2" width="12.2" height="12.5"/>
	<polygon class="st2" points="423.1,444.5 429.1,440.7 433.8,437.8 427.2,427.2 416.5,433.9 	"/>
	<polygon class="st2" points="428.5,441.1 437.1,443.1 452.9,433.3 454.8,425 448,414.2 427.2,427.2 433.8,437.8 	"/>
	<polygon class="st6" points="802.7,758.9 796,763.1 769.6,720.8 735.3,646.7 779.9,626.4 827.6,728.4 797.8,741.7 805,757.5 	"/>
	<path class="st2" d="M701.9,613.3"/>
	<polygon class="st7" points="753.7,570.7 779.9,626.4 735.3,646.7 725.6,625.5 729.2,623.9 723.8,613.1 707.4,621.3 701.9,613.3 
		730.5,599.8 723.4,584.4 	"/>
	<polygon class="st7" points="803.6,834.4 785.9,806.2 800.4,797.1 731.5,686.8 688.8,713.4 775.4,852 	"/>
	<polygon class="st7" points="701.4,680.9 669,610 680.7,605.2 722.4,671.9 	"/>
	<line class="st1" x1="722.4" y1="671.9" x2="726.7" y2="678.8"/>
	<polygon class="st3" points="521.7,324.1 553.5,304.2 534.2,273.2 544.4,266.8 525.6,236.7 510.2,246.4 517.3,257.8 496.1,271 
		508.1,290.1 502.6,293.5 	"/>
	<polygon class="st4" points="502.6,293.5 420.2,345 341.9,219.6 425.1,167.6 485.4,264.2 490,261.3 496.1,271 496.1,271 
		508.1,290.1 	"/>
	<polygon class="st2" points="523.2,498.8 529.5,509 537.5,510.9 547.9,504.4 538.1,488.8 	"/>
	
		<rect x="510.5" y="455.6" transform="matrix(-0.5299 -0.848 0.848 -0.5299 407.363 1173.174)" class="st2" width="36.6" height="36.2"/>
	<polygon class="st2" points="553.9,479.7 569.5,469.9 572.4,474.5 583.1,467.9 585,459.5 565.9,428.9 534.5,448.6 	"/>
	
		<rect x="521.2" y="404.1" transform="matrix(-0.5299 -0.848 0.848 -0.5299 467.9815 1104.7466)" class="st2" width="37.9" height="37.1"/>
	
		<rect x="490" y="423.9" transform="matrix(-0.5299 -0.848 0.848 -0.5299 403.9402 1107.9141)" class="st2" width="38.1" height="36.2"/>
	
		<rect x="478.5" y="420.6" transform="matrix(-0.5299 -0.848 0.848 -0.5299 380.4354 1064.1519)" class="st2" width="13.3" height="12"/>
	
		<rect x="488.3" y="414.9" transform="matrix(-0.5299 -0.848 0.848 -0.5299 400.6953 1063.0885)" class="st2" width="13.3" height="11.2"/>
	<polygon class="st2" points="496.2,411.9 497.6,408.2 506,403 514.3,416.3 503.2,423.2 	"/>
	<polygon class="st2" points="497.6,408.2 493.3,407.3 484,392.3 495,385.4 506,403 	"/>
	
		<rect x="478.2" y="393.9" transform="matrix(-0.848 0.5299 -0.5299 -0.848 1107.5845 487.888)" class="st2" width="11.2" height="17.6"/>
	<polygon class="st2" points="483.8,413.2 473.6,419.5 467.5,409.7 469.3,401.5 474.5,398.3 	"/>
	<path class="st2" d="M545.9,396.8c0,0-16.2-25.2-16.1-25.8c0.1-0.6-8.8-1.8-8.8-1.8L495,385.4l19.3,30.9L545.9,396.8z"/>
	<polygon class="st2" points="281.5,431.6 286.2,428.7 276.1,412.5 256.8,424.6 266.9,440.7 	"/>
	
		<rect x="152.8" y="344.1" transform="matrix(-0.5299 -0.848 0.848 -0.5299 45.9333 736.4583)" class="st2" width="148.6" height="22.8"/>
	<path class="st2" d="M325.6,404"/>
	<polygon class="st3" points="339.6,395.3 250.8,253.1 206.8,280.6 285.6,406.6 315.5,387.8 325.6,404 	"/>
	<polygon class="st2" points="504,364.9 514.4,358.4 516.3,350 509.9,339.7 502.4,338 491.5,344.8 	"/>
	<path class="st2" d="M494.3,349.3"/>
	
		<rect x="453.6" y="335.2" transform="matrix(-0.848 0.5299 -0.5299 -0.848 1056.5349 393.1884)" class="st2" width="36.7" height="25.7"/>
	
		<rect x="483.3" y="352.4" transform="matrix(-0.848 0.5299 -0.5299 -0.848 1100.6088 407.6281)" class="st2" width="17.1" height="18.4"/>
	
		<rect x="466.6" y="362.1" transform="matrix(-0.848 0.5299 -0.5299 -0.848 1077.0316 433.8115)" class="st2" width="19.5" height="18.4"/>
	<line class="st1" x1="482" y1="329.7" x2="450.9" y2="349.1"/>
	<line class="st1" x1="483.4" y1="331.8" x2="452.3" y2="351.2"/>
	<line class="st1" x1="484.7" y1="334" x2="453.6" y2="353.4"/>
	<line class="st1" x1="486.1" y1="336.1" x2="455" y2="355.6"/>
	<line class="st1" x1="487.4" y1="338.3" x2="456.3" y2="357.7"/>
	<line class="st1" x1="488.8" y1="340.5" x2="457.7" y2="359.9"/>
	<line class="st1" x1="490.1" y1="342.6" x2="459" y2="362.1"/>
	<line class="st1" x1="491.5" y1="344.8" x2="460.4" y2="364.2"/>
	<polygon class="st2" points="346.1,391.2 363.7,380.3 301.4,280.7 296.2,284 319.3,320.9 307,328.6 	"/>
	
		<rect x="303.4" y="312.1" transform="matrix(-0.5299 -0.848 0.848 -0.5299 203.1283 751.2757)" class="st2" width="12.7" height="14.5"/>
	
		<rect x="296.8" y="301.4" transform="matrix(-0.5299 -0.848 0.848 -0.5299 201.9722 729.2227)" class="st2" width="12.5" height="14.5"/>
	
		<rect x="290.3" y="290.8" transform="matrix(-0.5299 -0.848 0.848 -0.5299 200.8342 707.5319)" class="st2" width="12.3" height="14.5"/>
	<polygon class="st2" points="296.2,284 292,277.2 279.6,284.9 287.1,296.7 299.4,289 	"/>
	<polygon class="st2" points="279.6,284.9 257.3,249 274.8,238.1 301.4,280.7 296.2,284 292,277.2 	"/>
	
		<rect x="359.2" y="364.5" transform="matrix(0.848 -0.5299 0.5299 0.848 -140.6146 251.0158)" class="st2" width="16.4" height="12.3"/>
	
		<rect x="365" y="327.6" transform="matrix(0.848 -0.5299 0.5299 0.848 -125.1352 255.8031)" class="st2" width="36.9" height="37"/>
	
		<rect x="350.3" y="313.2" transform="matrix(0.848 -0.5299 0.5299 0.848 -114.8674 244.3994)" class="st2" width="36.9" height="18.7"/>
	
		<rect x="340.4" y="297.3" transform="matrix(0.848 -0.5299 0.5299 0.848 -107.9817 236.7519)" class="st2" width="36.9" height="18.7"/>
	
		<rect x="352.6" y="354.1" transform="matrix(0.848 -0.5299 0.5299 0.848 -136.0651 245.9623)" class="st2" width="16.4" height="12.3"/>
	
		<rect x="346.1" y="343.6" transform="matrix(0.848 -0.5299 0.5299 0.848 -131.5153 240.9093)" class="st2" width="16.4" height="12.3"/>
	
		<rect x="339.6" y="333.1" transform="matrix(0.848 -0.5299 0.5299 0.848 -126.9658 235.8566)" class="st2" width="16.4" height="12.3"/>
	
		<rect x="333" y="322.7" transform="matrix(0.848 -0.5299 0.5299 0.848 -122.4164 230.8031)" class="st2" width="16.4" height="12.3"/>
	
		<rect x="326.6" y="312.4" transform="matrix(0.848 -0.5299 0.5299 0.848 -117.928 225.8185)" class="st2" width="16.4" height="12.3"/>
	
		<rect x="320" y="301.9" transform="matrix(0.848 -0.5299 0.5299 0.848 -113.3785 220.765)" class="st2" width="16.4" height="12.3"/>
	
		<rect x="313.4" y="291.1" transform="matrix(0.848 -0.5299 0.5299 0.848 -108.7519 215.6264)" class="st2" width="16.4" height="12.7"/>
	
		<rect x="303.7" y="275.3" transform="matrix(0.848 -0.5299 0.5299 0.848 -102.0198 208.1491)" class="st2" width="16.4" height="13.2"/>
	
		<rect x="296.9" y="264.9" transform="matrix(0.848 -0.5299 0.5299 0.848 -97.2932 202.8998)" class="st2" width="16.4" height="12.4"/>
	
		<rect x="290.4" y="254.4" transform="matrix(0.848 -0.5299 0.5299 0.848 -92.7282 197.8299)" class="st2" width="16.4" height="12.4"/>
	
		<rect x="283.8" y="243.9" transform="matrix(0.848 -0.5299 0.5299 0.848 -88.1629 192.7596)" class="st2" width="16.4" height="12.4"/>
	
		<rect x="277.1" y="232.7" transform="matrix(0.848 -0.5299 0.5299 0.848 -83.4599 187.5357)" class="st2" width="16.4" height="13.1"/>
	<polygon class="st2" points="325.2,287.7 338.2,308.5 369.5,288.9 350.1,257.9 318.8,277.5 322.4,283.2 308.5,291.9 311.3,296.4 	
		"/>
	
		<rect x="305.9" y="233.3" transform="matrix(-0.5299 -0.848 0.848 -0.5299 283.0088 660.4719)" class="st2" width="37.4" height="36.9"/>
	
		<rect x="307.7" y="213.6" transform="matrix(-0.5299 -0.848 0.848 -0.5299 296.5399 610.0959)" class="st2" width="19.3" height="18.5"/>
	
		<rect x="292.4" y="223" transform="matrix(-0.848 0.5299 -0.5299 -0.848 680.794 270.0928)" class="st2" width="18.5" height="19.3"/>
	
		<rect x="349.6" y="199.6" transform="matrix(-0.5299 -0.848 0.848 -0.5299 362.768 618.8646)" class="st2" width="6.5" height="18.5"/>
	
		<rect x="403.1" y="155.4" transform="matrix(-0.5299 -0.848 0.848 -0.5299 491.0417 601.7346)" class="st2" width="18.4" height="18.7"/>
	
		<rect x="386.5" y="165.6" transform="matrix(-0.848 0.5299 -0.5299 -0.848 824.782 113.2041)" class="st2" width="19.2" height="18.4"/>
	
		<rect x="388.9" y="130.3" transform="matrix(0.5299 0.848 -0.848 0.5299 303.1455 -273.4185)" class="st2" width="18.6" height="12.9"/>
	
		<rect x="384.3" y="117.4" transform="matrix(0.5299 0.848 -0.848 0.5299 288.4387 -272.649)" class="st2" width="11.7" height="12.9"/>
	
		<rect x="366.7" y="101.2" transform="matrix(0.5299 0.848 -0.848 0.5299 269.8601 -271.6761)" class="st2" width="26.6" height="12.9"/>
	
		<rect x="347.6" y="70.6" transform="matrix(0.5299 0.848 -0.848 0.5299 235.0011 -269.8505)" class="st2" width="26.6" height="12.9"/>
	
		<rect x="344.7" y="54.2" transform="matrix(0.5299 0.848 -0.848 0.5299 216.3002 -268.8712)" class="st2" width="12" height="12.9"/>
	
		<rect x="333.4" y="41.3" transform="matrix(0.5299 0.848 -0.848 0.5299 201.5342 -268.0977)" class="st2" width="18.5" height="12.9"/>
	
		<rect x="313.3" y="13.2" transform="matrix(0.5299 0.848 -0.848 0.5299 171.1815 -263.6565)" class="st2" width="20.2" height="18.7"/>
	
		<rect x="297.2" y="23" transform="matrix(0.5299 0.848 -0.848 0.5299 172.1429 -245.2832)" class="st2" width="20.2" height="19.2"/>
	<polygon class="st2" points="356.1,174 392.7,151.1 360.1,99 334.1,115.2 323.5,121.8 	"/>
	
		<rect x="335.7" y="85.4" transform="matrix(-0.5299 -0.848 0.848 -0.5299 452.2054 437.2234)" class="st2" width="23.2" height="15.7"/>
	<polygon class="st2" points="347.8,79.3 327.3,46.4 300.9,62.9 310.7,78.6 300.5,84.9 323.5,121.8 346.8,107.3 334.4,87.6 	"/>
	<polygon class="st3" points="300.5,84.9 356.1,174 346,180.3 280.5,75.6 300.9,62.9 310.7,78.6 	"/>
	
		<rect x="328.6" y="4.4" transform="matrix(-0.5299 -0.848 0.848 -0.5299 614.9839 479.844)" class="st3" width="223.8" height="130.1"/>
	<polygon class="st2" points="510.2,246.4 525.6,236.7 544.4,266.8 534.2,273.2 553.5,304.2 680.3,224.9 640.1,160.6 592.7,190.3 
		554.9,129.9 444.6,198.9 485.4,264.2 490,261.3 496.1,271 517.3,257.8 	"/>
	
		<rect x="222.2" y="126.4" transform="matrix(0.5299 0.848 -0.848 0.5299 276.6396 -134.0989)" class="st7" width="74.2" height="112.2"/>
	
		<rect x="175.1" y="59.1" transform="matrix(0.5299 0.848 -0.848 0.5299 204.8503 -122.0866)" class="st3" width="74.9" height="129.2"/>
	
		<rect x="159.3" y="203.8" transform="matrix(0.5299 0.848 -0.848 0.5299 280.3943 -62.3843)" class="st6" width="74.2" height="35.9"/>
	
		<rect x="129.8" y="212.5" transform="matrix(0.5299 0.848 -0.848 0.5299 255.9104 -12.3029)" class="st2" width="18.4" height="24.4"/>
	
		<rect x="159.4" y="259.8" transform="matrix(0.5299 0.848 -0.848 0.5299 309.9741 -15.1346)" class="st2" width="18.4" height="24.4"/>
	<polygon class="st2" points="117.2,212.7 127.5,206.2 119.2,192.9 129.6,186.4 99.7,138.7 79,151.6 	"/>
	
		<rect x="125.1" y="160.6" transform="matrix(0.848 -0.5299 0.5299 0.848 -72.9661 98.4579)" class="st2" width="20.1" height="31.7"/>
	
		<rect x="136.2" y="135.5" transform="matrix(0.848 -0.5299 0.5299 0.848 -60.7705 100.9691)" class="st2" width="18.9" height="41.8"/>
	<polygon class="st2" points="161.6,199.7 155.5,189.9 165,184 158.3,173.2 164.8,169.2 177.6,189.7 	"/>
	
		<rect x="150.5" y="176" transform="matrix(-0.5299 -0.848 0.848 -0.5299 86.0101 410.8194)" class="st2" width="12.7" height="11.2"/>
	<path class="st7" d="M378,531.3l-2.3-3.7l-44.4,27.7l40.1,64.2c0,0,32.4,55.1,101.6,36.6l-7.9-28.2l12.4-7.7l-11.4-18.2l0.8-3.6
		l-9-2.1l8.8-34.9l-43-9.4l-6.6,28.7l-7.8-1.8l2.8-13.2l-18.7-29.9l-9,5.7L378,531.3z"/>
	<polygon class="st2" points="412.1,565.6 420.2,567.5 417.1,580.6 409.3,578.8 	"/>
	<polygon class="st5" points="765.5,741.2 750.9,750.4 759.5,764.8 774.3,755.3 	"/>
	<polygon class="st5" points="774.3,755.3 759.5,764.8 768.7,779.6 783.6,770.1 	"/>
</g>
<g id="Calque_3" class="st0">
	<polyline class="st1" points="723.4,584.4 730.5,599.8 701.9,613.3 699.2,609 	"/>
	<polyline class="st1" points="688.9,416.2 704.7,406.3 695,390.7 672.8,404.6 682.4,419.9 683.8,419 	"/>
	<polyline class="st1" points="636.8,296.5 627,280.9 610.7,291.1 	"/>
	<line class="st1" x1="651.6" y1="264.9" x2="646.9" y2="267.8"/>
	<polyline class="st1" points="459.6,548.9 460.8,550.8 478.7,554.9 488.4,548.9 475.7,528.5 455,541.4 455,541.4 	"/>
	<line class="st1" x1="488.4" y1="548.9" x2="499.1" y2="542.2"/>
	<polyline class="st1" points="516.9,524 520.1,529.1 509.1,536 	"/>
	<line class="st1" x1="579" y1="485" x2="547.6" y2="504.5"/>
	<line class="st1" x1="325.6" y1="404" x2="295.7" y2="422.7"/>
	<line class="st1" x1="383.1" y1="172.2" x2="352.7" y2="191.2"/>
	<line class="st1" x1="129.6" y1="186.4" x2="139.7" y2="202.7"/>
	<line class="st1" x1="293.8" y1="29.2" x2="271.4" y2="43.2"/>
	<line class="st1" x1="304.5" y1="46.3" x2="282.1" y2="60.3"/>
</g>
<g id="Calque_4" class="st0">
	<path class="st8" d="M479.9,62.3h-95.3c-1.4,0-2.5-1.1-2.5-2.5V46.7c0-1.4,1.1-2.5,2.5-2.5h95.3c1.4,0,2.5,1.1,2.5,2.5v13.1
		C482.4,61.2,481.3,62.3,479.9,62.3z"/>
	<text transform="matrix(1 0 0 1 392.7042 57.2216)" class="st9 st10 st11">Gymnases A, B et C</text>
</g>
<g>
	<g>
		<defs>
			<rect id="SVGID_1_" x="-276" y="-544.2" width="1363.2" height="1698.5"/>
		</defs>
		<clipPath id="SVGID_2_">
			<use xlink:href="#SVGID_1_"  style="overflow:visible;"/>
		</clipPath>
		<g class="st12">
			<defs>
				<rect id="SVGID_3_" x="-276" y="-544.2" width="1363.2" height="1698.5"/>
			</defs>
			<clipPath id="SVGID_4_">
				<use xlink:href="#SVGID_3_"  style="overflow:visible;"/>
			</clipPath>
			<path class="st13" d="M586.7,485.6l-13.7-22l-31,19.3l-66.1,41.3l-99.6-159.4l-38.3,24l-90.2-144.4l-38.6,24.1l-10.5-16.9
				l-17.4,10.9l10.2,16.3L167,294.1l77,123.5l13.4,21.5l21.5-13.5l70.8,113.2l-21.4,13.4c0,0,32.9,53.5,41.1,65.7
				c33.6,49.9,92,48.5,124.3,28.7c6.1-3.7,145.4-90.9,145.4-90.9l-39-62.5l-6.1,3.8L586.7,485.6z"/>
			<path class="st14" d="M586.7,485.6l-13.7-22l-31,19.3l-66.1,41.3l-99.6-159.4l-38.3,24l-90.2-144.4l-38.6,24.1l-10.5-16.9
				l-17.4,10.9l10.2,16.3L167,294.1l77,123.5l13.4,21.5l21.5-13.5l70.8,113.2l-21.4,13.4c0,0,32.9,53.5,41.1,65.7
				c33.6,49.9,92,48.5,124.3,28.7c6.1-3.7,145.4-90.9,145.4-90.9l-39-62.5l-6.1,3.8L586.7,485.6z"/>
			<polygon class="st15" points="590.3,499.4 575.6,508.6 589.2,530.3 601.4,522.7 613.6,515 600.1,493.3 			"/>
			<polygon class="st14" points="590.3,499.4 575.6,508.6 589.2,530.3 601.4,522.7 613.6,515 600.1,493.3 			"/>
			<polygon class="st15" points="589.2,530.3 598.2,544.6 591.6,548.7 608.1,575.2 639.1,555.8 613.6,515 			"/>
			<polygon class="st14" points="589.2,530.3 598.2,544.6 591.6,548.7 608.1,575.2 639.1,555.8 613.6,515 			"/>
			
				<rect x="574.1" y="553.7" transform="matrix(0.848 -0.5299 0.5299 0.848 -212.3444 398.133)" class="st15" width="27.8" height="31.2"/>
			
				<rect x="574.1" y="553.7" transform="matrix(0.848 -0.5299 0.5299 0.848 -212.3444 398.133)" class="st14" width="27.8" height="31.2"/>
			<polygon class="st15" points="568,563.5 551.2,573.9 538.7,571 525.4,579.3 546.7,613.5 584.5,589.9 			"/>
			<polygon class="st14" points="568,563.5 551.2,573.9 538.7,571 525.4,579.3 546.7,613.5 584.5,589.9 			"/>
			
				<rect x="550.5" y="520.2" transform="matrix(0.5299 0.848 -0.848 0.5299 718.4507 -229.8197)" class="st15" width="32" height="26"/>
			
				<rect x="550.5" y="520.2" transform="matrix(0.5299 0.848 -0.848 0.5299 718.4507 -229.8197)" class="st14" width="32" height="26"/>
			<polygon class="st15" points="562.4,567 539.9,530.9 507.7,551 525.4,579.3 538.7,571 551.2,573.9 			"/>
			<polygon class="st14" points="562.4,567 539.9,530.9 507.7,551 525.4,579.3 538.7,571 551.2,573.9 			"/>
			
				<rect x="519" y="590.3" transform="matrix(0.8481 -0.5299 0.5299 0.8481 -240.6092 372.663)" class="st15" width="21.1" height="31.2"/>
			
				<rect x="519" y="590.3" transform="matrix(0.8481 -0.5299 0.5299 0.8481 -240.6092 372.663)" class="st14" width="21.1" height="31.2"/>
			<path class="st15" d="M512.3,598.2l-35.2,22l12.3,28.8c0,0,4.4-2.5,6.9-4l32.6-20.4L512.3,598.2z"/>
			<path class="st14" d="M512.3,598.2l-35.2,22l12.3,28.8c0,0,4.4-2.5,6.9-4l32.6-20.4L512.3,598.2z"/>
			<path class="st15" d="M477.1,620.2l-8.9,5.6l-18.3,4.5l-11.8-2.4l-4,30.7c0,0,28.4,4.5,55.2-9.6L477.1,620.2z"/>
			<path class="st14" d="M477.1,620.2l-8.9,5.6l-18.3,4.5l-11.8-2.4l-4,30.7c0,0,28.4,4.5,55.2-9.6L477.1,620.2z"/>
			<path class="st15" d="M428.7,625.6l-14.5-3.5L400,609.8l-4.4-7.1l-22.7,20.1c0,0,16.7,24.3,46.2,32.7L428.7,625.6z"/>
			<path class="st14" d="M428.7,625.6l-14.5-3.5L400,609.8l-4.4-7.1l-22.7,20.1c0,0,16.7,24.3,46.2,32.7L428.7,625.6z"/>
			<path class="st15" d="M395.5,602.7L378,574.6l-25.9,16.2L366,613c0,0,3.5,5.5,6.8,9.8L395.5,602.7z"/>
			<path class="st14" d="M395.5,602.7L378,574.6l-25.9,16.2L366,613c0,0,3.5,5.5,6.8,9.8L395.5,602.7z"/>
			
				<rect x="330.5" y="548.3" transform="matrix(0.5299 0.8481 -0.8481 0.5299 643.7944 -34.6161)" class="st15" width="45.3" height="30.3"/>
			
				<rect x="330.5" y="548.3" transform="matrix(0.5299 0.8481 -0.8481 0.5299 643.7944 -34.6161)" class="st14" width="45.3" height="30.3"/>
			
				<rect x="555.8" y="490.7" transform="matrix(0.5299 0.848 -0.848 0.5299 685.8113 -239.7798)" class="st15" width="6.7" height="16.1"/>
			
				<rect x="555.8" y="490.7" transform="matrix(0.5299 0.848 -0.848 0.5299 685.8113 -239.7798)" class="st14" width="6.7" height="16.1"/>
			
				<rect x="523.6" y="488.9" transform="matrix(-0.5299 -0.8481 0.8481 -0.5299 395.4419 1222.4042)" class="st15" width="25.9" height="25.4"/>
			
				<rect x="523.6" y="488.9" transform="matrix(-0.5299 -0.8481 0.8481 -0.5299 395.4419 1222.4042)" class="st14" width="25.9" height="25.4"/>
			
				<rect x="507.6" y="505.5" transform="matrix(-0.5299 -0.8481 0.8481 -0.5299 362.6559 1224.1223)" class="st15" width="25.9" height="12.1"/>
			
				<rect x="507.6" y="505.5" transform="matrix(-0.5299 -0.8481 0.8481 -0.5299 362.6559 1224.1223)" class="st14" width="25.9" height="12.1"/>
			
				<rect x="495.8" y="507.6" transform="matrix(-0.5299 -0.8481 0.8481 -0.5299 334.9548 1220.1768)" class="st16" width="19.7" height="19.2"/>
			
				<rect x="495.8" y="507.6" transform="matrix(-0.5299 -0.8481 0.8481 -0.5299 334.9548 1220.1768)" class="st14" width="19.7" height="19.2"/>
			
				<rect x="479.4" y="517.8" transform="matrix(-0.5299 -0.8481 0.8481 -0.5299 301.2845 1221.9412)" class="st16" width="19.7" height="19.3"/>
			
				<rect x="479.4" y="517.8" transform="matrix(-0.5299 -0.8481 0.8481 -0.5299 301.2845 1221.9412)" class="st14" width="19.7" height="19.3"/>
			<polygon class="st15" points="498.8,558.5 470.5,576.2 467.7,585.1 480.7,605.9 515.8,583.9 499.6,558 			"/>
			<polygon class="st14" points="498.8,558.5 470.5,576.2 467.7,585.1 480.7,605.9 515.8,583.9 499.6,558 			"/>
			<polygon class="st15" points="490.7,563.6 465.2,557.7 461.4,574.2 470.5,576.2 			"/>
			<polygon class="st14" points="490.7,563.6 465.2,557.7 461.4,574.2 470.5,576.2 			"/>
			<polygon class="st15" points="480.7,605.9 466.5,614.7 450.3,618.1 443.7,607.5 444.3,603.7 469.5,588 			"/>
			<polygon class="st14" points="480.7,605.9 466.5,614.7 450.3,618.1 443.7,607.5 444.3,603.7 469.5,588 			"/>
			<polygon class="st15" points="466.2,590.1 469.5,588 467.7,585.1 470.5,576.2 461.4,574.2 451.8,572 448.4,586.4 			"/>
			<polygon class="st14" points="466.2,590.1 469.5,588 467.7,585.1 470.5,576.2 461.4,574.2 451.8,572 448.4,586.4 			"/>
			<polygon class="st15" points="448.4,586.4 444.4,603.8 466.2,590.1 			"/>
			<polygon class="st14" points="448.4,586.4 444.4,603.8 466.2,590.1 			"/>
			<polygon class="st15" points="450.3,618.1 441.2,616.4 443.7,607.5 			"/>
			<polygon class="st14" points="450.3,618.1 441.2,616.4 443.7,607.5 			"/>
			<polygon class="st15" points="429.9,612.8 435.9,590.1 415,585.5 407.8,593.6 404.2,595.9 408,602 417.9,610.5 			"/>
			<polygon class="st14" points="429.9,612.8 435.9,590.1 415,585.5 407.8,593.6 404.2,595.9 408,602 417.9,610.5 			"/>
			<polygon class="st15" points="415,585.5 412.1,584.9 408.5,579.2 397.9,585.8 404.2,595.9 407.8,593.6 			"/>
			<polygon class="st14" points="415,585.5 412.1,584.9 408.5,579.2 397.9,585.8 404.2,595.9 407.8,593.6 			"/>
			<polygon class="st15" points="435.9,590.1 440.5,569.6 432.2,567.5 431.5,570.3 419,568 417.8,575 416.4,580.8 408.5,579.2 
				412.1,584.9 			"/>
			<polygon class="st14" points="435.9,590.1 440.5,569.6 432.2,567.5 431.5,570.3 419,568 417.8,575 416.4,580.8 408.5,579.2 
				412.1,584.9 			"/>
			<polygon class="st15" points="432.2,567.5 436.1,551.4 423.1,548.4 419,568 431.5,570.3 			"/>
			<polygon class="st14" points="432.2,567.5 436.1,551.4 423.1,548.4 419,568 431.5,570.3 			"/>
			
				<rect x="388.7" y="553.7" transform="matrix(0.848 -0.5299 0.5299 0.848 -241.6722 295.8123)" class="st15" width="12.5" height="31.1"/>
			
				<rect x="388.7" y="553.7" transform="matrix(0.848 -0.5299 0.5299 0.848 -241.6722 295.8123)" class="st14" width="12.5" height="31.1"/>
			<polygon class="st15" points="408.5,579.2 411.5,561.4 395.5,558.4 			"/>
			<polygon class="st14" points="408.5,579.2 411.5,561.4 395.5,558.4 			"/>
			<polygon class="st15" points="409.1,560.9 410.7,554.2 404.8,544.8 392,552.8 395.5,558.4 			"/>
			<polygon class="st14" points="409.1,560.9 410.7,554.2 404.8,544.8 392,552.8 395.5,558.4 			"/>
			<polygon class="st15" points="418.5,570.8 410.2,569.2 408.5,579.2 416.4,580.8 			"/>
			<polygon class="st14" points="418.5,570.8 410.2,569.2 408.5,579.2 416.4,580.8 			"/>
			
				<rect x="359.2" y="531.1" transform="matrix(-0.848 0.5299 -0.5299 -0.848 963.162 809.4606)" class="st15" width="12.6" height="23.5"/>
			
				<rect x="359.2" y="531.1" transform="matrix(-0.848 0.5299 -0.5299 -0.848 963.162 809.4606)" class="st14" width="12.6" height="23.5"/>
			
				<rect x="369.9" y="524.4" transform="matrix(-0.848 0.5299 -0.5299 -0.848 979.331 791.5029)" class="st15" width="12.6" height="23.5"/>
			
				<rect x="369.9" y="524.4" transform="matrix(-0.848 0.5299 -0.5299 -0.848 979.331 791.5029)" class="st14" width="12.6" height="23.5"/>
			
				<rect x="380.5" y="517.5" transform="matrix(-0.8481 0.5299 -0.5299 -0.8481 996.0594 772.9387)" class="st15" width="13.5" height="23.5"/>
			
				<rect x="380.5" y="517.5" transform="matrix(-0.8481 0.5299 -0.5299 -0.8481 996.0594 772.9387)" class="st14" width="13.5" height="23.5"/>
			
				<rect x="431.4" y="499.9" transform="matrix(0.848 -0.5299 0.5299 0.848 -206.3375 317.3344)" class="st15" width="37.5" height="37"/>
			
				<rect x="431.4" y="499.9" transform="matrix(0.848 -0.5299 0.5299 0.848 -206.3375 317.3344)" class="st14" width="37.5" height="37"/>
			<polygon class="st15" points="444.1,544.1 418.2,538.1 415.2,533.4 431.1,523.4 			"/>
			<polygon class="st14" points="444.1,544.1 418.2,538.1 415.2,533.4 431.1,523.4 			"/>
			
				<rect x="413.5" y="513.7" transform="matrix(0.5299 0.8481 -0.8481 0.5299 640.9316 -110.1603)" class="st15" width="12.7" height="18.8"/>
			
				<rect x="413.5" y="513.7" transform="matrix(0.5299 0.8481 -0.8481 0.5299 640.9316 -110.1603)" class="st14" width="12.7" height="18.8"/>
			<polygon class="st15" points="408.5,522.7 405,517 420.9,507.1 404.3,480.5 436.1,460.6 456.3,492.8 			"/>
			<polygon class="st14" points="408.5,522.7 405,517 420.9,507.1 404.3,480.5 436.1,460.6 456.3,492.8 			"/>
			
				<rect x="398.9" y="494.8" transform="matrix(0.5299 0.848 -0.848 0.5299 619.4324 -109.0404)" class="st15" width="18.4" height="18.8"/>
			
				<rect x="398.9" y="494.8" transform="matrix(0.5299 0.848 -0.848 0.5299 619.4324 -109.0404)" class="st14" width="18.4" height="18.8"/>
			
				<rect x="383.5" y="476.1" transform="matrix(0.5299 0.848 -0.848 0.5299 598.0821 -107.9178)" class="st15" width="25.7" height="18.8"/>
			
				<rect x="383.5" y="476.1" transform="matrix(0.5299 0.848 -0.848 0.5299 598.0821 -107.9178)" class="st14" width="25.7" height="18.8"/>
			
				<rect x="375.4" y="457.4" transform="matrix(0.5299 0.848 -0.848 0.5299 576.6841 -106.7957)" class="st15" width="18.5" height="18.8"/>
			
				<rect x="375.4" y="457.4" transform="matrix(0.5299 0.848 -0.848 0.5299 576.6841 -106.7957)" class="st14" width="18.5" height="18.8"/>
			
				<rect x="362.1" y="436.1" transform="matrix(0.5299 0.848 -0.848 0.5299 552.3431 -105.52)" class="st15" width="18.5" height="18.8"/>
			
				<rect x="362.1" y="436.1" transform="matrix(0.5299 0.848 -0.848 0.5299 552.3431 -105.52)" class="st14" width="18.5" height="18.8"/>
			
				<rect x="356.8" y="422.9" transform="matrix(0.5299 0.8481 -0.8481 0.5299 537.2778 -104.7287)" class="st15" width="12.7" height="18.8"/>
			
				<rect x="356.8" y="422.9" transform="matrix(0.5299 0.8481 -0.8481 0.5299 537.2778 -104.7287)" class="st14" width="12.7" height="18.8"/>
			<polygon class="st15" points="371.8,463.9 368.3,458.3 416,428.4 436.1,460.6 404.3,480.5 387.7,454 			"/>
			<polygon class="st14" points="371.8,463.9 368.3,458.3 416,428.4 436.1,460.6 404.3,480.5 387.7,454 			"/>
			<polygon class="st15" points="351.8,431.9 348.3,426.2 396,396.4 416,428.4 384.2,448.3 367.7,421.9 			"/>
			<polygon class="st14" points="351.8,431.9 348.3,426.2 396,396.4 416,428.4 384.2,448.3 367.7,421.9 			"/>
			<polygon class="st15" points="348.3,426.2 345.1,421.2 361.1,411.3 344.4,384.7 376.3,364.8 396,396.4 			"/>
			<polygon class="st14" points="348.3,426.2 345.1,421.2 361.1,411.3 344.4,384.7 376.3,364.8 396,396.4 			"/>
			
				<rect x="343.7" y="401.7" transform="matrix(0.5299 0.848 -0.848 0.5299 513.0523 -103.462)" class="st15" width="12.2" height="18.8"/>
			
				<rect x="343.7" y="401.7" transform="matrix(0.5299 0.848 -0.848 0.5299 513.0523 -103.462)" class="st14" width="12.2" height="18.8"/>
			<polygon class="st15" points="338.6,410.8 335,405 338.1,403 331.6,392.7 344.4,384.7 354.6,400.9 			"/>
			<polygon class="st14" points="338.6,410.8 335,405 338.1,403 331.6,392.7 344.4,384.7 354.6,400.9 			"/>
			
				<rect x="336.3" y="491.9" transform="matrix(0.5299 0.8481 -0.8481 0.5299 601.2323 -61.4134)" class="st15" width="39.5" height="39.5"/>
			
				<rect x="336.3" y="491.9" transform="matrix(0.5299 0.8481 -0.8481 0.5299 601.2323 -61.4134)" class="st14" width="39.5" height="39.5"/>
			
				<rect x="316.9" y="459.2" transform="matrix(0.5299 0.848 -0.848 0.5299 563.9702 -59.4614)" class="st15" width="37.5" height="39.5"/>
			
				<rect x="316.9" y="459.2" transform="matrix(0.5299 0.848 -0.848 0.5299 563.9702 -59.4614)" class="st14" width="37.5" height="39.5"/>
			
				<rect x="296.7" y="427.3" transform="matrix(0.5299 0.848 -0.848 0.5299 527.4957 -57.5522)" class="st15" width="37.9" height="39.5"/>
			
				<rect x="296.7" y="427.3" transform="matrix(0.5299 0.848 -0.848 0.5299 527.4957 -57.5522)" class="st14" width="37.9" height="39.5"/>
			
				<rect x="323" y="380.5" transform="matrix(0.5299 0.848 -0.848 0.5299 484.5768 -94.5333)" class="st15" width="9.1" height="18.7"/>
			
				<rect x="323" y="380.5" transform="matrix(0.5299 0.848 -0.848 0.5299 484.5768 -94.5333)" class="st14" width="9.1" height="18.7"/>
			
				<rect x="317.1" y="372.1" transform="matrix(0.5299 0.8481 -0.8481 0.5299 475.0545 -94.0317)" class="st13" width="10.5" height="18.7"/>
			
				<rect x="317.1" y="372.1" transform="matrix(0.5299 0.8481 -0.8481 0.5299 475.0545 -94.0317)" class="st14" width="10.5" height="18.7"/>
			
				<rect x="287.7" y="331.4" transform="matrix(0.848 -0.5299 0.5299 0.848 -143.5726 214.2303)" class="st15" width="28.2" height="52"/>
			
				<rect x="287.7" y="331.4" transform="matrix(0.848 -0.5299 0.5299 0.848 -143.5726 214.2303)" class="st14" width="28.2" height="52"/>
			
				<rect x="268.8" y="353.1" transform="matrix(0.8481 -0.5299 0.5299 0.8481 -155.9763 206.0791)" class="st15" width="25.1" height="43.9"/>
			
				<rect x="268.8" y="353.1" transform="matrix(0.8481 -0.5299 0.5299 0.8481 -155.9763 206.0791)" class="st14" width="25.1" height="43.9"/>
			
				<rect x="241.1" y="308.3" transform="matrix(0.8481 -0.5299 0.5299 0.8481 -135.5409 186.3727)" class="st15" width="32.3" height="42.5"/>
			
				<rect x="241.1" y="308.3" transform="matrix(0.8481 -0.5299 0.5299 0.8481 -135.5409 186.3727)" class="st14" width="32.3" height="42.5"/>
			
				<rect x="267.1" y="286.5" transform="matrix(0.848 -0.5299 0.5299 0.848 -123.1053 194.4882)" class="st15" width="20.9" height="50.9"/>
			
				<rect x="267.1" y="286.5" transform="matrix(0.848 -0.5299 0.5299 0.848 -123.1053 194.4882)" class="st14" width="20.9" height="50.9"/>
			
				<rect x="229.5" y="249.6" transform="matrix(0.8481 -0.5299 0.5299 0.8481 -107.4916 171.9951)" class="st15" width="33.4" height="47.6"/>
			
				<rect x="229.5" y="249.6" transform="matrix(0.8481 -0.5299 0.5299 0.8481 -107.4916 171.9951)" class="st14" width="33.4" height="47.6"/>
			<polygon class="st15" points="244.6,302.5 227.8,313 205.3,276.9 211.9,272.8 209.2,268.5 219.4,262.1 			"/>
			<polygon class="st14" points="244.6,302.5 227.8,313 205.3,276.9 211.9,272.8 209.2,268.5 219.4,262.1 			"/>
			
				<rect x="589.4" y="559" transform="matrix(0.5299 0.8481 -0.8481 0.5299 758.8335 -238.4431)" class="st15" width="10.2" height="12.6"/>
			
				<rect x="589.4" y="559" transform="matrix(0.5299 0.8481 -0.8481 0.5299 758.8335 -238.4431)" class="st14" width="10.2" height="12.6"/>
			
				<rect x="170.2" y="288.3" transform="matrix(0.5299 0.848 -0.848 0.5299 345.6577 -18.2727)" class="st15" width="38.3" height="28.8"/>
			
				<rect x="170.2" y="288.3" transform="matrix(0.5299 0.848 -0.848 0.5299 345.6577 -18.2727)" class="st14" width="38.3" height="28.8"/>
			
				<rect x="190.6" y="320.5" transform="matrix(0.5299 0.8481 -0.8481 0.5299 382.4418 -20.1974)" class="st15" width="37.7" height="28.8"/>
			
				<rect x="190.6" y="320.5" transform="matrix(0.5299 0.8481 -0.8481 0.5299 382.4418 -20.1974)" class="st14" width="37.7" height="28.8"/>
			<polygon class="st15" points="231.6,343.2 243.9,362.9 233.6,369.4 241.4,381.8 227.3,390.6 207.2,358.5 			"/>
			<polygon class="st14" points="231.6,343.2 243.9,362.9 233.6,369.4 241.4,381.8 227.3,390.6 207.2,358.5 			"/>
			
				<rect x="235.1" y="376.5" transform="matrix(-0.5299 -0.8481 0.8481 -0.5299 42.4803 805.3823)" class="st15" width="18.7" height="28.8"/>
			
				<rect x="235.1" y="376.5" transform="matrix(-0.5299 -0.8481 0.8481 -0.5299 42.4803 805.3823)" class="st14" width="18.7" height="28.8"/>
			
				<rect x="241.1" y="399.5" transform="matrix(-0.5299 -0.8481 0.8481 -0.5299 36.0609 838.5208)" class="st16" width="18.7" height="19.5"/>
			
				<rect x="241.1" y="399.5" transform="matrix(-0.5299 -0.8481 0.8481 -0.5299 36.0609 838.5208)" class="st14" width="18.7" height="19.5"/>
			
				<rect x="250.8" y="415.8" transform="matrix(-0.5299 -0.848 0.848 -0.5299 37.8321 872.0031)" class="st16" width="19.6" height="19.5"/>
			
				<rect x="250.8" y="415.8" transform="matrix(-0.5299 -0.848 0.848 -0.5299 37.8321 872.0031)" class="st14" width="19.6" height="19.5"/>
			
				<rect x="235.3" y="366.3" transform="matrix(-0.5299 -0.8481 0.8481 -0.5299 55.4744 775.4501)" class="st15" width="14.7" height="12.2"/>
			
				<rect x="235.3" y="366.3" transform="matrix(-0.5299 -0.8481 0.8481 -0.5299 55.4744 775.4501)" class="st14" width="14.7" height="12.2"/>
		</g>
		<line class="st17" x1="564.2" y1="491.6" x2="574.1" y2="485.4"/>
		<line class="st17" x1="522.3" y1="525.8" x2="510.9" y2="532.9"/>
		<polyline class="st17" points="486.4,541 489.6,546.2 500.4,539.4 		"/>
		<polyline class="st17" points="489.6,546.2 480.5,551.9 461.8,547.6 460.2,545.1 		"/>
		<polyline class="st17" points="322,398.7 293,416.8 290,412 		"/>
		<line class="st17" x1="205.3" y1="276.9" x2="201.1" y2="279.5"/>
		<line class="st18" x1="263.7" y1="412" x2="271.6" y2="407.1"/>
		<line class="st17" x1="263.7" y1="412" x2="271.6" y2="407.1"/>
		<line class="st19" x1="327.5" y1="372.1" x2="317.2" y2="390.9"/>
		<line class="st19" x1="333.1" y1="381" x2="311.6" y2="382"/>
	</g>
</g>
</svg>
