<?xml version="1.0" encoding="utf-8"?>
<!-- Generator: Adobe Illustrator 19.0.0, SVG Export Plug-In . SVG Version: 6.00 Build 0)  -->
<svg version="1.0" xmlns="http://www.w3.org/2000/svg" xmlns:xlink="http://www.w3.org/1999/xlink" x="0px" y="0px"
	 viewBox="0 0 475 416.333" style="enable-background:new 0 0 475 416.333;" xml:space="preserve">
<style type="text/css">
	.st0{fill:#FFFFFF;stroke:#383938;stroke-width:0.5;stroke-miterlimit:10;}
	.st1{fill:#ECF0F2;stroke:#383938;stroke-width:0.5;stroke-miterlimit:10;}
	.st2{fill:#C0D9E0;stroke:#383938;stroke-width:0.5;stroke-miterlimit:10;}
	.st3{fill:none;stroke:#383938;stroke-width:0.5;stroke-miterlimit:10;}
	.st4{fill:#C6E4E2;stroke:#383938;stroke-width:0.5;stroke-miterlimit:10;}
	.st5{fill:none;stroke:#383938;stroke-width:0.5;stroke-miterlimit:10;stroke-dasharray:2;}
</style>
<g id="locaux">
	<path class="st0" d="M418.802,241.333l-13.577-21.727l-30.577,19.107l-65.3,40.804l-98.413-157.494l-37.879,23.67L83.942,3.079
		l-38.088,23.8L35.432,10.2l-17.204,10.75l10.073,16.121L4.176,52.147l76.107,122.004l13.263,21.225l21.281-13.298l69.905,111.872
		l-21.188,13.239c0,0,32.455,52.872,40.563,64.914c33.206,49.318,90.86,47.928,122.82,28.355
		c6.046-3.703,143.652-89.763,143.652-89.763l-38.557-61.704l-6.066,3.791L418.802,241.333z"/>
	<polygon class="st1" points="422.375,255.019 407.904,264.062 421.314,285.523 433.373,277.987 445.432,270.452 432.022,248.991 	
		"/>
	<polygon class="st1" points="421.314,285.523 430.146,299.657 423.644,303.719 439.974,329.853 470.594,310.719 445.432,270.452 	
		"/>
	
		<rect x="406.398" y="308.665" transform="matrix(0.848 -0.5299 0.5299 0.848 -107.8899 271.888)" class="st1" width="27.5" height="30.816"/>
	<polygon class="st1" points="400.323,318.292 383.786,328.626 371.384,325.762 358.239,333.976 379.338,367.742 416.652,344.426 	
		"/>
	
		<rect x="383.082" y="275.508" transform="matrix(0.5299 0.848 -0.848 0.5299 432.0431 -202.7442)" class="st1" width="31.639" height="25.667"/>
	<polygon class="st1" points="394.81,321.737 372.568,286.142 340.766,306.014 358.239,333.976 371.384,325.762 383.786,328.626 	
		"/>
	
		<rect x="351.923" y="344.787" transform="matrix(0.848 -0.5299 0.5299 0.848 -135.8162 246.743)" class="st1" width="20.833" height="30.816"/>
	<path class="st1" d="M345.341,352.649l-34.77,21.727l12.102,28.499c0,0,4.376-2.442,6.772-3.955l32.226-20.137L345.341,352.649z"/>
	<path class="st1" d="M310.571,374.375l-8.834,5.52l-18.029,4.486l-11.677-2.333l-3.913,30.36c0,0,28.101,4.44,54.555-9.533
		L310.571,374.375z"/>
	<path class="st1" d="M262.711,379.715l-14.371-3.499l-14-12.182l-4.372-6.996l-22.456,19.836c0,0,16.482,24.025,45.595,32.347
		L262.711,379.715z"/>
	<path class="st1" d="M229.968,357.037l-17.355-27.774l-25.553,15.967l13.734,21.979c0,0,3.409,5.451,6.718,9.664L229.968,357.037z"
		/>
	
		<rect x="165.718" y="303.268" transform="matrix(0.5299 0.848 -0.848 0.5299 358.2834 -9.908)" class="st1" width="44.723" height="29.916"/>
	
		<rect x="388.321" y="246.375" transform="matrix(0.5299 0.848 -0.848 0.5299 399.7964 -212.5842)" class="st1" width="6.667" height="15.917"/>
	
		<rect x="356.458" y="244.63" transform="matrix(-0.5299 -0.848 0.848 -0.5299 346.8355 706.598)" class="st1" width="25.593" height="25.083"/>
	
		<rect x="340.734" y="260.998" transform="matrix(-0.5299 -0.848 0.848 -0.5299 314.4461 708.2955)" class="st1" width="25.593" height="12"/>
	
		<rect x="329.019" y="263.132" transform="matrix(-0.5299 -0.848 0.848 -0.5299 287.0916 704.4011)" class="st2" width="19.509" height="19"/>
	
		<rect x="312.871" y="273.181" transform="matrix(-0.5299 -0.848 0.848 -0.5299 253.8288 706.1444)" class="st2" width="19.509" height="19.083"/>
	<polygon class="st1" points="332.024,313.41 304.038,330.897 301.281,339.695 314.088,360.189 348.787,338.507 332.801,312.924 	
		"/>
	<polygon class="st1" points="323.967,318.444 298.791,312.632 295.026,328.938 304.038,330.897 	"/>
	<polygon class="st1" points="314.088,360.189 300.095,368.933 284.089,372.253 277.553,361.794 278.272,358.066 303.048,342.522 	
		"/>
	<polygon class="st1" points="299.797,344.553 303.048,342.522 301.281,339.695 304.038,330.897 295.026,328.938 285.524,326.744 
		282.237,340.983 	"/>
	<polygon class="st1" points="282.237,340.983 278.287,358.092 299.797,344.553 	"/>
	<polygon class="st1" points="284.089,372.253 275.101,370.597 277.553,361.794 	"/>
	<polygon class="st1" points="263.94,367.057 269.852,344.594 249.244,340.079 242.06,348.081 238.526,350.289 242.291,356.314 
		252.077,364.742 	"/>
	<polygon class="st1" points="249.244,340.079 246.325,339.495 242.77,333.806 232.311,340.342 238.526,350.289 242.06,348.081 	"/>
	<polygon class="st1" points="269.852,344.594 274.403,324.358 266.232,322.29 265.481,325.019 253.177,322.783 251.957,329.638 
		250.632,335.379 242.77,333.806 246.325,339.495 	"/>
	<polygon class="st1" points="266.232,322.29 270.032,306.355 257.171,303.386 253.177,322.783 265.481,325.019 	"/>
	
		<rect x="223.226" y="308.66" transform="matrix(0.848 -0.5299 0.5299 0.848 -136.8559 170.7975)" class="st1" width="12.333" height="30.75"/>
	<polygon class="st1" points="242.77,333.806 245.74,316.228 229.964,313.312 	"/>
	<polygon class="st1" points="243.419,315.799 244.967,309.095 239.16,299.802 226.475,307.729 229.964,313.312 	"/>
	<polygon class="st1" points="252.692,325.509 244.431,323.973 242.77,333.806 250.632,335.379 	"/>
	
		<rect x="194.124" y="286.282" transform="matrix(-0.848 0.5299 -0.5299 -0.848 528.0829 444.3614)" class="st1" width="12.417" height="23.223"/>
	
		<rect x="204.654" y="279.702" transform="matrix(-0.848 0.5299 -0.5299 -0.848 544.056 426.6215)" class="st1" width="12.417" height="23.223"/>
	
		<rect x="215.117" y="272.891" transform="matrix(-0.848 0.5299 -0.5299 -0.848 560.5916 408.2569)" class="st1" width="13.291" height="23.223"/>
	
		<rect x="265.408" y="255.537" transform="matrix(0.848 -0.5299 0.5299 0.848 -101.9577 192.0784)" class="st1" width="37.083" height="36.574"/>
	<polygon class="st1" points="277.916,299.157 252.327,293.213 249.427,288.572 265.159,278.742 	"/>
	
		<rect x="247.731" y="269.081" transform="matrix(0.5299 0.848 -0.848 0.5299 355.4512 -84.5379)" class="st1" width="12.5" height="18.551"/>
	<polygon class="st1" points="242.803,277.971 239.314,272.388 255.046,262.558 238.663,236.339 270.095,216.698 289.967,248.5 	"/>
	
		<rect x="233.283" y="250.495" transform="matrix(0.5299 0.848 -0.848 0.5299 334.2295 -83.4257)" class="st1" width="18.167" height="18.551"/>
	
		<rect x="218.111" y="232.014" transform="matrix(0.5299 0.848 -0.848 0.5299 313.1288 -82.3199)" class="st1" width="25.417" height="18.551"/>
	
		<rect x="210.124" y="213.499" transform="matrix(0.5299 0.848 -0.848 0.5299 291.9878 -81.2119)" class="st1" width="18.25" height="18.551"/>
	
		<rect x="196.964" y="192.439" transform="matrix(0.5299 0.848 -0.848 0.5299 267.942 -79.9517)" class="st1" width="18.25" height="18.551"/>
	
		<rect x="191.692" y="179.4" transform="matrix(0.5299 0.848 -0.848 0.5299 253.0545 -79.1715)" class="st1" width="12.5" height="18.551"/>
	<polygon class="st1" points="206.547,219.951 203.059,214.368 250.223,184.896 270.095,216.698 238.663,236.339 222.28,210.12 	"/>
	<polygon class="st1" points="186.764,188.29 183.275,182.707 230.44,153.236 250.223,184.896 218.791,204.537 202.496,178.46 	"/>
	<polygon class="st1" points="183.275,182.707 180.184,177.76 195.916,167.93 179.503,141.664 210.936,122.023 230.44,153.236 	"/>
	
		<rect x="178.807" y="158.446" transform="matrix(0.5299 0.848 -0.848 0.5299 229.1296 -77.9177)" class="st1" width="12.083" height="18.551"/>
	<polygon class="st1" points="173.781,167.513 170.16,161.718 173.242,159.792 166.853,149.568 179.503,141.664 189.513,157.683 	
		"/>
	
		<rect x="171.421" y="247.556" transform="matrix(0.5299 0.848 -0.848 0.5299 316.2375 -36.3801)" class="st1" width="39.027" height="39.015"/>
	
		<rect x="152.29" y="215.319" transform="matrix(0.5299 0.848 -0.848 0.5299 279.4292 -34.451)" class="st1" width="37" height="39.015"/>
	
		<rect x="132.365" y="183.764" transform="matrix(0.5299 0.848 -0.848 0.5299 243.4007 -32.5629)" class="st1" width="37.417" height="39.015"/>
	
		<rect x="158.314" y="137.521" transform="matrix(0.5299 0.848 -0.848 0.5299 201.0028 -69.0962)" class="st1" width="9.028" height="18.481"/>
	
		<rect x="152.468" y="129.276" transform="matrix(0.5299 0.848 -0.848 0.5299 191.5889 -68.6029)" class="st0" width="10.417" height="18.481"/>
	
		<rect x="123.428" y="89.062" transform="matrix(0.848 -0.5299 0.5299 0.848 -39.9508 90.216)" class="st1" width="27.815" height="51.417"/>
	
		<rect x="104.813" y="110.459" transform="matrix(0.848 -0.5299 0.5299 0.848 -52.2089 82.1769)" class="st1" width="24.75" height="43.333"/>
	
		<rect x="77.375" y="66.188" transform="matrix(0.848 -0.5299 0.5299 0.848 -32.0205 62.7076)" class="st1" width="31.917" height="42"/>
	
		<rect x="103.112" y="44.638" transform="matrix(0.848 -0.5299 0.5299 0.848 -19.7316 70.7126)" class="st1" width="20.648" height="50.25"/>
	
		<rect x="65.934" y="8.242" transform="matrix(0.848 -0.5299 0.5299 0.848 -4.3112 48.5059)" class="st1" width="32.981" height="47.056"/>
	<polygon class="st1" points="80.908,60.462 64.3,70.839 42.043,35.221 48.533,31.166 45.854,26.879 55.972,20.556 	"/>
	
		<rect x="421.485" y="313.84" transform="matrix(0.5299 0.848 -0.848 0.5299 471.918 -211.2664)" class="st1" width="10.083" height="12.417"/>
	
		<rect x="7.355" y="46.412" transform="matrix(0.5299 0.848 -0.848 0.5299 63.7632 6.2397)" class="st1" width="37.796" height="28.448"/>
	
		<rect x="27.513" y="78.233" transform="matrix(0.5299 0.848 -0.848 0.5299 100.0966 4.3355)" class="st1" width="37.25" height="28.448"/>
	<polygon class="st1" points="68.07,100.715 80.214,120.149 70.01,126.525 77.694,138.822 63.772,147.521 43.945,115.79 	"/>
	
		<rect x="71.487" y="133.604" transform="matrix(-0.5299 -0.848 0.848 -0.5299 -1.8442 294.6332)" class="st1" width="18.5" height="28.448"/>
	
		<rect x="77.39" y="156.33" transform="matrix(-0.5299 -0.848 0.848 -0.5299 -8.1852 327.3709)" class="st2" width="18.5" height="19.249"/>
	
		<rect x="86.991" y="172.383" transform="matrix(-0.5299 -0.848 0.848 -0.5299 -6.4521 360.4394)" class="st2" width="19.361" height="19.249"/>
	<polygon class="st1" points="104.711,165.688 107.992,170.945 103.008,173.987 99.703,168.698 	"/>
	
		<rect x="71.704" y="123.469" transform="matrix(-0.5299 -0.848 0.848 -0.5299 10.983 265.0589)" class="st1" width="14.5" height="12.032"/>
</g>
<g id="murs">
	<line class="st3" x1="396.637" y1="247.29" x2="406.389" y2="241.196"/>
	<line class="st3" x1="355.223" y1="281.029" x2="343.916" y2="288.095"/>
	<polyline class="st3" points="319.703,296.051 322.927,301.21 333.598,294.542 	"/>
	<polyline class="st3" points="322.927,301.21 313.881,306.863 295.393,302.594 293.892,300.192 	"/>
	<polyline class="st3" points="157.383,155.486 128.691,173.415 125.718,168.657 	"/>
	<line class="st3" x1="42.043" y1="35.221" x2="37.909" y2="37.805"/>
	<line class="st4" x1="99.703" y1="168.698" x2="107.505" y2="163.824"/>
	<line class="st5" x1="162.752" y1="129.203" x2="152.599" y2="147.83"/>
	<line class="st5" x1="168.272" y1="138.036" x2="147.079" y2="138.996"/>
	<line class="st3" x1="97.701" y1="148.135" x2="102.341" y2="155.486"/>
	<g>
	</g>
	<g>
	</g>
	<g>
	</g>
	<g>
	</g>
	<g>
	</g>
	<g>
	</g>
</g>
</svg>
