<?xml version="1.0" encoding="utf-8"?>
<!-- Generator: Adobe Illustrator 19.0.1, SVG Export Plug-In . SVG Version: 6.00 Build 0)  -->
<svg version="1.0" id="icones" xmlns="http://www.w3.org/2000/svg" xmlns:xlink="http://www.w3.org/1999/xlink" x="0px" y="0px"
	 width="890px" height="1000px" viewBox="0 0 890 1000" style="enable-background:new 0 0 890 1000;" xml:space="preserve">
<style type="text/css">
	.st0{fill:#1D1D1B;}
	.st1{fill:#FFFFFF;}
</style>
<g>
	<path class="st0" d="M612.642,406.571h-7.594c-1.034,0-1.872-0.838-1.872-1.872v-7.594c0-1.034,0.838-1.872,1.872-1.872h7.594
		c1.034,0,1.872,0.838,1.872,1.872v7.594C614.514,405.732,613.676,406.571,612.642,406.571z"/>
	<polygon class="st1" points="608.845,397.204 608.845,399.669 606.757,399.669 606.757,402.134 604.67,402.134 604.67,404.599 
		608.845,404.599 608.845,402.134 610.932,402.134 610.932,399.669 613.019,399.669 613.019,397.204 	"/>
</g>
<g>
	<path class="st0" d="M361.259,299.132h-7.594c-1.034,0-1.872-0.838-1.872-1.872v-7.594c0-1.034,0.838-1.872,1.872-1.872h7.594
		c1.034,0,1.872,0.838,1.872,1.872v7.594C363.131,298.294,362.293,299.132,361.259,299.132z"/>
	<polygon class="st1" points="357.462,289.766 357.462,292.231 355.375,292.231 355.375,294.696 353.287,294.696 353.287,297.161 
		357.462,297.161 357.462,294.696 359.549,294.696 359.549,292.231 361.636,292.231 361.636,289.766 	"/>
</g>
<g>
	<path class="st0" d="M162.433,400.901h-7.594c-1.034,0-1.872-0.838-1.872-1.872v-7.594c0-1.034,0.838-1.872,1.872-1.872h7.594
		c1.034,0,1.872,0.838,1.872,1.872v7.594C164.305,400.063,163.467,400.901,162.433,400.901z"/>
	<polygon class="st1" points="158.635,391.535 158.635,394 156.548,394 156.548,396.464 154.461,396.464 154.461,398.929 
		158.635,398.929 158.635,396.464 160.722,396.464 160.722,394 162.81,394 162.81,391.535 	"/>
</g>
<g>
	<path class="st0" d="M116.014,313.133h-7.594c-1.034,0-1.872-0.838-1.872-1.872v-7.594c0-1.034,0.838-1.872,1.872-1.872h7.594
		c1.034,0,1.872,0.838,1.872,1.872v7.594C117.887,312.295,117.048,313.133,116.014,313.133z"/>
	<polygon class="st1" points="112.217,303.766 112.217,306.231 110.13,306.231 110.13,308.696 108.043,308.696 108.043,311.161 
		112.217,311.161 112.217,308.696 114.304,308.696 114.304,306.231 116.392,306.231 116.392,303.766 	"/>
</g>
<g>
	<path class="st0" d="M102.096,259.712h-7.594c-1.034,0-1.872-0.838-1.872-1.872v-7.594c0-1.034,0.838-1.872,1.872-1.872h7.594
		c1.034,0,1.872,0.838,1.872,1.872v7.594C103.968,258.874,103.129,259.712,102.096,259.712z"/>
	<polygon class="st1" points="98.298,250.346 98.298,252.811 96.211,252.811 96.211,255.276 94.124,255.276 94.124,257.741 
		98.298,257.741 98.298,255.276 100.385,255.276 100.385,252.811 102.473,252.811 102.473,250.346 	"/>
</g>
<g>
	<path class="st0" d="M681.877,519.381h-7.594c-1.034,0-1.872-0.838-1.872-1.872v-7.594c0-1.034,0.838-1.872,1.872-1.872h7.594
		c1.034,0,1.872,0.838,1.872,1.872v7.594C683.749,518.543,682.911,519.381,681.877,519.381z"/>
	<polygon class="st1" points="678.08,510.015 678.08,512.48 675.993,512.48 675.993,514.945 673.905,514.945 673.905,517.409 
		678.08,517.409 678.08,514.945 680.167,514.945 680.167,512.48 682.254,512.48 682.254,510.015 	"/>
</g>
<g>
	<path class="st0" d="M547.22,602.976h-7.594c-1.034,0-1.872-0.838-1.872-1.872v-7.594c0-1.034,0.838-1.872,1.872-1.872h7.594
		c1.034,0,1.872,0.838,1.872,1.872v7.594C549.092,602.138,548.254,602.976,547.22,602.976z"/>
	<polygon class="st1" points="543.422,593.609 543.422,596.074 541.335,596.074 541.335,598.539 539.248,598.539 539.248,601.004 
		543.422,601.004 543.422,598.539 545.51,598.539 545.51,596.074 547.597,596.074 547.597,593.609 	"/>
</g>
<g>
	<path class="st0" d="M708.221,713.462h-7.594c-1.034,0-1.872-0.838-1.872-1.872v-7.594c0-1.034,0.838-1.872,1.872-1.872h7.594
		c1.034,0,1.872,0.838,1.872,1.872v7.594C710.093,712.624,709.255,713.462,708.221,713.462z"/>
	<polygon class="st1" points="704.424,704.095 704.424,706.56 702.337,706.56 702.337,709.025 700.25,709.025 700.25,711.49 
		704.424,711.49 704.424,709.025 706.511,709.025 706.511,706.56 708.598,706.56 708.598,704.095 	"/>
</g>
<g>
	<path class="st0" d="M705.561,805.122h-7.594c-1.034,0-1.872-0.838-1.872-1.872v-7.594c0-1.034,0.838-1.872,1.872-1.872h7.594
		c1.034,0,1.872,0.838,1.872,1.872v7.594C707.433,804.284,706.595,805.122,705.561,805.122z"/>
	<polygon class="st1" points="701.764,795.755 701.764,798.22 699.677,798.22 699.677,800.685 697.59,800.685 697.59,803.15 
		701.764,803.15 701.764,800.685 703.851,800.685 703.851,798.22 705.938,798.22 705.938,795.755 	"/>
</g>
<g>
	<path class="st0" d="M798.178,936.845h-7.594c-1.034,0-1.872-0.838-1.872-1.872v-7.594c0-1.034,0.838-1.872,1.872-1.872h7.594
		c1.034,0,1.872,0.838,1.872,1.872v7.594C800.05,936.007,799.212,936.845,798.178,936.845z"/>
	<polygon class="st1" points="794.381,927.478 794.381,929.943 792.294,929.943 792.294,932.408 790.207,932.408 790.207,934.873 
		794.381,934.873 794.381,932.408 796.468,932.408 796.468,929.943 798.555,929.943 798.555,927.478 	"/>
</g>
<g>
	<path class="st0" d="M462.451,463.961h-7.594c-1.034,0-1.872-0.838-1.872-1.872v-7.594c0-1.034,0.838-1.872,1.872-1.872h7.594
		c1.034,0,1.872,0.838,1.872,1.872v7.594C464.324,463.122,463.485,463.961,462.451,463.961z"/>
	<polygon class="st1" points="458.654,454.594 458.654,457.059 456.567,457.059 456.567,459.524 454.48,459.524 454.48,461.989 
		458.654,461.989 458.654,459.524 460.741,459.524 460.741,457.059 462.828,457.059 462.828,454.594 	"/>
</g>
<g>
	<path class="st0" d="M331.462,545.757h-7.594c-1.034,0-1.872-0.838-1.872-1.872v-7.594c0-1.034,0.838-1.872,1.872-1.872h7.594
		c1.034,0,1.872,0.838,1.872,1.872v7.594C333.334,544.919,332.496,545.757,331.462,545.757z"/>
	<polygon class="st1" points="327.665,536.391 327.665,538.855 325.578,538.855 325.578,541.32 323.491,541.32 323.491,543.785 
		327.665,543.785 327.665,541.32 329.752,541.32 329.752,538.855 331.839,538.855 331.839,536.391 	"/>
</g>
<g>
	<path class="st0" d="M294.262,519.381h-7.594c-1.034,0-1.872-0.838-1.872-1.872v-7.594c0-1.034,0.838-1.872,1.872-1.872h7.594
		c1.034,0,1.872,0.838,1.872,1.872v7.594C296.134,518.543,295.296,519.381,294.262,519.381z"/>
	<polygon class="st1" points="290.465,510.015 290.465,512.48 288.377,512.48 288.377,514.945 286.29,514.945 286.29,517.409 
		290.465,517.409 290.465,514.945 292.552,514.945 292.552,512.48 294.639,512.48 294.639,510.015 	"/>
</g>
<g>
	<path class="st0" d="M461.1,657.9h-7.594c-1.034,0-1.872-0.838-1.872-1.872v-7.594c0-1.034,0.838-1.872,1.872-1.872h7.594
		c1.034,0,1.872,0.838,1.872,1.872v7.594C462.972,657.062,462.133,657.9,461.1,657.9z"/>
	<polygon class="st1" points="457.302,648.533 457.302,650.998 455.215,650.998 455.215,653.463 453.128,653.463 453.128,655.928 
		457.302,655.928 457.302,653.463 459.389,653.463 459.389,650.998 461.477,650.998 461.477,648.533 	"/>
</g>
<g>
	<path class="st0" d="M417.179,766.835h-7.594c-1.034,0-1.872-0.838-1.872-1.872v-7.594c0-1.034,0.838-1.872,1.872-1.872h7.594
		c1.034,0,1.872,0.838,1.872,1.872v7.594C419.051,765.997,418.213,766.835,417.179,766.835z"/>
	<polygon class="st1" points="413.382,757.468 413.382,759.933 411.295,759.933 411.295,762.398 409.208,762.398 409.208,764.863 
		413.382,764.863 413.382,762.398 415.469,762.398 415.469,759.933 417.556,759.933 417.556,757.468 	"/>
</g>
<g>
	<path class="st0" d="M289.626,344.066h-7.594c-1.034,0-1.872-0.838-1.872-1.872V334.6c0-1.034,0.838-1.872,1.872-1.872h7.594
		c1.034,0,1.872,0.838,1.872,1.872v7.594C291.498,343.228,290.66,344.066,289.626,344.066z"/>
	<g>
		<circle class="st1" cx="285.829" cy="334.491" r="0.779"/>
		<path class="st1" d="M287.94,338.317l-0.668-2.199c-0.13-0.389-0.518-0.695-1.084-0.695h-0.718c-0.567,0-0.955,0.306-1.085,0.695
			l-0.668,2.199c-0.138,0.473,0.408,0.641,0.551,0.199l0.705-2.011h0.081c0,0-0.926,3.6-0.965,3.735
			c-0.02,0.067,0.008,0.116,0.08,0.116c0.044,0,0.802,0,0.802,0l0.001,2.364c0,0.481,0.72,0.481,0.72,0v-2.382h0.276l0,2.382
			c0,0.481,0.72,0.481,0.72,0l0-2.364c0,0,0.757,0,0.801,0c0.071,0,0.1-0.049,0.08-0.116c-0.039-0.135-0.966-3.735-0.966-3.735
			h0.082l0.705,2.011C287.533,338.958,288.079,338.79,287.94,338.317z"/>
	</g>
</g>
<g>
	<path class="st0" d="M305.686,335.289h-7.594c-1.034,0-1.872-0.838-1.872-1.872v-7.594c0-1.034,0.838-1.872,1.872-1.872h7.594
		c1.034,0,1.872,0.838,1.872,1.872v7.594C307.558,334.451,306.72,335.289,305.686,335.289z"/>
	<g>
		<circle class="st1" cx="301.889" cy="325.671" r="0.787"/>
		<path class="st1" d="M302.736,326.613l-0.847,0.001l-0.846-0.001c-0.759,0-1.006,0.196-1.006,1.022v2.417
			c0,0.469,0.634,0.469,0.634,0l0.054-2.21h0.163v6.051c0,0.628,0.862,0.61,0.862,0l0.055-3.513h0.171l0.054,3.513
			c0,0.61,0.862,0.628,0.862,0v-6.051h0.163l0.055,2.21c0,0.469,0.633,0.469,0.633,0v-2.417
			C303.74,326.808,303.494,326.613,302.736,326.613z"/>
	</g>
</g>
<g>
	<path class="st0" d="M479.347,647.088h-7.594c-1.034,0-1.872-0.838-1.872-1.872v-7.594c0-1.034,0.838-1.872,1.872-1.872h7.594
		c1.034,0,1.872,0.838,1.872,1.872v7.594C481.219,646.25,480.38,647.088,479.347,647.088z"/>
	<g>
		<circle class="st1" cx="475.55" cy="637.513" r="0.779"/>
		<path class="st1" d="M477.661,641.339l-0.668-2.199c-0.13-0.389-0.518-0.695-1.084-0.695h-0.718c-0.567,0-0.955,0.306-1.085,0.695
			l-0.668,2.199c-0.138,0.473,0.408,0.641,0.551,0.199l0.705-2.011h0.081c0,0-0.926,3.6-0.965,3.735
			c-0.02,0.067,0.008,0.116,0.08,0.116c0.044,0,0.802,0,0.802,0l0.001,2.364c0,0.481,0.72,0.481,0.72,0v-2.382h0.276l0,2.382
			c0,0.481,0.72,0.481,0.72,0l0-2.364c0,0,0.757,0,0.801,0c0.071,0,0.1-0.049,0.08-0.116c-0.039-0.135-0.966-3.735-0.966-3.735
			h0.082l0.705,2.011C477.253,641.979,477.799,641.812,477.661,641.339z"/>
	</g>
</g>
<g>
	<path class="st0" d="M494.669,636.192h-7.594c-1.034,0-1.872-0.838-1.872-1.872v-7.594c0-1.034,0.838-1.872,1.872-1.872h7.594
		c1.034,0,1.872,0.838,1.872,1.872v7.594C496.541,635.354,495.703,636.192,494.669,636.192z"/>
	<g>
		<circle class="st1" cx="490.872" cy="626.573" r="0.787"/>
		<path class="st1" d="M491.719,627.515l-0.847,0.001l-0.846-0.001c-0.759,0-1.006,0.196-1.006,1.022v2.417
			c0,0.469,0.634,0.469,0.634,0l0.054-2.21h0.163v6.051c0,0.628,0.862,0.61,0.862,0l0.055-3.513h0.171l0.054,3.513
			c0,0.61,0.862,0.628,0.862,0v-6.051h0.163l0.055,2.21c0,0.469,0.633,0.469,0.633,0v-2.417
			C492.723,627.71,492.477,627.515,491.719,627.515z"/>
	</g>
</g>
<g>
	<path class="st0" d="M770.61,894.656h-7.594c-1.034,0-1.872-0.838-1.872-1.872v-7.594c0-1.034,0.838-1.872,1.872-1.872h7.594
		c1.034,0,1.872,0.838,1.872,1.872v7.594C772.482,893.818,771.644,894.656,770.61,894.656z"/>
	<g>
		<circle class="st1" cx="766.813" cy="885.081" r="0.779"/>
		<path class="st1" d="M768.924,888.906l-0.668-2.199c-0.13-0.389-0.518-0.695-1.084-0.695h-0.718c-0.567,0-0.955,0.306-1.085,0.695
			l-0.668,2.199c-0.138,0.473,0.408,0.641,0.551,0.199l0.705-2.011h0.081c0,0-0.926,3.6-0.965,3.735
			c-0.02,0.067,0.008,0.116,0.08,0.116c0.044,0,0.801,0,0.801,0l0.001,2.364c0,0.481,0.72,0.481,0.72,0v-2.382h0.276l0,2.382
			c0,0.481,0.72,0.481,0.72,0l0-2.364c0,0,0.757,0,0.801,0c0.071,0,0.1-0.049,0.08-0.116c-0.039-0.135-0.966-3.735-0.966-3.735
			h0.082l0.705,2.011C768.516,889.547,769.063,889.379,768.924,888.906z"/>
	</g>
</g>
<g>
	<path class="st0" d="M756.704,873.224h-7.594c-1.034,0-1.872-0.838-1.872-1.872v-7.594c0-1.034,0.838-1.872,1.872-1.872h7.594
		c1.034,0,1.872,0.838,1.872,1.872v7.594C758.576,872.386,757.738,873.224,756.704,873.224z"/>
	<g>
		<circle class="st1" cx="752.907" cy="863.605" r="0.787"/>
		<path class="st1" d="M753.754,864.548l-0.847,0.001l-0.846-0.001c-0.759,0-1.006,0.196-1.006,1.022v2.417
			c0,0.469,0.634,0.469,0.634,0l0.054-2.21h0.163v6.051c0,0.628,0.862,0.61,0.862,0l0.055-3.513h0.171l0.054,3.513
			c0,0.61,0.862,0.628,0.862,0v-6.051h0.163l0.055,2.21c0,0.469,0.633,0.469,0.633,0v-2.417
			C754.758,864.743,754.512,864.548,753.754,864.548z"/>
	</g>
</g>
<g>
	<path class="st0" d="M250.322,547.145h-7.594c-1.034,0-1.872-0.838-1.872-1.872v-7.594c0-1.034,0.838-1.872,1.872-1.872h7.594
		c1.034,0,1.872,0.838,1.872,1.872v7.594C252.194,546.307,251.356,547.145,250.322,547.145z"/>
	<g>
		<circle class="st1" cx="249.627" cy="537.57" r="0.778"/>
		<path class="st1" d="M248.79,538.501l0.837,0.001l0.837-0.001c0.75,0,0.995,0.193,0.995,1.01v2.39c0,0.464-0.626,0.464-0.626,0
			l-0.054-2.186h-0.161v5.985c0,0.621-0.852,0.603-0.852,0l-0.054-3.474h-0.169l-0.054,3.474c0,0.603-0.852,0.621-0.852,0v-5.985
			h-0.16l-0.054,2.186c0,0.464-0.626,0.464-0.626,0v-2.39C247.796,538.695,248.041,538.501,248.79,538.501z"/>
		<circle class="st1" cx="243.724" cy="537.57" r="0.778"/>
		<path class="st1" d="M241.613,541.396l0.668-2.199c0.13-0.389,0.518-0.695,1.084-0.695h0.718c0.567,0,0.955,0.306,1.085,0.695
			l0.668,2.199c0.139,0.473-0.408,0.64-0.551,0.199l-0.706-2.01h-0.081c0,0,0.926,3.6,0.966,3.734
			c0.019,0.067-0.008,0.116-0.08,0.116c-0.044,0-0.802,0-0.802,0l-0.001,2.364c0,0.481-0.72,0.481-0.72,0v-2.383h-0.276l0,2.383
			c0,0.481-0.72,0.481-0.72,0l-0.001-2.364c0,0-0.758,0-0.802,0c-0.071,0-0.1-0.048-0.08-0.116c0.039-0.135,0.966-3.734,0.966-3.734
			h-0.082l-0.705,2.01C242.021,542.036,241.474,541.868,241.613,541.396z"/>
		<path class="st1" d="M246.397,545.784c0,0.208,0.168,0.376,0.376,0.376s0.376-0.168,0.376-0.376v-8.616
			c0-0.208-0.168-0.376-0.376-0.376s-0.376,0.168-0.376,0.376V545.784z"/>
	</g>
</g>
<g>
	<path class="st0" d="M273.167,155.542h-7.594c-1.034,0-1.872-0.838-1.872-1.872v-7.594c0-1.034,0.838-1.872,1.872-1.872h7.594
		c1.034,0,1.872,0.838,1.872,1.872v7.594C275.039,154.703,274.2,155.542,273.167,155.542z"/>
	<polygon class="st1" points="269.369,146.175 269.369,148.64 267.282,148.64 267.282,151.105 265.195,151.105 265.195,153.57 
		269.369,153.57 269.369,151.105 271.456,151.105 271.456,148.64 273.544,148.64 273.544,146.175 	"/>
</g>
<g>
	<g>
		<path class="st0" d="M257.941,535.245h-7.594c-1.034,0-1.872-0.838-1.872-1.872v-7.594c0-1.034,0.838-1.872,1.872-1.872h7.594
			c1.034,0,1.872,0.838,1.872,1.872v7.594C259.813,534.406,258.975,535.245,257.941,535.245z"/>
		<g>
			<path class="st1" d="M252.675,534.167h-2.058c-0.517,0-0.936-0.419-0.936-0.936v-7.311c0-0.517,0.419-0.936,0.936-0.936h2.058
				c0.517,0,0.936,0.419,0.936,0.936v7.311C253.611,533.748,253.192,534.167,252.675,534.167z"/>
			<path class="st1" d="M257.671,534.167h-2.058c-0.517,0-0.936-0.419-0.936-0.936v-7.311c0-0.517,0.419-0.936,0.936-0.936h2.058
				c0.517,0,0.936,0.419,0.936,0.936v7.311C258.607,533.748,258.188,534.167,257.671,534.167z"/>
		</g>
	</g>
	<path class="st0" d="M253.129,528.913l-1.444-1.444c-0.061-0.061-0.159-0.061-0.22,0l-1.444,1.444
		c-0.098,0.098-0.029,0.265,0.11,0.265h0.849v2.19c0,0.199,0.161,0.36,0.36,0.36h0.471c0.199,0,0.36-0.161,0.36-0.36v-2.19h0.849
		C253.158,529.178,253.227,529.011,253.129,528.913z"/>
	<path class="st0" d="M255.088,530.238l1.444,1.444c0.061,0.061,0.159,0.061,0.22,0l1.444-1.444c0.098-0.098,0.029-0.265-0.11-0.265
		h-0.849v-2.19c0-0.199-0.161-0.36-0.36-0.36h-0.471c-0.199,0-0.36,0.161-0.36,0.36v2.19h-0.849
		C255.059,529.973,254.99,530.14,255.088,530.238z"/>
</g>
<g>
	<g>
		<path class="st0" d="M388.341,607.052h-7.594c-1.034,0-1.872-0.838-1.872-1.872v-7.594c0-1.034,0.838-1.872,1.872-1.872h7.594
			c1.034,0,1.872,0.838,1.872,1.872v7.594C390.213,606.213,389.375,607.052,388.341,607.052z"/>
		<g>
			<path class="st1" d="M383.075,605.974h-2.058c-0.517,0-0.936-0.419-0.936-0.936v-7.311c0-0.517,0.419-0.936,0.936-0.936h2.058
				c0.517,0,0.936,0.419,0.936,0.936v7.311C384.011,605.555,383.592,605.974,383.075,605.974z"/>
			<path class="st1" d="M388.071,605.974h-2.058c-0.517,0-0.936-0.419-0.936-0.936v-7.311c0-0.517,0.419-0.936,0.936-0.936h2.058
				c0.517,0,0.936,0.419,0.936,0.936v7.311C389.007,605.555,388.588,605.974,388.071,605.974z"/>
		</g>
	</g>
	<path class="st0" d="M383.529,600.72l-1.444-1.444c-0.061-0.061-0.159-0.061-0.22,0l-1.444,1.444
		c-0.098,0.098-0.029,0.265,0.11,0.265h0.849v2.19c0,0.199,0.161,0.36,0.36,0.36h0.471c0.199,0,0.36-0.161,0.36-0.36v-2.19h0.849
		C383.558,600.985,383.627,600.818,383.529,600.72z"/>
	<path class="st0" d="M385.488,602.045l1.444,1.444c0.061,0.061,0.159,0.061,0.22,0l1.444-1.444c0.098-0.098,0.029-0.265-0.11-0.265
		h-0.849v-2.19c0-0.199-0.161-0.36-0.36-0.36h-0.471c-0.199,0-0.36,0.161-0.36,0.36v2.19h-0.849
		C385.459,601.78,385.39,601.947,385.488,602.045z"/>
</g>
<g>
	<g>
		<path class="st0" d="M723.83,736.201h-7.594c-1.034,0-1.872-0.838-1.872-1.872v-7.594c0-1.034,0.838-1.872,1.872-1.872h7.594
			c1.034,0,1.872,0.838,1.872,1.872v7.594C725.702,735.363,724.864,736.201,723.83,736.201z"/>
		<g>
			<path class="st1" d="M718.563,735.123h-2.058c-0.517,0-0.936-0.419-0.936-0.936v-7.311c0-0.517,0.419-0.936,0.936-0.936h2.058
				c0.517,0,0.936,0.419,0.936,0.936v7.311C719.5,734.704,719.08,735.123,718.563,735.123z"/>
			<path class="st1" d="M723.56,735.123h-2.058c-0.517,0-0.936-0.419-0.936-0.936v-7.311c0-0.517,0.419-0.936,0.936-0.936h2.058
				c0.517,0,0.936,0.419,0.936,0.936v7.311C724.496,734.704,724.077,735.123,723.56,735.123z"/>
		</g>
	</g>
	<path class="st0" d="M719.018,729.869l-1.444-1.444c-0.061-0.061-0.159-0.061-0.22,0l-1.444,1.444
		c-0.098,0.098-0.029,0.265,0.11,0.265h0.849v2.19c0,0.199,0.161,0.36,0.36,0.36h0.471c0.199,0,0.36-0.161,0.36-0.36v-2.19h0.849
		C719.047,730.134,719.116,729.967,719.018,729.869z"/>
	<path class="st0" d="M720.976,731.194l1.444,1.444c0.061,0.061,0.159,0.061,0.22,0l1.444-1.444c0.098-0.098,0.029-0.265-0.11-0.265
		h-0.849v-2.19c0-0.199-0.161-0.36-0.36-0.36h-0.471c-0.199,0-0.36,0.161-0.36,0.36v2.19h-0.849
		C720.948,730.929,720.879,731.096,720.976,731.194z"/>
</g>
<g>
	<g>
		<path class="st0" d="M610.883,368.306h-7.594c-1.034,0-1.872-0.838-1.872-1.872v-7.594c0-1.034,0.838-1.872,1.872-1.872h7.594
			c1.034,0,1.872,0.838,1.872,1.872v7.594C612.756,367.468,611.917,368.306,610.883,368.306z"/>
		<g>
			<path class="st1" d="M605.617,367.228h-2.058c-0.517,0-0.936-0.419-0.936-0.936v-7.311c0-0.517,0.419-0.936,0.936-0.936h2.058
				c0.517,0,0.936,0.419,0.936,0.936v7.311C606.553,366.809,606.134,367.228,605.617,367.228z"/>
			<path class="st1" d="M610.614,367.228h-2.058c-0.517,0-0.936-0.419-0.936-0.936v-7.311c0-0.517,0.419-0.936,0.936-0.936h2.058
				c0.517,0,0.936,0.419,0.936,0.936v7.311C611.55,366.809,611.13,367.228,610.614,367.228z"/>
		</g>
	</g>
	<path class="st0" d="M606.072,361.974l-1.444-1.444c-0.061-0.061-0.159-0.061-0.22,0l-1.444,1.444
		c-0.098,0.098-0.029,0.265,0.11,0.265h0.849v2.19c0,0.199,0.161,0.36,0.36,0.36h0.471c0.199,0,0.36-0.161,0.36-0.36v-2.19h0.849
		C606.101,362.239,606.17,362.072,606.072,361.974z"/>
	<path class="st0" d="M608.03,363.299l1.444,1.444c0.061,0.061,0.159,0.061,0.22,0l1.444-1.444c0.098-0.098,0.029-0.265-0.11-0.265
		h-0.849v-2.19c0-0.199-0.161-0.36-0.36-0.36h-0.471c-0.199,0-0.36,0.161-0.36,0.36v2.19h-0.849
		C608.002,363.034,607.932,363.201,608.03,363.299z"/>
</g>
<g>
	<circle class="st0" cx="431.239" cy="518.733" r="4.535"/>
	<path class="st1" d="M429.204,517.313l-0.675,2.923c-0.028,0.123,0.048,0.245,0.171,0.274l2.923,0.675
		c0.198,0.046,0.353-0.171,0.245-0.344l-0.661-1.057l2.728-1.705c0.248-0.155,0.323-0.481,0.168-0.729l-0.367-0.587
		c-0.155-0.248-0.481-0.323-0.729-0.168l-2.728,1.705l-0.661-1.057C429.512,517.071,429.25,517.115,429.204,517.313z"/>
</g>
<g>
	<circle class="st0" cx="365.433" cy="555.479" r="4.535"/>
	<path class="st1" d="M367.468,556.899l0.675-2.923c0.028-0.123-0.048-0.245-0.171-0.274l-2.923-0.675
		c-0.198-0.046-0.353,0.171-0.245,0.343l0.661,1.057l-2.728,1.704c-0.248,0.155-0.323,0.481-0.168,0.729l0.367,0.587
		c0.155,0.248,0.481,0.323,0.729,0.168l2.728-1.704l0.661,1.057C367.16,557.141,367.422,557.097,367.468,556.899z"/>
</g>
<g>
	<circle class="st0" cx="390.378" cy="253.96" r="4.535"/>
	<path class="st1" d="M391.798,251.924l-2.923-0.675c-0.123-0.028-0.245,0.048-0.274,0.171l-0.675,2.923
		c-0.046,0.198,0.171,0.353,0.343,0.245l1.057-0.661l1.704,2.728c0.155,0.248,0.481,0.323,0.729,0.168l0.587-0.367
		c0.248-0.155,0.323-0.481,0.168-0.729l-1.704-2.728l1.057-0.661C392.04,252.233,391.996,251.97,391.798,251.924z"/>
</g>
</svg>
