<?xml version="1.0" encoding="utf-8"?>
<!-- Generator: Adobe Illustrator 19.0.1, SVG Export Plug-In . SVG Version: 6.00 Build 0)  -->
<svg version="1.1" xmlns="http://www.w3.org/2000/svg" xmlns:xlink="http://www.w3.org/1999/xlink" x="0px" y="0px"
	 width="710.026px" height="754.797px" viewBox="0 0 710.026 754.797" style="enable-background:new 0 0 710.026 754.797;"
	 xml:space="preserve">
<style type="text/css">
	.st0{display:none;}
	.st1{fill:#FFFFFF;stroke:#383938;stroke-width:0.5;stroke-miterlimit:10;}
	.st2{fill:#ECF0F2;stroke:#383938;stroke-width:0.5;stroke-miterlimit:10;}
	.st3{fill:#C6E4E2;stroke:#383938;stroke-width:0.5;stroke-miterlimit:10;}
	.st4{fill:#62A2A1;stroke:#383938;stroke-width:0.5;stroke-miterlimit:10;}
	.st5{fill:#A3CCCB;stroke:#383938;stroke-width:0.5;stroke-miterlimit:10;}
	.st6{fill:#D84742;stroke:#383938;stroke-width:0.5;stroke-miterlimit:10;}
	.st7{fill:none;stroke:#383938;stroke-width:0.5;stroke-miterlimit:10;}
	.st8{fill:#FFFFFF;stroke:#A9A8A8;stroke-width:0.5;stroke-miterlimit:10;stroke-dasharray:2;}
</style>
<g id="Calque_1" class="st0">
</g>
<g id="Calque_2">
	<polygon class="st1" points="606.682,469.925 710.026,689.194 662.53,712.115 672.191,727.576 628.628,754.797 540.924,614.441 
		556.693,604.587 547.786,590.332 555.494,585.515 520.823,509.642 	"/>
	<path class="st1" d="M0,168.003l17.777,28.449l91.912,147.297l39.655,63.462l21.281-13.298l29.469,47.161l-21.188,13.239
		c0,0,32.44,52.848,40.548,64.891c33.206,49.318,90.86,47.928,122.82,28.355c6.046-3.703,143.652-89.763,143.652-89.763
		l-38.557-61.704l-9.647,6.028l-7.154-11.449l3.675-2.296l-13.248-21.201l-30.671,19.165l-58.291-93.285l31.236-19.519
		l-80.636-129.045l-96.536,60.322l40.186,64.31l-37.879,23.67L99.289,150.18l-38.021,23.758l-9.892-15.83l-19.929,12.453
		l-9.98-15.972L0,168.003z"/>
	<polygon class="st2" points="671.11,707.974 656.41,676.61 695.543,658.465 710.026,689.194 	"/>
	<polygon class="st2" points="656.41,676.61 642.58,646.929 681.74,629.18 695.543,658.465 	"/>
	<polygon class="st2" points="642.58,646.929 628.979,617.3 667.639,599.26 681.74,629.18 	"/>
	<polygon class="st2" points="667.639,599.26 653.766,569.826 614.778,587.654 628.979,617.3 	"/>
	<polygon class="st2" points="614.778,587.654 600.983,558.344 639.743,540.074 653.766,569.826 	"/>
	<polygon class="st2" points="600.983,558.344 587.701,528.91 625.986,510.885 639.743,540.074 	"/>
	<polygon class="st2" points="587.701,528.91 584.501,522.577 590.498,519.694 586.854,512.145 589.721,510.868 584.771,501.262 
		598.869,495.203 609.143,498.414 618.133,494.222 625.986,510.885 	"/>
	<polygon class="st2" points="584.771,501.262 576.377,483.944 606.682,469.925 618.133,494.222 609.143,498.414 598.869,495.203 	
		"/>
	<polygon class="st2" points="656.749,737.225 638.157,707.472 645.366,702.967 641.127,696.183 605.797,718.259 628.628,754.797 	
		"/>
	<path class="st2" d="M641.127,696.183"/>
	<path class="st2" d="M637.417,690.247"/>
	<polygon class="st2" points="630.633,694.486 612.615,665.652 584.07,683.489 605.797,718.259 641.127,696.183 637.417,690.247 	
		"/>
	<polygon class="st2" points="612.615,665.652 595.128,637.667 601.912,633.427 597.938,627.067 562.609,649.143 584.07,683.489 	
		"/>
	
		<rect x="598.615" y="631.376" transform="matrix(0.5299 0.848 -0.848 0.5299 827.7646 -213.5746)" class="st2" width="15.833" height="17"/>
	
		<rect x="605.556" y="647.418" transform="matrix(0.5299 0.848 -0.848 0.5299 846.0814 -214.5345)" class="st3" width="22" height="17"/>
	
		<rect x="584.934" y="606.447" transform="matrix(0.5299 0.848 -0.848 0.5299 799.3005 -212.0829)" class="st2" width="12.041" height="17"/>
	
		<rect x="571.76" y="592.47" transform="matrix(0.5299 0.848 -0.848 0.5299 783.3425 -211.2465)" class="st2" width="20.92" height="17"/>
	
		<rect x="615.53" y="669.114" transform="matrix(0.5299 0.848 -0.848 0.5299 870.8535 -215.8328)" class="st3" width="29.167" height="17"/>
	<polygon class="st2" points="597.938,627.067 593.72,620.317 586.936,624.557 569.469,596.604 540.924,614.441 562.609,649.143 	
		"/>
	<polygon class="st2" points="553.563,581.288 574.217,572.122 565.12,557.563 546.527,565.89 	"/>
	<polygon class="st2" points="565.12,557.563 556.2,543.288 539.679,550.904 546.527,565.89 	"/>
	<polygon class="st2" points="556.2,543.288 547.544,529.436 532.957,536.194 539.679,550.904 	"/>
	<polygon class="st2" points="547.544,529.436 539.044,515.832 526.269,521.56 532.957,536.194 	"/>
	<polygon class="st2" points="539.044,515.832 531.957,504.491 520.823,509.642 526.269,521.56 	"/>
	<polygon class="st2" points="584.501,522.577 580.372,524.572 574.861,513.276 585.044,508.461 590.498,519.694 	"/>
	<polygon class="st2" points="586.854,512.145 589.721,510.868 584.034,499.742 554.429,512.777 558.536,519.35 565.899,515.682 
		566.645,517.231 585.044,508.461 	"/>
	<polygon class="st2" points="447.37,396.092 420.621,412.807 452.946,464.538 449.695,466.569 455.933,476.553 485.933,457.807 	
		"/>
	<polygon class="st2" points="420.621,412.807 364.084,448.135 380.776,474.849 388.7,476.678 440.36,444.397 	"/>
	<polygon class="st2" points="440.36,444.397 452.946,464.538 449.695,466.569 455.933,476.553 402.647,509.849 387.665,485.873 
		389.044,476.757 	"/>
	<polygon class="st2" points="387.665,485.873 381.305,489.848 379.715,487.303 348.055,507.087 364.627,533.607 402.647,509.849 	
		"/>
	
		<rect x="342.182" y="521.012" transform="matrix(0.848 -0.5299 0.5299 0.848 -227.7108 266.9333)" class="st2" width="18.833" height="19.031"/>
	
		<rect x="339.132" y="509.646" transform="matrix(0.848 -0.5299 0.5299 0.848 -220.7823 261.5728)" class="st2" width="13.167" height="12.241"/>
	<polygon class="st2" points="336.889,514.064 326.147,520.777 332.634,531.157 338.57,527.448 343.375,524.445 	"/>
	<polygon class="st2" points="326.147,520.777 313.144,528.902 296.696,531.515 297.366,544.854 312.422,543.787 332.634,531.157 	
		"/>
	<path class="st2" d="M326.839,534.779l9.907,15.854c0,0,4.838-2.637,7.385-4.222l4.523-2.826l-10.083-16.137L326.839,534.779z"/>
	<path class="st2" d="M336.745,550.633c0,0-12.207,6.018-21.718,7.532l-2.605-14.378l14.417-9.009L336.745,550.633z"/>
	<path class="st2" d="M315.027,558.165c0,0-11.056,1.996-16.654,2.02l-1.007-15.331l15.056-1.066L315.027,558.165z"/>
	<path class="st2" d="M296.696,531.515l-8.957-2.068l-3.934,30.103c0,0,8.129,1.062,14.568,0.634L296.696,531.515z"/>
	<path class="st2" d="M268.584,556.359l9.827-28.944l-9.46-2.245l-14.91-9.55l-6.607-8.057l-22.708,18.804
		C224.727,526.367,241.208,548.413,268.584,556.359z"/>
	<path class="st2" d="M224.727,526.367l22.708-18.804l-5.661-7.959L220.4,465.4l-25.046,15.65l23.914,38.271
		C219.268,519.321,223.371,525.245,224.727,526.367z"/>
	<polygon class="st2" points="220.4,465.4 224.357,462.927 207.723,436.307 178.907,454.314 195.54,480.933 	"/>
	
		<rect x="210.487" y="431.322" transform="matrix(-0.5299 -0.848 0.848 -0.5299 -29.883 869.9952)" class="st2" width="31.389" height="23.917"/>
	
		<rect x="225.383" y="428.366" transform="matrix(-0.5299 -0.848 0.848 -0.5299 -3.3073 861.8149)" class="st2" width="23.639" height="6.917"/>
	
		<rect x="353.091" y="454.807" transform="matrix(0.848 -0.5299 0.5299 0.848 -194.6246 262.6271)" class="st2" width="15.083" height="31.75"/>
	<polygon class="st2" points="345.824,461.216 318.475,478.305 301.48,474.382 291.525,517.501 299.85,519.423 313.392,518.921 
		362.649,488.141 	"/>
	<polygon class="st2" points="339.111,465.411 314.365,459.698 310.494,476.463 318.475,478.305 	"/>
	<polygon class="st2" points="281.133,515.102 273.687,513.564 268.229,510.292 270.691,499.628 284.053,502.713 	"/>
	<polygon class="st2" points="284.053,502.713 286.659,491.428 273.494,488.008 270.762,499.644 	"/>
	<polygon class="st2" points="286.659,491.428 290.84,473.316 269.654,468.425 266.074,486.188 	"/>
	<polygon class="st2" points="265.854,486.326 252.957,494.385 261.908,506.036 268.229,510.292 273.494,488.008 	"/>
	<polygon class="st2" points="266.962,481.106 258.179,478.839 247.437,485.551 252.957,494.385 265.854,486.326 	"/>
	<polygon class="st2" points="282.113,471.302 286.381,452.814 273.794,449.968 269.654,468.425 	"/>
	<polygon class="st2" points="247.437,485.551 235.778,466.894 243.552,462.036 249.236,463.349 257.681,458.071 261.148,463.619 
		258.179,478.839 	"/>
	<polygon class="st2" points="259.715,470.966 268.662,473.096 266.962,481.106 258.179,478.839 	"/>
	
		<rect x="399.892" y="395.37" transform="matrix(-0.848 0.5299 -0.5299 -0.848 971.5076 518.0816)" class="st2" width="23.167" height="5.917"/>
	
		<rect x="385.906" y="401.523" transform="matrix(0.848 -0.5299 0.5299 0.848 -155.6992 270.4759)" class="st2" width="15.75" height="10.417"/>
	
		<rect x="380.386" y="392.69" transform="matrix(0.848 -0.5299 0.5299 0.848 -151.8567 266.2084)" class="st2" width="15.75" height="10.417"/>
	
		<rect x="375.087" y="384.626" transform="matrix(0.848 -0.5299 0.5299 0.848 -148.168 262.1116)" class="st2" width="15.75" height="9.583"/>
	<polygon class="st2" points="387.101,381.181 373.744,389.527 370.016,387.335 365.468,380.057 380.521,370.651 	"/>
	
		<rect x="363.943" y="361.461" transform="matrix(0.5299 0.848 -0.848 0.5299 487.9267 -139.5707)" class="st2" width="11.833" height="17.75"/>
	
		<rect x="354.664" y="349.759" transform="matrix(0.5299 0.848 -0.848 0.5299 473.0717 -141.26)" class="st2" width="18.583" height="12.667"/>
	
		<rect x="365.137" y="411.1" transform="matrix(0.848 -0.5299 0.5299 0.848 -164.167 260.3478)" class="st2" width="13.5" height="10.667"/>
	
		<rect x="361.172" y="400.787" transform="matrix(0.5299 0.848 -0.848 0.5299 517.8151 -119.0885)" class="st2" width="10.313" height="13.5"/>
	
		<rect x="355.548" y="391.954" transform="matrix(0.5299 0.848 -0.848 0.5299 507.7288 -118.5599)" class="st2" width="10.521" height="13.5"/>
	
		<rect x="344.97" y="410.441" transform="matrix(0.848 -0.5299 0.5299 0.848 -168.6464 251.7632)" class="st3" width="19.417" height="19.021"/>
	
		<rect x="329.505" y="420.443" transform="matrix(0.848 -0.5299 0.5299 0.848 -176.379 244.8007)" class="st3" width="18.333" height="19.021"/>
	
		<rect x="342.78" y="398.376" transform="matrix(-0.5299 -0.848 0.848 -0.5299 191.9224 914.6366)" class="st2" width="13.354" height="11.5"/>
	
		<rect x="330.836" y="403.256" transform="matrix(-0.5299 -0.848 0.848 -0.5299 167.3211 915.9259)" class="st2" width="13.354" height="16.667"/>
	
		<rect x="316.702" y="412.088" transform="matrix(-0.5299 -0.848 0.848 -0.5299 138.207 917.4517)" class="st2" width="13.354" height="16.667"/>
	
		<rect x="346.011" y="376.309" transform="matrix(-0.5299 -0.848 0.848 -0.5299 212.1988 883.7413)" class="st2" width="10.042" height="13.5"/>
	
		<rect x="340.69" y="367.793" transform="matrix(-0.5299 -0.848 0.848 -0.5299 211.2795 866.2001)" class="st2" width="10.042" height="13.5"/>
	
		<rect x="335.369" y="359.277" transform="matrix(-0.5299 -0.848 0.848 -0.5299 210.3602 848.6589)" class="st2" width="10.042" height="13.5"/>
	
		<rect x="323.814" y="366.497" transform="matrix(-0.5299 -0.848 0.848 -0.5299 186.5594 849.9063)" class="st2" width="10.042" height="13.5"/>
	
		<rect x="326.775" y="379.271" transform="matrix(-0.5299 -0.848 0.848 -0.5299 187.9384 876.2181)" class="st2" width="20.083" height="13.5"/>
	
		<rect x="321.941" y="390.091" transform="matrix(-0.5299 -0.848 0.848 -0.5299 166.0592 884.1888)" class="st2" width="12.292" height="11.958"/>
	
		<rect x="306.941" y="393.714" transform="matrix(-0.5299 -0.848 0.848 -0.5299 144.9145 879.7136)" class="st2" width="18.667" height="11.958"/>
	
		<rect x="294.193" y="372.738" transform="matrix(-0.5299 -0.848 0.848 -0.5299 146.0558 841.957)" class="st2" width="24.375" height="15.521"/>
	
		<rect x="289.786" y="356.784" transform="matrix(-0.5299 -0.848 0.848 -0.5299 144.3336 809.0945)" class="st2" width="13.25" height="15.521"/>
	
		<rect x="283.53" y="345.972" transform="matrix(-0.5299 -0.848 0.848 -0.5299 143.1664 786.8223)" class="st2" width="12.25" height="15.521"/>
	
		<rect x="277.038" y="335.583" transform="matrix(-0.5299 -0.848 0.848 -0.5299 142.0449 765.4235)" class="st2" width="12.25" height="15.521"/>
	
		<rect x="270.547" y="325.194" transform="matrix(-0.5299 -0.848 0.848 -0.5299 140.9234 744.0247)" class="st2" width="12.25" height="15.521"/>
	
		<rect x="279.528" y="387.477" transform="matrix(-0.5299 -0.848 0.848 -0.5299 101.3486 852.675)" class="st2" width="14.938" height="21.542"/>
	<polygon class="st2" points="273.905,397.622 266.379,402.325 292.632,444.339 296.459,445.117 319.851,430.5 300.089,398.874 
		281.821,410.29 	"/>
	<polygon class="st2" points="292.632,444.339 266.932,438.829 264.889,435.56 280.896,425.558 	"/>
	
		<rect x="260.606" y="420.811" transform="matrix(0.5299 0.848 -0.848 0.5299 487.5499 -25.5655)" class="st2" width="12.458" height="12.375"/>
	<polygon class="st2" points="280.896,425.558 275.384,429.003 268.782,418.437 258.287,424.995 245.006,403.741 261.013,393.739 	
		"/>
	
		<rect x="241.361" y="389.345" transform="matrix(0.5299 0.848 -0.848 0.5299 451.6223 -23.6826)" class="st2" width="11.625" height="12.375"/>
	
		<rect x="233.958" y="378.798" transform="matrix(0.5299 0.848 -0.848 0.5299 439.5791 -23.0515)" class="st2" width="13.25" height="12.375"/>
	
		<rect x="222.571" y="357.251" transform="matrix(0.848 -0.5299 0.5299 0.848 -159.2236 176.8476)" class="st2" width="12.375" height="17.625"/>
	
		<rect x="234.541" y="352.421" transform="matrix(0.5299 0.848 -0.848 0.5299 426.0911 -44.2011)" class="st2" width="36.75" height="19.646"/>
	
		<rect x="187.937" y="394.506" transform="matrix(-0.5299 -0.848 0.848 -0.5299 -34.8744 809.5099)" class="st2" width="37.971" height="39.83"/>
	
		<rect x="168.26" y="362.551" transform="matrix(-0.5299 -0.848 0.848 -0.5299 -38.3239 743.6883)" class="st2" width="37.39" height="39.83"/>
	
		<rect x="147.979" y="330.584" transform="matrix(-0.5299 -0.848 0.848 -0.5299 -41.7748 677.8411)" class="st2" width="38" height="39.83"/>
	
		<rect x="103.233" y="356.558" transform="matrix(-0.5299 -0.848 0.848 -0.5299 -98.2356 683.6465)" class="st2" width="74.25" height="24.984"/>
	
		<rect x="224.425" y="250.302" transform="matrix(-0.5299 -0.848 0.848 -0.5299 132.9424 592.0868)" class="st4" width="12.292" height="17.792"/>
	
		<rect x="210.576" y="228.606" transform="matrix(-0.5299 -0.848 0.848 -0.5299 130.6003 547.3967)" class="st4" width="12.875" height="17.792"/>
	
		<rect x="190.725" y="196.466" transform="matrix(-0.5299 -0.848 0.848 -0.5299 140.5147 502.6117)" class="st4" width="37.667" height="31.792"/>
	
		<rect x="213.534" y="187.109" transform="matrix(-0.5299 -0.848 0.848 -0.5299 187.4975 500.1495)" class="st4" width="37.667" height="22"/>
	
		<rect x="217.369" y="239.578" transform="matrix(-0.5299 -0.848 0.848 -0.5299 131.7847 569.9965)" class="st4" width="13" height="17.792"/>
	<polygon class="st4" points="238.428,187.05 252.315,178.373 256.091,184.415 260.967,181.368 250.479,164.584 231.716,176.308 	
		"/>
	<polygon class="st4" points="256.091,184.415 260.967,181.368 270.439,196.527 251.676,208.251 238.428,187.05 252.315,178.373 	
		"/>
	<polygon class="st4" points="270.439,196.527 285.916,186.856 280.021,177.421 285.957,173.712 282.38,167.988 260.967,181.368 	
		"/>
	
		<rect x="281.474" y="171.365" transform="matrix(-0.848 0.5299 -0.5299 -0.848 632.1078 172.6016)" class="st4" width="19.667" height="11.125"/>
	
		<rect x="271.025" y="152.768" transform="matrix(0.5299 0.848 -0.848 0.5299 268.5676 -166.3058)" class="st4" width="26.542" height="12.667"/>
	
		<rect x="261.887" y="156.628" transform="matrix(0.5299 0.848 -0.848 0.5299 265.9413 -153.8896)" class="st4" width="19.792" height="12.625"/>
	
		<rect x="251.18" y="163.318" transform="matrix(-0.5299 -0.848 0.848 -0.5299 255.5704 480.9266)" class="st4" width="19.792" height="12.625"/>
	<polygon class="st5" points="254.323,383.032 261.013,393.739 255.501,397.183 242.319,376.088 231.825,382.646 228.181,376.815 
		238.676,370.258 229.336,355.311 218.842,361.869 179.252,298.512 241.372,259.696 221.146,227.329 302.594,176.434 
		363.27,273.536 332.034,293.054 364.403,344.856 343.343,358.016 320.34,372.39 329.9,387.69 319.759,394.027 316.381,388.621 
		319.42,386.722 280.007,323.648 266.845,331.873 286.319,363.039 270.984,372.621 251.509,341.456 234.848,351.866 	"/>
	
		<rect x="316.764" y="219.726" transform="matrix(-0.5299 -0.848 0.848 -0.5299 334.3253 641.8549)" class="st4" width="56.583" height="17.083"/>
	<polygon class="st1" points="524.889,323.971 445.842,197.471 509.234,157.859 568.85,253.265 537.154,273.071 556.584,304.166 	
		"/>
	
		<rect x="515.571" y="307.557" transform="matrix(0.5299 0.848 -0.848 0.5299 512.2816 -297.8174)" class="st2" width="18.417" height="11.25"/>
	
		<rect x="449.867" y="193.091" transform="matrix(-0.848 0.5299 -0.5299 -0.848 948.9738 132.4846)" class="st2" width="11.25" height="18.417"/>
	
		<rect x="487.49" y="159.711" transform="matrix(-0.5299 -0.848 0.848 -0.5299 613.7183 696.9861)" class="st2" width="25.083" height="37.375"/>
	
		<rect x="165.939" y="280.341" transform="matrix(0.5299 0.848 -0.848 0.5299 327.7906 -13.1675)" class="st2" width="19.667" height="17.5"/>
	
		<rect x="76.25" y="219.724" transform="matrix(0.5299 0.848 -0.848 0.5299 268.7126 6.6775)" class="st6" width="104.167" height="52"/>
	<polygon class="st2" points="61.268,173.938 64.713,179.45 89.872,163.73 103.12,184.931 115.982,176.894 99.289,150.18 	"/>
	
		<rect x="106.534" y="178.771" transform="matrix(-0.5299 -0.848 0.848 -0.5299 14.7688 380.8942)" class="st2" width="12.833" height="15.167"/>
	<polygon class="st2" points="89.872,163.73 64.713,179.45 58.635,183.248 78.684,215.333 109.92,195.814 	"/>
	
		<rect x="6.307" y="156.625" transform="matrix(0.5299 0.848 -0.848 0.5299 150.9509 66.2418)" class="st1" width="18.834" height="25.314"/>
	
		<rect x="97.308" y="296.136" transform="matrix(0.5299 0.848 -0.848 0.5299 313.9173 55.5974)" class="st3" width="19" height="29.647"/>
	
		<rect x="66.204" y="268.363" transform="matrix(0.5299 0.848 -0.848 0.5299 282.2058 57.2593)" class="st2" width="46.5" height="29.647"/>
	
		<rect x="42.136" y="229.246" transform="matrix(0.5299 0.848 -0.848 0.5299 237.5434 59.6)" class="st2" width="45.75" height="29.647"/>
	
		<rect x="107.044" y="312.85" transform="matrix(0.5299 0.848 -0.848 0.5299 333.0007 54.5973)" class="st3" width="20.417" height="29.647"/>
	
		<rect x="49.68" y="208.068" transform="matrix(-0.5299 -0.848 0.848 -0.5299 -97.7395 377.3754)" class="st2" width="12.083" height="15.417"/>
	<polygon class="st2" points="59.057,206.568 53.36,197.452 28.218,213.162 40.318,232.526 52.386,224.985 45.983,214.738 	"/>
	
		<rect x="28.741" y="183.805" transform="matrix(0.5299 0.848 -0.848 0.5299 185.6592 62.3191)" class="st2" width="15.75" height="29.647"/>
	<polygon class="st1" points="234.895,0 159.842,46.898 180.244,79.548 160.951,91.603 180.293,122.557 274.639,63.604 	"/>
	<polygon class="st2" points="160.951,91.603 192.541,71.864 197.443,79.708 191.294,83.55 200.303,97.967 206.451,94.125 
		211.883,102.818 180.293,122.557 	"/>
	
		<rect x="81.082" y="211.006" transform="matrix(0.5299 0.848 -0.848 0.5299 229.2893 25.6139)" class="st2" width="20.917" height="17.25"/>
</g>
<g id="Calque_4">
	<line class="st7" x1="645.366" y1="702.967" x2="652.998" y2="698.198"/>
	<line class="st7" x1="574.217" y1="572.122" x2="576.602" y2="575.938"/>
	<line class="st7" x1="583.886" y1="587.595" x2="581.57" y2="583.888"/>
	<line class="st7" x1="554.429" y1="512.777" x2="552.773" y2="510.127"/>
	<line class="st7" x1="545.373" y1="498.285" x2="547.242" y2="501.276"/>
	<polyline class="st7" points="390.325,386.34 400.084,401.958 421.727,388.434 	"/>
	<polyline class="st7" points="367.951,422.872 370.711,427.289 359.05,434.575 	"/>
	<polyline class="st7" points="335.937,442.877 338.697,447.294 349.015,440.846 	"/>
	<polyline class="st7" points="338.697,447.294 328.591,453.608 310.793,449.499 309.6,447.591 	"/>
	<line class="st7" x1="286.319" y1="363.039" x2="270.966" y2="372.632"/>
	<line class="st7" x1="487.297" y1="193.283" x2="472.139" y2="202.756"/>
	<line class="st7" x1="546.825" y1="288.547" x2="531.666" y2="298.02"/>
	<line class="st7" x1="58.635" y1="183.248" x2="53.936" y2="186.185"/>
	<line class="st7" x1="35.122" y1="168.265" x2="40.907" y2="177.523"/>
	<polyline class="st7" points="173.563,302.067 144.305,320.349 141.899,316.498 	"/>
	<line class="st7" x1="133.884" y1="303.671" x2="137.129" y2="308.865"/>
	<polyline class="st7" points="242.413,83.741 232.742,68.264 206.452,84.691 	"/>
</g>
<g id="Calque_5">
	<line class="st8" x1="31.447" y1="170.561" x2="0" y2="168.003"/>
	<line class="st8" x1="21.467" y1="154.589" x2="9.98" y2="183.975"/>
	<line class="st8" x1="455.383" y1="191.509" x2="455.602" y2="213.089"/>
	<line class="st8" x1="465.142" y1="207.128" x2="445.842" y2="197.471"/>
	<line class="st8" x1="524.67" y1="302.392" x2="524.889" y2="323.971"/>
	<line class="st8" x1="534.429" y1="318.01" x2="515.129" y2="308.353"/>
</g>
</svg>
