<?xml version="1.0" encoding="utf-8"?>
<!-- Generator: Adobe Illustrator 19.0.1, SVG Export Plug-In . SVG Version: 6.00 Build 0)  -->
<svg version="1.0" id="Calque_9" xmlns="http://www.w3.org/2000/svg" xmlns:xlink="http://www.w3.org/1999/xlink" x="0px" y="0px"
	 viewBox="0 0 983 1010" style="enable-background:new 0 0 983 1010;" xml:space="preserve">
<style type="text/css">
	.st0{fill:#1D1D1B;}
	.st1{fill:#FFFFFF;}
	.st2{fill:#D74641;}
</style>
<g id="Icones">
	<g>
		<path class="st0" d="M763.84,868.22h-7.59c-1.03,0-1.87-0.84-1.87-1.87v-7.59c0-1.03,0.84-1.87,1.87-1.87h7.59
			c1.03,0,1.87,0.84,1.87,1.87v7.59C765.71,867.38,764.87,868.22,763.84,868.22z"/>
		<g>
			<circle class="st1" cx="760.04" cy="858.64" r="0.78"/>
			<path class="st1" d="M762.15,862.47l-0.67-2.2c-0.13-0.39-0.52-0.7-1.08-0.7h-0.72c-0.57,0-0.96,0.31-1.08,0.7l-0.67,2.2
				c-0.14,0.47,0.41,0.64,0.55,0.2l0.71-2.01h0.08c0,0-0.93,3.6-0.97,3.73c-0.02,0.07,0.01,0.12,0.08,0.12c0.04,0,0.8,0,0.8,0
				l0,2.36c0,0.48,0.72,0.48,0.72,0v-2.38h0.28l0,2.38c0,0.48,0.72,0.48,0.72,0l0-2.36c0,0,0.76,0,0.8,0c0.07,0,0.1-0.05,0.08-0.12
				c-0.04-0.13-0.97-3.73-0.97-3.73h0.08l0.7,2.01C761.74,863.11,762.29,862.94,762.15,862.47z"/>
		</g>
	</g>
	<g>
		<path class="st0" d="M772.79,882.73h-7.59c-1.03,0-1.87-0.84-1.87-1.87v-7.59c0-1.03,0.84-1.87,1.87-1.87h7.59
			c1.03,0,1.87,0.84,1.87,1.87v7.59C774.66,881.89,773.82,882.73,772.79,882.73z"/>
		<g>
			<circle class="st1" cx="768.99" cy="873.11" r="0.79"/>
			<path class="st1" d="M769.84,874.05l-0.85,0l-0.85,0c-0.76,0-1.01,0.2-1.01,1.02v2.42c0,0.47,0.63,0.47,0.63,0l0.05-2.21h0.16
				v6.05c0,0.63,0.86,0.61,0.86,0l0.05-3.51h0.17l0.05,3.51c0,0.61,0.86,0.63,0.86,0v-6.05h0.16l0.05,2.21c0,0.47,0.63,0.47,0.63,0
				v-2.42C770.84,874.24,770.6,874.05,769.84,874.05z"/>
		</g>
	</g>
	<g>
		<path class="st0" d="M805.72,935.26h-7.59c-1.03,0-1.87-0.84-1.87-1.87v-7.59c0-1.03,0.84-1.87,1.87-1.87h7.59
			c1.03,0,1.87,0.84,1.87,1.87v7.59C807.59,934.42,806.75,935.26,805.72,935.26z"/>
		<polygon class="st1" points="801.92,925.89 801.92,928.36 799.83,928.36 799.83,930.82 797.74,930.82 797.74,933.29 
			801.92,933.29 801.92,930.82 804.01,930.82 804.01,928.36 806.09,928.36 806.09,925.89 		"/>
	</g>
	<g>
		<path class="st0" d="M713.06,714.14h-7.59c-1.03,0-1.87-0.84-1.87-1.87v-7.59c0-1.03,0.84-1.87,1.87-1.87h7.59
			c1.03,0,1.87,0.84,1.87,1.87v7.59C714.93,713.3,714.09,714.14,713.06,714.14z"/>
		<polygon class="st1" points="709.26,704.77 709.26,707.24 707.17,707.24 707.17,709.7 705.08,709.7 705.08,712.17 709.26,712.17 
			709.26,709.7 711.35,709.7 711.35,707.24 713.43,707.24 713.43,704.77 		"/>
	</g>
	<g>
		<path class="st0" d="M715.89,802h-7.59c-1.03,0-1.87-0.84-1.87-1.87v-7.59c0-1.03,0.84-1.87,1.87-1.87h7.59
			c1.03,0,1.87,0.84,1.87,1.87v7.59C717.76,801.16,716.92,802,715.89,802z"/>
		<polygon class="st1" points="712.09,792.64 712.09,795.1 710,795.1 710,797.57 707.92,797.57 707.92,800.03 712.09,800.03 
			712.09,797.57 714.18,797.57 714.18,795.1 716.27,795.1 716.27,792.64 		"/>
	</g>
	<g>
		<path class="st0" d="M689.5,520.57h-7.59c-1.03,0-1.87-0.84-1.87-1.87v-7.59c0-1.03,0.84-1.87,1.87-1.87h7.59
			c1.03,0,1.87,0.84,1.87,1.87v7.59C691.37,519.73,690.53,520.57,689.5,520.57z"/>
		<polygon class="st1" points="685.7,511.2 685.7,513.66 683.62,513.66 683.62,516.13 681.53,516.13 681.53,518.59 685.7,518.59 
			685.7,516.13 687.79,516.13 687.79,513.66 689.88,513.66 689.88,511.2 		"/>
	</g>
	<g>
		<path class="st0" d="M621.36,411.72h-7.59c-1.03,0-1.87-0.84-1.87-1.87v-7.59c0-1.03,0.84-1.87,1.87-1.87h7.59
			c1.03,0,1.87,0.84,1.87,1.87v7.59C623.23,410.88,622.39,411.72,621.36,411.72z"/>
		<polygon class="st1" points="617.56,402.35 617.56,404.82 615.47,404.82 615.47,407.28 613.38,407.28 613.38,409.75 
			617.56,409.75 617.56,407.28 619.65,407.28 619.65,404.82 621.73,404.82 621.73,402.35 		"/>
	</g>
	<g>
		<path class="st0" d="M653.19,392.41h-7.59c-1.03,0-1.87-0.84-1.87-1.87v-7.59c0-1.03,0.84-1.87,1.87-1.87h7.59
			c1.03,0,1.87,0.84,1.87,1.87v7.59C655.07,391.57,654.23,392.41,653.19,392.41z"/>
		<polygon class="st1" points="649.4,383.05 649.4,385.51 647.31,385.51 647.31,387.98 645.22,387.98 645.22,390.44 649.4,390.44 
			649.4,387.98 651.48,387.98 651.48,385.51 653.57,385.51 653.57,383.05 		"/>
	</g>
	<g>
		<path class="st0" d="M286.49,162.97h-7.59c-1.03,0-1.87-0.84-1.87-1.87v-7.59c0-1.03,0.84-1.87,1.87-1.87h7.59
			c1.03,0,1.87,0.84,1.87,1.87v7.59C288.36,162.13,287.52,162.97,286.49,162.97z"/>
		<polygon class="st1" points="282.69,153.61 282.69,156.07 280.6,156.07 280.6,158.54 278.52,158.54 278.52,161 282.69,161 
			282.69,158.54 284.78,158.54 284.78,156.07 286.87,156.07 286.87,153.61 		"/>
	</g>
	<g>
		<path class="st0" d="M122.73,270.15h-7.59c-1.03,0-1.87-0.84-1.87-1.87v-7.59c0-1.03,0.84-1.87,1.87-1.87h7.59
			c1.03,0,1.87,0.84,1.87,1.87v7.59C124.6,269.31,123.76,270.15,122.73,270.15z"/>
		<polygon class="st1" points="118.93,260.79 118.93,263.25 116.84,263.25 116.84,265.71 114.75,265.71 114.75,268.18 
			118.93,268.18 118.93,265.71 121.02,265.71 121.02,263.25 123.1,263.25 123.1,260.79 		"/>
	</g>
	<g>
		<path class="st0" d="M130.81,314.12h-7.59c-1.03,0-1.87-0.84-1.87-1.87v-7.59c0-1.03,0.84-1.87,1.87-1.87h7.59
			c1.03,0,1.87,0.84,1.87,1.87v7.59C132.68,313.28,131.85,314.12,130.81,314.12z"/>
		<polygon class="st1" points="127.02,304.75 127.02,307.22 124.93,307.22 124.93,309.68 122.84,309.68 122.84,312.15 
			127.02,312.15 127.02,309.68 129.1,309.68 129.1,307.22 131.19,307.22 131.19,304.75 		"/>
	</g>
	<g>
		<path class="st0" d="M179.25,402.92h-7.59c-1.03,0-1.87-0.84-1.87-1.87v-7.59c0-1.03,0.84-1.87,1.87-1.87h7.59
			c1.03,0,1.87,0.84,1.87,1.87v7.59C181.13,402.08,180.29,402.92,179.25,402.92z"/>
		<polygon class="st1" points="175.46,393.55 175.46,396.02 173.37,396.02 173.37,398.48 171.28,398.48 171.28,400.95 
			175.46,400.95 175.46,398.48 177.54,398.48 177.54,396.02 179.63,396.02 179.63,393.55 		"/>
	</g>
	<g>
		<path class="st0" d="M474.47,658.1h-7.59c-1.03,0-1.87-0.84-1.87-1.87v-7.59c0-1.03,0.84-1.87,1.87-1.87h7.59
			c1.03,0,1.87,0.84,1.87,1.87v7.59C476.34,657.26,475.5,658.1,474.47,658.1z"/>
		<polygon class="st1" points="470.67,648.74 470.67,651.2 468.58,651.2 468.58,653.67 466.49,653.67 466.49,656.13 470.67,656.13 
			470.67,653.67 472.76,653.67 472.76,651.2 474.84,651.2 474.84,648.74 		"/>
	</g>
	<g>
		<path class="st0" d="M310.04,518.62h-7.59c-1.03,0-1.87-0.84-1.87-1.87v-7.59c0-1.03,0.84-1.87,1.87-1.87h7.59
			c1.03,0,1.87,0.84,1.87,1.87v7.59C311.92,517.79,311.08,518.62,310.04,518.62z"/>
		<polygon class="st1" points="306.25,509.26 306.25,511.72 304.16,511.72 304.16,514.19 302.07,514.19 302.07,516.65 
			306.25,516.65 306.25,514.19 308.33,514.19 308.33,511.72 310.42,511.72 310.42,509.26 		"/>
	</g>
	<g>
		<path class="st0" d="M554.73,605.67h-7.59c-1.03,0-1.87-0.84-1.87-1.87v-7.59c0-1.03,0.84-1.87,1.87-1.87h7.59
			c1.03,0,1.87,0.84,1.87,1.87v7.59C556.6,604.83,555.76,605.67,554.73,605.67z"/>
		<polygon class="st1" points="550.93,596.31 550.93,598.77 548.84,598.77 548.84,601.24 546.76,601.24 546.76,603.7 550.93,603.7 
			550.93,601.24 553.02,601.24 553.02,598.77 555.1,598.77 555.1,596.31 		"/>
	</g>
	<g>
		<g>
			<path class="st0" d="M415.7,688.36h-7.59c-1.03,0-1.87-0.84-1.87-1.87v-7.59c0-1.03,0.84-1.87,1.87-1.87h7.59
				c1.03,0,1.87,0.84,1.87,1.87v7.59C417.58,687.52,416.74,688.36,415.7,688.36z"/>
			<g>
				<path class="st1" d="M410.44,687.28h-2.06c-0.52,0-0.94-0.42-0.94-0.94v-7.31c0-0.52,0.42-0.94,0.94-0.94h2.06
					c0.52,0,0.94,0.42,0.94,0.94v7.31C411.37,686.86,410.96,687.28,410.44,687.28z"/>
				<path class="st1" d="M415.43,687.28h-2.06c-0.52,0-0.94-0.42-0.94-0.94v-7.31c0-0.52,0.42-0.94,0.94-0.94h2.06
					c0.52,0,0.94,0.42,0.94,0.94v7.31C416.37,686.86,415.95,687.28,415.43,687.28z"/>
			</g>
		</g>
		<path class="st0" d="M410.89,682.03l-1.44-1.44c-0.06-0.06-0.16-0.06-0.22,0l-1.44,1.44c-0.1,0.1-0.03,0.27,0.11,0.27h0.85v2.19
			c0,0.2,0.16,0.36,0.36,0.36h0.47c0.2,0,0.36-0.16,0.36-0.36v-2.19h0.85C410.92,682.29,410.99,682.12,410.89,682.03z"/>
		<path class="st0" d="M412.85,683.35l1.44,1.44c0.06,0.06,0.16,0.06,0.22,0l1.44-1.44c0.1-0.1,0.03-0.27-0.11-0.27H415v-2.19
			c0-0.2-0.16-0.36-0.36-0.36h-0.47c-0.2,0-0.36,0.16-0.36,0.36v2.19h-0.85C412.82,683.09,412.75,683.25,412.85,683.35z"/>
	</g>
	<g>
		<g>
			<path class="st0" d="M726.21,732.9h-7.59c-1.03,0-1.87-0.84-1.87-1.87v-7.59c0-1.03,0.84-1.87,1.87-1.87h7.59
				c1.03,0,1.87,0.84,1.87,1.87v7.59C728.08,732.07,727.24,732.9,726.21,732.9z"/>
			<g>
				<path class="st1" d="M720.94,731.83h-2.06c-0.52,0-0.94-0.42-0.94-0.94v-7.31c0-0.52,0.42-0.94,0.94-0.94h2.06
					c0.52,0,0.94,0.42,0.94,0.94v7.31C721.88,731.41,721.46,731.83,720.94,731.83z"/>
				<path class="st1" d="M725.94,731.83h-2.06c-0.52,0-0.94-0.42-0.94-0.94v-7.31c0-0.52,0.42-0.94,0.94-0.94h2.06
					c0.52,0,0.94,0.42,0.94,0.94v7.31C726.88,731.41,726.46,731.83,725.94,731.83z"/>
			</g>
		</g>
		<path class="st0" d="M721.4,726.57l-1.44-1.44c-0.06-0.06-0.16-0.06-0.22,0l-1.44,1.44c-0.1,0.1-0.03,0.27,0.11,0.27h0.85v2.19
			c0,0.2,0.16,0.36,0.36,0.36h0.47c0.2,0,0.36-0.16,0.36-0.36v-2.19h0.85C721.43,726.84,721.5,726.67,721.4,726.57z"/>
		<path class="st0" d="M723.36,727.9l1.44,1.44c0.06,0.06,0.16,0.06,0.22,0l1.44-1.44c0.1-0.1,0.03-0.27-0.11-0.27h-0.85v-2.19
			c0-0.2-0.16-0.36-0.36-0.36h-0.47c-0.2,0-0.36,0.16-0.36,0.36v2.19h-0.85C723.33,727.63,723.26,727.8,723.36,727.9z"/>
	</g>
	<g>
		<g>
			<path class="st0" d="M620.33,375.57h-7.59c-1.03,0-1.87-0.84-1.87-1.87v-7.59c0-1.03,0.84-1.87,1.87-1.87h7.59
				c1.03,0,1.87,0.84,1.87,1.87v7.59C622.21,374.73,621.37,375.57,620.33,375.57z"/>
			<g>
				<path class="st1" d="M615.07,374.49h-2.06c-0.52,0-0.94-0.42-0.94-0.94v-7.31c0-0.52,0.42-0.94,0.94-0.94h2.06
					c0.52,0,0.94,0.42,0.94,0.94v7.31C616,374.07,615.59,374.49,615.07,374.49z"/>
				<path class="st1" d="M620.06,374.49h-2.06c-0.52,0-0.94-0.42-0.94-0.94v-7.31c0-0.52,0.42-0.94,0.94-0.94h2.06
					c0.52,0,0.94,0.42,0.94,0.94v7.31C621,374.07,620.58,374.49,620.06,374.49z"/>
			</g>
		</g>
		<path class="st0" d="M615.52,369.23l-1.44-1.44c-0.06-0.06-0.16-0.06-0.22,0l-1.44,1.44c-0.1,0.1-0.03,0.27,0.11,0.27h0.85v2.19
			c0,0.2,0.16,0.36,0.36,0.36h0.47c0.2,0,0.36-0.16,0.36-0.36v-2.19h0.85C615.55,369.5,615.62,369.33,615.52,369.23z"/>
		<path class="st0" d="M617.48,370.56l1.44,1.44c0.06,0.06,0.16,0.06,0.22,0l1.44-1.44c0.1-0.1,0.03-0.27-0.11-0.27h-0.85v-2.19
			c0-0.2-0.16-0.36-0.36-0.36h-0.47c-0.2,0-0.36,0.16-0.36,0.36v2.19h-0.85C617.45,370.29,617.38,370.46,617.48,370.56z"/>
	</g>
	<g>
		<path class="st0" d="M391.15,238.63h-7.59c-1.03,0-1.87-0.84-1.87-1.87v-7.59c0-1.03,0.84-1.87,1.87-1.87h7.59
			c1.03,0,1.87,0.84,1.87,1.87v7.59C393.03,237.79,392.19,238.63,391.15,238.63z"/>
		<g>
			<circle class="st1" cx="387.36" cy="229.01" r="0.79"/>
			<path class="st1" d="M388.2,229.95l-0.85,0l-0.85,0c-0.76,0-1.01,0.2-1.01,1.02v2.42c0,0.47,0.63,0.47,0.63,0l0.05-2.21h0.16
				v6.05c0,0.63,0.86,0.61,0.86,0l0.05-3.51h0.17l0.05,3.51c0,0.61,0.86,0.63,0.86,0v-6.05h0.16l0.05,2.21c0,0.47,0.63,0.47,0.63,0
				v-2.42C389.21,230.15,388.96,229.95,388.2,229.95z"/>
		</g>
	</g>
	<g>
		<g>
			<path class="st0" d="M277.33,533.39h-7.59c-1.03,0-1.87-0.84-1.87-1.87v-7.59c0-1.03,0.84-1.87,1.87-1.87h7.59
				c1.03,0,1.87,0.84,1.87,1.87v7.59C279.2,532.55,278.37,533.39,277.33,533.39z"/>
			<g>
				<path class="st1" d="M272.07,532.31h-2.06c-0.52,0-0.94-0.42-0.94-0.94v-7.31c0-0.52,0.42-0.94,0.94-0.94h2.06
					c0.52,0,0.94,0.42,0.94,0.94v7.31C273,531.89,272.58,532.31,272.07,532.31z"/>
				<path class="st1" d="M277.06,532.31H275c-0.52,0-0.94-0.42-0.94-0.94v-7.31c0-0.52,0.42-0.94,0.94-0.94h2.06
					c0.52,0,0.94,0.42,0.94,0.94v7.31C278,531.89,277.58,532.31,277.06,532.31z"/>
			</g>
		</g>
		<path class="st0" d="M272.52,527.06l-1.44-1.44c-0.06-0.06-0.16-0.06-0.22,0l-1.44,1.44c-0.1,0.1-0.03,0.27,0.11,0.27h0.85v2.19
			c0,0.2,0.16,0.36,0.36,0.36h0.47c0.2,0,0.36-0.16,0.36-0.36v-2.19h0.85C272.55,527.32,272.62,527.16,272.52,527.06z"/>
		<path class="st0" d="M274.48,528.38l1.44,1.44c0.06,0.06,0.16,0.06,0.22,0l1.44-1.44c0.1-0.1,0.03-0.27-0.11-0.27h-0.85v-2.19
			c0-0.2-0.16-0.36-0.36-0.36h-0.47c-0.2,0-0.36,0.16-0.36,0.36v2.19h-0.85C274.45,528.12,274.38,528.28,274.48,528.38z"/>
	</g>
	<g>
		<path class="st0" d="M380.65,301.68h-7.59c-1.03,0-1.87-0.84-1.87-1.87v-7.59c0-1.03,0.84-1.87,1.87-1.87h7.59
			c1.03,0,1.87,0.84,1.87,1.87v7.59C382.52,300.85,381.68,301.68,380.65,301.68z"/>
		<polygon class="st1" points="376.85,292.32 376.85,294.78 374.76,294.78 374.76,297.25 372.68,297.25 372.68,299.71 
			376.85,299.71 376.85,297.25 378.94,297.25 378.94,294.78 381.03,294.78 381.03,292.32 		"/>
	</g>
	<g>
		<path class="st0" d="M319.56,338.12h-7.59c-1.03,0-1.87-0.84-1.87-1.87v-7.59c0-1.03,0.84-1.87,1.87-1.87h7.59
			c1.03,0,1.87,0.84,1.87,1.87v7.59C321.43,337.29,320.59,338.12,319.56,338.12z"/>
		<g>
			<circle class="st1" cx="315.76" cy="328.51" r="0.79"/>
			<path class="st1" d="M316.61,329.45l-0.85,0l-0.85,0c-0.76,0-1.01,0.2-1.01,1.02v2.42c0,0.47,0.63,0.47,0.63,0l0.05-2.21h0.16
				v6.05c0,0.63,0.86,0.61,0.86,0l0.05-3.51h0.17l0.05,3.51c0,0.61,0.86,0.63,0.86,0v-6.05h0.16l0.05,2.21c0,0.47,0.63,0.47,0.63,0
				v-2.42C317.61,329.64,317.36,329.45,316.61,329.45z"/>
		</g>
	</g>
	<g>
		<path class="st0" d="M303.49,347.91h-7.59c-1.03,0-1.87-0.84-1.87-1.87v-7.59c0-1.03,0.84-1.87,1.87-1.87h7.59
			c1.03,0,1.87,0.84,1.87,1.87v7.59C305.36,347.07,304.52,347.91,303.49,347.91z"/>
		<g>
			<circle class="st1" cx="299.69" cy="338.34" r="0.78"/>
			<path class="st1" d="M301.8,342.16l-0.67-2.2c-0.13-0.39-0.52-0.7-1.08-0.7h-0.72c-0.57,0-0.96,0.31-1.08,0.7l-0.67,2.2
				c-0.14,0.47,0.41,0.64,0.55,0.2l0.71-2.01h0.08c0,0-0.93,3.6-0.97,3.73c-0.02,0.07,0.01,0.12,0.08,0.12c0.04,0,0.8,0,0.8,0
				l0,2.36c0,0.48,0.72,0.48,0.72,0v-2.38h0.28l0,2.38c0,0.48,0.72,0.48,0.72,0l0-2.36c0,0,0.76,0,0.8,0c0.07,0,0.1-0.05,0.08-0.12
				c-0.04-0.13-0.97-3.73-0.97-3.73h0.08l0.7,2.01C301.39,342.8,301.94,342.63,301.8,342.16z"/>
		</g>
	</g>
	<g>
		<path class="st0" d="M348.99,542.41h-7.59c-1.03,0-1.87-0.84-1.87-1.87v-7.59c0-1.03,0.84-1.87,1.87-1.87h7.59
			c1.03,0,1.87,0.84,1.87,1.87v7.59C350.86,541.57,350.02,542.41,348.99,542.41z"/>
		<polygon class="st1" points="345.19,533.04 345.19,535.51 343.1,535.51 343.1,537.97 341.01,537.97 341.01,540.44 345.19,540.44 
			345.19,537.97 347.28,537.97 347.28,535.51 349.36,535.51 349.36,533.04 		"/>
	</g>
	<g>
		<path class="st0" d="M471.76,461.41h-7.59c-1.03,0-1.87-0.84-1.87-1.87v-7.59c0-1.03,0.84-1.87,1.87-1.87h7.59
			c1.03,0,1.87,0.84,1.87,1.87v7.59C473.63,460.57,472.8,461.41,471.76,461.41z"/>
		<polygon class="st1" points="467.96,452.04 467.96,454.51 465.88,454.51 465.88,456.97 463.79,456.97 463.79,459.44 
			467.96,459.44 467.96,456.97 470.05,456.97 470.05,454.51 472.14,454.51 472.14,452.04 		"/>
	</g>
	<g>
		<path class="st0" d="M493.12,476.35h-7.59c-1.03,0-1.87-0.84-1.87-1.87v-7.59c0-1.03,0.84-1.87,1.87-1.87h7.59
			c1.03,0,1.87,0.84,1.87,1.87v7.59C494.99,475.51,494.16,476.35,493.12,476.35z"/>
		<g>
			<circle class="st1" cx="489.32" cy="466.77" r="0.78"/>
			<path class="st1" d="M491.44,470.6l-0.67-2.2c-0.13-0.39-0.52-0.7-1.08-0.7h-0.72c-0.57,0-0.96,0.31-1.08,0.7l-0.67,2.2
				c-0.14,0.47,0.41,0.64,0.55,0.2l0.71-2.01h0.08c0,0-0.93,3.6-0.97,3.73c-0.02,0.07,0.01,0.12,0.08,0.12c0.04,0,0.8,0,0.8,0
				l0,2.36c0,0.48,0.72,0.48,0.72,0v-2.38h0.28l0,2.38c0,0.48,0.72,0.48,0.72,0l0-2.36c0,0,0.76,0,0.8,0c0.07,0,0.1-0.05,0.08-0.12
				c-0.04-0.13-0.97-3.73-0.97-3.73h0.08l0.7,2.01C491.03,471.24,491.57,471.07,491.44,470.6z"/>
		</g>
	</g>
	<g>
		<path class="st0" d="M477.58,485.93h-7.59c-1.03,0-1.87-0.84-1.87-1.87v-7.59c0-1.03,0.84-1.87,1.87-1.87h7.59
			c1.03,0,1.87,0.84,1.87,1.87v7.59C479.45,485.09,478.61,485.93,477.58,485.93z"/>
		<g>
			<circle class="st1" cx="473.78" cy="476.31" r="0.79"/>
			<path class="st1" d="M474.63,477.25l-0.85,0l-0.85,0c-0.76,0-1.01,0.2-1.01,1.02v2.42c0,0.47,0.63,0.47,0.63,0l0.05-2.21h0.16
				v6.05c0,0.63,0.86,0.61,0.86,0l0.05-3.51h0.17l0.05,3.51c0,0.61,0.86,0.63,0.86,0v-6.05h0.16l0.05,2.21c0,0.47,0.63,0.47,0.63,0
				v-2.42C475.63,477.44,475.39,477.25,474.63,477.25z"/>
		</g>
	</g>
	<g>
		<path class="st0" d="M504.98,636.6h-7.59c-1.03,0-1.87-0.84-1.87-1.87v-7.59c0-1.03,0.84-1.87,1.87-1.87h7.59
			c1.03,0,1.87,0.84,1.87,1.87v7.59C506.86,635.76,506.02,636.6,504.98,636.6z"/>
		<g>
			<circle class="st1" cx="501.19" cy="626.98" r="0.79"/>
			<path class="st1" d="M502.03,627.92l-0.85,0l-0.85,0c-0.76,0-1.01,0.2-1.01,1.02v2.42c0,0.47,0.63,0.47,0.63,0l0.05-2.21h0.16
				v6.05c0,0.63,0.86,0.61,0.86,0l0.05-3.51h0.17l0.05,3.51c0,0.61,0.86,0.63,0.86,0v-6.05h0.16l0.05,2.21c0,0.47,0.63,0.47,0.63,0
				v-2.42C503.04,628.12,502.79,627.92,502.03,627.92z"/>
		</g>
	</g>
	<g>
		<path class="st0" d="M488.9,646.5h-7.59c-1.03,0-1.87-0.84-1.87-1.87v-7.59c0-1.03,0.84-1.87,1.87-1.87h7.59
			c1.03,0,1.87,0.84,1.87,1.87v7.59C490.77,645.66,489.93,646.5,488.9,646.5z"/>
		<g>
			<circle class="st1" cx="485.1" cy="636.93" r="0.78"/>
			<path class="st1" d="M487.21,640.75l-0.67-2.2c-0.13-0.39-0.52-0.7-1.08-0.7h-0.72c-0.57,0-0.96,0.31-1.08,0.7l-0.67,2.2
				c-0.14,0.47,0.41,0.64,0.55,0.2l0.71-2.01h0.08c0,0-0.93,3.6-0.97,3.73c-0.02,0.07,0.01,0.12,0.08,0.12c0.04,0,0.8,0,0.8,0
				l0,2.36c0,0.48,0.72,0.48,0.72,0v-2.38h0.28l0,2.38c0,0.48,0.72,0.48,0.72,0l0-2.36c0,0,0.76,0,0.8,0c0.07,0,0.1-0.05,0.08-0.12
				c-0.04-0.13-0.97-3.73-0.97-3.73h0.08l0.7,2.01C486.81,641.39,487.35,641.23,487.21,640.75z"/>
		</g>
	</g>
	<g>
		<path class="st0" d="M706.17,510.6h-7.59c-1.03,0-1.87-0.84-1.87-1.87v-7.59c0-1.03,0.84-1.87,1.87-1.87h7.59
			c1.03,0,1.87,0.84,1.87,1.87v7.59C708.04,509.76,707.21,510.6,706.17,510.6z"/>
		<g>
			<circle class="st1" cx="702.37" cy="500.98" r="0.79"/>
			<path class="st1" d="M703.22,501.92l-0.85,0l-0.85,0c-0.76,0-1.01,0.2-1.01,1.02v2.42c0,0.47,0.63,0.47,0.63,0l0.05-2.21h0.16
				v6.05c0,0.63,0.86,0.61,0.86,0l0.05-3.51h0.17l0.05,3.51c0,0.61,0.86,0.63,0.86,0v-6.05h0.16l0.05,2.21c0,0.47,0.63,0.47,0.63,0
				v-2.42C704.23,502.12,703.98,501.92,703.22,501.92z"/>
		</g>
	</g>
	<g>
		<path class="st0" d="M637.91,400.92h-7.59c-1.03,0-1.87-0.84-1.87-1.87v-7.59c0-1.03,0.84-1.87,1.87-1.87h7.59
			c1.03,0,1.87,0.84,1.87,1.87v7.59C639.78,400.08,638.95,400.92,637.91,400.92z"/>
		<g>
			<circle class="st1" cx="634.11" cy="391.3" r="0.79"/>
			<path class="st1" d="M634.96,392.24l-0.85,0l-0.85,0c-0.76,0-1.01,0.2-1.01,1.02v2.42c0,0.47,0.63,0.47,0.63,0l0.05-2.21h0.16
				v6.05c0,0.63,0.86,0.61,0.86,0l0.05-3.51h0.17l0.05,3.51c0,0.61,0.86,0.63,0.86,0v-6.05h0.16l0.05,2.21c0,0.47,0.63,0.47,0.63,0
				v-2.42C635.97,392.44,635.72,392.24,634.96,392.24z"/>
		</g>
	</g>
	<g>
		<path class="st0" d="M651.19,545.07h-7.59c-1.03,0-1.87-0.84-1.87-1.87v-7.59c0-1.03,0.84-1.87,1.87-1.87h7.59
			c1.03,0,1.87,0.84,1.87,1.87v7.59C653.07,544.23,652.23,545.07,651.19,545.07z"/>
		<g>
			<circle class="st1" cx="647.4" cy="535.45" r="0.79"/>
			<path class="st1" d="M648.24,536.4l-0.85,0l-0.85,0c-0.76,0-1.01,0.2-1.01,1.02v2.42c0,0.47,0.63,0.47,0.63,0l0.05-2.21h0.16
				v6.05c0,0.63,0.86,0.61,0.86,0l0.05-3.51h0.17l0.05,3.51c0,0.61,0.86,0.63,0.86,0v-6.05h0.16l0.05,2.21c0,0.47,0.63,0.47,0.63,0
				v-2.42C649.25,536.59,649,536.4,648.24,536.4z"/>
		</g>
	</g>
	<g>
		<circle class="st0" cx="337.08" cy="140.98" r="4.54"/>
		<path class="st1" d="M339.12,142.4l0.67-2.92c0.03-0.12-0.05-0.25-0.17-0.27l-2.92-0.67c-0.2-0.05-0.35,0.17-0.24,0.34l0.66,1.06
			l-2.73,1.7c-0.25,0.15-0.32,0.48-0.17,0.73l0.37,0.59c0.15,0.25,0.48,0.32,0.73,0.17l2.73-1.7l0.66,1.06
			C338.81,142.64,339.07,142.6,339.12,142.4z"/>
	</g>
	<g>
		<circle class="st0" cx="138.17" cy="239.52" r="4.54"/>
		<path class="st1" d="M140.21,240.94l0.67-2.92c0.03-0.12-0.05-0.25-0.17-0.27l-2.92-0.67c-0.2-0.05-0.35,0.17-0.24,0.34l0.66,1.06
			l-2.73,1.7c-0.25,0.15-0.32,0.48-0.17,0.73l0.37,0.59c0.15,0.25,0.48,0.32,0.73,0.17l2.73-1.7l0.66,1.06
			C139.9,241.18,140.16,241.14,140.21,240.94z"/>
	</g>
	<g>
		<circle class="st0" cx="179.63" cy="343.1" r="4.54"/>
		<path class="st1" d="M181.67,344.52l0.67-2.92c0.03-0.12-0.05-0.25-0.17-0.27l-2.92-0.67c-0.2-0.05-0.35,0.17-0.24,0.34l0.66,1.06
			l-2.73,1.7c-0.25,0.15-0.32,0.48-0.17,0.73l0.37,0.59c0.15,0.25,0.48,0.32,0.73,0.17l2.73-1.7l0.66,1.06
			C181.36,344.76,181.62,344.72,181.67,344.52z"/>
	</g>
	<g>
		<circle class="st0" cx="204.27" cy="312.27" r="4.54"/>
		<path class="st1" d="M206.3,313.69l0.67-2.92c0.03-0.12-0.05-0.25-0.17-0.27l-2.92-0.67c-0.2-0.05-0.35,0.17-0.24,0.34l0.66,1.06
			l-2.73,1.7c-0.25,0.15-0.32,0.48-0.17,0.73l0.37,0.59c0.15,0.25,0.48,0.32,0.73,0.17l2.73-1.7l0.66,1.06
			C205.99,313.93,206.26,313.89,206.3,313.69z"/>
	</g>
	<g>
		<circle class="st0" cx="409.34" cy="256.22" r="4.54"/>
		<path class="st1" d="M411.37,257.64l0.67-2.92c0.03-0.12-0.05-0.25-0.17-0.27l-2.92-0.67c-0.2-0.05-0.35,0.17-0.24,0.34l0.66,1.06
			l-2.73,1.7c-0.25,0.15-0.32,0.48-0.17,0.73l0.37,0.59c0.15,0.25,0.48,0.32,0.73,0.17l2.73-1.7l0.66,1.06
			C411.07,257.89,411.33,257.84,411.37,257.64z"/>
	</g>
	<g>
		<circle class="st0" cx="510.11" cy="418.1" r="4.54"/>
		<path class="st1" d="M512.14,419.52l0.67-2.92c0.03-0.12-0.05-0.25-0.17-0.27l-2.92-0.67c-0.2-0.05-0.35,0.17-0.24,0.34l0.66,1.06
			l-2.73,1.7c-0.25,0.15-0.32,0.48-0.17,0.73l0.37,0.59c0.15,0.25,0.48,0.32,0.73,0.17l2.73-1.7l0.66,1.06
			C511.84,419.76,512.1,419.72,512.14,419.52z"/>
	</g>
	<g>
		<circle class="st0" cx="728.71" cy="748.05" r="4.54"/>
		<path class="st1" d="M730.54,749.73l1.05-2.81c0.04-0.12-0.02-0.25-0.13-0.29l-2.81-1.05c-0.19-0.07-0.37,0.12-0.29,0.31
			l0.52,1.13l-2.93,1.33c-0.27,0.12-0.38,0.43-0.26,0.7l0.29,0.63c0.12,0.27,0.43,0.38,0.7,0.26l2.93-1.33l0.52,1.13
			C730.2,749.93,730.47,749.92,730.54,749.73z"/>
	</g>
	<g>
		<circle class="st0" cx="621.73" cy="649.12" r="4.54"/>
		<path class="st1" d="M619.7,647.7l-0.67,2.92c-0.03,0.12,0.05,0.25,0.17,0.27l2.92,0.67c0.2,0.05,0.35-0.17,0.24-0.34l-0.66-1.06
			l2.73-1.7c0.25-0.15,0.32-0.48,0.17-0.73l-0.37-0.59c-0.15-0.25-0.48-0.32-0.73-0.17l-2.73,1.7l-0.66-1.06
			C620.01,647.46,619.74,647.51,619.7,647.7z"/>
	</g>
	<g>
		<circle class="st0" cx="377.99" cy="646.22" r="4.54"/>
		<path class="st1" d="M375.95,644.8l-0.67,2.92c-0.03,0.12,0.05,0.25,0.17,0.27l2.92,0.67c0.2,0.05,0.35-0.17,0.24-0.34l-0.66-1.06
			l2.73-1.7c0.25-0.15,0.32-0.48,0.17-0.73l-0.37-0.59c-0.15-0.25-0.48-0.32-0.73-0.17l-2.73,1.7l-0.66-1.06
			C376.26,644.56,376,644.61,375.95,644.8z"/>
	</g>
	<g>
		<circle class="st0" cx="475.49" cy="418.52" r="4.54"/>
		<path class="st1" d="M476.91,416.49l-2.92-0.67c-0.12-0.03-0.25,0.05-0.27,0.17l-0.67,2.92c-0.05,0.2,0.17,0.35,0.34,0.24
			l1.06-0.66l1.7,2.73c0.15,0.25,0.48,0.32,0.73,0.17l0.59-0.37c0.25-0.15,0.32-0.48,0.17-0.73l-1.7-2.73l1.06-0.66
			C477.15,416.79,477.1,416.53,476.91,416.49z"/>
	</g>
	<g>
		<circle class="st0" cx="540.49" cy="640.83" r="4.54"/>
		<path class="st1" d="M539.07,642.87l2.92,0.67c0.12,0.03,0.25-0.05,0.27-0.17l0.67-2.92c0.05-0.2-0.17-0.35-0.34-0.24l-1.06,0.66
			l-1.7-2.73c-0.15-0.25-0.48-0.32-0.73-0.17l-0.59,0.37c-0.25,0.15-0.32,0.48-0.17,0.73l1.7,2.73l-1.06,0.66
			C538.83,642.56,538.87,642.82,539.07,642.87z"/>
	</g>
	<g>
		<circle class="st0" cx="373.39" cy="198.34" r="4.54"/>
		<path class="st1" d="M375.42,199.76l0.67-2.92c0.03-0.12-0.05-0.25-0.17-0.27l-2.92-0.67c-0.2-0.05-0.35,0.17-0.24,0.34l0.66,1.06
			l-2.73,1.7c-0.25,0.15-0.32,0.48-0.17,0.73l0.37,0.59c0.15,0.25,0.48,0.32,0.73,0.17l2.73-1.7l0.66,1.06
			C375.12,200,375.38,199.96,375.42,199.76z"/>
	</g>
	<g>
		<circle class="st2" cx="254.8" cy="586.8" r="6.66"/>
		<g>
			<path class="st1" d="M254.43,585.34h-0.02l-1.11,0.53l-0.22-1.02l1.53-0.71h1.12v5.79h-1.31V585.34z"/>
		</g>
	</g>
	<g>
		<circle class="st2" cx="631.33" cy="706.32" r="6.66"/>
		<g>
			<path class="st1" d="M629.23,709.14v-0.82l0.75-0.68c1.27-1.13,1.88-1.78,1.9-2.46c0-0.47-0.29-0.85-0.95-0.85
				c-0.5,0-0.94,0.25-1.24,0.48l-0.38-0.97c0.44-0.33,1.11-0.6,1.9-0.6c1.31,0,2.03,0.77,2.03,1.82c0,0.97-0.7,1.75-1.54,2.5
				l-0.53,0.45v0.02h2.18v1.11H629.23z"/>
		</g>
	</g>
	<g>
		<circle class="st2" cx="693.29" cy="672.17" r="6.66"/>
		<g>
			<path class="st1" d="M691.58,673.66c0.24,0.13,0.79,0.36,1.35,0.36c0.7,0,1.06-0.34,1.06-0.77c0-0.57-0.57-0.83-1.17-0.83h-0.55
				v-0.97h0.53c0.46-0.01,1.03-0.18,1.03-0.67c0-0.35-0.29-0.61-0.86-0.61c-0.47,0-0.97,0.21-1.21,0.35l-0.28-0.98
				c0.35-0.22,1.04-0.44,1.79-0.44c1.24,0,1.92,0.65,1.92,1.44c0,0.61-0.35,1.1-1.06,1.34v0.02c0.7,0.12,1.26,0.65,1.26,1.41
				c0,1.03-0.9,1.77-2.37,1.77c-0.75,0-1.38-0.2-1.72-0.41L691.58,673.66z"/>
		</g>
	</g>
	<g>
		<circle class="st2" cx="140.34" cy="364.18" r="6.66"/>
		<g>
			<path class="st1" d="M140.21,367v-1.38h-2.57v-0.88l2.19-3.53h1.66v3.39h0.69v1.02h-0.69V367H140.21z M140.21,364.6v-1.28
				c0-0.35,0.02-0.7,0.04-1.08h-0.04c-0.19,0.37-0.34,0.71-0.53,1.08l-0.78,1.27v0.02H140.21z"/>
		</g>
	</g>
	<g>
		<circle class="st2" cx="239.46" cy="130.44" r="6.66"/>
		<g>
			<path class="st1" d="M241.38,128.58h-2.25l-0.12,0.89c0.12-0.02,0.23-0.02,0.37-0.02c0.55,0,1.11,0.12,1.52,0.42
				c0.44,0.29,0.7,0.78,0.7,1.45c0,1.08-0.93,2.03-2.49,2.03c-0.7,0-1.29-0.16-1.61-0.33l0.24-1.02c0.26,0.13,0.78,0.29,1.31,0.29
				c0.56,0,1.16-0.27,1.16-0.88c0-0.6-0.47-0.96-1.63-0.96c-0.32,0-0.54,0.02-0.78,0.05l0.38-3.04h3.19V128.58z"/>
		</g>
	</g>
	<g>
		<rect x="269.03" y="571.05" class="st1" width="9.3" height="9.7"/>
		<path d="M278.33,573.32v-2.51c0-0.4-0.33-0.73-0.73-0.73h-8.96c-0.4,0-0.73,0.33-0.73,0.73v10.27c0,0.27,0.16,0.52,0.39,0.64
			l3.71,2.86c0.24,0.12,0.53-0.05,0.53-0.33v-2.79h5.06c0.4,0,0.73-0.33,0.73-0.73v-3.97h-1.45v2.88c0,0.21-0.16,0.36-0.36,0.36
			h-3.96v-6.01c0-0.27-0.15-0.53-0.39-0.79l-1.44-1.67h5.79c0.21,0,0.36,0.16,0.36,0.36v1.43h1.45V573.32z M278.33,573.32"/>
		<g>
			<path class="st0" d="M275.82,577.55c-0.17,0-0.33-0.07-0.45-0.19l-1.78-1.78c-0.25-0.25-0.25-0.66,0-0.91l1.78-1.78
				c0.12-0.12,0.28-0.19,0.45-0.19c0.35,0,0.64,0.29,0.64,0.64v0.59h2.25c0.49,0,0.89,0.4,0.89,0.89v0.58c0,0.49-0.4,0.89-0.89,0.89
				h-2.25v0.6C276.46,577.26,276.17,577.55,275.82,577.55z"/>
			<path class="st1" d="M275.82,573.15c0.1,0,0.19,0.08,0.19,0.19v1.05h2.7c0.24,0,0.44,0.2,0.44,0.44v0.58
				c0,0.24-0.2,0.44-0.44,0.44h-2.7v1.05c0,0.12-0.09,0.19-0.19,0.19c-0.05,0-0.1-0.02-0.13-0.06l-1.78-1.78
				c-0.07-0.07-0.07-0.2,0-0.27l1.78-1.78C275.72,573.17,275.77,573.15,275.82,573.15 M275.82,572.25c-0.29,0-0.56,0.11-0.77,0.32
				l-1.78,1.78c-0.43,0.43-0.43,1.12,0,1.54l1.78,1.78c0.21,0.21,0.48,0.32,0.77,0.32c0.6,0,1.09-0.49,1.09-1.09v-0.15h1.8
				c0.74,0,1.34-0.6,1.34-1.34v-0.58c0-0.74-0.6-1.34-1.34-1.34h-1.8v-0.15C276.91,572.74,276.42,572.25,275.82,572.25
				L275.82,572.25z"/>
		</g>
	</g>
	<g>
		<rect x="289.52" y="558.8" class="st1" width="9.3" height="9.7"/>
		<path d="M298.82,561.07v-2.51c0-0.4-0.33-0.73-0.73-0.73h-8.96c-0.4,0-0.73,0.33-0.73,0.73v10.27c0,0.27,0.16,0.52,0.39,0.64
			l3.71,2.86c0.24,0.12,0.53-0.05,0.53-0.33v-2.79h5.06c0.4,0,0.73-0.33,0.73-0.73v-3.97h-1.45v2.88c0,0.21-0.16,0.36-0.36,0.36
			h-3.96v-6.01c0-0.27-0.15-0.53-0.39-0.79l-1.44-1.67H297c0.21,0,0.36,0.16,0.36,0.36v1.43h1.45V561.07z M298.82,561.07"/>
		<g>
			<path class="st0" d="M296.3,565.3c-0.17,0-0.33-0.07-0.45-0.19l-1.78-1.78c-0.25-0.25-0.25-0.66,0-0.91l1.78-1.78
				c0.12-0.12,0.28-0.19,0.45-0.19c0.35,0,0.64,0.29,0.64,0.64v0.59h2.25c0.49,0,0.89,0.4,0.89,0.89v0.58c0,0.49-0.4,0.89-0.89,0.89
				h-2.25v0.6C296.95,565.01,296.66,565.3,296.3,565.3z"/>
			<path class="st1" d="M296.3,560.9c0.1,0,0.19,0.08,0.19,0.19v1.05h2.7c0.24,0,0.44,0.2,0.44,0.44v0.58c0,0.24-0.2,0.44-0.44,0.44
				h-2.7v1.05c0,0.12-0.09,0.19-0.19,0.19c-0.05,0-0.1-0.02-0.13-0.06l-1.78-1.78c-0.07-0.07-0.07-0.2,0-0.27l1.78-1.78
				C296.21,560.92,296.26,560.9,296.3,560.9 M296.3,560c-0.29,0-0.56,0.11-0.77,0.32l-1.78,1.78c-0.43,0.43-0.43,1.12,0,1.54
				l1.78,1.78c0.21,0.21,0.48,0.32,0.77,0.32c0.6,0,1.09-0.49,1.09-1.09v-0.15h1.8c0.74,0,1.34-0.6,1.34-1.34v-0.58
				c0-0.74-0.6-1.34-1.34-1.34h-1.8v-0.15C297.4,560.49,296.91,560,296.3,560L296.3,560z"/>
		</g>
	</g>
	<g>
		<rect x="156.1" y="346.96" class="st1" width="9.3" height="9.7"/>
		<path d="M165.4,349.24v-2.51c0-0.4-0.33-0.73-0.73-0.73h-8.96c-0.4,0-0.73,0.33-0.73,0.73v10.27c0,0.27,0.16,0.52,0.39,0.64
			l3.71,2.86c0.24,0.12,0.53-0.05,0.53-0.33v-2.79h5.06c0.4,0,0.73-0.33,0.73-0.73v-3.97h-1.45v2.88c0,0.21-0.16,0.36-0.36,0.36
			h-3.96v-6.01c0-0.27-0.15-0.53-0.39-0.79l-1.44-1.67h5.79c0.21,0,0.36,0.16,0.36,0.36v1.43h1.45V349.24z M165.4,349.24"/>
		<g>
			<path class="st0" d="M162.89,353.46c-0.17,0-0.33-0.07-0.45-0.19l-1.78-1.78c-0.25-0.25-0.25-0.66,0-0.91l1.78-1.78
				c0.12-0.12,0.28-0.19,0.45-0.19c0.35,0,0.64,0.29,0.64,0.64v0.6h2.25c0.49,0,0.89,0.4,0.89,0.89v0.58c0,0.49-0.4,0.89-0.89,0.89
				h-2.25v0.6C163.53,353.18,163.24,353.46,162.89,353.46z"/>
			<path class="st1" d="M162.89,349.07c0.1,0,0.19,0.08,0.19,0.19v1.05h2.7c0.24,0,0.44,0.2,0.44,0.44v0.58
				c0,0.24-0.2,0.44-0.44,0.44h-2.7v1.05c0,0.12-0.09,0.19-0.19,0.19c-0.05,0-0.1-0.02-0.13-0.06l-1.78-1.78
				c-0.07-0.07-0.07-0.2,0-0.27l1.78-1.78C162.79,349.09,162.84,349.07,162.89,349.07 M162.89,348.17c-0.29,0-0.56,0.11-0.77,0.32
				l-1.78,1.78c-0.21,0.21-0.32,0.48-0.32,0.77c0,0.29,0.11,0.57,0.32,0.77l1.78,1.78c0.21,0.21,0.48,0.32,0.77,0.32
				c0.6,0,1.09-0.49,1.09-1.09v-0.15h1.8c0.74,0,1.34-0.6,1.34-1.34v-0.58c0-0.74-0.6-1.34-1.34-1.34h-1.8v-0.15
				C163.98,348.66,163.49,348.17,162.89,348.17L162.89,348.17z"/>
		</g>
	</g>
	<g>
		<rect x="244.87" y="144.15" class="st1" width="9.3" height="9.7"/>
		<path d="M254.18,146.43v-2.51c0-0.4-0.33-0.73-0.73-0.73h-8.96c-0.4,0-0.73,0.33-0.73,0.73v10.27c0,0.27,0.16,0.52,0.39,0.64
			l3.71,2.86c0.24,0.12,0.53-0.05,0.53-0.33v-2.79h5.06c0.4,0,0.73-0.33,0.73-0.73v-3.97h-1.45v2.88c0,0.21-0.16,0.36-0.36,0.36
			h-3.96v-6.01c0-0.27-0.15-0.53-0.39-0.79l-1.44-1.67h5.79c0.21,0,0.36,0.16,0.36,0.36v1.43h1.45V146.43z M254.18,146.43"/>
		<g>
			<path class="st0" d="M251.66,150.65c-0.17,0-0.33-0.07-0.45-0.19l-1.78-1.78c-0.12-0.12-0.19-0.28-0.19-0.45
				c0-0.17,0.07-0.33,0.19-0.46l1.78-1.78c0.12-0.12,0.28-0.19,0.45-0.19c0.35,0,0.64,0.29,0.64,0.64v0.6h2.25
				c0.49,0,0.89,0.4,0.89,0.89v0.58c0,0.49-0.4,0.89-0.89,0.89h-2.25v0.6C252.3,150.36,252.02,150.65,251.66,150.65z"/>
			<path class="st1" d="M251.66,146.26c0.1,0,0.19,0.08,0.19,0.19v1.05h2.7c0.24,0,0.44,0.2,0.44,0.44v0.58
				c0,0.24-0.2,0.44-0.44,0.44h-2.7v1.05c0,0.12-0.09,0.19-0.19,0.19c-0.05,0-0.1-0.02-0.13-0.06l-1.78-1.78
				c-0.07-0.07-0.07-0.2,0-0.27l1.78-1.78C251.57,146.28,251.61,146.26,251.66,146.26 M251.66,145.36c-0.29,0-0.56,0.11-0.77,0.32
				l-1.78,1.78c-0.43,0.43-0.43,1.12,0,1.54l1.78,1.78c0.21,0.21,0.48,0.32,0.77,0.32c0.6,0,1.09-0.49,1.09-1.09v-0.15h1.8
				c0.74,0,1.34-0.6,1.34-1.34v-0.58c0-0.74-0.6-1.34-1.34-1.34h-1.8v-0.15C252.75,145.85,252.26,145.36,251.66,145.36
				L251.66,145.36z"/>
		</g>
	</g>
	<g>
		<rect x="646.85" y="690.45" class="st1" width="9.3" height="9.7"/>
		<path d="M656.16,692.73v-2.51c0-0.4-0.33-0.73-0.73-0.73h-8.96c-0.4,0-0.73,0.33-0.73,0.73v10.27c0,0.27,0.16,0.52,0.39,0.64
			l3.71,2.86c0.24,0.12,0.53-0.05,0.53-0.33v-2.79h5.06c0.4,0,0.73-0.33,0.73-0.73v-3.97h-1.45v2.88c0,0.21-0.16,0.36-0.36,0.36
			h-3.96v-6.01c0-0.27-0.15-0.53-0.39-0.79l-1.44-1.67h5.79c0.21,0,0.36,0.16,0.36,0.36v1.43h1.45V692.73z M656.16,692.73"/>
		<g>
			<path class="st0" d="M653.64,696.95c-0.17,0-0.33-0.07-0.45-0.19l-1.78-1.78c-0.12-0.12-0.19-0.28-0.19-0.46
				c0-0.17,0.07-0.33,0.19-0.45l1.78-1.78c0.12-0.12,0.28-0.19,0.45-0.19c0.35,0,0.64,0.29,0.64,0.64v0.6h2.25
				c0.49,0,0.89,0.4,0.89,0.89v0.58c0,0.49-0.4,0.89-0.89,0.89h-2.25v0.59C654.28,696.66,653.99,696.95,653.64,696.95z"/>
			<path class="st1" d="M653.64,692.56c0.1,0,0.19,0.08,0.19,0.19v1.05h2.7c0.24,0,0.44,0.2,0.44,0.44v0.58
				c0,0.24-0.2,0.44-0.44,0.44h-2.7v1.05c0,0.12-0.09,0.19-0.19,0.19c-0.05,0-0.1-0.02-0.13-0.06l-1.78-1.78
				c-0.07-0.07-0.07-0.2,0-0.27l1.78-1.78C653.55,692.57,653.59,692.56,653.64,692.56 M653.64,691.66c-0.29,0-0.56,0.11-0.77,0.32
				l-1.78,1.78c-0.21,0.21-0.32,0.48-0.32,0.77s0.11,0.57,0.32,0.77l1.78,1.78c0.21,0.21,0.48,0.32,0.77,0.32
				c0.6,0,1.09-0.49,1.09-1.09v-0.15h1.8c0.74,0,1.34-0.6,1.34-1.34v-0.58c0-0.74-0.6-1.34-1.34-1.34h-1.8v-0.15
				C654.73,692.15,654.24,691.66,653.64,691.66L653.64,691.66z"/>
		</g>
	</g>
	<g>
		<rect x="669.49" y="677.87" class="st1" width="9.3" height="9.7"/>
		<path d="M678.8,680.15v-2.51c0-0.4-0.33-0.73-0.73-0.73h-8.96c-0.4,0-0.73,0.33-0.73,0.73v10.27c0,0.27,0.16,0.52,0.39,0.64
			l3.71,2.86c0.24,0.12,0.53-0.05,0.53-0.33v-2.79h5.06c0.4,0,0.73-0.33,0.73-0.73v-3.97h-1.45v2.88c0,0.21-0.16,0.36-0.36,0.36
			h-3.96v-6.01c0-0.27-0.15-0.53-0.39-0.79l-1.44-1.67h5.79c0.21,0,0.36,0.16,0.36,0.36v1.43h1.45V680.15z M678.8,680.15"/>
		<g>
			<path class="st0" d="M676.28,684.37c-0.17,0-0.33-0.07-0.45-0.19l-1.78-1.78c-0.25-0.25-0.25-0.66,0-0.91l1.78-1.78
				c0.12-0.12,0.28-0.19,0.45-0.19c0.35,0,0.64,0.29,0.64,0.64v0.6h2.25c0.49,0,0.89,0.4,0.89,0.89v0.58c0,0.49-0.4,0.89-0.89,0.89
				h-2.25v0.59C676.92,684.08,676.63,684.37,676.28,684.37z"/>
			<path class="st1" d="M676.28,679.97c0.1,0,0.19,0.08,0.19,0.19v1.05h2.7c0.24,0,0.44,0.2,0.44,0.44v0.58
				c0,0.24-0.2,0.44-0.44,0.44h-2.7v1.05c0,0.12-0.09,0.19-0.19,0.19c-0.05,0-0.1-0.02-0.13-0.06l-1.78-1.78
				c-0.07-0.07-0.07-0.2,0-0.27l1.78-1.78C676.19,679.99,676.23,679.97,676.28,679.97 M676.28,679.07c-0.29,0-0.56,0.11-0.77,0.32
				l-1.78,1.78c-0.21,0.21-0.32,0.48-0.32,0.77s0.11,0.57,0.32,0.77l1.78,1.78c0.21,0.21,0.48,0.32,0.77,0.32
				c0.6,0,1.09-0.49,1.09-1.09v-0.15h1.8c0.74,0,1.34-0.6,1.34-1.34v-0.58c0-0.74-0.6-1.34-1.34-1.34h-1.8v-0.15
				C677.37,679.56,676.88,679.07,676.28,679.07L676.28,679.07z"/>
		</g>
	</g>
</g>
</svg>
