<?xml version="1.0" encoding="utf-8"?>
<!-- Generator: Adobe Illustrator 19.0.0, SVG Export Plug-In . SVG Version: 6.00 Build 0)  -->
<svg version="1.0" id="icones" xmlns="http://www.w3.org/2000/svg" xmlns:xlink="http://www.w3.org/1999/xlink" x="0px" y="0px"
	 viewBox="0 0 477.333 416.333" style="enable-background:new 0 0 477.333 416.333;" xml:space="preserve">
<style type="text/css">
	.st0{fill:#1D1D1B;}
	.st1{fill:#FFFFFF;}
</style>
<g>
	<path class="st0" d="M400.434,242.008h-7.594c-1.034,0-1.872-0.838-1.872-1.872v-7.594c0-1.034,0.838-1.872,1.872-1.872h7.594
		c1.034,0,1.872,0.838,1.872,1.872v7.594C402.306,241.17,401.468,242.008,400.434,242.008z"/>
	<polygon class="st1" points="396.637,232.642 396.637,235.107 394.55,235.107 394.55,237.572 392.463,237.572 392.463,240.037 
		396.637,240.037 396.637,237.572 398.724,237.572 398.724,235.107 400.811,235.107 400.811,232.642 	"/>
</g>
<g>
	<path class="st0" d="M310.748,299.619h-7.594c-1.034,0-1.872-0.838-1.872-1.872v-7.594c0-1.034,0.838-1.872,1.872-1.872h7.594
		c1.034,0,1.872,0.838,1.872,1.872v7.594C312.62,298.781,311.782,299.619,310.748,299.619z"/>
	<polygon class="st1" points="306.951,290.252 306.951,292.717 304.864,292.717 304.864,295.182 302.776,295.182 302.776,297.647 
		306.951,297.647 306.951,295.182 309.038,295.182 309.038,292.717 311.125,292.717 311.125,290.252 	"/>
</g>
<g>
	<path class="st0" d="M266.469,402.065h-7.594c-1.034,0-1.872-0.838-1.872-1.872v-7.594c0-1.034,0.838-1.872,1.872-1.872h7.594
		c1.034,0,1.872,0.838,1.872,1.872v7.594C268.341,401.227,267.503,402.065,266.469,402.065z"/>
	<polygon class="st1" points="262.671,392.699 262.671,395.163 260.584,395.163 260.584,397.628 258.497,397.628 258.497,400.093 
		262.671,400.093 262.671,397.628 264.759,397.628 264.759,395.163 266.846,395.163 266.846,392.699 	"/>
</g>
<g>
	<path class="st0" d="M142.961,161.155h-7.594c-1.034,0-1.872-0.838-1.872-1.872v-7.594c0-1.034,0.838-1.872,1.872-1.872h7.594
		c1.034,0,1.872,0.838,1.872,1.872v7.594C144.834,160.317,143.995,161.155,142.961,161.155z"/>
	<polygon class="st1" points="139.164,151.789 139.164,154.253 137.077,154.253 137.077,156.718 134.99,156.718 134.99,159.183 
		139.164,159.183 139.164,156.718 141.251,156.718 141.251,154.253 143.339,154.253 143.339,151.789 	"/>
</g>
<g>
	<path class="st0" d="M37.104,31.77H29.51c-1.034,0-1.872-0.838-1.872-1.872v-7.594c0-1.034,0.838-1.872,1.872-1.872h7.594
		c1.034,0,1.872,0.838,1.872,1.872v7.594C38.976,30.932,38.138,31.77,37.104,31.77z"/>
	<polygon class="st1" points="33.307,22.404 33.307,24.869 31.22,24.869 31.22,27.334 29.133,27.334 29.133,29.798 33.307,29.798 
		33.307,27.334 35.394,27.334 35.394,24.869 37.481,24.869 37.481,22.404 	"/>
</g>
<g>
	<g>
		<path class="st0" d="M108.302,171.12h-7.594c-1.034,0-1.872-0.838-1.872-1.872v-7.594c0-1.034,0.838-1.872,1.872-1.872h7.594
			c1.034,0,1.872,0.838,1.872,1.872v7.594C110.174,170.281,109.336,171.12,108.302,171.12z"/>
		<g>
			<path class="st1" d="M103.036,170.042h-2.058c-0.517,0-0.936-0.419-0.936-0.936v-7.311c0-0.517,0.419-0.936,0.936-0.936h2.058
				c0.517,0,0.936,0.419,0.936,0.936v7.311C103.972,169.623,103.553,170.042,103.036,170.042z"/>
			<path class="st1" d="M108.032,170.042h-2.058c-0.517,0-0.936-0.419-0.936-0.936v-7.311c0-0.517,0.419-0.936,0.936-0.936h2.058
				c0.517,0,0.936,0.419,0.936,0.936v7.311C108.968,169.623,108.549,170.042,108.032,170.042z"/>
		</g>
	</g>
	<path class="st0" d="M103.49,164.788l-1.444-1.444c-0.061-0.061-0.159-0.061-0.22,0l-1.444,1.444
		c-0.098,0.098-0.029,0.265,0.11,0.265h0.849v2.19c0,0.199,0.161,0.36,0.36,0.36h0.471c0.199,0,0.36-0.161,0.36-0.36v-2.19h0.849
		C103.519,165.053,103.588,164.886,103.49,164.788z"/>
	<path class="st0" d="M105.449,166.113l1.444,1.444c0.061,0.061,0.159,0.061,0.22,0l1.444-1.444c0.098-0.098,0.029-0.265-0.11-0.265
		h-0.849v-2.19c0-0.199-0.161-0.36-0.36-0.36h-0.471c-0.199,0-0.36,0.161-0.36,0.36v2.19h-0.849
		C105.42,165.848,105.351,166.015,105.449,166.113z"/>
</g>
<g>
	<g>
		<path class="st0" d="M251.856,330.742h-7.594c-1.034,0-1.872-0.838-1.872-1.872v-7.594c0-1.034,0.838-1.872,1.872-1.872h7.594
			c1.034,0,1.872,0.838,1.872,1.872v7.594C253.728,329.904,252.89,330.742,251.856,330.742z"/>
		<g>
			<path class="st1" d="M246.59,329.664h-2.058c-0.517,0-0.936-0.419-0.936-0.936v-7.311c0-0.517,0.419-0.936,0.936-0.936h2.058
				c0.517,0,0.936,0.419,0.936,0.936v7.311C247.526,329.245,247.107,329.664,246.59,329.664z"/>
			<path class="st1" d="M251.586,329.664h-2.058c-0.517,0-0.936-0.419-0.936-0.936v-7.311c0-0.517,0.419-0.936,0.936-0.936h2.058
				c0.517,0,0.936,0.419,0.936,0.936v7.311C252.522,329.245,252.103,329.664,251.586,329.664z"/>
		</g>
	</g>
	<path class="st0" d="M247.045,324.41l-1.444-1.444c-0.061-0.061-0.159-0.061-0.22,0l-1.444,1.444
		c-0.098,0.098-0.029,0.265,0.11,0.265h0.849v2.19c0,0.199,0.161,0.36,0.36,0.36h0.471c0.199,0,0.36-0.161,0.36-0.36v-2.19h0.849
		C247.073,324.675,247.143,324.508,247.045,324.41z"/>
	<path class="st0" d="M249.003,325.735l1.444,1.444c0.061,0.061,0.159,0.061,0.22,0l1.444-1.444c0.098-0.098,0.029-0.265-0.11-0.265
		h-0.849v-2.19c0-0.199-0.161-0.36-0.36-0.36h-0.471c-0.199,0-0.36,0.161-0.36,0.36v2.19h-0.849
		C248.975,325.47,248.905,325.637,249.003,325.735z"/>
</g>
<g>
	<path class="st0" d="M326.423,288.392h-7.594c-1.034,0-1.872-0.838-1.872-1.872v-7.594c0-1.034,0.838-1.872,1.872-1.872h7.594
		c1.034,0,1.872,0.838,1.872,1.872v7.594C328.295,287.554,327.457,288.392,326.423,288.392z"/>
	<g>
		<circle class="st1" cx="322.626" cy="278.817" r="0.779"/>
		<path class="st1" d="M324.737,282.642l-0.668-2.199c-0.13-0.389-0.518-0.695-1.084-0.695h-0.718c-0.567,0-0.955,0.306-1.085,0.695
			l-0.668,2.199c-0.138,0.473,0.408,0.641,0.551,0.199l0.705-2.011h0.081c0,0-0.926,3.6-0.965,3.735
			c-0.02,0.067,0.008,0.116,0.08,0.116c0.044,0,0.802,0,0.802,0l0.001,2.364c0,0.481,0.72,0.481,0.72,0v-2.382h0.276l0,2.382
			c0,0.481,0.72,0.481,0.72,0l0-2.364c0,0,0.757,0,0.801,0c0.071,0,0.1-0.049,0.08-0.116c-0.039-0.135-0.966-3.735-0.966-3.735
			h0.082l0.705,2.011C324.329,283.283,324.876,283.115,324.737,282.642z"/>
	</g>
</g>
<g>
	<path class="st0" d="M90.437,171.93h-7.594c-1.034,0-1.872-0.838-1.872-1.872v-7.594c0-1.034,0.838-1.872,1.872-1.872h7.594
		c1.034,0,1.872,0.838,1.872,1.872v7.594C92.309,171.092,91.471,171.93,90.437,171.93z"/>
	<g>
		<circle class="st1" cx="86.64" cy="162.355" r="0.779"/>
		<path class="st1" d="M88.751,166.181l-0.668-2.199c-0.13-0.389-0.518-0.695-1.084-0.695h-0.718c-0.567,0-0.955,0.306-1.085,0.695
			l-0.668,2.199c-0.138,0.473,0.408,0.641,0.551,0.199l0.705-2.011h0.081c0,0-0.926,3.6-0.965,3.735
			c-0.02,0.067,0.008,0.116,0.08,0.116c0.044,0,0.802,0,0.802,0l0.001,2.364c0,0.481,0.72,0.481,0.72,0v-2.382h0.276l0,2.382
			c0,0.481,0.72,0.481,0.72,0l0-2.364c0,0,0.757,0,0.801,0c0.071,0,0.1-0.049,0.08-0.116c-0.039-0.135-0.966-3.735-0.966-3.735
			h0.082l0.705,2.011C88.344,166.822,88.89,166.654,88.751,166.181z"/>
	</g>
</g>
<g>
	<path class="st0" d="M342.571,278.058h-7.594c-1.034,0-1.872-0.838-1.872-1.872v-7.594c0-1.034,0.838-1.872,1.872-1.872h7.594
		c1.034,0,1.872,0.838,1.872,1.872v7.594C344.443,277.22,343.605,278.058,342.571,278.058z"/>
	<g>
		<circle class="st1" cx="338.774" cy="268.439" r="0.787"/>
		<path class="st1" d="M339.621,269.381l-0.847,0.001l-0.846-0.001c-0.759,0-1.006,0.196-1.006,1.022v2.417
			c0,0.469,0.634,0.469,0.634,0l0.054-2.21h0.163v6.051c0,0.628,0.862,0.61,0.862,0l0.055-3.513h0.171l0.054,3.513
			c0,0.61,0.862,0.628,0.862,0v-6.051h0.163l0.055,2.21c0,0.469,0.633,0.469,0.633,0v-2.417
			C340.625,269.576,340.379,269.381,339.621,269.381z"/>
	</g>
</g>
<g>
	<path class="st0" d="M100.469,187.677h-7.594c-1.034,0-1.872-0.838-1.872-1.872v-7.594c0-1.034,0.838-1.872,1.872-1.872h7.594
		c1.034,0,1.872,0.838,1.872,1.872v7.594C102.341,186.839,101.502,187.677,100.469,187.677z"/>
	<g>
		<circle class="st1" cx="96.672" cy="178.058" r="0.787"/>
		<path class="st1" d="M97.518,179.001l-0.847,0.001l-0.846-0.001c-0.759,0-1.006,0.196-1.006,1.022v2.417
			c0,0.469,0.634,0.469,0.634,0l0.054-2.21h0.163v6.051c0,0.628,0.862,0.61,0.862,0l0.055-3.513h0.171l0.054,3.513
			c0,0.61,0.862,0.628,0.862,0v-6.051h0.163l0.055,2.21c0,0.469,0.633,0.469,0.633,0v-2.417
			C98.523,179.196,98.277,179.001,97.518,179.001z"/>
	</g>
</g>
<g>
</g>
<g>
</g>
<g>
</g>
<g>
</g>
<g>
</g>
<g>
</g>
</svg>
