<?xml version="1.0" encoding="utf-8"?>
<!-- Generator: Adobe Illustrator 19.0.1, SVG Export Plug-In . SVG Version: 6.00 Build 0)  -->
<svg version="1.1" xmlns="http://www.w3.org/2000/svg" xmlns:xlink="http://www.w3.org/1999/xlink" x="0px" y="0px"
	 width="761.962px" height="716.964px" viewBox="0 0 761.962 716.964" style="enable-background:new 0 0 761.962 716.964;"
	 xml:space="preserve">
<style type="text/css">
	.st0{fill:#FFFFFF;stroke:#383938;stroke-width:0.5;stroke-miterlimit:10;}
	.st1{fill:#ECF0F2;stroke:#383938;stroke-width:0.5;stroke-miterlimit:10;}
	.st2{fill:#ED855A;stroke:#383938;stroke-width:0.5;stroke-miterlimit:10;}
	.st3{fill:#A3CCCB;stroke:#383938;stroke-width:0.5;stroke-miterlimit:10;}
	.st4{fill:#62A2A1;stroke:#383938;stroke-width:0.5;stroke-miterlimit:10;}
	.st5{fill:none;stroke:#383938;stroke-width:0.5;stroke-miterlimit:10;}
</style>
<g id="locaux">
	<path class="st0" d="M545.835,610.855c-21.814,13.642-130.315,81.496-135.775,84.84c-31.96,19.573-94.731,16.597-122.82-28.355
		c-1.41-2.256-37.781-60.462-37.781-60.462l21.188-13.239l-66.858-106.995l-21.262,13.286l-19.092-30.553L89.509,351.07
		l-11.261-18.021l14.266-8.914l-18.68-29.894l-12.297,7.684L8.943,217.756l20.919-13.071l4.616,7.388l197.03-123.118l4.951-21.326
		l8.193,13.112l106.854-66.77l151.047,241.726l46.219-28.881L681.65,439.465l15.689-9.803l47.825,76.536l-48.339,30.205
		l-9.009-14.417l-58.966,36.846l9.207,14.735l-83.082,51.916L545.835,610.855z"/>
	
		<rect x="552.976" y="598.874" transform="matrix(-0.5299 -0.848 0.848 -0.5299 340.1348 1411.7881)" class="st1" width="16.749" height="25.5"/>
	<path class="st0" d="M607.131,592.893l14.816,23.71c0,0,27.397,42.272-16.702,72.658l-15.406,9.627l-30.102-23.955l26.113-16.71
		c0,0,13.904-8.885,5.567-22.542l-14.816-23.71L607.131,592.893z"/>
	
		<rect x="521.513" y="313.81" transform="matrix(0.5299 0.848 -0.848 0.5299 518.8853 -297.1414)" class="st1" width="11.917" height="11.333"/>
	<path class="st1" d="M546.1,611.279l-48.289-77.279l-99.363,62.089l2.826,4.523l-9.329,5.829l-25.263-5.832l-3.886-6.219
		l-8.268-1.909l-2.28,9.875l-13.78-3.181l-10.318,6.447l-25.171-40.282l-35.971,22.477l3.638,5.821l-21.188,13.239
		c0,0,37.781,60.462,38.046,60.886c22.79,36.472,78.667,55.945,122.82,28.355L546.1,611.279z"/>
	<polygon class="st1" points="204.054,487.067 209.212,483.843 204.692,476.608 193.384,483.674 188.748,476.253 173.634,485.698 
		182.791,500.353 	"/>
	
		<rect x="190.53" y="473.831" transform="matrix(-0.848 0.5299 -0.5299 -0.848 611.6509 780.9136)" class="st1" width="6.667" height="8.641"/>
	
		<rect x="186.284" y="461.27" transform="matrix(0.848 -0.5299 0.5299 0.848 -218.7799 172.1472)" class="st1" width="9" height="12.583"/>
	<polygon class="st1" points="191.267,459.841 188.44,455.318 164.139,470.503 173.634,485.698 190.302,475.282 183.634,464.611 	
		"/>
	
		<rect x="161.628" y="440.456" transform="matrix(0.5299 0.848 -0.848 0.5299 466.1617 68.5896)" class="st1" width="19.167" height="28.655"/>
	
		<rect x="139.997" y="417.842" transform="matrix(0.5299 0.848 -0.848 0.5299 440.3407 69.9428)" class="st1" width="34.167" height="28.655"/>
	
		<rect x="130.688" y="393.743" transform="matrix(0.5299 0.848 -0.848 0.5299 412.8251 71.3848)" class="st1" width="22.667" height="28.655"/>
	
		<rect x="125.944" y="378.549" transform="matrix(-0.5299 -0.848 0.848 -0.5299 -130.4219 713.4586)" class="st1" width="13.167" height="28.655"/>
	
		<rect x="117.947" y="366.817" transform="matrix(-0.5299 -0.848 0.848 -0.5299 -131.6883 689.2939)" class="st1" width="14.5" height="28.655"/>
	<polygon class="st1" points="133.505,367.404 127.411,357.652 119.779,362.421 113.067,351.679 96.398,362.095 109.204,382.589 	
		"/>
	
		<rect x="85.442" y="320.072" transform="matrix(0.5299 0.848 -0.848 0.5299 327.2947 76.6764)" class="st1" width="18.083" height="26.989"/>
	
		<rect x="236.224" y="442.316" transform="matrix(-0.5299 -0.848 0.848 -0.5299 -6.5084 897.1907)" class="st1" width="18.364" height="16.167"/>
	
		<rect x="208.499" y="416.768" transform="matrix(-0.5299 -0.848 0.848 -0.5299 -36.1212 861.347)" class="st1" width="24.333" height="47.833"/>
	
		<rect x="196.497" y="396.627" transform="matrix(-0.5299 -0.848 0.848 -0.5299 -38.2954 819.8596)" class="st1" width="23.167" height="47.833"/>
	<polygon class="st1" points="181.659,423.394 160.374,389.331 168.855,384.032 164.792,377.53 196.877,357.481 222.224,398.046 	
		"/>
	
		<rect x="157.583" y="379.597" transform="matrix(0.848 -0.5299 0.5299 0.848 -178.4824 144.4189)" class="st1" width="10" height="7.667"/>
	
		<rect x="153.987" y="374.722" transform="matrix(0.848 -0.5299 0.5299 0.848 -175.675 142.1249)" class="st1" width="12" height="5.333"/>
	
		<rect x="166.638" y="340.72" transform="matrix(0.5299 0.848 -0.848 0.5299 387.097 18.9319)" class="st1" width="19.667" height="35.833"/>
	<polygon class="st1" points="186.455,340.803 172.059,317.765 150.716,331.101 160.52,346.79 162.922,345.288 167.515,352.638 	"/>
	<polygon class="st1" points="142.993,357.741 133.19,342.052 150.716,331.101 160.52,346.79 155.431,349.969 151.369,343.468 
		146.846,346.294 150.908,352.795 	"/>
	
		<rect x="147.305" y="345.465" transform="matrix(0.5299 0.848 -0.848 0.5299 366.2795 35.4772)" class="st1" width="7.667" height="5.333"/>
	<polygon class="st1" points="153.485,378.306 150.306,373.218 152.002,372.158 150.677,370.038 159.158,364.739 163.662,371.947 	
		"/>
	
		<rect x="148.372" y="361.998" transform="matrix(0.848 -0.5299 0.5299 0.848 -170.0704 136.7242)" class="st1" width="10" height="5.833"/>
	<polygon class="st1" points="672.332,424.553 640.672,444.337 678.738,505.255 587.856,562.044 607.132,592.892 638.058,573.567 
		629.116,559.256 688.082,522.41 697.09,536.827 745.429,506.622 697.339,429.661 681.65,439.465 	"/>
	<polygon class="st1" points="606.357,318.971 595.474,325.772 576.706,295.737 561.017,305.54 554.702,295.435 535.056,307.711 
		502.642,255.839 548.861,226.958 	"/>
	
		<rect x="538.461" y="321.066" transform="matrix(0.5299 0.848 -0.848 0.5299 532.1257 -311.3477)" class="st1" width="16.89" height="6.5"/>
	
		<rect x="131.137" y="312.081" transform="matrix(-0.5299 -0.848 0.848 -0.5299 -61.9782 618.6403)" class="st1" width="18.667" height="28.833"/>
	<polygon class="st2" points="172.059,317.765 270.998,255.941 261.106,240.11 252.625,245.41 240.525,226.046 234.306,229.932 
		246.406,249.296 147.75,310.943 157.642,326.773 	"/>
	<polygon class="st3" points="104.713,324.471 127.469,310.252 95.939,259.793 85.762,266.152 84.251,272.698 75.7,278.041 	"/>
	
		<rect x="56.835" y="274.929" transform="matrix(-0.5299 -0.848 0.848 -0.5299 -141.2321 496.2379)" class="st1" width="20.167" height="24.667"/>
	
		<rect x="56.835" y="274.929" transform="matrix(0.5299 0.848 -0.848 0.5299 275.0692 78.2862)" class="st1" width="20.167" height="24.667"/>
	
		<rect x="0.697" y="232.632" transform="matrix(-0.5299 -0.848 0.848 -0.5299 -145.798 409.1141)" class="st1" width="79.583" height="24.667"/>
	
		<rect x="37.337" y="206.914" transform="matrix(0.5299 0.848 -0.848 0.5299 218.8578 52.8318)" class="st3" width="48.872" height="33.833"/>
	
		<rect x="99.932" y="127.824" transform="matrix(-0.5299 -0.848 0.848 -0.5299 45.4585 407.0125)" class="st4" width="71.205" height="126.167"/>
	
		<rect x="94.903" y="265.353" transform="matrix(0.5299 0.848 -0.848 0.5299 290.9092 23.892)" class="st1" width="58" height="18"/>
	
		<rect x="148.401" y="186.841" transform="matrix(0.5299 0.848 -0.848 0.5299 287.708 -37.191)" class="st2" width="58" height="108.167"/>
	<polygon class="st1" points="255.183,97.593 195.396,134.952 205.023,150.359 190.323,159.544 170.166,127.285 231.508,88.955 
		236.459,67.629 	"/>
	<path class="st0" d="M275.182,61.664l-14.994-23.995c0,0-25.984-43.155-72.626-16.84L160.354,37.83l30.667,23.602l15.936-9.565
		c0,0,14.081-8.602,22.701,4.878l14.994,23.995L275.182,61.664z"/>
	
		<rect x="117.446" y="329.446" transform="matrix(0.5299 0.848 -0.848 0.5299 340.4466 52.0426)" class="st1" width="11.667" height="7.333"/>
</g>
<g id="murs">
	<polyline class="st5" points="534.244,341.008 535.406,342.868 540.211,339.865 543.17,344.6 553.912,337.887 560.139,347.852 
		568.902,342.376 559.084,326.665 548.625,333.2 539.675,318.877 545.187,315.432 538.872,305.326 519.508,317.426 530.107,334.387 
			"/>
	<polyline class="st5" points="494.596,525.395 490.004,518.046 449.863,543.128 459.225,558.111 	"/>
	<polyline class="st5" points="243.417,462.47 216.562,479.25 215.044,476.821 	"/>
	<line class="st5" x1="110.719" y1="334.083" x2="121.317" y2="351.044"/>
	<polyline class="st5" points="398.448,596.088 389.086,581.106 370.146,592.941 	"/>
	<polyline class="st5" points="324.988,242.643 280.183,270.64 270.998,255.941 310.715,231.123 	"/>
	<line class="st5" x1="319.617" y1="245.999" x2="315.024" y2="238.649"/>
	<line class="st5" x1="309.487" y1="252.329" x2="304.895" y2="244.979"/>
	<polyline class="st5" points="78.29,260.798 79.774,254.368 73.945,245.039 60.376,253.518 72.034,272.175 74.296,270.762 
		75.25,266.628 73.042,263.095 	"/>
	<line class="st5" x1="75.25" y1="266.628" x2="79.729" y2="267.662"/>
	<line class="st5" x1="92.546" y1="261.913" x2="82.743" y2="246.224"/>
	<polyline class="st5" points="86.717,252.584 96.046,246.755 92.071,240.395 	"/>
	<line class="st5" x1="96.046" y1="246.755" x2="98.165" y2="250.147"/>
	<polyline class="st5" points="228.599,243.128 232.043,248.641 222.291,254.735 	"/>
	<line class="st5" x1="244.653" y1="80.741" x2="265.958" y2="114.837"/>
	<g>
	</g>
	<g>
	</g>
	<g>
	</g>
	<g>
	</g>
	<g>
	</g>
	<g>
	</g>
</g>
</svg>
