<?xml version="1.0" encoding="utf-8"?>
<!-- Generator: Adobe Illustrator 19.0.1, SVG Export Plug-In . SVG Version: 6.00 Build 0)  -->
<svg version="1.1" xmlns="http://www.w3.org/2000/svg" xmlns:xlink="http://www.w3.org/1999/xlink" x="0px" y="0px" width="983px"
	 height="1010px" viewBox="0 0 983 1010" style="enable-background:new 0 0 983 1010;" xml:space="preserve">
<style type="text/css">
	.st0{fill:#FFFFFF;stroke:#383838;stroke-width:0.5;stroke-miterlimit:10;}
	.st1{fill:#EBF0F2;stroke:#383838;stroke-width:0.5;stroke-miterlimit:10;}
	.st2{fill:#BFD9E0;stroke:#383838;stroke-width:0.5;stroke-miterlimit:10;}
	.st3{fill:#61A1A1;stroke:#383838;stroke-width:0.5;stroke-miterlimit:10;}
	.st4{fill:#A3CCCB;stroke:#383838;stroke-width:0.5;stroke-miterlimit:10;}
	.st5{fill:#C7DEE2;stroke:#383838;stroke-width:0.5;stroke-miterlimit:10;}
	.st6{fill:#ED9B7E;stroke:#383838;stroke-width:0.5;stroke-miterlimit:10;}
	.st7{fill:#ED865B;stroke:#383838;stroke-width:0.5;stroke-miterlimit:10;}
	.st8{fill:#FFFFFF;}
	.st9{fill:none;stroke:#383838;stroke-width:0.5;stroke-miterlimit:10;}
	.st10{fill:none;stroke:#383838;stroke-width:0.5;stroke-miterlimit:10;stroke-dasharray:2.001,2.001;}
	.st11{fill:none;stroke:#383838;stroke-width:0.5;stroke-miterlimit:10;stroke-dasharray:2.0485,2.0485;}
	.st12{fill:none;stroke:#383838;stroke-width:0.5;stroke-miterlimit:10;stroke-dasharray:1.9069,1.9069;}
	.st13{fill:none;stroke:#383838;stroke-width:0.5;stroke-miterlimit:10;stroke-dasharray:1.9045,1.9045;}
	.st14{fill:none;stroke:#383838;stroke-width:0.5;stroke-miterlimit:10;stroke-dasharray:1.9103,1.9103;}
	.st15{fill:none;stroke:#383838;stroke-width:0.5;stroke-miterlimit:10;stroke-dasharray:1.9638,1.9638;}
	.st16{fill:none;stroke:#383838;stroke-width:0.5;stroke-miterlimit:10;stroke-dasharray:2.0901,2.0901;}
	.st17{fill:none;stroke:#383838;stroke-width:0.5;stroke-miterlimit:10;stroke-dasharray:2.0297,2.0297;}
	.st18{fill:none;stroke:#383838;stroke-width:0.5;stroke-miterlimit:10;stroke-dasharray:2.0013,2.0013;}
</style>
<g id="locaux">
	<path class="st0" d="M368.837,729.018c-8.005-11.89-40.097-64.169-40.097-64.169l20.919-13.071l-30.523-48.848l-21.046,13.072
		l-37.624-60.211l5.18-3.237l-90.837-145.37l-5.088,3.18l-18.856-30.176l20.636-12.895l-19.784-31.66l-20.728,12.952l-54.582-87.349
		l20.728-12.952l5.123,8.198l143.037-89.38l-7.066-11.307l55.123-34.445l7.242,11.59l133.144-83.197l156.326,250.174l47.491-29.675
		L776.04,491.864l16.396-10.245l49.812,79.716l-50.6,31.619l-9.892-15.83l-59.646,37.271l9.892,15.83l-65.3,40.804l23.14,37.031
		l61.306-27.695l95.381,202.963l-25.616,10.64l6.533,15.434l-21.484,10.28l9.539,15.265l-42.685,26.673l-86.553-138.515
		l17.244-10.775l-8.832-14.134l5.936-3.709l-34.231-74.91l11.748-4.787l-7.949-12.721l-10.865,6.2l-25.613-40.989
		c0,0-137.633,86.077-143.603,89.733C458.544,776.338,401.622,777.711,368.837,729.018z"/>
	<polygon class="st1" points="808.577,882.084 800.098,868.515 802.36,867.102 795.242,851.307 825.212,837.969 839.204,867.743 	
		"/>
	<polygon class="st1" points="815.607,896.165 846.366,883.43 839.204,867.743 808.577,882.084 801.89,886.262 805.776,892.481 
		812.148,889.236 	"/>
	<polygon class="st1" points="818.915,913.508 805.776,892.481 812.148,889.236 815.607,896.165 820.913,893.968 827.283,909.504 	
		"/>
	
		<rect x="699.105" y="626.266" transform="matrix(0.5299 0.848 -0.848 0.5299 869.7991 -304.1279)" class="st1" width="20.25" height="12.5"/>
	
		<rect x="692.726" y="628.915" transform="matrix(0.848 -0.5299 0.5299 0.848 -232.4575 467.4049)" class="st1" width="12.125" height="20.25"/>
	
		<rect x="681.519" y="635.605" transform="matrix(0.848 -0.5299 0.5299 0.848 -237.6297 462.7478)" class="st1" width="13.125" height="20.25"/>
	
		<rect x="671.12" y="642.351" transform="matrix(0.848 -0.5299 0.5299 0.848 -242.8445 458.0524)" class="st1" width="12.333" height="20.25"/>
	
		<rect x="660.376" y="648.968" transform="matrix(0.848 -0.5299 0.5299 0.848 -247.9603 453.4461)" class="st1" width="12.641" height="20.25"/>
	
		<rect x="689.863" y="601.027" transform="matrix(0.848 -0.5299 0.5299 0.848 -217.8585 461.5409)" class="st1" width="12" height="19.25"/>
	
		<rect x="679.109" y="607.552" transform="matrix(0.848 -0.5299 0.5299 0.848 -222.9026 456.9991)" class="st1" width="12.625" height="19.25"/>
	<polygon class="st1" points="685.169,628.684 679.515,632.217 672.21,630.591 658.631,608.86 668.807,602.501 	"/>
	
		<rect x="653.584" y="610.307" transform="matrix(0.848 -0.5299 0.5299 0.848 -228.4877 443.5322)" class="st1" width="11.125" height="19.75"/>
	
		<rect x="640.592" y="617.222" transform="matrix(0.848 -0.5299 0.5299 0.848 -233.834 438.7184)" class="st1" width="14.975" height="19.75"/>
	
		<rect x="654.695" y="634.34" transform="matrix(-0.5299 -0.848 0.848 -0.5299 472.4605 1540.5283)" class="st1" width="17" height="9.958"/>
	
		<rect x="646.72" y="639.878" transform="matrix(-0.5299 -0.848 0.848 -0.5299 456.0331 1541.3892)" class="st1" width="17" height="8.85"/>
	
		<rect x="624.349" y="577.857" transform="matrix(0.5299 0.848 -0.848 0.5299 808.3962 -264.5722)" class="st1" width="37" height="38.1"/>
	
		<rect x="660.213" y="560.904" transform="matrix(-0.848 0.5299 -0.5299 -0.848 1552.9769 725.1238)" class="st1" width="24.625" height="48.625"/>
	<polygon class="st1" points="722.11,614.395 720.287,615.535 699.973,583.026 731.669,563.22 751.982,595.729 	"/>
	
		<rect x="687.517" y="538.747" transform="matrix(0.5299 0.848 -0.848 0.5299 804.6163 -336.6976)" class="st1" width="37" height="37.375"/>
	<polygon class="st1" points="712.062,531.843 731.567,519.654 743.44,512.236 783.36,576.122 751.982,595.729 	"/>
	
		<rect x="733.318" y="515.138" transform="matrix(-0.848 0.5299 -0.5299 -0.848 1643.9408 569.5081)" class="st1" width="14" height="10.625"/>
	<polygon class="st0" points="812.043,512.997 763.047,543.613 783.36,576.122 781.756,577.124 791.648,592.954 842.248,561.336 	
		"/>
	<polygon class="st0" points="776.04,491.864 769.411,496.007 789.018,527.385 812.043,512.997 792.436,481.619 	"/>
	
		<rect x="750.916" y="501.31" transform="matrix(0.848 -0.5299 0.5299 0.848 -159.0274 485.0256)" class="st0" width="30.625" height="37"/>
	
		<rect x="721.909" y="470.261" transform="matrix(0.848 -0.5299 0.5299 0.848 -142.8423 467.7471)" class="st1" width="44.567" height="25.375"/>
	
		<rect x="713.861" y="485.349" transform="matrix(0.848 -0.5299 0.5299 0.848 -154.5062 457.2449)" class="st1" width="12.375" height="25.375"/>
	<polygon class="st1" points="717.815,506.138 712.302,509.583 702.565,494 692.389,500.359 662.978,453.292 673.049,446.999 
		636.948,389.226 642.566,385.715 657.801,410.097 706.091,379.922 756.367,460.381 708.077,490.555 	"/>
	
		<rect x="696.346" y="495.783" transform="matrix(0.848 -0.5299 0.5299 0.848 -160.871 448.9177)" class="st2" width="12" height="18.375"/>
	<polygon class="st1" points="681.183,528.66 684.793,534.437 673.875,541.26 660.693,520.165 670.233,514.203 679.805,529.521 	"/>
	
		<rect x="637.469" y="530.301" transform="matrix(0.848 -0.5299 0.5299 0.848 -187.5358 424.8776)" class="st2" width="19.25" height="18.292"/>
	<polygon class="st3" points="643.778,552.303 606.91,575.341 580.944,533.787 617.53,510.925 	"/>
	
		<rect x="622.473" y="503.892" transform="matrix(-0.848 0.5299 -0.5299 -0.848 1441.9078 618.5953)" class="st3" width="19.583" height="24.271"/>
	
		<rect x="595.413" y="479.083" transform="matrix(0.5299 0.848 -0.848 0.5299 705.2723 -289.6797)" class="st3" width="37.042" height="24.5"/>
	
		<rect x="560.762" y="478.884" transform="matrix(0.848 -0.5299 0.5299 0.848 -174.7316 382.656)" class="st3" width="38.225" height="34.25"/>
	
		<rect x="594.414" y="457.996" transform="matrix(0.5299 0.848 -0.848 0.5299 681.1962 -288.4179)" class="st3" width="12.688" height="24.5"/>
	
		<rect x="559.626" y="431.68" transform="matrix(0.5299 0.848 -0.848 0.5299 651.1489 -286.8432)" class="st1" width="49.375" height="24.5"/>
	
		<rect x="538.605" y="435.862" transform="matrix(0.848 -0.5299 0.5299 0.848 -159.308 365.5264)" class="st1" width="38.225" height="49.375"/>
	
		<rect x="580.046" y="507.481" transform="matrix(0.5299 0.848 -0.848 0.5299 717.6182 -253.8474)" class="st3" width="15.479" height="25.808"/>
	
		<rect x="597.785" y="502.517" transform="matrix(-0.848 0.5299 -0.5299 -0.848 1386.6046 622.9116)" class="st3" width="12.417" height="15.479"/>
	<path class="st4" d="M633.701,667.281L595.9,606.787L491.64,671.936l-33.657,22.407l-2.651,11.483l9.001,2.139l-0.822,3.56
		l11.393,18.233l-12.367,7.728l7.859,28.176c0,0,11.189-3.354,21.66-9.871L633.701,667.281z"/>
	<polygon class="st1" points="485.742,675.862 464.177,670.918 457.983,694.343 	"/>
	
		<rect x="373.46" y="633.969" transform="matrix(-0.848 0.5299 -0.5299 -0.848 1037.1495 974.9565)" class="st1" width="10.666" height="4.417"/>
	
		<rect x="335.698" y="617.423" transform="matrix(-0.848 0.5299 -0.5299 -0.848 970.5215 974.9705)" class="st1" width="19.558" height="18.417"/>
	
		<rect x="331.162" y="603.814" transform="matrix(0.5299 0.848 -0.848 0.5299 678.9281 2.3669)" class="st1" width="12.333" height="19.558"/>
	
		<rect x="349.077" y="595.877" transform="matrix(-0.848 0.5299 -0.5299 -0.848 986.3505 939.6727)" class="st1" width="18.749" height="30.75"/>
	
		<rect x="343.238" y="584.922" transform="matrix(0.5299 0.848 -0.848 0.5299 665.775 -18.4133)" class="st1" width="12.517" height="12.832"/>
	
		<rect x="320.516" y="595.23" transform="matrix(-0.848 0.5299 -0.5299 -0.848 934.6089 934.9814)" class="st1" width="25.475" height="12.517"/>
	
		<rect x="291.099" y="591.653" transform="matrix(-0.848 0.5299 -0.5299 -0.848 879.4788 950.3407)" class="st1" width="24.775" height="19.221"/>
	<polygon class="st1" points="351.622,582.631 342.578,568.158 328.244,577.114 327.052,575.206 308.899,586.549 319.1,602.874 	"/>
	<path class="st0" d="M260.465,555.791l5.18-3.237l-1.369-2.191l15.83-9.892l10.024,16.042l18.768,30.035l-21.011,13.129
		C287.888,599.678,261.698,557.969,260.465,555.791z"/>
	
		<rect x="655.281" y="479.79" transform="matrix(0.5299 0.848 -0.848 0.5299 737.3 -333.1697)" class="st1" width="27.792" height="37.375"/>
	
		<rect x="640.649" y="456.274" transform="matrix(0.5299 0.848 -0.848 0.5299 710.4501 -331.7626)" class="st1" width="27.667" height="37.375"/>
	<polygon class="st1" points="631.304,473.133 601.982,426.208 643.749,400.109 673.049,446.999 	"/>
	
		<rect x="592.929" y="409.315" transform="matrix(0.5299 0.848 -0.848 0.5299 635.2073 -315.4396)" class="st1" width="18.417" height="11.875"/>
	<polygon class="st5" points="636.948,389.226 633.989,384.491 624.413,390.475 634.173,406.093 643.749,400.109 	"/>
	
		<rect x="649.258" y="380.302" transform="matrix(-0.848 0.5299 -0.5299 -0.848 1458.2222 358.3823)" class="st1" width="56.942" height="15.917"/>
	
		<rect x="656.892" y="359.196" transform="matrix(0.848 -0.5299 0.5299 0.848 -92.6016 414.3692)" class="st1" width="38.692" height="18.917"/>
	
		<rect x="653.517" y="371.259" transform="matrix(0.848 -0.5299 0.5299 0.848 -101.9269 405.9727)" class="st1" width="6.833" height="18.917"/>
	
		<rect x="476.439" y="631.869" transform="matrix(-0.848 0.5299 -0.5299 -0.848 1237.1853 926.98)" class="st2" width="18.5" height="18"/>
	
		<rect x="492.102" y="621.974" transform="matrix(-0.848 0.5299 -0.5299 -0.848 1261.2052 900.3032)" class="st2" width="18.844" height="18"/>
	<polygon class="st1" points="504.745,618.349 497.723,607.112 489.412,605.193 478.547,611.983 488.764,628.334 	"/>
	<polygon class="st1" points="478.547,611.983 473.564,615.096 471.661,623.343 466.029,626.862 473.075,638.138 488.764,628.334 	
		"/>
	<polygon class="st1" points="473.564,615.096 470.6,610.352 459.894,617.043 466.029,626.862 471.661,623.343 	"/>
	<polygon class="st3" points="470.6,610.352 486.316,600.532 488.155,592.566 461.675,550.19 453.386,548.276 427.163,564.662 
		459.894,617.043 	"/>
	<polygon class="st1" points="427.163,564.662 423.859,559.375 408.17,569.179 417.907,584.762 433.596,574.958 	"/>
	
		<rect x="401.604" y="571.062" transform="matrix(0.848 -0.5299 0.5299 0.848 -245.5206 304.2666)" class="st1" width="12.375" height="18.375"/>
	
		<rect x="390.994" y="577.653" transform="matrix(0.848 -0.5299 0.5299 0.848 -250.6159 299.6787)" class="st1" width="12.5" height="18.375"/>
	
		<rect x="380.74" y="584.177" transform="matrix(0.848 -0.5299 0.5299 0.848 -255.6601 295.1369)" class="st1" width="12.125" height="18.375"/>
	
		<rect x="388.821" y="600.235" transform="matrix(-0.5299 -0.848 0.848 -0.5299 89.9706 1262.4666)" class="st1" width="12.125" height="12.125"/>
	
		<rect x="399.55" y="595.366" transform="matrix(-0.848 0.5299 -0.5299 -0.848 1062.8716 898.0842)" class="st1" width="6.25" height="12.125"/>
	
		<rect x="403.91" y="588.776" transform="matrix(-0.848 0.5299 -0.5299 -0.848 1078.8715 880.3146)" class="st1" width="18.625" height="12.125"/>
	<polygon class="st1" points="424.333,595.044 427.839,600.656 443.528,590.853 433.596,574.958 417.907,584.762 	"/>
	
		<rect x="431.187" y="594.617" transform="matrix(-0.5299 -0.848 0.848 -0.5299 162.2084 1297.6478)" class="st1" width="19.133" height="18.5"/>
	
		<rect x="423.995" y="607.35" transform="matrix(0.848 -0.5299 0.5299 0.848 -260.1527 320.9806)" class="st1" width="11.25" height="13.542"/>
	
		<rect x="412.26" y="613.94" transform="matrix(0.848 -0.5299 0.5299 0.848 -265.2481 316.3927)" class="st1" width="13.625" height="13.542"/>
	<polygon class="st1" points="392.955,614.651 406.6,636.489 416.883,630.063 409.707,618.579 430.802,605.398 424.333,595.044 	"/>
	<polygon class="st1" points="406.6,636.489 412.805,646.418 428.335,636.714 432.596,643.534 448.444,633.631 437.978,616.882 	"/>
	<polygon class="st1" points="412.805,646.418 415.145,650.163 440.346,655.936 428.335,636.714 	"/>
	<polygon class="st1" points="440.346,655.936 451.212,649.147 452.404,651.055 457.386,647.941 448.444,633.631 432.596,643.534 	
		"/>
	<path class="st1" d="M445.463,628.86"/>
	<path class="st1" d="M445.463,628.86"/>
	
		<rect x="450.019" y="622.249" transform="matrix(0.848 -0.5299 0.5299 0.848 -265.9165 339.6371)" class="st1" width="18.5" height="22.5"/>
	
		<rect x="442.503" y="608.719" transform="matrix(-0.5299 -0.848 0.848 -0.5299 163.7307 1326.6959)" class="st1" width="14.125" height="18.5"/>
	
		<rect x="368.772" y="567.067" transform="matrix(-0.848 0.5299 -0.5299 -0.848 1002.2996 859.2287)" class="st1" width="18.375" height="12.5"/>
	
		<rect x="384.806" y="558.903" transform="matrix(-0.848 0.5299 -0.5299 -0.848 1022.1185 837.2176)" class="st1" width="12.437" height="12.5"/>
	
		<rect x="395.349" y="552.295" transform="matrix(-0.848 0.5299 -0.5299 -0.848 1038.1584 819.4033)" class="st1" width="12.5" height="12.5"/>
	
		<rect x="405.974" y="545.754" transform="matrix(-0.848 0.5299 -0.5299 -0.848 1054.0377 801.7676)" class="st1" width="12.188" height="12.5"/>
	<polygon class="st1" points="420.547,554.075 426.483,550.366 431.254,547.385 424.63,536.784 413.923,543.475 	"/>
	<polygon class="st1" points="425.9,550.73 434.556,552.728 450.271,542.908 452.195,534.576 445.447,523.776 424.63,536.784 
		431.254,547.385 	"/>
	<polygon class="st6" points="800.098,868.515 793.411,872.694 767.004,830.432 732.746,756.326 777.306,736.027 825.212,837.969 
		795.242,851.307 802.36,867.102 	"/>
	<path class="st1" d="M699.323,722.967"/>
	<polygon class="st7" points="751.148,680.365 777.306,736.027 732.746,756.326 723.031,735.078 726.644,733.509 721.204,722.758 
		704.826,730.928 699.323,722.967 727.892,709.44 720.843,694.055 	"/>
	<polygon class="st7" points="800.992,944.013 783.35,915.781 797.838,906.728 728.882,796.376 686.218,823.035 772.816,961.62 	"/>
	<polygon class="st7" points="698.776,790.472 666.38,719.577 678.128,714.79 719.837,781.539 	"/>
	<line class="st1" x1="719.837" y1="781.539" x2="724.143" y2="788.429"/>
	<polygon class="st3" points="519.09,433.687 550.9,413.81 531.558,382.856 541.841,376.431 523.029,346.325 507.587,355.974 
		514.741,367.423 493.55,380.664 505.473,399.745 500.013,403.158 	"/>
	<polygon class="st4" points="500.013,403.158 417.655,454.621 339.315,329.251 422.521,277.258 482.843,373.794 487.456,370.912 
		493.55,380.664 493.55,380.664 505.473,399.745 	"/>
	<polygon class="st1" points="520.566,608.462 526.925,618.639 534.87,620.504 545.259,614.012 535.5,598.394 	"/>
	
		<rect x="507.905" y="565.229" transform="matrix(0.5299 0.848 -0.848 0.5299 742.0627 -172.0426)" class="st1" width="36.625" height="36.215"/>
	<polygon class="st1" points="551.278,589.271 566.937,579.486 569.852,584.151 580.512,577.49 582.44,569.136 563.33,538.553 
		531.87,558.212 	"/>
	
		<rect x="518.627" y="513.774" transform="matrix(0.5299 0.848 -0.848 0.5299 704.1338 -205.6462)" class="st1" width="37.875" height="37.097"/>
	
		<rect x="487.374" y="533.547" transform="matrix(0.5299 0.848 -0.848 0.5299 705.8881 -170.1468)" class="st1" width="38.094" height="36.215"/>
	
		<rect x="475.9" y="530.286" transform="matrix(0.5299 0.848 -0.848 0.5299 681.6295 -157.1196)" class="st1" width="13.281" height="12"/>
	
		<rect x="485.735" y="524.543" transform="matrix(0.5299 0.848 -0.848 0.5299 681.041 -168.3494)" class="st1" width="13.281" height="11.195"/>
	<polygon class="st1" points="493.604,521.543 495.042,517.843 503.387,512.629 511.683,525.906 500.642,532.806 	"/>
	<polygon class="st1" points="495.042,517.843 490.689,516.878 481.357,501.945 492.399,495.045 503.387,512.629 	"/>
	
		<rect x="475.679" y="503.573" transform="matrix(0.848 -0.5299 0.5299 0.848 -198.3881 332.8944)" class="st1" width="11.195" height="17.609"/>
	<polygon class="st1" points="481.195,522.811 471.019,529.17 464.858,519.311 466.722,511.09 471.864,507.877 	"/>
	<path class="st1" d="M543.26,506.433c0,0-16.226-25.2-16.096-25.759c0.129-0.56-8.816-1.843-8.816-1.843l-25.948,16.214
		l19.284,30.861L543.26,506.433z"/>
	<polygon class="st1" points="278.884,541.236 283.619,538.277 273.506,522.094 254.164,534.18 264.277,550.364 	"/>
	
		<rect x="150.175" y="453.73" transform="matrix(0.5299 0.848 -0.848 0.5299 499.9733 28.2921)" class="st3" width="148.583" height="22.808"/>
	<path class="st1" d="M323.053,513.636"/>
	<polygon class="st3" points="337.046,504.892 248.196,362.703 204.239,390.17 282.976,516.176 312.941,497.452 323.053,513.636 	
		"/>
	<polygon class="st1" points="501.431,474.496 511.808,468.012 513.746,459.615 507.305,449.306 499.833,447.581 488.894,454.417 	
		"/>
	<path class="st1" d="M491.694,458.913"/>
	
		<rect x="451" y="444.832" transform="matrix(0.848 -0.5299 0.5299 0.848 -171.2325 318.2552)" class="st1" width="36.656" height="25.75"/>
	
		<rect x="480.726" y="462.058" transform="matrix(0.848 -0.5299 0.5299 0.848 -175.3729 330.8935)" class="st2" width="17.139" height="18.375"/>
	
		<rect x="463.993" y="471.771" transform="matrix(0.848 -0.5299 0.5299 0.848 -182.8815 324.1327)" class="st2" width="19.517" height="18.375"/>
	<line class="st1" x1="479.423" y1="439.276" x2="448.337" y2="458.701"/>
	<line class="st1" x1="480.775" y1="441.44" x2="449.689" y2="460.864"/>
	<line class="st1" x1="482.127" y1="443.603" x2="451.04" y2="463.028"/>
	<line class="st1" x1="483.479" y1="445.767" x2="452.392" y2="465.191"/>
	<line class="st1" x1="484.831" y1="447.93" x2="453.744" y2="467.355"/>
	<line class="st1" x1="486.183" y1="450.094" x2="455.096" y2="469.519"/>
	<line class="st1" x1="487.534" y1="452.257" x2="456.448" y2="471.682"/>
	<line class="st1" x1="488.886" y1="454.421" x2="457.8" y2="473.846"/>
	<polygon class="st1" points="343.512,500.852 361.074,489.878 298.853,390.303 293.623,393.571 316.719,430.531 304.387,438.237 	
		"/>
	
		<rect x="300.799" y="421.707" transform="matrix(0.5299 0.848 -0.848 0.5299 508.1908 -58.8443)" class="st1" width="12.75" height="14.542"/>
	
		<rect x="294.234" y="411.001" transform="matrix(0.5299 0.848 -0.848 0.5299 495.9662 -58.2036)" class="st1" width="12.5" height="14.542"/>
	
		<rect x="287.738" y="400.471" transform="matrix(0.5299 0.848 -0.848 0.5299 483.9432 -57.5735)" class="st1" width="12.333" height="14.542"/>
	<polygon class="st1" points="293.623,393.571 289.384,386.786 277.052,394.492 284.47,406.365 296.803,398.659 	"/>
	<polygon class="st1" points="277.052,394.492 254.663,358.662 272.224,347.688 298.853,390.303 293.623,393.571 289.384,386.786 	
		"/>
	
		<rect x="356.559" y="474.132" transform="matrix(-0.848 0.5299 -0.5299 -0.848 928.6268 694.3175)" class="st1" width="16.417" height="12.333"/>
	
		<rect x="362.386" y="437.203" transform="matrix(-0.848 0.5299 -0.5299 -0.848 945.3239 640.3378)" class="st1" width="36.938" height="37"/>
	
		<rect x="347.637" y="422.765" transform="matrix(-0.848 0.5299 -0.5299 -0.848 905.558 604.5324)" class="st1" width="36.938" height="18.667"/>
	
		<rect x="337.745" y="406.935" transform="matrix(-0.848 0.5299 -0.5299 -0.848 878.8887 580.5193)" class="st1" width="36.938" height="18.667"/>
	
		<rect x="350.023" y="463.673" transform="matrix(-0.848 0.5299 -0.5299 -0.848 911.0059 678.4517)" class="st1" width="16.417" height="12.333"/>
	
		<rect x="343.488" y="453.213" transform="matrix(-0.848 0.5299 -0.5299 -0.848 893.3851 662.5858)" class="st1" width="16.417" height="12.333"/>
	
		<rect x="336.952" y="442.754" transform="matrix(-0.848 0.5299 -0.5299 -0.848 875.7643 646.72)" class="st1" width="16.417" height="12.333"/>
	
		<rect x="330.416" y="432.295" transform="matrix(-0.848 0.5299 -0.5299 -0.848 858.1436 630.8541)" class="st1" width="16.417" height="12.333"/>
	
		<rect x="323.969" y="421.977" transform="matrix(-0.848 0.5299 -0.5299 -0.848 840.7609 615.2027)" class="st1" width="16.417" height="12.333"/>
	
		<rect x="317.433" y="411.518" transform="matrix(-0.848 0.5299 -0.5299 -0.848 823.1401 599.3369)" class="st1" width="16.417" height="12.333"/>
	
		<rect x="310.787" y="400.673" transform="matrix(-0.848 0.5299 -0.5299 -0.848 805.2216 583.2031)" class="st1" width="16.417" height="12.75"/>
	
		<rect x="301.116" y="384.946" transform="matrix(-0.848 0.5299 -0.5299 -0.848 779.1476 559.7259)" class="st1" width="16.417" height="13.25"/>
	
		<rect x="294.326" y="374.518" transform="matrix(-0.848 0.5299 -0.5299 -0.848 760.8422 543.2437)" class="st1" width="16.417" height="12.375"/>
	
		<rect x="287.769" y="364.024" transform="matrix(-0.848 0.5299 -0.5299 -0.848 743.1619 527.3242)" class="st1" width="16.417" height="12.375"/>
	
		<rect x="281.211" y="353.529" transform="matrix(-0.848 0.5299 -0.5299 -0.848 725.4816 511.4048)" class="st1" width="16.417" height="12.375"/>
	
		<rect x="274.454" y="342.342" transform="matrix(-0.848 0.5299 -0.5299 -0.848 707.2655 495.0029)" class="st1" width="16.417" height="13.125"/>
	<polygon class="st1" points="322.578,397.292 335.605,418.14 366.93,398.566 347.522,367.506 316.197,387.08 319.796,392.84 
		305.874,401.54 308.656,405.992 	"/>
	
		<rect x="303.253" y="342.968" transform="matrix(0.5299 0.848 -0.848 0.5299 457.8587 -103.1256)" class="st1" width="37.396" height="36.938"/>
	
		<rect x="305.101" y="323.263" transform="matrix(0.5299 0.848 -0.848 0.5299 429.935 -110.6283)" class="st2" width="19.313" height="18.469"/>
	
		<rect x="289.86" y="332.628" transform="matrix(0.848 -0.5299 0.5299 0.848 -135.9351 210.5067)" class="st2" width="18.469" height="19.313"/>
	
		<rect x="347.032" y="309.278" transform="matrix(0.5299 0.848 -0.848 0.5299 434.7976 -147.3393)" class="st1" width="6.542" height="18.5"/>
	
		<rect x="400.487" y="265.044" transform="matrix(0.5299 0.848 -0.848 0.5299 425.3062 -218.4444)" class="st1" width="18.417" height="18.74"/>
	
		<rect x="383.962" y="275.271" transform="matrix(0.848 -0.5299 0.5299 0.848 -90.9451 251.7964)" class="st1" width="19.25" height="18.417"/>
	
		<rect x="386.303" y="239.906" transform="matrix(-0.5299 -0.848 0.848 -0.5299 396.3528 712.3785)" class="st1" width="18.625" height="12.865"/>
	
		<rect x="381.692" y="227.026" transform="matrix(-0.5299 -0.848 0.848 -0.5299 394.9624 685.8483)" class="st2" width="11.75" height="12.865"/>
	
		<rect x="364.087" y="210.754" transform="matrix(-0.5299 -0.848 0.848 -0.5299 393.2058 652.3307)" class="st1" width="26.625" height="12.865"/>
	
		<rect x="345.01" y="180.225" transform="matrix(-0.5299 -0.848 0.848 -0.5299 389.9101 589.4445)" class="st1" width="26.625" height="12.865"/>
	
		<rect x="342.088" y="163.847" transform="matrix(-0.5299 -0.848 0.848 -0.5299 388.142 555.7086)" class="st1" width="12" height="12.865"/>
	
		<rect x="330.757" y="150.914" transform="matrix(-0.5299 -0.848 0.848 -0.5299 386.7459 529.0692)" class="st1" width="18.5" height="12.865"/>
	
		<rect x="310.74" y="122.82" transform="matrix(-0.5299 -0.848 0.848 -0.5299 378.7308 474.3126)" class="st1" width="20.167" height="18.74"/>
	
		<rect x="294.649" y="132.64" transform="matrix(-0.5299 -0.848 0.848 -0.5299 345.5862 476.0497)" class="st1" width="20.167" height="19.208"/>
	<polygon class="st4" points="353.541,283.61 390.113,260.758 357.523,208.603 331.551,224.831 320.951,231.455 	"/>
	
		<rect x="333.059" y="195.042" transform="matrix(0.5299 0.848 -0.848 0.5299 334.113 -196.9213)" class="st1" width="23.25" height="15.75"/>
	<polygon class="st4" points="345.202,188.886 324.668,156.024 298.272,172.517 308.076,188.206 297.899,194.565 320.951,231.455 
		344.166,216.949 331.846,197.232 	"/>
	<polygon class="st3" points="297.899,194.565 353.541,283.61 343.364,289.969 277.919,185.235 298.272,172.517 308.076,188.206 	
		"/>
	
		<rect x="325.972" y="114.08" transform="matrix(0.5299 0.848 -0.848 0.5299 357.7441 -287.1505)" class="st3" width="223.833" height="130.077"/>
	<polygon class="st1" points="507.587,355.974 523.029,346.325 541.841,376.431 531.558,382.856 550.9,413.81 677.74,334.552 
		637.555,270.241 590.064,299.917 552.351,239.564 442.04,308.494 482.843,373.794 487.456,370.912 493.55,380.664 514.741,367.423 
			"/>
	
		<rect x="219.571" y="235.97" transform="matrix(-0.5299 -0.848 0.848 -0.5299 145.014 664.5716)" class="st7" width="74.25" height="112.25"/>
	
		<rect x="172.506" y="168.724" transform="matrix(-0.5299 -0.848 0.848 -0.5299 123.3379 535.0645)" class="st3" width="74.917" height="129.25"/>
	
		<rect x="156.762" y="313.404" transform="matrix(-0.5299 -0.848 0.848 -0.5299 15.6385 671.3519)" class="st6" width="74.25" height="35.875"/>
	
		<rect x="127.264" y="322.079" transform="matrix(-0.5299 -0.848 0.848 -0.5299 -74.7104 627.187)" class="st0" width="18.417" height="24.442"/>
	
		<rect x="156.851" y="369.428" transform="matrix(-0.5299 -0.848 0.848 -0.5299 -69.599 724.7189)" class="st0" width="18.417" height="24.442"/>
	<polygon class="st0" points="114.561,322.296 124.879,315.848 116.577,302.562 126.987,296.057 97.134,248.284 76.407,261.236 	"/>
	
		<rect x="122.545" y="270.234" transform="matrix(-0.848 0.5299 -0.5299 -0.848 396.6341 458.4016)" class="st1" width="20.1" height="31.667"/>
	
		<rect x="133.634" y="245.142" transform="matrix(-0.848 0.5299 -0.5299 -0.848 405.3919 415.8731)" class="st1" width="18.875" height="41.833"/>
	<polygon class="st1" points="159.002,309.363 152.864,299.54 162.369,293.601 155.657,282.859 162.159,278.796 175.009,299.361 	
		"/>
	
		<rect x="147.927" y="285.595" transform="matrix(0.5299 0.848 -0.848 0.5299 319.466 6.0668)" class="st1" width="12.667" height="11.208"/>
	<path class="st7" d="M375.44,640.876l-2.34-3.746l-44.36,27.719l40.097,64.169c0,0,32.427,55.149,101.558,36.643l-7.859-28.176
		l12.367-7.728l-11.393-18.233l0.822-3.56l-9.001-2.139l8.845-34.908l-43.009-9.385l-6.628,28.708l-7.844-1.78l2.783-13.236
		L390.8,645.33l-9.045,5.652L375.44,640.876z"/>
	<polygon class="st1" points="409.48,675.224 417.563,677.149 414.541,690.24 406.697,688.46 	"/>
	<polygon class="st2" points="762.893,850.804 748.278,860.061 756.945,874.376 771.74,864.962 	"/>
	<polygon class="st2" points="771.74,864.962 756.945,874.376 766.112,889.236 780.98,879.75 	"/>
	<g>
		<line class="st8" x1="97.134" y1="248.284" x2="114.561" y2="322.296"/>
		<g>
			<line class="st9" x1="97.134" y1="248.284" x2="97.364" y2="249.257"/>
			<line class="st10" x1="97.822" y1="251.205" x2="114.102" y2="320.348"/>
			<line class="st9" x1="114.332" y1="321.322" x2="114.561" y2="322.296"/>
		</g>
	</g>
	<g>
		<line class="st8" x1="76.407" y1="261.236" x2="126.987" y2="296.057"/>
		<g>
			<line class="st9" x1="76.407" y1="261.236" x2="77.23" y2="261.803"/>
			<line class="st11" x1="78.918" y1="262.965" x2="125.319" y2="294.909"/>
			<line class="st9" x1="126.163" y1="295.49" x2="126.987" y2="296.057"/>
		</g>
	</g>
	<g>
		<line class="st8" x1="141.957" y1="320.015" x2="130.988" y2="348.585"/>
		<g>
			<line class="st9" x1="141.957" y1="320.015" x2="141.598" y2="320.948"/>
			<line class="st12" x1="140.915" y1="322.728" x2="131.688" y2="346.761"/>
			<line class="st9" x1="131.347" y1="347.651" x2="130.988" y2="348.585"/>
		</g>
	</g>
	<g>
		<g>
			<line class="st9" x1="121.229" y1="332.967" x2="122.225" y2="333.054"/>
			<line class="st12" x1="124.125" y1="333.22" x2="149.77" y2="335.463"/>
			<line class="st9" x1="150.72" y1="335.546" x2="151.716" y2="335.633"/>
		</g>
	</g>
	<g>
		<g>
			<line class="st9" x1="150.864" y1="380.188" x2="151.86" y2="380.279"/>
			<line class="st13" x1="153.756" y1="380.453" x2="179.359" y2="382.804"/>
			<line class="st9" x1="180.307" y1="382.891" x2="181.303" y2="382.982"/>
		</g>
	</g>
	<g>
		<g>
			<line class="st9" x1="171.5" y1="367.293" x2="171.143" y2="368.228"/>
			<line class="st14" x1="170.463" y1="370.012" x2="161.272" y2="394.108"/>
			<line class="st9" x1="160.932" y1="395" x2="160.575" y2="395.934"/>
		</g>
	</g>
</g>
<g id="murs">
	<polyline class="st9" points="720.843,694.055 727.892,709.44 699.323,722.967 696.623,718.645 	"/>
	<polyline class="st9" points="686.278,525.845 702.126,515.942 692.389,500.359 670.233,514.203 679.805,529.521 681.183,528.66 	
		"/>
	<polyline class="st9" points="634.173,406.093 624.413,390.475 608.071,400.687 	"/>
	<line class="st9" x1="649.024" y1="374.506" x2="644.289" y2="377.465"/>
	<polyline class="st9" points="457.041,658.475 458.233,660.383 476.147,664.519 485.793,658.491 473.075,638.138 452.404,651.055 
		452.404,651.055 	"/>
	<line class="st9" x1="485.793" y1="658.491" x2="496.5" y2="651.801"/>
	<polyline class="st9" points="514.283,633.614 517.463,638.702 506.465,645.574 	"/>
	<line class="st9" x1="576.366" y1="594.575" x2="545.047" y2="614.145"/>
	<line class="st9" x1="323.053" y1="513.636" x2="293.089" y2="532.36"/>
	<line class="st9" x1="380.544" y1="281.771" x2="350.121" y2="300.782"/>
	<line class="st9" x1="126.987" y1="296.057" x2="137.143" y2="312.311"/>
	<line class="st9" x1="291.244" y1="138.782" x2="268.771" y2="152.825"/>
	<line class="st9" x1="301.931" y1="155.885" x2="279.458" y2="169.927"/>
	<g>
		<line class="st8" x1="812.043" y1="512.997" x2="791.648" y2="592.954"/>
		<g>
			<line class="st9" x1="812.043" y1="512.997" x2="811.796" y2="513.966"/>
			<line class="st15" x1="811.31" y1="515.869" x2="792.138" y2="591.034"/>
			<line class="st9" x1="791.895" y1="591.985" x2="791.648" y2="592.954"/>
		</g>
	</g>
	<g>
		<line class="st8" x1="792.436" y1="481.619" x2="789.018" y2="527.385"/>
		<g>
			<line class="st9" x1="792.436" y1="481.619" x2="792.361" y2="482.617"/>
			<line class="st16" x1="792.206" y1="484.701" x2="789.17" y2="525.345"/>
			<line class="st9" x1="789.093" y1="526.387" x2="789.018" y2="527.385"/>
		</g>
	</g>
	<g>
		<line class="st8" x1="763.047" y1="543.613" x2="842.248" y2="561.336"/>
		<g>
			<line class="st9" x1="763.047" y1="543.613" x2="764.022" y2="543.832"/>
			<line class="st17" x1="766.003" y1="544.275" x2="840.282" y2="560.896"/>
			<line class="st9" x1="841.272" y1="561.118" x2="842.248" y2="561.336"/>
		</g>
	</g>
	<g>
		<line class="st8" x1="769.411" y1="496.007" x2="812.043" y2="512.997"/>
		<g>
			<line class="st9" x1="769.411" y1="496.007" x2="770.34" y2="496.377"/>
			<line class="st16" x1="772.282" y1="497.151" x2="810.143" y2="512.24"/>
			<line class="st9" x1="811.114" y1="512.627" x2="812.043" y2="512.997"/>
		</g>
	</g>
	<g>
		<line class="st8" x1="743.44" y1="512.236" x2="789.018" y2="527.385"/>
		<g>
			<line class="st9" x1="743.44" y1="512.236" x2="744.389" y2="512.551"/>
			<line class="st18" x1="746.288" y1="513.182" x2="787.12" y2="526.754"/>
			<line class="st9" x1="788.069" y1="527.069" x2="789.018" y2="527.385"/>
		</g>
	</g>
	<g>
		<line class="st8" x1="769.411" y1="496.007" x2="763.047" y2="543.613"/>
		<g>
			<line class="st9" x1="769.411" y1="496.007" x2="769.279" y2="496.998"/>
			<line class="st18" x1="769.013" y1="498.982" x2="763.312" y2="541.63"/>
			<line class="st9" x1="763.179" y1="542.622" x2="763.047" y2="543.613"/>
		</g>
	</g>
	<line class="st1" x1="689.842" y1="708.061" x2="692.403" y2="712.159"/>
</g>
</svg>
