<?xml version="1.0" encoding="utf-8"?>
<!-- Generator: Adobe Illustrator 19.0.1, SVG Export Plug-In . SVG Version: 6.00 Build 0)  -->
<svg version="1.1" id="numeros_locaux" xmlns="http://www.w3.org/2000/svg" xmlns:xlink="http://www.w3.org/1999/xlink" x="0px"
	 y="0px" width="422.979px" height="403.48px" viewBox="0 0 422.979 403.48" style="enable-background:new 0 0 422.979 403.48;"
	 xml:space="preserve">
<style type="text/css">
	.st0{fill:#383938;}
</style>
<g>
	<g>
		<path class="st0" d="M96.97,106.241l0.111-1.191h1.093v0.332h-0.753l-0.051,0.518c0.036-0.03,0.082-0.056,0.135-0.076
			c0.055-0.021,0.112-0.031,0.174-0.033c0.18-0.004,0.318,0.058,0.415,0.183s0.146,0.3,0.146,0.526c0,0.209-0.053,0.38-0.161,0.514
			c-0.106,0.134-0.272,0.201-0.496,0.201c-0.18,0-0.334-0.053-0.463-0.157s-0.191-0.247-0.186-0.428l0.003-0.007l0.401-0.021
			c0,0.093,0.022,0.164,0.067,0.215s0.104,0.076,0.177,0.076c0.085,0,0.146-0.033,0.184-0.1c0.037-0.066,0.056-0.163,0.056-0.291
			c0-0.126-0.021-0.227-0.063-0.301c-0.042-0.073-0.105-0.11-0.19-0.11c-0.067,0-0.119,0.016-0.155,0.047s-0.061,0.074-0.075,0.129
			L96.97,106.241z"/>
		<path class="st0" d="M99.649,106.388h0.204v0.325h-0.204v0.469h-0.416v-0.469h-0.769l-0.021-0.254l0.788-1.41h0.417V106.388z
			 M98.811,106.388h0.422v-0.771l-0.009-0.002l-0.038,0.086L98.811,106.388z"/>
		<path class="st0" d="M101.022,107.182h-0.415v-1.773l-0.39,0.01V105.1l0.804-0.082V107.182z"/>
		<path class="st0" d="M102.596,107.182h-0.415v-1.773l-0.39,0.01V105.1l0.804-0.082V107.182z"/>
	</g>
</g>
<g>
	<g>
		<path class="st0" d="M115.962,135.91l0.111-1.191h1.093v0.332h-0.753l-0.051,0.518c0.036-0.03,0.082-0.056,0.135-0.076
			c0.055-0.021,0.112-0.031,0.174-0.033c0.18-0.004,0.318,0.058,0.415,0.183s0.146,0.3,0.146,0.526c0,0.209-0.053,0.38-0.161,0.514
			c-0.106,0.134-0.272,0.201-0.496,0.201c-0.18,0-0.334-0.053-0.463-0.157s-0.191-0.247-0.186-0.428l0.003-0.007l0.401-0.021
			c0,0.093,0.022,0.164,0.067,0.215s0.104,0.076,0.177,0.076c0.085,0,0.146-0.033,0.184-0.1c0.037-0.066,0.056-0.163,0.056-0.291
			c0-0.126-0.021-0.227-0.063-0.301c-0.042-0.073-0.105-0.11-0.19-0.11c-0.067,0-0.119,0.016-0.155,0.047s-0.061,0.074-0.075,0.129
			L115.962,135.91z"/>
		<path class="st0" d="M118.641,136.057h0.204v0.325h-0.204v0.469h-0.416v-0.469h-0.769l-0.021-0.254l0.788-1.41h0.417V136.057z
			 M117.803,136.057h0.422v-0.771l-0.009-0.002l-0.038,0.086L117.803,136.057z"/>
		<path class="st0" d="M120.013,136.851h-0.415v-1.773l-0.39,0.01v-0.318l0.804-0.082V136.851z"/>
		<path class="st0" d="M121.948,136.078c0,0.251-0.06,0.448-0.18,0.59c-0.12,0.144-0.278,0.215-0.475,0.215
			c-0.199,0-0.359-0.071-0.48-0.215c-0.121-0.142-0.181-0.339-0.181-0.59v-0.584c0-0.25,0.06-0.446,0.18-0.59
			c0.12-0.145,0.279-0.217,0.478-0.217c0.197,0,0.356,0.072,0.477,0.217c0.12,0.144,0.181,0.34,0.181,0.59V136.078z
			 M121.534,135.456c0-0.141-0.022-0.25-0.065-0.328c-0.044-0.078-0.103-0.117-0.178-0.117c-0.077,0-0.137,0.039-0.179,0.117
			c-0.043,0.078-0.064,0.188-0.064,0.328v0.654c0,0.145,0.021,0.255,0.064,0.332c0.043,0.078,0.104,0.117,0.182,0.117
			c0.075,0,0.134-0.039,0.176-0.117c0.043-0.077,0.064-0.188,0.064-0.332V135.456z"/>
	</g>
</g>
<g>
	<g>
		<path class="st0" d="M135.323,165.743l0.111-1.191h1.093v0.332h-0.753l-0.051,0.518c0.036-0.03,0.082-0.056,0.135-0.076
			c0.055-0.021,0.112-0.031,0.174-0.033c0.18-0.004,0.318,0.058,0.415,0.183s0.146,0.3,0.146,0.526c0,0.209-0.053,0.38-0.161,0.514
			c-0.106,0.134-0.272,0.201-0.496,0.201c-0.18,0-0.334-0.053-0.463-0.157s-0.191-0.247-0.186-0.428l0.003-0.007l0.401-0.021
			c0,0.093,0.022,0.164,0.067,0.215s0.104,0.076,0.177,0.076c0.085,0,0.146-0.033,0.184-0.1c0.037-0.066,0.056-0.163,0.056-0.291
			c0-0.126-0.021-0.227-0.063-0.301c-0.042-0.073-0.105-0.11-0.19-0.11c-0.067,0-0.119,0.016-0.155,0.047s-0.061,0.074-0.075,0.129
			L135.323,165.743z"/>
		<path class="st0" d="M138.002,165.89h0.204v0.325h-0.204v0.469h-0.416v-0.469h-0.769l-0.021-0.254l0.788-1.41h0.417V165.89z
			 M137.164,165.89h0.422v-0.771l-0.009-0.002l-0.038,0.086L137.164,165.89z"/>
		<path class="st0" d="M139.735,165.911c0,0.251-0.06,0.448-0.18,0.59c-0.12,0.144-0.278,0.215-0.475,0.215
			c-0.199,0-0.359-0.071-0.48-0.215c-0.121-0.142-0.181-0.339-0.181-0.59v-0.584c0-0.25,0.06-0.446,0.18-0.59
			c0.12-0.145,0.279-0.217,0.478-0.217c0.197,0,0.356,0.072,0.477,0.217c0.12,0.144,0.181,0.34,0.181,0.59V165.911z M139.32,165.29
			c0-0.141-0.022-0.25-0.065-0.328c-0.044-0.078-0.103-0.117-0.178-0.117c-0.077,0-0.137,0.039-0.179,0.117
			c-0.043,0.078-0.064,0.188-0.064,0.328v0.654c0,0.145,0.021,0.255,0.064,0.332c0.043,0.078,0.104,0.117,0.182,0.117
			c0.075,0,0.134-0.039,0.176-0.117c0.043-0.077,0.064-0.188,0.064-0.332V165.29z"/>
		<path class="st0" d="M141.327,164.875c-0.213,0.263-0.357,0.509-0.433,0.738c-0.076,0.229-0.114,0.499-0.114,0.81v0.261h-0.416
			v-0.261c0-0.3,0.048-0.574,0.144-0.822c0.096-0.249,0.236-0.49,0.42-0.726h-0.967v-0.324h1.365V164.875z"/>
	</g>
</g>
<g>
	<g>
		<path class="st0" d="M150.337,188.655l0.111-1.191h1.093v0.332h-0.753l-0.051,0.518c0.036-0.03,0.082-0.056,0.135-0.076
			c0.055-0.021,0.112-0.031,0.174-0.033c0.18-0.004,0.318,0.058,0.415,0.183s0.146,0.3,0.146,0.526c0,0.209-0.053,0.38-0.161,0.514
			c-0.106,0.134-0.272,0.201-0.496,0.201c-0.18,0-0.334-0.053-0.463-0.157s-0.191-0.247-0.186-0.428l0.003-0.007l0.401-0.021
			c0,0.093,0.022,0.164,0.067,0.215s0.104,0.076,0.177,0.076c0.085,0,0.146-0.033,0.184-0.1c0.037-0.066,0.056-0.163,0.056-0.291
			c0-0.126-0.021-0.227-0.063-0.301c-0.042-0.073-0.105-0.11-0.19-0.11c-0.067,0-0.119,0.016-0.155,0.047s-0.061,0.074-0.075,0.129
			L150.337,188.655z"/>
		<path class="st0" d="M153.016,188.802h0.204v0.325h-0.204v0.469H152.6v-0.469h-0.769l-0.021-0.254l0.788-1.41h0.417V188.802z
			 M152.178,188.802h0.422v-0.771l-0.009-0.002l-0.038,0.086L152.178,188.802z"/>
		<path class="st0" d="M154.749,188.823c0,0.251-0.06,0.448-0.18,0.59c-0.12,0.144-0.278,0.215-0.475,0.215
			c-0.199,0-0.359-0.071-0.48-0.215c-0.121-0.142-0.181-0.339-0.181-0.59v-0.584c0-0.25,0.06-0.446,0.18-0.59
			c0.12-0.145,0.279-0.217,0.478-0.217c0.197,0,0.356,0.072,0.477,0.217c0.12,0.144,0.181,0.34,0.181,0.59V188.823z
			 M154.334,188.202c0-0.141-0.022-0.25-0.065-0.328c-0.044-0.078-0.103-0.117-0.178-0.117c-0.077,0-0.137,0.039-0.179,0.117
			c-0.043,0.078-0.064,0.188-0.064,0.328v0.654c0,0.145,0.021,0.255,0.064,0.332c0.043,0.078,0.104,0.117,0.182,0.117
			c0.075,0,0.134-0.039,0.176-0.117c0.043-0.077,0.064-0.188,0.064-0.332V188.202z"/>
		<path class="st0" d="M155.779,187.432c0.075,0,0.144,0.008,0.206,0.023c0.062,0.015,0.125,0.038,0.189,0.068l-0.072,0.306
			c-0.057-0.022-0.109-0.039-0.156-0.051c-0.048-0.011-0.103-0.017-0.165-0.017c-0.109,0-0.198,0.048-0.265,0.143
			c-0.067,0.096-0.101,0.23-0.101,0.404v0.064c0.05-0.054,0.109-0.096,0.18-0.125c0.069-0.029,0.148-0.044,0.235-0.044
			c0.164,0,0.292,0.065,0.382,0.194c0.091,0.131,0.136,0.301,0.136,0.512s-0.061,0.383-0.182,0.517c-0.122,0.133-0.28,0.2-0.474,0.2
			c-0.204,0-0.37-0.076-0.498-0.228s-0.192-0.358-0.192-0.621v-0.462c0-0.27,0.073-0.483,0.218-0.645
			C155.366,187.513,155.552,187.432,155.779,187.432z M155.689,188.522c-0.064,0-0.12,0.012-0.166,0.035
			c-0.046,0.022-0.082,0.055-0.108,0.096v0.132c0,0.165,0.025,0.293,0.075,0.384s0.118,0.137,0.202,0.137
			c0.073,0,0.132-0.038,0.176-0.113s0.066-0.169,0.066-0.281c0-0.121-0.022-0.216-0.066-0.285
			C155.823,188.557,155.763,188.522,155.689,188.522z"/>
	</g>
</g>
<g>
	<g>
		<path class="st0" d="M177.004,161.017l0.111-1.191h1.093v0.332h-0.753l-0.051,0.518c0.036-0.03,0.082-0.056,0.135-0.076
			c0.055-0.021,0.112-0.031,0.174-0.033c0.18-0.004,0.318,0.058,0.415,0.183s0.146,0.3,0.146,0.526c0,0.209-0.053,0.38-0.161,0.514
			c-0.106,0.134-0.272,0.201-0.496,0.201c-0.18,0-0.334-0.053-0.463-0.157s-0.191-0.247-0.186-0.428l0.003-0.007l0.401-0.021
			c0,0.093,0.022,0.164,0.067,0.215s0.104,0.076,0.177,0.076c0.085,0,0.146-0.033,0.184-0.1c0.037-0.066,0.056-0.163,0.056-0.291
			c0-0.126-0.021-0.227-0.063-0.301c-0.042-0.073-0.105-0.11-0.19-0.11c-0.067,0-0.119,0.016-0.155,0.047s-0.061,0.074-0.075,0.129
			L177.004,161.017z"/>
		<path class="st0" d="M179.683,161.165h0.204v0.325h-0.204v0.469h-0.416v-0.469h-0.769l-0.021-0.254l0.788-1.41h0.417V161.165z
			 M178.845,161.165h0.422v-0.771l-0.009-0.002l-0.038,0.086L178.845,161.165z"/>
		<path class="st0" d="M181.055,161.958h-0.415v-1.773l-0.39,0.01v-0.318l0.804-0.082V161.958z"/>
		<path class="st0" d="M182.262,161.667c0.088,0,0.16-0.04,0.217-0.12c0.057-0.079,0.085-0.189,0.085-0.33v-0.146
			c-0.042,0.061-0.091,0.105-0.149,0.135c-0.057,0.031-0.118,0.046-0.182,0.046c-0.177,0-0.316-0.064-0.417-0.194
			c-0.102-0.129-0.152-0.303-0.152-0.521c0-0.211,0.061-0.388,0.183-0.529s0.278-0.213,0.469-0.213c0.194,0,0.354,0.073,0.478,0.218
			c0.124,0.146,0.186,0.347,0.186,0.603v0.578c0,0.242-0.068,0.437-0.204,0.58c-0.136,0.145-0.307,0.217-0.514,0.217
			c-0.066,0-0.135-0.009-0.207-0.024c-0.071-0.017-0.138-0.039-0.199-0.068l0.069-0.3c0.055,0.024,0.108,0.042,0.161,0.053
			C182.138,161.662,182.197,161.667,182.262,161.667z M182.309,160.948c0.056,0,0.105-0.014,0.149-0.041
			c0.043-0.027,0.079-0.063,0.106-0.11v-0.254c0-0.139-0.022-0.243-0.067-0.315s-0.104-0.108-0.179-0.108
			c-0.072,0-0.13,0.041-0.174,0.122c-0.044,0.082-0.066,0.181-0.066,0.296c0,0.123,0.02,0.222,0.059,0.298
			C182.177,160.91,182.234,160.948,182.309,160.948z"/>
	</g>
</g>
<g>
	<g>
		<path class="st0" d="M197.837,148.233l0.111-1.191h1.093v0.332h-0.753l-0.051,0.518c0.036-0.03,0.082-0.056,0.135-0.076
			c0.055-0.021,0.112-0.031,0.174-0.033c0.18-0.004,0.318,0.058,0.415,0.183s0.146,0.3,0.146,0.526c0,0.209-0.053,0.38-0.161,0.514
			c-0.106,0.134-0.272,0.201-0.496,0.201c-0.18,0-0.334-0.053-0.463-0.157s-0.191-0.247-0.186-0.428l0.003-0.007l0.401-0.021
			c0,0.093,0.022,0.164,0.067,0.215s0.104,0.076,0.177,0.076c0.085,0,0.146-0.033,0.184-0.1c0.037-0.066,0.056-0.163,0.056-0.291
			c0-0.126-0.021-0.227-0.063-0.301c-0.042-0.073-0.105-0.11-0.19-0.11c-0.067,0-0.119,0.016-0.155,0.047s-0.061,0.074-0.075,0.129
			L197.837,148.233z"/>
		<path class="st0" d="M200.516,148.38h0.204v0.325h-0.204v0.469H200.1v-0.469h-0.769l-0.021-0.254l0.788-1.41h0.417V148.38z
			 M199.678,148.38h0.422v-0.771l-0.009-0.002l-0.038,0.086L199.678,148.38z"/>
		<path class="st0" d="M201.888,149.174h-0.415v-1.773l-0.39,0.01v-0.318l0.804-0.082V149.174z"/>
		<path class="st0" d="M203.841,147.366c-0.213,0.263-0.357,0.509-0.433,0.738c-0.076,0.229-0.114,0.499-0.114,0.81v0.261h-0.416
			v-0.261c0-0.3,0.048-0.574,0.144-0.822c0.096-0.249,0.236-0.49,0.42-0.726h-0.967v-0.324h1.365V147.366z"/>
	</g>
</g>
<g>
	<g>
		<path class="st0" d="M197.837,173.418l0.111-1.191h1.093v0.332h-0.753l-0.051,0.518c0.036-0.03,0.082-0.056,0.135-0.076
			c0.055-0.021,0.112-0.031,0.174-0.033c0.18-0.004,0.318,0.058,0.415,0.183s0.146,0.3,0.146,0.526c0,0.209-0.053,0.38-0.161,0.514
			c-0.106,0.134-0.272,0.201-0.496,0.201c-0.18,0-0.334-0.053-0.463-0.157s-0.191-0.247-0.186-0.428l0.003-0.007l0.401-0.021
			c0,0.093,0.022,0.164,0.067,0.215s0.104,0.076,0.177,0.076c0.085,0,0.146-0.033,0.184-0.1c0.037-0.066,0.056-0.163,0.056-0.291
			c0-0.126-0.021-0.227-0.063-0.301c-0.042-0.073-0.105-0.11-0.19-0.11c-0.067,0-0.119,0.016-0.155,0.047s-0.061,0.074-0.075,0.129
			L197.837,173.418z"/>
		<path class="st0" d="M200.516,173.566h0.204v0.325h-0.204v0.469H200.1v-0.469h-0.769l-0.021-0.254l0.788-1.41h0.417V173.566z
			 M199.678,173.566h0.422v-0.771l-0.009-0.002l-0.038,0.086L199.678,173.566z"/>
		<path class="st0" d="M202.267,174.36h-1.307v-0.275l0.59-0.746c0.084-0.112,0.144-0.211,0.181-0.293
			c0.036-0.082,0.055-0.156,0.055-0.224c0-0.093-0.018-0.166-0.054-0.221c-0.036-0.054-0.09-0.081-0.165-0.081
			c-0.077,0-0.137,0.034-0.178,0.104c-0.042,0.068-0.062,0.157-0.062,0.264h-0.406l-0.004-0.008
			c-0.004-0.191,0.054-0.353,0.173-0.484c0.119-0.133,0.278-0.199,0.478-0.199c0.202,0,0.358,0.057,0.469,0.168
			c0.111,0.112,0.167,0.265,0.167,0.457c0,0.13-0.032,0.249-0.096,0.358s-0.171,0.256-0.321,0.438l-0.29,0.42h0.771V174.36z"/>
		<path class="st0" d="M203.464,174.36h-0.415v-1.773l-0.39,0.01v-0.318l0.804-0.082V174.36z"/>
	</g>
</g>
<g>
	<g>
		<path class="st0" d="M159.247,131.833l0.111-1.191h1.093v0.332h-0.753l-0.051,0.518c0.036-0.03,0.082-0.056,0.135-0.076
			c0.055-0.021,0.112-0.031,0.174-0.033c0.18-0.004,0.318,0.058,0.415,0.183s0.146,0.3,0.146,0.526c0,0.209-0.053,0.38-0.161,0.514
			c-0.106,0.134-0.272,0.201-0.496,0.201c-0.18,0-0.334-0.053-0.463-0.157s-0.191-0.247-0.186-0.428l0.003-0.007l0.401-0.021
			c0,0.093,0.022,0.164,0.067,0.215s0.104,0.076,0.177,0.076c0.085,0,0.146-0.033,0.184-0.1c0.037-0.066,0.056-0.163,0.056-0.291
			c0-0.126-0.021-0.227-0.063-0.301c-0.042-0.073-0.105-0.11-0.19-0.11c-0.067,0-0.119,0.016-0.155,0.047s-0.061,0.074-0.075,0.129
			L159.247,131.833z"/>
		<path class="st0" d="M161.927,131.981h0.204v0.325h-0.204v0.469h-0.416v-0.469h-0.769l-0.021-0.254l0.788-1.41h0.417V131.981z
			 M161.089,131.981h0.422v-0.771l-0.009-0.002l-0.038,0.086L161.089,131.981z"/>
		<path class="st0" d="M163.299,132.775h-0.415v-1.773l-0.39,0.01v-0.318l0.804-0.082V132.775z"/>
		<path class="st0" d="M165.076,131.981h0.204v0.325h-0.204v0.469h-0.416v-0.469h-0.769l-0.021-0.254l0.788-1.41h0.417V131.981z
			 M164.238,131.981h0.422v-0.771l-0.009-0.002l-0.038,0.086L164.238,131.981z"/>
	</g>
</g>
<g>
	<g>
		<path class="st0" d="M182.974,122.5l0.111-1.191h1.093v0.332h-0.753l-0.051,0.518c0.036-0.03,0.082-0.056,0.135-0.076
			c0.055-0.021,0.112-0.031,0.174-0.033c0.18-0.004,0.318,0.058,0.415,0.183s0.146,0.3,0.146,0.526c0,0.209-0.053,0.38-0.161,0.514
			c-0.106,0.134-0.272,0.201-0.496,0.201c-0.18,0-0.334-0.053-0.463-0.157s-0.191-0.247-0.186-0.428l0.003-0.007l0.401-0.021
			c0,0.093,0.022,0.164,0.067,0.215s0.104,0.076,0.177,0.076c0.085,0,0.146-0.033,0.184-0.1c0.037-0.066,0.056-0.163,0.056-0.291
			c0-0.126-0.021-0.227-0.063-0.301c-0.042-0.073-0.105-0.11-0.19-0.11c-0.067,0-0.119,0.016-0.155,0.047s-0.061,0.074-0.075,0.129
			L182.974,122.5z"/>
		<path class="st0" d="M185.653,122.648h0.204v0.325h-0.204v0.469h-0.416v-0.469h-0.769l-0.021-0.254l0.788-1.41h0.417V122.648z
			 M184.815,122.648h0.422v-0.771l-0.009-0.002l-0.038,0.086L184.815,122.648z"/>
		<path class="st0" d="M187.026,123.442h-0.415v-1.773l-0.39,0.01v-0.318l0.804-0.082V123.442z"/>
		<path class="st0" d="M187.698,122.5l0.111-1.191h1.093v0.332h-0.753l-0.051,0.518c0.036-0.03,0.082-0.056,0.135-0.076
			c0.055-0.021,0.112-0.031,0.174-0.033c0.18-0.004,0.318,0.058,0.415,0.183s0.146,0.3,0.146,0.526c0,0.209-0.053,0.38-0.161,0.514
			c-0.106,0.134-0.272,0.201-0.496,0.201c-0.18,0-0.334-0.053-0.463-0.157s-0.191-0.247-0.186-0.428l0.003-0.007l0.401-0.021
			c0,0.093,0.022,0.164,0.067,0.215s0.104,0.076,0.177,0.076c0.085,0,0.146-0.033,0.184-0.1c0.037-0.066,0.056-0.163,0.056-0.291
			c0-0.126-0.021-0.227-0.063-0.301c-0.042-0.073-0.105-0.11-0.19-0.11c-0.067,0-0.119,0.016-0.155,0.047s-0.061,0.074-0.075,0.129
			L187.698,122.5z"/>
	</g>
</g>
<g>
	<g>
		<path class="st0" d="M147.474,99.324l0.111-1.191h1.093v0.332h-0.753l-0.051,0.518c0.036-0.03,0.082-0.056,0.135-0.076
			c0.055-0.021,0.112-0.031,0.174-0.033c0.18-0.004,0.318,0.058,0.415,0.183s0.146,0.3,0.146,0.526c0,0.209-0.053,0.38-0.161,0.514
			c-0.106,0.134-0.272,0.201-0.496,0.201c-0.18,0-0.334-0.053-0.463-0.157s-0.191-0.247-0.186-0.428l0.003-0.007l0.401-0.021
			c0,0.093,0.022,0.164,0.067,0.215s0.104,0.076,0.177,0.076c0.085,0,0.146-0.033,0.184-0.1c0.037-0.066,0.056-0.163,0.056-0.291
			c0-0.126-0.021-0.227-0.063-0.301c-0.042-0.073-0.105-0.11-0.19-0.11c-0.067,0-0.119,0.016-0.155,0.047s-0.061,0.074-0.075,0.129
			L147.474,99.324z"/>
		<path class="st0" d="M150.153,99.471h0.204v0.325h-0.204v0.469h-0.416v-0.469h-0.769l-0.021-0.254l0.788-1.41h0.417V99.471z
			 M149.315,99.471h0.422v-0.771l-0.009-0.002l-0.038,0.086L149.315,99.471z"/>
		<path class="st0" d="M151.526,100.265h-0.415v-1.773l-0.39,0.01v-0.318l0.804-0.082V100.265z"/>
		<path class="st0" d="M152.791,99.017c0.084,0,0.147-0.027,0.189-0.081c0.042-0.055,0.063-0.129,0.063-0.226
			c0-0.08-0.022-0.148-0.066-0.203s-0.104-0.082-0.182-0.082c-0.063,0-0.117,0.024-0.16,0.072s-0.064,0.11-0.064,0.188h-0.404
			l-0.003-0.01c-0.005-0.167,0.054-0.305,0.177-0.412s0.274-0.162,0.454-0.162c0.202,0,0.363,0.053,0.484,0.157
			c0.12,0.104,0.181,0.253,0.181,0.446c0,0.1-0.026,0.189-0.079,0.271s-0.125,0.146-0.215,0.191
			c0.103,0.043,0.182,0.106,0.238,0.192s0.084,0.19,0.084,0.312c0,0.195-0.065,0.348-0.196,0.458c-0.13,0.111-0.297,0.167-0.5,0.167
			c-0.177,0-0.331-0.053-0.463-0.158c-0.132-0.104-0.195-0.254-0.19-0.449l0.003-0.008h0.403c0,0.083,0.023,0.152,0.07,0.208
			c0.047,0.057,0.106,0.085,0.177,0.085c0.084,0,0.152-0.029,0.204-0.087s0.078-0.131,0.078-0.222c0-0.114-0.024-0.199-0.072-0.254
			c-0.049-0.054-0.119-0.081-0.21-0.081h-0.215v-0.313H152.791z"/>
	</g>
</g>
<g>
	<g>
		<path class="st0" d="M133.807,76.991l0.111-1.191h1.093v0.332h-0.753l-0.051,0.518c0.036-0.03,0.082-0.056,0.135-0.076
			c0.055-0.021,0.112-0.031,0.174-0.033c0.18-0.004,0.318,0.058,0.415,0.183s0.146,0.3,0.146,0.526c0,0.209-0.053,0.38-0.161,0.514
			c-0.106,0.134-0.272,0.201-0.496,0.201c-0.18,0-0.334-0.053-0.463-0.157s-0.191-0.247-0.186-0.428l0.003-0.007l0.401-0.021
			c0,0.093,0.022,0.164,0.067,0.215s0.104,0.076,0.177,0.076c0.085,0,0.146-0.033,0.184-0.1c0.037-0.066,0.056-0.163,0.056-0.291
			c0-0.126-0.021-0.227-0.063-0.301c-0.042-0.073-0.105-0.11-0.19-0.11c-0.067,0-0.119,0.016-0.155,0.047s-0.061,0.074-0.075,0.129
			L133.807,76.991z"/>
		<path class="st0" d="M136.487,77.138h0.204v0.325h-0.204v0.469h-0.416v-0.469h-0.769l-0.021-0.254l0.788-1.41h0.417V77.138z
			 M135.649,77.138h0.422v-0.771l-0.009-0.002l-0.038,0.086L135.649,77.138z"/>
		<path class="st0" d="M137.859,77.932h-0.415v-1.773l-0.39,0.01V75.85l0.804-0.082V77.932z"/>
		<path class="st0" d="M139.812,77.932h-1.307v-0.275l0.59-0.746c0.084-0.112,0.144-0.211,0.181-0.293
			c0.036-0.082,0.055-0.156,0.055-0.224c0-0.093-0.018-0.166-0.054-0.221c-0.036-0.054-0.09-0.081-0.165-0.081
			c-0.077,0-0.137,0.034-0.178,0.104c-0.042,0.068-0.062,0.157-0.062,0.264h-0.406l-0.004-0.008
			c-0.004-0.191,0.054-0.353,0.173-0.484c0.119-0.133,0.278-0.199,0.478-0.199c0.202,0,0.358,0.057,0.469,0.168
			c0.111,0.112,0.167,0.265,0.167,0.457c0,0.13-0.032,0.249-0.096,0.358s-0.171,0.256-0.321,0.438l-0.29,0.42h0.771V77.932z"/>
	</g>
</g>
<g>
	<g>
		<path class="st0" d="M161.247,74.779l0.111-1.191h1.093v0.332h-0.753l-0.051,0.518c0.036-0.03,0.082-0.056,0.135-0.076
			c0.055-0.021,0.112-0.031,0.174-0.033c0.18-0.004,0.318,0.058,0.415,0.183s0.146,0.3,0.146,0.526c0,0.209-0.053,0.38-0.161,0.514
			c-0.106,0.134-0.272,0.201-0.496,0.201c-0.18,0-0.334-0.053-0.463-0.157s-0.191-0.247-0.186-0.428l0.003-0.007l0.401-0.021
			c0,0.093,0.022,0.164,0.067,0.215s0.104,0.076,0.177,0.076c0.085,0,0.146-0.033,0.184-0.1c0.037-0.066,0.056-0.163,0.056-0.291
			c0-0.126-0.021-0.227-0.063-0.301c-0.042-0.073-0.105-0.11-0.19-0.11c-0.067,0-0.119,0.016-0.155,0.047s-0.061,0.074-0.075,0.129
			L161.247,74.779z"/>
		<path class="st0" d="M163.926,74.926h0.204v0.325h-0.204v0.469h-0.416v-0.469h-0.769l-0.021-0.254l0.788-1.41h0.417V74.926z
			 M163.088,74.926h0.422v-0.771l-0.009-0.002l-0.038,0.086L163.088,74.926z"/>
		<path class="st0" d="M165.299,75.72h-0.415v-1.773l-0.39,0.01v-0.318l0.804-0.082V75.72z"/>
		<path class="st0" d="M167.203,74.141c0,0.105-0.025,0.199-0.075,0.28c-0.05,0.082-0.118,0.146-0.205,0.191
			c0.106,0.048,0.19,0.116,0.253,0.206c0.062,0.089,0.093,0.191,0.093,0.307c0,0.198-0.063,0.353-0.188,0.462
			s-0.286,0.164-0.481,0.164c-0.203,0-0.37-0.056-0.501-0.165c-0.131-0.11-0.196-0.264-0.196-0.461c0-0.115,0.032-0.218,0.096-0.307
			c0.063-0.09,0.151-0.158,0.263-0.206c-0.092-0.046-0.164-0.109-0.215-0.191c-0.052-0.081-0.078-0.175-0.078-0.28
			c0-0.188,0.058-0.332,0.175-0.433c0.117-0.102,0.269-0.152,0.455-0.152c0.18,0,0.325,0.051,0.438,0.151
			C167.147,73.808,167.203,73.953,167.203,74.141z M166.854,75.107c0-0.098-0.025-0.176-0.074-0.238
			c-0.05-0.061-0.11-0.092-0.183-0.092c-0.081,0-0.148,0.031-0.201,0.092c-0.053,0.063-0.079,0.141-0.079,0.238
			c0,0.099,0.026,0.177,0.079,0.234c0.053,0.059,0.12,0.088,0.202,0.088c0.073,0,0.134-0.029,0.182-0.088
			C166.83,75.284,166.854,75.206,166.854,75.107z M166.788,74.16c0-0.085-0.018-0.153-0.052-0.204
			c-0.035-0.05-0.081-0.075-0.139-0.075c-0.066,0-0.119,0.024-0.157,0.073s-0.057,0.118-0.057,0.206c0,0.09,0.02,0.16,0.059,0.214
			c0.039,0.053,0.091,0.079,0.157,0.079c0.058,0,0.104-0.025,0.138-0.078S166.788,74.25,166.788,74.16z"/>
	</g>
</g>
<g>
	<g>
		<path class="st0" d="M152.21,59.612l0.111-1.191h1.093v0.332h-0.753l-0.051,0.518c0.036-0.03,0.082-0.056,0.135-0.076
			c0.055-0.021,0.112-0.031,0.174-0.033c0.18-0.004,0.318,0.058,0.415,0.183s0.146,0.3,0.146,0.526c0,0.209-0.053,0.38-0.161,0.514
			c-0.106,0.134-0.272,0.201-0.496,0.201c-0.18,0-0.334-0.053-0.463-0.157s-0.191-0.247-0.186-0.428l0.003-0.007l0.401-0.021
			c0,0.093,0.022,0.164,0.067,0.215s0.104,0.076,0.177,0.076c0.085,0,0.146-0.033,0.184-0.1c0.037-0.066,0.056-0.163,0.056-0.291
			c0-0.126-0.021-0.227-0.063-0.301c-0.042-0.073-0.105-0.11-0.19-0.11c-0.067,0-0.119,0.016-0.155,0.047s-0.061,0.074-0.075,0.129
			L152.21,59.612z"/>
		<path class="st0" d="M154.889,59.759h0.204v0.325h-0.204v0.469h-0.416v-0.469h-0.769l-0.021-0.254l0.788-1.41h0.417V59.759z
			 M154.052,59.759h0.422v-0.771l-0.009-0.002l-0.038,0.086L154.052,59.759z"/>
		<path class="st0" d="M156.262,60.553h-0.415V58.78l-0.39,0.01v-0.318l0.804-0.082V60.553z"/>
		<path class="st0" d="M157.652,58.389c0.075,0,0.144,0.008,0.206,0.023c0.062,0.015,0.125,0.038,0.189,0.068l-0.072,0.306
			c-0.057-0.022-0.109-0.039-0.156-0.051c-0.048-0.011-0.103-0.017-0.165-0.017c-0.109,0-0.198,0.048-0.265,0.143
			c-0.067,0.096-0.101,0.23-0.101,0.404v0.064c0.05-0.054,0.109-0.096,0.18-0.125c0.069-0.029,0.148-0.044,0.235-0.044
			c0.164,0,0.292,0.065,0.382,0.194c0.091,0.131,0.136,0.301,0.136,0.512s-0.061,0.383-0.182,0.517c-0.122,0.133-0.28,0.2-0.474,0.2
			c-0.204,0-0.37-0.076-0.498-0.228s-0.192-0.358-0.192-0.621v-0.462c0-0.27,0.073-0.483,0.218-0.645
			C157.24,58.47,157.426,58.389,157.652,58.389z M157.563,59.479c-0.064,0-0.12,0.012-0.166,0.035
			c-0.046,0.022-0.082,0.055-0.108,0.096v0.132c0,0.165,0.025,0.293,0.075,0.384s0.118,0.137,0.202,0.137
			c0.073,0,0.132-0.038,0.176-0.113s0.066-0.169,0.066-0.281c0-0.121-0.022-0.216-0.066-0.285
			C157.696,59.514,157.637,59.479,157.563,59.479z"/>
	</g>
</g>
</svg>
