<?xml version="1.0" encoding="utf-8"?>
<!-- Generator: Adobe Illustrator 19.0.1, SVG Export Plug-In . SVG Version: 6.00 Build 0)  -->
<svg version="1.1" xmlns="http://www.w3.org/2000/svg" xmlns:xlink="http://www.w3.org/1999/xlink" x="0px" y="0px"
	 width="422.979px" height="403.48px" viewBox="0 0 422.979 403.48" style="enable-background:new 0 0 422.979 403.48;"
	 xml:space="preserve">
<style type="text/css">
	.st0{fill:#FFFFFF;stroke:#383938;stroke-width:0.5;stroke-miterlimit:10;}
	.st1{fill:#ECF0F2;stroke:#383938;stroke-width:0.5;stroke-miterlimit:10;}
	.st2{fill:#C0D9E0;stroke:#383938;stroke-width:0.5;stroke-miterlimit:10;}
	.st3{fill:none;stroke:#383938;stroke-width:0.5;stroke-miterlimit:10;}
	.st4{fill:none;stroke:#383938;stroke-width:0.5;stroke-miterlimit:10;stroke-dasharray:2;}
</style>
<g id="locaux">
	<polygon class="st0" points="76.718,95.965 164.485,236.423 216.852,203.701 285.742,313.947 280.23,317.391 305.798,358.31 
		343.324,334.861 247.409,181.364 240.412,185.736 154.102,47.61 117.53,70.463 107.528,54.456 90.885,64.856 100.887,80.863 	"/>
	
		<rect x="186.818" y="146.882" transform="matrix(0.5299 0.848 -0.848 0.5299 241.0708 -90.3889)" class="st1" width="30.5" height="50.75"/>
	
		<rect x="194.463" y="134.213" transform="matrix(0.5299 0.848 -0.848 0.5299 219.5194 -100.9715)" class="st1" width="12.75" height="26.625"/>
	
		<rect x="172.944" y="148.91" transform="matrix(0.5299 0.848 -0.848 0.5299 220.8071 -76.4011)" class="st1" width="12.75" height="24.125"/>
	<polygon class="st1" points="165.711,161.959 162.333,156.552 182.792,143.768 161.066,108.998 173.68,101.115 164.208,85.957 
		174.173,79.73 208.75,135.065 	"/>
	
		<rect x="149.637" y="112.275" transform="matrix(-0.848 0.5299 -0.5299 -0.848 369.1883 159.6871)" class="st1" width="24.125" height="41"/>
	<polygon class="st1" points="164.208,85.957 159.704,78.748 126.63,99.415 140.606,121.782 173.68,101.115 	"/>
	<polygon class="st1" points="126.63,99.415 117.687,85.104 124.154,81.064 117.53,70.463 144.137,53.837 159.704,78.748 	"/>
	
		<rect x="144.536" y="53.117" transform="matrix(0.5299 0.848 -0.848 0.5299 122.555 -103.1113)" class="st1" width="19.5" height="11.75"/>
	
		<rect x="155.134" y="69.177" transform="matrix(0.5299 0.848 -0.848 0.5299 140.892 -104.0723)" class="st1" width="18.375" height="11.75"/>
	
		<rect x="79.9" y="90.224" transform="matrix(0.5299 0.848 -0.848 0.5299 135.0605 -34.7078)" class="st1" width="37.875" height="28.5"/>
	
		<rect x="100.382" y="121.602" transform="matrix(0.5299 0.848 -0.848 0.5299 170.8872 -36.5854)" class="st1" width="36.125" height="28.5"/>
	
		<rect x="119.496" y="152.29" transform="matrix(0.5299 0.848 -0.848 0.5299 205.9272 -38.4218)" class="st1" width="36.25" height="28.5"/>
	
		<rect x="142.966" y="175.347" transform="matrix(0.5299 0.848 -0.848 0.5299 232.2526 -39.8015)" class="st1" width="18.125" height="28.5"/>
	
		<rect x="148.466" y="198.123" transform="matrix(-0.5299 -0.848 0.848 -0.5299 64.9415 450.9935)" class="st2" width="18" height="18.75"/>
	
		<rect x="168.859" y="208.055" transform="matrix(0.5299 0.848 -0.848 0.5299 262.6562 -46.7351)" class="st1" width="9.25" height="11"/>
	<polygon class="st2" points="185.899,223.043 180.599,214.562 171.271,220.391 166.369,212.547 154.284,220.098 164.485,236.423 	
		"/>
	
		<rect x="97.556" y="66.32" transform="matrix(0.5299 0.848 -0.848 0.5299 112.0734 -63.4205)" class="st1" width="31.375" height="6.125"/>
</g>
<g id="murs">
	<polyline class="st3" points="102.333,57.702 115.78,79.221 110.692,82.401 	"/>
	<polyline class="st3" points="166.159,191.453 171.723,200.358 174.479,198.635 	"/>
	<line class="st3" x1="170.185" y1="210.162" x2="178.454" y2="204.996"/>
	<line class="st3" x1="188.63" y1="198.637" x2="191.081" y2="202.559"/>
	<line class="st3" x1="198.831" y1="214.962" x2="195.387" y2="209.449"/>
	<line class="st3" x1="216.852" y1="203.701" x2="227.347" y2="197.143"/>
	<line class="st3" x1="223.902" y1="191.631" x2="217.146" y2="180.818"/>
	
		<rect x="222.263" y="171.587" transform="matrix(0.5299 0.848 -0.848 0.5299 259.4019 -107.6737)" class="st3" width="9.125" height="17.125"/>
	
		<rect x="242.706" y="208.205" transform="matrix(0.5299 0.848 -0.848 0.5299 305.8943 -117.9385)" class="st3" width="33.25" height="17.5"/>
	<polygon class="st3" points="301.46,276.12 288.951,283.936 293.257,290.827 299.63,292.298 308.216,286.932 	"/>
	<line class="st4" x1="217.146" y1="180.818" x2="236.504" y2="179.482"/>
	<line class="st4" x1="221.982" y1="188.557" x2="231.669" y2="171.743"/>
</g>
</svg>
