<?xml version="1.0" encoding="utf-8"?>
<!-- Generator: Adobe Illustrator 19.0.1, SVG Export Plug-In . SVG Version: 6.00 Build 0)  -->
<svg version="1.1" id="icones" xmlns="http://www.w3.org/2000/svg" xmlns:xlink="http://www.w3.org/1999/xlink" x="0px" y="0px"
	 width="890px" height="1000px" viewBox="139 -104 890 1000" style="enable-background:new 139 -104 890 1000;"
	 xml:space="preserve">
<style type="text/css">
	.st0{fill:#1D1D1B;}
	.st1{fill:#FFFFFF;}
</style>
<g>
	<path class="st0" d="M751.642,302.571h-7.594c-1.034,0-1.872-0.838-1.872-1.872v-7.594c0-1.034,0.838-1.872,1.872-1.872h7.594
		c1.034,0,1.872,0.838,1.872,1.872v7.594C753.514,301.732,752.676,302.571,751.642,302.571z"/>
	<polygon class="st1" points="747.845,293.204 747.845,295.669 745.757,295.669 745.757,298.134 743.67,298.134 743.67,300.599 
		747.845,300.599 747.845,298.134 749.932,298.134 749.932,295.669 752.019,295.669 752.019,293.204 	"/>
</g>
<g>
	<path class="st0" d="M500.259,195.132h-7.594c-1.034,0-1.872-0.838-1.872-1.872v-7.594c0-1.034,0.838-1.872,1.872-1.872h7.594
		c1.034,0,1.872,0.838,1.872,1.872v7.594C502.131,194.294,501.293,195.132,500.259,195.132z"/>
	<polygon class="st1" points="496.462,185.766 496.462,188.231 494.375,188.231 494.375,190.696 492.287,190.696 492.287,193.161 
		496.462,193.161 496.462,190.696 498.549,190.696 498.549,188.231 500.636,188.231 500.636,185.766 	"/>
</g>
<g>
	<path class="st0" d="M301.433,296.901h-7.594c-1.034,0-1.872-0.838-1.872-1.872v-7.594c0-1.034,0.838-1.872,1.872-1.872h7.594
		c1.034,0,1.872,0.838,1.872,1.872v7.594C303.305,296.063,302.467,296.901,301.433,296.901z"/>
	<polygon class="st1" points="297.635,287.535 297.635,290 295.548,290 295.548,292.464 293.461,292.464 293.461,294.929 
		297.635,294.929 297.635,292.464 299.722,292.464 299.722,290 301.81,290 301.81,287.535 	"/>
</g>
<g>
	<path class="st0" d="M255.014,209.133h-7.594c-1.034,0-1.872-0.838-1.872-1.872v-7.594c0-1.034,0.838-1.872,1.872-1.872h7.594
		c1.034,0,1.872,0.838,1.872,1.872v7.594C256.887,208.295,256.048,209.133,255.014,209.133z"/>
	<polygon class="st1" points="251.217,199.766 251.217,202.231 249.13,202.231 249.13,204.696 247.043,204.696 247.043,207.161 
		251.217,207.161 251.217,204.696 253.304,204.696 253.304,202.231 255.392,202.231 255.392,199.766 	"/>
</g>
<g>
	<path class="st0" d="M241.096,155.712h-7.594c-1.034,0-1.872-0.838-1.872-1.872v-7.594c0-1.034,0.838-1.872,1.872-1.872h7.594
		c1.034,0,1.872,0.838,1.872,1.872v7.594C242.968,154.874,242.129,155.712,241.096,155.712z"/>
	<polygon class="st1" points="237.298,146.346 237.298,148.811 235.211,148.811 235.211,151.276 233.124,151.276 233.124,153.741 
		237.298,153.741 237.298,151.276 239.385,151.276 239.385,148.811 241.473,148.811 241.473,146.346 	"/>
</g>
<g>
	<path class="st0" d="M820.877,415.381h-7.594c-1.034,0-1.872-0.838-1.872-1.872v-7.594c0-1.034,0.838-1.872,1.872-1.872h7.594
		c1.034,0,1.872,0.838,1.872,1.872v7.594C822.749,414.543,821.911,415.381,820.877,415.381z"/>
	<polygon class="st1" points="817.08,406.015 817.08,408.48 814.993,408.48 814.993,410.945 812.905,410.945 812.905,413.409 
		817.08,413.409 817.08,410.945 819.167,410.945 819.167,408.48 821.254,408.48 821.254,406.015 	"/>
</g>
<g>
	<path class="st0" d="M686.22,498.976h-7.594c-1.034,0-1.872-0.838-1.872-1.872v-7.594c0-1.034,0.838-1.872,1.872-1.872h7.594
		c1.034,0,1.872,0.838,1.872,1.872v7.594C688.092,498.138,687.254,498.976,686.22,498.976z"/>
	<polygon class="st1" points="682.422,489.609 682.422,492.074 680.335,492.074 680.335,494.539 678.248,494.539 678.248,497.004 
		682.422,497.004 682.422,494.539 684.51,494.539 684.51,492.074 686.597,492.074 686.597,489.609 	"/>
</g>
<g>
	<path class="st0" d="M847.221,609.462h-7.594c-1.034,0-1.872-0.838-1.872-1.872v-7.594c0-1.034,0.838-1.872,1.872-1.872h7.594
		c1.034,0,1.872,0.838,1.872,1.872v7.594C849.093,608.624,848.255,609.462,847.221,609.462z"/>
	<polygon class="st1" points="843.424,600.095 843.424,602.56 841.337,602.56 841.337,605.025 839.25,605.025 839.25,607.49 
		843.424,607.49 843.424,605.025 845.511,605.025 845.511,602.56 847.598,602.56 847.598,600.095 	"/>
</g>
<g>
	<path class="st0" d="M844.561,701.122h-7.594c-1.034,0-1.872-0.838-1.872-1.872v-7.594c0-1.034,0.838-1.872,1.872-1.872h7.594
		c1.034,0,1.872,0.838,1.872,1.872v7.594C846.433,700.284,845.595,701.122,844.561,701.122z"/>
	<polygon class="st1" points="840.764,691.755 840.764,694.22 838.677,694.22 838.677,696.685 836.59,696.685 836.59,699.15 
		840.764,699.15 840.764,696.685 842.851,696.685 842.851,694.22 844.938,694.22 844.938,691.755 	"/>
</g>
<g>
	<path class="st0" d="M937.178,832.845h-7.594c-1.034,0-1.872-0.838-1.872-1.872v-7.594c0-1.034,0.838-1.872,1.872-1.872h7.594
		c1.034,0,1.872,0.838,1.872,1.872v7.594C939.05,832.007,938.212,832.845,937.178,832.845z"/>
	<polygon class="st1" points="933.381,823.478 933.381,825.943 931.294,825.943 931.294,828.408 929.207,828.408 929.207,830.873 
		933.381,830.873 933.381,828.408 935.468,828.408 935.468,825.943 937.555,825.943 937.555,823.478 	"/>
</g>
<g>
	<path class="st0" d="M601.451,359.961h-7.594c-1.034,0-1.872-0.838-1.872-1.872v-7.594c0-1.034,0.838-1.872,1.872-1.872h7.594
		c1.034,0,1.872,0.838,1.872,1.872v7.594C603.324,359.122,602.485,359.961,601.451,359.961z"/>
	<polygon class="st1" points="597.654,350.594 597.654,353.059 595.567,353.059 595.567,355.524 593.48,355.524 593.48,357.989 
		597.654,357.989 597.654,355.524 599.741,355.524 599.741,353.059 601.828,353.059 601.828,350.594 	"/>
</g>
<g>
	<path class="st0" d="M470.462,441.757h-7.594c-1.034,0-1.872-0.838-1.872-1.872v-7.594c0-1.034,0.838-1.872,1.872-1.872h7.594
		c1.034,0,1.872,0.838,1.872,1.872v7.594C472.334,440.919,471.496,441.757,470.462,441.757z"/>
	<polygon class="st1" points="466.665,432.391 466.665,434.855 464.578,434.855 464.578,437.32 462.491,437.32 462.491,439.785 
		466.665,439.785 466.665,437.32 468.752,437.32 468.752,434.855 470.839,434.855 470.839,432.391 	"/>
</g>
<g>
	<path class="st0" d="M433.262,415.381h-7.594c-1.034,0-1.872-0.838-1.872-1.872v-7.594c0-1.034,0.838-1.872,1.872-1.872h7.594
		c1.034,0,1.872,0.838,1.872,1.872v7.594C435.134,414.543,434.296,415.381,433.262,415.381z"/>
	<polygon class="st1" points="429.465,406.015 429.465,408.48 427.377,408.48 427.377,410.945 425.29,410.945 425.29,413.409 
		429.465,413.409 429.465,410.945 431.552,410.945 431.552,408.48 433.639,408.48 433.639,406.015 	"/>
</g>
<g>
	<path class="st0" d="M600.1,553.9h-7.594c-1.034,0-1.872-0.838-1.872-1.872v-7.594c0-1.034,0.838-1.872,1.872-1.872h7.594
		c1.034,0,1.872,0.838,1.872,1.872v7.594C601.972,553.062,601.133,553.9,600.1,553.9z"/>
	<polygon class="st1" points="596.302,544.533 596.302,546.998 594.215,546.998 594.215,549.463 592.128,549.463 592.128,551.928 
		596.302,551.928 596.302,549.463 598.389,549.463 598.389,546.998 600.477,546.998 600.477,544.533 	"/>
</g>
<g>
	<path class="st0" d="M556.179,662.835h-7.594c-1.034,0-1.872-0.838-1.872-1.872v-7.594c0-1.034,0.838-1.872,1.872-1.872h7.594
		c1.034,0,1.872,0.838,1.872,1.872v7.594C558.051,661.997,557.213,662.835,556.179,662.835z"/>
	<polygon class="st1" points="552.382,653.468 552.382,655.933 550.295,655.933 550.295,658.398 548.208,658.398 548.208,660.863 
		552.382,660.863 552.382,658.398 554.469,658.398 554.469,655.933 556.556,655.933 556.556,653.468 	"/>
</g>
<g>
	<path class="st0" d="M428.626,240.066h-7.594c-1.034,0-1.872-0.838-1.872-1.872V230.6c0-1.034,0.838-1.872,1.872-1.872h7.594
		c1.034,0,1.872,0.838,1.872,1.872v7.594C430.498,239.228,429.66,240.066,428.626,240.066z"/>
	<g>
		<circle class="st1" cx="424.829" cy="230.491" r="0.779"/>
		<path class="st1" d="M426.94,234.317l-0.668-2.199c-0.13-0.389-0.518-0.695-1.084-0.695h-0.718c-0.567,0-0.955,0.306-1.085,0.695
			l-0.668,2.199c-0.138,0.473,0.408,0.641,0.551,0.199l0.705-2.011h0.081c0,0-0.926,3.6-0.965,3.735
			c-0.02,0.067,0.008,0.116,0.08,0.116c0.044,0,0.802,0,0.802,0l0.001,2.364c0,0.481,0.72,0.481,0.72,0v-2.382h0.276v2.382
			c0,0.481,0.72,0.481,0.72,0v-2.364c0,0,0.757,0,0.801,0c0.071,0,0.1-0.049,0.08-0.116c-0.039-0.135-0.966-3.735-0.966-3.735h0.082
			l0.705,2.011C426.533,234.958,427.079,234.79,426.94,234.317z"/>
	</g>
</g>
<g>
	<path class="st0" d="M444.686,231.289h-7.594c-1.034,0-1.872-0.838-1.872-1.872v-7.594c0-1.034,0.838-1.872,1.872-1.872h7.594
		c1.034,0,1.872,0.838,1.872,1.872v7.594C446.558,230.451,445.72,231.289,444.686,231.289z"/>
	<g>
		<circle class="st1" cx="440.889" cy="221.671" r="0.787"/>
		<path class="st1" d="M441.736,222.613l-0.847,0.001l-0.846-0.001c-0.759,0-1.006,0.196-1.006,1.022v2.417
			c0,0.469,0.634,0.469,0.634,0l0.054-2.21h0.163v6.051c0,0.628,0.862,0.61,0.862,0l0.055-3.513h0.171l0.054,3.513
			c0,0.61,0.862,0.628,0.862,0v-6.051h0.163l0.055,2.21c0,0.469,0.633,0.469,0.633,0v-2.417
			C442.74,222.808,442.494,222.613,441.736,222.613z"/>
	</g>
</g>
<g>
	<path class="st0" d="M618.347,543.088h-7.594c-1.034,0-1.872-0.838-1.872-1.872v-7.594c0-1.034,0.838-1.872,1.872-1.872h7.594
		c1.034,0,1.872,0.838,1.872,1.872v7.594C620.219,542.25,619.38,543.088,618.347,543.088z"/>
	<g>
		<circle class="st1" cx="614.55" cy="533.513" r="0.779"/>
		<path class="st1" d="M616.661,537.339l-0.668-2.199c-0.13-0.389-0.518-0.695-1.084-0.695h-0.718c-0.567,0-0.955,0.306-1.085,0.695
			l-0.668,2.199c-0.138,0.473,0.408,0.641,0.551,0.199l0.705-2.011h0.081c0,0-0.926,3.6-0.965,3.735
			c-0.02,0.067,0.008,0.116,0.08,0.116c0.044,0,0.802,0,0.802,0l0.001,2.364c0,0.481,0.72,0.481,0.72,0v-2.382h0.276v2.382
			c0,0.481,0.72,0.481,0.72,0v-2.364c0,0,0.757,0,0.801,0c0.071,0,0.1-0.049,0.08-0.116c-0.039-0.135-0.966-3.735-0.966-3.735h0.082
			l0.705,2.011C616.253,537.979,616.799,537.812,616.661,537.339z"/>
	</g>
</g>
<g>
	<path class="st0" d="M633.669,532.192h-7.594c-1.034,0-1.872-0.838-1.872-1.872v-7.594c0-1.034,0.838-1.872,1.872-1.872h7.594
		c1.034,0,1.872,0.838,1.872,1.872v7.594C635.541,531.354,634.703,532.192,633.669,532.192z"/>
	<g>
		<circle class="st1" cx="629.872" cy="522.573" r="0.787"/>
		<path class="st1" d="M630.719,523.515l-0.847,0.001l-0.846-0.001c-0.759,0-1.006,0.196-1.006,1.022v2.417
			c0,0.469,0.634,0.469,0.634,0l0.054-2.21h0.163v6.051c0,0.628,0.862,0.61,0.862,0l0.055-3.513h0.171l0.054,3.513
			c0,0.61,0.862,0.628,0.862,0v-6.051h0.163l0.055,2.21c0,0.469,0.633,0.469,0.633,0v-2.417
			C631.723,523.71,631.477,523.515,630.719,523.515z"/>
	</g>
</g>
<g>
	<path class="st0" d="M909.61,790.656h-7.594c-1.034,0-1.872-0.838-1.872-1.872v-7.594c0-1.034,0.838-1.872,1.872-1.872h7.594
		c1.034,0,1.872,0.838,1.872,1.872v7.594C911.482,789.818,910.644,790.656,909.61,790.656z"/>
	<g>
		<circle class="st1" cx="905.813" cy="781.081" r="0.779"/>
		<path class="st1" d="M907.924,784.906l-0.668-2.199c-0.13-0.389-0.518-0.695-1.084-0.695h-0.718c-0.567,0-0.955,0.306-1.085,0.695
			l-0.668,2.199c-0.138,0.473,0.408,0.641,0.551,0.199l0.705-2.011h0.081c0,0-0.926,3.6-0.965,3.735
			c-0.02,0.067,0.008,0.116,0.08,0.116c0.044,0,0.801,0,0.801,0l0.001,2.364c0,0.481,0.72,0.481,0.72,0v-2.382h0.276v2.382
			c0,0.481,0.72,0.481,0.72,0v-2.364c0,0,0.757,0,0.801,0c0.071,0,0.1-0.049,0.08-0.116c-0.039-0.135-0.966-3.735-0.966-3.735h0.082
			l0.705,2.011C907.516,785.547,908.063,785.379,907.924,784.906z"/>
	</g>
</g>
<g>
	<path class="st0" d="M895.704,769.224h-7.594c-1.034,0-1.872-0.838-1.872-1.872v-7.594c0-1.034,0.838-1.872,1.872-1.872h7.594
		c1.034,0,1.872,0.838,1.872,1.872v7.594C897.576,768.386,896.738,769.224,895.704,769.224z"/>
	<g>
		<circle class="st1" cx="891.907" cy="759.605" r="0.787"/>
		<path class="st1" d="M892.754,760.548l-0.847,0.001l-0.846-0.001c-0.759,0-1.006,0.196-1.006,1.022v2.417
			c0,0.469,0.634,0.469,0.634,0l0.054-2.21h0.163v6.051c0,0.628,0.862,0.61,0.862,0l0.055-3.513h0.171l0.054,3.513
			c0,0.61,0.862,0.628,0.862,0v-6.051h0.163l0.055,2.21c0,0.469,0.633,0.469,0.633,0v-2.417
			C893.758,760.743,893.512,760.548,892.754,760.548z"/>
	</g>
</g>
<g>
	<path class="st0" d="M389.322,443.145h-7.594c-1.034,0-1.872-0.838-1.872-1.872v-7.594c0-1.034,0.838-1.872,1.872-1.872h7.594
		c1.034,0,1.872,0.838,1.872,1.872v7.594C391.194,442.307,390.356,443.145,389.322,443.145z"/>
	<g>
		<circle class="st1" cx="388.627" cy="433.57" r="0.778"/>
		<path class="st1" d="M387.79,434.501l0.837,0.001l0.837-0.001c0.75,0,0.995,0.193,0.995,1.01v2.39c0,0.464-0.626,0.464-0.626,0
			l-0.054-2.186h-0.161v5.985c0,0.621-0.852,0.603-0.852,0l-0.054-3.474h-0.169l-0.054,3.474c0,0.603-0.852,0.621-0.852,0v-5.985
			h-0.16l-0.054,2.186c0,0.464-0.626,0.464-0.626,0v-2.39C386.796,434.695,387.041,434.501,387.79,434.501z"/>
		<circle class="st1" cx="382.724" cy="433.57" r="0.778"/>
		<path class="st1" d="M380.613,437.396l0.668-2.199c0.13-0.389,0.518-0.695,1.084-0.695h0.718c0.567,0,0.955,0.306,1.085,0.695
			l0.668,2.199c0.139,0.473-0.408,0.64-0.551,0.199l-0.706-2.01h-0.081c0,0,0.926,3.6,0.966,3.734
			c0.019,0.067-0.008,0.116-0.08,0.116c-0.044,0-0.802,0-0.802,0l-0.001,2.364c0,0.481-0.72,0.481-0.72,0v-2.383h-0.276v2.383
			c0,0.481-0.72,0.481-0.72,0l-0.001-2.364c0,0-0.758,0-0.802,0c-0.071,0-0.1-0.048-0.08-0.116c0.039-0.135,0.966-3.734,0.966-3.734
			h-0.082l-0.705,2.01C381.021,438.036,380.474,437.868,380.613,437.396z"/>
		<path class="st1" d="M385.397,441.784c0,0.208,0.168,0.376,0.376,0.376s0.376-0.168,0.376-0.376v-8.616
			c0-0.208-0.168-0.376-0.376-0.376s-0.376,0.168-0.376,0.376V441.784z"/>
	</g>
</g>
<g>
	<path class="st0" d="M412.167,51.542h-7.594c-1.034,0-1.872-0.838-1.872-1.872v-7.594c0-1.034,0.838-1.872,1.872-1.872h7.594
		c1.034,0,1.872,0.838,1.872,1.872v7.594C414.039,50.703,413.2,51.542,412.167,51.542z"/>
	<polygon class="st1" points="408.369,42.175 408.369,44.64 406.282,44.64 406.282,47.105 404.195,47.105 404.195,49.57 
		408.369,49.57 408.369,47.105 410.456,47.105 410.456,44.64 412.544,44.64 412.544,42.175 	"/>
</g>
<g>
	<g>
		<path class="st0" d="M396.941,431.245h-7.594c-1.034,0-1.872-0.838-1.872-1.872v-7.594c0-1.034,0.838-1.872,1.872-1.872h7.594
			c1.034,0,1.872,0.838,1.872,1.872v7.594C398.813,430.406,397.975,431.245,396.941,431.245z"/>
		<g>
			<path class="st1" d="M391.675,430.167h-2.058c-0.517,0-0.936-0.419-0.936-0.936v-7.311c0-0.517,0.419-0.936,0.936-0.936h2.058
				c0.517,0,0.936,0.419,0.936,0.936v7.311C392.611,429.748,392.192,430.167,391.675,430.167z"/>
			<path class="st1" d="M396.671,430.167h-2.058c-0.517,0-0.936-0.419-0.936-0.936v-7.311c0-0.517,0.419-0.936,0.936-0.936h2.058
				c0.517,0,0.936,0.419,0.936,0.936v7.311C397.607,429.748,397.188,430.167,396.671,430.167z"/>
		</g>
	</g>
	<path class="st0" d="M392.129,424.913l-1.444-1.444c-0.061-0.061-0.159-0.061-0.22,0l-1.444,1.444
		c-0.098,0.098-0.029,0.265,0.11,0.265h0.849v2.19c0,0.199,0.161,0.36,0.36,0.36h0.471c0.199,0,0.36-0.161,0.36-0.36v-2.19h0.849
		C392.158,425.178,392.227,425.011,392.129,424.913z"/>
	<path class="st0" d="M394.088,426.238l1.444,1.444c0.061,0.061,0.159,0.061,0.22,0l1.444-1.444c0.098-0.098,0.029-0.265-0.11-0.265
		h-0.849v-2.19c0-0.199-0.161-0.36-0.36-0.36h-0.471c-0.199,0-0.36,0.161-0.36,0.36v2.19h-0.849
		C394.059,425.973,393.99,426.14,394.088,426.238z"/>
</g>
<g>
	<g>
		<path class="st0" d="M527.341,503.052h-7.594c-1.034,0-1.872-0.838-1.872-1.872v-7.594c0-1.034,0.838-1.872,1.872-1.872h7.594
			c1.034,0,1.872,0.838,1.872,1.872v7.594C529.213,502.213,528.375,503.052,527.341,503.052z"/>
		<g>
			<path class="st1" d="M522.075,501.974h-2.058c-0.517,0-0.936-0.419-0.936-0.936v-7.311c0-0.517,0.419-0.936,0.936-0.936h2.058
				c0.517,0,0.936,0.419,0.936,0.936v7.311C523.011,501.555,522.592,501.974,522.075,501.974z"/>
			<path class="st1" d="M527.071,501.974h-2.058c-0.517,0-0.936-0.419-0.936-0.936v-7.311c0-0.517,0.419-0.936,0.936-0.936h2.058
				c0.517,0,0.936,0.419,0.936,0.936v7.311C528.007,501.555,527.588,501.974,527.071,501.974z"/>
		</g>
	</g>
	<path class="st0" d="M522.529,496.72l-1.444-1.444c-0.061-0.061-0.159-0.061-0.22,0l-1.444,1.444
		c-0.098,0.098-0.029,0.265,0.11,0.265h0.849v2.19c0,0.199,0.161,0.36,0.36,0.36h0.471c0.199,0,0.36-0.161,0.36-0.36v-2.19h0.849
		C522.558,496.985,522.627,496.818,522.529,496.72z"/>
	<path class="st0" d="M524.488,498.045l1.444,1.444c0.061,0.061,0.159,0.061,0.22,0l1.444-1.444c0.098-0.098,0.029-0.265-0.11-0.265
		h-0.849v-2.19c0-0.199-0.161-0.36-0.36-0.36h-0.471c-0.199,0-0.36,0.161-0.36,0.36v2.19h-0.849
		C524.459,497.78,524.39,497.947,524.488,498.045z"/>
</g>
<g>
	<g>
		<path class="st0" d="M862.83,632.201h-7.594c-1.034,0-1.872-0.838-1.872-1.872v-7.594c0-1.034,0.838-1.872,1.872-1.872h7.594
			c1.034,0,1.872,0.838,1.872,1.872v7.594C864.702,631.363,863.864,632.201,862.83,632.201z"/>
		<g>
			<path class="st1" d="M857.563,631.123h-2.058c-0.517,0-0.936-0.419-0.936-0.936v-7.311c0-0.517,0.419-0.936,0.936-0.936h2.058
				c0.517,0,0.936,0.419,0.936,0.936v7.311C858.5,630.704,858.08,631.123,857.563,631.123z"/>
			<path class="st1" d="M862.56,631.123h-2.058c-0.517,0-0.936-0.419-0.936-0.936v-7.311c0-0.517,0.419-0.936,0.936-0.936h2.058
				c0.517,0,0.936,0.419,0.936,0.936v7.311C863.496,630.704,863.077,631.123,862.56,631.123z"/>
		</g>
	</g>
	<path class="st0" d="M858.018,625.869l-1.444-1.444c-0.061-0.061-0.159-0.061-0.22,0l-1.444,1.444
		c-0.098,0.098-0.029,0.265,0.11,0.265h0.849v2.19c0,0.199,0.161,0.36,0.36,0.36h0.471c0.199,0,0.36-0.161,0.36-0.36v-2.19h0.849
		C858.047,626.134,858.116,625.967,858.018,625.869z"/>
	<path class="st0" d="M859.976,627.194l1.444,1.444c0.061,0.061,0.159,0.061,0.22,0l1.444-1.444c0.098-0.098,0.029-0.265-0.11-0.265
		h-0.849v-2.19c0-0.199-0.161-0.36-0.36-0.36h-0.471c-0.199,0-0.36,0.161-0.36,0.36v2.19h-0.849
		C859.948,626.929,859.879,627.096,859.976,627.194z"/>
</g>
<g>
	<g>
		<path class="st0" d="M749.883,264.306h-7.594c-1.034,0-1.872-0.838-1.872-1.872v-7.594c0-1.034,0.838-1.872,1.872-1.872h7.594
			c1.034,0,1.872,0.838,1.872,1.872v7.594C751.756,263.468,750.917,264.306,749.883,264.306z"/>
		<g>
			<path class="st1" d="M744.617,263.228h-2.058c-0.517,0-0.936-0.419-0.936-0.936v-7.311c0-0.517,0.419-0.936,0.936-0.936h2.058
				c0.517,0,0.936,0.419,0.936,0.936v7.311C745.553,262.809,745.134,263.228,744.617,263.228z"/>
			<path class="st1" d="M749.614,263.228h-2.058c-0.517,0-0.936-0.419-0.936-0.936v-7.311c0-0.517,0.419-0.936,0.936-0.936h2.058
				c0.517,0,0.936,0.419,0.936,0.936v7.311C750.55,262.809,750.13,263.228,749.614,263.228z"/>
		</g>
	</g>
	<path class="st0" d="M745.072,257.974l-1.444-1.444c-0.061-0.061-0.159-0.061-0.22,0l-1.444,1.444
		c-0.098,0.098-0.029,0.265,0.11,0.265h0.849v2.19c0,0.199,0.161,0.36,0.36,0.36h0.471c0.199,0,0.36-0.161,0.36-0.36v-2.19h0.849
		C745.101,258.239,745.17,258.072,745.072,257.974z"/>
	<path class="st0" d="M747.03,259.299l1.444,1.444c0.061,0.061,0.159,0.061,0.22,0l1.444-1.444c0.098-0.098,0.029-0.265-0.11-0.265
		h-0.849v-2.19c0-0.199-0.161-0.36-0.36-0.36h-0.471c-0.199,0-0.36,0.161-0.36,0.36v2.19h-0.849
		C747.002,259.034,746.932,259.201,747.03,259.299z"/>
</g>
<g>
	<circle class="st0" cx="570.239" cy="414.733" r="4.535"/>
	<path class="st1" d="M568.204,413.313l-0.675,2.923c-0.028,0.123,0.048,0.245,0.171,0.274l2.923,0.675
		c0.198,0.046,0.353-0.171,0.245-0.344l-0.661-1.057l2.728-1.705c0.248-0.155,0.323-0.481,0.168-0.729l-0.367-0.587
		c-0.155-0.248-0.481-0.323-0.729-0.168l-2.728,1.705l-0.661-1.057C568.512,413.071,568.25,413.115,568.204,413.313z"/>
</g>
<g>
	<circle class="st0" cx="504.433" cy="451.479" r="4.535"/>
	<path class="st1" d="M506.468,452.899l0.675-2.923c0.028-0.123-0.048-0.245-0.171-0.274l-2.923-0.675
		c-0.198-0.046-0.353,0.171-0.245,0.343l0.661,1.057l-2.728,1.704c-0.248,0.155-0.323,0.481-0.168,0.729l0.367,0.587
		c0.155,0.248,0.481,0.323,0.729,0.168l2.728-1.704l0.661,1.057C506.16,453.141,506.422,453.097,506.468,452.899z"/>
</g>
<g>
	<circle class="st0" cx="529.378" cy="149.96" r="4.535"/>
	<path class="st1" d="M530.798,147.924l-2.923-0.675c-0.123-0.028-0.245,0.048-0.274,0.171l-0.675,2.923
		c-0.046,0.198,0.171,0.353,0.343,0.245l1.057-0.661l1.704,2.728c0.155,0.248,0.481,0.323,0.729,0.168l0.587-0.367
		c0.248-0.155,0.323-0.481,0.168-0.729l-1.704-2.728l1.057-0.661C531.04,148.233,530.996,147.97,530.798,147.924z"/>
</g>
</svg>
