<?xml version="1.0" encoding="utf-8"?>
<!-- Generator: Adobe Illustrator 19.0.1, SVG Export Plug-In . SVG Version: 6.00 Build 0)  -->
<svg version="1.1" id="Calque_1" xmlns="http://www.w3.org/2000/svg" xmlns:xlink="http://www.w3.org/1999/xlink" x="0px" y="0px"
	 width="890px" height="1000px" viewBox="139 -104 890 1000" style="enable-background:new 139 -104 890 1000;"
	 xml:space="preserve">
<style type="text/css">
	.st0{fill:#FFFFFF;stroke:#383838;stroke-width:0.5;stroke-miterlimit:10;}
	.st1{fill:#61A1A1;stroke:#383838;stroke-width:0.5;stroke-miterlimit:10;}
	.st2{fill:#EBF0F2;stroke:#383838;stroke-width:0.5;stroke-miterlimit:10;}
	.st3{fill:none;stroke:#383838;stroke-width:0.5;stroke-miterlimit:10;}
	.st4{fill:#BFD9E0;stroke:#383838;stroke-width:0.5;stroke-miterlimit:10;}
	.st5{fill:#ED865B;stroke:#383838;stroke-width:0.5;stroke-miterlimit:10;}
	.st6{fill:#A3CCCB;stroke:#383838;stroke-width:0.5;stroke-miterlimit:10;}
	.st7{fill:#ED9B7E;stroke:#383838;stroke-width:0.5;stroke-miterlimit:10;}
	.st8{fill:none;stroke:#383838;stroke-width:0.5;stroke-miterlimit:10;stroke-dasharray:2;}
</style>
<g id="locaux">
	<path class="st0" d="M938.06,820.182l9.661,15.461l-43.563,27.221l-87.662-140.289l17.465-10.914l-8.95-14.323l6.013-3.757
		l-34.671-75.873l12.086-4.965l-8.051-12.884l-26.21-41.945c0,0-150.326,94.009-156.372,97.712
		c-31.96,19.573-89.614,20.963-122.82-28.355c-8.108-12.042-41.117-65.802-41.117-65.802l21.188-13.239l-30.411-48.668
		l-21.317,13.24l-38.108-60.986L293.306,304.52l-19.099-30.564l-30.036-47.86l-47.693-76.324l38.313-23.94l7.589,12.145
		L369.939,58.27l55.832-34.888l134.856-84.267l158.429,253.539l48.101-30.057L907.423,387.07l40.189,64.523l-2.968,1.855
		l-18.94,11.835l-12.643,7.9l-60.413,37.75l-66.404,41.494l33.608,53.785l62.358-28.217l103.344,219.269L938.06,820.182z"/>
	<polygon class="st1" points="445.589,73.016 477.497,53.078 535.526,145.942 514.446,159.699 503.88,166.302 474.205,118.811 
		458.136,128.852 444.8,107.509 460.868,97.468 	"/>
	<polyline class="st2" points="852.575,591.381 859.327,606.106 828.308,619.741 834.137,629.069 852.118,620.044 857.676,631.24 
		861.207,629.399 947.727,815.554 	"/>
	<polygon class="st2" points="971.489,767.417 933.52,784.987 947.727,815.554 985.555,797.262 	"/>
	<polygon class="st2" points="971.489,767.417 957.33,737.375 919.614,755.067 933.52,784.987 	"/>
	<polygon class="st2" points="957.33,737.375 943.289,707.583 905.813,725.372 919.614,755.067 	"/>
	<polygon class="st2" points="943.289,707.583 929.457,678.235 891.907,695.453 905.813,725.372 	"/>
	<polygon class="st2" points="929.457,678.235 915.393,648.397 877.988,665.505 891.907,695.453 	"/>
	<polygon class="st2" points="915.393,648.397 901.315,618.526 864.37,636.205 877.988,665.505 	"/>
	<polygon class="st2" points="861.207,629.399 864.37,636.205 901.315,618.526 882.211,577.993 852.575,591.381 868.786,625.842 	
		"/>
	<polygon class="st2" points="863.509,614.625 843.424,624.532 838.973,615.086 859.327,606.106 	"/>
	<polygon class="st2" points="838.973,615.086 828.308,619.741 834.137,629.069 843.424,624.532 	"/>
	<polygon class="st2" points="933.381,844.603 915.364,815.77 922.643,811.221 918.359,804.366 881.857,827.175 904.158,862.864 	
		"/>
	<line class="st3" x1="922.643" y1="811.221" x2="929.703" y2="806.809"/>
	<line class="st3" x1="938.06" y1="820.182" x2="934.782" y2="814.936"/>
	<polygon class="st2" points="918.359,804.366 914.694,798.501 906.85,803.402 888.712,774.376 860.054,792.284 881.857,827.175 	
		"/>
	<polygon class="st4" points="914.694,798.501 921.755,794.089 906.034,768.93 891.129,778.244 906.85,803.402 	"/>
	
		<rect x="881.078" y="755.029" transform="matrix(-0.5299 -0.848 0.848 -0.5299 717.7654 1925.4935)" class="st4" width="22.916" height="17.575"/>
	
		<rect x="874.607" y="738.74" transform="matrix(-0.5299 -0.848 0.848 -0.5299 716.0059 1891.9391)" class="st2" width="15.499" height="17.575"/>
	<polygon class="st2" points="878.616,740.763 874.906,734.826 838.404,757.636 860.054,792.284 888.712,774.376 870.771,745.664 	
		"/>
	<polygon class="st2" points="874.906,734.826 871.153,728.819 863.308,733.721 845.154,704.668 816.496,722.576 838.404,757.636 	
		"/>
	<polygon class="st2" points="871.153,728.819 878.213,724.407 871.192,713.171 856.287,722.484 863.308,733.721 	"/>
	
		<rect x="847.693" y="700.082" transform="matrix(-0.5299 -0.848 0.848 -0.5299 711.8275 1812.3068)" class="st2" width="21.008" height="17.575"/>
	<polygon class="st2" points="829.133,689.445 850.304,679.743 841.119,665.044 821.958,673.743 	"/>
	<polygon class="st2" points="841.119,665.044 832.375,651.051 815.085,658.702 821.958,673.743 	"/>
	<polygon class="st2" points="832.375,651.051 823.56,636.944 808.168,643.566 815.085,658.702 	"/>
	<polygon class="st2" points="823.56,636.944 814.932,623.136 801.556,629.096 808.168,643.566 	"/>
	<polygon class="st2" points="814.932,623.136 808.438,612.744 796.353,617.709 801.556,629.096 	"/>
	<line class="st3" x1="850.304" y1="679.743" x2="853.307" y2="684.549"/>
	<line class="st3" x1="860.059" y1="695.354" x2="857.458" y2="691.192"/>
	
		<rect x="774.998" y="531.463" transform="matrix(0.5299 0.848 -0.848 0.5299 825.8351 -414.9366)" class="st2" width="24.413" height="11.999"/>
	
		<rect x="785.528" y="524.467" transform="matrix(0.5299 0.848 -0.848 0.5299 825.2056 -426.9591)" class="st2" width="24.413" height="12.832"/>
	
		<rect x="796.315" y="517.842" transform="matrix(0.5299 0.848 -0.848 0.5299 824.5604 -439.2751)" class="st2" width="24.413" height="12.602"/>
	
		<rect x="802.158" y="508.478" transform="matrix(0.5299 0.848 -0.848 0.5299 820.8544 -451.3177)" class="st2" width="30.746" height="12.602"/>
	
		<rect x="783.633" y="481.164" transform="matrix(0.5299 0.848 -0.848 0.5299 789.6684 -449.685)" class="st2" width="33.665" height="12.602"/>
	
		<rect x="781.984" y="461.587" transform="matrix(0.5299 0.848 -0.848 0.5299 767.317 -448.5144)" class="st2" width="12.499" height="12.602"/>
	
		<rect x="798.881" y="449.672" transform="matrix(0.5299 0.848 -0.848 0.5299 769.2847 -469.6661)" class="st2" width="18.832" height="18.832"/>
	
		<rect x="814.853" y="439.692" transform="matrix(0.5299 0.848 -0.848 0.5299 768.3293 -487.9026)" class="st2" width="18.832" height="18.832"/>
	
		<rect x="828.211" y="434.428" transform="matrix(0.5299 0.848 -0.848 0.5299 767.5305 -503.1535)" class="st2" width="18.832" height="12.666"/>
	
		<rect x="840.345" y="442.352" transform="matrix(0.5299 0.848 -0.848 0.5299 797.3329 -528.9069)" class="st2" width="70.827" height="24.832"/>
	
		<rect x="762.476" y="471.342" transform="matrix(0.5299 0.848 -0.848 0.5299 769.8933 -427.1222)" class="st2" width="15.499" height="19.134"/>
	
		<rect x="770.689" y="484.487" transform="matrix(0.5299 0.848 -0.848 0.5299 784.9018 -427.9083)" class="st2" width="15.499" height="19.134"/>
	
		<rect x="778.903" y="497.633" transform="matrix(0.5299 0.848 -0.848 0.5299 799.9112 -428.6945)" class="st2" width="15.499" height="19.134"/>
	
		<rect x="759.772" y="506.162" transform="matrix(0.5299 0.848 -0.848 0.5299 796.9479 -413.424)" class="st2" width="23.249" height="11.999"/>
	
		<rect x="747.452" y="486.444" transform="matrix(0.5299 0.848 -0.848 0.5299 774.4352 -412.2454)" class="st2" width="23.249" height="11.999"/>
	<polygon class="st2" points="831.039,524.433 857.436,507.939 826.658,458.683 805.315,472.02 795.335,456.048 790.281,459.206 	
		"/>
	<polygon class="st2" points="857.436,507.939 884.008,491.335 843.25,426.108 838.02,429.376 848,445.347 826.658,458.683 	"/>
	
		<rect x="843.021" y="419.077" transform="matrix(0.848 -0.5299 0.5299 0.848 -93.7027 517.4627)" class="st2" width="24.832" height="6.083"/>
	<polygon class="st2" points="864.31,412.948 860.865,407.436 871.325,400.9 874.769,406.412 906.947,386.306 947.705,451.533 
		905.068,478.175 	"/>
	<polygon class="st2" points="860.865,407.436 871.325,400.9 874.769,406.412 906.947,386.306 887.075,354.504 863.095,369.488 
		871.22,382.491 852.563,394.15 	"/>
	
		<rect x="850.172" y="370.775" transform="matrix(-0.5299 -0.848 0.848 -0.5299 988.6687 1311.5709)" class="st2" width="15.332" height="21.999"/>
	<polygon class="st2" points="887.075,354.504 844.438,381.146 841.258,376.058 851.859,369.434 834.99,342.438 867.026,322.419 	
		"/>
	
		<rect x="822.217" y="352.955" transform="matrix(-0.5299 -0.848 0.848 -0.5299 977.6604 1260.3297)" class="st2" width="31.831" height="12.499"/>
	
		<rect x="805.985" y="326.314" transform="matrix(-0.5299 -0.848 0.848 -0.5299 974.7817 1205.4524)" class="st2" width="30.998" height="12.499"/>
	
		<rect x="822.27" y="297.939" transform="matrix(0.848 -0.5299 0.5299 0.848 -39.9579 493.8625)" class="st2" width="37.775" height="37.331"/>
	
		<rect x="803.565" y="307.88" transform="matrix(0.5299 0.848 -0.848 0.5299 647.1065 -539.165)" class="st2" width="12.666" height="12.499"/>
	<polygon class="st2" points="811.85,305.406 817.08,302.139 801.27,276.838 785.44,286.73 801.249,312.03 	"/>
	
		<rect x="771.459" y="237.84" transform="matrix(0.848 -0.5299 0.5299 0.848 -15.19 461.2044)" class="st2" width="50.274" height="38.498"/>
	
		<rect x="752.998" y="211.965" transform="matrix(0.848 -0.5299 0.5299 0.848 -2.3408 446.9325)" class="st2" width="50.274" height="31.165"/>
	
		<rect x="732.738" y="172.478" transform="matrix(0.848 -0.5299 0.5299 0.848 11.7626 431.269)" class="st2" width="50.274" height="45.293"/>
	
		<rect x="777.657" y="365.983" transform="matrix(0.848 -0.5299 0.5299 0.848 -81.9782 483.9103)" class="st2" width="50.274" height="37.831"/>
	
		<rect x="752.793" y="317.111" transform="matrix(0.848 -0.5299 0.5299 0.848 -64.6712 464.688)" class="st2" width="50.274" height="55.997"/>
	
		<rect x="744.444" y="300.502" transform="matrix(0.848 -0.5299 0.5299 0.848 -48.2828 451.6241)" class="st2" width="37.803" height="18.999"/>
	
		<rect x="735.79" y="313.825" transform="matrix(0.848 -0.5299 0.5299 0.848 -58.5823 442.351)" class="st2" width="12.471" height="18.999"/>
	
		<rect x="724.337" y="292.886" transform="matrix(0.848 -0.5299 0.5299 0.848 -50.6102 433.4964)" class="st2" width="12.471" height="24.221"/>
	
		<rect x="790.82" y="415.424" transform="matrix(0.5299 0.848 -0.848 0.5299 735.2438 -483.1095)" class="st0" width="25.166" height="12.471"/>
	<line class="st3" x1="811.971" y1="423.543" x2="826.812" y2="414.27"/>
	<line class="st3" x1="732.837" y1="296.901" x2="747.678" y2="287.628"/>
	
		<rect x="772.778" y="427.533" transform="matrix(0.5299 0.848 -0.848 0.5299 736.6615 -455.255)" class="st2" width="12.416" height="18.666"/>
	<polygon class="st0" points="711.722,427.915 737.909,469.823 774.375,447.036 748.28,405.071 	"/>
	
		<rect x="747.441" y="406.604" transform="matrix(0.5299 0.848 -0.848 0.5299 712.7337 -454.0551)" class="st2" width="36.998" height="18.557"/>
	
		<rect x="738.901" y="381.36" transform="matrix(0.5299 0.848 -0.848 0.5299 685.7611 -449.5856)" class="st2" width="19.041" height="24.853"/>
	
		<rect x="734.43" y="368.325" transform="matrix(0.5299 0.848 -0.848 0.5299 666.9868 -455.0351)" class="st2" width="19.041" height="11.603"/>
	
		<rect x="708.233" y="336.548" transform="matrix(0.5299 0.848 -0.848 0.5299 630.7059 -453.1355)" class="st2" width="31.727" height="11.603"/>
	
		<rect x="682.776" y="304.849" transform="matrix(0.5299 0.848 -0.848 0.5299 604.3336 -435.5214)" class="st2" width="24.492" height="45.04"/>
	
		<rect x="698.17" y="342.575" transform="matrix(0.5299 0.848 -0.848 0.5299 631.3077 -441.6462)" class="st2" width="31.727" height="12.124"/>
	
		<rect x="687.888" y="349" transform="matrix(0.5299 0.848 -0.848 0.5299 631.9229 -429.9064)" class="st2" width="31.727" height="12.124"/>
	
		<rect x="677.472" y="355.352" transform="matrix(0.5299 0.848 -0.848 0.5299 632.5455 -418.0139)" class="st2" width="31.727" height="12.437"/>
	
		<rect x="666.526" y="361.722" transform="matrix(0.5299 0.848 -0.848 0.5299 633.1998 -405.5169)" class="st2" width="31.727" height="13.374"/>
	
		<rect x="656.626" y="335.395" transform="matrix(0.5299 0.848 -0.848 0.5299 605.8968 -405.6647)" class="st2" width="24.492" height="16.624"/>
	
		<rect x="718.281" y="394.783" transform="matrix(0.5299 0.848 -0.848 0.5299 683.5162 -431.6068)" class="st2" width="25.603" height="11.937"/>
	
		<rect x="708.157" y="401.108" transform="matrix(0.5299 0.848 -0.848 0.5299 684.1219 -420.0479)" class="st2" width="25.603" height="11.937"/>
	
		<rect x="697.609" y="407.199" transform="matrix(0.5299 0.848 -0.848 0.5299 684.753 -408.0047)" class="st2" width="25.603" height="12.937"/>
	<polygon class="st2" points="737.434,352.693 743.837,362.94 733.996,369.089 744.087,385.238 732.85,392.259 729.372,386.694 
		698.154,406.201 685.137,385.371 	"/>
	
		<rect x="719.801" y="539.377" transform="matrix(0.5299 0.848 -0.848 0.5299 820.6356 -363.7026)" class="st2" width="37.177" height="38.026"/>
	
		<rect x="700.748" y="508.204" transform="matrix(0.5299 0.848 -0.848 0.5299 785.0444 -361.839)" class="st2" width="36.331" height="38.026"/>
	
		<rect x="688.269" y="559.927" transform="matrix(0.5299 0.848 -0.848 0.5299 822.5217 -327.7)" class="st2" width="37.177" height="36.331"/>
	
		<rect x="671.458" y="586.94" transform="matrix(0.5299 0.848 -0.848 0.5299 826.6171 -303.56)" class="st2" width="31.344" height="13.832"/>
	
		<rect x="659.725" y="594.27" transform="matrix(0.5299 0.848 -0.848 0.5299 827.3181 -290.1645)" class="st2" width="31.344" height="13.832"/>
	
		<rect x="647.075" y="601.091" transform="matrix(0.5299 0.848 -0.848 0.5299 828.0744 -275.7216)" class="st2" width="31.344" height="15.999"/>
	
		<rect x="634.778" y="610.274" transform="matrix(0.5299 0.848 -0.848 0.5299 828.8099 -261.6812)" class="st2" width="31.344" height="12.999"/>
	
		<rect x="623.187" y="616.85" transform="matrix(0.5299 0.848 -0.848 0.5299 829.5029 -248.4471)" class="st2" width="31.344" height="14.332"/>
	
		<rect x="610.749" y="624.288" transform="matrix(0.5299 0.848 -0.848 0.5299 830.2466 -234.2456)" class="st2" width="31.344" height="14.999"/>
	
		<rect x="669.215" y="528.753" transform="matrix(0.5299 0.848 -0.848 0.5299 786.9296 -325.8364)" class="st2" width="36.331" height="36.331"/>
	<polygon class="st2" points="628.392,649.016 613.291,658.18 600.474,629.498 611.781,622.433 	"/>
	<path class="st2" d="M613.291,658.18c0,0-10.29,4.797-15.14,6.114l-7.995-29.92l10.318-4.875L613.291,658.18z"/>
	<path class="st2" d="M590.156,634.374l-12.455,2.083l-1.641,31.698c0,0,11.114-0.212,22.091-3.861L590.156,634.374z"/>
	<path class="st2" d="M577.701,636.457l-15.405-1.379l-3.991,32.407c0,0,14.668,1.434,17.755,0.67L577.701,636.457z"/>
	<path class="st2" d="M553.127,633.928l-12.472-3.605l-13.707,26.842c0,0,10.659,5.356,15.798,6.833L553.127,633.928z"/>
	<path class="st2" d="M540.654,630.323l-9.522-8.004l-19.919,23.66c0,0,9.343,7.908,15.733,11.186L540.654,630.323z"/>
	<path class="st2" d="M531.133,622.319l-6.589-7.085l-24.743,18.63c0,0,7.001,8.564,11.414,12.115L531.133,622.319z"/>
	<path class="st2" d="M524.544,615.234l-5.829-9.328l-26.769,16.727c0,0,6.641,9.778,7.855,11.232L524.544,615.234z"/>
	<polygon class="st2" points="518.715,605.906 511.384,594.175 484.529,610.955 491.946,622.633 	"/>
	<polygon class="st2" points="511.384,594.175 504.849,583.715 495.55,589.526 491.929,583.731 474.373,594.701 484.529,610.955 	
		"/>
	
		<rect x="487.476" y="574.041" transform="matrix(-0.5299 -0.848 0.848 -0.5299 267.0912 1307.0963)" class="st2" width="16.666" height="10.964"/>
	<polygon class="st2" points="496.017,569.581 491.159,561.807 464.304,578.588 474.373,594.701 491.929,583.731 486.718,575.392 	
		"/>
	
		<rect x="462.515" y="545.887" transform="matrix(-0.5299 -0.848 0.848 -0.5299 246.6803 1259.9554)" class="st2" width="20.047" height="31.445"/>
	
		<rect x="619.027" y="556.507" transform="matrix(-0.848 0.5299 -0.5299 -0.848 1489.8113 716.9749)" class="st2" width="46.165" height="31.165"/>
	
		<rect x="607.511" y="576.212" transform="matrix(-0.848 0.5299 -0.5299 -0.848 1451.3376 764.2516)" class="st2" width="17.166" height="27.999"/>
	<polygon class="st2" points="614.312,571.129 589.297,566.322 584.861,583.44 595.637,586.533 615.99,573.815 	"/>
	<polygon class="st2" points="595.637,586.533 593.322,592.893 605.952,613.104 616.27,606.657 601.432,582.912 	"/>
	<polygon class="st2" points="605.952,613.104 592.666,621.406 589.575,616.46 592.862,603.793 598.091,600.525 	"/>
	<polygon class="st2" points="592.666,621.406 588.002,624.321 572.631,626.457 566.721,625.04 569.47,611.334 589.575,616.46 	"/>
	<polygon class="st2" points="569.47,611.334 572.157,598.65 592.862,603.793 589.575,616.46 	"/>
	<polygon class="st2" points="572.157,598.65 576.611,580.931 584.861,583.44 595.637,586.533 593.322,592.893 598.091,600.525 
		592.862,603.793 	"/>
	<polygon class="st2" points="554.947,622.375 545.09,621.066 534.844,610.96 543.183,605.749 558.023,609.054 	"/>
	<polygon class="st2" points="558.023,609.054 561.717,592.006 552.883,590.451 550.815,600.98 543.183,605.749 	"/>
	<polygon class="st2" points="561.717,592.006 564.739,578.916 544.175,573.684 540.429,587.817 552.883,590.451 	"/>
	<polygon class="st2" points="556.736,576.88 560.589,559.694 547.816,556.866 544.175,573.684 	"/>
	<polygon class="st2" points="542.916,578.606 534.511,576.775 532.254,585.998 540.429,587.817 	"/>
	<polygon class="st2" points="532.254,585.998 540.429,587.817 552.883,590.451 550.815,600.98 534.844,610.96 522.899,591.844 	"/>
	<polygon class="st2" points="534.511,576.775 535.775,570.777 532.198,565.053 513.47,576.755 522.899,591.844 532.254,585.998 	
		"/>
	
		<rect x="517.286" y="556.742" transform="matrix(-0.5299 -0.848 0.848 -0.5299 327.2796 1303.0625)" class="st2" width="14.999" height="8.167"/>
	
		<rect x="502.695" y="556.821" transform="matrix(-0.5299 -0.848 0.848 -0.5299 307.6783 1298.106)" class="st2" width="21.832" height="13.916"/>
	<polygon class="st2" points="517.324,556.66 513.703,550.865 501.901,558.24 496.116,548.982 514.843,537.279 524.249,552.332 	"/>
	
		<rect x="620.477" y="517.154" transform="matrix(-0.5299 -0.848 0.848 -0.5299 517.2063 1339.6621)" class="st4" width="18.832" height="18.666"/>
	
		<rect x="604.25" y="526.921" transform="matrix(0.5299 0.848 -0.848 0.5299 743.5874 -268.1415)" class="st4" width="18.832" height="19.499"/>
	
		<rect x="588.036" y="488.825" transform="matrix(0.5299 0.848 -0.848 0.5299 715.9212 -275.7555)" class="st2" width="37.331" height="38.165"/>
	<path class="st5" d="M580.646,502.156l-29.72-47.561l-7.774,4.858l-11.217-17.95c0,0,13.278-20.58,41.438-11.055l2.898-7.314
		l36.741,58.798L580.646,502.156z"/>
	<polygon class="st5" points="573.374,430.446 569.716,440.789 573.558,446.938 576.314,445.216 590.975,468.678 583.626,473.271 
		595.77,492.705 613.013,481.93 576.272,423.132 	"/>
	<polygon class="st5" points="573.558,446.938 571.393,453.695 583.626,473.271 590.975,468.678 576.314,445.216 	"/>
	<path class="st5" d="M529.991,456.67l-4.152,2.594l-3.348-0.954c0,0-2.624,9.796-0.373,18.117l3.162-0.6l2.526,6.873l-2.615,1.634
		l37.845,60.565l5.795-3.621l5.52,8.834l26.077-16.295l-49.503-79.222l-7.774,4.858l-8.215,5.134L529.991,456.67z"/>
	
		<rect x="541.56" y="452.642" transform="matrix(-0.5299 -0.848 0.848 -0.5299 441.2198 1168.7063)" class="st5" width="5.917" height="18.853"/>
	
		<rect x="469.973" y="531.161" transform="matrix(0.5299 0.848 -0.848 0.5299 680.8467 -151.6764)" class="st2" width="14.534" height="14.295"/>
	
		<rect x="481.294" y="524.936" transform="matrix(0.5299 0.848 -0.848 0.5299 680.1694 -164.602)" class="st2" width="14.534" height="12.597"/>
	
		<rect x="491.979" y="518.26" transform="matrix(0.5299 0.848 -0.848 0.5299 679.5307 -176.8012)" class="st2" width="14.534" height="12.597"/>
	
		<rect x="455.284" y="489.861" transform="matrix(0.5299 0.848 -0.848 0.5299 654.977 -162.5066)" class="st2" width="37.581" height="39.393"/>
	
		<rect x="454.619" y="468.658" transform="matrix(0.5299 0.848 -0.848 0.5299 630.7685 -161.2391)" class="st2" width="12.416" height="39.393"/>
	
		<rect x="380.949" y="452.893" transform="matrix(0.5299 0.848 -0.848 0.5299 586.7326 -127.6257)" class="st3" width="55.08" height="25.093"/>
	<polygon class="st4" points="404.556,435.41 399.301,427 390.719,432.363 385.817,424.519 373.131,432.446 383.288,448.7 	"/>
	
		<rect x="387.955" y="420.677" transform="matrix(-0.5299 -0.848 0.848 -0.5299 239.5759 984.2713)" class="st2" width="9.25" height="10.119"/>
	
		<rect x="377.567" y="405.562" transform="matrix(0.5299 0.848 -0.848 0.5299 531.938 -134.111)" class="st2" width="18.749" height="14.416"/>
	
		<rect x="365.104" y="413.071" transform="matrix(0.5299 0.848 -0.848 0.5299 532.683 -119.8816)" class="st2" width="18.749" height="14.972"/>
	
		<rect x="361.282" y="386.142" transform="matrix(0.5299 0.848 -0.848 0.5299 514.1619 -125.911)" class="st2" width="18.749" height="29.389"/>
	
		<rect x="351.347" y="370.24" transform="matrix(0.5299 0.848 -0.848 0.5299 496.0062 -124.9602)" class="st2" width="18.749" height="29.389"/>
	
		<rect x="341.411" y="354.338" transform="matrix(0.5299 0.848 -0.848 0.5299 477.8505 -124.0093)" class="st2" width="18.749" height="29.389"/>
	
		<rect x="317.262" y="330.557" transform="matrix(0.5299 0.848 -0.848 0.5299 450.6984 -122.5882)" class="st2" width="37.331" height="29.388"/>
	
		<rect x="296.012" y="298.081" transform="matrix(0.5299 0.848 -0.848 0.5299 413.6194 -120.6458)" class="st2" width="39.248" height="29.388"/>
	
		<rect x="280.264" y="262.15" transform="matrix(0.5299 0.848 -0.848 0.5299 369.4153 -116.5111)" class="st2" width="19.082" height="25.639"/>
	<polygon class="st2" points="563.037,544.898 566.769,550.87 565.143,551.886 542.062,546.557 539.656,542.705 555.486,532.814 	
		"/>
	
		<rect x="537.445" y="522.857" transform="matrix(0.5299 0.848 -0.848 0.5299 707.063 -211.2086)" class="st6" width="13.207" height="18.666"/>
	
		<rect x="531.37" y="512.168" transform="matrix(0.5299 0.848 -0.848 0.5299 694.8583 -210.5695)" class="st6" width="11.999" height="18.666"/>
	
		<rect x="524.533" y="501.726" transform="matrix(0.5299 0.848 -0.848 0.5299 682.9359 -209.9448)" class="st6" width="12.624" height="18.666"/>
	
		<rect x="515.367" y="495.598" transform="matrix(0.5299 0.848 -0.848 0.5299 670.9217 -206.4427)" class="st1" width="12.624" height="12.749"/>
	
		<rect x="508.487" y="484.785" transform="matrix(0.5299 0.848 -0.848 0.5299 658.5764 -205.7968)" class="st0" width="12.874" height="12.749"/>
	
		<rect x="492.693" y="468.892" transform="matrix(0.5299 0.848 -0.848 0.5299 640.4308 -204.8467)" class="st1" width="24.603" height="12.749"/>
	<path class="st1" d="M576.272,423.132l-36.299-58.091l-74.664,46.655l25.524,40.848l5.406-3.378l4.841-3.025l7.662,12.261
		l-4.841,3.025l26.551,42.491l5.018-3.135l-10.278-16.449l2.615-1.634l-2.526-6.873l-3.162,0.6c0,0-1.731-5.6,0.373-18.117
		l3.348,0.954l4.152-2.594l4.946,7.915l8.215-5.134l-11.217-17.95c0,0,13.42-20.669,41.438-11.055L576.272,423.132z"/>
	<line class="st3" x1="414.289" y1="450.986" x2="433.655" y2="438.885"/>
	<polygon class="st2" points="648.604,503.713 665.259,493.306 675.106,509.066 663.95,516.037 655.094,514.099 	"/>
	<polyline class="st2" points="706.645,467.445 704.576,476.407 699.326,479.688 695.879,474.173 665.259,493.306 	"/>
	<polygon class="st2" points="680.569,483.739 706.645,467.445 708.862,458.838 691.691,431.358 660.152,451.065 	"/>
	
		<rect x="635.497" y="458.108" transform="matrix(-0.848 0.5299 -0.5299 -0.848 1462.2238 535.4489)" class="st2" width="37.69" height="38.526"/>
	<polygon class="st2" points="691.691,431.358 693.59,423.134 680.487,402.165 671.647,400.085 640.469,419.567 660.152,451.065 	
		"/>
	<polygon class="st2" points="660.152,451.065 628.187,471.039 618.817,468.876 606.255,448.774 608.413,439.598 640.469,419.567 	
		"/>
	<polygon class="st2" points="671.647,400.085 655.222,373.799 646.9,371.878 620.844,388.16 640.469,419.567 	"/>
	<polygon class="st2" points="608.413,439.598 592.352,413.895 594.41,404.98 620.98,388.377 640.469,419.567 	"/>
	<polygon class="st2" points="607.482,308.903 609.565,299.88 593.34,273.914 561.385,293.881 581.08,325.401 	"/>
	<polygon class="st2" points="581.08,325.401 554.903,341.758 545.394,339.562 529.355,313.896 561.385,293.881 	"/>
	<polygon class="st1" points="593.34,273.914 595.4,264.99 582.228,243.91 573.335,241.721 541.208,261.796 561.294,293.938 	"/>
	<polygon class="st2" points="561.294,293.938 529.355,313.896 520.675,311.892 506.967,289.955 508.952,281.952 541.208,261.796 	
		"/>
	
		<rect x="555.737" y="231.997" transform="matrix(0.5299 0.848 -0.848 0.5299 468.0114 -364.5793)" class="st2" width="14.263" height="15.75"/>
	
		<rect x="542.814" y="240.585" transform="matrix(0.5299 0.848 -0.848 0.5299 468.7844 -349.8242)" class="st2" width="14.263" height="14.724"/>
	
		<rect x="527.197" y="246.59" transform="matrix(0.5299 0.848 -0.848 0.5299 469.7179 -331.9939)" class="st2" width="14.263" height="22.229"/>
	
		<rect x="536.927" y="208.398" transform="matrix(0.5299 0.848 -0.848 0.5299 445.3727 -356.2754)" class="st2" width="14.263" height="30.411"/>
	
		<rect x="514.578" y="226.484" transform="matrix(0.5299 0.848 -0.848 0.5299 446.7082 -330.7585)" class="st2" width="14.263" height="22.166"/>
	
		<rect x="495.696" y="238.184" transform="matrix(0.5299 0.848 -0.848 0.5299 447.8374 -309.2006)" class="st2" width="14.263" height="22.36"/>
	
		<rect x="508.059" y="258.212" transform="matrix(0.5299 0.848 -0.848 0.5299 470.8624 -310.1434)" class="st2" width="14.263" height="22.9"/>
	<polygon class="st2" points="521.06,229.581 553.183,209.47 555.296,200.318 542.351,179.603 532.575,177.346 500.846,197.172 	"/>
	<polygon class="st2" points="521.178,229.507 489.712,249.131 480.681,246.943 467.736,226.227 469.864,216.532 500.911,197.132 	
		"/>
	<path class="st2" d="M485.489,206.769l-2.688-4.301l-16.136,10.083l2.688,4.301C469.353,216.852,486.196,206.327,485.489,206.769z"
		/>
	
		<rect x="511.048" y="165.385" transform="matrix(-0.5299 -0.848 0.848 -0.5299 647.4722 708.1478)" class="st2" width="17.904" height="18.481"/>
	
		<rect x="630.688" y="280.061" transform="matrix(0.5299 0.848 -0.848 0.5299 559.8389 -413.0539)" class="st2" width="43.64" height="36.811"/>
	
		<rect x="674.935" y="254.068" transform="matrix(0.5299 0.848 -0.848 0.5299 560.3727 -458.4843)" class="st2" width="37.64" height="44.331"/>
	
		<rect x="699.817" y="242.693" transform="matrix(0.5299 0.848 -0.848 0.5299 555.7067 -491.9807)" class="st2" width="43.64" height="25.166"/>
	
		<rect x="740.093" y="252.381" transform="matrix(0.5299 0.848 -0.848 0.5299 570.0777 -511.1133)" class="st2" width="11.974" height="12.582"/>
	
		<rect x="722.994" y="226.101" transform="matrix(0.5299 0.848 -0.848 0.5299 540.0726 -509.542)" class="st2" width="13.332" height="12.582"/>
	
		<rect x="702.698" y="203.856" transform="matrix(0.5299 0.848 -0.848 0.5299 514.6736 -508.2119)" class="st2" width="26.127" height="12.582"/>
	
		<rect x="686.656" y="207.574" transform="matrix(0.5299 0.848 -0.848 0.5299 515.6328 -489.8957)" class="st2" width="26.127" height="25.193"/>
	
		<rect x="670.737" y="223.818" transform="matrix(0.5299 0.848 -0.848 0.5299 516.5846 -471.7203)" class="st2" width="26.127" height="12.596"/>
	
		<rect x="660.053" y="230.494" transform="matrix(0.5299 0.848 -0.848 0.5299 517.2234 -459.5221)" class="st2" width="26.127" height="12.596"/>
	
		<rect x="643.918" y="234.147" transform="matrix(0.5299 0.848 -0.848 0.5299 518.1873 -441.1005)" class="st2" width="26.127" height="25.451"/>
	
		<rect x="615.988" y="247.72" transform="matrix(0.5299 0.848 -0.848 0.5299 522.9133 -411.1205)" class="st2" width="32.626" height="36.811"/>
	
		<rect x="582.449" y="208.707" transform="matrix(0.5299 0.848 -0.848 0.5299 480.3488 -410.024)" class="st5" width="55.161" height="39.144"/>
	
		<rect x="624.088" y="140.045" transform="matrix(0.5299 0.848 -0.848 0.5299 468.2557 -472.9349)" class="st7" width="73.285" height="91.739"/>
	
		<rect x="452.088" y="4.069" transform="matrix(0.5299 0.848 -0.848 0.5299 324.5023 -446.4034)" class="st0" width="225.668" height="130.883"/>
	
		<rect x="728.884" y="239.53" transform="matrix(0.5299 0.848 -0.848 0.5299 555.4045 -510.3444)" class="st2" width="18.332" height="12.582"/>
	
		<rect x="499.607" y="151.448" transform="matrix(-0.5299 -0.848 0.848 -0.5299 640.2058 670.2233)" class="st2" width="12.499" height="12.458"/>
	
		<rect x="463.935" y="144.135" transform="matrix(-0.5299 -0.848 0.848 -0.5299 590.4394 659.2589)" class="st2" width="27.999" height="43.706"/>
	
		<rect x="449.096" y="120.391" transform="matrix(-0.5299 -0.848 0.848 -0.5299 587.8729 610.3478)" class="st2" width="27.999" height="43.706"/>
	
		<rect x="420.508" y="126.566" transform="matrix(-0.5299 -0.848 0.848 -0.5299 552.6491 565.6332)" class="st2" width="25.166" height="6.167"/>
	
		<rect x="431.007" y="113.792" transform="matrix(-0.5299 -0.848 0.848 -0.5299 574.2757 564.4991)" class="st2" width="25.166" height="18.592"/>
	
		<rect x="399.368" y="63.398" transform="matrix(0.5299 0.848 -0.848 0.5299 273.2287 -322.4217)" class="st1" width="56.164" height="43.706"/>
	
		<rect x="440.634" y="32.664" transform="matrix(0.5299 0.848 -0.848 0.5299 257.2077 -361.0685)" class="st1" width="27.332" height="37.624"/>
	<polygon class="st1" points="463.013,29.898 410.01,63.018 406.565,57.505 427.06,44.699 417.117,28.787 449.626,8.474 	"/>
	<line class="st3" x1="406.565" y1="57.505" x2="396.248" y2="63.953"/>
	
		<rect x="376.943" y="46.922" transform="matrix(-0.5299 -0.848 0.848 -0.5299 535.4952 409.2822)" class="st2" width="8.477" height="18.611"/>
	<polygon class="st2" points="263.055,125.056 302.232,187.752 281.667,200.602 274.38,188.942 267.663,187.391 247.857,155.695 
		249.401,149.21 242.38,137.975 	"/>
	
		<rect x="376.3" y="142.886" transform="matrix(0.5299 0.848 -0.848 0.5299 331.9702 -274.5428)" class="st0" width="74.663" height="38.581"/>
	
		<rect x="337.665" y="152.13" transform="matrix(-0.848 0.5299 -0.5299 -0.848 784.0165 154.1068)" class="st0" width="64.497" height="74.663"/>
	<polygon class="st2" points="281.667,200.602 322.797,174.901 362.364,238.222 321.234,263.923 307.434,241.839 301.922,245.283 
		289.667,225.672 295.18,222.228 	"/>
	
		<rect x="266.338" y="203.726" transform="matrix(-0.5299 -0.848 0.848 -0.5299 255.6655 555.6681)" class="st2" width="30.998" height="6.5"/>
	<polygon class="st5" points="242.38,137.975 225.262,148.479 246.508,182.48 250.217,188.416 239.809,194.92 237.556,191.316 
		226.591,198.168 196.386,149.829 234.792,125.831 	"/>
	
		<rect x="241.849" y="230.276" transform="matrix(0.5299 0.848 -0.848 0.5299 333.023 -114.605)" class="st5" width="56.08" height="25.639"/>
	
		<rect x="224.378" y="202.285" transform="matrix(-0.5299 -0.848 0.848 -0.5299 191.5417 523.562)" class="st2" width="32.998" height="12.819"/>
	<line class="st3" x1="250.217" y1="188.416" x2="261.478" y2="206.437"/>
	<polygon class="st2" points="373.139,255.466 393.144,287.48 349.257,314.903 344.753,307.694 355.86,300.754 340.36,275.949 	"/>
	
		<rect x="335.991" y="277.182" transform="matrix(-0.848 0.5299 -0.5299 -0.848 787.6637 357.7507)" class="st2" width="13.096" height="29.249"/>
	<polygon class="st2" points="349.257,314.903 352.967,320.839 364.074,313.899 380.148,339.623 412.927,319.14 393.144,287.48 	"/>
	
		<rect x="336.14" y="289.849" transform="matrix(0.5299 0.848 -0.848 0.5299 413.7158 -153.5766)" class="st2" width="18.499" height="13.096"/>
	<polygon class="st2" points="412.927,319.14 380.148,339.623 396.134,365.206 385.027,372.146 388.913,378.365 432.799,350.942 	
		"/>
	<polygon class="st2" points="388.913,378.365 432.799,350.942 452.671,382.744 419.892,403.226 403.95,377.714 392.843,384.655 	
		"/>
	
		<rect x="353.778" y="319.388" transform="matrix(-0.5299 -0.848 0.848 -0.5299 280.3353 807.264)" class="st2" width="20.249" height="13.096"/>
	
		<rect x="366.866" y="332.232" transform="matrix(-0.5299 -0.848 0.848 -0.5299 281.724 833.7199)" class="st2" width="10.124" height="13.096"/>
	
		<rect x="372.244" y="340.836" transform="matrix(-0.5299 -0.848 0.848 -0.5299 282.6539 851.4437)" class="st2" width="10.124" height="13.096"/>
	
		<rect x="377.826" y="349.03" transform="matrix(-0.5299 -0.848 0.848 -0.5299 283.5398 868.3233)" class="st2" width="9.202" height="13.096"/>
	
		<rect x="396.188" y="378.634" transform="matrix(-0.5299 -0.848 0.848 -0.5299 286.7385 929.304)" class="st2" width="9.479" height="13.096"/>
	
		<rect x="401.025" y="387.008" transform="matrix(-0.5299 -0.848 0.848 -0.5299 287.6425 946.5538)" class="st2" width="10.27" height="13.096"/>
	
		<rect x="406.453" y="395.744" transform="matrix(-0.5299 -0.848 0.848 -0.5299 288.586 964.5491)" class="st2" width="10.332" height="13.096"/>
	
		<rect x="382.322" y="357.519" transform="matrix(-0.5299 -0.848 0.848 -0.5299 284.4557 885.8092)" class="st2" width="10.818" height="13.096"/>
	
		<rect x="440.871" y="386.792" transform="matrix(-0.5299 -0.848 0.848 -0.5299 353.8309 986.9629)" class="st2" width="19.166" height="17.249"/>
	<polygon class="st2" points="462.828,398.998 491.238,381.246 478.718,361.21 473.141,356.294 469.343,350.216 442.735,366.843 	
		"/>
	<polygon class="st2" points="442.735,366.843 471.145,349.09 458.626,329.055 453.048,324.139 449.25,318.061 422.643,334.688 	"/>
	<polygon class="st2" points="403.19,303.557 431.6,285.805 419.08,265.77 413.503,260.853 410.235,255.624 383.627,272.25 	"/>
	<polygon class="st2" points="403.146,303.486 431.556,285.734 444.075,305.769 446.048,312.938 449.25,318.061 422.643,334.688 	
		"/>
	
		<rect x="381.804" y="239.839" transform="matrix(-0.5299 -0.848 0.848 -0.5299 382.5751 723.1136)" class="st2" width="19.791" height="31.373"/>
	<polygon class="st2" points="493.623,290.866 461.468,310.959 448.889,290.829 446.916,283.661 443.118,277.583 473.471,258.616 	
		"/>
	<polygon class="st2" points="453.975,227.415 421.819,247.508 434.339,267.543 439.917,272.459 443.118,277.583 473.471,258.616 	
		"/>
	<polygon class="st2" points="533.271,354.317 501.116,374.41 488.597,354.374 486.623,347.206 482.826,341.128 513.179,322.162 	
		"/>
	<polygon class="st2" points="493.623,290.866 461.468,310.959 474.046,331.088 479.624,336.005 482.826,341.128 513.179,322.162 	
		"/>
	
		<rect x="431.355" y="214.904" transform="matrix(0.5299 0.848 -0.848 0.5299 397.5312 -268.4075)" class="st4" width="19.047" height="18.957"/>
	
		<rect x="415.295" y="224.918" transform="matrix(0.5299 0.848 -0.848 0.5299 398.4915 -250.0709)" class="st4" width="19.047" height="18.999"/>
	<polygon class="st2" points="828.077,260.088 847.243,290.759 815.206,310.777 811.85,305.406 817.08,302.139 801.27,276.838 	"/>
	
		<rect x="424.694" y="510.417" transform="matrix(-0.5299 -0.848 0.848 -0.5299 236.5746 1177.0602)" class="st6" width="39.634" height="25.093"/>
	<line class="st8" x1="371.04" y1="57.58" x2="301.711" y2="188.077"/>
	<line class="st8" x1="410.217" y1="120.275" x2="262.396" y2="125.468"/>
	<line class="st8" x1="449.784" y1="183.596" x2="377.496" y2="140.721"/>
	<line class="st8" x1="590.818" y1="341.009" x2="549.661" y2="344.716"/>
	<line class="st8" x1="631.072" y1="336.235" x2="610.925" y2="338.049"/>
	<line class="st8" x1="590.818" y1="341.009" x2="612.508" y2="305.444"/>
	<line class="st8" x1="568.552" y1="375.302" x2="579.027" y2="357.751"/>
	<line class="st8" x1="417.063" y1="204.042" x2="322.797" y2="174.901"/>
	
		<rect x="299.666" y="59.017" transform="matrix(0.5299 0.848 -0.848 0.5299 262.2782 -227.8072)" class="st3" width="73.925" height="127.327"/>
	<line class="st8" x1="560.627" y1="-60.887" x2="569.218" y2="199.861"/>
	<line class="st8" x1="449.626" y1="8.474" x2="680.219" y2="130.5"/>
	<line class="st8" x1="410.217" y1="120.275" x2="417.063" y2="204.042"/>
	<line class="st8" x1="377.461" y1="140.743" x2="362.364" y2="238.222"/>
	<line class="st8" x1="404.546" y1="435.393" x2="412.465" y2="495.421"/>
	<line class="st8" x1="433.746" y1="482.123" x2="383.275" y2="448.708"/>
	<line class="st8" x1="523.763" y1="493.211" x2="506.127" y2="489.049"/>
	<polygon class="st2" points="532.575,177.346 523.028,162.1 517.082,165.914 526.57,181.098 	"/>
	<line class="st8" x1="774.375" y1="447.036" x2="711.722" y2="427.915"/>
	<line class="st8" x1="737.909" y1="469.823" x2="748.28" y2="405.071"/>
	<line class="st8" x1="815.372" y1="428.985" x2="791.459" y2="414.251"/>
	<line class="st8" x1="804.795" y1="435.594" x2="802.035" y2="407.642"/>
	
		<rect x="775.944" y="378.107" transform="matrix(0.848 -0.5299 0.5299 0.848 -86.952 472.7213)" class="st2" width="9.705" height="19.74"/>
	<line class="st8" x1="516.94" y1="482.292" x2="512.95" y2="499.967"/>
</g>
<g id="murs">
	<line class="st3" x1="616.038" y1="346.96" x2="584.951" y2="366.385"/>
	<line class="st3" x1="617.389" y1="349.124" x2="586.303" y2="368.549"/>
	<line class="st3" x1="618.741" y1="351.288" x2="587.655" y2="370.712"/>
	<line class="st3" x1="620.093" y1="353.451" x2="589.007" y2="372.876"/>
	<line class="st3" x1="621.445" y1="355.615" x2="590.359" y2="375.039"/>
	<line class="st3" x1="622.797" y1="357.778" x2="591.711" y2="377.203"/>
	<line class="st3" x1="624.149" y1="359.942" x2="593.063" y2="379.366"/>
	<line class="st3" x1="625.501" y1="362.105" x2="594.415" y2="381.53"/>
	<line class="st3" x1="606.438" y1="331.598" x2="575.352" y2="351.023"/>
	<line class="st3" x1="607.79" y1="333.761" x2="576.703" y2="353.186"/>
	<line class="st3" x1="609.142" y1="335.925" x2="578.055" y2="355.35"/>
	<line class="st3" x1="610.494" y1="338.088" x2="579.407" y2="357.513"/>
	<line class="st3" x1="611.845" y1="340.252" x2="580.759" y2="359.677"/>
	<line class="st3" x1="613.197" y1="342.415" x2="582.111" y2="361.84"/>
	<line class="st3" x1="614.549" y1="344.579" x2="583.463" y2="364.004"/>
	<line class="st3" x1="605.585" y1="330.233" x2="626.605" y2="363.872"/>
	<line class="st3" x1="595.519" y1="383.297" x2="574.499" y2="349.658"/>
	<polyline class="st3" points="615.609,346.275 631.728,336.202 612.651,305.673 549.509,345.128 568.586,375.658 584.523,365.7 	
		"/>
	<line class="st3" x1="482.801" y1="202.467" x2="481.211" y2="199.923"/>
	<polyline class="st3" points="477.7,194.256 476.022,191.57 507.413,171.955 516.901,187.14 	"/>
	<line class="st3" x1="270.855" y1="195.566" x2="264.495" y2="199.541"/>
	<polyline class="st3" points="242.16,146.578 234.422,151.414 239.854,160.106 234.298,163.578 	"/>
	<polyline class="st3" points="448.199,408.139 418.942,426.421 416.16,421.969 	"/>
	<line class="st3" x1="408.785" y1="410.167" x2="411.523" y2="414.549"/>
	<polyline class="st3" points="453.975,227.415 440.524,205.891 429.465,212.802 	"/>
	<polyline class="st3" points="419.076,219.293 408.369,225.983 421.819,247.508 	"/>
	<polyline class="st3" points="466.932,414.293 446.755,426.901 470.25,464.5 480.338,458.196 	"/>
	<polyline class="st3" points="624.746,548.199 613.722,555.088 600.43,533.816 632.797,513.591 646.089,534.863 634.852,541.884 	
		"/>
	<polyline class="st3" points="584.492,554.387 585.641,556.225 604.535,560.829 613.722,555.088 	"/>
	<polyline class="st3" points="675.106,509.066 705.727,489.932 703.676,486.649 	"/>
	<polyline class="st3" points="305.748,276.253 308.928,274.266 311.931,279.071 	"/>
	<polyline class="st3" points="834.096,387.609 847.432,408.951 836.714,415.648 	"/>
	<polyline class="st3" points="823.378,394.306 833.005,409.712 839.648,405.561 	"/>
	<polyline class="st3" points="774.303,291.921 761.232,271.002 750.514,277.699 	"/>
	<polyline class="st3" points="760.822,279.414 754.179,283.565 763.585,298.618 	"/>
	<polyline class="st3" points="538.073,469.603 544.299,479.568 549.617,476.245 	"/>
	<line class="st3" x1="555.836" y1="472.358" x2="560.288" y2="469.576"/>
</g>
</svg>
