<?xml version="1.0" encoding="utf-8"?>
<!-- Generator: Adobe Illustrator 19.0.1, SVG Export Plug-In . SVG Version: 6.00 Build 0)  -->
<svg version="1.1" id="Calque_2" xmlns="http://www.w3.org/2000/svg" xmlns:xlink="http://www.w3.org/1999/xlink" x="0px" y="0px"
	 width="720.667px" height="762.667px" viewBox="54 15.333 720.667 762.667"
	 style="enable-background:new 54 15.333 720.667 762.667;" xml:space="preserve">
<style type="text/css">
	.st0{fill:#FFFFFF;}
</style>
<g>
	<path d="M384.612,326.014h-96.839c-1.388,0-2.513-1.125-2.513-2.513v-21.203c0-1.388,1.125-2.513,2.513-2.513h96.839
		c1.388,0,2.513,1.125,2.513,2.513v21.203C387.125,324.889,386,326.014,384.612,326.014z"/>
	<g>
		<path class="st0" d="M292.832,309.946c-0.288,0.144-0.863,0.288-1.6,0.288c-1.708,0-2.993-1.079-2.993-3.064
			c0-1.896,1.285-3.182,3.164-3.182c0.755,0,1.231,0.162,1.438,0.27l-0.189,0.638c-0.296-0.144-0.719-0.252-1.222-0.252
			c-1.42,0-2.364,0.908-2.364,2.499c0,1.483,0.854,2.436,2.328,2.436c0.477,0,0.962-0.099,1.276-0.251L292.832,309.946z"/>
		<path class="st0" d="M296.133,310.144l-0.063-0.548h-0.027c-0.242,0.342-0.71,0.647-1.33,0.647c-0.88,0-1.33-0.62-1.33-1.249
			c0-1.052,0.935-1.627,2.615-1.618v-0.09c0-0.359-0.099-1.007-0.988-1.007c-0.405,0-0.827,0.126-1.132,0.324l-0.18-0.521
			c0.36-0.233,0.881-0.386,1.429-0.386c1.33,0,1.654,0.908,1.654,1.779v1.627c0,0.377,0.018,0.746,0.072,1.042H296.133z
			 M296.016,307.924c-0.863-0.018-1.842,0.135-1.842,0.979c0,0.512,0.341,0.755,0.746,0.755c0.566,0,0.926-0.359,1.051-0.728
			c0.027-0.081,0.045-0.171,0.045-0.251V307.924z"/>
		<path class="st0" d="M298.058,307.151c0-0.512-0.009-0.953-0.036-1.357h0.692l0.027,0.854h0.036
			c0.198-0.584,0.674-0.953,1.205-0.953c0.09,0,0.153,0.009,0.225,0.027v0.746c-0.081-0.018-0.162-0.027-0.27-0.027
			c-0.558,0-0.953,0.422-1.061,1.016c-0.018,0.107-0.036,0.233-0.036,0.368v2.319h-0.782V307.151z"/>
		<path class="st0" d="M301.034,307.151c0-0.512-0.009-0.953-0.036-1.357h0.692l0.027,0.854h0.036
			c0.198-0.584,0.674-0.953,1.205-0.953c0.09,0,0.152,0.009,0.225,0.027v0.746c-0.081-0.018-0.162-0.027-0.27-0.027
			c-0.558,0-0.953,0.422-1.061,1.016c-0.018,0.107-0.036,0.233-0.036,0.368v2.319h-0.782V307.151z"/>
		<path class="st0" d="M304.325,308.112c0.018,1.07,0.701,1.51,1.492,1.51c0.566,0,0.908-0.099,1.204-0.225l0.135,0.566
			c-0.279,0.126-0.755,0.27-1.447,0.27c-1.339,0-2.139-0.881-2.139-2.193s0.773-2.346,2.041-2.346c1.42,0,1.797,1.249,1.797,2.049
			c0,0.162-0.018,0.288-0.027,0.368H304.325z M306.644,307.546c0.009-0.503-0.207-1.286-1.096-1.286c-0.8,0-1.15,0.737-1.213,1.286
			H306.644z"/>
		<path class="st0" d="M308.47,310.144v-3.748h-0.611v-0.603h0.611v-0.207c0-0.611,0.135-1.168,0.503-1.519
			c0.296-0.288,0.692-0.404,1.061-0.404c0.279,0,0.521,0.063,0.674,0.126l-0.107,0.611c-0.117-0.054-0.279-0.099-0.503-0.099
			c-0.674,0-0.845,0.593-0.845,1.258v0.233h1.051v0.603h-1.051v3.748H308.47z"/>
		<path class="st0" d="M314.835,307.933c0,1.609-1.115,2.31-2.166,2.31c-1.178,0-2.085-0.863-2.085-2.238
			c0-1.456,0.953-2.31,2.157-2.31C313.99,305.695,314.835,306.603,314.835,307.933z M311.384,307.978
			c0,0.953,0.548,1.672,1.321,1.672c0.755,0,1.321-0.71,1.321-1.69c0-0.737-0.369-1.671-1.303-1.671
			S311.384,307.151,311.384,307.978z"/>
		<path class="st0" d="M319.475,308.957c0,0.45,0.009,0.845,0.036,1.187h-0.701l-0.045-0.71h-0.018
			c-0.207,0.351-0.665,0.809-1.438,0.809c-0.683,0-1.501-0.377-1.501-1.905v-2.543h0.791v2.409c0,0.827,0.252,1.384,0.971,1.384
			c0.53,0,0.899-0.369,1.042-0.719c0.045-0.117,0.072-0.26,0.072-0.404v-2.669h0.791V308.957z"/>
		<path class="st0" d="M320.79,307.151c0-0.512-0.009-0.953-0.036-1.357h0.692l0.027,0.854h0.036
			c0.198-0.584,0.674-0.953,1.205-0.953c0.09,0,0.153,0.009,0.225,0.027v0.746c-0.081-0.018-0.162-0.027-0.27-0.027
			c-0.558,0-0.953,0.422-1.061,1.016c-0.018,0.107-0.036,0.233-0.036,0.368v2.319h-0.782V307.151z"/>
		<path class="st0" d="M329.392,303.763v5.257c0,0.387,0.009,0.827,0.036,1.124h-0.71l-0.036-0.755h-0.018
			c-0.243,0.485-0.773,0.854-1.483,0.854c-1.052,0-1.861-0.89-1.861-2.21c-0.009-1.447,0.89-2.337,1.951-2.337
			c0.665,0,1.114,0.314,1.312,0.665h0.018v-2.597H329.392z M328.602,307.564c0-0.099-0.009-0.233-0.036-0.333
			c-0.117-0.503-0.548-0.917-1.141-0.917c-0.818,0-1.303,0.719-1.303,1.681c0,0.881,0.431,1.609,1.285,1.609
			c0.53,0,1.016-0.351,1.159-0.944c0.027-0.108,0.036-0.216,0.036-0.341V307.564z"/>
		<path class="st0" d="M331.147,308.112c0.018,1.07,0.701,1.51,1.492,1.51c0.566,0,0.908-0.099,1.204-0.225l0.135,0.566
			c-0.279,0.126-0.755,0.27-1.447,0.27c-1.339,0-2.139-0.881-2.139-2.193s0.773-2.346,2.041-2.346c1.42,0,1.797,1.249,1.797,2.049
			c0,0.162-0.018,0.288-0.027,0.368H331.147z M333.466,307.546c0.009-0.503-0.207-1.286-1.096-1.286c-0.8,0-1.15,0.737-1.213,1.286
			H333.466z"/>
		<path class="st0" d="M337.118,303.763h0.791v6.381h-0.791V303.763z"/>
		<path class="st0" d="M340.292,303.987c-0.207,0.755-0.593,1.716-0.845,2.13l-0.503,0.063c0.198-0.53,0.431-1.465,0.53-2.112
			L340.292,303.987z"/>
		<path class="st0" d="M341.685,304.571c0.009,0.27-0.188,0.485-0.503,0.485c-0.279,0-0.477-0.216-0.477-0.485
			c0-0.278,0.207-0.494,0.495-0.494C341.497,304.077,341.685,304.293,341.685,304.571z M340.805,310.144v-4.35h0.791v4.35H340.805z"
			/>
		<path class="st0" d="M342.909,306.971c0-0.45-0.009-0.818-0.036-1.178h0.701l0.045,0.719h0.018
			c0.215-0.414,0.719-0.818,1.438-0.818c0.602,0,1.537,0.359,1.537,1.852v2.597h-0.791v-2.507c0-0.701-0.26-1.285-1.006-1.285
			c-0.521,0-0.926,0.368-1.061,0.809c-0.036,0.099-0.054,0.234-0.054,0.369v2.615h-0.791V306.971z"/>
		<path class="st0" d="M347.979,310.144v-3.748h-0.611v-0.603h0.611v-0.207c0-0.611,0.135-1.168,0.503-1.519
			c0.296-0.288,0.692-0.404,1.061-0.404c0.279,0,0.521,0.063,0.674,0.126l-0.107,0.611c-0.117-0.054-0.279-0.099-0.503-0.099
			c-0.674,0-0.845,0.593-0.845,1.258v0.233h1.051v0.603h-1.051v3.748H347.979z"/>
		<path class="st0" d="M354.344,307.933c0,1.609-1.115,2.31-2.166,2.31c-1.178,0-2.085-0.863-2.085-2.238
			c0-1.456,0.953-2.31,2.157-2.31C353.499,305.695,354.344,306.603,354.344,307.933z M350.893,307.978
			c0,0.953,0.548,1.672,1.321,1.672c0.755,0,1.321-0.71,1.321-1.69c0-0.737-0.369-1.671-1.303-1.671
			S350.893,307.151,350.893,307.978z"/>
		<path class="st0" d="M355.344,307.151c0-0.512-0.009-0.953-0.036-1.357H356l0.027,0.854h0.036
			c0.198-0.584,0.674-0.953,1.205-0.953c0.09,0,0.153,0.009,0.225,0.027v0.746c-0.081-0.018-0.162-0.027-0.27-0.027
			c-0.558,0-0.953,0.422-1.061,1.016c-0.018,0.107-0.036,0.233-0.036,0.368v2.319h-0.782V307.151z"/>
		<path class="st0" d="M358.321,306.971c0-0.45-0.009-0.818-0.036-1.178h0.692l0.036,0.701h0.027c0.243-0.414,0.647-0.8,1.366-0.8
			c0.593,0,1.042,0.359,1.231,0.872h0.018c0.135-0.243,0.306-0.431,0.485-0.566c0.261-0.198,0.548-0.306,0.962-0.306
			c0.575,0,1.429,0.377,1.429,1.887v2.562h-0.773v-2.462c0-0.836-0.305-1.339-0.943-1.339c-0.45,0-0.8,0.333-0.935,0.719
			c-0.036,0.108-0.063,0.251-0.063,0.396v2.687h-0.773v-2.606c0-0.692-0.306-1.195-0.908-1.195c-0.495,0-0.854,0.396-0.98,0.791
			c-0.045,0.117-0.063,0.251-0.063,0.386v2.625h-0.773V306.971z"/>
		<path class="st0" d="M368.229,310.144l-0.063-0.548h-0.027c-0.242,0.342-0.71,0.647-1.33,0.647c-0.88,0-1.33-0.62-1.33-1.249
			c0-1.052,0.935-1.627,2.615-1.618v-0.09c0-0.359-0.099-1.007-0.988-1.007c-0.405,0-0.827,0.126-1.132,0.324l-0.18-0.521
			c0.36-0.233,0.881-0.386,1.429-0.386c1.33,0,1.654,0.908,1.654,1.779v1.627c0,0.377,0.018,0.746,0.072,1.042H368.229z
			 M368.111,307.924c-0.863-0.018-1.842,0.135-1.842,0.979c0,0.512,0.341,0.755,0.746,0.755c0.566,0,0.926-0.359,1.051-0.728
			c0.027-0.081,0.045-0.171,0.045-0.251V307.924z"/>
		<path class="st0" d="M371.07,304.544v1.249h1.132v0.603h-1.132v2.346c0,0.539,0.153,0.845,0.593,0.845
			c0.207,0,0.359-0.027,0.458-0.054l0.036,0.593c-0.153,0.063-0.396,0.108-0.701,0.108c-0.368,0-0.665-0.117-0.854-0.333
			c-0.225-0.234-0.306-0.62-0.306-1.132v-2.373h-0.674v-0.603h0.674v-1.042L371.07,304.544z"/>
		<path class="st0" d="M373.975,304.571c0.009,0.27-0.188,0.485-0.503,0.485c-0.279,0-0.477-0.216-0.477-0.485
			c0-0.278,0.207-0.494,0.495-0.494C373.786,304.077,373.975,304.293,373.975,304.571z M373.094,310.144v-4.35h0.791v4.35H373.094z"
			/>
		<path class="st0" d="M379.135,307.933c0,1.609-1.115,2.31-2.166,2.31c-1.178,0-2.085-0.863-2.085-2.238
			c0-1.456,0.953-2.31,2.157-2.31C378.29,305.695,379.135,306.603,379.135,307.933z M375.684,307.978
			c0,0.953,0.548,1.672,1.321,1.672c0.755,0,1.321-0.71,1.321-1.69c0-0.737-0.369-1.671-1.303-1.671
			S375.684,307.151,375.684,307.978z"/>
		<path class="st0" d="M380.135,306.971c0-0.45-0.009-0.818-0.036-1.178h0.701l0.045,0.719h0.018
			c0.215-0.414,0.719-0.818,1.438-0.818c0.602,0,1.537,0.359,1.537,1.852v2.597h-0.791v-2.507c0-0.701-0.261-1.285-1.006-1.285
			c-0.521,0-0.926,0.368-1.061,0.809c-0.036,0.099-0.054,0.234-0.054,0.369v2.615h-0.791V306.971z"/>
		<path class="st0" d="M311.765,314.696c-0.656,0.881-1.132,2.049-1.132,3.676c0,1.6,0.494,2.75,1.132,3.649h-0.62
			c-0.566-0.746-1.177-1.896-1.177-3.649c0.009-1.771,0.611-2.921,1.177-3.676H311.765z"/>
		<path class="st0" d="M312.566,320.934c0.018-0.296,0.036-0.737,0.036-1.124v-5.257h0.782v2.732h0.018
			c0.278-0.485,0.782-0.8,1.483-0.8c1.079,0,1.842,0.899,1.833,2.22c0,1.555-0.98,2.328-1.95,2.328
			c-0.629,0-1.133-0.242-1.456-0.817h-0.027l-0.036,0.719H312.566z M313.384,319.19c0,0.099,0.018,0.198,0.036,0.288
			c0.153,0.548,0.611,0.926,1.186,0.926c0.827,0,1.321-0.674,1.321-1.672c0-0.872-0.449-1.618-1.294-1.618
			c-0.539,0-1.042,0.369-1.204,0.971c-0.018,0.09-0.045,0.198-0.045,0.324V319.19z"/>
		<path class="st0" d="M318.599,315.361c0.009,0.27-0.188,0.485-0.503,0.485c-0.279,0-0.477-0.216-0.477-0.485
			c0-0.278,0.207-0.494,0.495-0.494C318.411,314.867,318.599,315.083,318.599,315.361z M317.719,320.934v-4.35h0.791v4.35H317.719z"
			/>
		<path class="st0" d="M319.787,320.934c0.018-0.296,0.036-0.737,0.036-1.124v-5.257h0.782v2.732h0.018
			c0.278-0.485,0.782-0.8,1.483-0.8c1.079,0,1.842,0.899,1.833,2.22c0,1.555-0.98,2.328-1.95,2.328
			c-0.629,0-1.133-0.242-1.456-0.817h-0.027l-0.036,0.719H319.787z M320.604,319.19c0,0.099,0.018,0.198,0.036,0.288
			c0.153,0.548,0.611,0.926,1.186,0.926c0.827,0,1.321-0.674,1.321-1.672c0-0.872-0.449-1.618-1.294-1.618
			c-0.539,0-1.042,0.369-1.204,0.971c-0.018,0.09-0.045,0.198-0.045,0.324V319.19z"/>
		<path class="st0" d="M324.939,314.553h0.791v6.381h-0.791V314.553z"/>
		<path class="st0" d="M327.941,315.361c0.009,0.27-0.188,0.485-0.503,0.485c-0.279,0-0.477-0.216-0.477-0.485
			c0-0.278,0.207-0.494,0.495-0.494C327.753,314.867,327.941,315.083,327.941,315.361z M327.061,320.934v-4.35h0.791v4.35H327.061z"
			/>
		<path class="st0" d="M333.102,318.723c0,1.609-1.115,2.31-2.166,2.31c-1.178,0-2.085-0.863-2.085-2.238
			c0-1.456,0.953-2.31,2.157-2.31C332.256,316.485,333.102,317.393,333.102,318.723z M329.65,318.768
			c0,0.953,0.548,1.672,1.321,1.672c0.755,0,1.321-0.71,1.321-1.69c0-0.737-0.369-1.671-1.303-1.671S329.65,317.941,329.65,318.768z
			"/>
		<path class="st0" d="M335.054,315.334v1.249h1.132v0.603h-1.132v2.346c0,0.539,0.153,0.845,0.593,0.845
			c0.207,0,0.359-0.027,0.458-0.054l0.036,0.593c-0.153,0.063-0.396,0.108-0.701,0.108c-0.368,0-0.665-0.117-0.854-0.333
			c-0.225-0.234-0.306-0.62-0.306-1.132v-2.373h-0.674v-0.603h0.674v-1.042L335.054,315.334z"/>
		<path class="st0" d="M337.078,314.553h0.791v2.714h0.018c0.126-0.225,0.324-0.422,0.566-0.557
			c0.233-0.135,0.512-0.225,0.809-0.225c0.584,0,1.519,0.359,1.519,1.86v2.588h-0.791v-2.499c0-0.701-0.26-1.294-1.006-1.294
			c-0.512,0-0.917,0.359-1.061,0.791c-0.045,0.108-0.054,0.225-0.054,0.377v2.625h-0.791V314.553z"/>
		<path class="st0" d="M342.508,318.902c0.018,1.07,0.701,1.51,1.492,1.51c0.566,0,0.908-0.099,1.204-0.225l0.135,0.566
			c-0.279,0.126-0.755,0.27-1.447,0.27c-1.339,0-2.139-0.881-2.139-2.193s0.773-2.346,2.041-2.346c1.42,0,1.797,1.249,1.797,2.049
			c0,0.162-0.018,0.288-0.027,0.368H342.508z M344.827,318.336c0.009-0.503-0.207-1.286-1.096-1.286c-0.8,0-1.15,0.737-1.213,1.286
			H344.827z M343.497,314.705l0.791,1.286h-0.566l-1.096-1.286H343.497z"/>
		<path class="st0" d="M349.539,320.26h-0.018c-0.234,0.431-0.719,0.772-1.42,0.772c-1.016,0-1.843-0.88-1.843-2.202
			c0-1.627,1.052-2.346,1.968-2.346c0.674,0,1.124,0.333,1.339,0.755h0.018l0.027-0.656h0.746c-0.018,0.369-0.027,0.746-0.027,1.195
			v4.934h-0.791V320.26z M349.539,318.345c0-0.108-0.009-0.234-0.036-0.333c-0.117-0.485-0.539-0.899-1.132-0.899
			c-0.818,0-1.312,0.692-1.312,1.672c0,0.863,0.413,1.618,1.285,1.618c0.512,0,0.953-0.314,1.132-0.863
			c0.036-0.108,0.063-0.261,0.063-0.377V318.345z"/>
		<path class="st0" d="M355.275,319.747c0,0.45,0.009,0.845,0.036,1.187h-0.701l-0.045-0.71h-0.018
			c-0.207,0.351-0.665,0.809-1.438,0.809c-0.683,0-1.501-0.377-1.501-1.905v-2.543h0.791v2.409c0,0.827,0.252,1.384,0.971,1.384
			c0.53,0,0.899-0.369,1.042-0.719c0.045-0.117,0.072-0.26,0.072-0.404v-2.669h0.791V319.747z"/>
		<path class="st0" d="M357.03,318.902c0.018,1.07,0.701,1.51,1.492,1.51c0.566,0,0.908-0.099,1.204-0.225l0.135,0.566
			c-0.279,0.126-0.755,0.27-1.447,0.27c-1.339,0-2.139-0.881-2.139-2.193s0.773-2.346,2.041-2.346c1.42,0,1.797,1.249,1.797,2.049
			c0,0.162-0.018,0.288-0.027,0.368H357.03z M359.349,318.336c0.009-0.503-0.207-1.286-1.096-1.286c-0.8,0-1.15,0.737-1.213,1.286
			H359.349z"/>
		<path class="st0" d="M360.618,322.021c0.638-0.89,1.132-2.058,1.132-3.676c0-1.609-0.485-2.759-1.132-3.649h0.611
			c0.575,0.737,1.177,1.887,1.177,3.658c0,1.762-0.602,2.903-1.177,3.667H360.618z"/>
	</g>
</g>
<g>
	<path d="M468.624,367.783h-99.812c-1.388,0-2.513-1.125-2.513-2.513v-11.271c0-1.388,1.125-2.513,2.513-2.513h99.812
		c1.388,0,2.513,1.125,2.513,2.513v11.271C471.138,366.658,470.012,367.783,468.624,367.783z"/>
	<g>
		<path class="st0" d="M383.613,361.321c0.351,0.216,0.863,0.396,1.402,0.396c0.8,0,1.268-0.422,1.268-1.034
			c0-0.566-0.324-0.89-1.142-1.204c-0.989-0.351-1.6-0.863-1.6-1.717c0-0.944,0.782-1.645,1.959-1.645
			c0.62,0,1.07,0.144,1.339,0.296l-0.216,0.638c-0.198-0.108-0.602-0.288-1.15-0.288c-0.827,0-1.142,0.494-1.142,0.908
			c0,0.566,0.369,0.845,1.205,1.168c1.024,0.396,1.546,0.89,1.546,1.779c0,0.935-0.692,1.744-2.121,1.744
			c-0.584,0-1.222-0.171-1.546-0.386L383.613,361.321z"/>
		<path class="st0" d="M388.621,360.242c0.018,1.07,0.701,1.51,1.492,1.51c0.566,0,0.908-0.099,1.204-0.225l0.135,0.566
			c-0.279,0.126-0.755,0.27-1.447,0.27c-1.339,0-2.139-0.881-2.139-2.193s0.773-2.346,2.041-2.346c1.42,0,1.797,1.249,1.797,2.049
			c0,0.162-0.018,0.288-0.027,0.368H388.621z M390.939,359.676c0.009-0.503-0.207-1.286-1.096-1.286c-0.8,0-1.15,0.737-1.213,1.286
			H390.939z"/>
		<path class="st0" d="M392.686,359.281c0-0.512-0.009-0.953-0.036-1.357h0.692l0.027,0.854h0.036
			c0.198-0.584,0.674-0.953,1.205-0.953c0.09,0,0.152,0.009,0.225,0.027v0.746c-0.081-0.018-0.162-0.027-0.27-0.027
			c-0.558,0-0.953,0.422-1.061,1.016c-0.018,0.107-0.036,0.233-0.036,0.368v2.319h-0.782V359.281z"/>
		<path class="st0" d="M396.156,357.923l0.854,2.445c0.144,0.396,0.261,0.755,0.351,1.114h0.027
			c0.099-0.359,0.225-0.719,0.369-1.114l0.845-2.445h0.827l-1.708,4.35h-0.755l-1.654-4.35H396.156z"/>
		<path class="st0" d="M401.056,356.701c0.009,0.27-0.188,0.485-0.503,0.485c-0.279,0-0.477-0.216-0.477-0.485
			c0-0.278,0.207-0.494,0.495-0.494C400.867,356.207,401.056,356.423,401.056,356.701z M400.175,362.273v-4.35h0.791v4.35H400.175z"
			/>
		<path class="st0" d="M405.38,362.112c-0.207,0.108-0.665,0.251-1.25,0.251c-1.312,0-2.166-0.89-2.166-2.22
			c0-1.339,0.917-2.31,2.337-2.31c0.467,0,0.881,0.117,1.097,0.225l-0.18,0.611c-0.188-0.108-0.485-0.207-0.917-0.207
			c-0.998,0-1.537,0.737-1.537,1.645c0,1.007,0.647,1.627,1.51,1.627c0.449,0,0.746-0.117,0.971-0.216L405.38,362.112z"/>
		<path class="st0" d="M406.694,360.242c0.018,1.07,0.701,1.51,1.492,1.51c0.566,0,0.908-0.099,1.204-0.225l0.135,0.566
			c-0.279,0.126-0.755,0.27-1.447,0.27c-1.339,0-2.139-0.881-2.139-2.193s0.773-2.346,2.041-2.346c1.42,0,1.797,1.249,1.797,2.049
			c0,0.162-0.018,0.288-0.027,0.368H406.694z M409.013,359.676c0.009-0.503-0.207-1.286-1.096-1.286c-0.8,0-1.15,0.737-1.213,1.286
			H409.013z"/>
		<path class="st0" d="M415.073,362.273l-0.063-0.548h-0.027c-0.243,0.342-0.71,0.647-1.33,0.647c-0.88,0-1.33-0.62-1.33-1.249
			c0-1.052,0.935-1.627,2.615-1.618v-0.09c0-0.359-0.099-1.007-0.988-1.007c-0.405,0-0.827,0.126-1.132,0.324l-0.18-0.521
			c0.36-0.233,0.881-0.386,1.429-0.386c1.33,0,1.654,0.908,1.654,1.779v1.627c0,0.377,0.018,0.746,0.071,1.042H415.073z
			 M414.956,360.054c-0.862-0.018-1.842,0.135-1.842,0.979c0,0.512,0.341,0.755,0.746,0.755c0.565,0,0.926-0.359,1.051-0.728
			c0.027-0.081,0.045-0.171,0.045-0.251V360.054z"/>
		<path class="st0" d="M420.639,361.087c0,0.45,0.009,0.845,0.036,1.187h-0.701l-0.045-0.71h-0.019
			c-0.206,0.351-0.665,0.809-1.438,0.809c-0.684,0-1.501-0.377-1.501-1.905v-2.543h0.791v2.409c0,0.827,0.252,1.384,0.971,1.384
			c0.53,0,0.898-0.369,1.042-0.719c0.045-0.117,0.072-0.26,0.072-0.404v-2.669h0.791V361.087z"/>
		<path class="st0" d="M425.71,355.893v5.257c0,0.387,0.009,0.827,0.036,1.124h-0.71L425,361.519h-0.018
			c-0.243,0.485-0.773,0.854-1.483,0.854c-1.052,0-1.86-0.89-1.86-2.21c-0.009-1.447,0.89-2.337,1.95-2.337
			c0.665,0,1.114,0.314,1.313,0.665h0.018v-2.597H425.71z M424.919,359.694c0-0.099-0.009-0.233-0.036-0.333
			c-0.116-0.503-0.548-0.917-1.142-0.917c-0.817,0-1.303,0.719-1.303,1.681c0,0.881,0.432,1.609,1.285,1.609
			c0.53,0,1.016-0.351,1.159-0.944c0.027-0.108,0.036-0.216,0.036-0.341V359.694z"/>
		<path class="st0" d="M427.905,356.701c0.009,0.27-0.188,0.485-0.503,0.485c-0.279,0-0.477-0.216-0.477-0.485
			c0-0.278,0.207-0.494,0.494-0.494C427.717,356.207,427.905,356.423,427.905,356.701z M427.024,362.273v-4.35h0.791v4.35H427.024z"
			/>
		<path class="st0" d="M433.065,360.063c0,1.609-1.115,2.31-2.166,2.31c-1.178,0-2.086-0.863-2.086-2.238
			c0-1.456,0.953-2.31,2.157-2.31C432.22,357.825,433.065,358.732,433.065,360.063z M429.614,360.107
			c0,0.953,0.548,1.672,1.32,1.672c0.755,0,1.321-0.71,1.321-1.69c0-0.737-0.368-1.671-1.303-1.671S429.614,359.281,429.614,360.107
			z"/>
		<path class="st0" d="M434.308,357.923l0.854,2.445c0.145,0.396,0.261,0.755,0.351,1.114h0.027
			c0.099-0.359,0.225-0.719,0.368-1.114l0.845-2.445h0.827l-1.708,4.35h-0.755l-1.653-4.35H434.308z"/>
		<path class="st0" d="M439.208,356.701c0.009,0.27-0.188,0.485-0.503,0.485c-0.279,0-0.477-0.216-0.477-0.485
			c0-0.278,0.207-0.494,0.494-0.494C439.02,356.207,439.208,356.423,439.208,356.701z M438.327,362.273v-4.35h0.791v4.35H438.327z"
			/>
		<path class="st0" d="M440.323,361.464c0.233,0.153,0.647,0.315,1.043,0.315c0.575,0,0.845-0.288,0.845-0.647
			c0-0.377-0.225-0.584-0.809-0.8c-0.782-0.278-1.15-0.71-1.15-1.231c0-0.701,0.565-1.276,1.5-1.276c0.44,0,0.827,0.126,1.07,0.27
			l-0.198,0.575c-0.171-0.108-0.485-0.251-0.89-0.251c-0.468,0-0.728,0.27-0.728,0.593c0,0.359,0.26,0.521,0.826,0.737
			c0.755,0.288,1.142,0.665,1.142,1.312c0,0.764-0.593,1.303-1.627,1.303c-0.476,0-0.916-0.117-1.222-0.296L440.323,361.464z"/>
		<path class="st0" d="M447.632,361.087c0,0.45,0.009,0.845,0.036,1.187h-0.701l-0.045-0.71h-0.019
			c-0.206,0.351-0.665,0.809-1.438,0.809c-0.684,0-1.501-0.377-1.501-1.905v-2.543h0.791v2.409c0,0.827,0.252,1.384,0.971,1.384
			c0.53,0,0.898-0.369,1.042-0.719c0.045-0.117,0.072-0.26,0.072-0.404v-2.669h0.791V361.087z"/>
		<path class="st0" d="M449.387,360.242c0.018,1.07,0.701,1.51,1.492,1.51c0.566,0,0.907-0.099,1.204-0.225l0.135,0.566
			c-0.278,0.126-0.755,0.27-1.447,0.27c-1.339,0-2.139-0.881-2.139-2.193s0.772-2.346,2.04-2.346c1.42,0,1.798,1.249,1.798,2.049
			c0,0.162-0.019,0.288-0.027,0.368H449.387z M451.705,359.676c0.01-0.503-0.206-1.286-1.096-1.286c-0.8,0-1.15,0.737-1.214,1.286
			H451.705z"/>
		<path class="st0" d="M453.451,355.893h0.791v6.381h-0.791V355.893z"/>
	</g>
</g>
<g>
	<path d="M238.509,276.238h-99.812c-1.388,0-2.513-1.125-2.513-2.513v-11.271c0-1.388,1.125-2.513,2.513-2.513h99.812
		c1.388,0,2.513,1.125,2.513,2.513v11.271C241.023,275.113,239.898,276.238,238.509,276.238z"/>
	<g>
		<path class="st0" d="M150.495,269.776c0.351,0.216,0.863,0.396,1.402,0.396c0.8,0,1.268-0.422,1.268-1.034
			c0-0.566-0.324-0.89-1.142-1.204c-0.989-0.351-1.6-0.863-1.6-1.717c0-0.944,0.782-1.645,1.959-1.645
			c0.62,0,1.07,0.144,1.339,0.296l-0.216,0.638c-0.198-0.108-0.602-0.288-1.15-0.288c-0.827,0-1.142,0.494-1.142,0.908
			c0,0.566,0.369,0.845,1.205,1.168c1.024,0.396,1.546,0.89,1.546,1.779c0,0.935-0.692,1.744-2.121,1.744
			c-0.584,0-1.222-0.171-1.546-0.386L150.495,269.776z"/>
		<path class="st0" d="M155.503,268.697c0.018,1.07,0.701,1.51,1.492,1.51c0.566,0,0.908-0.099,1.204-0.225l0.135,0.566
			c-0.279,0.126-0.755,0.27-1.447,0.27c-1.339,0-2.139-0.881-2.139-2.193s0.773-2.346,2.041-2.346c1.42,0,1.797,1.249,1.797,2.049
			c0,0.162-0.018,0.288-0.027,0.368H155.503z M157.822,268.131c0.009-0.503-0.207-1.286-1.096-1.286c-0.8,0-1.15,0.737-1.213,1.286
			H157.822z"/>
		<path class="st0" d="M159.568,267.736c0-0.512-0.009-0.953-0.036-1.357h0.692l0.027,0.854h0.036
			c0.198-0.584,0.674-0.953,1.205-0.953c0.09,0,0.152,0.009,0.225,0.027v0.746c-0.081-0.018-0.162-0.027-0.27-0.027
			c-0.558,0-0.953,0.422-1.061,1.016c-0.018,0.107-0.036,0.233-0.036,0.368v2.319h-0.782V267.736z"/>
		<path class="st0" d="M163.038,266.378l0.854,2.445c0.144,0.396,0.261,0.755,0.351,1.114h0.027
			c0.099-0.359,0.225-0.719,0.369-1.114l0.845-2.445h0.827l-1.708,4.35h-0.755l-1.654-4.35H163.038z"/>
		<path class="st0" d="M167.938,265.156c0.009,0.27-0.188,0.485-0.503,0.485c-0.279,0-0.477-0.216-0.477-0.485
			c0-0.278,0.207-0.494,0.495-0.494C167.75,264.662,167.938,264.878,167.938,265.156z M167.058,270.729v-4.35h0.791v4.35H167.058z"
			/>
		<path class="st0" d="M172.263,270.567c-0.207,0.108-0.665,0.251-1.25,0.251c-1.312,0-2.166-0.89-2.166-2.22
			c0-1.339,0.917-2.31,2.337-2.31c0.467,0,0.881,0.117,1.097,0.225l-0.18,0.611c-0.188-0.108-0.485-0.207-0.917-0.207
			c-0.998,0-1.537,0.737-1.537,1.645c0,1.007,0.647,1.627,1.51,1.627c0.449,0,0.746-0.117,0.971-0.216L172.263,270.567z"/>
		<path class="st0" d="M173.577,268.697c0.018,1.07,0.701,1.51,1.492,1.51c0.566,0,0.908-0.099,1.204-0.225l0.135,0.566
			c-0.279,0.126-0.755,0.27-1.447,0.27c-1.339,0-2.139-0.881-2.139-2.193s0.773-2.346,2.041-2.346c1.42,0,1.797,1.249,1.797,2.049
			c0,0.162-0.018,0.288-0.027,0.368H173.577z M175.895,268.131c0.009-0.503-0.207-1.286-1.096-1.286c-0.8,0-1.15,0.737-1.213,1.286
			H175.895z"/>
		<path class="st0" d="M180.428,265.156c0.009,0.27-0.188,0.485-0.503,0.485c-0.279,0-0.477-0.216-0.477-0.485
			c0-0.278,0.207-0.494,0.495-0.494C180.239,264.662,180.428,264.878,180.428,265.156z M179.547,270.729v-4.35h0.791v4.35H179.547z"
			/>
		<path class="st0" d="M181.651,267.556c0-0.45-0.009-0.818-0.036-1.178h0.701l0.045,0.719h0.018
			c0.215-0.414,0.719-0.818,1.438-0.818c0.602,0,1.537,0.359,1.537,1.852v2.597h-0.791v-2.507c0-0.701-0.26-1.285-1.006-1.285
			c-0.521,0-0.926,0.368-1.061,0.809c-0.036,0.099-0.054,0.234-0.054,0.369v2.615h-0.791V267.556z"/>
		<path class="st0" d="M186.722,270.729v-3.748h-0.611v-0.603h0.611v-0.207c0-0.611,0.135-1.168,0.503-1.519
			c0.296-0.288,0.692-0.404,1.061-0.404c0.279,0,0.521,0.063,0.674,0.126l-0.107,0.611c-0.117-0.054-0.279-0.099-0.503-0.099
			c-0.674,0-0.845,0.593-0.845,1.258v0.233h1.051v0.603h-1.051v3.748H186.722z"/>
		<path class="st0" d="M193.087,268.518c0,1.609-1.115,2.31-2.166,2.31c-1.178,0-2.085-0.863-2.085-2.238
			c0-1.456,0.953-2.31,2.157-2.31C192.242,266.28,193.087,267.188,193.087,268.518z M189.636,268.563
			c0,0.953,0.548,1.672,1.321,1.672c0.755,0,1.321-0.71,1.321-1.69c0-0.737-0.369-1.671-1.303-1.671
			S189.636,267.736,189.636,268.563z"/>
		<path class="st0" d="M194.087,267.736c0-0.512-0.009-0.953-0.036-1.357h0.692l0.027,0.854h0.036
			c0.198-0.584,0.674-0.953,1.205-0.953c0.09,0,0.153,0.009,0.225,0.027v0.746c-0.081-0.018-0.162-0.027-0.27-0.027
			c-0.558,0-0.953,0.422-1.061,1.016c-0.018,0.107-0.036,0.233-0.036,0.368v2.319h-0.782V267.736z"/>
		<path class="st0" d="M197.063,267.556c0-0.45-0.009-0.818-0.036-1.178h0.692l0.036,0.701h0.027c0.243-0.414,0.647-0.8,1.366-0.8
			c0.593,0,1.042,0.359,1.231,0.872h0.018c0.135-0.243,0.306-0.431,0.485-0.566c0.261-0.198,0.548-0.306,0.962-0.306
			c0.575,0,1.429,0.377,1.429,1.887v2.562H202.5v-2.462c0-0.836-0.305-1.339-0.943-1.339c-0.45,0-0.8,0.333-0.935,0.719
			c-0.036,0.108-0.063,0.251-0.063,0.396v2.687h-0.773v-2.606c0-0.692-0.306-1.195-0.908-1.195c-0.495,0-0.854,0.396-0.98,0.791
			c-0.045,0.117-0.063,0.251-0.063,0.386v2.625h-0.773V267.556z"/>
		<path class="st0" d="M206.971,270.729l-0.063-0.548h-0.027c-0.242,0.342-0.71,0.647-1.33,0.647c-0.88,0-1.33-0.62-1.33-1.249
			c0-1.052,0.935-1.627,2.615-1.618v-0.09c0-0.359-0.099-1.007-0.988-1.007c-0.405,0-0.827,0.126-1.132,0.324l-0.18-0.521
			c0.36-0.233,0.881-0.386,1.429-0.386c1.33,0,1.654,0.908,1.654,1.779v1.627c0,0.377,0.018,0.746,0.072,1.042H206.971z
			 M206.854,268.509c-0.863-0.018-1.842,0.135-1.842,0.979c0,0.512,0.341,0.755,0.746,0.755c0.566,0,0.926-0.359,1.051-0.728
			c0.027-0.081,0.045-0.171,0.045-0.251V268.509z"/>
		<path class="st0" d="M209.813,265.129v1.249h1.132v0.603h-1.132v2.346c0,0.539,0.153,0.845,0.593,0.845
			c0.207,0,0.359-0.027,0.458-0.054l0.036,0.593c-0.153,0.063-0.396,0.108-0.701,0.108c-0.368,0-0.665-0.117-0.854-0.333
			c-0.225-0.234-0.306-0.62-0.306-1.132v-2.373h-0.674v-0.603h0.674v-1.042L209.813,265.129z"/>
		<path class="st0" d="M212.717,265.156c0.009,0.27-0.188,0.485-0.503,0.485c-0.279,0-0.477-0.216-0.477-0.485
			c0-0.278,0.207-0.494,0.495-0.494C212.529,264.662,212.717,264.878,212.717,265.156z M211.837,270.729v-4.35h0.791v4.35H211.837z"
			/>
		<path class="st0" d="M216.907,270.055h-0.018c-0.234,0.431-0.719,0.772-1.42,0.772c-1.016,0-1.843-0.88-1.843-2.202
			c0-1.627,1.052-2.346,1.968-2.346c0.674,0,1.124,0.333,1.339,0.755h0.018l0.027-0.656h0.746c-0.018,0.369-0.027,0.746-0.027,1.195
			v4.934h-0.791V270.055z M216.907,268.14c0-0.108-0.009-0.234-0.036-0.333c-0.117-0.485-0.539-0.899-1.132-0.899
			c-0.818,0-1.312,0.692-1.312,1.672c0,0.863,0.413,1.618,1.285,1.618c0.512,0,0.953-0.314,1.132-0.863
			c0.036-0.108,0.063-0.261,0.063-0.377V268.14z"/>
		<path class="st0" d="M222.643,269.542c0,0.45,0.009,0.845,0.036,1.187h-0.701l-0.045-0.71h-0.018
			c-0.207,0.351-0.665,0.809-1.438,0.809c-0.683,0-1.501-0.377-1.501-1.905v-2.543h0.791v2.409c0,0.827,0.252,1.384,0.971,1.384
			c0.53,0,0.899-0.369,1.042-0.719c0.045-0.117,0.072-0.26,0.072-0.404v-2.669h0.791V269.542z"/>
		<path class="st0" d="M224.398,268.697c0.018,1.07,0.701,1.51,1.492,1.51c0.566,0,0.908-0.099,1.204-0.225l0.135,0.566
			c-0.279,0.126-0.755,0.27-1.447,0.27c-1.339,0-2.139-0.881-2.139-2.193s0.773-2.346,2.041-2.346c1.42,0,1.797,1.249,1.797,2.049
			c0,0.162-0.018,0.288-0.027,0.368H224.398z M226.716,268.131c0.009-0.503-0.207-1.286-1.096-1.286c-0.8,0-1.15,0.737-1.213,1.286
			H226.716z"/>
	</g>
</g>
</svg>
