<?xml version="1.0" encoding="utf-8"?>
<!-- Generator: Adobe Illustrator 19.0.0, SVG Export Plug-In . SVG Version: 6.00 Build 0)  -->
<svg version="1.0" xmlns="http://www.w3.org/2000/svg" xmlns:xlink="http://www.w3.org/1999/xlink" x="0px" y="0px"
	 viewBox="0 0 720.667 762.667" style="enable-background:new 0 0 720.667 762.667;" xml:space="preserve">
<style type="text/css">
	.st0{fill:#FFFFFF;stroke:#383938;stroke-width:0.5;stroke-miterlimit:10;}
	.st1{fill:#ECF0F2;stroke:#383938;stroke-width:0.5;stroke-miterlimit:10;}
	.st2{fill:#BFD9E0;stroke:#383938;stroke-width:0.5;stroke-miterlimit:10;}
	.st3{fill:#A3CBCB;stroke:#383938;stroke-width:0.5;stroke-miterlimit:10;}
	.st4{fill:#62A2A1;stroke:#383938;stroke-width:0.5;stroke-miterlimit:10;}
	.st5{fill:#ED855A;stroke:#383938;stroke-width:0.5;stroke-miterlimit:10;}
	.st6{fill:none;stroke:#383938;stroke-width:0.5;stroke-miterlimit:10;}
	.st7{fill:none;stroke:#383938;stroke-width:0.5;stroke-miterlimit:10;stroke-dasharray:2;}
</style>
<g id="locaux">
	<polygon class="st0" points="612.177,474.128 715.521,693.397 668.026,716.317 677.687,731.779 634.124,759 546.42,618.644 
		562.189,608.79 553.281,594.534 560.99,589.717 526.319,513.844 	"/>
	<path class="st0" d="M5.496,172.206l17.777,28.449l91.912,147.297l39.655,63.462l21.281-13.298l29.469,47.161l-21.188,13.239
		c0,0,32.44,52.848,40.548,64.891c33.206,49.318,90.86,47.928,122.82,28.355c6.046-3.703,143.652-89.763,143.652-89.763
		l-38.557-61.704l-9.647,6.028l-7.154-11.449l3.675-2.296l-13.248-21.201l-30.671,19.165l-58.291-93.285l31.236-19.519
		L288.13,148.694l-96.536,60.322l40.186,64.31l-37.879,23.67l-89.115-142.613l-38.021,23.758l-9.892-15.83l-19.929,12.453
		l-9.98-15.972L5.496,172.206z"/>
	<polygon class="st1" points="676.605,712.177 661.906,680.812 701.038,662.668 715.521,693.397 	"/>
	<polygon class="st1" points="661.906,680.812 648.075,651.131 687.236,633.383 701.038,662.668 	"/>
	<polygon class="st1" points="648.075,651.131 634.475,621.503 673.134,603.463 687.236,633.383 	"/>
	<polygon class="st1" points="673.134,603.463 659.261,574.029 620.274,591.857 634.475,621.503 	"/>
	<polygon class="st1" points="620.274,591.857 606.479,562.547 645.239,544.277 659.261,574.029 	"/>
	<polygon class="st1" points="606.479,562.547 593.196,533.113 631.482,515.088 645.239,544.277 	"/>
	<polygon class="st1" points="593.196,533.113 589.996,526.779 595.993,523.897 592.35,516.347 595.217,515.071 590.266,505.464 
		604.365,499.406 614.638,502.616 623.628,498.424 631.482,515.088 	"/>
	<polygon class="st1" points="590.266,505.464 581.872,488.146 612.177,474.128 623.628,498.424 614.638,502.616 604.365,499.406 	
		"/>
	<polygon class="st1" points="662.245,741.428 643.653,711.674 650.861,707.17 646.622,700.386 611.293,722.462 634.124,759 	"/>
	<path class="st1" d="M646.622,700.386"/>
	<path class="st1" d="M642.913,694.449"/>
	<polygon class="st1" points="636.128,698.689 618.111,669.855 589.566,687.692 611.293,722.462 646.622,700.386 642.913,694.449 	
		"/>
	<polygon class="st1" points="618.111,669.855 600.624,641.869 607.408,637.63 603.434,631.27 568.104,653.346 589.566,687.692 	"/>
	
		<rect x="604.111" y="635.579" transform="matrix(0.5299 0.848 -0.848 0.5299 833.912 -216.2595)" class="st1" width="15.833" height="17"/>
	
		<rect x="611.052" y="651.621" transform="matrix(0.5299 0.848 -0.848 0.5299 852.2289 -217.2194)" class="st2" width="22" height="17"/>
	
		<rect x="590.429" y="610.649" transform="matrix(0.5299 0.848 -0.848 0.5299 805.448 -214.7677)" class="st1" width="12.041" height="17"/>
	
		<rect x="577.256" y="596.673" transform="matrix(0.5299 0.848 -0.848 0.5299 789.49 -213.9314)" class="st1" width="20.92" height="17"/>
	
		<rect x="621.025" y="673.317" transform="matrix(0.5299 0.848 -0.848 0.5299 877.001 -218.5177)" class="st2" width="29.167" height="17"/>
	<polygon class="st1" points="603.434,631.27 599.216,624.52 592.432,628.759 574.965,600.807 546.42,618.644 568.104,653.346 	"/>
	<polygon class="st1" points="559.058,585.49 579.712,576.324 570.616,561.766 552.022,570.093 	"/>
	<polygon class="st1" points="570.616,561.766 561.695,547.491 545.174,555.107 552.022,570.093 	"/>
	<polygon class="st1" points="561.695,547.491 553.04,533.639 538.452,540.396 545.174,555.107 	"/>
	<polygon class="st1" points="553.04,533.639 544.539,520.035 531.765,525.762 538.452,540.396 	"/>
	<polygon class="st1" points="544.539,520.035 537.452,508.694 526.319,513.844 531.765,525.762 	"/>
	<polygon class="st1" points="589.996,526.779 585.867,528.775 580.356,517.479 590.539,512.664 595.993,523.897 	"/>
	<polygon class="st1" points="592.35,516.347 595.217,515.071 589.529,503.945 559.925,516.98 564.032,523.553 571.394,519.885 
		572.141,521.433 590.539,512.664 	"/>
	<polygon class="st1" points="452.865,400.295 426.116,417.01 458.441,468.741 455.19,470.772 461.429,480.755 491.429,462.009 	"/>
	<polygon class="st1" points="426.116,417.01 369.58,452.338 386.272,479.051 394.195,480.881 445.856,448.6 	"/>
	<polygon class="st1" points="445.856,448.6 458.441,468.741 455.19,470.772 461.429,480.755 408.143,514.052 393.161,490.076 
		394.54,480.96 	"/>
	<polygon class="st1" points="393.161,490.076 386.801,494.05 385.211,491.506 353.55,511.29 370.122,537.81 408.143,514.052 	"/>
	
		<rect x="347.677" y="525.215" transform="matrix(0.848 -0.5299 0.5299 0.848 -229.1029 270.4842)" class="st1" width="18.833" height="19.031"/>
	
		<rect x="344.627" y="513.849" transform="matrix(0.848 -0.5299 0.5299 0.848 -222.1744 265.1236)" class="st1" width="13.167" height="12.241"/>
	<polygon class="st1" points="342.384,518.267 331.642,524.979 338.129,535.36 344.065,531.651 348.871,528.648 	"/>
	<polygon class="st1" points="331.642,524.979 318.639,533.105 302.191,535.718 302.861,549.056 317.917,547.99 338.129,535.36 	"/>
	<path class="st1" d="M332.334,538.981l9.907,15.854c0,0,4.838-2.637,7.385-4.222l4.523-2.826l-10.083-16.136L332.334,538.981z"/>
	<path class="st1" d="M342.241,554.836c0,0-12.207,6.018-21.718,7.532l-2.605-14.378l14.417-9.009L342.241,554.836z"/>
	<path class="st1" d="M320.522,562.367c0,0-11.056,1.996-16.654,2.02l-1.007-15.331l15.056-1.066L320.522,562.367z"/>
	<path class="st1" d="M302.191,535.718l-8.957-2.068l-3.934,30.103c0,0,8.129,1.062,14.568,0.634L302.191,535.718z"/>
	<path class="st1" d="M274.079,560.562l9.827-28.944l-9.46-2.245l-14.91-9.55l-6.607-8.057l-22.708,18.804
		C230.222,530.57,246.703,552.616,274.079,560.562z"/>
	<path class="st1" d="M230.222,530.57l22.708-18.804l-5.661-7.959l-21.373-34.205l-25.046,15.65l23.914,38.271
		C224.764,523.524,228.867,529.448,230.222,530.57z"/>
	<polygon class="st1" points="225.895,469.602 229.853,467.129 213.219,440.51 184.402,458.517 201.036,485.136 	"/>
	
		<rect x="215.983" y="435.524" transform="matrix(-0.5299 -0.848 0.848 -0.5299 -25.0394 881.0856)" class="st1" width="31.389" height="23.917"/>
	
		<rect x="230.878" y="432.568" transform="matrix(-0.5299 -0.848 0.848 -0.5299 1.5363 872.9052)" class="st1" width="23.639" height="6.917"/>
	
		<rect x="358.586" y="459.01" transform="matrix(0.848 -0.5299 0.5299 0.848 -196.0166 266.1779)" class="st1" width="15.083" height="31.75"/>
	<polygon class="st1" points="351.32,465.418 323.97,482.508 306.975,478.585 297.021,521.703 305.346,523.625 318.887,523.123 
		368.145,492.344 	"/>
	<polygon class="st1" points="344.606,469.613 319.86,463.9 315.99,480.666 323.97,482.508 	"/>
	<polygon class="st1" points="286.628,519.304 279.182,517.767 273.725,514.495 276.187,503.831 289.549,506.916 	"/>
	<polygon class="st1" points="289.549,506.916 292.154,495.631 278.989,492.211 276.257,503.847 	"/>
	<polygon class="st1" points="292.154,495.631 296.336,477.519 275.15,472.628 271.57,490.391 	"/>
	<polygon class="st1" points="271.349,490.528 258.452,498.587 267.403,510.239 273.725,514.495 278.989,492.211 	"/>
	<polygon class="st1" points="272.457,485.309 263.674,483.041 252.932,489.754 258.452,498.587 271.349,490.528 	"/>
	<polygon class="st1" points="287.609,475.504 291.877,457.017 279.29,454.171 275.15,472.628 	"/>
	<polygon class="st1" points="252.932,489.754 241.274,471.097 249.048,466.239 254.732,467.551 263.177,462.274 266.643,467.822 
		263.674,483.041 	"/>
	<polygon class="st1" points="265.21,475.168 274.158,477.299 272.457,485.309 263.674,483.041 	"/>
	
		<rect x="405.387" y="399.573" transform="matrix(-0.848 0.5299 -0.5299 -0.848 983.8907 522.9363)" class="st1" width="23.167" height="5.917"/>
	
		<rect x="391.402" y="405.726" transform="matrix(0.848 -0.5299 0.5299 0.848 -157.0912 274.0266)" class="st3" width="15.75" height="10.417"/>
	
		<rect x="385.882" y="396.892" transform="matrix(0.848 -0.5299 0.5299 0.848 -153.2488 269.7592)" class="st3" width="15.75" height="10.417"/>
	
		<rect x="380.582" y="388.828" transform="matrix(0.848 -0.5299 0.5299 0.848 -149.56 265.6624)" class="st3" width="15.75" height="9.583"/>
	<polygon class="st3" points="392.597,385.383 379.24,393.73 375.512,391.538 370.964,384.26 386.017,374.854 	"/>
	
		<rect x="369.438" y="365.664" transform="matrix(0.5299 0.848 -0.848 0.5299 494.0742 -142.2556)" class="st3" width="11.833" height="17.75"/>
	
		<rect x="360.16" y="353.961" transform="matrix(0.5299 0.848 -0.848 0.5299 479.2191 -143.9449)" class="st3" width="18.583" height="12.667"/>
	
		<rect x="370.632" y="415.302" transform="matrix(0.848 -0.5299 0.5299 0.848 -165.559 263.8986)" class="st3" width="13.5" height="10.667"/>
	
		<rect x="366.667" y="404.99" transform="matrix(0.5299 0.848 -0.848 0.5299 523.9626 -121.7733)" class="st3" width="10.312" height="13.5"/>
	
		<rect x="361.043" y="396.156" transform="matrix(0.5299 0.848 -0.848 0.5299 513.8762 -121.2447)" class="st3" width="10.521" height="13.5"/>
	
		<rect x="350.465" y="414.644" transform="matrix(0.848 -0.5299 0.5299 0.848 -170.0384 255.314)" class="st2" width="19.417" height="19.021"/>
	
		<rect x="335" y="424.646" transform="matrix(0.848 -0.5299 0.5299 0.848 -177.7711 248.3515)" class="st2" width="18.333" height="19.021"/>
	
		<rect x="348.275" y="402.579" transform="matrix(-0.5299 -0.848 0.848 -0.5299 196.766 925.7269)" class="st3" width="13.354" height="11.5"/>
	
		<rect x="336.332" y="407.459" transform="matrix(-0.5299 -0.848 0.848 -0.5299 172.1647 927.0162)" class="st3" width="13.354" height="16.667"/>
	
		<rect x="322.198" y="416.291" transform="matrix(-0.5299 -0.848 0.848 -0.5299 143.0506 928.542)" class="st3" width="13.354" height="16.667"/>
	
		<rect x="351.507" y="380.512" transform="matrix(-0.5299 -0.848 0.848 -0.5299 217.0424 894.8317)" class="st3" width="10.042" height="13.5"/>
	
		<rect x="346.186" y="371.996" transform="matrix(-0.5299 -0.848 0.848 -0.5299 216.1231 877.2905)" class="st3" width="10.042" height="13.5"/>
	<polygon class="st3" points="337.296,369.431 342.822,378.065 354.27,370.911 348.949,362.395 	"/>
	<polygon class="st1" points="325.835,376.592 331.267,385.285 342.822,378.065 337.296,369.431 	"/>
	
		<rect x="332.324" y="383.378" transform="matrix(-0.5299 -0.848 0.848 -0.5299 192.8912 887.3027)" class="st2" width="20.083" height="13.625"/>
	
		<rect x="327.436" y="394.294" transform="matrix(-0.5299 -0.848 0.848 -0.5299 170.9028 895.2791)" class="st3" width="12.292" height="11.958"/>
	
		<rect x="312.436" y="397.917" transform="matrix(-0.5299 -0.848 0.848 -0.5299 149.7581 890.8039)" class="st2" width="18.667" height="11.958"/>
	
		<rect x="302.432" y="371.991" transform="matrix(-0.5299 -0.848 0.848 -0.5299 150.3651 842.851)" class="st1" width="12.701" height="15.521"/>
	
		<rect x="309.404" y="382.326" transform="matrix(-0.5299 -0.848 0.848 -0.5299 151.4808 864.1406)" class="st1" width="11.674" height="15.521"/>
	
		<rect x="295.282" y="360.987" transform="matrix(-0.5299 -0.848 0.848 -0.5299 149.1772 820.1849)" class="st1" width="13.25" height="15.521"/>
	
		<rect x="289.025" y="350.174" transform="matrix(-0.5299 -0.848 0.848 -0.5299 148.0099 797.9127)" class="st1" width="12.25" height="15.521"/>
	
		<rect x="282.534" y="339.786" transform="matrix(-0.5299 -0.848 0.848 -0.5299 146.8885 776.5139)" class="st1" width="12.25" height="15.521"/>
	
		<rect x="276.042" y="329.397" transform="matrix(-0.5299 -0.848 0.848 -0.5299 145.767 755.115)" class="st1" width="12.25" height="15.521"/>
	
		<rect x="285.024" y="391.68" transform="matrix(-0.5299 -0.848 0.848 -0.5299 106.1922 863.7654)" class="st3" width="14.938" height="21.542"/>
	<polygon class="st3" points="279.401,401.825 271.874,406.528 298.127,448.542 301.954,449.319 325.346,434.702 305.585,403.077 
		287.316,414.493 	"/>
	<polygon class="st1" points="298.127,448.542 272.427,443.032 270.385,439.763 286.392,429.761 	"/>
	
		<rect x="266.102" y="425.014" transform="matrix(0.5299 0.848 -0.848 0.5299 493.6973 -28.2504)" class="st1" width="12.458" height="12.375"/>
	<polygon class="st1" points="286.392,429.761 280.879,433.205 274.277,422.64 263.783,429.198 250.502,407.944 266.509,397.941 	
		"/>
	
		<rect x="246.856" y="393.548" transform="matrix(0.5299 0.848 -0.848 0.5299 457.7697 -26.3675)" class="st1" width="11.625" height="12.375"/>
	
		<rect x="239.453" y="383" transform="matrix(0.5299 0.848 -0.848 0.5299 445.7266 -25.7363)" class="st1" width="13.25" height="12.375"/>
	
		<rect x="228.067" y="361.453" transform="matrix(0.848 -0.5299 0.5299 0.848 -160.6156 180.3984)" class="st4" width="12.375" height="17.625"/>
	
		<rect x="240.037" y="356.624" transform="matrix(0.5299 0.848 -0.848 0.5299 432.2386 -46.8859)" class="st0" width="36.75" height="19.646"/>
	
		<rect x="256.035" y="347.408" transform="matrix(0.5299 0.848 -0.848 0.5299 431.2813 -65.1523)" class="st0" width="36.75" height="18.083"/>
	
		<rect x="193.432" y="398.708" transform="matrix(-0.5299 -0.848 0.848 -0.5299 -30.0308 820.6003)" class="st1" width="37.971" height="39.83"/>
	
		<rect x="173.755" y="366.754" transform="matrix(-0.5299 -0.848 0.848 -0.5299 -33.4803 754.7786)" class="st1" width="37.39" height="39.83"/>
	
		<rect x="153.475" y="334.786" transform="matrix(-0.5299 -0.848 0.848 -0.5299 -36.9312 688.9314)" class="st1" width="38" height="39.83"/>
	
		<rect x="108.728" y="360.76" transform="matrix(-0.5299 -0.848 0.848 -0.5299 -93.392 694.7368)" class="st0" width="74.25" height="24.984"/>
	
		<rect x="229.92" y="254.505" transform="matrix(-0.5299 -0.848 0.848 -0.5299 137.7861 603.1771)" class="st4" width="12.292" height="17.792"/>
	
		<rect x="216.072" y="232.809" transform="matrix(-0.5299 -0.848 0.848 -0.5299 135.4439 558.4871)" class="st4" width="12.875" height="17.792"/>
	
		<rect x="196.221" y="200.668" transform="matrix(-0.5299 -0.848 0.848 -0.5299 145.3583 513.702)" class="st4" width="37.667" height="31.792"/>
	
		<rect x="219.03" y="191.312" transform="matrix(-0.5299 -0.848 0.848 -0.5299 192.3411 511.2398)" class="st4" width="37.667" height="22"/>
	
		<rect x="222.865" y="243.78" transform="matrix(-0.5299 -0.848 0.848 -0.5299 136.6283 581.0868)" class="st4" width="13" height="17.792"/>
	<polygon class="st4" points="243.924,191.253 257.81,182.576 261.586,188.618 266.462,185.571 255.974,168.787 237.211,180.511 	
		"/>
	<polygon class="st4" points="261.586,188.618 266.462,185.571 275.935,200.73 257.172,212.454 243.924,191.253 257.81,182.576 	"/>
	<polygon class="st4" points="275.935,200.73 291.412,191.059 285.516,181.624 291.453,177.915 287.876,172.19 266.462,185.571 	"/>
	
		<rect x="286.97" y="175.568" transform="matrix(-0.848 0.5299 -0.5299 -0.848 644.4909 177.4562)" class="st4" width="19.667" height="11.125"/>
	
		<rect x="276.52" y="156.971" transform="matrix(0.5299 0.848 -0.848 0.5299 274.715 -168.9906)" class="st4" width="26.542" height="12.667"/>
	
		<rect x="267.383" y="160.831" transform="matrix(0.5299 0.848 -0.848 0.5299 272.0888 -156.5745)" class="st4" width="19.792" height="12.625"/>
	
		<rect x="256.676" y="167.521" transform="matrix(-0.5299 -0.848 0.848 -0.5299 260.414 492.017)" class="st4" width="19.792" height="12.625"/>
	<polygon class="st4" points="259.818,387.235 266.509,397.941 260.996,401.386 247.815,380.291 237.32,386.848 233.677,381.018 
		244.171,374.46 234.832,359.513 224.337,366.071 184.748,302.715 246.867,263.898 226.642,231.531 308.09,180.637 368.766,277.738 
		337.529,297.257 369.898,349.059 348.839,362.218 325.835,376.592 335.396,391.893 325.255,398.23 321.876,392.823 
		324.915,390.924 285.503,327.851 272.34,336.076 272.34,336.076 257.005,345.658 257.005,345.658 240.344,356.069 	"/>
	
		<rect x="322.259" y="223.929" transform="matrix(-0.5299 -0.848 0.848 -0.5299 339.1689 652.9452)" class="st4" width="56.583" height="17.083"/>
	<polygon class="st0" points="530.384,328.174 451.338,201.674 514.729,162.062 574.345,257.468 542.649,277.273 562.08,308.368 	
		"/>
	
		<rect x="521.066" y="311.759" transform="matrix(0.5299 0.848 -0.848 0.5299 518.429 -300.5022)" class="st0" width="18.417" height="11.25"/>
	
		<rect x="455.363" y="197.294" transform="matrix(-0.848 0.5299 -0.5299 -0.848 961.3569 137.3393)" class="st0" width="11.25" height="18.417"/>
	
		<rect x="492.986" y="163.913" transform="matrix(-0.5299 -0.848 0.848 -0.5299 618.5619 708.0765)" class="st1" width="25.083" height="37.375"/>
	
		<rect x="171.435" y="284.544" transform="matrix(0.5299 0.848 -0.848 0.5299 333.938 -15.8523)" class="st1" width="19.667" height="17.5"/>
	
		<rect x="81.745" y="223.927" transform="matrix(0.5299 0.848 -0.848 0.5299 274.8601 3.9927)" class="st5" width="104.167" height="52"/>
	<polygon class="st1" points="66.764,178.141 70.208,183.653 95.367,167.932 108.615,189.133 121.477,181.096 104.785,154.383 	"/>
	
		<rect x="112.03" y="182.973" transform="matrix(-0.5299 -0.848 0.848 -0.5299 19.6124 391.9845)" class="st1" width="12.833" height="15.167"/>
	<polygon class="st1" points="95.367,167.932 70.208,183.653 64.131,187.451 84.179,219.535 115.416,200.017 	"/>
	
		<rect x="11.802" y="160.828" transform="matrix(0.5299 0.848 -0.848 0.5299 157.0983 63.557)" class="st0" width="18.834" height="25.314"/>
	
		<rect x="102.804" y="300.339" transform="matrix(0.5299 0.848 -0.848 0.5299 320.0648 52.9125)" class="st2" width="19" height="29.647"/>
	
		<rect x="71.699" y="272.565" transform="matrix(0.5299 0.848 -0.848 0.5299 288.3533 54.5745)" class="st1" width="46.5" height="29.647"/>
	
		<rect x="47.632" y="233.449" transform="matrix(0.5299 0.848 -0.848 0.5299 243.6909 56.9151)" class="st1" width="45.75" height="29.647"/>
	
		<rect x="112.539" y="317.052" transform="matrix(0.5299 0.848 -0.848 0.5299 339.1482 51.9124)" class="st2" width="20.417" height="29.647"/>
	
		<rect x="55.175" y="212.271" transform="matrix(-0.5299 -0.848 0.848 -0.5299 -92.8959 388.4657)" class="st1" width="12.083" height="15.417"/>
	<polygon class="st1" points="64.553,210.771 58.856,201.654 33.714,217.365 45.814,236.729 57.882,229.188 51.478,218.941 	"/>
	
		<rect x="34.237" y="188.008" transform="matrix(0.5299 0.848 -0.848 0.5299 191.8066 59.6343)" class="st1" width="15.75" height="29.647"/>
	<polygon class="st0" points="240.39,4.203 165.338,51.101 185.74,83.75 166.447,95.806 185.789,126.76 280.134,67.806 	"/>
	<polygon class="st1" points="166.447,95.806 198.037,76.067 202.938,83.911 196.79,87.753 205.799,102.17 211.947,98.328 
		217.379,107.02 185.789,126.76 	"/>
	
		<rect x="86.577" y="215.209" transform="matrix(0.5299 0.848 -0.848 0.5299 235.4367 22.929)" class="st1" width="20.917" height="17.25"/>
	<path class="st1" d="M260.996,352.047l-3.992,2.655c0,0-9.755,6.882-4.923,20.152l7.737,12.381l16.661-10.411L260.996,352.047z"/>
	<polygon class="st3" points="259.818,387.235 271.874,406.528 297.669,390.41 303.899,386.581 291.815,367.241 	"/>
</g>
<g id="murs">
	<line class="st6" x1="650.861" y1="707.17" x2="658.494" y2="702.401"/>
	<line class="st6" x1="579.712" y1="576.324" x2="582.097" y2="580.141"/>
	<line class="st6" x1="589.382" y1="591.798" x2="587.065" y2="588.091"/>
	<line class="st6" x1="559.925" y1="516.98" x2="558.269" y2="514.33"/>
	<line class="st6" x1="550.869" y1="502.488" x2="552.738" y2="505.479"/>
	<polyline class="st6" points="395.82,390.542 405.58,406.161 427.223,392.637 	"/>
	<polyline class="st6" points="373.447,427.075 376.207,431.492 364.546,438.778 	"/>
	<polyline class="st6" points="341.433,447.079 344.193,451.496 354.511,445.049 	"/>
	<polyline class="st6" points="344.193,451.496 334.087,457.811 316.288,453.702 315.096,451.794 	"/>
	<path class="st6" d="M257.005,345.658"/>
	<path class="st6" d="M272.34,336.076"/>
	<line class="st6" x1="492.793" y1="197.486" x2="477.634" y2="206.958"/>
	<line class="st6" x1="552.32" y1="292.75" x2="537.162" y2="302.223"/>
	<line class="st6" x1="64.131" y1="187.451" x2="59.431" y2="190.388"/>
	<line class="st6" x1="40.618" y1="172.467" x2="46.403" y2="181.725"/>
	<polyline class="st6" points="179.059,306.27 149.801,324.552 147.394,320.701 	"/>
	<line class="st6" x1="139.379" y1="307.874" x2="142.625" y2="313.068"/>
	<polyline class="st6" points="247.908,87.943 238.237,72.466 211.948,88.894 	"/>
	<line class="st6" x1="385.933" y1="421.582" x2="393.757" y2="417.038"/>
</g>
<g id="lignes">
	<line class="st7" x1="36.943" y1="174.764" x2="5.496" y2="172.206"/>
	<line class="st7" x1="26.963" y1="158.792" x2="15.476" y2="188.178"/>
	<line class="st7" x1="136.774" y1="335.149" x2="154.84" y2="411.414"/>
	<line class="st7" x1="460.878" y1="195.712" x2="461.097" y2="217.292"/>
	<line class="st7" x1="470.638" y1="211.33" x2="451.338" y2="201.674"/>
	<line class="st7" x1="530.165" y1="306.594" x2="530.384" y2="328.174"/>
	<line class="st7" x1="539.925" y1="322.213" x2="520.625" y2="312.556"/>
	<line class="st7" x1="115.586" y1="348.388" x2="176.12" y2="398.116"/>
	<line class="st7" x1="240.344" y1="356.069" x2="253.911" y2="357.935"/>
	<line class="st7" x1="257.005" y1="345.658" x2="253.911" y2="357.935"/>
	<g>
	</g>
	<g>
	</g>
	<g>
	</g>
	<g>
	</g>
	<g>
	</g>
	<g>
	</g>
</g>
</svg>
