<?xml version="1.0" encoding="utf-8"?>
<!-- Generator: Adobe Illustrator 19.0.1, SVG Export Plug-In . SVG Version: 6.00 Build 0)  -->
<svg version="1.1" id="textes" xmlns="http://www.w3.org/2000/svg" xmlns:xlink="http://www.w3.org/1999/xlink" x="0px" y="0px"
	 width="890px" height="1000px" viewBox="139 -104 890 1000" style="enable-background:new 139 -104 890 1000;"
	 xml:space="preserve">
<style type="text/css">
	.st0{fill:#FFFFFF;}
</style>
<g>
	<path d="M528.82,110.15H423.35c-1.39,0-2.51-1.13-2.51-2.51V96.37c0-1.39,1.13-2.51,2.51-2.51h105.47c1.39,0,2.51,1.13,2.51,2.51
		v11.27C531.34,109.02,530.21,110.15,528.82,110.15z"/>
	<g>
		<path class="st0" d="M429.54,104.44c-0.29,0.14-0.86,0.29-1.6,0.29c-1.71,0-2.99-1.08-2.99-3.06c0-1.9,1.29-3.18,3.16-3.18
			c0.75,0,1.23,0.16,1.44,0.27l-0.19,0.64c-0.3-0.14-0.72-0.25-1.22-0.25c-1.42,0-2.36,0.91-2.36,2.5c0,1.48,0.85,2.44,2.33,2.44
			c0.48,0,0.96-0.1,1.28-0.25L429.54,104.44z"/>
		<path class="st0" d="M434.34,102.43c0,1.61-1.11,2.31-2.17,2.31c-1.18,0-2.09-0.86-2.09-2.24c0-1.46,0.95-2.31,2.16-2.31
			C433.49,100.19,434.34,101.1,434.34,102.43z M430.89,102.47c0,0.95,0.55,1.67,1.32,1.67c0.75,0,1.32-0.71,1.32-1.69
			c0-0.74-0.37-1.67-1.3-1.67S430.89,101.65,430.89,102.47z"/>
		<path class="st0" d="M435.34,101.47c0-0.45-0.01-0.82-0.04-1.18h0.7l0.04,0.72h0.02c0.22-0.41,0.72-0.82,1.44-0.82
			c0.6,0,1.54,0.36,1.54,1.85v2.6h-0.79v-2.51c0-0.7-0.26-1.29-1.01-1.29c-0.52,0-0.93,0.37-1.06,0.81
			c-0.04,0.1-0.05,0.23-0.05,0.37v2.62h-0.79V101.47z"/>
		<path class="st0" d="M444.08,98.26v5.26c0,0.39,0.01,0.83,0.04,1.12h-0.71l-0.04-0.75h-0.02c-0.24,0.49-0.77,0.85-1.48,0.85
			c-1.05,0-1.86-0.89-1.86-2.21c-0.01-1.45,0.89-2.34,1.95-2.34c0.67,0,1.11,0.31,1.31,0.67h0.02v-2.6L444.08,98.26L444.08,98.26z
			 M443.29,102.06c0-0.1-0.01-0.23-0.04-0.33c-0.12-0.5-0.55-0.92-1.14-0.92c-0.82,0-1.3,0.72-1.3,1.68c0,0.88,0.43,1.61,1.29,1.61
			c0.53,0,1.02-0.35,1.16-0.94c0.03-0.11,0.04-0.22,0.04-0.34v-0.76H443.29z"/>
		<path class="st0" d="M446.28,99.07c0.01,0.27-0.19,0.49-0.5,0.49c-0.28,0-0.48-0.22-0.48-0.49c0-0.28,0.21-0.49,0.49-0.49
			C446.09,98.57,446.28,98.79,446.28,99.07z M445.4,104.64v-4.35h0.79v4.35H445.4z"/>
		<path class="st0" d="M448.46,99.04v1.25h1.13v0.6h-1.13v2.35c0,0.54,0.15,0.84,0.59,0.84c0.21,0,0.36-0.03,0.46-0.05l0.04,0.59
			c-0.15,0.06-0.4,0.11-0.7,0.11c-0.37,0-0.67-0.12-0.85-0.33c-0.23-0.23-0.31-0.62-0.31-1.13v-2.37h-0.67v-0.6h0.67v-1.04
			L448.46,99.04z"/>
		<path class="st0" d="M451.36,99.07c0.01,0.27-0.19,0.49-0.5,0.49c-0.28,0-0.48-0.22-0.48-0.49c0-0.28,0.21-0.49,0.49-0.49
			C451.17,98.57,451.36,98.79,451.36,99.07z M450.48,104.64v-4.35h0.79v4.35H450.48z"/>
		<path class="st0" d="M456.52,102.43c0,1.61-1.11,2.31-2.17,2.31c-1.18,0-2.09-0.86-2.09-2.24c0-1.46,0.95-2.31,2.16-2.31
			C455.67,100.19,456.52,101.1,456.52,102.43z M453.07,102.47c0,0.95,0.55,1.67,1.32,1.67c0.75,0,1.32-0.71,1.32-1.69
			c0-0.74-0.37-1.67-1.3-1.67S453.07,101.65,453.07,102.47z"/>
		<path class="st0" d="M457.52,101.47c0-0.45-0.01-0.82-0.04-1.18h0.7l0.04,0.72h0.02c0.22-0.41,0.72-0.82,1.44-0.82
			c0.6,0,1.54,0.36,1.54,1.85v2.6h-0.79v-2.51c0-0.7-0.26-1.29-1.01-1.29c-0.52,0-0.93,0.37-1.06,0.81
			c-0.04,0.1-0.05,0.23-0.05,0.37v2.62h-0.79V101.47z"/>
		<path class="st0" d="M462.51,101.47c0-0.45-0.01-0.82-0.04-1.18h0.7l0.04,0.72h0.02c0.22-0.41,0.72-0.82,1.44-0.82
			c0.6,0,1.54,0.36,1.54,1.85v2.6h-0.79v-2.51c0-0.7-0.26-1.29-1.01-1.29c-0.52,0-0.93,0.37-1.06,0.81
			c-0.04,0.1-0.05,0.23-0.05,0.37v2.62h-0.79V101.47z"/>
		<path class="st0" d="M467.94,102.61c0.02,1.07,0.7,1.51,1.49,1.51c0.57,0,0.91-0.1,1.2-0.22l0.14,0.57
			c-0.28,0.13-0.76,0.27-1.45,0.27c-1.34,0-2.14-0.88-2.14-2.19s0.77-2.35,2.04-2.35c1.42,0,1.8,1.25,1.8,2.05
			c0,0.16-0.02,0.29-0.03,0.37h-3.05V102.61z M470.26,102.04c0.01-0.5-0.21-1.29-1.1-1.29c-0.8,0-1.15,0.74-1.21,1.29H470.26z"/>
		<path class="st0" d="M472,101.47c0-0.45-0.01-0.82-0.04-1.18h0.69l0.04,0.7h0.03c0.24-0.41,0.65-0.8,1.37-0.8
			c0.59,0,1.04,0.36,1.23,0.87h0.02c0.13-0.24,0.31-0.43,0.49-0.57c0.26-0.2,0.55-0.31,0.96-0.31c0.58,0,1.43,0.38,1.43,1.89v2.56
			h-0.77v-2.46c0-0.84-0.31-1.34-0.94-1.34c-0.45,0-0.8,0.33-0.93,0.72c-0.04,0.11-0.06,0.25-0.06,0.4v2.69h-0.77v-2.61
			c0-0.69-0.31-1.2-0.91-1.2c-0.49,0-0.85,0.4-0.98,0.79c-0.04,0.12-0.06,0.25-0.06,0.39v2.62H472V101.47z"/>
		<path class="st0" d="M479.94,102.61c0.02,1.07,0.7,1.51,1.49,1.51c0.57,0,0.91-0.1,1.2-0.22l0.14,0.57
			c-0.28,0.13-0.76,0.27-1.45,0.27c-1.34,0-2.14-0.88-2.14-2.19s0.77-2.35,2.04-2.35c1.42,0,1.8,1.25,1.8,2.05
			c0,0.16-0.02,0.29-0.03,0.37h-3.05V102.61z M482.26,102.04c0.01-0.5-0.21-1.29-1.1-1.29c-0.8,0-1.15,0.74-1.21,1.29H482.26z"/>
		<path class="st0" d="M484.01,101.47c0-0.45-0.01-0.82-0.04-1.18h0.7l0.04,0.72h0.02c0.22-0.41,0.72-0.82,1.44-0.82
			c0.6,0,1.54,0.36,1.54,1.85v2.6h-0.79v-2.51c0-0.7-0.26-1.29-1.01-1.29c-0.52,0-0.93,0.37-1.06,0.81
			c-0.04,0.1-0.05,0.23-0.05,0.37v2.62h-0.79V101.47z"/>
		<path class="st0" d="M489.91,99.04v1.25h1.13v0.6h-1.13v2.35c0,0.54,0.15,0.84,0.59,0.84c0.21,0,0.36-0.03,0.46-0.05l0.04,0.59
			c-0.15,0.06-0.4,0.11-0.7,0.11c-0.37,0-0.67-0.12-0.85-0.33c-0.22-0.23-0.31-0.62-0.31-1.13v-2.37h-0.67v-0.6h0.67v-1.04
			L489.91,99.04z"/>
		<path class="st0" d="M493.85,101.71c0-0.56-0.02-1.01-0.04-1.42h0.71l0.04,0.75h0.02c0.32-0.53,0.84-0.84,1.55-0.84
			c1.05,0,1.84,0.89,1.84,2.21c0,1.56-0.95,2.34-1.98,2.34c-0.58,0-1.08-0.25-1.34-0.68h-0.02v2.36h-0.78L493.85,101.71
			L493.85,101.71z M494.63,102.87c0,0.12,0.02,0.22,0.04,0.32c0.14,0.55,0.62,0.93,1.19,0.93c0.84,0,1.32-0.68,1.32-1.68
			c0-0.87-0.46-1.62-1.29-1.62c-0.54,0-1.04,0.39-1.2,0.98c-0.03,0.1-0.05,0.22-0.05,0.32v0.75H494.63z"/>
		<path class="st0" d="M498.96,98.26h0.79v2.71h0.02c0.13-0.22,0.32-0.42,0.57-0.56c0.23-0.13,0.51-0.22,0.81-0.22
			c0.58,0,1.52,0.36,1.52,1.86v2.59h-0.79v-2.5c0-0.7-0.26-1.29-1.01-1.29c-0.51,0-0.92,0.36-1.06,0.79
			c-0.04,0.11-0.05,0.22-0.05,0.38v2.62h-0.79v-6.38H498.96z"/>
		<path class="st0" d="M504.12,100.29l0.95,2.57c0.1,0.29,0.21,0.63,0.28,0.89h0.02c0.08-0.26,0.17-0.59,0.28-0.91l0.86-2.55h0.84
			l-1.19,3.1c-0.57,1.49-0.95,2.26-1.49,2.72c-0.39,0.34-0.77,0.48-0.97,0.51l-0.2-0.67c0.2-0.06,0.46-0.19,0.69-0.39
			c0.22-0.17,0.49-0.48,0.67-0.88c0.04-0.08,0.06-0.14,0.06-0.19s-0.02-0.11-0.05-0.21l-1.61-4.01h0.86V100.29z"/>
		<path class="st0" d="M507.91,103.83c0.23,0.15,0.65,0.31,1.04,0.31c0.58,0,0.84-0.29,0.84-0.65c0-0.38-0.22-0.58-0.81-0.8
			c-0.78-0.28-1.15-0.71-1.15-1.23c0-0.7,0.57-1.28,1.5-1.28c0.44,0,0.83,0.13,1.07,0.27l-0.2,0.58c-0.17-0.11-0.49-0.25-0.89-0.25
			c-0.47,0-0.73,0.27-0.73,0.59c0,0.36,0.26,0.52,0.83,0.74c0.75,0.29,1.14,0.67,1.14,1.31c0,0.76-0.59,1.3-1.63,1.3
			c-0.48,0-0.92-0.12-1.22-0.3L507.91,103.83z"/>
		<path class="st0" d="M512.46,99.07c0.01,0.27-0.19,0.49-0.5,0.49c-0.28,0-0.48-0.22-0.48-0.49c0-0.28,0.21-0.49,0.49-0.49
			C512.27,98.57,512.46,98.79,512.46,99.07z M511.58,104.64v-4.35h0.79v4.35H511.58z"/>
		<path class="st0" d="M516.65,103.97h-0.02c-0.23,0.43-0.72,0.77-1.42,0.77c-1.02,0-1.84-0.88-1.84-2.2c0-1.63,1.05-2.35,1.97-2.35
			c0.67,0,1.12,0.33,1.34,0.75h0.02l0.03-0.66h0.75c-0.02,0.37-0.03,0.75-0.03,1.2v4.93h-0.79v-2.44H516.65z M516.65,102.05
			c0-0.11-0.01-0.23-0.04-0.33c-0.12-0.49-0.54-0.9-1.13-0.9c-0.82,0-1.31,0.69-1.31,1.67c0,0.86,0.41,1.62,1.29,1.62
			c0.51,0,0.95-0.31,1.13-0.86c0.04-0.11,0.06-0.26,0.06-0.38V102.05z"/>
		<path class="st0" d="M522.38,103.45c0,0.45,0.01,0.85,0.04,1.19h-0.7l-0.04-0.71h-0.02c-0.21,0.35-0.67,0.81-1.44,0.81
			c-0.68,0-1.5-0.38-1.5-1.91v-2.54h0.79v2.41c0,0.83,0.25,1.38,0.97,1.38c0.53,0,0.9-0.37,1.04-0.72c0.04-0.12,0.07-0.26,0.07-0.4
			v-2.67h0.79V103.45L522.38,103.45z"/>
		<path class="st0" d="M524.14,102.61c0.02,1.07,0.7,1.51,1.49,1.51c0.57,0,0.91-0.1,1.2-0.22l0.13,0.57
			c-0.28,0.13-0.75,0.27-1.45,0.27c-1.34,0-2.14-0.88-2.14-2.19s0.77-2.35,2.04-2.35c1.42,0,1.8,1.25,1.8,2.05
			c0,0.16-0.02,0.29-0.03,0.37h-3.04V102.61z M526.46,102.04c0.01-0.5-0.21-1.29-1.1-1.29c-0.8,0-1.15,0.74-1.21,1.29H526.46z"/>
	</g>
</g>
<g>
	<path d="M280.83,231.28h-99.82c-1.39,0-2.51-1.13-2.51-2.51V217.5c0-1.39,1.13-2.51,2.51-2.51h99.81c1.39,0,2.51,1.13,2.51,2.51
		v11.27C283.34,230.16,282.21,231.28,280.83,231.28z"/>
	<g>
		<path class="st0" d="M185.64,222.93h-2.35v2.18h2.62v0.66h-3.41v-6.06h3.27v0.66h-2.49v1.91h2.35v0.65H185.64z"/>
		<path class="st0" d="M186.8,224.96c0.23,0.15,0.65,0.31,1.04,0.31c0.58,0,0.84-0.29,0.84-0.65c0-0.38-0.22-0.58-0.81-0.8
			c-0.78-0.28-1.15-0.71-1.15-1.23c0-0.7,0.57-1.28,1.5-1.28c0.44,0,0.83,0.13,1.07,0.27l-0.2,0.58c-0.17-0.11-0.49-0.25-0.89-0.25
			c-0.47,0-0.73,0.27-0.73,0.59c0,0.36,0.26,0.52,0.83,0.74c0.75,0.29,1.14,0.67,1.14,1.31c0,0.76-0.59,1.3-1.63,1.3
			c-0.48,0-0.92-0.12-1.22-0.3L186.8,224.96z"/>
		<path class="st0" d="M190.46,222.84c0-0.56-0.02-1.01-0.04-1.42h0.71l0.04,0.75h0.02c0.32-0.53,0.84-0.84,1.55-0.84
			c1.05,0,1.84,0.89,1.84,2.21c0,1.56-0.95,2.34-1.98,2.34c-0.58,0-1.08-0.25-1.34-0.68h-0.02v2.36h-0.78V222.84z M191.25,224
			c0,0.12,0.02,0.22,0.04,0.32c0.14,0.55,0.62,0.93,1.19,0.93c0.84,0,1.32-0.68,1.32-1.68c0-0.87-0.46-1.62-1.29-1.62
			c-0.54,0-1.04,0.39-1.2,0.98c-0.03,0.1-0.05,0.22-0.05,0.32V224H191.25z"/>
		<path class="st0" d="M197.99,225.77l-0.06-0.55h-0.03c-0.24,0.34-0.71,0.65-1.33,0.65c-0.88,0-1.33-0.62-1.33-1.25
			c0-1.05,0.93-1.63,2.62-1.62v-0.09c0-0.36-0.1-1.01-0.99-1.01c-0.4,0-0.83,0.13-1.13,0.32l-0.18-0.52
			c0.36-0.23,0.88-0.39,1.43-0.39c1.33,0,1.65,0.91,1.65,1.78v1.63c0,0.38,0.02,0.75,0.07,1.04h-0.72V225.77z M197.87,223.55
			c-0.86-0.02-1.84,0.13-1.84,0.98c0,0.51,0.34,0.75,0.75,0.75c0.57,0,0.93-0.36,1.05-0.73c0.03-0.08,0.04-0.17,0.04-0.25V223.55z"
			/>
		<path class="st0" d="M203.02,225.61c-0.21,0.11-0.67,0.25-1.25,0.25c-1.31,0-2.17-0.89-2.17-2.22c0-1.34,0.92-2.31,2.34-2.31
			c0.47,0,0.88,0.12,1.1,0.22l-0.18,0.61c-0.19-0.11-0.49-0.21-0.92-0.21c-1,0-1.54,0.74-1.54,1.64c0,1.01,0.65,1.63,1.51,1.63
			c0.45,0,0.75-0.12,0.97-0.22L203.02,225.61z"/>
		<path class="st0" d="M204.33,223.74c0.02,1.07,0.7,1.51,1.49,1.51c0.57,0,0.91-0.1,1.2-0.22l0.14,0.57
			c-0.28,0.13-0.76,0.27-1.45,0.27c-1.34,0-2.14-0.88-2.14-2.19s0.77-2.35,2.04-2.35c1.42,0,1.8,1.25,1.8,2.05
			c0,0.16-0.02,0.29-0.03,0.37h-3.05V223.74z M206.65,223.17c0.01-0.5-0.21-1.29-1.1-1.29c-0.8,0-1.15,0.74-1.21,1.29H206.65z"/>
		<path class="st0" d="M210.33,219.79c0.38-0.06,0.87-0.12,1.5-0.12c0.77,0,1.34,0.18,1.7,0.5c0.33,0.29,0.53,0.73,0.53,1.27
			c0,0.55-0.16,0.98-0.47,1.29c-0.41,0.44-1.09,0.67-1.85,0.67c-0.23,0-0.45-0.01-0.63-0.05v2.43h-0.78V219.79z M211.11,222.71
			c0.17,0.05,0.39,0.06,0.65,0.06c0.94,0,1.52-0.46,1.52-1.29c0-0.8-0.57-1.19-1.43-1.19c-0.34,0-0.6,0.03-0.74,0.06V222.71z"/>
		<path class="st0" d="M217.26,225.77l-0.06-0.55h-0.03c-0.24,0.34-0.71,0.65-1.33,0.65c-0.88,0-1.33-0.62-1.33-1.25
			c0-1.05,0.93-1.63,2.62-1.62v-0.09c0-0.36-0.1-1.01-0.99-1.01c-0.4,0-0.83,0.13-1.13,0.32l-0.18-0.52
			c0.36-0.23,0.88-0.39,1.43-0.39c1.33,0,1.65,0.91,1.65,1.78v1.63c0,0.38,0.02,0.75,0.07,1.04h-0.72V225.77z M217.14,223.55
			c-0.86-0.02-1.84,0.13-1.84,0.98c0,0.51,0.34,0.75,0.75,0.75c0.57,0,0.93-0.36,1.05-0.73c0.03-0.08,0.04-0.17,0.04-0.25
			C217.14,224.3,217.14,223.55,217.14,223.55z"/>
		<path class="st0" d="M222.82,224.58c0,0.45,0.01,0.85,0.04,1.19h-0.7l-0.04-0.71h-0.02c-0.21,0.35-0.67,0.81-1.44,0.81
			c-0.68,0-1.5-0.38-1.5-1.91v-2.54h0.79v2.41c0,0.83,0.25,1.38,0.97,1.38c0.53,0,0.9-0.37,1.04-0.72c0.04-0.12,0.07-0.26,0.07-0.4
			v-2.67h0.79V224.58z"/>
		<path class="st0" d="M224.14,219.39h0.79v6.38h-0.79V219.39z"/>
		<path class="st0" d="M228.09,223.05v0.58h-2.22v-0.58H228.09z"/>
		<path class="st0" d="M232.19,222.93h-2.35v2.18h2.62v0.66h-3.41v-6.06h3.27v0.66h-2.49v1.91h2.35v0.65H232.19z"/>
		<path class="st0" d="M237.02,224.58c0,0.45,0.01,0.85,0.04,1.19h-0.7l-0.04-0.71h-0.02c-0.21,0.35-0.67,0.81-1.44,0.81
			c-0.68,0-1.5-0.38-1.5-1.91v-2.54h0.79v2.41c0,0.83,0.25,1.38,0.97,1.38c0.53,0,0.9-0.37,1.04-0.72c0.04-0.12,0.07-0.26,0.07-0.4
			v-2.67h0.79C237.02,221.42,237.02,224.58,237.02,224.58z"/>
		<path class="st0" d="M242.08,221.42c-0.02,0.31-0.04,0.67-0.04,1.2v2.53c0,1-0.2,1.61-0.62,1.99c-0.42,0.4-1.03,0.52-1.58,0.52
			c-0.52,0-1.1-0.13-1.45-0.36l0.2-0.6c0.29,0.18,0.74,0.34,1.28,0.34c0.81,0,1.4-0.42,1.4-1.52v-0.49h-0.02
			c-0.24,0.4-0.71,0.73-1.38,0.73c-1.08,0-1.85-0.92-1.85-2.12c0-1.47,0.96-2.31,1.96-2.31c0.76,0,1.17,0.4,1.36,0.75h0.02
			l0.04-0.66L242.08,221.42L242.08,221.42z M241.27,223.14c0-0.13-0.01-0.25-0.04-0.36c-0.14-0.46-0.53-0.84-1.11-0.84
			c-0.75,0-1.29,0.64-1.29,1.64c0,0.85,0.43,1.56,1.29,1.56c0.48,0,0.93-0.31,1.1-0.81c0.04-0.13,0.06-0.29,0.06-0.42v-0.77H241.27z
			"/>
		<path class="st0" d="M243.8,223.74c0.02,1.07,0.7,1.51,1.49,1.51c0.57,0,0.91-0.1,1.2-0.22l0.13,0.57
			c-0.28,0.13-0.75,0.27-1.45,0.27c-1.34,0-2.14-0.88-2.14-2.19s0.77-2.35,2.04-2.35c1.42,0,1.8,1.25,1.8,2.05
			c0,0.16-0.02,0.29-0.03,0.37h-3.04V223.74z M246.12,223.17c0.01-0.5-0.21-1.29-1.1-1.29c-0.8,0-1.15,0.74-1.21,1.29H246.12z
			 M244.79,219.54l0.79,1.29h-0.57l-1.1-1.29H244.79z"/>
		<path class="st0" d="M247.87,222.6c0-0.45-0.01-0.82-0.04-1.18h0.7l0.04,0.72h0.02c0.22-0.41,0.72-0.82,1.44-0.82
			c0.6,0,1.54,0.36,1.54,1.85v2.6h-0.79v-2.51c0-0.7-0.26-1.29-1.01-1.29c-0.52,0-0.93,0.37-1.06,0.81
			c-0.04,0.1-0.05,0.23-0.05,0.37v2.62h-0.79C247.87,225.77,247.87,222.6,247.87,222.6z"/>
		<path class="st0" d="M253.3,223.74c0.02,1.07,0.7,1.51,1.49,1.51c0.57,0,0.91-0.1,1.21-0.22l0.13,0.57
			c-0.28,0.13-0.75,0.27-1.45,0.27c-1.34,0-2.14-0.88-2.14-2.19s0.77-2.35,2.04-2.35c1.42,0,1.8,1.25,1.8,2.05
			c0,0.16-0.02,0.29-0.03,0.37h-3.05V223.74z M255.62,223.17c0.01-0.5-0.21-1.29-1.1-1.29c-0.8,0-1.15,0.74-1.21,1.29H255.62z"/>
		<path class="st0" d="M259.45,223.05v0.58h-2.22v-0.58H259.45z"/>
		<path class="st0" d="M261.46,219.71h0.78v4.05c0,1.61-0.79,2.1-1.83,2.1c-0.29,0-0.64-0.06-0.84-0.14l0.12-0.64
			c0.16,0.06,0.4,0.12,0.66,0.12c0.7,0,1.11-0.31,1.11-1.5C261.46,223.7,261.46,219.71,261.46,219.71z"/>
		<path class="st0" d="M267.46,223.56c0,1.61-1.11,2.31-2.17,2.31c-1.18,0-2.08-0.86-2.08-2.24c0-1.46,0.95-2.31,2.16-2.31
			C266.61,221.32,267.46,222.23,267.46,223.56z M264.01,223.6c0,0.95,0.55,1.67,1.32,1.67c0.75,0,1.32-0.71,1.32-1.69
			c0-0.74-0.37-1.67-1.3-1.67C264.42,221.91,264.01,222.78,264.01,223.6z"/>
		<path class="st0" d="M268.42,225.77c0.02-0.3,0.04-0.74,0.04-1.12v-5.26h0.78v2.73h0.02c0.28-0.49,0.78-0.8,1.48-0.8
			c1.08,0,1.84,0.9,1.83,2.22c0,1.56-0.98,2.33-1.95,2.33c-0.63,0-1.13-0.24-1.46-0.82h-0.03l-0.04,0.72H268.42z M269.24,224.03
			c0,0.1,0.02,0.2,0.04,0.29c0.15,0.55,0.61,0.93,1.19,0.93c0.83,0,1.32-0.67,1.32-1.67c0-0.87-0.45-1.62-1.29-1.62
			c-0.54,0-1.04,0.37-1.2,0.97c-0.02,0.09-0.05,0.2-0.05,0.32v0.78H269.24z"/>
		<path class="st0" d="M274.46,220.2c0.01,0.27-0.19,0.49-0.5,0.49c-0.28,0-0.48-0.22-0.48-0.49c0-0.28,0.21-0.49,0.49-0.49
			C274.27,219.7,274.46,219.92,274.46,220.2z M273.58,225.77v-4.35h0.79v4.35H273.58z"/>
		<path class="st0" d="M275.68,222.6c0-0.45-0.01-0.82-0.04-1.18h0.7l0.04,0.72h0.02c0.22-0.41,0.72-0.82,1.44-0.82
			c0.6,0,1.54,0.36,1.54,1.85v2.6h-0.79v-2.51c0-0.7-0.26-1.29-1.01-1.29c-0.52,0-0.93,0.37-1.06,0.81
			c-0.04,0.1-0.05,0.23-0.05,0.37v2.62h-0.79V222.6L275.68,222.6z"/>
	</g>
</g>
<g>
	<path d="M700.9,191.94h-85.19c-1.39,0-2.51-1.13-2.51-2.51v-11.27c0-1.39,1.13-2.51,2.51-2.51h85.19c1.39,0,2.51,1.13,2.51,2.51
		v11.27C703.42,190.82,702.29,191.94,700.9,191.94z"/>
	<g>
		<path class="st0" d="M624.61,181.94h-1.84v-0.67h4.48v0.67h-1.85v5.39h-0.79V181.94z"/>
		<path class="st0" d="M627.71,185.3c0.02,1.07,0.7,1.51,1.49,1.51c0.57,0,0.91-0.1,1.2-0.22l0.14,0.57
			c-0.28,0.13-0.76,0.27-1.45,0.27c-1.34,0-2.14-0.88-2.14-2.19s0.77-2.35,2.04-2.35c1.42,0,1.8,1.25,1.8,2.05
			c0,0.16-0.02,0.29-0.03,0.37h-3.05V185.3z M630.03,184.74c0.01-0.5-0.21-1.29-1.1-1.29c-0.8,0-1.15,0.74-1.21,1.29H630.03z"/>
		<path class="st0" d="M631.77,184.34c0-0.51-0.01-0.95-0.04-1.36h0.69l0.03,0.85h0.04c0.2-0.58,0.67-0.95,1.21-0.95
			c0.09,0,0.15,0.01,0.22,0.03v0.75c-0.08-0.02-0.16-0.03-0.27-0.03c-0.56,0-0.95,0.42-1.06,1.02c-0.02,0.11-0.04,0.23-0.04,0.37
			v2.32h-0.78V184.34z"/>
		<path class="st0" d="M634.75,184.34c0-0.51-0.01-0.95-0.04-1.36h0.69l0.03,0.85h0.04c0.2-0.58,0.67-0.95,1.2-0.95
			c0.09,0,0.15,0.01,0.22,0.03v0.75c-0.08-0.02-0.16-0.03-0.27-0.03c-0.56,0-0.95,0.42-1.06,1.02c-0.02,0.11-0.04,0.23-0.04,0.37
			v2.32h-0.78v-3H634.75z"/>
		<path class="st0" d="M640.05,187.33l-0.06-0.55h-0.03c-0.24,0.34-0.71,0.65-1.33,0.65c-0.88,0-1.33-0.62-1.33-1.25
			c0-1.05,0.93-1.63,2.62-1.62v-0.09c0-0.36-0.1-1.01-0.99-1.01c-0.41,0-0.83,0.13-1.13,0.32l-0.18-0.52
			c0.36-0.23,0.88-0.39,1.43-0.39c1.33,0,1.65,0.91,1.65,1.78v1.63c0,0.38,0.02,0.75,0.07,1.04h-0.72V187.33z M639.93,185.11
			c-0.86-0.02-1.84,0.13-1.84,0.98c0,0.51,0.34,0.75,0.75,0.75c0.57,0,0.93-0.36,1.05-0.73c0.03-0.08,0.04-0.17,0.04-0.25V185.11z"
			/>
		<path class="st0" d="M641.87,186.52c0.23,0.15,0.65,0.31,1.04,0.31c0.58,0,0.84-0.29,0.84-0.65c0-0.38-0.22-0.58-0.81-0.8
			c-0.78-0.28-1.15-0.71-1.15-1.23c0-0.7,0.57-1.28,1.5-1.28c0.44,0,0.83,0.13,1.07,0.27l-0.2,0.58c-0.17-0.11-0.49-0.25-0.89-0.25
			c-0.47,0-0.73,0.27-0.73,0.59c0,0.36,0.26,0.52,0.83,0.74c0.75,0.29,1.14,0.67,1.14,1.31c0,0.76-0.59,1.3-1.63,1.3
			c-0.48,0-0.92-0.12-1.22-0.3L641.87,186.52z"/>
		<path class="st0" d="M645.43,186.52c0.23,0.15,0.65,0.31,1.04,0.31c0.58,0,0.84-0.29,0.84-0.65c0-0.38-0.22-0.58-0.81-0.8
			c-0.78-0.28-1.15-0.71-1.15-1.23c0-0.7,0.57-1.28,1.5-1.28c0.44,0,0.83,0.13,1.07,0.27l-0.2,0.58c-0.17-0.11-0.49-0.25-0.89-0.25
			c-0.47,0-0.73,0.27-0.73,0.59c0,0.36,0.26,0.52,0.83,0.74c0.75,0.29,1.14,0.67,1.14,1.31c0,0.76-0.59,1.3-1.63,1.3
			c-0.48,0-0.92-0.12-1.22-0.3L645.43,186.52z"/>
		<path class="st0" d="M649.54,185.3c0.02,1.07,0.7,1.51,1.49,1.51c0.57,0,0.91-0.1,1.2-0.22l0.14,0.57
			c-0.28,0.13-0.76,0.27-1.45,0.27c-1.34,0-2.14-0.88-2.14-2.19s0.77-2.35,2.04-2.35c1.42,0,1.8,1.25,1.8,2.05
			c0,0.16-0.02,0.29-0.03,0.37h-3.05V185.3z M651.86,184.74c0.01-0.5-0.21-1.29-1.1-1.29c-0.8,0-1.15,0.74-1.21,1.29H651.86z"/>
		<path class="st0" d="M655.4,186.52c0.23,0.15,0.65,0.31,1.04,0.31c0.58,0,0.84-0.29,0.84-0.65c0-0.38-0.22-0.58-0.81-0.8
			c-0.78-0.28-1.15-0.71-1.15-1.23c0-0.7,0.57-1.28,1.5-1.28c0.44,0,0.83,0.13,1.07,0.27l-0.2,0.58c-0.17-0.11-0.49-0.25-0.89-0.25
			c-0.47,0-0.73,0.27-0.73,0.59c0,0.36,0.26,0.52,0.83,0.74c0.75,0.29,1.14,0.67,1.14,1.31c0,0.76-0.59,1.3-1.63,1.3
			c-0.48,0-0.92-0.12-1.22-0.3L655.4,186.52z"/>
		<path class="st0" d="M662.71,186.15c0,0.45,0.01,0.85,0.04,1.19h-0.7l-0.04-0.71h-0.02c-0.21,0.35-0.67,0.81-1.44,0.81
			c-0.68,0-1.5-0.38-1.5-1.91v-2.54h0.79v2.41c0,0.83,0.25,1.38,0.97,1.38c0.53,0,0.9-0.37,1.04-0.72c0.04-0.12,0.07-0.26,0.07-0.4
			v-2.67h0.79L662.71,186.15L662.71,186.15z"/>
		<path class="st0" d="M664.02,184.34c0-0.51-0.01-0.95-0.04-1.36h0.69l0.03,0.85h0.04c0.2-0.58,0.67-0.95,1.21-0.95
			c0.09,0,0.15,0.01,0.22,0.03v0.75c-0.08-0.02-0.16-0.03-0.27-0.03c-0.56,0-0.95,0.42-1.06,1.02c-0.02,0.11-0.04,0.23-0.04,0.37
			v2.32h-0.78V184.34z"/>
		<path class="st0" d="M668.87,180.95h0.79v6.38h-0.79V180.95z"/>
		<path class="st0" d="M671.43,185.3c0.02,1.07,0.7,1.51,1.49,1.51c0.57,0,0.91-0.1,1.2-0.22l0.13,0.57
			c-0.28,0.13-0.75,0.27-1.45,0.27c-1.34,0-2.14-0.88-2.14-2.19s0.77-2.35,2.04-2.35c1.42,0,1.8,1.25,1.8,2.05
			c0,0.16-0.02,0.29-0.03,0.37h-3.04V185.3z M673.75,184.74c0.01-0.5-0.21-1.29-1.1-1.29c-0.8,0-1.15,0.74-1.21,1.29H673.75z"/>
		<path class="st0" d="M678.36,181.73v1.25h1.13v0.6h-1.13v2.35c0,0.54,0.15,0.84,0.59,0.84c0.21,0,0.36-0.03,0.46-0.05l0.04,0.59
			c-0.15,0.06-0.4,0.11-0.7,0.11c-0.37,0-0.67-0.12-0.85-0.33c-0.22-0.23-0.31-0.62-0.31-1.13v-2.37h-0.67v-0.6h0.67v-1.04
			L678.36,181.73z"/>
		<path class="st0" d="M684.26,185.12c0,1.61-1.11,2.31-2.17,2.31c-1.18,0-2.08-0.86-2.08-2.24c0-1.46,0.95-2.31,2.16-2.31
			C683.42,182.88,684.26,183.79,684.26,185.12z M680.81,185.17c0,0.95,0.55,1.67,1.32,1.67c0.75,0,1.32-0.71,1.32-1.69
			c0-0.74-0.37-1.67-1.3-1.67C681.22,183.48,680.81,184.34,680.81,185.17z"/>
		<path class="st0" d="M686.14,181.76c0.01,0.27-0.19,0.49-0.5,0.49c-0.28,0-0.48-0.22-0.48-0.49c0-0.28,0.21-0.49,0.49-0.49
			C685.95,181.27,686.14,181.48,686.14,181.76z M685.26,187.33v-4.35h0.79v4.35H685.26z"/>
		<path class="st0" d="M688.32,181.73v1.25h1.13v0.6h-1.13v2.35c0,0.54,0.15,0.84,0.59,0.84c0.21,0,0.36-0.03,0.46-0.05l0.04,0.59
			c-0.15,0.06-0.4,0.11-0.7,0.11c-0.37,0-0.67-0.12-0.85-0.33c-0.22-0.23-0.31-0.62-0.31-1.13v-2.37h-0.67v-0.6h0.67v-1.04
			L688.32,181.73z"/>
	</g>
</g>
<g>
	<path d="M612.34,480.52H515.5c-1.39,0-2.51-1.13-2.51-2.51v-21.2c0-1.39,1.13-2.51,2.51-2.51h96.84c1.39,0,2.51,1.13,2.51,2.51
		v21.2C614.85,479.4,613.73,480.52,612.34,480.52z"/>
	<g>
		<path class="st0" d="M520.56,464.45c-0.29,0.14-0.86,0.29-1.6,0.29c-1.71,0-2.99-1.08-2.99-3.06c0-1.9,1.29-3.18,3.16-3.18
			c0.75,0,1.23,0.16,1.44,0.27l-0.19,0.64c-0.3-0.14-0.72-0.25-1.22-0.25c-1.42,0-2.36,0.91-2.36,2.5c0,1.48,0.85,2.44,2.33,2.44
			c0.48,0,0.96-0.1,1.28-0.25L520.56,464.45z"/>
		<path class="st0" d="M523.86,464.65l-0.06-0.55h-0.03c-0.24,0.34-0.71,0.65-1.33,0.65c-0.88,0-1.33-0.62-1.33-1.25
			c0-1.05,0.93-1.63,2.62-1.62v-0.09c0-0.36-0.1-1.01-0.99-1.01c-0.4,0-0.83,0.13-1.13,0.32l-0.18-0.52
			c0.36-0.23,0.88-0.39,1.43-0.39c1.33,0,1.65,0.91,1.65,1.78v1.63c0,0.38,0.02,0.75,0.07,1.04h-0.72V464.65z M523.74,462.43
			c-0.86-0.02-1.84,0.13-1.84,0.98c0,0.51,0.34,0.75,0.75,0.75c0.57,0,0.93-0.36,1.05-0.73c0.03-0.08,0.04-0.17,0.04-0.25V462.43z"
			/>
		<path class="st0" d="M525.79,461.66c0-0.51-0.01-0.95-0.04-1.36h0.69l0.03,0.85h0.04c0.2-0.58,0.67-0.95,1.2-0.95
			c0.09,0,0.15,0.01,0.22,0.03v0.75c-0.08-0.02-0.16-0.03-0.27-0.03c-0.56,0-0.95,0.42-1.06,1.02c-0.02,0.11-0.04,0.23-0.04,0.37
			v2.32h-0.78v-3H525.79z"/>
		<path class="st0" d="M528.76,461.66c0-0.51-0.01-0.95-0.04-1.36h0.69l0.03,0.85h0.04c0.2-0.58,0.67-0.95,1.2-0.95
			c0.09,0,0.15,0.01,0.22,0.03v0.75c-0.08-0.02-0.16-0.03-0.27-0.03c-0.56,0-0.95,0.42-1.06,1.02c-0.02,0.11-0.04,0.23-0.04,0.37
			v2.32h-0.78v-3H528.76z"/>
		<path class="st0" d="M532.05,462.62c0.02,1.07,0.7,1.51,1.49,1.51c0.57,0,0.91-0.1,1.2-0.22l0.14,0.57
			c-0.28,0.13-0.76,0.27-1.45,0.27c-1.34,0-2.14-0.88-2.14-2.19s0.77-2.35,2.04-2.35c1.42,0,1.8,1.25,1.8,2.05
			c0,0.16-0.02,0.29-0.03,0.37h-3.05V462.62z M534.37,462.05c0.01-0.5-0.21-1.29-1.1-1.29c-0.8,0-1.15,0.74-1.21,1.29H534.37z"/>
		<path class="st0" d="M536.2,464.65v-3.75h-0.61v-0.6h0.61v-0.21c0-0.61,0.13-1.17,0.5-1.52c0.3-0.29,0.69-0.4,1.06-0.4
			c0.28,0,0.52,0.06,0.67,0.13l-0.11,0.61c-0.12-0.05-0.28-0.1-0.5-0.1c-0.67,0-0.84,0.59-0.84,1.26v0.23h1.05v0.6h-1.05v3.75
			L536.2,464.65L536.2,464.65z"/>
		<path class="st0" d="M542.56,462.44c0,1.61-1.11,2.31-2.17,2.31c-1.18,0-2.09-0.86-2.09-2.24c0-1.46,0.95-2.31,2.16-2.31
			C541.72,460.2,542.56,461.11,542.56,462.44z M539.11,462.49c0,0.95,0.55,1.67,1.32,1.67c0.75,0,1.32-0.71,1.32-1.69
			c0-0.74-0.37-1.67-1.3-1.67S539.11,461.66,539.11,462.49z"/>
		<path class="st0" d="M547.2,463.46c0,0.45,0.01,0.84,0.04,1.19h-0.7l-0.04-0.71h-0.02c-0.21,0.35-0.67,0.81-1.44,0.81
			c-0.68,0-1.5-0.38-1.5-1.91v-2.54h0.79v2.41c0,0.83,0.25,1.38,0.97,1.38c0.53,0,0.9-0.37,1.04-0.72c0.04-0.12,0.07-0.26,0.07-0.4
			v-2.67h0.79L547.2,463.46L547.2,463.46z"/>
		<path class="st0" d="M548.52,461.66c0-0.51-0.01-0.95-0.04-1.36h0.69l0.03,0.85h0.04c0.2-0.58,0.67-0.95,1.2-0.95
			c0.09,0,0.15,0.01,0.22,0.03v0.75c-0.08-0.02-0.16-0.03-0.27-0.03c-0.56,0-0.95,0.42-1.06,1.02c-0.02,0.11-0.04,0.23-0.04,0.37
			v2.32h-0.78v-3H548.52z"/>
		<path class="st0" d="M557.12,458.27v5.26c0,0.39,0.01,0.83,0.04,1.12h-0.71l-0.04-0.75h-0.02c-0.24,0.49-0.77,0.85-1.48,0.85
			c-1.05,0-1.86-0.89-1.86-2.21c-0.01-1.45,0.89-2.34,1.95-2.34c0.67,0,1.11,0.31,1.31,0.67h0.02v-2.6L557.12,458.27L557.12,458.27z
			 M556.33,462.07c0-0.1-0.01-0.23-0.04-0.33c-0.12-0.5-0.55-0.92-1.14-0.92c-0.82,0-1.3,0.72-1.3,1.68c0,0.88,0.43,1.61,1.29,1.61
			c0.53,0,1.02-0.35,1.16-0.94c0.03-0.11,0.04-0.22,0.04-0.34v-0.76H556.33z"/>
		<path class="st0" d="M558.88,462.62c0.02,1.07,0.7,1.51,1.49,1.51c0.57,0,0.91-0.1,1.2-0.22l0.14,0.57
			c-0.28,0.13-0.76,0.27-1.45,0.27c-1.34,0-2.14-0.88-2.14-2.19s0.77-2.35,2.04-2.35c1.42,0,1.8,1.25,1.8,2.05
			c0,0.16-0.02,0.29-0.03,0.37h-3.05V462.62z M561.19,462.05c0.01-0.5-0.21-1.29-1.1-1.29c-0.8,0-1.15,0.74-1.21,1.29H561.19z"/>
		<path class="st0" d="M564.85,458.27h0.79v6.38h-0.79V458.27z"/>
		<path class="st0" d="M568.02,458.5c-0.21,0.75-0.59,1.72-0.84,2.13l-0.5,0.06c0.2-0.53,0.43-1.46,0.53-2.11L568.02,458.5z"/>
		<path class="st0" d="M569.41,459.08c0.01,0.27-0.19,0.49-0.5,0.49c-0.28,0-0.48-0.22-0.48-0.49c0-0.28,0.21-0.49,0.49-0.49
			C569.23,458.58,569.41,458.8,569.41,459.08z M568.53,464.65v-4.35h0.79v4.35H568.53z"/>
		<path class="st0" d="M570.64,461.48c0-0.45-0.01-0.82-0.04-1.18h0.7l0.04,0.72h0.02c0.22-0.41,0.72-0.82,1.44-0.82
			c0.6,0,1.54,0.36,1.54,1.85v2.6h-0.79v-2.51c0-0.7-0.26-1.29-1.01-1.29c-0.52,0-0.93,0.37-1.06,0.81
			c-0.04,0.1-0.05,0.23-0.05,0.37v2.62h-0.79V461.48z"/>
		<path class="st0" d="M575.71,464.65v-3.75h-0.61v-0.6h0.61v-0.21c0-0.61,0.13-1.17,0.5-1.52c0.3-0.29,0.69-0.4,1.06-0.4
			c0.28,0,0.52,0.06,0.67,0.13l-0.11,0.61c-0.12-0.05-0.28-0.1-0.5-0.1c-0.67,0-0.84,0.59-0.84,1.26v0.23h1.05v0.6h-1.05v3.75
			L575.71,464.65L575.71,464.65z"/>
		<path class="st0" d="M582.07,462.44c0,1.61-1.11,2.31-2.17,2.31c-1.18,0-2.09-0.86-2.09-2.24c0-1.46,0.95-2.31,2.16-2.31
			C581.23,460.2,582.07,461.11,582.07,462.44z M578.62,462.49c0,0.95,0.55,1.67,1.32,1.67c0.75,0,1.32-0.71,1.32-1.69
			c0-0.74-0.37-1.67-1.3-1.67S578.62,461.66,578.62,462.49z"/>
		<path class="st0" d="M583.07,461.66c0-0.51-0.01-0.95-0.04-1.36h0.69l0.03,0.85h0.04c0.2-0.58,0.67-0.95,1.2-0.95
			c0.09,0,0.15,0.01,0.22,0.03v0.75c-0.08-0.02-0.16-0.03-0.27-0.03c-0.56,0-0.95,0.42-1.06,1.02c-0.02,0.11-0.04,0.23-0.04,0.37
			v2.32h-0.78v-3H583.07z"/>
		<path class="st0" d="M586.05,461.48c0-0.45-0.01-0.82-0.04-1.18h0.69l0.04,0.7h0.03c0.24-0.41,0.65-0.8,1.37-0.8
			c0.59,0,1.04,0.36,1.23,0.87h0.02c0.13-0.24,0.31-0.43,0.49-0.57c0.26-0.2,0.55-0.31,0.96-0.31c0.58,0,1.43,0.38,1.43,1.89v2.56
			h-0.77v-2.46c0-0.84-0.31-1.34-0.94-1.34c-0.45,0-0.8,0.33-0.93,0.72c-0.04,0.11-0.06,0.25-0.06,0.4v2.69h-0.77v-2.61
			c0-0.69-0.31-1.2-0.91-1.2c-0.49,0-0.85,0.4-0.98,0.79c-0.04,0.12-0.06,0.25-0.06,0.39v2.63h-0.77v-3.17H586.05z"/>
		<path class="st0" d="M595.96,464.65l-0.06-0.55h-0.03c-0.24,0.34-0.71,0.65-1.33,0.65c-0.88,0-1.33-0.62-1.33-1.25
			c0-1.05,0.93-1.63,2.62-1.62v-0.09c0-0.36-0.1-1.01-0.99-1.01c-0.4,0-0.83,0.13-1.13,0.32l-0.18-0.52
			c0.36-0.23,0.88-0.39,1.43-0.39c1.33,0,1.65,0.91,1.65,1.78v1.63c0,0.38,0.02,0.75,0.07,1.04h-0.72V464.65z M595.84,462.43
			c-0.86-0.02-1.84,0.13-1.84,0.98c0,0.51,0.34,0.75,0.75,0.75c0.57,0,0.93-0.36,1.05-0.73c0.03-0.08,0.04-0.17,0.04-0.25V462.43z"
			/>
		<path class="st0" d="M598.8,459.05v1.25h1.13v0.6h-1.13v2.35c0,0.54,0.15,0.84,0.59,0.84c0.21,0,0.36-0.03,0.46-0.05l0.04,0.59
			c-0.15,0.06-0.4,0.11-0.7,0.11c-0.37,0-0.67-0.12-0.85-0.33c-0.23-0.23-0.31-0.62-0.31-1.13v-2.37h-0.67v-0.6h0.67v-1.04
			L598.8,459.05z"/>
		<path class="st0" d="M601.7,459.08c0.01,0.27-0.19,0.49-0.5,0.49c-0.28,0-0.48-0.22-0.48-0.49c0-0.28,0.21-0.49,0.49-0.49
			C601.51,458.58,601.7,458.8,601.7,459.08z M600.82,464.65v-4.35h0.79v4.35H600.82z"/>
		<path class="st0" d="M606.86,462.44c0,1.61-1.11,2.31-2.17,2.31c-1.18,0-2.09-0.86-2.09-2.24c0-1.46,0.95-2.31,2.16-2.31
			C606.02,460.2,606.86,461.11,606.86,462.44z M603.41,462.49c0,0.95,0.55,1.67,1.32,1.67c0.75,0,1.32-0.71,1.32-1.69
			c0-0.74-0.37-1.67-1.3-1.67C603.82,460.8,603.41,461.66,603.41,462.49z"/>
		<path class="st0" d="M607.86,461.48c0-0.45-0.01-0.82-0.04-1.18h0.7l0.04,0.72h0.02c0.22-0.41,0.72-0.82,1.44-0.82
			c0.6,0,1.54,0.36,1.54,1.85v2.6h-0.79v-2.51c0-0.7-0.26-1.29-1.01-1.29c-0.52,0-0.93,0.37-1.06,0.81
			c-0.04,0.1-0.05,0.23-0.05,0.37v2.62h-0.79V461.48z"/>
		<path class="st0" d="M539.49,469.2c-0.66,0.88-1.13,2.05-1.13,3.68c0,1.6,0.49,2.75,1.13,3.65h-0.62
			c-0.57-0.75-1.18-1.9-1.18-3.65c0.01-1.77,0.61-2.92,1.18-3.68H539.49z"/>
		<path class="st0" d="M540.29,475.44c0.02-0.3,0.04-0.74,0.04-1.12v-5.26h0.78v2.73h0.02c0.28-0.49,0.78-0.8,1.48-0.8
			c1.08,0,1.84,0.9,1.83,2.22c0,1.56-0.98,2.33-1.95,2.33c-0.63,0-1.13-0.24-1.46-0.82H541l-0.04,0.72L540.29,475.44L540.29,475.44z
			 M541.11,473.7c0,0.1,0.02,0.2,0.04,0.29c0.15,0.55,0.61,0.93,1.19,0.93c0.83,0,1.32-0.67,1.32-1.67c0-0.87-0.45-1.62-1.29-1.62
			c-0.54,0-1.04,0.37-1.2,0.97c-0.02,0.09-0.04,0.2-0.04,0.32v0.78H541.11z"/>
		<path class="st0" d="M546.33,469.87c0.01,0.27-0.19,0.49-0.5,0.49c-0.28,0-0.48-0.22-0.48-0.49c0-0.28,0.21-0.49,0.49-0.49
			C546.14,469.38,546.33,469.59,546.33,469.87z M545.45,475.44v-4.35h0.79v4.35H545.45z"/>
		<path class="st0" d="M547.51,475.44c0.02-0.3,0.04-0.74,0.04-1.12v-5.26h0.78v2.73h0.02c0.28-0.49,0.78-0.8,1.48-0.8
			c1.08,0,1.84,0.9,1.83,2.22c0,1.56-0.98,2.33-1.95,2.33c-0.63,0-1.13-0.24-1.46-0.82h-0.03l-0.04,0.72L547.51,475.44
			L547.51,475.44z M548.33,473.7c0,0.1,0.02,0.2,0.04,0.29c0.15,0.55,0.61,0.93,1.19,0.93c0.83,0,1.32-0.67,1.32-1.67
			c0-0.87-0.45-1.62-1.29-1.62c-0.54,0-1.04,0.37-1.2,0.97c-0.02,0.09-0.04,0.2-0.04,0.32v0.78H548.33z"/>
		<path class="st0" d="M552.67,469.06h0.79v6.38h-0.79V469.06z"/>
		<path class="st0" d="M555.67,469.87c0.01,0.27-0.19,0.49-0.5,0.49c-0.28,0-0.48-0.22-0.48-0.49c0-0.28,0.21-0.49,0.49-0.49
			C555.48,469.38,555.67,469.59,555.67,469.87z M554.79,475.44v-4.35h0.79v4.35H554.79z"/>
		<path class="st0" d="M560.83,473.23c0,1.61-1.11,2.31-2.17,2.31c-1.18,0-2.09-0.86-2.09-2.24c0-1.46,0.95-2.31,2.16-2.31
			C559.98,470.99,560.83,471.9,560.83,473.23z M557.38,473.28c0,0.95,0.55,1.67,1.32,1.67c0.75,0,1.32-0.71,1.32-1.69
			c0-0.74-0.37-1.67-1.3-1.67S557.38,472.45,557.38,473.28z"/>
		<path class="st0" d="M562.78,469.84v1.25h1.13v0.6h-1.13v2.35c0,0.54,0.15,0.84,0.59,0.84c0.21,0,0.36-0.03,0.46-0.05l0.04,0.59
			c-0.15,0.06-0.4,0.11-0.7,0.11c-0.37,0-0.67-0.12-0.85-0.33c-0.23-0.23-0.31-0.62-0.31-1.13v-2.37h-0.67v-0.6h0.67v-1.04
			L562.78,469.84z"/>
		<path class="st0" d="M564.81,469.06h0.79v2.71h0.02c0.13-0.22,0.32-0.42,0.57-0.56c0.23-0.13,0.51-0.22,0.81-0.22
			c0.58,0,1.52,0.36,1.52,1.86v2.59h-0.79v-2.5c0-0.7-0.26-1.29-1.01-1.29c-0.51,0-0.92,0.36-1.06,0.79
			c-0.04,0.11-0.05,0.22-0.05,0.38v2.63h-0.79v-6.39H564.81z"/>
		<path class="st0" d="M570.24,473.41c0.02,1.07,0.7,1.51,1.49,1.51c0.57,0,0.91-0.1,1.2-0.22l0.14,0.57
			c-0.28,0.13-0.76,0.27-1.45,0.27c-1.34,0-2.14-0.88-2.14-2.19s0.77-2.35,2.04-2.35c1.42,0,1.8,1.25,1.8,2.05
			c0,0.16-0.02,0.29-0.03,0.37h-3.05V473.41z M572.55,472.84c0.01-0.5-0.21-1.29-1.1-1.29c-0.8,0-1.15,0.74-1.21,1.29H572.55z
			 M571.22,469.21l0.79,1.29h-0.57l-1.1-1.29H571.22z"/>
		<path class="st0" d="M577.27,474.77h-0.02c-0.23,0.43-0.72,0.77-1.42,0.77c-1.02,0-1.84-0.88-1.84-2.2c0-1.63,1.05-2.35,1.97-2.35
			c0.67,0,1.12,0.33,1.34,0.75h0.02l0.03-0.66h0.75c-0.02,0.37-0.03,0.75-0.03,1.2v4.93h-0.79v-2.44H577.27z M577.27,472.85
			c0-0.11-0.01-0.23-0.04-0.33c-0.12-0.49-0.54-0.9-1.13-0.9c-0.82,0-1.31,0.69-1.31,1.67c0,0.86,0.41,1.62,1.29,1.62
			c0.51,0,0.95-0.31,1.13-0.86c0.04-0.11,0.06-0.26,0.06-0.38V472.85z"/>
		<path class="st0" d="M583,474.25c0,0.45,0.01,0.84,0.04,1.19h-0.7l-0.04-0.71h-0.02c-0.21,0.35-0.67,0.81-1.44,0.81
			c-0.68,0-1.5-0.38-1.5-1.91v-2.54h0.79v2.41c0,0.83,0.25,1.38,0.97,1.38c0.53,0,0.9-0.37,1.04-0.72c0.04-0.12,0.07-0.26,0.07-0.4
			v-2.67H583V474.25z"/>
		<path class="st0" d="M584.76,473.41c0.02,1.07,0.7,1.51,1.49,1.51c0.57,0,0.91-0.1,1.2-0.22l0.14,0.57
			c-0.28,0.13-0.76,0.27-1.45,0.27c-1.34,0-2.14-0.88-2.14-2.19s0.77-2.35,2.04-2.35c1.42,0,1.8,1.25,1.8,2.05
			c0,0.16-0.02,0.29-0.03,0.37h-3.05V473.41z M587.08,472.84c0.01-0.5-0.21-1.29-1.1-1.29c-0.8,0-1.15,0.74-1.21,1.29H587.08z"/>
		<path class="st0" d="M588.35,476.53c0.64-0.89,1.13-2.06,1.13-3.68c0-1.61-0.49-2.76-1.13-3.65h0.61
			c0.58,0.74,1.18,1.89,1.18,3.66c0,1.76-0.6,2.9-1.18,3.67L588.35,476.53L588.35,476.53z"/>
	</g>
</g>
<g>
	<path d="M461.32,472.65h-58.29c-1.39,0-2.51-1.13-2.51-2.51v-11.27c0-1.39,1.13-2.51,2.51-2.51h58.29c1.39,0,2.51,1.13,2.51,2.51
		v11.27C463.84,471.52,462.71,472.65,461.32,472.65z"/>
	<g>
		<path class="st0" d="M414.41,461.08h0.78v5.4h2.59v0.66h-3.37V461.08z"/>
		<path class="st0" d="M421.03,467.14l-0.06-0.55h-0.03c-0.24,0.34-0.71,0.65-1.33,0.65c-0.88,0-1.33-0.62-1.33-1.25
			c0-1.05,0.93-1.63,2.62-1.62v-0.09c0-0.36-0.1-1.01-0.99-1.01c-0.4,0-0.83,0.13-1.13,0.32l-0.18-0.52
			c0.36-0.23,0.88-0.39,1.43-0.39c1.33,0,1.65,0.91,1.65,1.78v1.63c0,0.38,0.02,0.75,0.07,1.04h-0.72V467.14z M420.92,464.92
			c-0.86-0.02-1.84,0.13-1.84,0.98c0,0.51,0.34,0.75,0.75,0.75c0.57,0,0.93-0.36,1.05-0.73c0.03-0.08,0.04-0.17,0.04-0.25V464.92z"
			/>
		<path class="st0" d="M429.5,466.87c-0.35,0.13-1.04,0.33-1.86,0.33c-0.92,0-1.67-0.23-2.26-0.8c-0.52-0.5-0.84-1.31-0.84-2.26
			c0.01-1.81,1.25-3.13,3.28-3.13c0.7,0,1.25,0.15,1.51,0.28l-0.19,0.64c-0.32-0.14-0.73-0.26-1.34-0.26
			c-1.47,0-2.44,0.92-2.44,2.44c0,1.54,0.93,2.44,2.34,2.44c0.51,0,0.86-0.07,1.04-0.16v-1.81h-1.23v-0.63h2v2.92H429.5z"/>
		<path class="st0" d="M433.15,467.14l-0.06-0.55h-0.03c-0.24,0.34-0.71,0.65-1.33,0.65c-0.88,0-1.33-0.62-1.33-1.25
			c0-1.05,0.93-1.63,2.62-1.62v-0.09c0-0.36-0.1-1.01-0.99-1.01c-0.4,0-0.83,0.13-1.13,0.32l-0.18-0.52
			c0.36-0.23,0.88-0.39,1.43-0.39c1.33,0,1.65,0.91,1.65,1.78v1.63c0,0.38,0.02,0.75,0.07,1.04h-0.72V467.14z M433.04,464.92
			c-0.86-0.02-1.84,0.13-1.84,0.98c0,0.51,0.34,0.75,0.75,0.75c0.57,0,0.93-0.36,1.05-0.73c0.03-0.08,0.04-0.17,0.04-0.25V464.92z"
			/>
		<path class="st0" d="M435.08,460.76h0.79v6.38h-0.79V460.76z"/>
		<path class="st0" d="M437.64,465.11c0.02,1.07,0.7,1.51,1.49,1.51c0.57,0,0.91-0.1,1.2-0.22l0.14,0.57
			c-0.28,0.13-0.76,0.27-1.45,0.27c-1.34,0-2.14-0.88-2.14-2.19s0.77-2.35,2.04-2.35c1.42,0,1.8,1.25,1.8,2.05
			c0,0.16-0.02,0.29-0.03,0.37h-3.05V465.11z M439.96,464.54c0.01-0.5-0.21-1.29-1.1-1.29c-0.8,0-1.15,0.74-1.21,1.29H439.96z"/>
		<path class="st0" d="M441.71,464.15c0-0.51-0.01-0.95-0.04-1.36h0.69l0.03,0.85h0.04c0.2-0.58,0.67-0.95,1.2-0.95
			c0.09,0,0.15,0.01,0.22,0.03v0.75c-0.08-0.02-0.16-0.03-0.27-0.03c-0.56,0-0.95,0.42-1.06,1.02c-0.02,0.11-0.04,0.23-0.04,0.37
			v2.32h-0.78v-3H441.71z"/>
		<path class="st0" d="M445.56,461.57c0.01,0.27-0.19,0.49-0.5,0.49c-0.28,0-0.48-0.22-0.48-0.49c0-0.28,0.21-0.49,0.49-0.49
			C445.37,461.07,445.56,461.29,445.56,461.57z M444.68,467.14v-4.35h0.79v4.35H444.68z"/>
		<path class="st0" d="M447.23,465.11c0.02,1.07,0.7,1.51,1.49,1.51c0.57,0,0.91-0.1,1.2-0.22l0.14,0.57
			c-0.28,0.13-0.76,0.27-1.45,0.27c-1.34,0-2.14-0.88-2.14-2.19s0.77-2.35,2.04-2.35c1.42,0,1.8,1.25,1.8,2.05
			c0,0.16-0.02,0.29-0.03,0.37h-3.05V465.11z M449.55,464.54c0.01-0.5-0.21-1.29-1.1-1.29c-0.8,0-1.15,0.74-1.21,1.29H449.55z"/>
	</g>
</g>
<g>
	<path d="M604.21,529.19h-62.55c-1.39,0-2.51-1.13-2.51-2.51v-20.15c0-1.39,1.13-2.51,2.51-2.51h62.55c1.39,0,2.51,1.13,2.51,2.51
		v20.15C606.72,528.06,605.6,529.19,604.21,529.19z"/>
	<g>
		<path class="st0" d="M553.02,513.64c-0.29,0.14-0.86,0.29-1.6,0.29c-1.71,0-2.99-1.08-2.99-3.06c0-1.9,1.29-3.18,3.16-3.18
			c0.75,0,1.23,0.16,1.44,0.27l-0.19,0.64c-0.3-0.14-0.72-0.25-1.22-0.25c-1.42,0-2.36,0.91-2.36,2.5c0,1.48,0.85,2.44,2.33,2.44
			c0.48,0,0.96-0.1,1.28-0.25L553.02,513.64z"/>
		<path class="st0" d="M554.32,511.81c0.02,1.07,0.7,1.51,1.49,1.51c0.57,0,0.91-0.1,1.2-0.22l0.14,0.57
			c-0.28,0.13-0.76,0.27-1.45,0.27c-1.34,0-2.14-0.88-2.14-2.19s0.77-2.35,2.04-2.35c1.42,0,1.8,1.25,1.8,2.05
			c0,0.16-0.02,0.29-0.03,0.37h-3.05V511.81z M556.64,511.25c0.01-0.5-0.21-1.29-1.1-1.29c-0.8,0-1.15,0.74-1.21,1.29H556.64z"/>
		<path class="st0" d="M558.38,510.67c0-0.45-0.01-0.82-0.04-1.18h0.7l0.04,0.72h0.02c0.22-0.41,0.72-0.82,1.44-0.82
			c0.6,0,1.54,0.36,1.54,1.85v2.6h-0.79v-2.51c0-0.7-0.26-1.29-1.01-1.29c-0.52,0-0.93,0.37-1.06,0.81
			c-0.04,0.1-0.05,0.23-0.05,0.37v2.62h-0.79V510.67z"/>
		<path class="st0" d="M564.29,508.24v1.25h1.13v0.6h-1.13v2.35c0,0.54,0.15,0.84,0.59,0.84c0.21,0,0.36-0.03,0.46-0.05l0.04,0.59
			c-0.15,0.06-0.4,0.11-0.7,0.11c-0.37,0-0.67-0.12-0.85-0.33c-0.23-0.23-0.31-0.62-0.31-1.13v-2.37h-0.67v-0.6h0.67v-1.04
			L564.29,508.24z"/>
		<path class="st0" d="M566.31,510.85c0-0.51-0.01-0.95-0.04-1.36h0.69l0.03,0.85h0.04c0.2-0.58,0.67-0.95,1.2-0.95
			c0.09,0,0.15,0.01,0.22,0.03v0.75c-0.08-0.02-0.16-0.03-0.27-0.03c-0.56,0-0.95,0.42-1.06,1.02c-0.02,0.11-0.04,0.23-0.04,0.37
			v2.32h-0.78v-3H566.31z"/>
		<path class="st0" d="M569.6,511.81c0.02,1.07,0.7,1.51,1.49,1.51c0.57,0,0.91-0.1,1.2-0.22l0.14,0.57
			c-0.28,0.13-0.76,0.27-1.45,0.27c-1.34,0-2.14-0.88-2.14-2.19s0.77-2.35,2.04-2.35c1.42,0,1.8,1.25,1.8,2.05
			c0,0.16-0.02,0.29-0.03,0.37h-3.05V511.81z M571.92,511.25c0.01-0.5-0.21-1.29-1.1-1.29c-0.8,0-1.15,0.74-1.21,1.29H571.92z"/>
		<path class="st0" d="M579.33,507.46v5.26c0,0.39,0.01,0.83,0.04,1.12h-0.71l-0.04-0.75h-0.02c-0.24,0.49-0.77,0.85-1.48,0.85
			c-1.05,0-1.86-0.89-1.86-2.21c-0.01-1.45,0.89-2.34,1.95-2.34c0.67,0,1.11,0.31,1.31,0.67h0.02v-2.6L579.33,507.46L579.33,507.46z
			 M578.54,511.26c0-0.1-0.01-0.23-0.04-0.33c-0.12-0.5-0.55-0.92-1.14-0.92c-0.82,0-1.3,0.72-1.3,1.68c0,0.88,0.43,1.61,1.29,1.61
			c0.53,0,1.02-0.35,1.16-0.94c0.03-0.11,0.04-0.22,0.04-0.34v-0.76H578.54z"/>
		<path class="st0" d="M581.7,507.69c-0.21,0.75-0.59,1.72-0.84,2.13l-0.5,0.06c0.2-0.53,0.43-1.46,0.53-2.11L581.7,507.69z"/>
		<path class="st0" d="M584.81,513.84l-0.06-0.55h-0.03c-0.24,0.34-0.71,0.65-1.33,0.65c-0.88,0-1.33-0.62-1.33-1.25
			c0-1.05,0.93-1.63,2.62-1.62v-0.09c0-0.36-0.1-1.01-0.99-1.01c-0.4,0-0.83,0.13-1.13,0.32l-0.18-0.52
			c0.36-0.23,0.88-0.39,1.43-0.39c1.33,0,1.65,0.91,1.65,1.78v1.63c0,0.38,0.02,0.75,0.07,1.04h-0.72V513.84z M584.69,511.62
			c-0.86-0.02-1.84,0.13-1.84,0.98c0,0.51,0.34,0.75,0.75,0.75c0.57,0,0.93-0.36,1.05-0.73c0.03-0.08,0.04-0.17,0.04-0.25V511.62z"
			/>
		<path class="st0" d="M587.61,508.27c0.01,0.27-0.19,0.49-0.5,0.49c-0.28,0-0.48-0.22-0.48-0.49c0-0.28,0.21-0.49,0.49-0.49
			C587.42,507.78,587.61,507.99,587.61,508.27z M586.73,513.84v-4.35h0.79v4.35H586.73z"/>
		<path class="st0" d="M592.59,507.46v5.26c0,0.39,0.01,0.83,0.04,1.12h-0.71l-0.04-0.75h-0.02c-0.24,0.49-0.77,0.85-1.48,0.85
			c-1.05,0-1.86-0.89-1.86-2.21c-0.01-1.45,0.89-2.34,1.95-2.34c0.67,0,1.11,0.31,1.31,0.67h0.02v-2.6L592.59,507.46L592.59,507.46z
			 M591.8,511.26c0-0.1-0.01-0.23-0.04-0.33c-0.12-0.5-0.55-0.92-1.14-0.92c-0.82,0-1.3,0.72-1.3,1.68c0,0.88,0.43,1.61,1.29,1.61
			c0.53,0,1.02-0.35,1.16-0.94c0.03-0.11,0.04-0.22,0.04-0.34v-0.76H591.8z"/>
		<path class="st0" d="M594.35,511.81c0.02,1.07,0.7,1.51,1.49,1.51c0.57,0,0.91-0.1,1.2-0.22l0.14,0.57
			c-0.28,0.13-0.76,0.27-1.45,0.27c-1.34,0-2.14-0.88-2.14-2.19s0.77-2.35,2.04-2.35c1.42,0,1.8,1.25,1.8,2.05
			c0,0.16-0.02,0.29-0.03,0.37h-3.05V511.81z M596.67,511.25c0.01-0.5-0.21-1.29-1.1-1.29c-0.8,0-1.15,0.74-1.21,1.29H596.67z"/>
		<path class="st0" d="M554.21,524.63l-0.06-0.55h-0.03c-0.24,0.34-0.71,0.65-1.33,0.65c-0.88,0-1.33-0.62-1.33-1.25
			c0-1.05,0.93-1.63,2.62-1.62v-0.09c0-0.36-0.1-1.01-0.99-1.01c-0.4,0-0.83,0.13-1.13,0.32l-0.18-0.52
			c0.36-0.23,0.88-0.39,1.43-0.39c1.33,0,1.65,0.91,1.65,1.78v1.63c0,0.38,0.02,0.75,0.07,1.04h-0.72V524.63z M552.87,518.4
			l0.78,1.29h-0.56l-1.1-1.29H552.87z M554.1,522.41c-0.86-0.02-1.84,0.13-1.84,0.98c0,0.51,0.34,0.75,0.75,0.75
			c0.57,0,0.93-0.36,1.05-0.73c0.03-0.08,0.04-0.17,0.04-0.25V522.41z"/>
		<path class="st0" d="M558.04,518.25h0.79v6.38h-0.79V518.25z"/>
		<path class="st0" d="M562.58,524.63l-0.06-0.55h-0.03c-0.24,0.34-0.71,0.65-1.33,0.65c-0.88,0-1.33-0.62-1.33-1.25
			c0-1.05,0.93-1.63,2.62-1.62v-0.09c0-0.36-0.1-1.01-0.99-1.01c-0.4,0-0.83,0.13-1.13,0.32l-0.18-0.52
			c0.36-0.23,0.88-0.39,1.43-0.39c1.33,0,1.65,0.91,1.65,1.78v1.63c0,0.38,0.02,0.75,0.07,1.04h-0.72V524.63z M562.46,522.41
			c-0.86-0.02-1.84,0.13-1.84,0.98c0,0.51,0.34,0.75,0.75,0.75c0.57,0,0.93-0.36,1.05-0.73c0.03-0.08,0.04-0.17,0.04-0.25V522.41z"
			/>
		<path class="st0" d="M566.41,521.64c0-0.51-0.01-0.95-0.04-1.36h0.69l0.03,0.85h0.04c0.2-0.58,0.67-0.95,1.2-0.95
			c0.09,0,0.15,0.01,0.22,0.03v0.75c-0.08-0.02-0.16-0.03-0.27-0.03c-0.56,0-0.95,0.42-1.06,1.02c-0.02,0.11-0.04,0.23-0.04,0.37
			v2.32h-0.78v-3H566.41z"/>
		<path class="st0" d="M569.7,522.6c0.02,1.07,0.7,1.51,1.49,1.51c0.57,0,0.91-0.1,1.2-0.22l0.14,0.57
			c-0.28,0.13-0.76,0.27-1.45,0.27c-1.34,0-2.14-0.88-2.14-2.19s0.77-2.35,2.04-2.35c1.42,0,1.8,1.25,1.8,2.05
			c0,0.16-0.02,0.29-0.03,0.37h-3.05V522.6z M572.02,522.04c0.01-0.5-0.21-1.29-1.1-1.29c-0.8,0-1.15,0.74-1.21,1.29H572.02z
			 M572.21,518.4l-1.1,1.29h-0.57l0.79-1.29H572.21z"/>
		<path class="st0" d="M577.4,523.45c0,0.45,0.01,0.84,0.04,1.19h-0.7l-0.04-0.71h-0.02c-0.21,0.35-0.67,0.81-1.44,0.81
			c-0.68,0-1.5-0.38-1.5-1.91v-2.54h0.79v2.41c0,0.83,0.25,1.38,0.97,1.38c0.53,0,0.9-0.37,1.04-0.72c0.04-0.12,0.07-0.26,0.07-0.4
			v-2.67h0.79V523.45L577.4,523.45z"/>
		<path class="st0" d="M578.61,523.82c0.23,0.15,0.65,0.32,1.04,0.32c0.58,0,0.84-0.29,0.84-0.65c0-0.38-0.22-0.58-0.81-0.8
			c-0.78-0.28-1.15-0.71-1.15-1.23c0-0.7,0.57-1.28,1.5-1.28c0.44,0,0.83,0.13,1.07,0.27l-0.2,0.58c-0.17-0.11-0.49-0.25-0.89-0.25
			c-0.47,0-0.73,0.27-0.73,0.59c0,0.36,0.26,0.52,0.83,0.74c0.75,0.29,1.14,0.67,1.14,1.31c0,0.76-0.59,1.3-1.63,1.3
			c-0.48,0-0.92-0.12-1.22-0.3L578.61,523.82z"/>
		<path class="st0" d="M582.17,523.82c0.23,0.15,0.65,0.32,1.04,0.32c0.58,0,0.84-0.29,0.84-0.65c0-0.38-0.22-0.58-0.81-0.8
			c-0.78-0.28-1.15-0.71-1.15-1.23c0-0.7,0.57-1.28,1.5-1.28c0.44,0,0.83,0.13,1.07,0.27l-0.2,0.58c-0.17-0.11-0.49-0.25-0.89-0.25
			c-0.47,0-0.73,0.27-0.73,0.59c0,0.36,0.26,0.52,0.83,0.74c0.75,0.29,1.14,0.67,1.14,1.31c0,0.76-0.59,1.3-1.63,1.3
			c-0.48,0-0.92-0.12-1.22-0.3L582.17,523.82z"/>
		<path class="st0" d="M586.72,519.06c0.01,0.27-0.19,0.49-0.5,0.49c-0.28,0-0.48-0.22-0.48-0.49c0-0.28,0.21-0.49,0.49-0.49
			C586.53,518.57,586.72,518.78,586.72,519.06z M585.84,524.63v-4.35h0.79v4.35H585.84z"/>
		<path class="st0" d="M588.9,519.03v1.25h1.13v0.6h-1.13v2.35c0,0.54,0.15,0.84,0.59,0.84c0.21,0,0.36-0.03,0.46-0.05l0.04,0.59
			c-0.15,0.06-0.4,0.11-0.7,0.11c-0.37,0-0.67-0.12-0.85-0.33c-0.23-0.23-0.31-0.62-0.31-1.13v-2.37h-0.67v-0.6h0.67v-1.04
			L588.9,519.03z"/>
		<path class="st0" d="M591.31,522.6c0.02,1.07,0.7,1.51,1.49,1.51c0.57,0,0.91-0.1,1.2-0.22l0.14,0.57
			c-0.28,0.13-0.76,0.27-1.45,0.27c-1.34,0-2.14-0.88-2.14-2.19s0.77-2.35,2.04-2.35c1.42,0,1.8,1.25,1.8,2.05
			c0,0.16-0.02,0.29-0.03,0.37h-3.05V522.6z M593.62,522.04c0.01-0.5-0.21-1.29-1.1-1.29c-0.8,0-1.15,0.74-1.21,1.29H593.62z"/>
	</g>
</g>
<g>
	<path d="M638.74,240.24h-55.15c-1.39,0-2.51-1.13-2.51-2.51v-20.15c0-1.39,1.13-2.51,2.51-2.51h55.15c1.39,0,2.51,1.13,2.51,2.51
		v20.15C641.25,239.11,640.13,240.24,638.74,240.24z"/>
	<g>
		<path class="st0" d="M601.32,223.94c0.35,0.22,0.86,0.4,1.4,0.4c0.8,0,1.27-0.42,1.27-1.03c0-0.57-0.32-0.89-1.14-1.2
			c-0.99-0.35-1.6-0.86-1.6-1.72c0-0.94,0.78-1.64,1.96-1.64c0.62,0,1.07,0.14,1.34,0.3l-0.22,0.64c-0.2-0.11-0.6-0.29-1.15-0.29
			c-0.83,0-1.14,0.49-1.14,0.91c0,0.57,0.37,0.84,1.2,1.17c1.02,0.4,1.55,0.89,1.55,1.78c0,0.94-0.69,1.74-2.12,1.74
			c-0.58,0-1.22-0.17-1.55-0.39L601.32,223.94z"/>
		<path class="st0" d="M608.27,224.89l-0.06-0.55h-0.03c-0.24,0.34-0.71,0.65-1.33,0.65c-0.88,0-1.33-0.62-1.33-1.25
			c0-1.05,0.93-1.63,2.62-1.62v-0.09c0-0.36-0.1-1.01-0.99-1.01c-0.4,0-0.83,0.13-1.13,0.32l-0.18-0.52
			c0.36-0.23,0.88-0.39,1.43-0.39c1.33,0,1.65,0.91,1.65,1.78v1.63c0,0.38,0.02,0.75,0.07,1.04h-0.72V224.89z M608.15,222.67
			c-0.86-0.02-1.84,0.13-1.84,0.98c0,0.51,0.34,0.75,0.75,0.75c0.57,0,0.93-0.36,1.05-0.73c0.03-0.08,0.04-0.17,0.04-0.25V222.67z"
			/>
		<path class="st0" d="M610.2,218.51h0.79v6.38h-0.79V218.51z"/>
		<path class="st0" d="M616.25,222.68c0,1.61-1.11,2.31-2.17,2.31c-1.18,0-2.09-0.86-2.09-2.24c0-1.46,0.95-2.31,2.16-2.31
			C615.41,220.45,616.25,221.35,616.25,222.68z M612.8,222.73c0,0.95,0.55,1.67,1.32,1.67c0.75,0,1.32-0.71,1.32-1.69
			c0-0.74-0.37-1.67-1.3-1.67S612.8,221.9,612.8,222.73z"/>
		<path class="st0" d="M617.25,221.72c0-0.45-0.01-0.82-0.04-1.18h0.7l0.04,0.72h0.02c0.22-0.41,0.72-0.82,1.44-0.82
			c0.6,0,1.54,0.36,1.54,1.85v2.6h-0.79v-2.51c0-0.7-0.26-1.29-1.01-1.29c-0.52,0-0.93,0.37-1.06,0.81
			c-0.04,0.1-0.05,0.23-0.05,0.37v2.62h-0.79V221.72z"/>
		<path class="st0" d="M590.78,229.3v5.26c0,0.39,0.01,0.83,0.04,1.12h-0.71l-0.04-0.75h-0.02c-0.24,0.49-0.77,0.85-1.48,0.85
			c-1.05,0-1.86-0.89-1.86-2.21c-0.01-1.45,0.89-2.34,1.95-2.34c0.67,0,1.11,0.31,1.31,0.67h0.02v-2.6L590.78,229.3L590.78,229.3z
			 M589.99,233.1c0-0.1-0.01-0.23-0.04-0.33c-0.12-0.5-0.55-0.92-1.14-0.92c-0.82,0-1.3,0.72-1.3,1.68c0,0.88,0.43,1.61,1.29,1.61
			c0.53,0,1.02-0.35,1.16-0.94c0.03-0.11,0.04-0.22,0.04-0.34v-0.76H589.99z"/>
		<path class="st0" d="M595.73,234.5c0,0.45,0.01,0.85,0.04,1.19h-0.7l-0.04-0.71h-0.02c-0.21,0.35-0.67,0.81-1.44,0.81
			c-0.68,0-1.5-0.38-1.5-1.91v-2.54h0.79v2.41c0,0.83,0.25,1.38,0.97,1.38c0.53,0,0.9-0.37,1.04-0.72c0.04-0.12,0.07-0.26,0.07-0.4
			v-2.67h0.79L595.73,234.5L595.73,234.5z"/>
		<path class="st0" d="M598.96,232.75c0-0.56-0.02-1.01-0.04-1.42h0.71l0.04,0.75h0.02c0.32-0.53,0.84-0.84,1.55-0.84
			c1.05,0,1.84,0.89,1.84,2.21c0,1.56-0.95,2.34-1.98,2.34c-0.58,0-1.08-0.25-1.34-0.68h-0.02v2.36h-0.78V232.75L598.96,232.75z
			 M599.74,233.91c0,0.12,0.02,0.22,0.04,0.32c0.14,0.55,0.62,0.93,1.19,0.93c0.84,0,1.32-0.68,1.32-1.68
			c0-0.87-0.46-1.62-1.29-1.62c-0.54,0-1.04,0.39-1.2,0.98c-0.03,0.1-0.05,0.22-0.05,0.32v0.75H599.74z"/>
		<path class="st0" d="M604.51,233.65c0.02,1.07,0.7,1.51,1.49,1.51c0.57,0,0.91-0.1,1.2-0.22l0.14,0.57
			c-0.28,0.13-0.76,0.27-1.45,0.27c-1.34,0-2.14-0.88-2.14-2.19s0.77-2.35,2.04-2.35c1.42,0,1.8,1.25,1.8,2.05
			c0,0.16-0.02,0.29-0.03,0.37h-3.05V233.65z M606.83,233.09c0.01-0.5-0.21-1.29-1.1-1.29c-0.8,0-1.15,0.74-1.21,1.29H606.83z"/>
		<path class="st0" d="M608.58,232.69c0-0.51-0.01-0.95-0.04-1.36h0.69l0.03,0.85h0.04c0.2-0.58,0.67-0.95,1.2-0.95
			c0.09,0,0.15,0.01,0.22,0.03v0.75c-0.08-0.02-0.16-0.03-0.27-0.03c-0.56,0-0.95,0.42-1.06,1.02c-0.02,0.11-0.04,0.23-0.04,0.37
			v2.32h-0.78v-3H608.58z"/>
		<path class="st0" d="M611.41,234.88c0.23,0.15,0.65,0.31,1.04,0.31c0.58,0,0.84-0.29,0.84-0.65c0-0.38-0.22-0.58-0.81-0.8
			c-0.78-0.28-1.15-0.71-1.15-1.23c0-0.7,0.57-1.28,1.5-1.28c0.44,0,0.83,0.13,1.07,0.27l-0.2,0.58c-0.17-0.11-0.49-0.25-0.89-0.25
			c-0.47,0-0.73,0.27-0.73,0.59c0,0.36,0.26,0.52,0.83,0.74c0.75,0.29,1.14,0.67,1.14,1.31c0,0.76-0.59,1.3-1.63,1.3
			c-0.48,0-0.92-0.12-1.22-0.3L611.41,234.88z"/>
		<path class="st0" d="M619.01,233.47c0,1.61-1.11,2.31-2.17,2.31c-1.18,0-2.09-0.86-2.09-2.24c0-1.46,0.95-2.31,2.16-2.31
			C618.17,231.24,619.01,232.14,619.01,233.47z M615.56,233.52c0,0.95,0.55,1.67,1.32,1.67c0.75,0,1.32-0.71,1.32-1.69
			c0-0.74-0.37-1.67-1.3-1.67S615.56,232.69,615.56,233.52z"/>
		<path class="st0" d="M620.01,232.51c0-0.45-0.01-0.82-0.04-1.18h0.7l0.04,0.72h0.02c0.22-0.41,0.72-0.82,1.44-0.82
			c0.6,0,1.54,0.36,1.54,1.85v2.6h-0.79v-2.51c0-0.7-0.26-1.29-1.01-1.29c-0.52,0-0.93,0.37-1.06,0.81
			c-0.04,0.1-0.05,0.23-0.05,0.37v2.62h-0.79V232.51z"/>
		<path class="st0" d="M625,232.51c0-0.45-0.01-0.82-0.04-1.18h0.7l0.04,0.72h0.02c0.22-0.41,0.72-0.82,1.44-0.82
			c0.6,0,1.54,0.36,1.54,1.85v2.6h-0.79v-2.51c0-0.7-0.26-1.29-1.01-1.29c-0.52,0-0.93,0.37-1.06,0.81
			c-0.04,0.1-0.05,0.23-0.05,0.37v2.62H625V232.51z"/>
		<path class="st0" d="M630.44,233.65c0.02,1.07,0.7,1.51,1.49,1.51c0.57,0,0.91-0.1,1.2-0.22l0.13,0.57
			c-0.28,0.13-0.75,0.27-1.45,0.27c-1.34,0-2.14-0.88-2.14-2.19s0.77-2.35,2.04-2.35c1.42,0,1.8,1.25,1.8,2.05
			c0,0.16-0.02,0.29-0.03,0.37h-3.04V233.65z M632.75,233.09c0.01-0.5-0.21-1.29-1.1-1.29c-0.8,0-1.15,0.74-1.21,1.29H632.75z"/>
		<path class="st0" d="M634.5,229.3h0.79v6.38h-0.79V229.3z"/>
	</g>
</g>
<g>
	<path d="M590.2,300.22h-46.96c-1.39,0-2.51-1.13-2.51-2.51v-20.15c0-1.39,1.13-2.51,2.51-2.51h46.96c1.39,0,2.51,1.13,2.51,2.51
		v20.15C592.72,299.09,591.59,300.22,590.2,300.22z"/>
	<g>
		<path class="st0" d="M554.02,284.67c-0.29,0.14-0.86,0.29-1.6,0.29c-1.71,0-2.99-1.08-2.99-3.06c0-1.9,1.29-3.18,3.16-3.18
			c0.75,0,1.23,0.16,1.44,0.27l-0.19,0.64c-0.3-0.14-0.72-0.25-1.22-0.25c-1.42,0-2.36,0.91-2.36,2.5c0,1.48,0.85,2.44,2.33,2.44
			c0.48,0,0.96-0.1,1.28-0.25L554.02,284.67z"/>
		<path class="st0" d="M554.98,278.49h0.79v6.38h-0.79V278.49z"/>
		<path class="st0" d="M559.51,284.87l-0.06-0.55h-0.03c-0.24,0.34-0.71,0.65-1.33,0.65c-0.88,0-1.33-0.62-1.33-1.25
			c0-1.05,0.93-1.63,2.62-1.62v-0.09c0-0.36-0.1-1.01-0.99-1.01c-0.4,0-0.83,0.13-1.13,0.32l-0.18-0.52
			c0.36-0.23,0.88-0.39,1.43-0.39c1.33,0,1.65,0.91,1.65,1.78v1.63c0,0.38,0.02,0.75,0.07,1.04h-0.72V284.87z M559.39,282.65
			c-0.86-0.02-1.84,0.13-1.84,0.98c0,0.51,0.34,0.75,0.75,0.75c0.57,0,0.93-0.36,1.05-0.73c0.03-0.08,0.04-0.17,0.04-0.25V282.65z"
			/>
		<path class="st0" d="M561.33,284.06c0.23,0.15,0.65,0.31,1.04,0.31c0.58,0,0.84-0.29,0.84-0.65c0-0.38-0.22-0.58-0.81-0.8
			c-0.78-0.28-1.15-0.71-1.15-1.23c0-0.7,0.57-1.28,1.5-1.28c0.44,0,0.83,0.13,1.07,0.27l-0.2,0.58c-0.17-0.11-0.49-0.25-0.89-0.25
			c-0.47,0-0.73,0.27-0.73,0.59c0,0.36,0.26,0.52,0.83,0.74c0.75,0.29,1.14,0.67,1.14,1.31c0,0.76-0.59,1.3-1.63,1.3
			c-0.48,0-0.92-0.12-1.22-0.3L561.33,284.06z"/>
		<path class="st0" d="M564.89,284.06c0.23,0.15,0.65,0.31,1.04,0.31c0.58,0,0.84-0.29,0.84-0.65c0-0.38-0.22-0.58-0.81-0.8
			c-0.78-0.28-1.15-0.71-1.15-1.23c0-0.7,0.57-1.28,1.5-1.28c0.44,0,0.83,0.13,1.07,0.27l-0.2,0.58c-0.17-0.11-0.49-0.25-0.89-0.25
			c-0.47,0-0.73,0.27-0.73,0.59c0,0.36,0.26,0.52,0.83,0.74c0.75,0.29,1.14,0.67,1.14,1.31c0,0.76-0.59,1.3-1.63,1.3
			c-0.48,0-0.92-0.12-1.22-0.3L564.89,284.06z"/>
		<path class="st0" d="M569,282.84c0.02,1.07,0.7,1.51,1.49,1.51c0.57,0,0.91-0.1,1.2-0.22l0.14,0.57
			c-0.28,0.13-0.76,0.27-1.45,0.27c-1.34,0-2.14-0.88-2.14-2.19s0.77-2.35,2.04-2.35c1.42,0,1.8,1.25,1.8,2.05
			c0,0.16-0.02,0.29-0.03,0.37H569V282.84z M571.31,282.27c0.01-0.5-0.21-1.29-1.1-1.29c-0.8,0-1.15,0.74-1.21,1.29H571.31z"/>
		<path class="st0" d="M578.72,278.49v5.26c0,0.39,0.01,0.83,0.04,1.12h-0.71l-0.04-0.75H578c-0.24,0.49-0.77,0.85-1.48,0.85
			c-1.05,0-1.86-0.89-1.86-2.21c-0.01-1.45,0.89-2.34,1.95-2.34c0.67,0,1.11,0.31,1.31,0.67h0.02v-2.6L578.72,278.49L578.72,278.49z
			 M577.93,282.29c0-0.1-0.01-0.23-0.04-0.33c-0.12-0.5-0.55-0.92-1.14-0.92c-0.82,0-1.3,0.72-1.3,1.68c0,0.88,0.43,1.61,1.29,1.61
			c0.53,0,1.02-0.35,1.16-0.94c0.03-0.11,0.04-0.22,0.04-0.34v-0.76H577.93z"/>
		<path class="st0" d="M583.68,283.69c0,0.45,0.01,0.85,0.04,1.19h-0.7l-0.04-0.71h-0.02c-0.21,0.35-0.67,0.81-1.44,0.81
			c-0.68,0-1.5-0.38-1.5-1.91v-2.54h0.79v2.41c0,0.83,0.25,1.38,0.97,1.38c0.53,0,0.9-0.37,1.04-0.72c0.04-0.12,0.07-0.26,0.07-0.4
			v-2.67h0.79L583.68,283.69L583.68,283.69z"/>
		<path class="st0" d="M548.9,295.66v-0.49l0.62-0.6c1.49-1.42,2.17-2.17,2.18-3.06c0-0.59-0.29-1.14-1.16-1.14
			c-0.53,0-0.97,0.27-1.24,0.49l-0.25-0.56c0.4-0.34,0.98-0.59,1.65-0.59c1.26,0,1.79,0.86,1.79,1.7c0,1.08-0.78,1.95-2.01,3.14
			l-0.47,0.43V295h2.62v0.66H548.9z"/>
		<path class="st0" d="M555.23,290.56h-0.02l-1.02,0.55l-0.15-0.6l1.28-0.68h0.67v5.84h-0.76L555.23,290.56L555.23,290.56z"/>
		<path class="st0" d="M558.81,293.63c0.02,1.07,0.7,1.51,1.49,1.51c0.57,0,0.91-0.1,1.2-0.22l0.14,0.57
			c-0.28,0.13-0.76,0.27-1.45,0.27c-1.34,0-2.14-0.88-2.14-2.19s0.77-2.35,2.04-2.35c1.42,0,1.8,1.25,1.8,2.05
			c0,0.16-0.02,0.29-0.03,0.37h-3.05V293.63z M561.13,293.06c0.01-0.5-0.21-1.29-1.1-1.29c-0.8,0-1.15,0.74-1.21,1.29H561.13z"/>
		<path class="st0" d="M564.68,294.85c0.23,0.15,0.65,0.31,1.04,0.31c0.58,0,0.84-0.29,0.84-0.65c0-0.38-0.22-0.58-0.81-0.8
			c-0.78-0.28-1.15-0.71-1.15-1.23c0-0.7,0.57-1.28,1.5-1.28c0.44,0,0.83,0.13,1.07,0.27l-0.2,0.58c-0.17-0.11-0.49-0.25-0.89-0.25
			c-0.47,0-0.73,0.27-0.73,0.59c0,0.36,0.26,0.52,0.83,0.74c0.75,0.29,1.14,0.67,1.14,1.31c0,0.76-0.59,1.3-1.63,1.3
			c-0.48,0-0.92-0.12-1.22-0.3L564.68,294.85z"/>
		<path class="st0" d="M569.23,290.09c0.01,0.27-0.19,0.49-0.5,0.49c-0.28,0-0.48-0.22-0.48-0.49c0-0.28,0.21-0.49,0.49-0.49
			C569.04,289.6,569.23,289.81,569.23,290.09z M568.34,295.66v-4.35h0.79v4.35H568.34z"/>
		<path class="st0" d="M570.89,293.63c0.02,1.07,0.7,1.51,1.49,1.51c0.57,0,0.91-0.1,1.2-0.22l0.14,0.57
			c-0.28,0.13-0.76,0.27-1.45,0.27c-1.34,0-2.14-0.88-2.14-2.19s0.77-2.35,2.04-2.35c1.42,0,1.8,1.25,1.8,2.05
			c0,0.16-0.02,0.29-0.03,0.37h-3.05V293.63z M573.21,293.06c0.01-0.5-0.21-1.29-1.1-1.29c-0.8,0-1.15,0.74-1.21,1.29H573.21z
			 M571.88,289.43l0.79,1.29h-0.57l-1.1-1.29H571.88z"/>
		<path class="st0" d="M578.05,295.5c-0.21,0.11-0.67,0.25-1.25,0.25c-1.31,0-2.17-0.89-2.17-2.22c0-1.34,0.92-2.31,2.34-2.31
			c0.47,0,0.88,0.12,1.1,0.22l-0.18,0.61c-0.19-0.11-0.48-0.21-0.92-0.21c-1,0-1.54,0.74-1.54,1.64c0,1.01,0.65,1.63,1.51,1.63
			c0.45,0,0.75-0.12,0.97-0.22L578.05,295.5z"/>
		<path class="st0" d="M578.98,289.28h0.79v6.38h-0.79V289.28z"/>
		<path class="st0" d="M581.54,293.63c0.02,1.07,0.7,1.51,1.49,1.51c0.57,0,0.91-0.1,1.2-0.22l0.14,0.57
			c-0.28,0.13-0.76,0.27-1.45,0.27c-1.34,0-2.14-0.88-2.14-2.19s0.77-2.35,2.04-2.35c1.42,0,1.8,1.25,1.8,2.05
			c0,0.16-0.02,0.29-0.03,0.37h-3.05V293.63z M583.86,293.06c0.01-0.5-0.21-1.29-1.1-1.29c-0.8,0-1.15,0.74-1.21,1.29H583.86z"/>
	</g>
</g>
<g>
	<path d="M456.52,535.74h-41.54c-1.39,0-2.51-1.13-2.51-2.51v-4.78c0-1.39,1.13-2.51,2.51-2.51h41.54c1.39,0,2.51,1.13,2.51,2.51
		v4.78C459.03,534.62,457.91,535.74,456.52,535.74z"/>
	<g>
		<path class="st0" d="M427.78,528.94h-1.11v-0.4h2.7v0.4h-1.12v3.25h-0.48v-3.25H427.78z"/>
		<path class="st0" d="M429.64,530.96c0.01,0.64,0.42,0.91,0.9,0.91c0.34,0,0.55-0.06,0.73-0.14l0.08,0.34
			c-0.17,0.08-0.46,0.16-0.87,0.16c-0.81,0-1.29-0.53-1.29-1.32s0.47-1.41,1.23-1.41c0.86,0,1.08,0.75,1.08,1.24
			c0,0.1-0.01,0.17-0.02,0.22L429.64,530.96L429.64,530.96z M431.04,530.62c0.01-0.3-0.13-0.77-0.66-0.77
			c-0.48,0-0.69,0.44-0.73,0.77H431.04z"/>
		<path class="st0" d="M432.08,530.38c0-0.31-0.01-0.57-0.02-0.82h0.42l0.02,0.51h0.02c0.12-0.35,0.41-0.57,0.73-0.57
			c0.05,0,0.09,0.01,0.14,0.02v0.45c-0.05-0.01-0.1-0.02-0.16-0.02c-0.34,0-0.57,0.25-0.64,0.61c-0.01,0.07-0.02,0.14-0.02,0.22v1.4
			h-0.47v-1.8H432.08z"/>
		<path class="st0" d="M433.88,530.38c0-0.31-0.01-0.57-0.02-0.82h0.42l0.02,0.51h0.02c0.12-0.35,0.41-0.57,0.73-0.57
			c0.05,0,0.09,0.01,0.14,0.02v0.45c-0.05-0.01-0.1-0.02-0.16-0.02c-0.34,0-0.57,0.25-0.64,0.61c-0.01,0.07-0.02,0.14-0.02,0.22v1.4
			h-0.47v-1.8H433.88z"/>
		<path class="st0" d="M437.07,532.19l-0.04-0.33h-0.02c-0.15,0.21-0.43,0.39-0.8,0.39c-0.53,0-0.8-0.37-0.8-0.75
			c0-0.63,0.56-0.98,1.58-0.98v-0.05c0-0.22-0.06-0.61-0.6-0.61c-0.24,0-0.5,0.08-0.68,0.19l-0.11-0.31
			c0.22-0.14,0.53-0.23,0.86-0.23c0.8,0,1,0.55,1,1.07v0.98c0,0.23,0.01,0.45,0.04,0.63L437.07,532.19L437.07,532.19z M437,530.85
			c-0.52-0.01-1.11,0.08-1.11,0.59c0,0.31,0.21,0.46,0.45,0.46c0.34,0,0.56-0.22,0.63-0.44c0.02-0.05,0.03-0.1,0.03-0.15L437,530.85
			L437,530.85z"/>
		<path class="st0" d="M438.16,531.7c0.14,0.09,0.39,0.19,0.63,0.19c0.35,0,0.51-0.17,0.51-0.39c0-0.23-0.14-0.35-0.49-0.48
			c-0.47-0.17-0.69-0.43-0.69-0.74c0-0.42,0.34-0.77,0.9-0.77c0.27,0,0.5,0.08,0.64,0.16l-0.12,0.35c-0.1-0.06-0.29-0.15-0.54-0.15
			c-0.28,0-0.44,0.16-0.44,0.36c0,0.22,0.16,0.31,0.5,0.44c0.46,0.17,0.69,0.4,0.69,0.79c0,0.46-0.36,0.79-0.98,0.79
			c-0.29,0-0.55-0.07-0.74-0.18L438.16,531.7z"/>
		<path class="st0" d="M440.31,531.7c0.14,0.09,0.39,0.19,0.63,0.19c0.35,0,0.51-0.17,0.51-0.39c0-0.23-0.14-0.35-0.49-0.48
			c-0.47-0.17-0.69-0.43-0.69-0.74c0-0.42,0.34-0.77,0.9-0.77c0.27,0,0.5,0.08,0.64,0.16l-0.12,0.35c-0.1-0.06-0.29-0.15-0.54-0.15
			c-0.28,0-0.44,0.16-0.44,0.36c0,0.22,0.16,0.31,0.5,0.44c0.46,0.17,0.69,0.4,0.69,0.79c0,0.46-0.36,0.79-0.98,0.79
			c-0.29,0-0.55-0.07-0.74-0.18L440.31,531.7z"/>
		<path class="st0" d="M442.78,530.96c0.01,0.64,0.42,0.91,0.9,0.91c0.34,0,0.55-0.06,0.73-0.14l0.08,0.34
			c-0.17,0.08-0.46,0.16-0.87,0.16c-0.81,0-1.29-0.53-1.29-1.32s0.47-1.41,1.23-1.41c0.86,0,1.08,0.75,1.08,1.24
			c0,0.1-0.01,0.17-0.02,0.22L442.78,530.96L442.78,530.96z M444.18,530.62c0.01-0.3-0.13-0.77-0.66-0.77
			c-0.48,0-0.69,0.44-0.73,0.77H444.18z"/>
	</g>
</g>
</svg>
