<?xml version="1.0" encoding="utf-8"?>
<!-- Generator: Adobe Illustrator 19.0.1, SVG Export Plug-In . SVG Version: 6.00 Build 0)  -->
<svg version="1.1" id="Calque_9" xmlns="http://www.w3.org/2000/svg" xmlns:xlink="http://www.w3.org/1999/xlink" x="0px" y="0px"
	 width="983px" height="1010px" viewBox="186 -109 983 1010" style="enable-background:new 186 -109 983 1010;"
	 xml:space="preserve">
<style type="text/css">
	.st0{fill:#1D1D1B;}
	.st1{fill:#FFFFFF;}
	.st2{fill:#D74641;}
</style>
<g id="Icones">
	<g>
		<path class="st0" d="M949.84,759.22h-7.59c-1.03,0-1.87-0.84-1.87-1.87v-7.59c0-1.03,0.84-1.87,1.87-1.87h7.59
			c1.03,0,1.87,0.84,1.87,1.87v7.59C951.71,758.38,950.87,759.22,949.84,759.22z"/>
		<g>
			<circle class="st1" cx="946.04" cy="749.64" r="0.78"/>
			<path class="st1" d="M948.15,753.47l-0.67-2.2c-0.13-0.39-0.52-0.7-1.08-0.7h-0.72c-0.57,0-0.96,0.31-1.08,0.7l-0.67,2.2
				c-0.14,0.47,0.41,0.64,0.55,0.2l0.71-2.01h0.08c0,0-0.93,3.6-0.97,3.73c-0.02,0.07,0.01,0.12,0.08,0.12c0.04,0,0.8,0,0.8,0v2.36
				c0,0.48,0.72,0.48,0.72,0v-2.38h0.28v2.38c0,0.48,0.72,0.48,0.72,0v-2.36c0,0,0.76,0,0.8,0c0.07,0,0.1-0.05,0.08-0.12
				c-0.04-0.13-0.97-3.73-0.97-3.73h0.08l0.7,2.01C947.74,754.11,948.29,753.94,948.15,753.47z"/>
		</g>
	</g>
	<g>
		<path class="st0" d="M958.79,773.73h-7.59c-1.03,0-1.87-0.84-1.87-1.87v-7.59c0-1.03,0.84-1.87,1.87-1.87h7.59
			c1.03,0,1.87,0.84,1.87,1.87v7.59C960.66,772.89,959.82,773.73,958.79,773.73z"/>
		<g>
			<circle class="st1" cx="954.99" cy="764.11" r="0.79"/>
			<path class="st1" d="M955.84,765.05h-0.85h-0.85c-0.76,0-1.01,0.2-1.01,1.02v2.42c0,0.47,0.63,0.47,0.63,0l0.05-2.21h0.16v6.05
				c0,0.63,0.86,0.61,0.86,0l0.05-3.51h0.17l0.05,3.51c0,0.61,0.86,0.63,0.86,0v-6.05h0.16l0.05,2.21c0,0.47,0.63,0.47,0.63,0v-2.42
				C956.84,765.24,956.6,765.05,955.84,765.05z"/>
		</g>
	</g>
	<g>
		<path class="st0" d="M991.72,826.26h-7.59c-1.03,0-1.87-0.84-1.87-1.87v-7.59c0-1.03,0.84-1.87,1.87-1.87h7.59
			c1.03,0,1.87,0.84,1.87,1.87v7.59C993.59,825.42,992.75,826.26,991.72,826.26z"/>
		<polygon class="st1" points="987.92,816.89 987.92,819.36 985.83,819.36 985.83,821.82 983.74,821.82 983.74,824.29 
			987.92,824.29 987.92,821.82 990.01,821.82 990.01,819.36 992.09,819.36 992.09,816.89 		"/>
	</g>
	<g>
		<path class="st0" d="M899.06,605.14h-7.59c-1.03,0-1.87-0.84-1.87-1.87v-7.59c0-1.03,0.84-1.87,1.87-1.87h7.59
			c1.03,0,1.87,0.84,1.87,1.87v7.59C900.93,604.3,900.09,605.14,899.06,605.14z"/>
		<polygon class="st1" points="895.26,595.77 895.26,598.24 893.17,598.24 893.17,600.7 891.08,600.7 891.08,603.17 895.26,603.17 
			895.26,600.7 897.35,600.7 897.35,598.24 899.43,598.24 899.43,595.77 		"/>
	</g>
	<g>
		<path class="st0" d="M901.89,693h-7.59c-1.03,0-1.87-0.84-1.87-1.87v-7.59c0-1.03,0.84-1.87,1.87-1.87h7.59
			c1.03,0,1.87,0.84,1.87,1.87v7.59C903.76,692.16,902.92,693,901.89,693z"/>
		<polygon class="st1" points="898.09,683.64 898.09,686.1 896,686.1 896,688.57 893.92,688.57 893.92,691.03 898.09,691.03 
			898.09,688.57 900.18,688.57 900.18,686.1 902.27,686.1 902.27,683.64 		"/>
	</g>
	<g>
		<path class="st0" d="M875.5,411.57h-7.59c-1.03,0-1.87-0.84-1.87-1.87v-7.59c0-1.03,0.84-1.87,1.87-1.87h7.59
			c1.03,0,1.87,0.84,1.87,1.87v7.59C877.37,410.73,876.53,411.57,875.5,411.57z"/>
		<polygon class="st1" points="871.7,402.2 871.7,404.66 869.62,404.66 869.62,407.13 867.53,407.13 867.53,409.59 871.7,409.59 
			871.7,407.13 873.79,407.13 873.79,404.66 875.88,404.66 875.88,402.2 		"/>
	</g>
	<g>
		<path class="st0" d="M807.36,302.72h-7.59c-1.03,0-1.87-0.84-1.87-1.87v-7.59c0-1.03,0.84-1.87,1.87-1.87h7.59
			c1.03,0,1.87,0.84,1.87,1.87v7.59C809.23,301.88,808.39,302.72,807.36,302.72z"/>
		<polygon class="st1" points="803.56,293.35 803.56,295.82 801.47,295.82 801.47,298.28 799.38,298.28 799.38,300.75 
			803.56,300.75 803.56,298.28 805.65,298.28 805.65,295.82 807.73,295.82 807.73,293.35 		"/>
	</g>
	<g>
		<path class="st0" d="M839.19,283.41h-7.59c-1.03,0-1.87-0.84-1.87-1.87v-7.59c0-1.03,0.84-1.87,1.87-1.87h7.59
			c1.03,0,1.87,0.84,1.87,1.87v7.59C841.07,282.57,840.23,283.41,839.19,283.41z"/>
		<polygon class="st1" points="835.4,274.05 835.4,276.51 833.31,276.51 833.31,278.98 831.22,278.98 831.22,281.44 835.4,281.44 
			835.4,278.98 837.48,278.98 837.48,276.51 839.57,276.51 839.57,274.05 		"/>
	</g>
	<g>
		<path class="st0" d="M472.49,53.97h-7.59c-1.03,0-1.87-0.84-1.87-1.87v-7.59c0-1.03,0.84-1.87,1.87-1.87h7.59
			c1.03,0,1.87,0.84,1.87,1.87v7.59C474.36,53.13,473.52,53.97,472.49,53.97z"/>
		<polygon class="st1" points="468.69,44.61 468.69,47.07 466.6,47.07 466.6,49.54 464.52,49.54 464.52,52 468.69,52 468.69,49.54 
			470.78,49.54 470.78,47.07 472.87,47.07 472.87,44.61 		"/>
	</g>
	<g>
		<path class="st0" d="M308.73,161.15h-7.59c-1.03,0-1.87-0.84-1.87-1.87v-7.59c0-1.03,0.84-1.87,1.87-1.87h7.59
			c1.03,0,1.87,0.84,1.87,1.87v7.59C310.6,160.31,309.76,161.15,308.73,161.15z"/>
		<polygon class="st1" points="304.93,151.79 304.93,154.25 302.84,154.25 302.84,156.71 300.75,156.71 300.75,159.18 
			304.93,159.18 304.93,156.71 307.02,156.71 307.02,154.25 309.1,154.25 309.1,151.79 		"/>
	</g>
	<g>
		<path class="st0" d="M316.81,205.12h-7.59c-1.03,0-1.87-0.84-1.87-1.87v-7.59c0-1.03,0.84-1.87,1.87-1.87h7.59
			c1.03,0,1.87,0.84,1.87,1.87v7.59C318.68,204.28,317.85,205.12,316.81,205.12z"/>
		<polygon class="st1" points="313.02,195.75 313.02,198.22 310.93,198.22 310.93,200.68 308.84,200.68 308.84,203.15 
			313.02,203.15 313.02,200.68 315.1,200.68 315.1,198.22 317.19,198.22 317.19,195.75 		"/>
	</g>
	<g>
		<path class="st0" d="M365.25,293.92h-7.59c-1.03,0-1.87-0.84-1.87-1.87v-7.59c0-1.03,0.84-1.87,1.87-1.87h7.59
			c1.03,0,1.87,0.84,1.87,1.87v7.59C367.13,293.08,366.29,293.92,365.25,293.92z"/>
		<polygon class="st1" points="361.46,284.55 361.46,287.02 359.37,287.02 359.37,289.48 357.28,289.48 357.28,291.95 
			361.46,291.95 361.46,289.48 363.54,289.48 363.54,287.02 365.63,287.02 365.63,284.55 		"/>
	</g>
	<g>
		<path class="st0" d="M660.47,549.1h-7.59c-1.03,0-1.87-0.84-1.87-1.87v-7.59c0-1.03,0.84-1.87,1.87-1.87h7.59
			c1.03,0,1.87,0.84,1.87,1.87v7.59C662.34,548.26,661.5,549.1,660.47,549.1z"/>
		<polygon class="st1" points="656.67,539.74 656.67,542.2 654.58,542.2 654.58,544.67 652.49,544.67 652.49,547.13 656.67,547.13 
			656.67,544.67 658.76,544.67 658.76,542.2 660.84,542.2 660.84,539.74 		"/>
	</g>
	<g>
		<path class="st0" d="M496.04,409.62h-7.59c-1.03,0-1.87-0.84-1.87-1.87v-7.59c0-1.03,0.84-1.87,1.87-1.87h7.59
			c1.03,0,1.87,0.84,1.87,1.87v7.59C497.92,408.79,497.08,409.62,496.04,409.62z"/>
		<polygon class="st1" points="492.25,400.26 492.25,402.72 490.16,402.72 490.16,405.19 488.07,405.19 488.07,407.65 
			492.25,407.65 492.25,405.19 494.33,405.19 494.33,402.72 496.42,402.72 496.42,400.26 		"/>
	</g>
	<g>
		<path class="st0" d="M740.73,496.67h-7.59c-1.03,0-1.87-0.84-1.87-1.87v-7.59c0-1.03,0.84-1.87,1.87-1.87h7.59
			c1.03,0,1.87,0.84,1.87,1.87v7.59C742.6,495.83,741.76,496.67,740.73,496.67z"/>
		<polygon class="st1" points="736.93,487.31 736.93,489.77 734.84,489.77 734.84,492.24 732.76,492.24 732.76,494.7 736.93,494.7 
			736.93,492.24 739.02,492.24 739.02,489.77 741.1,489.77 741.1,487.31 		"/>
	</g>
	<g>
		<g>
			<path class="st0" d="M601.7,579.36h-7.59c-1.03,0-1.87-0.84-1.87-1.87v-7.59c0-1.03,0.84-1.87,1.87-1.87h7.59
				c1.03,0,1.87,0.84,1.87,1.87v7.59C603.58,578.52,602.74,579.36,601.7,579.36z"/>
			<g>
				<path class="st1" d="M596.44,578.28h-2.06c-0.52,0-0.94-0.42-0.94-0.94v-7.31c0-0.52,0.42-0.94,0.94-0.94h2.06
					c0.52,0,0.94,0.42,0.94,0.94v7.31C597.37,577.86,596.96,578.28,596.44,578.28z"/>
				<path class="st1" d="M601.43,578.28h-2.06c-0.52,0-0.94-0.42-0.94-0.94v-7.31c0-0.52,0.42-0.94,0.94-0.94h2.06
					c0.52,0,0.94,0.42,0.94,0.94v7.31C602.37,577.86,601.95,578.28,601.43,578.28z"/>
			</g>
		</g>
		<path class="st0" d="M596.89,573.03l-1.44-1.44c-0.06-0.06-0.16-0.06-0.22,0l-1.44,1.44c-0.1,0.1-0.03,0.27,0.11,0.27h0.85v2.19
			c0,0.2,0.16,0.36,0.36,0.36h0.47c0.2,0,0.36-0.16,0.36-0.36v-2.19h0.85C596.92,573.29,596.99,573.12,596.89,573.03z"/>
		<path class="st0" d="M598.85,574.35l1.44,1.44c0.06,0.06,0.16,0.06,0.22,0l1.44-1.44c0.1-0.1,0.03-0.27-0.11-0.27H601v-2.19
			c0-0.2-0.16-0.36-0.36-0.36h-0.47c-0.2,0-0.36,0.16-0.36,0.36v2.19h-0.85C598.82,574.09,598.75,574.25,598.85,574.35z"/>
	</g>
	<g>
		<g>
			<path class="st0" d="M912.21,623.9h-7.59c-1.03,0-1.87-0.84-1.87-1.87v-7.59c0-1.03,0.84-1.87,1.87-1.87h7.59
				c1.03,0,1.87,0.84,1.87,1.87v7.59C914.08,623.07,913.24,623.9,912.21,623.9z"/>
			<g>
				<path class="st1" d="M906.94,622.83h-2.06c-0.52,0-0.94-0.42-0.94-0.94v-7.31c0-0.52,0.42-0.94,0.94-0.94h2.06
					c0.52,0,0.94,0.42,0.94,0.94v7.31C907.88,622.41,907.46,622.83,906.94,622.83z"/>
				<path class="st1" d="M911.94,622.83h-2.06c-0.52,0-0.94-0.42-0.94-0.94v-7.31c0-0.52,0.42-0.94,0.94-0.94h2.06
					c0.52,0,0.94,0.42,0.94,0.94v7.31C912.88,622.41,912.46,622.83,911.94,622.83z"/>
			</g>
		</g>
		<path class="st0" d="M907.4,617.57l-1.44-1.44c-0.06-0.06-0.16-0.06-0.22,0l-1.44,1.44c-0.1,0.1-0.03,0.27,0.11,0.27h0.85v2.19
			c0,0.2,0.16,0.36,0.36,0.36h0.47c0.2,0,0.36-0.16,0.36-0.36v-2.19h0.85C907.43,617.84,907.5,617.67,907.4,617.57z"/>
		<path class="st0" d="M909.36,618.9l1.44,1.44c0.06,0.06,0.16,0.06,0.22,0l1.44-1.44c0.1-0.1,0.03-0.27-0.11-0.27h-0.85v-2.19
			c0-0.2-0.16-0.36-0.36-0.36h-0.47c-0.2,0-0.36,0.16-0.36,0.36v2.19h-0.85C909.33,618.63,909.26,618.8,909.36,618.9z"/>
	</g>
	<g>
		<g>
			<path class="st0" d="M806.33,266.57h-7.59c-1.03,0-1.87-0.84-1.87-1.87v-7.59c0-1.03,0.84-1.87,1.87-1.87h7.59
				c1.03,0,1.87,0.84,1.87,1.87v7.59C808.21,265.73,807.37,266.57,806.33,266.57z"/>
			<g>
				<path class="st1" d="M801.07,265.49h-2.06c-0.52,0-0.94-0.42-0.94-0.94v-7.31c0-0.52,0.42-0.94,0.94-0.94h2.06
					c0.52,0,0.94,0.42,0.94,0.94v7.31C802,265.07,801.59,265.49,801.07,265.49z"/>
				<path class="st1" d="M806.06,265.49H804c-0.52,0-0.94-0.42-0.94-0.94v-7.31c0-0.52,0.42-0.94,0.94-0.94h2.06
					c0.52,0,0.94,0.42,0.94,0.94v7.31C807,265.07,806.58,265.49,806.06,265.49z"/>
			</g>
		</g>
		<path class="st0" d="M801.52,260.23l-1.44-1.44c-0.06-0.06-0.16-0.06-0.22,0l-1.44,1.44c-0.1,0.1-0.03,0.27,0.11,0.27h0.85v2.19
			c0,0.2,0.16,0.36,0.36,0.36h0.47c0.2,0,0.36-0.16,0.36-0.36v-2.19h0.85C801.55,260.5,801.62,260.33,801.52,260.23z"/>
		<path class="st0" d="M803.48,261.56l1.44,1.44c0.06,0.06,0.16,0.06,0.22,0l1.44-1.44c0.1-0.1,0.03-0.27-0.11-0.27h-0.85v-2.19
			c0-0.2-0.16-0.36-0.36-0.36h-0.47c-0.2,0-0.36,0.16-0.36,0.36v2.19h-0.85C803.45,261.29,803.38,261.46,803.48,261.56z"/>
	</g>
	<g>
		<path class="st0" d="M577.15,129.63h-7.59c-1.03,0-1.87-0.84-1.87-1.87v-7.59c0-1.03,0.84-1.87,1.87-1.87h7.59
			c1.03,0,1.87,0.84,1.87,1.87v7.59C579.03,128.79,578.19,129.63,577.15,129.63z"/>
		<g>
			<circle class="st1" cx="573.36" cy="120.01" r="0.79"/>
			<path class="st1" d="M574.2,120.95h-0.85h-0.85c-0.76,0-1.01,0.2-1.01,1.02v2.42c0,0.47,0.63,0.47,0.63,0l0.05-2.21h0.16v6.05
				c0,0.63,0.86,0.61,0.86,0l0.05-3.51h0.17l0.05,3.51c0,0.61,0.86,0.63,0.86,0v-6.05h0.16l0.05,2.21c0,0.47,0.63,0.47,0.63,0v-2.42
				C575.21,121.15,574.96,120.95,574.2,120.95z"/>
		</g>
	</g>
	<g>
		<g>
			<path class="st0" d="M463.33,424.39h-7.59c-1.03,0-1.87-0.84-1.87-1.87v-7.59c0-1.03,0.84-1.87,1.87-1.87h7.59
				c1.03,0,1.87,0.84,1.87,1.87v7.59C465.2,423.55,464.37,424.39,463.33,424.39z"/>
			<g>
				<path class="st1" d="M458.07,423.31h-2.06c-0.52,0-0.94-0.42-0.94-0.94v-7.31c0-0.52,0.42-0.94,0.94-0.94h2.06
					c0.52,0,0.94,0.42,0.94,0.94v7.31C459,422.89,458.58,423.31,458.07,423.31z"/>
				<path class="st1" d="M463.06,423.31H461c-0.52,0-0.94-0.42-0.94-0.94v-7.31c0-0.52,0.42-0.94,0.94-0.94h2.06
					c0.52,0,0.94,0.42,0.94,0.94v7.31C464,422.89,463.58,423.31,463.06,423.31z"/>
			</g>
		</g>
		<path class="st0" d="M458.52,418.06l-1.44-1.44c-0.06-0.06-0.16-0.06-0.22,0l-1.44,1.44c-0.1,0.1-0.03,0.27,0.11,0.27h0.85v2.19
			c0,0.2,0.16,0.36,0.36,0.36h0.47c0.2,0,0.36-0.16,0.36-0.36v-2.19h0.85C458.55,418.32,458.62,418.16,458.52,418.06z"/>
		<path class="st0" d="M460.48,419.38l1.44,1.44c0.06,0.06,0.16,0.06,0.22,0l1.44-1.44c0.1-0.1,0.03-0.27-0.11-0.27h-0.85v-2.19
			c0-0.2-0.16-0.36-0.36-0.36h-0.47c-0.2,0-0.36,0.16-0.36,0.36v2.19h-0.85C460.45,419.12,460.38,419.28,460.48,419.38z"/>
	</g>
	<g>
		<path class="st0" d="M566.65,192.68h-7.59c-1.03,0-1.87-0.84-1.87-1.87v-7.59c0-1.03,0.84-1.87,1.87-1.87h7.59
			c1.03,0,1.87,0.84,1.87,1.87v7.59C568.52,191.85,567.68,192.68,566.65,192.68z"/>
		<polygon class="st1" points="562.85,183.32 562.85,185.78 560.76,185.78 560.76,188.25 558.68,188.25 558.68,190.71 
			562.85,190.71 562.85,188.25 564.94,188.25 564.94,185.78 567.03,185.78 567.03,183.32 		"/>
	</g>
	<g>
		<path class="st0" d="M505.56,229.12h-7.59c-1.03,0-1.87-0.84-1.87-1.87v-7.59c0-1.03,0.84-1.87,1.87-1.87h7.59
			c1.03,0,1.87,0.84,1.87,1.87v7.59C507.43,228.29,506.59,229.12,505.56,229.12z"/>
		<g>
			<circle class="st1" cx="501.76" cy="219.51" r="0.79"/>
			<path class="st1" d="M502.61,220.45h-0.85h-0.85c-0.76,0-1.01,0.2-1.01,1.02v2.42c0,0.47,0.63,0.47,0.63,0l0.05-2.21h0.16v6.05
				c0,0.63,0.86,0.61,0.86,0l0.05-3.51h0.17l0.05,3.51c0,0.61,0.86,0.63,0.86,0v-6.05h0.16l0.05,2.21c0,0.47,0.63,0.47,0.63,0v-2.42
				C503.61,220.64,503.36,220.45,502.61,220.45z"/>
		</g>
	</g>
	<g>
		<path class="st0" d="M489.49,238.91h-7.59c-1.03,0-1.87-0.84-1.87-1.87v-7.59c0-1.03,0.84-1.87,1.87-1.87h7.59
			c1.03,0,1.87,0.84,1.87,1.87v7.59C491.36,238.07,490.52,238.91,489.49,238.91z"/>
		<g>
			<circle class="st1" cx="485.69" cy="229.34" r="0.78"/>
			<path class="st1" d="M487.8,233.16l-0.67-2.2c-0.13-0.39-0.52-0.7-1.08-0.7h-0.72c-0.57,0-0.96,0.31-1.08,0.7l-0.67,2.2
				c-0.14,0.47,0.41,0.64,0.55,0.2l0.71-2.01h0.08c0,0-0.93,3.6-0.97,3.73c-0.02,0.07,0.01,0.12,0.08,0.12c0.04,0,0.8,0,0.8,0v2.36
				c0,0.48,0.72,0.48,0.72,0v-2.38h0.28v2.38c0,0.48,0.72,0.48,0.72,0v-2.36c0,0,0.76,0,0.8,0c0.07,0,0.1-0.05,0.08-0.12
				c-0.04-0.13-0.97-3.73-0.97-3.73h0.08l0.7,2.01C487.39,233.8,487.94,233.63,487.8,233.16z"/>
		</g>
	</g>
	<g>
		<path class="st0" d="M534.99,433.41h-7.59c-1.03,0-1.87-0.84-1.87-1.87v-7.59c0-1.03,0.84-1.87,1.87-1.87h7.59
			c1.03,0,1.87,0.84,1.87,1.87v7.59C536.86,432.57,536.02,433.41,534.99,433.41z"/>
		<polygon class="st1" points="531.19,424.04 531.19,426.51 529.1,426.51 529.1,428.97 527.01,428.97 527.01,431.44 531.19,431.44 
			531.19,428.97 533.28,428.97 533.28,426.51 535.36,426.51 535.36,424.04 		"/>
	</g>
	<g>
		<path class="st0" d="M657.76,352.41h-7.59c-1.03,0-1.87-0.84-1.87-1.87v-7.59c0-1.03,0.84-1.87,1.87-1.87h7.59
			c1.03,0,1.87,0.84,1.87,1.87v7.59C659.63,351.57,658.8,352.41,657.76,352.41z"/>
		<polygon class="st1" points="653.96,343.04 653.96,345.51 651.88,345.51 651.88,347.97 649.79,347.97 649.79,350.44 
			653.96,350.44 653.96,347.97 656.05,347.97 656.05,345.51 658.14,345.51 658.14,343.04 		"/>
	</g>
	<g>
		<path class="st0" d="M679.12,367.35h-7.59c-1.03,0-1.87-0.84-1.87-1.87v-7.59c0-1.03,0.84-1.87,1.87-1.87h7.59
			c1.03,0,1.87,0.84,1.87,1.87v7.59C680.99,366.51,680.16,367.35,679.12,367.35z"/>
		<g>
			<circle class="st1" cx="675.32" cy="357.77" r="0.78"/>
			<path class="st1" d="M677.44,361.6l-0.67-2.2c-0.13-0.39-0.52-0.7-1.08-0.7h-0.72c-0.57,0-0.96,0.31-1.08,0.7l-0.67,2.2
				c-0.14,0.47,0.41,0.64,0.55,0.2l0.71-2.01h0.08c0,0-0.93,3.6-0.97,3.73c-0.02,0.07,0.01,0.12,0.08,0.12c0.04,0,0.8,0,0.8,0V366
				c0,0.48,0.72,0.48,0.72,0v-2.38h0.28V366c0,0.48,0.72,0.48,0.72,0v-2.36c0,0,0.76,0,0.8,0c0.07,0,0.1-0.05,0.08-0.12
				c-0.04-0.13-0.97-3.73-0.97-3.73h0.08l0.7,2.01C677.03,362.24,677.57,362.07,677.44,361.6z"/>
		</g>
	</g>
	<g>
		<path class="st0" d="M663.58,376.93h-7.59c-1.03,0-1.87-0.84-1.87-1.87v-7.59c0-1.03,0.84-1.87,1.87-1.87h7.59
			c1.03,0,1.87,0.84,1.87,1.87v7.59C665.45,376.09,664.61,376.93,663.58,376.93z"/>
		<g>
			<circle class="st1" cx="659.78" cy="367.31" r="0.79"/>
			<path class="st1" d="M660.63,368.25h-0.85h-0.85c-0.76,0-1.01,0.2-1.01,1.02v2.42c0,0.47,0.63,0.47,0.63,0l0.05-2.21h0.16v6.05
				c0,0.63,0.86,0.61,0.86,0l0.05-3.51h0.17l0.05,3.51c0,0.61,0.86,0.63,0.86,0v-6.05h0.16l0.05,2.21c0,0.47,0.63,0.47,0.63,0v-2.42
				C661.63,368.44,661.39,368.25,660.63,368.25z"/>
		</g>
	</g>
	<g>
		<path class="st0" d="M690.98,527.6h-7.59c-1.03,0-1.87-0.84-1.87-1.87v-7.59c0-1.03,0.84-1.87,1.87-1.87h7.59
			c1.03,0,1.87,0.84,1.87,1.87v7.59C692.86,526.76,692.02,527.6,690.98,527.6z"/>
		<g>
			<circle class="st1" cx="687.19" cy="517.98" r="0.79"/>
			<path class="st1" d="M688.03,518.92h-0.85h-0.85c-0.76,0-1.01,0.2-1.01,1.02v2.42c0,0.47,0.63,0.47,0.63,0l0.05-2.21h0.16v6.05
				c0,0.63,0.86,0.61,0.86,0l0.05-3.51h0.17l0.05,3.51c0,0.61,0.86,0.63,0.86,0v-6.05h0.16l0.05,2.21c0,0.47,0.63,0.47,0.63,0v-2.42
				C689.04,519.12,688.79,518.92,688.03,518.92z"/>
		</g>
	</g>
	<g>
		<path class="st0" d="M674.9,537.5h-7.59c-1.03,0-1.87-0.84-1.87-1.87v-7.59c0-1.03,0.84-1.87,1.87-1.87h7.59
			c1.03,0,1.87,0.84,1.87,1.87v7.59C676.77,536.66,675.93,537.5,674.9,537.5z"/>
		<g>
			<circle class="st1" cx="671.1" cy="527.93" r="0.78"/>
			<path class="st1" d="M673.21,531.75l-0.67-2.2c-0.13-0.39-0.52-0.7-1.08-0.7h-0.72c-0.57,0-0.96,0.31-1.08,0.7l-0.67,2.2
				c-0.14,0.47,0.41,0.64,0.55,0.2l0.71-2.01h0.08c0,0-0.93,3.6-0.97,3.73c-0.02,0.07,0.01,0.12,0.08,0.12c0.04,0,0.8,0,0.8,0v2.36
				c0,0.48,0.72,0.48,0.72,0v-2.38h0.28v2.38c0,0.48,0.72,0.48,0.72,0v-2.36c0,0,0.76,0,0.8,0c0.07,0,0.1-0.05,0.08-0.12
				c-0.04-0.13-0.97-3.73-0.97-3.73h0.08l0.7,2.01C672.81,532.39,673.35,532.23,673.21,531.75z"/>
		</g>
	</g>
	<g>
		<path class="st0" d="M892.17,401.6h-7.59c-1.03,0-1.87-0.84-1.87-1.87v-7.59c0-1.03,0.84-1.87,1.87-1.87h7.59
			c1.03,0,1.87,0.84,1.87,1.87v7.59C894.04,400.76,893.21,401.6,892.17,401.6z"/>
		<g>
			<circle class="st1" cx="888.37" cy="391.98" r="0.79"/>
			<path class="st1" d="M889.22,392.92h-0.85h-0.85c-0.76,0-1.01,0.2-1.01,1.02v2.42c0,0.47,0.63,0.47,0.63,0l0.05-2.21h0.16v6.05
				c0,0.63,0.86,0.61,0.86,0l0.05-3.51h0.17l0.05,3.51c0,0.61,0.86,0.63,0.86,0v-6.05h0.16l0.05,2.21c0,0.47,0.63,0.47,0.63,0v-2.42
				C890.23,393.12,889.98,392.92,889.22,392.92z"/>
		</g>
	</g>
	<g>
		<path class="st0" d="M823.91,291.92h-7.59c-1.03,0-1.87-0.84-1.87-1.87v-7.59c0-1.03,0.84-1.87,1.87-1.87h7.59
			c1.03,0,1.87,0.84,1.87,1.87v7.59C825.78,291.08,824.95,291.92,823.91,291.92z"/>
		<g>
			<circle class="st1" cx="820.11" cy="282.3" r="0.79"/>
			<path class="st1" d="M820.96,283.24h-0.85h-0.85c-0.76,0-1.01,0.2-1.01,1.02v2.42c0,0.47,0.63,0.47,0.63,0l0.05-2.21h0.16v6.05
				c0,0.63,0.86,0.61,0.86,0l0.05-3.51h0.17l0.05,3.51c0,0.61,0.86,0.63,0.86,0v-6.05h0.16l0.05,2.21c0,0.47,0.63,0.47,0.63,0v-2.42
				C821.97,283.44,821.72,283.24,820.96,283.24z"/>
		</g>
	</g>
	<g>
		<path class="st0" d="M837.19,436.07h-7.59c-1.03,0-1.87-0.84-1.87-1.87v-7.59c0-1.03,0.84-1.87,1.87-1.87h7.59
			c1.03,0,1.87,0.84,1.87,1.87v7.59C839.07,435.23,838.23,436.07,837.19,436.07z"/>
		<g>
			<circle class="st1" cx="833.4" cy="426.45" r="0.79"/>
			<path class="st1" d="M834.24,427.4h-0.85h-0.85c-0.76,0-1.01,0.2-1.01,1.02v2.42c0,0.47,0.63,0.47,0.63,0l0.05-2.21h0.16v6.05
				c0,0.63,0.86,0.61,0.86,0l0.05-3.51h0.17l0.05,3.51c0,0.61,0.86,0.63,0.86,0v-6.05h0.16l0.05,2.21c0,0.47,0.63,0.47,0.63,0v-2.42
				C835.25,427.59,835,427.4,834.24,427.4z"/>
		</g>
	</g>
	<g>
		<circle class="st0" cx="523.08" cy="31.98" r="4.54"/>
		<path class="st1" d="M525.12,33.4l0.67-2.92c0.03-0.12-0.05-0.25-0.17-0.27l-2.92-0.67c-0.2-0.05-0.35,0.17-0.24,0.34l0.66,1.06
			l-2.73,1.7c-0.25,0.15-0.32,0.48-0.17,0.73l0.37,0.59c0.15,0.25,0.48,0.32,0.73,0.17l2.73-1.7l0.66,1.06
			C524.81,33.64,525.07,33.6,525.12,33.4z"/>
	</g>
	<g>
		<circle class="st0" cx="324.17" cy="130.52" r="4.54"/>
		<path class="st1" d="M326.21,131.94l0.67-2.92c0.03-0.12-0.05-0.25-0.17-0.27l-2.92-0.67c-0.2-0.05-0.35,0.17-0.24,0.34l0.66,1.06
			l-2.73,1.7c-0.25,0.15-0.32,0.48-0.17,0.73l0.37,0.59c0.15,0.25,0.48,0.32,0.73,0.17l2.73-1.7l0.66,1.06
			C325.9,132.18,326.16,132.14,326.21,131.94z"/>
	</g>
	<g>
		<circle class="st0" cx="365.63" cy="234.1" r="4.54"/>
		<path class="st1" d="M367.67,235.52l0.67-2.92c0.03-0.12-0.05-0.25-0.17-0.27l-2.92-0.67c-0.2-0.05-0.35,0.17-0.24,0.34l0.66,1.06
			l-2.73,1.7c-0.25,0.15-0.32,0.48-0.17,0.73l0.37,0.59c0.15,0.25,0.48,0.32,0.73,0.17l2.73-1.7l0.66,1.06
			C367.36,235.76,367.62,235.72,367.67,235.52z"/>
	</g>
	<g>
		<circle class="st0" cx="390.27" cy="203.27" r="4.54"/>
		<path class="st1" d="M392.3,204.69l0.67-2.92c0.03-0.12-0.05-0.25-0.17-0.27l-2.92-0.67c-0.2-0.05-0.35,0.17-0.24,0.34l0.66,1.06
			l-2.73,1.7c-0.25,0.15-0.32,0.48-0.17,0.73l0.37,0.59c0.15,0.25,0.48,0.32,0.73,0.17l2.73-1.7l0.66,1.06
			C391.99,204.93,392.26,204.89,392.3,204.69z"/>
	</g>
	<g>
		<circle class="st0" cx="595.34" cy="147.22" r="4.54"/>
		<path class="st1" d="M597.37,148.64l0.67-2.92c0.03-0.12-0.05-0.25-0.17-0.27l-2.92-0.67c-0.2-0.05-0.35,0.17-0.24,0.34l0.66,1.06
			l-2.73,1.7c-0.25,0.15-0.32,0.48-0.17,0.73l0.37,0.59c0.15,0.25,0.48,0.32,0.73,0.17l2.73-1.7l0.66,1.06
			C597.07,148.89,597.33,148.84,597.37,148.64z"/>
	</g>
	<g>
		<circle class="st0" cx="696.11" cy="309.1" r="4.54"/>
		<path class="st1" d="M698.14,310.52l0.67-2.92c0.03-0.12-0.05-0.25-0.17-0.27l-2.92-0.67c-0.2-0.05-0.35,0.17-0.24,0.34l0.66,1.06
			l-2.73,1.7c-0.25,0.15-0.32,0.48-0.17,0.73l0.37,0.59c0.15,0.25,0.48,0.32,0.73,0.17l2.73-1.7l0.66,1.06
			C697.84,310.76,698.1,310.72,698.14,310.52z"/>
	</g>
	<g>
		<circle class="st0" cx="914.71" cy="639.05" r="4.54"/>
		<path class="st1" d="M916.54,640.73l1.05-2.81c0.04-0.12-0.02-0.25-0.13-0.29l-2.81-1.05c-0.19-0.07-0.37,0.12-0.29,0.31
			l0.52,1.13l-2.93,1.33c-0.27,0.12-0.38,0.43-0.26,0.7l0.29,0.63c0.12,0.27,0.43,0.38,0.7,0.26l2.93-1.33l0.52,1.13
			C916.2,640.93,916.47,640.92,916.54,640.73z"/>
	</g>
	<g>
		<circle class="st0" cx="807.73" cy="540.12" r="4.54"/>
		<path class="st1" d="M805.7,538.7l-0.67,2.92c-0.03,0.12,0.05,0.25,0.17,0.27l2.92,0.67c0.2,0.05,0.35-0.17,0.24-0.34l-0.66-1.06
			l2.73-1.7c0.25-0.15,0.32-0.48,0.17-0.73l-0.37-0.59c-0.15-0.25-0.48-0.32-0.73-0.17l-2.73,1.7l-0.66-1.06
			C806.01,538.46,805.74,538.51,805.7,538.7z"/>
	</g>
	<g>
		<circle class="st0" cx="563.99" cy="537.22" r="4.54"/>
		<path class="st1" d="M561.95,535.8l-0.67,2.92c-0.03,0.12,0.05,0.25,0.17,0.27l2.92,0.67c0.2,0.05,0.35-0.17,0.24-0.34l-0.66-1.06
			l2.73-1.7c0.25-0.15,0.32-0.48,0.17-0.73l-0.37-0.59c-0.15-0.25-0.48-0.32-0.73-0.17l-2.73,1.7l-0.66-1.06
			C562.26,535.56,562,535.61,561.95,535.8z"/>
	</g>
	<g>
		<circle class="st0" cx="661.49" cy="309.52" r="4.54"/>
		<path class="st1" d="M662.91,307.49l-2.92-0.67c-0.12-0.03-0.25,0.05-0.27,0.17l-0.67,2.92c-0.05,0.2,0.17,0.35,0.34,0.24
			l1.06-0.66l1.7,2.73c0.15,0.25,0.48,0.32,0.73,0.17l0.59-0.37c0.25-0.15,0.32-0.48,0.17-0.73l-1.7-2.73l1.06-0.66
			C663.15,307.79,663.1,307.53,662.91,307.49z"/>
	</g>
	<g>
		<circle class="st0" cx="726.49" cy="531.83" r="4.54"/>
		<path class="st1" d="M725.07,533.87l2.92,0.67c0.12,0.03,0.25-0.05,0.27-0.17l0.67-2.92c0.05-0.2-0.17-0.35-0.34-0.24l-1.06,0.66
			l-1.7-2.73c-0.15-0.25-0.48-0.32-0.73-0.17l-0.59,0.37c-0.25,0.15-0.32,0.48-0.17,0.73l1.7,2.73l-1.06,0.66
			C724.83,533.56,724.87,533.82,725.07,533.87z"/>
	</g>
	<g>
		<circle class="st0" cx="559.39" cy="89.34" r="4.54"/>
		<path class="st1" d="M561.42,90.76l0.67-2.92c0.03-0.12-0.05-0.25-0.17-0.27L559,86.9c-0.2-0.05-0.35,0.17-0.24,0.34l0.66,1.06
			l-2.73,1.7c-0.25,0.15-0.32,0.48-0.17,0.73l0.37,0.59c0.15,0.25,0.48,0.32,0.73,0.17l2.73-1.7l0.66,1.06
			C561.12,91,561.38,90.96,561.42,90.76z"/>
	</g>
	<g>
		<circle class="st2" cx="440.8" cy="477.8" r="6.66"/>
		<g>
			<path class="st1" d="M440.43,476.34h-0.02l-1.11,0.53l-0.22-1.02l1.53-0.71h1.12v5.79h-1.31v-4.59H440.43z"/>
		</g>
	</g>
	<g>
		<circle class="st2" cx="817.33" cy="597.32" r="6.66"/>
		<g>
			<path class="st1" d="M815.23,600.14v-0.82l0.75-0.68c1.27-1.13,1.88-1.78,1.9-2.46c0-0.47-0.29-0.85-0.95-0.85
				c-0.5,0-0.94,0.25-1.24,0.48l-0.38-0.97c0.44-0.33,1.11-0.6,1.9-0.6c1.31,0,2.03,0.77,2.03,1.82c0,0.97-0.7,1.75-1.54,2.5
				l-0.53,0.45v0.02h2.18v1.11L815.23,600.14L815.23,600.14z"/>
		</g>
	</g>
	<g>
		<circle class="st2" cx="879.29" cy="563.17" r="6.66"/>
		<g>
			<path class="st1" d="M877.58,564.66c0.24,0.13,0.79,0.36,1.35,0.36c0.7,0,1.06-0.34,1.06-0.77c0-0.57-0.57-0.83-1.17-0.83h-0.55
				v-0.97h0.53c0.46-0.01,1.03-0.18,1.03-0.67c0-0.35-0.29-0.61-0.86-0.61c-0.47,0-0.97,0.21-1.21,0.35l-0.28-0.98
				c0.35-0.22,1.04-0.44,1.79-0.44c1.24,0,1.92,0.65,1.92,1.44c0,0.61-0.35,1.1-1.06,1.34v0.02c0.7,0.12,1.26,0.65,1.26,1.41
				c0,1.03-0.9,1.77-2.37,1.77c-0.75,0-1.38-0.2-1.72-0.41L877.58,564.66z"/>
		</g>
	</g>
	<g>
		<circle class="st2" cx="326.34" cy="255.18" r="6.66"/>
		<g>
			<path class="st1" d="M326.21,258v-1.38h-2.57v-0.88l2.19-3.53h1.66v3.39h0.69v1.02h-0.69V258H326.21z M326.21,255.6v-1.28
				c0-0.35,0.02-0.7,0.04-1.08h-0.04c-0.19,0.37-0.34,0.71-0.53,1.08l-0.78,1.27v0.02h1.31V255.6z"/>
		</g>
	</g>
	<g>
		<circle class="st2" cx="425.46" cy="21.44" r="6.66"/>
		<g>
			<path class="st1" d="M427.38,19.58h-2.25l-0.12,0.89c0.12-0.02,0.23-0.02,0.37-0.02c0.55,0,1.11,0.12,1.52,0.42
				c0.44,0.29,0.7,0.78,0.7,1.45c0,1.08-0.93,2.03-2.49,2.03c-0.7,0-1.29-0.16-1.61-0.33l0.24-1.02c0.26,0.13,0.78,0.29,1.31,0.29
				c0.56,0,1.16-0.27,1.16-0.88c0-0.6-0.47-0.96-1.63-0.96c-0.32,0-0.54,0.02-0.78,0.05l0.38-3.04h3.19v1.12H427.38z"/>
		</g>
	</g>
	<g>
		<rect x="455.03" y="462.05" class="st1" width="9.3" height="9.7"/>
		<path d="M464.33,464.32v-2.51c0-0.4-0.33-0.73-0.73-0.73h-8.96c-0.4,0-0.73,0.33-0.73,0.73v10.27c0,0.27,0.16,0.52,0.39,0.64
			l3.71,2.86c0.24,0.12,0.53-0.05,0.53-0.33v-2.79h5.06c0.4,0,0.73-0.33,0.73-0.73v-3.97h-1.45v2.88c0,0.21-0.16,0.36-0.36,0.36
			h-3.96v-6.01c0-0.27-0.15-0.53-0.39-0.79l-1.44-1.67h5.79c0.21,0,0.36,0.16,0.36,0.36v1.43L464.33,464.32L464.33,464.32z"/>
		<g>
			<path class="st0" d="M461.82,468.55c-0.17,0-0.33-0.07-0.45-0.19l-1.78-1.78c-0.25-0.25-0.25-0.66,0-0.91l1.78-1.78
				c0.12-0.12,0.28-0.19,0.45-0.19c0.35,0,0.64,0.29,0.64,0.64v0.59h2.25c0.49,0,0.89,0.4,0.89,0.89v0.58c0,0.49-0.4,0.89-0.89,0.89
				h-2.25v0.6C462.46,468.26,462.17,468.55,461.82,468.55z"/>
			<path class="st1" d="M461.82,464.15c0.1,0,0.19,0.08,0.19,0.19v1.05h2.7c0.24,0,0.44,0.2,0.44,0.44v0.58
				c0,0.24-0.2,0.44-0.44,0.44h-2.7v1.05c0,0.12-0.09,0.19-0.19,0.19c-0.05,0-0.1-0.02-0.13-0.06l-1.78-1.78
				c-0.07-0.07-0.07-0.2,0-0.27l1.78-1.78C461.72,464.17,461.77,464.15,461.82,464.15 M461.82,463.25c-0.29,0-0.56,0.11-0.77,0.32
				l-1.78,1.78c-0.43,0.43-0.43,1.12,0,1.54l1.78,1.78c0.21,0.21,0.48,0.32,0.77,0.32c0.6,0,1.09-0.49,1.09-1.09v-0.15h1.8
				c0.74,0,1.34-0.6,1.34-1.34v-0.58c0-0.74-0.6-1.34-1.34-1.34h-1.8v-0.15C462.91,463.74,462.42,463.25,461.82,463.25
				L461.82,463.25z"/>
		</g>
	</g>
	<g>
		<rect x="475.52" y="449.8" class="st1" width="9.3" height="9.7"/>
		<path d="M484.82,452.07v-2.51c0-0.4-0.33-0.73-0.73-0.73h-8.96c-0.4,0-0.73,0.33-0.73,0.73v10.27c0,0.27,0.16,0.52,0.39,0.64
			l3.71,2.86c0.24,0.12,0.53-0.05,0.53-0.33v-2.79h5.06c0.4,0,0.73-0.33,0.73-0.73v-3.97h-1.45v2.88c0,0.21-0.16,0.36-0.36,0.36
			h-3.96v-6.01c0-0.27-0.15-0.53-0.39-0.79l-1.44-1.67H483c0.21,0,0.36,0.16,0.36,0.36v1.43h1.45v0H484.82z"/>
		<g>
			<path class="st0" d="M482.3,456.3c-0.17,0-0.33-0.07-0.45-0.19l-1.78-1.78c-0.25-0.25-0.25-0.66,0-0.91l1.78-1.78
				c0.12-0.12,0.28-0.19,0.45-0.19c0.35,0,0.64,0.29,0.64,0.64v0.59h2.25c0.49,0,0.89,0.4,0.89,0.89v0.58c0,0.49-0.4,0.89-0.89,0.89
				h-2.25v0.6C482.95,456.01,482.66,456.3,482.3,456.3z"/>
			<path class="st1" d="M482.3,451.9c0.1,0,0.19,0.08,0.19,0.19v1.05h2.7c0.24,0,0.44,0.2,0.44,0.44v0.58c0,0.24-0.2,0.44-0.44,0.44
				h-2.7v1.05c0,0.12-0.09,0.19-0.19,0.19c-0.05,0-0.1-0.02-0.13-0.06l-1.78-1.78c-0.07-0.07-0.07-0.2,0-0.27l1.78-1.78
				C482.21,451.92,482.26,451.9,482.3,451.9 M482.3,451c-0.29,0-0.56,0.11-0.77,0.32l-1.78,1.78c-0.43,0.43-0.43,1.12,0,1.54
				l1.78,1.78c0.21,0.21,0.48,0.32,0.77,0.32c0.6,0,1.09-0.49,1.09-1.09v-0.15h1.8c0.74,0,1.34-0.6,1.34-1.34v-0.58
				c0-0.74-0.6-1.34-1.34-1.34h-1.8v-0.15C483.4,451.49,482.91,451,482.3,451L482.3,451z"/>
		</g>
	</g>
	<g>
		<rect x="342.1" y="237.96" class="st1" width="9.3" height="9.7"/>
		<path d="M351.4,240.24v-2.51c0-0.4-0.33-0.73-0.73-0.73h-8.96c-0.4,0-0.73,0.33-0.73,0.73V248c0,0.27,0.16,0.52,0.39,0.64
			l3.71,2.86c0.24,0.12,0.53-0.05,0.53-0.33v-2.79h5.06c0.4,0,0.73-0.33,0.73-0.73v-3.97h-1.45v2.88c0,0.21-0.16,0.36-0.36,0.36
			h-3.96v-6.01c0-0.27-0.15-0.53-0.39-0.79l-1.44-1.67h5.79c0.21,0,0.36,0.16,0.36,0.36v1.43L351.4,240.24L351.4,240.24
			L351.4,240.24z"/>
		<g>
			<path class="st0" d="M348.89,244.46c-0.17,0-0.33-0.07-0.45-0.19l-1.78-1.78c-0.25-0.25-0.25-0.66,0-0.91l1.78-1.78
				c0.12-0.12,0.28-0.19,0.45-0.19c0.35,0,0.64,0.29,0.64,0.64v0.6h2.25c0.49,0,0.89,0.4,0.89,0.89v0.58c0,0.49-0.4,0.89-0.89,0.89
				h-2.25v0.6C349.53,244.18,349.24,244.46,348.89,244.46z"/>
			<path class="st1" d="M348.89,240.07c0.1,0,0.19,0.08,0.19,0.19v1.05h2.7c0.24,0,0.44,0.2,0.44,0.44v0.58
				c0,0.24-0.2,0.44-0.44,0.44h-2.7v1.05c0,0.12-0.09,0.19-0.19,0.19c-0.05,0-0.1-0.02-0.13-0.06l-1.78-1.78
				c-0.07-0.07-0.07-0.2,0-0.27l1.78-1.78C348.79,240.09,348.84,240.07,348.89,240.07 M348.89,239.17c-0.29,0-0.56,0.11-0.77,0.32
				l-1.78,1.78c-0.21,0.21-0.32,0.48-0.32,0.77c0,0.29,0.11,0.57,0.32,0.77l1.78,1.78c0.21,0.21,0.48,0.32,0.77,0.32
				c0.6,0,1.09-0.49,1.09-1.09v-0.15h1.8c0.74,0,1.34-0.6,1.34-1.34v-0.58c0-0.74-0.6-1.34-1.34-1.34h-1.8v-0.15
				C349.98,239.66,349.49,239.17,348.89,239.17L348.89,239.17z"/>
		</g>
	</g>
	<g>
		<rect x="430.87" y="35.15" class="st1" width="9.3" height="9.7"/>
		<path d="M440.18,37.43v-2.51c0-0.4-0.33-0.73-0.73-0.73h-8.96c-0.4,0-0.73,0.33-0.73,0.73v10.27c0,0.27,0.16,0.52,0.39,0.64
			l3.71,2.86c0.24,0.12,0.53-0.05,0.53-0.33v-2.79h5.06c0.4,0,0.73-0.33,0.73-0.73v-3.97h-1.45v2.88c0,0.21-0.16,0.36-0.36,0.36
			h-3.96V38.1c0-0.27-0.15-0.53-0.39-0.79l-1.44-1.67h5.79c0.21,0,0.36,0.16,0.36,0.36v1.43L440.18,37.43L440.18,37.43L440.18,37.43
			z"/>
		<g>
			<path class="st0" d="M437.66,41.65c-0.17,0-0.33-0.07-0.45-0.19l-1.78-1.78c-0.12-0.12-0.19-0.28-0.19-0.45s0.07-0.33,0.19-0.46
				l1.78-1.78c0.12-0.12,0.28-0.19,0.45-0.19c0.35,0,0.64,0.29,0.64,0.64v0.6h2.25c0.49,0,0.89,0.4,0.89,0.89v0.58
				c0,0.49-0.4,0.89-0.89,0.89h-2.25V41C438.3,41.36,438.02,41.65,437.66,41.65z"/>
			<path class="st1" d="M437.66,37.26c0.1,0,0.19,0.08,0.19,0.19v1.05h2.7c0.24,0,0.44,0.2,0.44,0.44v0.58
				c0,0.24-0.2,0.44-0.44,0.44h-2.7v1.05c0,0.12-0.09,0.19-0.19,0.19c-0.05,0-0.1-0.02-0.13-0.06l-1.78-1.78
				c-0.07-0.07-0.07-0.2,0-0.27l1.78-1.78C437.57,37.28,437.61,37.26,437.66,37.26 M437.66,36.36c-0.29,0-0.56,0.11-0.77,0.32
				l-1.78,1.78c-0.43,0.43-0.43,1.12,0,1.54l1.78,1.78c0.21,0.21,0.48,0.32,0.77,0.32c0.6,0,1.09-0.49,1.09-1.09v-0.15h1.8
				c0.74,0,1.34-0.6,1.34-1.34v-0.58c0-0.74-0.6-1.34-1.34-1.34h-1.8v-0.15C438.75,36.85,438.26,36.36,437.66,36.36L437.66,36.36z"
				/>
		</g>
	</g>
	<g>
		<rect x="832.85" y="581.45" class="st1" width="9.3" height="9.7"/>
		<path d="M842.16,583.73v-2.51c0-0.4-0.33-0.73-0.73-0.73h-8.96c-0.4,0-0.73,0.33-0.73,0.73v10.27c0,0.27,0.16,0.52,0.39,0.64
			l3.71,2.86c0.24,0.12,0.53-0.05,0.53-0.33v-2.79h5.06c0.4,0,0.73-0.33,0.73-0.73v-3.97h-1.45v2.88c0,0.21-0.16,0.36-0.36,0.36
			h-3.96v-6.01c0-0.27-0.15-0.53-0.39-0.79l-1.44-1.67h5.79c0.21,0,0.36,0.16,0.36,0.36v1.43L842.16,583.73L842.16,583.73z"/>
		<g>
			<path class="st0" d="M839.64,587.95c-0.17,0-0.33-0.07-0.45-0.19l-1.78-1.78c-0.12-0.12-0.19-0.28-0.19-0.46
				c0-0.17,0.07-0.33,0.19-0.45l1.78-1.78c0.12-0.12,0.28-0.19,0.45-0.19c0.35,0,0.64,0.29,0.64,0.64v0.6h2.25
				c0.49,0,0.89,0.4,0.89,0.89v0.58c0,0.49-0.4,0.89-0.89,0.89h-2.25v0.59C840.28,587.66,839.99,587.95,839.64,587.95z"/>
			<path class="st1" d="M839.64,583.56c0.1,0,0.19,0.08,0.19,0.19v1.05h2.7c0.24,0,0.44,0.2,0.44,0.44v0.58
				c0,0.24-0.2,0.44-0.44,0.44h-2.7v1.05c0,0.12-0.09,0.19-0.19,0.19c-0.05,0-0.1-0.02-0.13-0.06l-1.78-1.78
				c-0.07-0.07-0.07-0.2,0-0.27l1.78-1.78C839.55,583.57,839.59,583.56,839.64,583.56 M839.64,582.66c-0.29,0-0.56,0.11-0.77,0.32
				l-1.78,1.78c-0.21,0.21-0.32,0.48-0.32,0.77s0.11,0.57,0.32,0.77l1.78,1.78c0.21,0.21,0.48,0.32,0.77,0.32
				c0.6,0,1.09-0.49,1.09-1.09v-0.15h1.8c0.74,0,1.34-0.6,1.34-1.34v-0.58c0-0.74-0.6-1.34-1.34-1.34h-1.8v-0.15
				C840.73,583.15,840.24,582.66,839.64,582.66L839.64,582.66z"/>
		</g>
	</g>
	<g>
		<rect x="855.49" y="568.87" class="st1" width="9.3" height="9.7"/>
		<path d="M864.8,571.15v-2.51c0-0.4-0.33-0.73-0.73-0.73h-8.96c-0.4,0-0.73,0.33-0.73,0.73v10.27c0,0.27,0.16,0.52,0.39,0.64
			l3.71,2.86c0.24,0.12,0.53-0.05,0.53-0.33v-2.79h5.06c0.4,0,0.73-0.33,0.73-0.73v-3.97h-1.45v2.88c0,0.21-0.16,0.36-0.36,0.36
			h-3.96v-6.01c0-0.27-0.15-0.53-0.39-0.79l-1.44-1.67h5.79c0.21,0,0.36,0.16,0.36,0.36v1.43L864.8,571.15L864.8,571.15z"/>
		<g>
			<path class="st0" d="M862.28,575.37c-0.17,0-0.33-0.07-0.45-0.19l-1.78-1.78c-0.25-0.25-0.25-0.66,0-0.91l1.78-1.78
				c0.12-0.12,0.28-0.19,0.45-0.19c0.35,0,0.64,0.29,0.64,0.64v0.6h2.25c0.49,0,0.89,0.4,0.89,0.89v0.58c0,0.49-0.4,0.89-0.89,0.89
				h-2.25v0.59C862.92,575.08,862.63,575.37,862.28,575.37z"/>
			<path class="st1" d="M862.28,570.97c0.1,0,0.19,0.08,0.19,0.19v1.05h2.7c0.24,0,0.44,0.2,0.44,0.44v0.58
				c0,0.24-0.2,0.44-0.44,0.44h-2.7v1.05c0,0.12-0.09,0.19-0.19,0.19c-0.05,0-0.1-0.02-0.13-0.06l-1.78-1.78
				c-0.07-0.07-0.07-0.2,0-0.27l1.78-1.78C862.19,570.99,862.23,570.97,862.28,570.97 M862.28,570.07c-0.29,0-0.56,0.11-0.77,0.32
				l-1.78,1.78c-0.21,0.21-0.32,0.48-0.32,0.77s0.11,0.57,0.32,0.77l1.78,1.78c0.21,0.21,0.48,0.32,0.77,0.32
				c0.6,0,1.09-0.49,1.09-1.09v-0.15h1.8c0.74,0,1.34-0.6,1.34-1.34v-0.58c0-0.74-0.6-1.34-1.34-1.34h-1.8v-0.15
				C863.37,570.56,862.88,570.07,862.28,570.07L862.28,570.07z"/>
		</g>
	</g>
</g>
</svg>
