<?xml version="1.0" encoding="utf-8"?>
<!-- Generator: Adobe Illustrator 19.0.1, SVG Export Plug-In . SVG Version: 6.00 Build 0)  -->
<svg version="1.1" id="icones" xmlns="http://www.w3.org/2000/svg" xmlns:xlink="http://www.w3.org/1999/xlink" x="0px" y="0px"
	 width="422.979px" height="403.48px" viewBox="0 0 422.979 403.48" style="enable-background:new 0 0 422.979 403.48;"
	 xml:space="preserve">
<style type="text/css">
	.st0{fill:#1D1D1B;}
	.st1{fill:#FFFFFF;}
</style>
<g>
	<path class="st0" d="M212.547,202.812h-7.594c-1.034,0-1.872-0.838-1.872-1.872v-7.594c0-1.034,0.838-1.872,1.872-1.872h7.594
		c1.034,0,1.872,0.838,1.872,1.872v7.594C214.419,201.974,213.581,202.812,212.547,202.812z"/>
	<polygon class="st1" points="208.75,193.446 208.75,195.911 206.663,195.911 206.663,198.375 204.576,198.375 204.576,200.84 
		208.75,200.84 208.75,198.375 210.837,198.375 210.837,195.911 212.924,195.911 212.924,193.446 	"/>
</g>
<g>
	<path class="st0" d="M108.304,75.72h-7.594c-1.034,0-1.872-0.838-1.872-1.872v-7.594c0-1.034,0.838-1.872,1.872-1.872h7.594
		c1.034,0,1.872,0.838,1.872,1.872v7.594C110.176,74.882,109.338,75.72,108.304,75.72z"/>
	<polygon class="st1" points="104.507,66.354 104.507,68.819 102.42,68.819 102.42,71.284 100.333,71.284 100.333,73.749 
		104.507,73.749 104.507,71.284 106.594,71.284 106.594,68.819 108.681,68.819 108.681,66.354 	"/>
</g>
<g>
	<path class="st0" d="M172.166,229.154h-7.594c-1.034,0-1.872-0.838-1.872-1.872v-7.594c0-1.034,0.838-1.872,1.872-1.872h7.594
		c1.034,0,1.872,0.838,1.872,1.872v7.594C174.038,228.316,173.2,229.154,172.166,229.154z"/>
	<g>
		<circle class="st1" cx="168.37" cy="219.579" r="0.779"/>
		<path class="st1" d="M170.481,223.405l-0.668-2.199c-0.13-0.389-0.518-0.695-1.084-0.695h-0.718c-0.567,0-0.955,0.306-1.085,0.695
			l-0.668,2.199c-0.138,0.473,0.408,0.641,0.551,0.199l0.705-2.011h0.081c0,0-0.926,3.6-0.965,3.735
			c-0.02,0.067,0.008,0.116,0.08,0.116c0.044,0,0.801,0,0.801,0l0.001,2.364c0,0.481,0.72,0.481,0.72,0v-2.382h0.276l0,2.382
			c0,0.481,0.72,0.481,0.72,0l0-2.364c0,0,0.757,0,0.801,0c0.071,0,0.1-0.049,0.08-0.116c-0.039-0.135-0.966-3.735-0.966-3.735
			h0.082l0.705,2.011C170.073,224.046,170.619,223.878,170.481,223.405z"/>
	</g>
</g>
<g>
	<path class="st0" d="M161.263,213.167h-7.594c-1.034,0-1.872-0.838-1.872-1.872v-7.594c0-1.034,0.838-1.872,1.872-1.872h7.594
		c1.034,0,1.872,0.838,1.872,1.872v7.594C163.135,212.329,162.297,213.167,161.263,213.167z"/>
	<g>
		<circle class="st1" cx="157.466" cy="203.548" r="0.787"/>
		<path class="st1" d="M158.312,204.491l-0.847,0.001l-0.846-0.001c-0.759,0-1.006,0.196-1.006,1.022v2.417
			c0,0.469,0.634,0.469,0.634,0l0.054-2.21h0.163v6.051c0,0.628,0.862,0.61,0.862,0l0.055-3.513h0.171l0.054,3.513
			c0,0.61,0.862,0.628,0.862,0v-6.051h0.163l0.055,2.21c0,0.469,0.633,0.469,0.633,0v-2.417
			C159.317,204.686,159.071,204.491,158.312,204.491z"/>
	</g>
</g>
<g>
	<g>
		<path class="st0" d="M181.251,215.248h-7.594c-1.034,0-1.872-0.838-1.872-1.872v-7.594c0-1.034,0.838-1.872,1.872-1.872h7.594
			c1.034,0,1.872,0.838,1.872,1.872v7.594C183.123,214.41,182.285,215.248,181.251,215.248z"/>
		<g>
			<path class="st1" d="M175.985,214.17h-2.058c-0.517,0-0.936-0.419-0.936-0.936v-7.311c0-0.517,0.419-0.936,0.936-0.936h2.058
				c0.517,0,0.936,0.419,0.936,0.936v7.311C176.921,213.751,176.502,214.17,175.985,214.17z"/>
			<path class="st1" d="M180.981,214.17h-2.058c-0.517,0-0.936-0.419-0.936-0.936v-7.311c0-0.517,0.419-0.936,0.936-0.936h2.058
				c0.517,0,0.936,0.419,0.936,0.936v7.311C181.917,213.751,181.498,214.17,180.981,214.17z"/>
		</g>
	</g>
	<path class="st0" d="M176.439,208.916l-1.444-1.444c-0.061-0.061-0.159-0.061-0.22,0l-1.444,1.444
		c-0.098,0.098-0.029,0.265,0.11,0.265h0.849v2.19c0,0.199,0.161,0.36,0.36,0.36h0.471c0.199,0,0.36-0.161,0.36-0.36v-2.19h0.849
		C176.468,209.182,176.537,209.014,176.439,208.916z"/>
	<path class="st0" d="M178.398,210.242l1.444,1.444c0.061,0.061,0.159,0.061,0.22,0l1.444-1.444c0.098-0.098,0.029-0.265-0.11-0.265
		h-0.849v-2.19c0-0.199-0.161-0.36-0.36-0.36h-0.471c-0.199,0-0.36,0.161-0.36,0.36v2.19h-0.849
		C178.369,209.976,178.3,210.144,178.398,210.242z"/>
</g>
</svg>
