<?xml version="1.0" encoding="utf-8"?>
<!-- Generator: Adobe Illustrator 19.0.1, SVG Export Plug-In . SVG Version: 6.00 Build 0)  -->
<svg version="1.1" id="textes" xmlns="http://www.w3.org/2000/svg" xmlns:xlink="http://www.w3.org/1999/xlink" x="0px" y="0px"
	 width="761.962px" height="716.964px" viewBox="0 0 761.962 716.964" style="enable-background:new 0 0 761.962 716.964;"
	 xml:space="preserve">
<style type="text/css">
	.st0{fill:#010101;}
	.st1{fill:#FFFFFF;}
</style>
<g>
	<path class="st0" d="M80.208,226.307H30.367c-1.388,0-2.513-1.125-2.513-2.513v-4.784c0-1.388,1.125-2.513,2.513-2.513h49.841
		c1.388,0,2.513,1.125,2.513,2.513v4.784C82.721,225.182,81.596,226.307,80.208,226.307z"/>
	<g>
		<path class="st1" d="M37.595,222.751l-1.192-3.651h0.509l0.569,1.798c0.157,0.493,0.292,0.937,0.39,1.365h0.011
			c0.103-0.423,0.254-0.883,0.417-1.36l0.618-1.804h0.504l-1.306,3.651H37.595z"/>
		<path class="st1" d="M39.884,221.527c0.011,0.645,0.423,0.91,0.899,0.91c0.341,0,0.547-0.06,0.726-0.136l0.081,0.341
			c-0.168,0.076-0.455,0.163-0.872,0.163c-0.807,0-1.289-0.531-1.289-1.322s0.466-1.414,1.229-1.414
			c0.856,0,1.083,0.753,1.083,1.235c0,0.098-0.011,0.173-0.017,0.222H39.884z M41.282,221.186c0.005-0.303-0.125-0.774-0.661-0.774
			c-0.482,0-0.693,0.444-0.731,0.774H41.282z"/>
		<path class="st1" d="M42.265,222.264c0.141,0.092,0.39,0.189,0.628,0.189c0.347,0,0.509-0.173,0.509-0.39
			c0-0.228-0.135-0.352-0.487-0.482c-0.471-0.168-0.693-0.428-0.693-0.742c0-0.422,0.341-0.769,0.905-0.769
			c0.265,0,0.498,0.076,0.645,0.162l-0.119,0.347c-0.103-0.065-0.292-0.151-0.537-0.151c-0.281,0-0.438,0.163-0.438,0.357
			c0,0.217,0.157,0.314,0.498,0.444c0.455,0.173,0.688,0.401,0.688,0.791c0,0.46-0.357,0.786-0.98,0.786
			c-0.287,0-0.552-0.07-0.736-0.179L42.265,222.264z"/>
		<path class="st1" d="M45.048,219.377v0.753h0.683v0.363h-0.683v1.414c0,0.325,0.092,0.509,0.357,0.509
			c0.125,0,0.217-0.016,0.276-0.032l0.021,0.357c-0.092,0.038-0.238,0.065-0.422,0.065c-0.222,0-0.401-0.07-0.515-0.201
			c-0.135-0.141-0.184-0.374-0.184-0.682v-1.43h-0.406v-0.363h0.406v-0.628L45.048,219.377z"/>
		<path class="st1" d="M46.796,219.393c0.005,0.163-0.114,0.292-0.303,0.292c-0.168,0-0.287-0.13-0.287-0.292
			c0-0.168,0.125-0.298,0.298-0.298C46.682,219.095,46.796,219.225,46.796,219.393z M46.265,222.751v-2.622h0.477v2.622H46.265z"/>
		<path class="st1" d="M48.984,222.751l-0.038-0.331h-0.016c-0.146,0.206-0.428,0.39-0.802,0.39c-0.531,0-0.802-0.374-0.802-0.753
			c0-0.634,0.563-0.98,1.577-0.975v-0.054c0-0.217-0.06-0.606-0.596-0.606c-0.244,0-0.498,0.076-0.683,0.195l-0.108-0.314
			c0.216-0.141,0.531-0.233,0.861-0.233c0.802,0,0.997,0.547,0.997,1.072v0.98c0,0.228,0.011,0.45,0.043,0.628H48.984z
			 M48.913,221.413c-0.52-0.011-1.11,0.081-1.11,0.59c0,0.309,0.206,0.455,0.449,0.455c0.341,0,0.558-0.217,0.634-0.439
			c0.017-0.049,0.027-0.103,0.027-0.151V221.413z"/>
		<path class="st1" d="M50.672,219.393c0.005,0.163-0.114,0.292-0.303,0.292c-0.168,0-0.287-0.13-0.287-0.292
			c0-0.168,0.125-0.298,0.298-0.298C50.558,219.095,50.672,219.225,50.672,219.393z M50.141,222.751v-2.622h0.477v2.622H50.141z"/>
		<path class="st1" d="M51.408,220.947c0-0.309-0.005-0.574-0.022-0.818h0.417l0.016,0.515h0.021
			c0.119-0.353,0.406-0.574,0.726-0.574c0.054,0,0.092,0.005,0.135,0.016v0.45c-0.049-0.011-0.097-0.017-0.163-0.017
			c-0.335,0-0.574,0.255-0.639,0.612c-0.011,0.065-0.021,0.141-0.021,0.222v1.397h-0.471V220.947z"/>
		<path class="st1" d="M53.388,221.527c0.011,0.645,0.423,0.91,0.899,0.91c0.341,0,0.547-0.06,0.726-0.136l0.081,0.341
			c-0.168,0.076-0.455,0.163-0.872,0.163c-0.807,0-1.289-0.531-1.289-1.322s0.466-1.414,1.229-1.414
			c0.856,0,1.083,0.753,1.083,1.235c0,0.098-0.011,0.173-0.017,0.222H53.388z M54.786,221.186c0.005-0.303-0.125-0.774-0.661-0.774
			c-0.482,0-0.693,0.444-0.731,0.774H54.786z"/>
		<path class="st1" d="M56.998,219.1h1.966v0.396H57.47v1.213h1.381v0.39H57.47v1.652h-0.471V219.1z"/>
		<path class="st1" d="M59.716,221.527c0.011,0.645,0.423,0.91,0.899,0.91c0.341,0,0.547-0.06,0.726-0.136l0.081,0.341
			c-0.168,0.076-0.455,0.163-0.872,0.163c-0.807,0-1.289-0.531-1.289-1.322s0.466-1.414,1.229-1.414
			c0.856,0,1.083,0.753,1.083,1.235c0,0.098-0.011,0.173-0.017,0.222H59.716z M61.114,221.186c0.005-0.303-0.125-0.774-0.661-0.774
			c-0.482,0-0.693,0.444-0.731,0.774H61.114z"/>
		<path class="st1" d="M62.162,220.839c0-0.271-0.005-0.493-0.022-0.709h0.417l0.021,0.422h0.016
			c0.146-0.249,0.39-0.482,0.824-0.482c0.357,0,0.628,0.216,0.742,0.525h0.011c0.081-0.146,0.184-0.26,0.292-0.341
			c0.157-0.119,0.33-0.184,0.58-0.184c0.347,0,0.861,0.228,0.861,1.137v1.544H65.44v-1.484c0-0.503-0.185-0.807-0.569-0.807
			c-0.271,0-0.482,0.201-0.563,0.434c-0.021,0.065-0.038,0.151-0.038,0.238v1.62h-0.466v-1.571c0-0.417-0.184-0.721-0.547-0.721
			c-0.298,0-0.515,0.238-0.59,0.477c-0.027,0.07-0.038,0.151-0.038,0.233v1.582h-0.466V220.839z"/>
		<path class="st1" d="M66.677,220.839c0-0.271-0.005-0.493-0.022-0.709h0.417l0.021,0.422h0.016
			c0.146-0.249,0.39-0.482,0.824-0.482c0.357,0,0.628,0.216,0.742,0.525h0.011c0.081-0.146,0.184-0.26,0.292-0.341
			c0.157-0.119,0.33-0.184,0.58-0.184c0.347,0,0.861,0.228,0.861,1.137v1.544h-0.466v-1.484c0-0.503-0.185-0.807-0.569-0.807
			c-0.271,0-0.482,0.201-0.563,0.434c-0.021,0.065-0.038,0.151-0.038,0.238v1.62h-0.466v-1.571c0-0.417-0.184-0.721-0.547-0.721
			c-0.298,0-0.515,0.238-0.59,0.477c-0.027,0.07-0.038,0.151-0.038,0.233v1.582h-0.466V220.839z"/>
		<path class="st1" d="M71.456,221.527c0.011,0.645,0.423,0.91,0.899,0.91c0.341,0,0.547-0.06,0.726-0.136l0.081,0.341
			c-0.168,0.076-0.455,0.163-0.872,0.163c-0.807,0-1.289-0.531-1.289-1.322s0.466-1.414,1.229-1.414
			c0.856,0,1.083,0.753,1.083,1.235c0,0.098-0.011,0.173-0.017,0.222H71.456z M72.854,221.186c0.005-0.303-0.125-0.774-0.661-0.774
			c-0.482,0-0.693,0.444-0.731,0.774H72.854z"/>
		<path class="st1" d="M73.838,222.264c0.141,0.092,0.39,0.189,0.628,0.189c0.347,0,0.509-0.173,0.509-0.39
			c0-0.228-0.135-0.352-0.487-0.482c-0.471-0.168-0.693-0.428-0.693-0.742c0-0.422,0.341-0.769,0.905-0.769
			c0.265,0,0.498,0.076,0.645,0.162l-0.119,0.347c-0.103-0.065-0.292-0.151-0.537-0.151c-0.281,0-0.438,0.163-0.438,0.357
			c0,0.217,0.157,0.314,0.498,0.444c0.455,0.173,0.688,0.401,0.688,0.791c0,0.46-0.357,0.786-0.98,0.786
			c-0.287,0-0.552-0.07-0.736-0.179L73.838,222.264z"/>
	</g>
</g>
<g>
	<path class="st0" d="M117.318,299.083H67.478c-1.388,0-2.513-1.125-2.513-2.513v-4.784c0-1.388,1.125-2.513,2.513-2.513h49.841
		c1.388,0,2.513,1.125,2.513,2.513v4.784C119.832,297.957,118.707,299.083,117.318,299.083z"/>
	<g>
		<path class="st1" d="M74.045,295.526l-1.192-3.651h0.509l0.569,1.798c0.157,0.493,0.292,0.937,0.39,1.365h0.011
			c0.103-0.423,0.254-0.883,0.417-1.36l0.618-1.804h0.504l-1.306,3.651H74.045z"/>
		<path class="st1" d="M76.334,294.302c0.011,0.645,0.423,0.91,0.899,0.91c0.341,0,0.547-0.06,0.726-0.136l0.081,0.341
			c-0.168,0.076-0.455,0.163-0.872,0.163c-0.807,0-1.289-0.531-1.289-1.322s0.466-1.414,1.229-1.414
			c0.856,0,1.083,0.753,1.083,1.235c0,0.098-0.011,0.173-0.017,0.222H76.334z M77.732,293.961c0.005-0.303-0.125-0.774-0.661-0.774
			c-0.482,0-0.693,0.444-0.731,0.774H77.732z"/>
		<path class="st1" d="M78.716,295.039c0.141,0.092,0.39,0.189,0.628,0.189c0.347,0,0.509-0.173,0.509-0.39
			c0-0.228-0.135-0.352-0.487-0.482c-0.471-0.168-0.693-0.428-0.693-0.742c0-0.422,0.341-0.769,0.905-0.769
			c0.265,0,0.498,0.076,0.645,0.162l-0.119,0.347c-0.103-0.065-0.292-0.151-0.537-0.151c-0.281,0-0.438,0.163-0.438,0.357
			c0,0.217,0.157,0.314,0.498,0.444c0.455,0.173,0.688,0.401,0.688,0.791c0,0.46-0.357,0.786-0.98,0.786
			c-0.287,0-0.552-0.07-0.736-0.179L78.716,295.039z"/>
		<path class="st1" d="M81.498,292.152v0.753h0.683v0.363h-0.683v1.414c0,0.325,0.092,0.509,0.357,0.509
			c0.125,0,0.217-0.016,0.276-0.032l0.021,0.357c-0.092,0.038-0.238,0.065-0.422,0.065c-0.222,0-0.401-0.07-0.515-0.201
			c-0.135-0.141-0.184-0.374-0.184-0.682v-1.43h-0.406v-0.363h0.406v-0.628L81.498,292.152z"/>
		<path class="st1" d="M83.247,292.168c0.005,0.163-0.114,0.292-0.303,0.292c-0.168,0-0.287-0.13-0.287-0.292
			c0-0.168,0.125-0.298,0.298-0.298C83.133,291.87,83.247,292,83.247,292.168z M82.716,295.526v-2.622h0.477v2.622H82.716z"/>
		<path class="st1" d="M85.434,295.526l-0.038-0.331H85.38c-0.146,0.206-0.428,0.39-0.802,0.39c-0.531,0-0.802-0.374-0.802-0.753
			c0-0.634,0.563-0.98,1.577-0.975v-0.054c0-0.217-0.06-0.606-0.596-0.606c-0.244,0-0.498,0.076-0.683,0.195l-0.108-0.314
			c0.216-0.141,0.531-0.233,0.861-0.233c0.802,0,0.997,0.547,0.997,1.072v0.98c0,0.228,0.011,0.45,0.043,0.628H85.434z
			 M85.364,294.188c-0.52-0.011-1.11,0.081-1.11,0.59c0,0.309,0.206,0.455,0.449,0.455c0.341,0,0.558-0.217,0.634-0.439
			c0.017-0.049,0.027-0.103,0.027-0.151V294.188z"/>
		<path class="st1" d="M87.122,292.168c0.005,0.163-0.114,0.292-0.303,0.292c-0.168,0-0.287-0.13-0.287-0.292
			c0-0.168,0.125-0.298,0.298-0.298C87.009,291.87,87.122,292,87.122,292.168z M86.592,295.526v-2.622h0.477v2.622H86.592z"/>
		<path class="st1" d="M87.858,293.722c0-0.309-0.005-0.574-0.022-0.818h0.417l0.016,0.515h0.021
			c0.119-0.353,0.406-0.574,0.726-0.574c0.054,0,0.092,0.005,0.135,0.016v0.45c-0.049-0.011-0.097-0.017-0.163-0.017
			c-0.335,0-0.574,0.255-0.639,0.612c-0.011,0.065-0.021,0.141-0.021,0.222v1.397h-0.471V293.722z"/>
		<path class="st1" d="M89.839,294.302c0.011,0.645,0.423,0.91,0.899,0.91c0.341,0,0.547-0.06,0.726-0.136l0.081,0.341
			c-0.168,0.076-0.455,0.163-0.872,0.163c-0.807,0-1.289-0.531-1.289-1.322s0.466-1.414,1.229-1.414
			c0.856,0,1.083,0.753,1.083,1.235c0,0.098-0.011,0.173-0.017,0.222H89.839z M91.237,293.961c0.005-0.303-0.125-0.774-0.661-0.774
			c-0.482,0-0.693,0.444-0.731,0.774H91.237z"/>
		<path class="st1" d="M93.92,291.875v1.527h1.766v-1.527h0.477v3.651h-0.477v-1.712H93.92v1.712h-0.471v-3.651H93.92z"/>
		<path class="st1" d="M99.335,294.194c0,0.97-0.672,1.392-1.306,1.392c-0.709,0-1.256-0.52-1.256-1.349
			c0-0.878,0.574-1.392,1.3-1.392C98.825,292.845,99.335,293.392,99.335,294.194z M97.255,294.22c0,0.574,0.331,1.008,0.796,1.008
			c0.455,0,0.796-0.428,0.796-1.019c0-0.444-0.222-1.007-0.785-1.007S97.255,293.722,97.255,294.22z"/>
		<path class="st1" d="M99.934,293.614c0-0.271-0.005-0.493-0.022-0.709h0.417l0.021,0.422h0.016
			c0.146-0.249,0.39-0.482,0.824-0.482c0.357,0,0.628,0.216,0.742,0.525h0.011c0.081-0.146,0.184-0.26,0.292-0.341
			c0.157-0.119,0.33-0.184,0.58-0.184c0.347,0,0.861,0.228,0.861,1.137v1.544h-0.466v-1.484c0-0.503-0.185-0.807-0.569-0.807
			c-0.271,0-0.482,0.201-0.563,0.434c-0.021,0.065-0.038,0.151-0.038,0.238v1.62h-0.466v-1.571c0-0.417-0.184-0.721-0.547-0.721
			c-0.298,0-0.515,0.238-0.59,0.477c-0.027,0.07-0.038,0.151-0.038,0.233v1.582h-0.466V293.614z"/>
		<path class="st1" d="M104.448,293.614c0-0.271-0.005-0.493-0.022-0.709h0.417l0.021,0.422h0.016
			c0.146-0.249,0.39-0.482,0.824-0.482c0.357,0,0.628,0.216,0.742,0.525h0.011c0.081-0.146,0.184-0.26,0.292-0.341
			c0.157-0.119,0.33-0.184,0.58-0.184c0.347,0,0.861,0.228,0.861,1.137v1.544h-0.466v-1.484c0-0.503-0.185-0.807-0.569-0.807
			c-0.271,0-0.482,0.201-0.563,0.434c-0.021,0.065-0.038,0.151-0.038,0.238v1.62h-0.466v-1.571c0-0.417-0.184-0.721-0.547-0.721
			c-0.298,0-0.515,0.238-0.59,0.477c-0.027,0.07-0.038,0.151-0.038,0.233v1.582h-0.466V293.614z"/>
		<path class="st1" d="M109.227,294.302c0.011,0.645,0.423,0.91,0.899,0.91c0.341,0,0.547-0.06,0.726-0.136l0.081,0.341
			c-0.168,0.076-0.455,0.163-0.872,0.163c-0.807,0-1.289-0.531-1.289-1.322s0.466-1.414,1.229-1.414
			c0.856,0,1.083,0.753,1.083,1.235c0,0.098-0.011,0.173-0.017,0.222H109.227z M110.625,293.961
			c0.005-0.303-0.125-0.774-0.661-0.774c-0.482,0-0.693,0.444-0.731,0.774H110.625z"/>
		<path class="st1" d="M111.609,295.039c0.141,0.092,0.39,0.189,0.628,0.189c0.347,0,0.509-0.173,0.509-0.39
			c0-0.228-0.135-0.352-0.487-0.482c-0.471-0.168-0.693-0.428-0.693-0.742c0-0.422,0.341-0.769,0.905-0.769
			c0.265,0,0.498,0.076,0.645,0.162l-0.119,0.347c-0.103-0.065-0.292-0.151-0.537-0.151c-0.281,0-0.438,0.163-0.438,0.357
			c0,0.217,0.157,0.314,0.498,0.444c0.455,0.173,0.688,0.401,0.688,0.791c0,0.46-0.357,0.786-0.98,0.786
			c-0.287,0-0.552-0.07-0.736-0.179L111.609,295.039z"/>
	</g>
</g>
<g>
	<path class="st0" d="M170.473,199.056h-68.191c-1.388,0-2.513-1.125-2.513-2.513v-11.271c0-1.388,1.125-2.513,2.513-2.513h68.191
		c1.388,0,2.513,1.125,2.513,2.513v11.271C172.986,197.931,171.861,199.056,170.473,199.056z"/>
	<g>
		<path class="st1" d="M123.889,187.561c0.377-0.063,0.872-0.117,1.501-0.117c0.773,0,1.339,0.18,1.698,0.503
			c0.333,0.288,0.53,0.728,0.53,1.267c0,0.548-0.162,0.979-0.467,1.294c-0.413,0.44-1.087,0.665-1.851,0.665
			c-0.234,0-0.45-0.009-0.629-0.054v2.427h-0.782V187.561z M124.671,190.482c0.171,0.045,0.387,0.063,0.647,0.063
			c0.944,0,1.519-0.458,1.519-1.294c0-0.8-0.566-1.187-1.429-1.187c-0.342,0-0.603,0.027-0.737,0.063V190.482z"/>
		<path class="st1" d="M129.383,187.974c0.009,0.27-0.188,0.485-0.503,0.485c-0.279,0-0.477-0.216-0.477-0.485
			c0-0.278,0.207-0.494,0.495-0.494C129.194,187.48,129.383,187.696,129.383,187.974z M128.502,193.547v-4.35h0.791v4.35H128.502z"
			/>
		<path class="st1" d="M130.498,192.738c0.233,0.153,0.647,0.315,1.042,0.315c0.575,0,0.845-0.288,0.845-0.647
			c0-0.377-0.225-0.584-0.809-0.8c-0.782-0.278-1.15-0.71-1.15-1.231c0-0.701,0.566-1.276,1.5-1.276c0.44,0,0.827,0.126,1.07,0.27
			l-0.198,0.575c-0.171-0.108-0.485-0.251-0.89-0.251c-0.468,0-0.728,0.27-0.728,0.593c0,0.359,0.26,0.521,0.827,0.737
			c0.755,0.288,1.142,0.665,1.142,1.312c0,0.764-0.593,1.303-1.627,1.303c-0.476,0-0.917-0.117-1.222-0.296L130.498,192.738z"/>
		<path class="st1" d="M137.268,193.385c-0.207,0.108-0.665,0.251-1.25,0.251c-1.312,0-2.166-0.89-2.166-2.22
			c0-1.339,0.917-2.31,2.337-2.31c0.467,0,0.881,0.117,1.097,0.225l-0.18,0.611c-0.189-0.108-0.485-0.207-0.917-0.207
			c-0.998,0-1.537,0.737-1.537,1.645c0,1.007,0.647,1.627,1.51,1.627c0.449,0,0.746-0.117,0.971-0.216L137.268,193.385z"/>
		<path class="st1" d="M139.076,187.974c0.009,0.27-0.188,0.485-0.503,0.485c-0.279,0-0.477-0.216-0.477-0.485
			c0-0.278,0.207-0.494,0.495-0.494C138.888,187.48,139.076,187.696,139.076,187.974z M138.196,193.547v-4.35h0.791v4.35H138.196z"
			/>
		<path class="st1" d="M140.3,190.374c0-0.45-0.009-0.818-0.036-1.178h0.701l0.045,0.719h0.018c0.215-0.414,0.719-0.818,1.438-0.818
			c0.602,0,1.537,0.359,1.537,1.852v2.597h-0.791v-2.507c0-0.701-0.26-1.285-1.006-1.285c-0.521,0-0.926,0.368-1.061,0.809
			c-0.036,0.099-0.054,0.234-0.054,0.369v2.615H140.3V190.374z"/>
		<path class="st1" d="M145.73,191.515c0.018,1.07,0.701,1.51,1.492,1.51c0.566,0,0.908-0.099,1.204-0.225l0.135,0.566
			c-0.279,0.126-0.755,0.27-1.447,0.27c-1.339,0-2.139-0.881-2.139-2.193s0.773-2.346,2.041-2.346c1.42,0,1.797,1.249,1.797,2.049
			c0,0.162-0.018,0.288-0.027,0.368H145.73z M148.049,190.949c0.009-0.503-0.207-1.286-1.096-1.286c-0.8,0-1.15,0.737-1.213,1.286
			H148.049z"/>
	</g>
</g>
<g>
</g>
<g>
</g>
<g>
</g>
<g>
</g>
<g>
</g>
<g>
</g>
</svg>
