<?xml version="1.0" encoding="utf-8"?>
<!-- Generator: Adobe Illustrator 19.0.1, SVG Export Plug-In . SVG Version: 6.00 Build 0)  -->
<svg version="1.1" id="numeros_locaux" xmlns="http://www.w3.org/2000/svg" xmlns:xlink="http://www.w3.org/1999/xlink" x="0px"
	 y="0px" width="761.962px" height="716.964px" viewBox="0 0 761.962 716.964" style="enable-background:new 0 0 761.962 716.964;"
	 xml:space="preserve">
<style type="text/css">
	.st0{fill:#383938;}
</style>
<g>
	<g>
		<path class="st0" d="M190.917,390.093c0,0.251-0.06,0.448-0.18,0.59c-0.12,0.144-0.278,0.215-0.475,0.215
			c-0.199,0-0.359-0.071-0.48-0.215c-0.121-0.142-0.181-0.339-0.181-0.59v-0.584c0-0.25,0.06-0.446,0.18-0.59
			c0.12-0.145,0.279-0.217,0.478-0.217c0.197,0,0.356,0.072,0.477,0.217c0.12,0.144,0.181,0.34,0.181,0.59V390.093z
			 M190.502,389.472c0-0.141-0.022-0.25-0.065-0.328c-0.044-0.078-0.103-0.117-0.178-0.117c-0.077,0-0.137,0.039-0.179,0.117
			c-0.043,0.078-0.064,0.188-0.064,0.328v0.654c0,0.145,0.021,0.255,0.064,0.332c0.043,0.078,0.104,0.117,0.182,0.117
			c0.075,0,0.134-0.039,0.176-0.117c0.043-0.077,0.064-0.188,0.064-0.332V389.472z"/>
		<path class="st0" d="M192.333,390.073h0.204v0.325h-0.204v0.469h-0.416v-0.469h-0.769l-0.021-0.254l0.788-1.41h0.417V390.073z
			 M191.495,390.073h0.422v-0.771l-0.009-0.002l-0.038,0.086L191.495,390.073z"/>
		<path class="st0" d="M193.706,390.867h-0.415v-1.773l-0.39,0.01v-0.318l0.804-0.082V390.867z"/>
		<path class="st0" d="M195.659,389.058c-0.213,0.263-0.357,0.509-0.433,0.738c-0.076,0.229-0.114,0.499-0.114,0.81v0.261h-0.416
			v-0.261c0-0.3,0.048-0.574,0.144-0.822c0.096-0.249,0.236-0.49,0.42-0.726h-0.967v-0.324h1.365V389.058z"/>
	</g>
</g>
<g>
	<g>
		<path class="st0" d="M160.542,383.602c0,0.251-0.06,0.448-0.18,0.59c-0.12,0.144-0.278,0.215-0.475,0.215
			c-0.199,0-0.359-0.071-0.48-0.215c-0.121-0.142-0.181-0.339-0.181-0.59v-0.584c0-0.25,0.06-0.446,0.18-0.59
			c0.12-0.145,0.279-0.217,0.478-0.217c0.197,0,0.356,0.072,0.477,0.217c0.12,0.144,0.181,0.34,0.181,0.59V383.602z
			 M160.127,382.981c0-0.141-0.022-0.25-0.065-0.328c-0.044-0.078-0.103-0.117-0.178-0.117c-0.077,0-0.137,0.039-0.179,0.117
			c-0.043,0.078-0.064,0.188-0.064,0.328v0.654c0,0.145,0.021,0.255,0.064,0.332c0.043,0.078,0.104,0.117,0.182,0.117
			c0.075,0,0.134-0.039,0.176-0.117c0.043-0.077,0.064-0.188,0.064-0.332V382.981z"/>
		<path class="st0" d="M161.958,383.582h0.204v0.325h-0.204v0.469h-0.416v-0.469h-0.769l-0.021-0.254l0.788-1.41h0.417V383.582z
			 M161.12,383.582h0.422v-0.771l-0.009-0.002l-0.038,0.086L161.12,383.582z"/>
		<path class="st0" d="M163.331,384.376h-0.415v-1.773l-0.39,0.01v-0.318l0.804-0.082V384.376z"/>
		<path class="st0" d="M164.003,383.434l0.111-1.191h1.093v0.332h-0.753l-0.051,0.518c0.036-0.03,0.082-0.056,0.135-0.076
			c0.055-0.021,0.112-0.031,0.174-0.033c0.18-0.004,0.318,0.058,0.415,0.183s0.146,0.3,0.146,0.526c0,0.209-0.053,0.38-0.161,0.514
			c-0.106,0.134-0.272,0.201-0.496,0.201c-0.18,0-0.334-0.053-0.463-0.157s-0.191-0.247-0.186-0.428l0.003-0.007l0.401-0.021
			c0,0.093,0.022,0.164,0.067,0.215s0.104,0.076,0.177,0.076c0.085,0,0.146-0.033,0.184-0.1c0.037-0.066,0.056-0.163,0.056-0.291
			c0-0.126-0.021-0.227-0.063-0.301c-0.042-0.073-0.105-0.11-0.19-0.11c-0.067,0-0.119,0.016-0.155,0.047s-0.061,0.074-0.075,0.129
			L164.003,383.434z"/>
	</g>
</g>
<g>
	<g>
		<path class="st0" d="M158.428,377.533c0,0.251-0.06,0.448-0.18,0.59c-0.12,0.144-0.278,0.215-0.475,0.215
			c-0.199,0-0.359-0.071-0.48-0.215c-0.121-0.142-0.181-0.339-0.181-0.59v-0.584c0-0.25,0.06-0.446,0.18-0.59
			c0.12-0.145,0.279-0.217,0.478-0.217c0.197,0,0.356,0.072,0.477,0.217c0.12,0.144,0.181,0.34,0.181,0.59V377.533z
			 M158.013,376.912c0-0.141-0.022-0.25-0.065-0.328c-0.044-0.078-0.103-0.117-0.178-0.117c-0.077,0-0.137,0.039-0.179,0.117
			c-0.043,0.078-0.064,0.188-0.064,0.328v0.654c0,0.145,0.021,0.255,0.064,0.332c0.043,0.078,0.104,0.117,0.182,0.117
			c0.075,0,0.134-0.039,0.176-0.117c0.043-0.077,0.064-0.188,0.064-0.332V376.912z"/>
		<path class="st0" d="M159.845,377.512h0.204v0.325h-0.204v0.469h-0.416v-0.469h-0.769l-0.021-0.254l0.788-1.41h0.417V377.512z
			 M159.007,377.512h0.422v-0.771l-0.009-0.002l-0.038,0.086L159.007,377.512z"/>
		<path class="st0" d="M161.217,378.306h-0.415v-1.773l-0.39,0.01v-0.318l0.804-0.082V378.306z"/>
		<path class="st0" d="M162.994,377.512h0.204v0.325h-0.204v0.469h-0.416v-0.469h-0.769l-0.021-0.254l0.788-1.41h0.417V377.512z
			 M162.156,377.512h0.422v-0.771l-0.009-0.002l-0.038,0.086L162.156,377.512z"/>
	</g>
</g>
<g>
	<g>
		<path class="st0" d="M154.93,371.175c0,0.251-0.06,0.448-0.18,0.59c-0.12,0.144-0.278,0.215-0.475,0.215
			c-0.199,0-0.359-0.071-0.48-0.215c-0.121-0.142-0.181-0.339-0.181-0.59v-0.584c0-0.25,0.06-0.446,0.18-0.59
			c0.12-0.145,0.279-0.217,0.478-0.217c0.197,0,0.356,0.072,0.477,0.217c0.12,0.144,0.181,0.34,0.181,0.59V371.175z
			 M154.515,370.553c0-0.141-0.022-0.25-0.065-0.328c-0.044-0.078-0.103-0.117-0.178-0.117c-0.077,0-0.137,0.039-0.179,0.117
			c-0.043,0.078-0.064,0.188-0.064,0.328v0.654c0,0.145,0.021,0.255,0.064,0.332c0.043,0.078,0.104,0.117,0.182,0.117
			c0.075,0,0.134-0.039,0.176-0.117c0.043-0.077,0.064-0.188,0.064-0.332V370.553z"/>
		<path class="st0" d="M156.346,371.154h0.204v0.325h-0.204v0.469h-0.416v-0.469h-0.769l-0.021-0.254l0.788-1.41h0.417V371.154z
			 M155.508,371.154h0.422v-0.771l-0.009-0.002l-0.038,0.086L155.508,371.154z"/>
		<path class="st0" d="M157.719,371.948h-0.415v-1.773l-0.39,0.01v-0.318l0.804-0.082V371.948z"/>
		<path class="st0" d="M158.984,370.7c0.084,0,0.147-0.027,0.189-0.081c0.042-0.055,0.063-0.129,0.063-0.226
			c0-0.08-0.022-0.148-0.066-0.203s-0.104-0.082-0.182-0.082c-0.063,0-0.117,0.024-0.16,0.072s-0.064,0.11-0.064,0.188h-0.404
			l-0.003-0.01c-0.005-0.167,0.054-0.305,0.177-0.412s0.274-0.162,0.454-0.162c0.202,0,0.363,0.053,0.484,0.157
			c0.12,0.104,0.181,0.253,0.181,0.446c0,0.1-0.026,0.189-0.079,0.271s-0.125,0.146-0.215,0.191
			c0.103,0.043,0.182,0.106,0.238,0.192s0.084,0.19,0.084,0.312c0,0.195-0.065,0.348-0.196,0.458c-0.13,0.111-0.297,0.167-0.5,0.167
			c-0.177,0-0.331-0.053-0.463-0.158c-0.132-0.104-0.195-0.254-0.19-0.449l0.003-0.008h0.403c0,0.083,0.023,0.152,0.07,0.208
			c0.047,0.057,0.106,0.085,0.177,0.085c0.084,0,0.152-0.029,0.204-0.087s0.078-0.131,0.078-0.222c0-0.114-0.024-0.199-0.072-0.254
			c-0.049-0.054-0.119-0.081-0.21-0.081h-0.215V370.7H158.984z"/>
	</g>
</g>
<g>
	<g>
		<path class="st0" d="M152.18,364.924c0,0.251-0.06,0.448-0.18,0.59c-0.12,0.144-0.278,0.215-0.475,0.215
			c-0.199,0-0.359-0.071-0.48-0.215c-0.121-0.142-0.181-0.339-0.181-0.59v-0.584c0-0.25,0.06-0.446,0.18-0.59
			c0.12-0.145,0.279-0.217,0.478-0.217c0.197,0,0.356,0.072,0.477,0.217c0.12,0.144,0.181,0.34,0.181,0.59V364.924z
			 M151.765,364.303c0-0.141-0.022-0.25-0.065-0.328c-0.044-0.078-0.103-0.117-0.178-0.117c-0.077,0-0.137,0.039-0.179,0.117
			c-0.043,0.078-0.064,0.188-0.064,0.328v0.654c0,0.145,0.021,0.255,0.064,0.332c0.043,0.078,0.104,0.118,0.182,0.118
			c0.075,0,0.134-0.04,0.176-0.118c0.043-0.077,0.064-0.188,0.064-0.332V364.303z"/>
		<path class="st0" d="M153.596,364.904h0.204v0.325h-0.204v0.469h-0.416v-0.469h-0.769l-0.021-0.254l0.788-1.41h0.417V364.904z
			 M152.758,364.904h0.422v-0.771l-0.009-0.002l-0.038,0.086L152.758,364.904z"/>
		<path class="st0" d="M154.969,365.698h-0.415v-1.774l-0.39,0.01v-0.318l0.804-0.082V365.698z"/>
		<path class="st0" d="M156.921,365.698h-1.307v-0.275l0.59-0.747c0.084-0.112,0.144-0.211,0.181-0.293
			c0.036-0.082,0.055-0.156,0.055-0.224c0-0.093-0.018-0.166-0.054-0.221c-0.036-0.054-0.09-0.081-0.165-0.081
			c-0.077,0-0.137,0.034-0.178,0.104c-0.042,0.068-0.062,0.157-0.062,0.264h-0.406l-0.004-0.008
			c-0.004-0.191,0.054-0.353,0.173-0.484c0.119-0.133,0.278-0.199,0.478-0.199c0.202,0,0.358,0.057,0.469,0.168
			c0.111,0.112,0.167,0.265,0.167,0.457c0,0.13-0.032,0.249-0.096,0.358s-0.171,0.256-0.321,0.438l-0.29,0.42h0.771V365.698z"/>
	</g>
</g>
<g>
	<g>
		<path class="st0" d="M167.932,335.799c0,0.251-0.06,0.448-0.18,0.59c-0.12,0.144-0.278,0.215-0.475,0.215
			c-0.199,0-0.359-0.071-0.48-0.215c-0.121-0.142-0.181-0.339-0.181-0.59v-0.584c0-0.25,0.06-0.446,0.18-0.59
			c0.12-0.145,0.279-0.217,0.478-0.217c0.197,0,0.356,0.072,0.477,0.217c0.12,0.144,0.181,0.34,0.181,0.59V335.799z
			 M167.518,335.178c0-0.141-0.022-0.25-0.065-0.328c-0.044-0.078-0.103-0.117-0.178-0.117c-0.077,0-0.137,0.039-0.179,0.117
			c-0.043,0.078-0.064,0.188-0.064,0.328v0.654c0,0.145,0.021,0.255,0.064,0.332c0.043,0.078,0.104,0.117,0.182,0.117
			c0.075,0,0.134-0.039,0.176-0.117c0.043-0.077,0.064-0.188,0.064-0.332V335.178z"/>
		<path class="st0" d="M169.349,335.779h0.204v0.325h-0.204v0.469h-0.416v-0.469h-0.769l-0.021-0.254l0.788-1.41h0.417V335.779z
			 M168.511,335.779h0.422v-0.771l-0.009-0.002l-0.038,0.086L168.511,335.779z"/>
		<path class="st0" d="M171.082,335.799c0,0.251-0.06,0.448-0.18,0.59c-0.12,0.144-0.278,0.215-0.475,0.215
			c-0.199,0-0.359-0.071-0.48-0.215c-0.121-0.142-0.181-0.339-0.181-0.59v-0.584c0-0.25,0.06-0.446,0.18-0.59
			c0.12-0.145,0.279-0.217,0.478-0.217c0.197,0,0.356,0.072,0.477,0.217c0.12,0.144,0.181,0.34,0.181,0.59V335.799z
			 M170.667,335.178c0-0.141-0.022-0.25-0.065-0.328c-0.044-0.078-0.103-0.117-0.178-0.117c-0.077,0-0.137,0.039-0.179,0.117
			c-0.043,0.078-0.064,0.188-0.064,0.328v0.654c0,0.145,0.021,0.255,0.064,0.332c0.043,0.078,0.104,0.117,0.182,0.117
			c0.075,0,0.134-0.039,0.176-0.117c0.043-0.077,0.064-0.188,0.064-0.332V335.178z"/>
		<path class="st0" d="M172.674,334.764c-0.213,0.263-0.357,0.509-0.433,0.738c-0.076,0.229-0.114,0.499-0.114,0.81v0.261h-0.416
			v-0.261c0-0.3,0.048-0.574,0.144-0.822c0.096-0.249,0.236-0.49,0.42-0.726h-0.967v-0.324h1.365V334.764z"/>
	</g>
</g>
<g>
	<g>
		<path class="st0" d="M149.611,348.799c0,0.251-0.06,0.448-0.18,0.59c-0.12,0.144-0.278,0.215-0.475,0.215
			c-0.199,0-0.359-0.071-0.48-0.215c-0.121-0.142-0.181-0.339-0.181-0.59v-0.584c0-0.25,0.06-0.446,0.18-0.59
			c0.12-0.145,0.279-0.217,0.478-0.217c0.197,0,0.356,0.072,0.477,0.217c0.12,0.144,0.181,0.34,0.181,0.59V348.799z
			 M149.196,348.178c0-0.141-0.022-0.25-0.065-0.328c-0.044-0.078-0.103-0.117-0.178-0.117c-0.077,0-0.137,0.039-0.179,0.117
			c-0.043,0.078-0.064,0.188-0.064,0.328v0.654c0,0.145,0.021,0.255,0.064,0.332c0.043,0.078,0.104,0.117,0.182,0.117
			c0.075,0,0.134-0.039,0.176-0.117c0.043-0.077,0.064-0.188,0.064-0.332V348.178z"/>
		<path class="st0" d="M151.027,348.779h0.204v0.325h-0.204v0.469h-0.416v-0.469h-0.769l-0.021-0.254l0.788-1.41h0.417V348.779z
			 M150.189,348.779h0.422v-0.771l-0.009-0.002l-0.038,0.086L150.189,348.779z"/>
		<path class="st0" d="M152.4,349.572h-0.415v-1.773l-0.39,0.01v-0.318l0.804-0.082V349.572z"/>
		<path class="st0" d="M154.304,347.993c0,0.105-0.025,0.199-0.075,0.28c-0.05,0.082-0.118,0.146-0.205,0.191
			c0.106,0.048,0.19,0.116,0.253,0.206c0.062,0.089,0.093,0.191,0.093,0.307c0,0.198-0.063,0.353-0.188,0.462
			s-0.286,0.164-0.481,0.164c-0.203,0-0.37-0.056-0.501-0.165c-0.131-0.11-0.196-0.264-0.196-0.461c0-0.115,0.032-0.218,0.096-0.307
			c0.063-0.09,0.151-0.158,0.263-0.206c-0.092-0.046-0.164-0.109-0.215-0.191c-0.052-0.081-0.078-0.175-0.078-0.28
			c0-0.188,0.058-0.332,0.175-0.433c0.117-0.102,0.269-0.152,0.455-0.152c0.18,0,0.325,0.051,0.438,0.151
			C154.248,347.66,154.304,347.805,154.304,347.993z M153.955,348.959c0-0.098-0.025-0.176-0.074-0.238
			c-0.05-0.061-0.11-0.092-0.183-0.092c-0.081,0-0.148,0.031-0.201,0.092c-0.053,0.063-0.079,0.141-0.079,0.238
			c0,0.099,0.026,0.177,0.079,0.234c0.053,0.059,0.12,0.088,0.202,0.088c0.073,0,0.134-0.029,0.182-0.088
			C153.931,349.136,153.955,349.058,153.955,348.959z M153.889,348.012c0-0.085-0.018-0.153-0.052-0.204
			c-0.035-0.05-0.081-0.075-0.139-0.075c-0.066,0-0.119,0.024-0.157,0.073s-0.057,0.118-0.057,0.206c0,0.09,0.02,0.16,0.059,0.214
			c0.039,0.053,0.091,0.079,0.157,0.079c0.058,0,0.104-0.025,0.138-0.078S153.889,348.103,153.889,348.012z"/>
	</g>
</g>
<g>
	<g>
		<path class="st0" d="M143.466,341.79c0,0.251-0.06,0.448-0.18,0.59c-0.12,0.144-0.278,0.215-0.475,0.215
			c-0.199,0-0.359-0.071-0.48-0.215c-0.121-0.142-0.181-0.339-0.181-0.59v-0.584c0-0.25,0.06-0.446,0.18-0.59
			c0.12-0.145,0.279-0.217,0.478-0.217c0.197,0,0.356,0.072,0.477,0.217c0.12,0.144,0.181,0.34,0.181,0.59V341.79z M143.051,341.169
			c0-0.141-0.022-0.25-0.065-0.328c-0.044-0.078-0.103-0.117-0.178-0.117c-0.077,0-0.137,0.039-0.179,0.117
			c-0.043,0.078-0.064,0.188-0.064,0.328v0.654c0,0.145,0.021,0.255,0.064,0.332c0.043,0.078,0.104,0.117,0.182,0.117
			c0.075,0,0.134-0.039,0.176-0.117c0.043-0.077,0.064-0.188,0.064-0.332V341.169z"/>
		<path class="st0" d="M144.882,341.769h0.204v0.325h-0.204v0.469h-0.416v-0.469h-0.769l-0.021-0.254l0.788-1.41h0.417V341.769z
			 M144.044,341.769h0.422v-0.771l-0.009-0.002l-0.038,0.086L144.044,341.769z"/>
		<path class="st0" d="M146.615,341.79c0,0.251-0.06,0.448-0.18,0.59c-0.12,0.144-0.278,0.215-0.475,0.215
			c-0.199,0-0.359-0.071-0.48-0.215c-0.121-0.142-0.181-0.339-0.181-0.59v-0.584c0-0.25,0.06-0.446,0.18-0.59
			c0.12-0.145,0.279-0.217,0.478-0.217c0.197,0,0.356,0.072,0.477,0.217c0.12,0.144,0.181,0.34,0.181,0.59V341.79z M146.201,341.169
			c0-0.141-0.022-0.25-0.065-0.328c-0.044-0.078-0.103-0.117-0.178-0.117c-0.077,0-0.137,0.039-0.179,0.117
			c-0.043,0.078-0.064,0.188-0.064,0.328v0.654c0,0.145,0.021,0.255,0.064,0.332c0.043,0.078,0.104,0.117,0.182,0.117
			c0.075,0,0.134-0.039,0.176-0.117c0.043-0.077,0.064-0.188,0.064-0.332V341.169z"/>
		<path class="st0" d="M147.462,342.272c0.088,0,0.16-0.04,0.217-0.12c0.057-0.079,0.085-0.189,0.085-0.33v-0.146
			c-0.042,0.061-0.091,0.105-0.149,0.135c-0.057,0.031-0.118,0.046-0.182,0.046c-0.177,0-0.316-0.064-0.417-0.194
			c-0.102-0.129-0.152-0.303-0.152-0.521c0-0.211,0.061-0.388,0.183-0.529s0.278-0.213,0.469-0.213c0.194,0,0.354,0.073,0.478,0.218
			c0.124,0.146,0.186,0.347,0.186,0.603v0.578c0,0.242-0.068,0.437-0.204,0.58c-0.136,0.145-0.307,0.217-0.514,0.217
			c-0.066,0-0.135-0.009-0.207-0.024c-0.071-0.017-0.138-0.039-0.199-0.068l0.069-0.3c0.055,0.024,0.108,0.042,0.161,0.053
			C147.337,342.266,147.396,342.272,147.462,342.272z M147.509,341.552c0.056,0,0.105-0.014,0.149-0.041
			c0.043-0.027,0.079-0.063,0.106-0.11v-0.254c0-0.139-0.022-0.243-0.067-0.315s-0.104-0.108-0.179-0.108
			c-0.072,0-0.13,0.041-0.174,0.122c-0.044,0.082-0.066,0.181-0.066,0.296c0,0.123,0.02,0.222,0.059,0.298
			C147.376,341.514,147.433,341.552,147.509,341.552z"/>
	</g>
</g>
<g>
	<g>
		<path class="st0" d="M138.466,327.04c0,0.251-0.06,0.448-0.18,0.59c-0.12,0.144-0.278,0.215-0.475,0.215
			c-0.199,0-0.359-0.071-0.48-0.215c-0.121-0.142-0.181-0.339-0.181-0.59v-0.584c0-0.25,0.06-0.446,0.18-0.59
			c0.12-0.145,0.279-0.217,0.478-0.217c0.197,0,0.356,0.072,0.477,0.217c0.12,0.144,0.181,0.34,0.181,0.59V327.04z M138.051,326.419
			c0-0.141-0.022-0.25-0.065-0.328c-0.044-0.078-0.103-0.117-0.178-0.117c-0.077,0-0.137,0.039-0.179,0.117
			c-0.043,0.078-0.064,0.188-0.064,0.328v0.654c0,0.145,0.021,0.255,0.064,0.332c0.043,0.078,0.104,0.117,0.182,0.117
			c0.075,0,0.134-0.039,0.176-0.117c0.043-0.077,0.064-0.188,0.064-0.332V326.419z"/>
		<path class="st0" d="M139.882,327.019h0.204v0.325h-0.204v0.469h-0.416v-0.469h-0.769l-0.021-0.254l0.788-1.41h0.417V327.019z
			 M139.044,327.019h0.422v-0.771l-0.009-0.002l-0.038,0.086L139.044,327.019z"/>
		<path class="st0" d="M141.255,327.813h-0.415v-1.773l-0.39,0.01v-0.318l0.804-0.082V327.813z"/>
		<path class="st0" d="M142.829,327.813h-0.415v-1.773l-0.39,0.01v-0.318l0.804-0.082V327.813z"/>
	</g>
</g>
<g>
	<g>
		<path class="st0" d="M244.862,451.343c0,0.251-0.06,0.448-0.18,0.59c-0.12,0.144-0.278,0.215-0.475,0.215
			c-0.199,0-0.359-0.071-0.48-0.215c-0.121-0.142-0.181-0.339-0.181-0.59v-0.584c0-0.25,0.06-0.446,0.18-0.59
			c0.12-0.145,0.279-0.217,0.478-0.217c0.197,0,0.356,0.072,0.477,0.217c0.12,0.144,0.181,0.34,0.181,0.59V451.343z
			 M244.447,450.722c0-0.141-0.022-0.25-0.065-0.328c-0.044-0.078-0.103-0.117-0.178-0.117c-0.077,0-0.137,0.039-0.179,0.117
			c-0.043,0.078-0.064,0.188-0.064,0.328v0.654c0,0.145,0.021,0.255,0.064,0.332c0.043,0.078,0.104,0.117,0.182,0.117
			c0.075,0,0.134-0.039,0.176-0.117c0.043-0.077,0.064-0.188,0.064-0.332V450.722z"/>
		<path class="st0" d="M246.278,451.323h0.204v0.325h-0.204v0.469h-0.416v-0.469h-0.769l-0.021-0.254l0.788-1.41h0.417V451.323z
			 M245.44,451.323h0.422v-0.771l-0.009-0.002l-0.038,0.086L245.44,451.323z"/>
		<path class="st0" d="M247.342,450.869c0.084,0,0.147-0.027,0.189-0.081c0.042-0.055,0.063-0.129,0.063-0.226
			c0-0.08-0.022-0.148-0.066-0.203s-0.104-0.082-0.182-0.082c-0.063,0-0.117,0.024-0.16,0.072s-0.064,0.11-0.064,0.188h-0.404
			l-0.003-0.01c-0.005-0.167,0.054-0.305,0.177-0.412s0.274-0.162,0.454-0.162c0.202,0,0.363,0.053,0.484,0.157
			c0.12,0.104,0.181,0.253,0.181,0.446c0,0.1-0.026,0.189-0.079,0.271s-0.125,0.146-0.215,0.191
			c0.103,0.043,0.182,0.106,0.238,0.192s0.084,0.19,0.084,0.312c0,0.195-0.065,0.348-0.196,0.458c-0.13,0.111-0.297,0.167-0.5,0.167
			c-0.177,0-0.331-0.053-0.463-0.158c-0.132-0.104-0.195-0.254-0.19-0.449l0.003-0.008h0.403c0,0.083,0.023,0.152,0.07,0.208
			c0.047,0.057,0.106,0.085,0.177,0.085c0.084,0,0.152-0.029,0.204-0.087s0.078-0.131,0.078-0.222c0-0.114-0.024-0.199-0.072-0.254
			c-0.049-0.054-0.119-0.081-0.21-0.081h-0.215v-0.313H247.342z"/>
		<path class="st0" d="M249.586,451.343c0,0.251-0.06,0.448-0.18,0.59c-0.12,0.144-0.278,0.215-0.475,0.215
			c-0.199,0-0.359-0.071-0.48-0.215c-0.121-0.142-0.181-0.339-0.181-0.59v-0.584c0-0.25,0.06-0.446,0.18-0.59
			c0.12-0.145,0.279-0.217,0.478-0.217c0.197,0,0.356,0.072,0.477,0.217c0.12,0.144,0.181,0.34,0.181,0.59V451.343z
			 M249.171,450.722c0-0.141-0.022-0.25-0.065-0.328c-0.044-0.078-0.103-0.117-0.178-0.117c-0.077,0-0.137,0.039-0.179,0.117
			c-0.043,0.078-0.064,0.188-0.064,0.328v0.654c0,0.145,0.021,0.255,0.064,0.332c0.043,0.078,0.104,0.117,0.182,0.117
			c0.075,0,0.134-0.039,0.176-0.117c0.043-0.077,0.064-0.188,0.064-0.332V450.722z"/>
	</g>
</g>
<g>
	<g>
		<path class="st0" d="M188.737,487.529c0,0.251-0.06,0.448-0.18,0.59c-0.12,0.144-0.278,0.215-0.475,0.215
			c-0.199,0-0.359-0.071-0.48-0.215c-0.121-0.142-0.181-0.339-0.181-0.59v-0.584c0-0.25,0.06-0.446,0.18-0.59
			c0.12-0.145,0.279-0.217,0.478-0.217c0.197,0,0.356,0.072,0.477,0.217c0.12,0.144,0.181,0.34,0.181,0.59V487.529z
			 M188.322,486.908c0-0.141-0.022-0.25-0.065-0.328c-0.044-0.078-0.103-0.117-0.178-0.117c-0.077,0-0.137,0.039-0.179,0.117
			c-0.043,0.078-0.064,0.188-0.064,0.328v0.654c0,0.145,0.021,0.255,0.064,0.332c0.043,0.078,0.104,0.117,0.182,0.117
			c0.075,0,0.134-0.039,0.176-0.117c0.043-0.077,0.064-0.188,0.064-0.332V486.908z"/>
		<path class="st0" d="M190.153,487.509h0.204v0.325h-0.204v0.469h-0.416v-0.469h-0.769l-0.021-0.254l0.788-1.41h0.417V487.509z
			 M189.315,487.509h0.422v-0.771l-0.009-0.002l-0.038,0.086L189.315,487.509z"/>
		<path class="st0" d="M191.886,487.529c0,0.251-0.06,0.448-0.18,0.59c-0.12,0.144-0.278,0.215-0.475,0.215
			c-0.199,0-0.359-0.071-0.48-0.215c-0.121-0.142-0.181-0.339-0.181-0.59v-0.584c0-0.25,0.06-0.446,0.18-0.59
			c0.12-0.145,0.279-0.217,0.478-0.217c0.197,0,0.356,0.072,0.477,0.217c0.12,0.144,0.181,0.34,0.181,0.59V487.529z
			 M191.471,486.908c0-0.141-0.022-0.25-0.065-0.328c-0.044-0.078-0.103-0.117-0.178-0.117c-0.077,0-0.137,0.039-0.179,0.117
			c-0.043,0.078-0.064,0.188-0.064,0.328v0.654c0,0.145,0.021,0.255,0.064,0.332c0.043,0.078,0.104,0.117,0.182,0.117
			c0.075,0,0.134-0.039,0.176-0.117c0.043-0.077,0.064-0.188,0.064-0.332V486.908z"/>
		<path class="st0" d="M193.1,488.302h-0.415v-1.773l-0.39,0.01v-0.318l0.804-0.082V488.302z"/>
	</g>
</g>
<g>
	<g>
		<path class="st0" d="M188.737,468.029c0,0.251-0.06,0.448-0.18,0.59c-0.12,0.144-0.278,0.215-0.475,0.215
			c-0.199,0-0.359-0.071-0.48-0.215c-0.121-0.142-0.181-0.339-0.181-0.59v-0.584c0-0.25,0.06-0.446,0.18-0.59
			c0.12-0.145,0.279-0.217,0.478-0.217c0.197,0,0.356,0.072,0.477,0.217c0.12,0.144,0.181,0.34,0.181,0.59V468.029z
			 M188.322,467.408c0-0.141-0.022-0.25-0.065-0.328c-0.044-0.078-0.103-0.117-0.178-0.117c-0.077,0-0.137,0.039-0.179,0.117
			c-0.043,0.078-0.064,0.188-0.064,0.328v0.654c0,0.145,0.021,0.255,0.064,0.332c0.043,0.078,0.104,0.117,0.182,0.117
			c0.075,0,0.134-0.039,0.176-0.117c0.043-0.077,0.064-0.188,0.064-0.332V467.408z"/>
		<path class="st0" d="M190.153,468.009h0.204v0.325h-0.204v0.469h-0.416v-0.469h-0.769l-0.021-0.254l0.788-1.41h0.417V468.009z
			 M189.315,468.009h0.422v-0.771l-0.009-0.002l-0.038,0.086L189.315,468.009z"/>
		<path class="st0" d="M191.886,468.029c0,0.251-0.06,0.448-0.18,0.59c-0.12,0.144-0.278,0.215-0.475,0.215
			c-0.199,0-0.359-0.071-0.48-0.215c-0.121-0.142-0.181-0.339-0.181-0.59v-0.584c0-0.25,0.06-0.446,0.18-0.59
			c0.12-0.145,0.279-0.217,0.478-0.217c0.197,0,0.356,0.072,0.477,0.217c0.12,0.144,0.181,0.34,0.181,0.59V468.029z
			 M191.471,467.408c0-0.141-0.022-0.25-0.065-0.328c-0.044-0.078-0.103-0.117-0.178-0.117c-0.077,0-0.137,0.039-0.179,0.117
			c-0.043,0.078-0.064,0.188-0.064,0.328v0.654c0,0.145,0.021,0.255,0.064,0.332c0.043,0.078,0.104,0.117,0.182,0.117
			c0.075,0,0.134-0.039,0.176-0.117c0.043-0.077,0.064-0.188,0.064-0.332V467.408z"/>
		<path class="st0" d="M193.478,468.802h-1.307v-0.275l0.59-0.746c0.084-0.112,0.144-0.211,0.181-0.293
			c0.036-0.082,0.055-0.156,0.055-0.224c0-0.093-0.018-0.166-0.054-0.221c-0.036-0.054-0.09-0.081-0.165-0.081
			c-0.077,0-0.137,0.034-0.178,0.104c-0.042,0.068-0.062,0.157-0.062,0.264h-0.406l-0.004-0.008
			c-0.004-0.191,0.054-0.353,0.173-0.484c0.119-0.133,0.278-0.199,0.478-0.199c0.202,0,0.358,0.057,0.469,0.168
			c0.111,0.112,0.167,0.265,0.167,0.457c0,0.13-0.032,0.249-0.096,0.358s-0.171,0.256-0.321,0.438l-0.29,0.42h0.771V468.802z"/>
	</g>
</g>
<g>
	<g>
		<path class="st0" d="M176.862,472.779c0,0.251-0.06,0.448-0.18,0.59c-0.12,0.144-0.278,0.215-0.475,0.215
			c-0.199,0-0.359-0.071-0.48-0.215c-0.121-0.142-0.181-0.339-0.181-0.59v-0.584c0-0.25,0.06-0.446,0.18-0.59
			c0.12-0.145,0.279-0.217,0.478-0.217c0.197,0,0.356,0.072,0.477,0.217c0.12,0.144,0.181,0.34,0.181,0.59V472.779z
			 M176.447,472.158c0-0.141-0.022-0.25-0.065-0.328c-0.044-0.078-0.103-0.117-0.178-0.117c-0.077,0-0.137,0.039-0.179,0.117
			c-0.043,0.078-0.064,0.188-0.064,0.328v0.654c0,0.145,0.021,0.255,0.064,0.332c0.043,0.078,0.104,0.117,0.182,0.117
			c0.075,0,0.134-0.039,0.176-0.117c0.043-0.077,0.064-0.188,0.064-0.332V472.158z"/>
		<path class="st0" d="M178.278,472.759h0.204v0.325h-0.204v0.469h-0.416v-0.469h-0.769l-0.021-0.254l0.788-1.41h0.417V472.759z
			 M177.44,472.759h0.422v-0.771l-0.009-0.002l-0.038,0.086L177.44,472.759z"/>
		<path class="st0" d="M180.011,472.779c0,0.251-0.06,0.448-0.18,0.59c-0.12,0.144-0.278,0.215-0.475,0.215
			c-0.199,0-0.359-0.071-0.48-0.215c-0.121-0.142-0.181-0.339-0.181-0.59v-0.584c0-0.25,0.06-0.446,0.18-0.59
			c0.12-0.145,0.279-0.217,0.478-0.217c0.197,0,0.356,0.072,0.477,0.217c0.12,0.144,0.181,0.34,0.181,0.59V472.779z
			 M179.596,472.158c0-0.141-0.022-0.25-0.065-0.328c-0.044-0.078-0.103-0.117-0.178-0.117c-0.077,0-0.137,0.039-0.179,0.117
			c-0.043,0.078-0.064,0.188-0.064,0.328v0.654c0,0.145,0.021,0.255,0.064,0.332c0.043,0.078,0.104,0.117,0.182,0.117
			c0.075,0,0.134-0.039,0.176-0.117c0.043-0.077,0.064-0.188,0.064-0.332V472.158z"/>
		<path class="st0" d="M181.041,471.388c0.075,0,0.144,0.008,0.206,0.023c0.062,0.015,0.125,0.038,0.189,0.068l-0.072,0.306
			c-0.057-0.022-0.109-0.039-0.156-0.051c-0.048-0.011-0.103-0.017-0.165-0.017c-0.109,0-0.198,0.048-0.265,0.143
			c-0.067,0.096-0.101,0.23-0.101,0.404v0.064c0.05-0.054,0.109-0.096,0.18-0.125c0.069-0.029,0.148-0.044,0.235-0.044
			c0.164,0,0.292,0.065,0.382,0.194c0.091,0.131,0.136,0.301,0.136,0.512s-0.061,0.383-0.182,0.517c-0.122,0.133-0.28,0.2-0.474,0.2
			c-0.204,0-0.37-0.076-0.498-0.228s-0.192-0.358-0.192-0.621v-0.462c0-0.27,0.073-0.483,0.218-0.645
			C180.628,471.469,180.814,471.388,181.041,471.388z M180.951,472.478c-0.064,0-0.12,0.012-0.166,0.035
			c-0.046,0.022-0.082,0.055-0.108,0.096v0.132c0,0.165,0.025,0.293,0.075,0.384s0.118,0.137,0.202,0.137
			c0.073,0,0.132-0.038,0.176-0.113s0.066-0.169,0.066-0.281c0-0.121-0.022-0.216-0.066-0.285
			C181.085,472.513,181.026,472.478,180.951,472.478z"/>
	</g>
</g>
<g>
	<g>
		<path class="st0" d="M169.987,455.654c0,0.251-0.06,0.448-0.18,0.59c-0.12,0.144-0.278,0.215-0.475,0.215
			c-0.199,0-0.359-0.071-0.48-0.215c-0.121-0.142-0.181-0.339-0.181-0.59v-0.584c0-0.25,0.06-0.446,0.18-0.59
			c0.12-0.145,0.279-0.217,0.478-0.217c0.197,0,0.356,0.072,0.477,0.217c0.12,0.144,0.181,0.34,0.181,0.59V455.654z
			 M169.572,455.033c0-0.141-0.022-0.25-0.065-0.328c-0.044-0.078-0.103-0.117-0.178-0.117c-0.077,0-0.137,0.039-0.179,0.117
			c-0.043,0.078-0.064,0.188-0.064,0.328v0.654c0,0.145,0.021,0.255,0.064,0.332c0.043,0.078,0.104,0.117,0.182,0.117
			c0.075,0,0.134-0.039,0.176-0.117c0.043-0.077,0.064-0.188,0.064-0.332V455.033z"/>
		<path class="st0" d="M171.403,455.634h0.204v0.325h-0.204v0.469h-0.416v-0.469h-0.769l-0.021-0.254l0.788-1.41h0.417V455.634z
			 M170.565,455.634h0.422v-0.771l-0.009-0.002l-0.038,0.086L170.565,455.634z"/>
		<path class="st0" d="M173.136,455.654c0,0.251-0.06,0.448-0.18,0.59c-0.12,0.144-0.278,0.215-0.475,0.215
			c-0.199,0-0.359-0.071-0.48-0.215c-0.121-0.142-0.181-0.339-0.181-0.59v-0.584c0-0.25,0.06-0.446,0.18-0.59
			c0.12-0.145,0.279-0.217,0.478-0.217c0.197,0,0.356,0.072,0.477,0.217c0.12,0.144,0.181,0.34,0.181,0.59V455.654z
			 M172.721,455.033c0-0.141-0.022-0.25-0.065-0.328c-0.044-0.078-0.103-0.117-0.178-0.117c-0.077,0-0.137,0.039-0.179,0.117
			c-0.043,0.078-0.064,0.188-0.064,0.328v0.654c0,0.145,0.021,0.255,0.064,0.332c0.043,0.078,0.104,0.117,0.182,0.117
			c0.075,0,0.134-0.039,0.176-0.117c0.043-0.077,0.064-0.188,0.064-0.332V455.033z"/>
		<path class="st0" d="M174.041,455.179c0.084,0,0.147-0.027,0.189-0.081c0.042-0.055,0.063-0.129,0.063-0.226
			c0-0.08-0.022-0.148-0.066-0.203s-0.104-0.082-0.182-0.082c-0.063,0-0.117,0.024-0.16,0.072s-0.064,0.11-0.064,0.188h-0.404
			l-0.003-0.01c-0.005-0.167,0.054-0.305,0.177-0.412s0.274-0.162,0.454-0.162c0.202,0,0.363,0.053,0.484,0.157
			c0.12,0.104,0.181,0.253,0.181,0.446c0,0.1-0.026,0.189-0.079,0.271s-0.125,0.146-0.215,0.191
			c0.103,0.043,0.182,0.106,0.238,0.192s0.084,0.19,0.084,0.312c0,0.195-0.065,0.348-0.196,0.458c-0.13,0.111-0.297,0.167-0.5,0.167
			c-0.177,0-0.331-0.053-0.463-0.158c-0.132-0.104-0.195-0.254-0.19-0.449l0.003-0.008h0.403c0,0.083,0.023,0.152,0.07,0.208
			c0.047,0.057,0.106,0.085,0.177,0.085c0.084,0,0.152-0.029,0.204-0.087s0.078-0.131,0.078-0.222c0-0.114-0.024-0.199-0.072-0.254
			c-0.049-0.054-0.119-0.081-0.21-0.081h-0.215v-0.313H174.041z"/>
	</g>
</g>
<g>
	<g>
		<path class="st0" d="M156.237,431.396c0,0.251-0.06,0.448-0.18,0.59c-0.12,0.144-0.278,0.215-0.475,0.215
			c-0.199,0-0.359-0.071-0.48-0.215c-0.121-0.142-0.181-0.339-0.181-0.59v-0.584c0-0.25,0.06-0.446,0.18-0.59
			c0.12-0.145,0.279-0.217,0.478-0.217c0.197,0,0.356,0.072,0.477,0.217c0.12,0.144,0.181,0.34,0.181,0.59V431.396z
			 M155.822,430.775c0-0.141-0.022-0.25-0.065-0.328c-0.044-0.078-0.103-0.117-0.178-0.117c-0.077,0-0.137,0.039-0.179,0.117
			c-0.043,0.078-0.064,0.188-0.064,0.328v0.654c0,0.145,0.021,0.255,0.064,0.332c0.043,0.078,0.104,0.117,0.182,0.117
			c0.075,0,0.134-0.039,0.176-0.117c0.043-0.077,0.064-0.188,0.064-0.332V430.775z"/>
		<path class="st0" d="M157.653,431.376h0.204v0.325h-0.204v0.469h-0.416v-0.469h-0.769l-0.021-0.254l0.788-1.41h0.417V431.376z
			 M156.815,431.376h0.422v-0.771l-0.009-0.002l-0.038,0.086L156.815,431.376z"/>
		<path class="st0" d="M159.386,431.396c0,0.251-0.06,0.448-0.18,0.59c-0.12,0.144-0.278,0.215-0.475,0.215
			c-0.199,0-0.359-0.071-0.48-0.215c-0.121-0.142-0.181-0.339-0.181-0.59v-0.584c0-0.25,0.06-0.446,0.18-0.59
			c0.12-0.145,0.279-0.217,0.478-0.217c0.197,0,0.356,0.072,0.477,0.217c0.12,0.144,0.181,0.34,0.181,0.59V431.396z
			 M158.971,430.775c0-0.141-0.022-0.25-0.065-0.328c-0.044-0.078-0.103-0.117-0.178-0.117c-0.077,0-0.137,0.039-0.179,0.117
			c-0.043,0.078-0.064,0.188-0.064,0.328v0.654c0,0.145,0.021,0.255,0.064,0.332c0.043,0.078,0.104,0.117,0.182,0.117
			c0.075,0,0.134-0.039,0.176-0.117c0.043-0.077,0.064-0.188,0.064-0.332V430.775z"/>
		<path class="st0" d="M160.803,431.376h0.204v0.325h-0.204v0.469h-0.416v-0.469h-0.769l-0.021-0.254l0.788-1.41h0.417V431.376z
			 M159.965,431.376h0.422v-0.771l-0.009-0.002l-0.038,0.086L159.965,431.376z"/>
	</g>
</g>
<g>
	<g>
		<path class="st0" d="M140.737,408.021c0,0.251-0.06,0.448-0.18,0.59c-0.12,0.144-0.278,0.215-0.475,0.215
			c-0.199,0-0.359-0.071-0.48-0.215c-0.121-0.142-0.181-0.339-0.181-0.59v-0.584c0-0.25,0.06-0.446,0.18-0.59
			c0.12-0.145,0.279-0.217,0.478-0.217c0.197,0,0.356,0.072,0.477,0.217c0.12,0.144,0.181,0.34,0.181,0.59V408.021z M140.322,407.4
			c0-0.141-0.022-0.25-0.065-0.328c-0.044-0.078-0.103-0.117-0.178-0.117c-0.077,0-0.137,0.039-0.179,0.117
			c-0.043,0.078-0.064,0.188-0.064,0.328v0.654c0,0.145,0.021,0.255,0.064,0.332c0.043,0.078,0.104,0.117,0.182,0.117
			c0.075,0,0.134-0.039,0.176-0.117c0.043-0.077,0.064-0.188,0.064-0.332V407.4z"/>
		<path class="st0" d="M142.153,408.001h0.204v0.325h-0.204v0.469h-0.416v-0.469h-0.769l-0.021-0.254l0.788-1.41h0.417V408.001z
			 M141.315,408.001h0.422v-0.771l-0.009-0.002l-0.038,0.086L141.315,408.001z"/>
		<path class="st0" d="M143.904,408.795h-1.307v-0.275l0.59-0.746c0.084-0.112,0.144-0.211,0.181-0.293
			c0.036-0.082,0.055-0.156,0.055-0.224c0-0.093-0.018-0.166-0.054-0.221c-0.036-0.054-0.09-0.081-0.165-0.081
			c-0.077,0-0.137,0.034-0.178,0.104c-0.042,0.068-0.062,0.157-0.062,0.264h-0.406l-0.004-0.008
			c-0.004-0.191,0.054-0.353,0.173-0.484c0.119-0.133,0.278-0.199,0.478-0.199c0.202,0,0.358,0.057,0.469,0.168
			c0.111,0.112,0.167,0.265,0.167,0.457c0,0.13-0.032,0.249-0.096,0.358s-0.171,0.256-0.321,0.438l-0.29,0.42h0.771V408.795z"/>
		<path class="st0" d="M145.478,408.795h-1.307v-0.275l0.59-0.746c0.084-0.112,0.144-0.211,0.181-0.293
			c0.036-0.082,0.055-0.156,0.055-0.224c0-0.093-0.018-0.166-0.054-0.221c-0.036-0.054-0.09-0.081-0.165-0.081
			c-0.077,0-0.137,0.034-0.178,0.104c-0.042,0.068-0.062,0.157-0.062,0.264h-0.406l-0.004-0.008
			c-0.004-0.191,0.054-0.353,0.173-0.484c0.119-0.133,0.278-0.199,0.478-0.199c0.202,0,0.358,0.057,0.469,0.168
			c0.111,0.112,0.167,0.265,0.167,0.457c0,0.13-0.032,0.249-0.096,0.358s-0.171,0.256-0.321,0.438l-0.29,0.42h0.771V408.795z"/>
	</g>
</g>
<g>
	<g>
		<path class="st0" d="M130.925,393.021c0,0.251-0.06,0.448-0.18,0.59c-0.12,0.144-0.278,0.215-0.475,0.215
			c-0.199,0-0.359-0.071-0.48-0.215c-0.121-0.142-0.181-0.339-0.181-0.59v-0.584c0-0.25,0.06-0.446,0.18-0.59
			c0.12-0.145,0.279-0.217,0.478-0.217c0.197,0,0.356,0.072,0.477,0.217c0.12,0.144,0.181,0.34,0.181,0.59V393.021z M130.51,392.4
			c0-0.141-0.022-0.25-0.065-0.328c-0.044-0.078-0.103-0.117-0.178-0.117c-0.077,0-0.137,0.039-0.179,0.117
			c-0.043,0.078-0.064,0.188-0.064,0.328v0.654c0,0.145,0.021,0.255,0.064,0.332c0.043,0.078,0.104,0.117,0.182,0.117
			c0.075,0,0.134-0.039,0.176-0.117c0.043-0.077,0.064-0.188,0.064-0.332V392.4z"/>
		<path class="st0" d="M132.341,393.001h0.204v0.325h-0.204v0.469h-0.416v-0.469h-0.769l-0.021-0.254l0.788-1.41h0.417V393.001z
			 M131.503,393.001h0.422v-0.771l-0.009-0.002l-0.038,0.086L131.503,393.001z"/>
		<path class="st0" d="M134.092,393.795h-1.307v-0.275l0.59-0.746c0.084-0.112,0.144-0.211,0.181-0.293
			c0.036-0.082,0.055-0.156,0.055-0.224c0-0.093-0.018-0.166-0.054-0.221c-0.036-0.054-0.09-0.081-0.165-0.081
			c-0.077,0-0.137,0.034-0.178,0.104c-0.042,0.068-0.062,0.157-0.062,0.264h-0.406l-0.004-0.008
			c-0.004-0.191,0.054-0.353,0.173-0.484c0.119-0.133,0.278-0.199,0.478-0.199c0.202,0,0.358,0.057,0.469,0.168
			c0.111,0.112,0.167,0.265,0.167,0.457c0,0.13-0.032,0.249-0.096,0.358s-0.171,0.256-0.321,0.438l-0.29,0.42h0.771V393.795z"/>
		<path class="st0" d="M135.649,393.021c0,0.251-0.06,0.448-0.18,0.59c-0.12,0.144-0.278,0.215-0.475,0.215
			c-0.199,0-0.359-0.071-0.48-0.215c-0.121-0.142-0.181-0.339-0.181-0.59v-0.584c0-0.25,0.06-0.446,0.18-0.59
			c0.12-0.145,0.279-0.217,0.478-0.217c0.197,0,0.356,0.072,0.477,0.217c0.12,0.144,0.181,0.34,0.181,0.59V393.021z M135.234,392.4
			c0-0.141-0.022-0.25-0.065-0.328c-0.044-0.078-0.103-0.117-0.178-0.117c-0.077,0-0.137,0.039-0.179,0.117
			c-0.043,0.078-0.064,0.188-0.064,0.328v0.654c0,0.145,0.021,0.255,0.064,0.332c0.043,0.078,0.104,0.117,0.182,0.117
			c0.075,0,0.134-0.039,0.176-0.117c0.043-0.077,0.064-0.188,0.064-0.332V392.4z"/>
	</g>
</g>
<g>
	<g>
		<path class="st0" d="M123.925,381.146c0,0.251-0.06,0.448-0.18,0.59c-0.12,0.144-0.278,0.215-0.475,0.215
			c-0.199,0-0.359-0.071-0.48-0.215c-0.121-0.142-0.181-0.339-0.181-0.59v-0.584c0-0.25,0.06-0.446,0.18-0.59
			c0.12-0.145,0.279-0.217,0.478-0.217c0.197,0,0.356,0.072,0.477,0.217c0.12,0.144,0.181,0.34,0.181,0.59V381.146z M123.51,380.525
			c0-0.141-0.022-0.25-0.065-0.328c-0.044-0.078-0.103-0.117-0.178-0.117c-0.077,0-0.137,0.039-0.179,0.117
			c-0.043,0.078-0.064,0.188-0.064,0.328v0.654c0,0.145,0.021,0.255,0.064,0.332c0.043,0.078,0.104,0.117,0.182,0.117
			c0.075,0,0.134-0.039,0.176-0.117c0.043-0.077,0.064-0.188,0.064-0.332V380.525z"/>
		<path class="st0" d="M125.341,381.126h0.204v0.325h-0.204v0.469h-0.416v-0.469h-0.769l-0.021-0.254l0.788-1.41h0.417V381.126z
			 M124.503,381.126h0.422v-0.771l-0.009-0.002l-0.038,0.086L124.503,381.126z"/>
		<path class="st0" d="M126.714,381.92h-0.415v-1.773l-0.39,0.01v-0.318l0.804-0.082V381.92z"/>
		<path class="st0" d="M127.921,381.629c0.088,0,0.16-0.04,0.217-0.12c0.057-0.079,0.085-0.189,0.085-0.33v-0.146
			c-0.042,0.061-0.091,0.105-0.149,0.135c-0.057,0.031-0.118,0.046-0.182,0.046c-0.177,0-0.316-0.064-0.417-0.194
			c-0.102-0.129-0.152-0.303-0.152-0.521c0-0.211,0.061-0.388,0.183-0.529s0.278-0.213,0.469-0.213c0.194,0,0.354,0.073,0.478,0.218
			c0.124,0.146,0.186,0.347,0.186,0.603v0.578c0,0.242-0.068,0.437-0.204,0.58c-0.136,0.145-0.307,0.217-0.514,0.217
			c-0.066,0-0.135-0.009-0.207-0.024c-0.071-0.017-0.138-0.039-0.199-0.068l0.069-0.3c0.055,0.024,0.108,0.042,0.161,0.053
			C127.796,381.623,127.855,381.629,127.921,381.629z M127.968,380.909c0.056,0,0.105-0.014,0.149-0.041
			c0.043-0.027,0.079-0.063,0.106-0.11v-0.254c0-0.139-0.022-0.243-0.067-0.315s-0.104-0.108-0.179-0.108
			c-0.072,0-0.13,0.041-0.174,0.122c-0.044,0.082-0.066,0.181-0.066,0.296c0,0.123,0.02,0.222,0.059,0.298
			C127.835,380.871,127.892,380.909,127.968,380.909z"/>
	</g>
</g>
<g>
	<g>
		<path class="st0" d="M113.3,366.631c0,0.251-0.06,0.448-0.18,0.59c-0.12,0.144-0.278,0.215-0.475,0.215
			c-0.199,0-0.359-0.071-0.48-0.215c-0.121-0.142-0.181-0.339-0.181-0.59v-0.584c0-0.25,0.06-0.446,0.18-0.59
			c0.12-0.145,0.279-0.217,0.478-0.217c0.197,0,0.356,0.072,0.477,0.217c0.12,0.144,0.181,0.34,0.181,0.59V366.631z
			 M112.885,366.009c0-0.141-0.022-0.25-0.065-0.328c-0.044-0.078-0.103-0.117-0.178-0.117c-0.077,0-0.137,0.039-0.179,0.117
			c-0.043,0.078-0.064,0.188-0.064,0.328v0.654c0,0.145,0.021,0.255,0.064,0.332c0.043,0.078,0.104,0.117,0.182,0.117
			c0.075,0,0.134-0.039,0.176-0.117c0.043-0.077,0.064-0.188,0.064-0.332V366.009z"/>
		<path class="st0" d="M114.716,366.61h0.204v0.325h-0.204v0.469H114.3v-0.469h-0.769l-0.021-0.254l0.788-1.41h0.417V366.61z
			 M113.878,366.61h0.422v-0.771l-0.009-0.002l-0.038,0.086L113.878,366.61z"/>
		<path class="st0" d="M116.449,366.631c0,0.251-0.06,0.448-0.18,0.59c-0.12,0.144-0.278,0.215-0.475,0.215
			c-0.199,0-0.359-0.071-0.48-0.215c-0.121-0.142-0.181-0.339-0.181-0.59v-0.584c0-0.25,0.06-0.446,0.18-0.59
			c0.12-0.145,0.279-0.217,0.478-0.217c0.197,0,0.356,0.072,0.477,0.217c0.12,0.144,0.181,0.34,0.181,0.59V366.631z
			 M116.034,366.009c0-0.141-0.022-0.25-0.065-0.328c-0.044-0.078-0.103-0.117-0.178-0.117c-0.077,0-0.137,0.039-0.179,0.117
			c-0.043,0.078-0.064,0.188-0.064,0.328v0.654c0,0.145,0.021,0.255,0.064,0.332c0.043,0.078,0.104,0.117,0.182,0.117
			c0.075,0,0.134-0.039,0.176-0.117c0.043-0.077,0.064-0.188,0.064-0.332V366.009z"/>
		<path class="st0" d="M116.761,366.463l0.111-1.191h1.093v0.332h-0.753l-0.051,0.518c0.036-0.03,0.082-0.056,0.135-0.076
			c0.055-0.021,0.112-0.031,0.174-0.033c0.18-0.004,0.318,0.058,0.415,0.183s0.146,0.3,0.146,0.526c0,0.209-0.053,0.38-0.161,0.514
			c-0.106,0.134-0.272,0.201-0.496,0.201c-0.18,0-0.334-0.053-0.463-0.157s-0.191-0.247-0.186-0.428l0.003-0.007l0.401-0.021
			c0,0.093,0.022,0.164,0.067,0.215s0.104,0.076,0.177,0.076c0.085,0,0.146-0.033,0.184-0.1c0.037-0.066,0.056-0.163,0.056-0.291
			c0-0.126-0.021-0.227-0.063-0.301c-0.042-0.073-0.105-0.11-0.19-0.11c-0.067,0-0.119,0.016-0.155,0.047s-0.061,0.074-0.075,0.129
			L116.761,366.463z"/>
	</g>
</g>
<g>
	<g>
		<path class="st0" d="M121.8,333.803c0,0.251-0.06,0.448-0.18,0.59c-0.12,0.144-0.278,0.215-0.475,0.215
			c-0.199,0-0.359-0.071-0.48-0.215c-0.121-0.142-0.181-0.339-0.181-0.59v-0.584c0-0.25,0.06-0.446,0.18-0.59
			c0.12-0.145,0.279-0.217,0.478-0.217c0.197,0,0.356,0.072,0.477,0.217c0.12,0.144,0.181,0.34,0.181,0.59V333.803z
			 M121.385,333.182c0-0.141-0.022-0.25-0.065-0.328c-0.044-0.078-0.103-0.117-0.178-0.117c-0.077,0-0.137,0.039-0.179,0.117
			c-0.043,0.078-0.064,0.188-0.064,0.328v0.654c0,0.145,0.021,0.255,0.064,0.332c0.043,0.078,0.104,0.117,0.182,0.117
			c0.075,0,0.134-0.039,0.176-0.117c0.043-0.077,0.064-0.188,0.064-0.332V333.182z"/>
		<path class="st0" d="M123.216,333.782h0.204v0.325h-0.204v0.469H122.8v-0.469h-0.769l-0.021-0.254l0.788-1.41h0.417V333.782z
			 M122.378,333.782h0.422v-0.771l-0.009-0.002l-0.038,0.086L122.378,333.782z"/>
		<path class="st0" d="M124.949,333.803c0,0.251-0.06,0.448-0.18,0.59c-0.12,0.144-0.278,0.215-0.475,0.215
			c-0.199,0-0.359-0.071-0.48-0.215c-0.121-0.142-0.181-0.339-0.181-0.59v-0.584c0-0.25,0.06-0.446,0.18-0.59
			c0.12-0.145,0.279-0.217,0.478-0.217c0.197,0,0.356,0.072,0.477,0.217c0.12,0.144,0.181,0.34,0.181,0.59V333.803z
			 M124.534,333.182c0-0.141-0.022-0.25-0.065-0.328c-0.044-0.078-0.103-0.117-0.178-0.117c-0.077,0-0.137,0.039-0.179,0.117
			c-0.043,0.078-0.064,0.188-0.064,0.328v0.654c0,0.145,0.021,0.255,0.064,0.332c0.043,0.078,0.104,0.117,0.182,0.117
			c0.075,0,0.134-0.039,0.176-0.117c0.043-0.077,0.064-0.188,0.064-0.332V333.182z"/>
		<path class="st0" d="M126.493,332.997c0,0.105-0.025,0.199-0.075,0.28c-0.05,0.082-0.118,0.146-0.205,0.191
			c0.106,0.048,0.19,0.116,0.253,0.206c0.062,0.089,0.093,0.191,0.093,0.307c0,0.198-0.063,0.353-0.188,0.462
			s-0.286,0.164-0.481,0.164c-0.203,0-0.37-0.056-0.501-0.165c-0.131-0.11-0.196-0.264-0.196-0.461c0-0.115,0.032-0.218,0.096-0.307
			c0.063-0.09,0.151-0.158,0.263-0.206c-0.092-0.046-0.164-0.109-0.215-0.191c-0.052-0.081-0.078-0.175-0.078-0.28
			c0-0.188,0.058-0.332,0.175-0.433c0.117-0.102,0.269-0.152,0.455-0.152c0.18,0,0.325,0.051,0.438,0.151
			C126.437,332.664,126.493,332.809,126.493,332.997z M126.144,333.963c0-0.098-0.025-0.176-0.074-0.238
			c-0.05-0.061-0.11-0.092-0.183-0.092c-0.081,0-0.148,0.031-0.201,0.092c-0.053,0.063-0.079,0.141-0.079,0.238
			c0,0.099,0.026,0.177,0.079,0.234c0.053,0.059,0.12,0.088,0.202,0.088c0.073,0,0.134-0.029,0.182-0.088
			C126.12,334.14,126.144,334.062,126.144,333.963z M126.078,333.016c0-0.085-0.018-0.153-0.052-0.204
			c-0.035-0.05-0.081-0.075-0.139-0.075c-0.066,0-0.119,0.024-0.157,0.073s-0.057,0.118-0.057,0.206c0,0.09,0.02,0.16,0.059,0.214
			c0.039,0.053,0.091,0.079,0.157,0.079c0.058,0,0.104-0.025,0.138-0.078S126.078,333.107,126.078,333.016z"/>
	</g>
</g>
<g>
	<g>
		<path class="st0" d="M92.55,333.802c0,0.251-0.06,0.448-0.18,0.59c-0.12,0.144-0.278,0.215-0.475,0.215
			c-0.199,0-0.359-0.071-0.48-0.215c-0.121-0.142-0.181-0.339-0.181-0.59v-0.584c0-0.25,0.06-0.446,0.18-0.59
			c0.12-0.145,0.279-0.217,0.478-0.217c0.197,0,0.356,0.072,0.477,0.217c0.12,0.144,0.181,0.34,0.181,0.59V333.802z M92.135,333.181
			c0-0.141-0.022-0.25-0.065-0.328c-0.044-0.078-0.103-0.117-0.178-0.117c-0.077,0-0.137,0.039-0.179,0.117
			c-0.043,0.078-0.064,0.188-0.064,0.328v0.654c0,0.145,0.021,0.255,0.064,0.332c0.043,0.078,0.104,0.117,0.182,0.117
			c0.075,0,0.134-0.039,0.176-0.117c0.043-0.077,0.064-0.188,0.064-0.332V333.181z"/>
		<path class="st0" d="M93.455,333.328c0.084,0,0.147-0.027,0.189-0.081c0.042-0.055,0.063-0.129,0.063-0.226
			c0-0.08-0.022-0.148-0.066-0.203s-0.104-0.082-0.182-0.082c-0.063,0-0.117,0.024-0.16,0.072s-0.064,0.11-0.064,0.188h-0.404
			l-0.003-0.01c-0.005-0.167,0.054-0.305,0.177-0.412s0.274-0.162,0.454-0.162c0.202,0,0.363,0.053,0.484,0.157
			c0.12,0.104,0.181,0.253,0.181,0.446c0,0.1-0.026,0.189-0.079,0.271s-0.125,0.146-0.215,0.191
			c0.103,0.043,0.182,0.106,0.238,0.192s0.084,0.19,0.084,0.312c0,0.195-0.065,0.348-0.196,0.458c-0.13,0.111-0.297,0.167-0.5,0.167
			c-0.177,0-0.331-0.053-0.463-0.158c-0.132-0.104-0.195-0.254-0.19-0.449l0.003-0.008h0.403c0,0.083,0.023,0.152,0.07,0.208
			c0.047,0.057,0.106,0.085,0.177,0.085c0.084,0,0.152-0.029,0.204-0.087s0.078-0.131,0.078-0.222c0-0.114-0.024-0.199-0.072-0.254
			c-0.049-0.054-0.119-0.081-0.21-0.081H93.24v-0.313H93.455z"/>
		<path class="st0" d="M95.541,333.782h0.204v0.325h-0.204v0.469h-0.416v-0.469h-0.769l-0.021-0.254l0.788-1.41h0.417V333.782z
			 M94.703,333.782h0.422v-0.771l-0.009-0.002l-0.038,0.086L94.703,333.782z"/>
		<path class="st0" d="M97.291,334.576h-1.307v-0.275l0.59-0.746c0.084-0.112,0.144-0.211,0.181-0.293
			c0.036-0.082,0.055-0.156,0.055-0.224c0-0.093-0.018-0.166-0.054-0.221c-0.036-0.054-0.09-0.081-0.165-0.081
			c-0.077,0-0.137,0.034-0.178,0.104c-0.042,0.068-0.062,0.157-0.062,0.264h-0.406l-0.004-0.008
			c-0.004-0.191,0.054-0.353,0.173-0.484c0.119-0.133,0.278-0.199,0.478-0.199c0.202,0,0.358,0.057,0.469,0.168
			c0.111,0.112,0.167,0.265,0.167,0.457c0,0.13-0.032,0.249-0.096,0.358s-0.171,0.256-0.321,0.438l-0.29,0.42h0.771V334.576z"/>
	</g>
</g>
<g>
	<g>
		<path class="st0" d="M217.612,442.267c0,0.251-0.06,0.448-0.18,0.59c-0.12,0.144-0.278,0.215-0.475,0.215
			c-0.199,0-0.359-0.071-0.48-0.215c-0.121-0.142-0.181-0.339-0.181-0.59v-0.584c0-0.25,0.06-0.446,0.18-0.59
			c0.12-0.145,0.279-0.217,0.478-0.217c0.197,0,0.356,0.072,0.477,0.217c0.12,0.144,0.181,0.34,0.181,0.59V442.267z
			 M217.197,441.646c0-0.141-0.022-0.25-0.065-0.328c-0.044-0.078-0.103-0.117-0.178-0.117c-0.077,0-0.137,0.039-0.179,0.117
			c-0.043,0.078-0.064,0.188-0.064,0.328v0.654c0,0.145,0.021,0.255,0.064,0.332c0.043,0.078,0.104,0.117,0.182,0.117
			c0.075,0,0.134-0.039,0.176-0.117c0.043-0.077,0.064-0.188,0.064-0.332V441.646z"/>
		<path class="st0" d="M219.028,442.247h0.204v0.325h-0.204v0.469h-0.416v-0.469h-0.769l-0.021-0.254l0.788-1.41h0.417V442.247z
			 M218.19,442.247h0.422v-0.771l-0.009-0.002l-0.038,0.086L218.19,442.247z"/>
		<path class="st0" d="M220.779,443.041h-1.307v-0.275l0.59-0.746c0.084-0.112,0.144-0.211,0.181-0.293
			c0.036-0.082,0.055-0.156,0.055-0.224c0-0.093-0.018-0.166-0.054-0.221c-0.036-0.054-0.09-0.081-0.165-0.081
			c-0.077,0-0.137,0.034-0.178,0.104c-0.042,0.068-0.062,0.157-0.062,0.264h-0.406l-0.004-0.008
			c-0.004-0.191,0.054-0.353,0.173-0.484c0.119-0.133,0.278-0.199,0.478-0.199c0.202,0,0.358,0.057,0.469,0.168
			c0.111,0.112,0.167,0.265,0.167,0.457c0,0.13-0.032,0.249-0.096,0.358s-0.171,0.256-0.321,0.438l-0.29,0.42h0.771V443.041z"/>
		<path class="st0" d="M221.073,442.099l0.111-1.191h1.093v0.332h-0.753l-0.051,0.518c0.036-0.03,0.082-0.056,0.135-0.076
			c0.055-0.021,0.112-0.031,0.174-0.033c0.18-0.004,0.318,0.058,0.415,0.183s0.146,0.3,0.146,0.526c0,0.209-0.053,0.38-0.161,0.514
			c-0.106,0.134-0.272,0.201-0.496,0.201c-0.18,0-0.334-0.053-0.463-0.157s-0.191-0.247-0.186-0.428l0.003-0.007l0.401-0.021
			c0,0.093,0.022,0.164,0.067,0.215s0.104,0.076,0.177,0.076c0.085,0,0.146-0.033,0.184-0.1c0.037-0.066,0.056-0.163,0.056-0.291
			c0-0.126-0.021-0.227-0.063-0.301c-0.042-0.073-0.105-0.11-0.19-0.11c-0.067,0-0.119,0.016-0.155,0.047s-0.061,0.074-0.075,0.129
			L221.073,442.099z"/>
	</g>
</g>
<g>
	<g>
		<path class="st0" d="M206.487,422.621c0,0.251-0.06,0.448-0.18,0.59c-0.12,0.144-0.278,0.215-0.475,0.215
			c-0.199,0-0.359-0.071-0.48-0.215c-0.121-0.142-0.181-0.339-0.181-0.59v-0.584c0-0.25,0.06-0.446,0.18-0.59
			c0.12-0.145,0.279-0.217,0.478-0.217c0.197,0,0.356,0.072,0.477,0.217c0.12,0.144,0.181,0.34,0.181,0.59V422.621z M206.072,422
			c0-0.141-0.022-0.25-0.065-0.328c-0.044-0.078-0.103-0.117-0.178-0.117c-0.077,0-0.137,0.039-0.179,0.117
			c-0.043,0.078-0.064,0.188-0.064,0.328v0.654c0,0.145,0.021,0.255,0.064,0.332c0.043,0.078,0.104,0.117,0.182,0.117
			c0.075,0,0.134-0.039,0.176-0.117c0.043-0.077,0.064-0.188,0.064-0.332V422z"/>
		<path class="st0" d="M207.903,422.6h0.204v0.325h-0.204v0.469h-0.416v-0.469h-0.769l-0.021-0.254l0.788-1.41h0.417V422.6z
			 M207.065,422.6h0.422v-0.771l-0.009-0.002l-0.038,0.086L207.065,422.6z"/>
		<path class="st0" d="M209.654,423.394h-1.307v-0.275l0.59-0.746c0.084-0.112,0.144-0.211,0.181-0.293
			c0.036-0.082,0.055-0.156,0.055-0.224c0-0.093-0.018-0.166-0.054-0.221c-0.036-0.054-0.09-0.081-0.165-0.081
			c-0.077,0-0.137,0.034-0.178,0.104c-0.042,0.068-0.062,0.157-0.062,0.264h-0.406l-0.004-0.008
			c-0.004-0.191,0.054-0.353,0.173-0.484c0.119-0.133,0.278-0.199,0.478-0.199c0.202,0,0.358,0.057,0.469,0.168
			c0.111,0.112,0.167,0.265,0.167,0.457c0,0.13-0.032,0.249-0.096,0.358s-0.171,0.256-0.321,0.438l-0.29,0.42h0.771V423.394z"/>
		<path class="st0" d="M211.053,422.6h0.204v0.325h-0.204v0.469h-0.416v-0.469h-0.769l-0.021-0.254l0.788-1.41h0.417V422.6z
			 M210.215,422.6h0.422v-0.771l-0.009-0.002l-0.038,0.086L210.215,422.6z"/>
	</g>
</g>
<g>
</g>
<g>
</g>
<g>
</g>
<g>
</g>
<g>
</g>
<g>
</g>
</svg>
