<?xml version="1.0" encoding="utf-8"?>
<!-- Generator: Adobe Illustrator 19.0.0, SVG Export Plug-In . SVG Version: 6.00 Build 0)  -->
<svg version="1.0" id="numero_de_locaux" xmlns="http://www.w3.org/2000/svg" xmlns:xlink="http://www.w3.org/1999/xlink" x="0px"
	 y="0px" viewBox="0 0 477.333 416.333" style="enable-background:new 0 0 477.333 416.333;" xml:space="preserve">
<style type="text/css">
	.st0{fill:#383938;}
</style>
<g>
	<g>
		<path class="st0" d="M25.437,60.819h0.182v0.341h-0.182v0.465h-0.415V61.16h-0.706l-0.019-0.266l0.724-1.402h0.416V60.819z
			 M24.7,60.819h0.322v-0.714l-0.009,0.017L24.7,60.819z"/>
		<path class="st0" d="M26.954,60.819h0.182v0.341h-0.182v0.465H26.54V61.16h-0.706l-0.019-0.266l0.724-1.402h0.416V60.819z
			 M26.218,60.819h0.322v-0.714l-0.009,0.017L26.218,60.819z"/>
		<path class="st0" d="M28.292,61.625h-0.416v-1.629l-0.406,0.156v-0.346l0.778-0.317h0.044V61.625z"/>
		<path class="st0" d="M30.136,60.743c0,0.295-0.053,0.521-0.161,0.677c-0.106,0.156-0.259,0.234-0.458,0.234
			c-0.196,0-0.348-0.076-0.455-0.228c-0.107-0.152-0.163-0.369-0.167-0.653v-0.402c0-0.294,0.053-0.519,0.16-0.675
			c0.106-0.155,0.259-0.233,0.458-0.233s0.352,0.077,0.458,0.231s0.161,0.375,0.163,0.661V60.743z M29.72,60.311
			c0-0.169-0.017-0.296-0.05-0.38s-0.085-0.126-0.155-0.126c-0.132,0-0.2,0.154-0.205,0.463v0.533c0,0.173,0.017,0.302,0.05,0.386
			c0.034,0.084,0.086,0.126,0.158,0.126c0.067,0,0.117-0.039,0.15-0.118s0.05-0.199,0.052-0.362V60.311z"/>
	</g>
</g>
<g>
	<g>
		<path class="st0" d="M44.27,93.652h0.182v0.341H44.27v0.465h-0.415v-0.465H43.15l-0.019-0.266l0.724-1.402h0.416V93.652z
			 M43.534,93.652h0.322v-0.714l-0.009,0.017L43.534,93.652z"/>
		<path class="st0" d="M45.788,93.652h0.182v0.341h-0.182v0.465h-0.415v-0.465h-0.706l-0.019-0.266l0.724-1.402h0.416V93.652z
			 M45.051,93.652h0.322v-0.714l-0.009,0.017L45.051,93.652z"/>
		<path class="st0" d="M47.452,93.576c0,0.295-0.053,0.521-0.161,0.677c-0.106,0.156-0.259,0.234-0.458,0.234
			c-0.196,0-0.348-0.076-0.455-0.228c-0.107-0.152-0.163-0.369-0.167-0.653v-0.402c0-0.294,0.053-0.519,0.16-0.675
			c0.106-0.155,0.259-0.233,0.458-0.233s0.352,0.077,0.458,0.231s0.161,0.375,0.163,0.661V93.576z M47.036,93.144
			c0-0.169-0.017-0.296-0.05-0.38s-0.085-0.126-0.155-0.126c-0.132,0-0.2,0.154-0.205,0.463v0.533c0,0.173,0.017,0.302,0.05,0.386
			c0.034,0.084,0.086,0.126,0.158,0.126c0.067,0,0.117-0.039,0.15-0.118s0.05-0.199,0.052-0.362V93.144z"/>
		<path class="st0" d="M48.535,93.634c-0.088,0.09-0.184,0.135-0.289,0.135c-0.162,0-0.29-0.065-0.383-0.196
			c-0.093-0.13-0.14-0.304-0.14-0.522c0-0.141,0.026-0.269,0.079-0.386c0.053-0.116,0.126-0.207,0.221-0.271
			c0.094-0.064,0.199-0.097,0.315-0.097c0.12,0,0.227,0.036,0.321,0.107s0.167,0.173,0.218,0.307
			c0.052,0.133,0.078,0.285,0.078,0.455v0.15c0,0.363-0.08,0.647-0.24,0.852c-0.159,0.205-0.386,0.309-0.679,0.312h-0.042v-0.357
			h0.028c0.162,0,0.284-0.042,0.365-0.125S48.518,93.793,48.535,93.634z M48.351,93.442c0.08,0,0.143-0.055,0.189-0.164v-0.191
			c0-0.14-0.019-0.25-0.057-0.33s-0.087-0.119-0.148-0.119c-0.06,0-0.107,0.039-0.145,0.118c-0.036,0.079-0.055,0.175-0.055,0.289
			c0,0.123,0.019,0.221,0.057,0.291C48.231,93.407,48.284,93.442,48.351,93.442z"/>
	</g>
</g>
<g>
	<g>
		<path class="st0" d="M92.201,88.986h0.182v0.341h-0.182v0.465h-0.415v-0.465h-0.706l-0.019-0.266l0.724-1.402h0.416V88.986z
			 M91.465,88.986h0.322v-0.714l-0.009,0.017L91.465,88.986z"/>
		<path class="st0" d="M93.719,88.986h0.182v0.341h-0.182v0.465h-0.415v-0.465h-0.706l-0.019-0.266l0.724-1.402h0.416V88.986z
			 M92.982,88.986h0.322v-0.714l-0.009,0.017L92.982,88.986z"/>
		<path class="st0" d="M95.056,89.792H94.64v-1.629l-0.406,0.156v-0.346l0.778-0.317h0.044V89.792z"/>
		<path class="st0" d="M96.466,88.968c-0.088,0.09-0.184,0.135-0.289,0.135c-0.162,0-0.29-0.065-0.383-0.196
			c-0.093-0.13-0.14-0.304-0.14-0.522c0-0.141,0.026-0.269,0.079-0.386c0.053-0.116,0.126-0.207,0.221-0.271
			c0.094-0.064,0.199-0.097,0.315-0.097c0.12,0,0.227,0.036,0.321,0.107s0.167,0.173,0.218,0.307
			c0.052,0.133,0.078,0.285,0.078,0.455v0.15c0,0.363-0.08,0.647-0.24,0.852c-0.159,0.205-0.386,0.309-0.679,0.312h-0.042v-0.357
			h0.028c0.162,0,0.284-0.042,0.365-0.125S96.449,89.127,96.466,88.968z M96.283,88.776c0.08,0,0.143-0.055,0.189-0.164v-0.191
			c0-0.14-0.019-0.25-0.057-0.33s-0.087-0.119-0.148-0.119c-0.06,0-0.107,0.039-0.145,0.118c-0.036,0.079-0.055,0.175-0.055,0.289
			c0,0.123,0.019,0.221,0.057,0.291C96.162,88.741,96.215,88.776,96.283,88.776z"/>
	</g>
</g>
<g>
	<g>
		<path class="st0" d="M59.99,47.819h0.182v0.341H59.99v0.465h-0.415V48.16h-0.706l-0.019-0.266l0.724-1.402h0.416V47.819z
			 M59.253,47.819h0.322v-0.714l-0.009,0.017L59.253,47.819z"/>
		<path class="st0" d="M61.507,47.819h0.182v0.341h-0.182v0.465h-0.415V48.16h-0.706l-0.019-0.266l0.724-1.402h0.416V47.819z
			 M60.77,47.819h0.322v-0.714l-0.009,0.017L60.77,47.819z"/>
		<path class="st0" d="M62.845,48.625h-0.416v-1.629l-0.406,0.156v-0.346l0.778-0.317h0.044V48.625z"/>
		<path class="st0" d="M64.706,48.625H63.45v-0.29l0.577-0.737c0.073-0.102,0.127-0.19,0.162-0.268s0.052-0.151,0.052-0.222
			c0-0.095-0.017-0.169-0.049-0.224c-0.033-0.054-0.08-0.08-0.141-0.08c-0.067,0-0.121,0.031-0.161,0.094
			c-0.039,0.063-0.059,0.152-0.059,0.266h-0.416c0-0.13,0.027-0.25,0.082-0.358c0.054-0.108,0.13-0.192,0.229-0.253
			c0.098-0.06,0.209-0.09,0.333-0.09c0.19,0,0.338,0.053,0.443,0.157c0.104,0.105,0.157,0.255,0.157,0.448
			c0,0.119-0.029,0.241-0.087,0.365c-0.059,0.123-0.164,0.275-0.316,0.457l-0.274,0.393h0.725V48.625z"/>
	</g>
</g>
<g>
	<g>
		<path class="st0" d="M82.99,32.819h0.182v0.341H82.99v0.465h-0.415V33.16h-0.706l-0.019-0.266l0.724-1.402h0.416V32.819z
			 M82.253,32.819h0.322v-0.714l-0.009,0.017L82.253,32.819z"/>
		<path class="st0" d="M84.507,32.819h0.182v0.341h-0.182v0.465h-0.415V33.16h-0.706l-0.019-0.266l0.724-1.402h0.416V32.819z
			 M83.77,32.819h0.322v-0.714l-0.009,0.017L83.77,32.819z"/>
		<path class="st0" d="M85.845,33.625h-0.416v-1.629l-0.406,0.156v-0.346l0.778-0.317h0.044V33.625z"/>
		<path class="st0" d="M86.819,32.369h0.201c0.076,0,0.132-0.026,0.168-0.08c0.035-0.053,0.053-0.125,0.053-0.214
			c0-0.086-0.018-0.152-0.055-0.199c-0.036-0.048-0.085-0.071-0.147-0.071c-0.058,0-0.105,0.022-0.141,0.067
			c-0.037,0.046-0.055,0.104-0.055,0.173h-0.415c0-0.111,0.025-0.212,0.077-0.3c0.051-0.089,0.123-0.157,0.215-0.208
			c0.093-0.049,0.195-0.074,0.307-0.074c0.196,0,0.35,0.055,0.461,0.162c0.111,0.109,0.167,0.258,0.167,0.445
			c0,0.098-0.025,0.187-0.075,0.27c-0.051,0.082-0.117,0.146-0.199,0.189c0.101,0.043,0.175,0.107,0.225,0.193
			c0.049,0.086,0.074,0.188,0.074,0.305c0,0.189-0.061,0.342-0.181,0.455c-0.121,0.115-0.279,0.172-0.475,0.172
			c-0.183,0-0.331-0.057-0.445-0.169c-0.114-0.113-0.17-0.261-0.17-0.444h0.415c0,0.076,0.02,0.142,0.06,0.193
			c0.04,0.053,0.091,0.078,0.152,0.078c0.071,0,0.127-0.026,0.169-0.079c0.041-0.053,0.062-0.123,0.062-0.212
			c0-0.211-0.082-0.316-0.245-0.318h-0.204V32.369z"/>
	</g>
</g>
<g>
	<g>
		<path class="st0" d="M113.15,72.819h0.182v0.341h-0.182v0.465h-0.415V73.16h-0.706l-0.019-0.266l0.724-1.402h0.416V72.819z
			 M112.413,72.819h0.322v-0.714l-0.009,0.017L112.413,72.819z"/>
		<path class="st0" d="M114.667,72.819h0.182v0.341h-0.182v0.465h-0.415V73.16h-0.706l-0.019-0.266l0.724-1.402h0.416V72.819z
			 M113.931,72.819h0.322v-0.714l-0.009,0.017L113.931,72.819z"/>
		<path class="st0" d="M116.005,73.625h-0.416v-1.629l-0.406,0.156v-0.346l0.778-0.317h0.044V73.625z"/>
		<path class="st0" d="M117.849,72.743c0,0.295-0.053,0.521-0.161,0.677c-0.106,0.156-0.259,0.234-0.458,0.234
			c-0.196,0-0.348-0.076-0.455-0.228c-0.107-0.152-0.163-0.369-0.167-0.653v-0.402c0-0.294,0.053-0.519,0.16-0.675
			c0.106-0.155,0.259-0.233,0.458-0.233s0.352,0.077,0.458,0.231s0.161,0.375,0.163,0.661V72.743z M117.433,72.311
			c0-0.169-0.017-0.296-0.05-0.38s-0.085-0.126-0.155-0.126c-0.132,0-0.2,0.154-0.205,0.463v0.533c0,0.173,0.017,0.302,0.05,0.386
			c0.034,0.084,0.086,0.126,0.158,0.126c0.067,0,0.117-0.039,0.15-0.118s0.05-0.199,0.052-0.362V72.311z"/>
	</g>
</g>
<g>
	<g>
		<path class="st0" d="M135.983,114.984h0.182v0.341h-0.182v0.465h-0.415v-0.465h-0.706l-0.019-0.266l0.724-1.402h0.416V114.984z
			 M135.246,114.984h0.322v-0.714l-0.009,0.017L135.246,114.984z"/>
		<path class="st0" d="M137.5,114.984h0.182v0.341H137.5v0.465h-0.415v-0.465h-0.706l-0.019-0.266l0.724-1.402h0.416V114.984z
			 M136.764,114.984h0.322v-0.714l-0.009,0.017L136.764,114.984z"/>
		<path class="st0" d="M138.838,115.79h-0.416v-1.629l-0.406,0.156v-0.346l0.778-0.317h0.044V115.79z"/>
		<path class="st0" d="M140.694,113.894l-0.674,1.896h-0.438l0.677-1.791h-0.855v-0.342h1.291V113.894z"/>
	</g>
</g>
<g>
	<g>
		<path class="st0" d="M205.983,147.155h0.182v0.341h-0.182v0.465h-0.415v-0.465h-0.706l-0.019-0.266l0.724-1.402h0.416V147.155z
			 M205.246,147.155h0.322v-0.714l-0.009,0.017L205.246,147.155z"/>
		<path class="st0" d="M207.647,147.079c0,0.295-0.053,0.521-0.161,0.677c-0.106,0.156-0.259,0.234-0.458,0.234
			c-0.196,0-0.348-0.076-0.455-0.228c-0.107-0.152-0.163-0.369-0.167-0.653v-0.402c0-0.294,0.053-0.519,0.16-0.675
			c0.106-0.155,0.259-0.233,0.458-0.233s0.352,0.077,0.458,0.231s0.161,0.375,0.163,0.661V147.079z M207.231,146.646
			c0-0.169-0.017-0.296-0.05-0.38s-0.085-0.126-0.155-0.126c-0.132,0-0.2,0.154-0.205,0.463v0.533c0,0.173,0.017,0.302,0.05,0.386
			c0.034,0.084,0.086,0.126,0.158,0.126c0.067,0,0.117-0.039,0.15-0.118s0.05-0.199,0.052-0.362V146.646z"/>
		<path class="st0" d="M207.968,146.912l0.105-1.084h1.033v0.354h-0.693l-0.038,0.457c0.08-0.054,0.163-0.081,0.248-0.081
			c0.176,0,0.311,0.063,0.407,0.188c0.095,0.126,0.143,0.303,0.143,0.531c0,0.213-0.057,0.386-0.17,0.517s-0.265,0.196-0.454,0.196
			c-0.112,0-0.216-0.026-0.312-0.08c-0.096-0.053-0.171-0.127-0.226-0.222c-0.056-0.095-0.083-0.202-0.084-0.322h0.41
			c0.007,0.09,0.029,0.159,0.066,0.209c0.037,0.049,0.085,0.073,0.144,0.073c0.068,0,0.121-0.032,0.158-0.099
			s0.056-0.165,0.056-0.297c0-0.123-0.022-0.216-0.066-0.279c-0.045-0.062-0.107-0.094-0.187-0.094
			c-0.078,0-0.139,0.027-0.182,0.081l-0.026,0.036L207.968,146.912z"/>
		<path class="st0" d="M210.694,146.064l-0.674,1.896h-0.438l0.677-1.791h-0.855v-0.342h1.291V146.064z"/>
	</g>
</g>
<g>
	<g>
		<path class="st0" d="M176.65,154.881h0.182v0.341h-0.182v0.465h-0.415v-0.465h-0.706l-0.019-0.266l0.724-1.402h0.416V154.881z
			 M175.913,154.881h0.322v-0.714l-0.009,0.017L175.913,154.881z"/>
		<path class="st0" d="M178.314,154.805c0,0.295-0.053,0.521-0.161,0.677c-0.106,0.156-0.259,0.234-0.458,0.234
			c-0.196,0-0.348-0.076-0.455-0.228c-0.107-0.152-0.163-0.369-0.167-0.653v-0.402c0-0.294,0.053-0.519,0.16-0.675
			c0.106-0.155,0.259-0.233,0.458-0.233s0.352,0.077,0.458,0.231s0.161,0.375,0.163,0.661V154.805z M177.898,154.372
			c0-0.169-0.017-0.296-0.05-0.38s-0.085-0.126-0.155-0.126c-0.132,0-0.2,0.154-0.205,0.463v0.533c0,0.173,0.017,0.302,0.05,0.386
			c0.034,0.084,0.086,0.126,0.158,0.126c0.067,0,0.117-0.039,0.15-0.118s0.05-0.199,0.052-0.362V154.372z"/>
		<path class="st0" d="M178.635,154.638l0.105-1.084h1.033v0.354h-0.693l-0.038,0.457c0.08-0.054,0.163-0.081,0.248-0.081
			c0.176,0,0.311,0.063,0.407,0.188c0.095,0.126,0.143,0.303,0.143,0.531c0,0.213-0.057,0.386-0.17,0.517s-0.265,0.196-0.454,0.196
			c-0.112,0-0.216-0.026-0.312-0.08c-0.096-0.053-0.171-0.127-0.226-0.222c-0.056-0.095-0.083-0.202-0.084-0.322h0.41
			c0.007,0.09,0.029,0.159,0.066,0.209c0.037,0.049,0.085,0.073,0.144,0.073c0.068,0,0.121-0.032,0.158-0.099
			s0.056-0.165,0.056-0.297c0-0.123-0.022-0.216-0.066-0.279c-0.045-0.062-0.107-0.094-0.187-0.094
			c-0.078,0-0.139,0.027-0.182,0.081l-0.026,0.036L178.635,154.638z"/>
		<path class="st0" d="M180.914,154.862c-0.088,0.09-0.184,0.135-0.289,0.135c-0.162,0-0.29-0.065-0.383-0.196
			c-0.093-0.13-0.14-0.304-0.14-0.522c0-0.141,0.026-0.269,0.079-0.386c0.053-0.116,0.126-0.207,0.221-0.271
			c0.094-0.064,0.199-0.097,0.315-0.097c0.12,0,0.227,0.036,0.321,0.107s0.167,0.173,0.218,0.307
			c0.052,0.133,0.078,0.285,0.078,0.455v0.15c0,0.363-0.08,0.647-0.24,0.852c-0.159,0.205-0.386,0.309-0.679,0.312h-0.042v-0.357
			h0.028c0.162,0,0.284-0.042,0.365-0.125S180.897,155.021,180.914,154.862z M180.731,154.671c0.08,0,0.143-0.055,0.189-0.164
			v-0.191c0-0.14-0.019-0.25-0.057-0.33s-0.087-0.119-0.148-0.119c-0.06,0-0.107,0.039-0.145,0.118
			c-0.036,0.079-0.055,0.175-0.055,0.289c0,0.123,0.019,0.221,0.057,0.291C180.611,154.636,180.663,154.671,180.731,154.671z"/>
	</g>
</g>
<g>
	<g>
		<path class="st0" d="M183.283,167.932h0.182v0.341h-0.182v0.465h-0.415v-0.465h-0.706l-0.019-0.266l0.724-1.402h0.416V167.932z
			 M182.546,167.932h0.322v-0.714l-0.009,0.017L182.546,167.932z"/>
		<path class="st0" d="M184.947,167.855c0,0.295-0.053,0.521-0.161,0.677c-0.106,0.156-0.259,0.234-0.458,0.234
			c-0.196,0-0.348-0.076-0.455-0.228c-0.107-0.152-0.163-0.369-0.167-0.653v-0.402c0-0.294,0.053-0.519,0.16-0.675
			c0.106-0.155,0.259-0.233,0.458-0.233s0.352,0.077,0.458,0.231s0.161,0.375,0.163,0.661V167.855z M184.531,167.423
			c0-0.169-0.017-0.296-0.05-0.38s-0.085-0.126-0.155-0.126c-0.132,0-0.2,0.154-0.205,0.463v0.533c0,0.173,0.017,0.302,0.05,0.386
			c0.034,0.084,0.086,0.126,0.158,0.126c0.067,0,0.117-0.039,0.15-0.118s0.05-0.199,0.052-0.362V167.423z"/>
		<path class="st0" d="M185.268,167.688l0.105-1.084h1.033v0.354h-0.693l-0.038,0.457c0.08-0.054,0.163-0.081,0.248-0.081
			c0.176,0,0.311,0.063,0.407,0.188c0.095,0.126,0.143,0.303,0.143,0.531c0,0.213-0.057,0.386-0.17,0.517s-0.265,0.196-0.454,0.196
			c-0.112,0-0.216-0.026-0.312-0.08c-0.096-0.053-0.171-0.127-0.226-0.222c-0.056-0.095-0.083-0.202-0.084-0.322h0.41
			c0.007,0.09,0.029,0.159,0.066,0.209c0.037,0.049,0.085,0.073,0.144,0.073c0.068,0,0.121-0.032,0.158-0.099
			s0.056-0.165,0.056-0.297c0-0.123-0.022-0.216-0.066-0.279c-0.045-0.062-0.107-0.094-0.187-0.094
			c-0.078,0-0.139,0.027-0.182,0.081l-0.026,0.036L185.268,167.688z"/>
		<path class="st0" d="M187.938,167.171c0,0.104-0.022,0.194-0.066,0.274s-0.104,0.145-0.182,0.192
			c0.088,0.05,0.157,0.118,0.208,0.206c0.051,0.087,0.076,0.19,0.076,0.309c0,0.189-0.055,0.339-0.164,0.449
			s-0.258,0.165-0.447,0.165s-0.338-0.055-0.45-0.165s-0.167-0.26-0.167-0.449c0-0.118,0.025-0.222,0.076-0.31
			s0.121-0.156,0.209-0.205c-0.078-0.048-0.139-0.112-0.183-0.192s-0.066-0.171-0.066-0.274c0-0.187,0.052-0.332,0.157-0.438
			s0.245-0.158,0.42-0.158c0.178,0,0.318,0.053,0.422,0.159S187.938,166.986,187.938,167.171z M187.364,168.425
			c0.062,0,0.111-0.026,0.144-0.08c0.034-0.054,0.051-0.129,0.051-0.225c0-0.095-0.018-0.17-0.053-0.225
			c-0.035-0.054-0.083-0.081-0.145-0.081s-0.11,0.027-0.146,0.081c-0.036,0.055-0.053,0.13-0.053,0.225
			c0,0.096,0.018,0.171,0.053,0.225S187.301,168.425,187.364,168.425z M187.525,167.191c0-0.083-0.014-0.149-0.041-0.2
			c-0.027-0.05-0.068-0.074-0.124-0.074c-0.053,0-0.093,0.023-0.12,0.072s-0.041,0.116-0.041,0.202c0,0.085,0.014,0.153,0.041,0.204
			c0.027,0.052,0.068,0.078,0.123,0.078s0.095-0.026,0.122-0.078C187.512,167.345,187.525,167.276,187.525,167.191z"/>
	</g>
</g>
<g>
	<g>
		<path class="st0" d="M224.216,178.663h0.182v0.341h-0.182v0.465h-0.415v-0.465h-0.706l-0.019-0.266l0.724-1.402h0.416V178.663z
			 M223.479,178.663h0.322v-0.714l-0.009,0.017L223.479,178.663z"/>
		<path class="st0" d="M225.88,178.587c0,0.295-0.053,0.521-0.161,0.677c-0.106,0.156-0.259,0.234-0.458,0.234
			c-0.196,0-0.348-0.076-0.455-0.228c-0.107-0.152-0.163-0.369-0.167-0.653v-0.402c0-0.294,0.053-0.519,0.16-0.675
			c0.106-0.155,0.259-0.233,0.458-0.233s0.352,0.077,0.458,0.231s0.161,0.375,0.163,0.661V178.587z M225.464,178.154
			c0-0.169-0.017-0.296-0.05-0.38s-0.085-0.126-0.155-0.126c-0.132,0-0.2,0.154-0.205,0.463v0.533c0,0.173,0.017,0.302,0.05,0.386
			c0.034,0.084,0.086,0.126,0.158,0.126c0.067,0,0.117-0.039,0.15-0.118s0.05-0.199,0.052-0.362V178.154z"/>
		<path class="st0" d="M226.201,178.42l0.105-1.084h1.033v0.354h-0.693l-0.038,0.457c0.08-0.054,0.163-0.081,0.248-0.081
			c0.176,0,0.311,0.063,0.407,0.188c0.095,0.126,0.143,0.303,0.143,0.531c0,0.213-0.057,0.386-0.17,0.517s-0.265,0.196-0.454,0.196
			c-0.112,0-0.216-0.026-0.312-0.08c-0.096-0.053-0.171-0.127-0.226-0.222c-0.056-0.095-0.083-0.202-0.084-0.322h0.41
			c0.007,0.09,0.029,0.159,0.066,0.209c0.037,0.049,0.085,0.073,0.144,0.073c0.068,0,0.121-0.032,0.158-0.099
			s0.056-0.165,0.056-0.297c0-0.123-0.022-0.216-0.066-0.279c-0.045-0.062-0.107-0.094-0.187-0.094
			c-0.078,0-0.139,0.027-0.182,0.081l-0.026,0.036L226.201,178.42z"/>
		<path class="st0" d="M228.665,177.314v0.352h-0.023c-0.155,0.001-0.279,0.047-0.37,0.14c-0.091,0.092-0.146,0.222-0.166,0.388
			c0.089-0.102,0.2-0.152,0.334-0.152c0.154,0,0.277,0.065,0.37,0.197c0.092,0.132,0.138,0.308,0.138,0.527
			c0,0.14-0.026,0.266-0.079,0.378s-0.126,0.199-0.222,0.262c-0.095,0.062-0.203,0.093-0.323,0.093
			c-0.193,0-0.349-0.078-0.465-0.232c-0.117-0.156-0.175-0.364-0.175-0.627v-0.154c0-0.235,0.037-0.441,0.11-0.618
			s0.181-0.312,0.319-0.408c0.14-0.095,0.302-0.143,0.487-0.144H228.665z M228.309,178.382c-0.053,0-0.097,0.017-0.132,0.05
			c-0.036,0.033-0.062,0.075-0.08,0.124v0.15c0,0.151,0.02,0.264,0.06,0.339c0.04,0.074,0.093,0.111,0.158,0.111
			c0.066,0,0.12-0.035,0.16-0.107s0.06-0.165,0.06-0.278c0-0.114-0.021-0.208-0.062-0.28
			C228.43,178.418,228.376,178.382,228.309,178.382z"/>
	</g>
</g>
<g>
	<g>
		<path class="st0" d="M196.583,188.955h0.182v0.341h-0.182v0.465h-0.415v-0.465h-0.706l-0.019-0.266l0.724-1.402h0.416V188.955z
			 M195.846,188.955h0.322v-0.714l-0.009,0.017L195.846,188.955z"/>
		<path class="st0" d="M198.247,188.879c0,0.295-0.053,0.521-0.161,0.677c-0.106,0.156-0.259,0.234-0.458,0.234
			c-0.196,0-0.348-0.076-0.455-0.228c-0.107-0.152-0.163-0.369-0.167-0.653v-0.402c0-0.294,0.053-0.519,0.16-0.675
			c0.106-0.155,0.259-0.233,0.458-0.233s0.352,0.077,0.458,0.231s0.161,0.375,0.163,0.661V188.879z M197.831,188.446
			c0-0.169-0.017-0.296-0.05-0.38s-0.085-0.126-0.155-0.126c-0.132,0-0.2,0.154-0.205,0.463v0.533c0,0.173,0.017,0.302,0.05,0.386
			c0.034,0.084,0.086,0.126,0.158,0.126c0.067,0,0.117-0.039,0.15-0.118s0.05-0.199,0.052-0.362V188.446z"/>
		<path class="st0" d="M198.568,188.712l0.105-1.084h1.033v0.354h-0.693l-0.038,0.457c0.08-0.054,0.163-0.081,0.248-0.081
			c0.176,0,0.311,0.063,0.407,0.188c0.095,0.126,0.143,0.303,0.143,0.531c0,0.213-0.057,0.386-0.17,0.517s-0.265,0.196-0.454,0.196
			c-0.112,0-0.216-0.026-0.312-0.08c-0.096-0.053-0.171-0.127-0.226-0.222c-0.056-0.095-0.083-0.202-0.084-0.322h0.41
			c0.007,0.09,0.029,0.159,0.066,0.209c0.037,0.049,0.085,0.073,0.144,0.073c0.068,0,0.121-0.032,0.158-0.099
			s0.056-0.165,0.056-0.297c0-0.123-0.022-0.216-0.066-0.279c-0.045-0.062-0.107-0.094-0.187-0.094
			c-0.078,0-0.139,0.027-0.182,0.081l-0.026,0.036L198.568,188.712z"/>
		<path class="st0" d="M200.085,188.712l0.105-1.084h1.033v0.354h-0.693l-0.038,0.457c0.08-0.054,0.163-0.081,0.248-0.081
			c0.176,0,0.311,0.063,0.407,0.188c0.095,0.126,0.143,0.303,0.143,0.531c0,0.213-0.057,0.386-0.17,0.517s-0.265,0.196-0.454,0.196
			c-0.112,0-0.216-0.026-0.312-0.08c-0.096-0.053-0.171-0.127-0.226-0.222c-0.056-0.095-0.083-0.202-0.084-0.322h0.41
			c0.007,0.09,0.029,0.159,0.066,0.209c0.037,0.049,0.085,0.073,0.144,0.073c0.068,0,0.121-0.032,0.158-0.099
			s0.056-0.165,0.056-0.297c0-0.123-0.022-0.216-0.066-0.279c-0.045-0.062-0.107-0.094-0.187-0.094
			c-0.078,0-0.139,0.027-0.182,0.081l-0.026,0.036L200.085,188.712z"/>
	</g>
</g>
<g>
	<g>
		<path class="st0" d="M204.791,201.809h0.182v0.341h-0.182v0.465h-0.415v-0.465h-0.706l-0.019-0.266l0.724-1.402h0.416V201.809z
			 M204.054,201.809h0.322v-0.714l-0.009,0.017L204.054,201.809z"/>
		<path class="st0" d="M206.455,201.732c0,0.295-0.053,0.521-0.161,0.677c-0.106,0.156-0.259,0.234-0.458,0.234
			c-0.196,0-0.348-0.076-0.455-0.228c-0.107-0.152-0.163-0.369-0.167-0.653v-0.402c0-0.294,0.053-0.519,0.16-0.675
			c0.106-0.155,0.259-0.233,0.458-0.233s0.352,0.077,0.458,0.231s0.161,0.375,0.163,0.661V201.732z M206.039,201.3
			c0-0.169-0.017-0.296-0.05-0.38s-0.085-0.126-0.155-0.126c-0.132,0-0.2,0.154-0.205,0.463v0.533c0,0.173,0.017,0.302,0.05,0.386
			c0.034,0.084,0.086,0.126,0.158,0.126c0.067,0,0.117-0.039,0.15-0.118s0.05-0.199,0.052-0.362V201.3z"/>
		<path class="st0" d="M206.776,201.565l0.105-1.084h1.033v0.354h-0.693l-0.038,0.457c0.08-0.054,0.163-0.081,0.248-0.081
			c0.176,0,0.311,0.063,0.407,0.188c0.095,0.126,0.143,0.303,0.143,0.531c0,0.213-0.057,0.386-0.17,0.517s-0.265,0.196-0.454,0.196
			c-0.112,0-0.216-0.026-0.312-0.08c-0.096-0.053-0.171-0.127-0.226-0.222c-0.056-0.095-0.083-0.202-0.084-0.322h0.41
			c0.007,0.09,0.029,0.159,0.066,0.209c0.037,0.049,0.085,0.073,0.144,0.073c0.068,0,0.121-0.032,0.158-0.099
			s0.056-0.165,0.056-0.297c0-0.123-0.022-0.216-0.066-0.279c-0.045-0.062-0.107-0.094-0.187-0.094
			c-0.078,0-0.139,0.027-0.182,0.081l-0.026,0.036L206.776,201.565z"/>
		<path class="st0" d="M209.344,201.809h0.182v0.341h-0.182v0.465h-0.415v-0.465h-0.706l-0.019-0.266l0.724-1.402h0.416V201.809z
			 M208.607,201.809h0.322v-0.714l-0.009,0.017L208.607,201.809z"/>
	</g>
</g>
<g>
	<g>
		<path class="st0" d="M243.591,210.515h0.182v0.341h-0.182v0.465h-0.415v-0.465h-0.706l-0.019-0.266l0.724-1.402h0.416V210.515z
			 M242.854,210.515h0.322v-0.714l-0.009,0.017L242.854,210.515z"/>
		<path class="st0" d="M245.255,210.438c0,0.295-0.054,0.521-0.161,0.677c-0.106,0.156-0.259,0.234-0.457,0.234
			c-0.196,0-0.349-0.076-0.455-0.228c-0.107-0.152-0.162-0.369-0.166-0.653v-0.402c0-0.294,0.053-0.519,0.159-0.675
			c0.106-0.155,0.26-0.233,0.459-0.233s0.352,0.077,0.458,0.231s0.161,0.375,0.163,0.661V210.438z M244.839,210.006
			c0-0.169-0.017-0.296-0.05-0.38s-0.085-0.126-0.155-0.126c-0.132,0-0.2,0.154-0.205,0.463v0.533c0,0.173,0.017,0.302,0.05,0.386
			c0.034,0.084,0.087,0.126,0.158,0.126c0.067,0,0.117-0.039,0.149-0.118c0.033-0.079,0.051-0.199,0.053-0.362V210.006z"/>
		<path class="st0" d="M245.576,210.271l0.105-1.084h1.033v0.354h-0.693l-0.038,0.457c0.08-0.054,0.163-0.081,0.248-0.081
			c0.176,0,0.311,0.063,0.406,0.188c0.095,0.126,0.143,0.303,0.143,0.531c0,0.213-0.057,0.386-0.17,0.517s-0.265,0.196-0.454,0.196
			c-0.112,0-0.216-0.026-0.312-0.08c-0.096-0.053-0.172-0.127-0.227-0.222c-0.056-0.095-0.083-0.202-0.084-0.322h0.41
			c0.007,0.09,0.028,0.159,0.065,0.209c0.037,0.049,0.085,0.073,0.144,0.073c0.068,0,0.121-0.032,0.158-0.099
			s0.056-0.165,0.056-0.297c0-0.123-0.022-0.216-0.066-0.279c-0.045-0.062-0.106-0.094-0.187-0.094
			c-0.078,0-0.139,0.027-0.182,0.081l-0.026,0.036L245.576,210.271z"/>
		<path class="st0" d="M248.308,211.32h-1.257v-0.29l0.577-0.737c0.073-0.102,0.127-0.19,0.161-0.268
			c0.035-0.077,0.053-0.151,0.053-0.222c0-0.095-0.017-0.169-0.05-0.224c-0.032-0.054-0.079-0.08-0.141-0.08
			c-0.067,0-0.121,0.031-0.161,0.094c-0.039,0.063-0.059,0.152-0.059,0.266h-0.416c0-0.13,0.026-0.25,0.081-0.358
			c0.054-0.108,0.13-0.192,0.229-0.253c0.098-0.06,0.209-0.09,0.333-0.09c0.19,0,0.338,0.053,0.443,0.157
			c0.104,0.105,0.157,0.255,0.157,0.448c0,0.119-0.029,0.241-0.087,0.365c-0.059,0.123-0.163,0.275-0.315,0.457l-0.274,0.393h0.726
			V211.32z"/>
	</g>
</g>
<g>
	<g>
		<path class="st0" d="M262.547,241.648h0.182v0.341h-0.182v0.465h-0.414v-0.465h-0.706l-0.02-0.266l0.724-1.402h0.416V241.648z
			 M261.811,241.648h0.322v-0.714l-0.009,0.017L261.811,241.648z"/>
		<path class="st0" d="M264.211,241.572c0,0.295-0.053,0.521-0.16,0.677c-0.106,0.156-0.26,0.234-0.458,0.234
			c-0.196,0-0.348-0.076-0.454-0.228c-0.107-0.152-0.163-0.369-0.167-0.653V241.2c0-0.294,0.054-0.519,0.16-0.675
			c0.106-0.155,0.259-0.233,0.458-0.233s0.353,0.077,0.459,0.231s0.16,0.375,0.162,0.661V241.572z M263.795,241.14
			c0-0.169-0.017-0.296-0.05-0.38s-0.085-0.126-0.155-0.126c-0.132,0-0.2,0.154-0.205,0.463v0.533c0,0.173,0.018,0.302,0.051,0.386
			c0.034,0.084,0.086,0.126,0.157,0.126c0.067,0,0.117-0.039,0.15-0.118c0.032-0.079,0.05-0.199,0.052-0.362V241.14z"/>
		<path class="st0" d="M265.582,241.648h0.182v0.341h-0.182v0.465h-0.414v-0.465h-0.706l-0.02-0.266l0.724-1.402h0.416V241.648z
			 M264.846,241.648h0.322v-0.714l-0.009,0.017L264.846,241.648z"/>
		<path class="st0" d="M266.996,240.3v0.352h-0.023c-0.155,0.001-0.279,0.047-0.37,0.14c-0.092,0.092-0.146,0.222-0.166,0.388
			c0.089-0.102,0.2-0.152,0.334-0.152c0.154,0,0.277,0.065,0.37,0.197c0.092,0.132,0.138,0.308,0.138,0.527
			c0,0.14-0.026,0.266-0.079,0.378s-0.126,0.199-0.222,0.262c-0.095,0.062-0.203,0.093-0.323,0.093
			c-0.193,0-0.349-0.078-0.465-0.232c-0.117-0.156-0.175-0.364-0.175-0.627v-0.154c0-0.235,0.036-0.441,0.11-0.618
			c0.073-0.177,0.181-0.312,0.319-0.408c0.14-0.095,0.302-0.143,0.487-0.144H266.996z M266.64,241.367
			c-0.053,0-0.097,0.017-0.132,0.05c-0.036,0.033-0.062,0.075-0.08,0.124v0.15c0,0.151,0.02,0.264,0.06,0.339
			c0.04,0.074,0.093,0.111,0.158,0.111c0.066,0,0.12-0.035,0.16-0.107s0.06-0.165,0.06-0.278c0-0.114-0.021-0.208-0.062-0.28
			C266.762,241.403,266.707,241.367,266.64,241.367z"/>
	</g>
</g>
<g>
	<g>
		<path class="st0" d="M229.107,241.382h0.182v0.341h-0.182v0.465h-0.415v-0.465h-0.706l-0.019-0.266l0.724-1.402h0.416V241.382z
			 M228.37,241.382h0.322v-0.714l-0.009,0.017L228.37,241.382z"/>
		<path class="st0" d="M230.771,241.306c0,0.295-0.053,0.521-0.161,0.677c-0.106,0.156-0.259,0.234-0.458,0.234
			c-0.196,0-0.348-0.076-0.455-0.228c-0.107-0.152-0.163-0.369-0.167-0.653v-0.402c0-0.294,0.053-0.519,0.16-0.675
			c0.106-0.155,0.259-0.233,0.458-0.233s0.352,0.077,0.458,0.231s0.161,0.375,0.163,0.661V241.306z M230.355,240.873
			c0-0.169-0.017-0.296-0.05-0.38s-0.085-0.126-0.155-0.126c-0.132,0-0.2,0.154-0.205,0.463v0.533c0,0.173,0.017,0.302,0.05,0.386
			c0.034,0.084,0.086,0.126,0.158,0.126c0.067,0,0.117-0.039,0.15-0.118s0.05-0.199,0.052-0.362V240.873z"/>
		<path class="st0" d="M231.092,241.139l0.105-1.084h1.033v0.354h-0.693l-0.038,0.457c0.08-0.054,0.163-0.081,0.248-0.081
			c0.176,0,0.311,0.063,0.407,0.188c0.095,0.126,0.143,0.303,0.143,0.531c0,0.213-0.057,0.386-0.17,0.517s-0.265,0.196-0.454,0.196
			c-0.112,0-0.216-0.026-0.312-0.08c-0.096-0.053-0.171-0.127-0.226-0.222c-0.056-0.095-0.083-0.202-0.084-0.322h0.41
			c0.007,0.09,0.029,0.159,0.066,0.209c0.037,0.049,0.085,0.073,0.144,0.073c0.068,0,0.121-0.032,0.158-0.099
			s0.056-0.165,0.056-0.297c0-0.123-0.022-0.216-0.066-0.279c-0.045-0.062-0.107-0.094-0.187-0.094
			c-0.078,0-0.139,0.027-0.182,0.081l-0.026,0.036L231.092,241.139z"/>
		<path class="st0" d="M232.936,240.932h0.201c0.076,0,0.132-0.026,0.168-0.08c0.035-0.053,0.053-0.125,0.053-0.214
			c0-0.086-0.018-0.152-0.055-0.199c-0.036-0.048-0.085-0.071-0.147-0.071c-0.058,0-0.105,0.022-0.141,0.067
			c-0.037,0.046-0.055,0.104-0.055,0.173h-0.415c0-0.111,0.025-0.212,0.077-0.3c0.051-0.089,0.123-0.157,0.215-0.208
			c0.093-0.049,0.195-0.074,0.307-0.074c0.196,0,0.35,0.055,0.461,0.162c0.111,0.109,0.167,0.258,0.167,0.445
			c0,0.098-0.025,0.187-0.075,0.27c-0.051,0.082-0.117,0.146-0.199,0.189c0.101,0.043,0.175,0.107,0.225,0.193
			c0.049,0.086,0.074,0.188,0.074,0.305c0,0.189-0.061,0.342-0.181,0.455c-0.121,0.115-0.279,0.172-0.475,0.172
			c-0.183,0-0.331-0.057-0.445-0.169c-0.114-0.113-0.17-0.261-0.17-0.444h0.415c0,0.076,0.02,0.142,0.06,0.193
			c0.04,0.053,0.091,0.078,0.152,0.078c0.071,0,0.127-0.026,0.169-0.079c0.041-0.053,0.062-0.123,0.062-0.212
			c0-0.211-0.082-0.316-0.245-0.318h-0.204V240.932z"/>
	</g>
</g>
<g>
	<g>
		<path class="st0" d="M240.61,259.973h0.182v0.34h-0.182v0.465h-0.415v-0.465h-0.706l-0.019-0.266l0.724-1.402h0.416V259.973z
			 M239.873,259.973h0.322v-0.715l-0.009,0.018L239.873,259.973z"/>
		<path class="st0" d="M242.274,259.896c0,0.295-0.054,0.52-0.161,0.676c-0.106,0.156-0.259,0.234-0.457,0.234
			c-0.196,0-0.348-0.076-0.455-0.227c-0.107-0.152-0.163-0.369-0.167-0.654v-0.402c0-0.293,0.053-0.518,0.16-0.674
			s0.259-0.234,0.458-0.234s0.352,0.078,0.458,0.232s0.161,0.375,0.163,0.66V259.896z M241.858,259.463
			c0-0.168-0.017-0.295-0.05-0.379s-0.085-0.127-0.155-0.127c-0.132,0-0.2,0.154-0.205,0.463v0.533c0,0.174,0.017,0.303,0.05,0.387
			c0.034,0.084,0.087,0.125,0.158,0.125c0.067,0,0.117-0.039,0.149-0.117c0.033-0.08,0.051-0.199,0.053-0.363V259.463z"/>
		<path class="st0" d="M243.645,259.973h0.182v0.34h-0.182v0.465h-0.415v-0.465h-0.706l-0.019-0.266l0.724-1.402h0.416V259.973z
			 M242.908,259.973h0.322v-0.715l-0.009,0.018L242.908,259.973z"/>
		<path class="st0" d="M245.321,258.881l-0.674,1.896h-0.438l0.677-1.791h-0.855v-0.342h1.291V258.881z"/>
	</g>
</g>
<g>
	<g>
		<path class="st0" d="M189.311,266.846h0.182v0.341h-0.182v0.465h-0.415v-0.465h-0.706l-0.019-0.266l0.724-1.402h0.416V266.846z
			 M188.574,266.846h0.322v-0.714l-0.009,0.017L188.574,266.846z"/>
		<path class="st0" d="M190.975,266.77c0,0.295-0.053,0.521-0.161,0.677c-0.106,0.156-0.259,0.234-0.458,0.234
			c-0.196,0-0.348-0.076-0.455-0.228c-0.107-0.152-0.163-0.369-0.167-0.653v-0.402c0-0.294,0.053-0.519,0.16-0.675
			c0.106-0.155,0.259-0.233,0.458-0.233s0.352,0.077,0.458,0.231s0.161,0.375,0.163,0.661V266.77z M190.559,266.337
			c0-0.169-0.017-0.296-0.05-0.38s-0.085-0.126-0.155-0.126c-0.132,0-0.2,0.154-0.205,0.463v0.533c0,0.173,0.017,0.302,0.05,0.386
			c0.034,0.084,0.086,0.126,0.158,0.126c0.067,0,0.117-0.039,0.15-0.118s0.05-0.199,0.052-0.362V266.337z"/>
		<path class="st0" d="M192.493,266.77c0,0.295-0.053,0.521-0.161,0.677c-0.106,0.156-0.259,0.234-0.458,0.234
			c-0.196,0-0.348-0.076-0.455-0.228c-0.107-0.152-0.163-0.369-0.167-0.653v-0.402c0-0.294,0.053-0.519,0.16-0.675
			c0.106-0.155,0.259-0.233,0.458-0.233s0.352,0.077,0.458,0.231s0.161,0.375,0.163,0.661V266.77z M192.076,266.337
			c0-0.169-0.017-0.296-0.05-0.38s-0.085-0.126-0.155-0.126c-0.132,0-0.2,0.154-0.205,0.463v0.533c0,0.173,0.017,0.302,0.05,0.386
			c0.034,0.084,0.086,0.126,0.158,0.126c0.067,0,0.117-0.039,0.15-0.118s0.05-0.199,0.052-0.362V266.337z"/>
		<path class="st0" d="M193.14,266.396h0.201c0.076,0,0.132-0.026,0.168-0.08c0.035-0.053,0.053-0.125,0.053-0.214
			c0-0.086-0.018-0.152-0.055-0.199c-0.036-0.048-0.085-0.071-0.147-0.071c-0.058,0-0.105,0.022-0.141,0.067
			c-0.037,0.046-0.055,0.104-0.055,0.173h-0.415c0-0.111,0.025-0.212,0.077-0.3c0.051-0.089,0.123-0.157,0.215-0.208
			c0.093-0.049,0.195-0.074,0.307-0.074c0.196,0,0.35,0.055,0.461,0.162c0.111,0.109,0.167,0.258,0.167,0.445
			c0,0.098-0.025,0.187-0.075,0.27c-0.051,0.082-0.117,0.146-0.199,0.189c0.101,0.043,0.175,0.107,0.225,0.193
			c0.049,0.086,0.074,0.188,0.074,0.305c0,0.189-0.061,0.342-0.181,0.455c-0.121,0.115-0.279,0.172-0.475,0.172
			c-0.183,0-0.331-0.057-0.445-0.169c-0.114-0.113-0.17-0.261-0.17-0.444h0.415c0,0.076,0.02,0.142,0.06,0.193
			c0.04,0.053,0.091,0.078,0.152,0.078c0.071,0,0.127-0.026,0.169-0.079c0.041-0.053,0.062-0.123,0.062-0.212
			c0-0.211-0.082-0.316-0.245-0.318h-0.204V266.396z"/>
	</g>
</g>
<g>
	<g>
		<path class="st0" d="M252.748,278.543h0.182v0.341h-0.182v0.465h-0.415v-0.465h-0.706l-0.019-0.266l0.724-1.402h0.416V278.543z
			 M252.011,278.543h0.322v-0.714l-0.009,0.017L252.011,278.543z"/>
		<path class="st0" d="M254.412,278.467c0,0.295-0.054,0.521-0.161,0.677c-0.106,0.156-0.259,0.234-0.457,0.234
			c-0.196,0-0.349-0.076-0.455-0.228c-0.107-0.152-0.162-0.369-0.166-0.653v-0.402c0-0.294,0.053-0.519,0.159-0.675
			c0.106-0.155,0.26-0.233,0.459-0.233s0.352,0.077,0.458,0.231s0.161,0.375,0.163,0.661V278.467z M253.996,278.034
			c0-0.169-0.017-0.296-0.05-0.38s-0.085-0.126-0.155-0.126c-0.132,0-0.2,0.154-0.205,0.463v0.533c0,0.173,0.017,0.302,0.05,0.386
			c0.034,0.084,0.087,0.126,0.158,0.126c0.067,0,0.117-0.039,0.149-0.118c0.033-0.079,0.051-0.199,0.053-0.362V278.034z"/>
		<path class="st0" d="M255.784,278.543h0.182v0.341h-0.182v0.465h-0.415v-0.465h-0.706l-0.019-0.266l0.724-1.402h0.416V278.543z
			 M255.046,278.543h0.322v-0.714l-0.009,0.017L255.046,278.543z"/>
		<path class="st0" d="M256.25,278.3l0.105-1.084h1.033v0.354h-0.693l-0.038,0.457c0.08-0.054,0.163-0.081,0.248-0.081
			c0.176,0,0.311,0.063,0.406,0.188c0.095,0.126,0.143,0.303,0.143,0.531c0,0.213-0.057,0.386-0.17,0.517s-0.265,0.196-0.454,0.196
			c-0.112,0-0.216-0.026-0.312-0.08c-0.096-0.053-0.172-0.127-0.227-0.222c-0.056-0.095-0.083-0.202-0.084-0.322h0.41
			c0.007,0.09,0.028,0.159,0.065,0.209c0.037,0.049,0.085,0.073,0.144,0.073c0.068,0,0.121-0.032,0.158-0.099
			s0.056-0.165,0.056-0.297c0-0.123-0.022-0.216-0.066-0.279c-0.045-0.062-0.106-0.094-0.187-0.094
			c-0.078,0-0.139,0.027-0.182,0.081l-0.026,0.036L256.25,278.3z"/>
	</g>
</g>
<g>
	<g>
		<path class="st0" d="M282.659,273.118h0.182v0.341h-0.182v0.465h-0.414v-0.465h-0.706l-0.02-0.266l0.724-1.402h0.416V273.118z
			 M281.922,273.118h0.322v-0.714l-0.009,0.017L281.922,273.118z"/>
		<path class="st0" d="M284.323,273.042c0,0.295-0.053,0.521-0.16,0.677c-0.106,0.156-0.26,0.234-0.458,0.234
			c-0.196,0-0.348-0.076-0.454-0.228c-0.107-0.152-0.163-0.369-0.167-0.653v-0.402c0-0.294,0.054-0.519,0.16-0.675
			c0.106-0.155,0.259-0.233,0.458-0.233s0.353,0.077,0.459,0.231s0.16,0.375,0.162,0.661V273.042z M283.907,272.609
			c0-0.169-0.017-0.296-0.05-0.38s-0.085-0.126-0.155-0.126c-0.132,0-0.2,0.154-0.205,0.463v0.533c0,0.173,0.018,0.302,0.051,0.386
			c0.034,0.084,0.086,0.126,0.157,0.126c0.067,0,0.117-0.039,0.15-0.118c0.032-0.079,0.05-0.199,0.052-0.362V272.609z"/>
		<path class="st0" d="M285.694,273.118h0.182v0.341h-0.182v0.465h-0.414v-0.465h-0.706l-0.02-0.266l0.724-1.402h0.416V273.118z
			 M284.957,273.118h0.322v-0.714l-0.009,0.017L284.957,273.118z"/>
		<path class="st0" d="M287.211,273.118h0.182v0.341h-0.182v0.465h-0.414v-0.465h-0.706l-0.02-0.266l0.724-1.402h0.416V273.118z
			 M286.475,273.118h0.322v-0.714l-0.009,0.017L286.475,273.118z"/>
	</g>
</g>
<g>
	<g>
		<path class="st0" d="M219.608,285.692h0.182v0.341h-0.182v0.465h-0.415v-0.465h-0.706l-0.019-0.266l0.724-1.402h0.416V285.692z
			 M218.871,285.692h0.322v-0.714l-0.009,0.017L218.871,285.692z"/>
		<path class="st0" d="M221.272,285.616c0,0.295-0.053,0.521-0.161,0.677c-0.106,0.156-0.259,0.234-0.458,0.234
			c-0.196,0-0.348-0.076-0.455-0.228c-0.107-0.152-0.163-0.369-0.167-0.653v-0.402c0-0.294,0.053-0.519,0.16-0.675
			c0.106-0.155,0.259-0.233,0.458-0.233s0.352,0.077,0.458,0.231s0.161,0.375,0.163,0.661V285.616z M220.856,285.184
			c0-0.169-0.017-0.296-0.05-0.38s-0.085-0.126-0.155-0.126c-0.132,0-0.2,0.154-0.205,0.463v0.533c0,0.173,0.017,0.302,0.05,0.386
			c0.034,0.084,0.086,0.126,0.158,0.126c0.067,0,0.117-0.039,0.15-0.118s0.05-0.199,0.052-0.362V285.184z"/>
		<path class="st0" d="M222.463,286.498h-0.416v-1.629l-0.406,0.156v-0.346l0.778-0.317h0.044V286.498z"/>
		<path class="st0" d="M224.325,286.498h-1.257v-0.29l0.577-0.737c0.073-0.102,0.127-0.19,0.162-0.268s0.052-0.151,0.052-0.222
			c0-0.095-0.017-0.169-0.049-0.224c-0.033-0.054-0.08-0.08-0.141-0.08c-0.067,0-0.121,0.031-0.161,0.094
			c-0.039,0.063-0.059,0.152-0.059,0.266h-0.416c0-0.13,0.027-0.25,0.082-0.358c0.054-0.108,0.13-0.192,0.229-0.253
			c0.098-0.06,0.209-0.09,0.333-0.09c0.19,0,0.338,0.053,0.443,0.157c0.104,0.105,0.157,0.255,0.157,0.448
			c0,0.119-0.029,0.241-0.087,0.365c-0.059,0.123-0.164,0.275-0.316,0.457l-0.274,0.393h0.725V286.498z"/>
	</g>
</g>
<g>
	<g>
		<path class="st0" d="M208.744,293.145h0.182v0.341h-0.182v0.465h-0.415v-0.465h-0.706l-0.019-0.266l0.724-1.402h0.416V293.145z
			 M208.007,293.145h0.322v-0.714l-0.009,0.017L208.007,293.145z"/>
		<path class="st0" d="M210.408,293.068c0,0.295-0.053,0.521-0.161,0.677c-0.106,0.156-0.259,0.234-0.458,0.234
			c-0.196,0-0.348-0.076-0.455-0.228c-0.107-0.152-0.163-0.369-0.167-0.653v-0.402c0-0.294,0.053-0.519,0.16-0.675
			c0.106-0.155,0.259-0.233,0.458-0.233s0.352,0.077,0.458,0.231s0.161,0.375,0.163,0.661V293.068z M209.992,292.636
			c0-0.169-0.017-0.296-0.05-0.38s-0.085-0.126-0.155-0.126c-0.132,0-0.2,0.154-0.205,0.463v0.533c0,0.173,0.017,0.302,0.05,0.386
			c0.034,0.084,0.086,0.126,0.158,0.126c0.067,0,0.117-0.039,0.15-0.118s0.05-0.199,0.052-0.362V292.636z"/>
		<path class="st0" d="M211.599,293.95h-0.416v-1.629l-0.406,0.156v-0.346l0.778-0.317h0.044V293.95z"/>
		<path class="st0" d="M212.573,292.694h0.201c0.076,0,0.132-0.026,0.168-0.08c0.035-0.053,0.053-0.125,0.053-0.214
			c0-0.086-0.018-0.152-0.055-0.199c-0.036-0.048-0.085-0.071-0.147-0.071c-0.058,0-0.105,0.022-0.141,0.067
			c-0.037,0.046-0.055,0.104-0.055,0.173h-0.415c0-0.111,0.025-0.212,0.077-0.3c0.051-0.089,0.123-0.157,0.215-0.208
			c0.093-0.049,0.195-0.074,0.307-0.074c0.196,0,0.35,0.055,0.461,0.162c0.111,0.109,0.167,0.258,0.167,0.445
			c0,0.098-0.025,0.187-0.075,0.27c-0.051,0.082-0.117,0.146-0.199,0.189c0.101,0.043,0.175,0.107,0.225,0.193
			c0.049,0.086,0.074,0.188,0.074,0.305c0,0.189-0.061,0.342-0.181,0.455c-0.121,0.115-0.279,0.172-0.475,0.172
			c-0.183,0-0.331-0.057-0.445-0.169c-0.114-0.113-0.17-0.261-0.17-0.444h0.415c0,0.076,0.02,0.142,0.06,0.193
			c0.04,0.053,0.091,0.078,0.152,0.078c0.071,0,0.127-0.026,0.169-0.079c0.041-0.053,0.062-0.123,0.062-0.212
			c0-0.211-0.082-0.316-0.245-0.318h-0.204V292.694z"/>
	</g>
</g>
<g>
	<g>
		<path class="st0" d="M199.077,299.386h0.182v0.341h-0.182v0.465h-0.415v-0.465h-0.706l-0.019-0.266l0.724-1.402h0.416V299.386z
			 M198.341,299.386h0.322v-0.714l-0.009,0.017L198.341,299.386z"/>
		<path class="st0" d="M200.742,299.31c0,0.295-0.053,0.521-0.161,0.677c-0.106,0.156-0.259,0.234-0.458,0.234
			c-0.196,0-0.348-0.076-0.455-0.228c-0.107-0.152-0.163-0.369-0.167-0.653v-0.402c0-0.294,0.053-0.519,0.16-0.675
			c0.106-0.155,0.259-0.233,0.458-0.233s0.352,0.077,0.458,0.231s0.161,0.375,0.163,0.661V299.31z M200.326,298.877
			c0-0.169-0.017-0.296-0.05-0.38s-0.085-0.126-0.155-0.126c-0.132,0-0.2,0.154-0.205,0.463v0.533c0,0.173,0.017,0.302,0.05,0.386
			c0.034,0.084,0.086,0.126,0.158,0.126c0.067,0,0.117-0.039,0.15-0.118s0.05-0.199,0.052-0.362V298.877z"/>
		<path class="st0" d="M201.932,300.191h-0.416v-1.629l-0.406,0.156v-0.346l0.778-0.317h0.044V300.191z"/>
		<path class="st0" d="M203.63,299.386h0.182v0.341h-0.182v0.465h-0.415v-0.465h-0.706l-0.019-0.266l0.724-1.402h0.416V299.386z
			 M202.893,299.386h0.322v-0.714l-0.009,0.017L202.893,299.386z"/>
	</g>
</g>
<g>
	<g>
		<path class="st0" d="M186.711,318.259h0.182v0.341h-0.182v0.465h-0.415V318.6h-0.706l-0.019-0.266l0.724-1.402h0.416V318.259z
			 M185.974,318.259h0.322v-0.714l-0.009,0.017L185.974,318.259z"/>
		<path class="st0" d="M188.375,318.183c0,0.295-0.053,0.521-0.161,0.677c-0.106,0.156-0.259,0.234-0.458,0.234
			c-0.196,0-0.348-0.076-0.455-0.228c-0.107-0.152-0.163-0.369-0.167-0.653v-0.402c0-0.294,0.053-0.519,0.16-0.675
			c0.106-0.155,0.259-0.233,0.458-0.233s0.352,0.077,0.458,0.231s0.161,0.375,0.163,0.661V318.183z M187.959,317.75
			c0-0.169-0.017-0.296-0.05-0.38s-0.085-0.126-0.155-0.126c-0.132,0-0.2,0.154-0.205,0.463v0.533c0,0.173,0.017,0.302,0.05,0.386
			c0.034,0.084,0.086,0.126,0.158,0.126c0.067,0,0.117-0.039,0.15-0.118s0.05-0.199,0.052-0.362V317.75z"/>
		<path class="st0" d="M189.566,319.064h-0.416v-1.629l-0.406,0.156v-0.346l0.778-0.317h0.044V319.064z"/>
		<path class="st0" d="M190.213,318.016l0.105-1.084h1.033v0.354h-0.693l-0.038,0.457c0.08-0.054,0.163-0.081,0.248-0.081
			c0.176,0,0.311,0.063,0.407,0.188c0.095,0.126,0.143,0.303,0.143,0.531c0,0.213-0.057,0.386-0.17,0.517s-0.265,0.196-0.454,0.196
			c-0.112,0-0.216-0.026-0.312-0.08c-0.096-0.053-0.171-0.127-0.226-0.222c-0.056-0.095-0.083-0.202-0.084-0.322h0.41
			c0.007,0.09,0.029,0.159,0.066,0.209c0.037,0.049,0.085,0.073,0.144,0.073c0.068,0,0.121-0.032,0.158-0.099
			s0.056-0.165,0.056-0.297c0-0.123-0.022-0.216-0.066-0.279c-0.045-0.062-0.107-0.094-0.187-0.094
			c-0.078,0-0.139,0.027-0.182,0.081l-0.026,0.036L190.213,318.016z"/>
	</g>
</g>
<g>
	<g>
		<path class="st0" d="M207.077,351.843h0.182v0.341h-0.182v0.465h-0.415v-0.465h-0.706l-0.019-0.266l0.724-1.402h0.416V351.843z
			 M206.341,351.843h0.322v-0.714l-0.009,0.017L206.341,351.843z"/>
		<path class="st0" d="M208.742,351.767c0,0.295-0.053,0.521-0.161,0.677c-0.106,0.156-0.259,0.234-0.458,0.234
			c-0.196,0-0.348-0.076-0.455-0.228c-0.107-0.152-0.163-0.369-0.167-0.653v-0.402c0-0.294,0.053-0.519,0.16-0.675
			c0.106-0.155,0.259-0.233,0.458-0.233s0.352,0.077,0.458,0.231s0.161,0.375,0.163,0.661V351.767z M208.326,351.334
			c0-0.169-0.017-0.296-0.05-0.38s-0.085-0.126-0.155-0.126c-0.132,0-0.2,0.154-0.205,0.463v0.533c0,0.173,0.017,0.302,0.05,0.386
			c0.034,0.084,0.086,0.126,0.158,0.126c0.067,0,0.117-0.039,0.15-0.118s0.05-0.199,0.052-0.362V351.334z"/>
		<path class="st0" d="M209.932,352.648h-0.416v-1.629l-0.406,0.156v-0.346l0.778-0.317h0.044V352.648z"/>
		<path class="st0" d="M211.788,350.752l-0.674,1.896h-0.438l0.677-1.791h-0.855v-0.342h1.291V350.752z"/>
	</g>
</g>
<g>
	<g>
		<path class="st0" d="M235.605,385.343h0.182v0.341h-0.182v0.465h-0.415v-0.465h-0.706l-0.019-0.266l0.724-1.402h0.416V385.343z
			 M234.868,385.343h0.322v-0.714l-0.009,0.017L234.868,385.343z"/>
		<path class="st0" d="M237.269,385.267c0,0.295-0.053,0.521-0.161,0.677c-0.106,0.156-0.259,0.234-0.458,0.234
			c-0.196,0-0.348-0.076-0.455-0.228c-0.107-0.152-0.163-0.369-0.167-0.653v-0.402c0-0.294,0.053-0.519,0.16-0.675
			c0.106-0.155,0.259-0.233,0.458-0.233s0.352,0.077,0.458,0.231s0.161,0.375,0.163,0.661V385.267z M236.853,384.834
			c0-0.169-0.017-0.296-0.05-0.38s-0.085-0.126-0.155-0.126c-0.132,0-0.2,0.154-0.205,0.463v0.533c0,0.173,0.017,0.302,0.05,0.386
			c0.034,0.084,0.086,0.126,0.158,0.126c0.067,0,0.117-0.039,0.15-0.118s0.05-0.199,0.052-0.362V384.834z"/>
		<path class="st0" d="M238.46,386.148h-0.416v-1.629l-0.406,0.156v-0.346l0.778-0.317h0.044V386.148z"/>
		<path class="st0" d="M240.261,384.582c0,0.104-0.022,0.194-0.066,0.274s-0.104,0.145-0.182,0.192
			c0.088,0.05,0.157,0.118,0.208,0.206c0.051,0.087,0.076,0.19,0.076,0.309c0,0.189-0.055,0.339-0.164,0.449
			s-0.258,0.165-0.447,0.165s-0.338-0.055-0.45-0.165s-0.167-0.26-0.167-0.449c0-0.118,0.025-0.222,0.076-0.31
			s0.121-0.156,0.209-0.205c-0.078-0.048-0.139-0.112-0.183-0.192s-0.066-0.171-0.066-0.274c0-0.187,0.052-0.332,0.157-0.438
			s0.245-0.158,0.42-0.158c0.178,0,0.318,0.053,0.422,0.159S240.261,384.397,240.261,384.582z M239.686,385.836
			c0.062,0,0.111-0.026,0.144-0.08c0.034-0.054,0.051-0.129,0.051-0.225c0-0.095-0.018-0.17-0.053-0.225
			c-0.035-0.054-0.083-0.081-0.145-0.081s-0.11,0.027-0.146,0.081c-0.036,0.055-0.053,0.13-0.053,0.225
			c0,0.096,0.018,0.171,0.053,0.225S239.623,385.836,239.686,385.836z M239.847,384.603c0-0.083-0.014-0.149-0.041-0.2
			c-0.027-0.05-0.068-0.074-0.124-0.074c-0.053,0-0.093,0.023-0.12,0.072s-0.041,0.116-0.041,0.202c0,0.085,0.014,0.153,0.041,0.204
			c0.027,0.052,0.068,0.078,0.123,0.078s0.095-0.026,0.122-0.078C239.834,384.756,239.847,384.688,239.847,384.603z"/>
	</g>
</g>
<g>
	<g>
		<path class="st0" d="M293.243,396.51h0.182v0.341h-0.182v0.465h-0.414v-0.465h-0.706l-0.02-0.266l0.724-1.402h0.416V396.51z
			 M292.507,396.51h0.322v-0.714l-0.009,0.017L292.507,396.51z"/>
		<path class="st0" d="M294.908,396.434c0,0.295-0.053,0.521-0.16,0.677c-0.106,0.156-0.26,0.234-0.458,0.234
			c-0.196,0-0.348-0.076-0.454-0.228c-0.107-0.152-0.163-0.369-0.167-0.653v-0.402c0-0.294,0.054-0.519,0.16-0.675
			c0.106-0.155,0.259-0.233,0.458-0.233s0.353,0.077,0.459,0.231s0.16,0.375,0.162,0.661V396.434z M294.492,396.001
			c0-0.169-0.017-0.296-0.05-0.38s-0.085-0.126-0.155-0.126c-0.132,0-0.2,0.154-0.205,0.463v0.533c0,0.173,0.018,0.302,0.051,0.386
			c0.034,0.084,0.086,0.126,0.157,0.126c0.067,0,0.117-0.039,0.15-0.118c0.032-0.079,0.05-0.199,0.052-0.362V396.001z"/>
		<path class="st0" d="M296.443,397.315h-1.257v-0.29l0.577-0.737c0.073-0.102,0.127-0.19,0.162-0.268
			c0.034-0.077,0.052-0.151,0.052-0.222c0-0.095-0.017-0.169-0.049-0.224c-0.033-0.054-0.08-0.08-0.142-0.08
			c-0.067,0-0.12,0.031-0.16,0.094c-0.039,0.063-0.06,0.152-0.06,0.266h-0.416c0-0.13,0.027-0.25,0.082-0.358
			c0.054-0.108,0.13-0.192,0.229-0.253c0.098-0.06,0.209-0.09,0.333-0.09c0.19,0,0.338,0.053,0.443,0.157
			c0.104,0.105,0.157,0.255,0.157,0.448c0,0.119-0.029,0.241-0.087,0.365c-0.059,0.123-0.164,0.275-0.316,0.457l-0.273,0.393h0.725
			V397.315z"/>
		<path class="st0" d="M297.617,397.315h-0.416v-1.629l-0.406,0.156v-0.346l0.778-0.317h0.044V397.315z"/>
	</g>
</g>
<g>
	<g>
		<path class="st0" d="M334.377,378.543h0.182v0.341h-0.182v0.465h-0.415v-0.465h-0.706l-0.019-0.266l0.724-1.402h0.416V378.543z
			 M333.64,378.543h0.322v-0.714l-0.009,0.017L333.64,378.543z"/>
		<path class="st0" d="M336.041,378.467c0,0.295-0.054,0.521-0.161,0.677c-0.106,0.156-0.259,0.234-0.457,0.234
			c-0.196,0-0.349-0.076-0.455-0.228c-0.107-0.152-0.162-0.369-0.166-0.653v-0.402c0-0.294,0.053-0.519,0.159-0.675
			c0.106-0.155,0.26-0.233,0.459-0.233s0.352,0.077,0.458,0.231s0.161,0.375,0.163,0.661V378.467z M335.625,378.034
			c0-0.169-0.017-0.296-0.05-0.38s-0.085-0.126-0.155-0.126c-0.132,0-0.2,0.154-0.205,0.463v0.533c0,0.173,0.017,0.302,0.05,0.386
			c0.034,0.084,0.087,0.126,0.158,0.126c0.067,0,0.117-0.039,0.149-0.118c0.033-0.079,0.051-0.199,0.053-0.362V378.034z"/>
		<path class="st0" d="M337.577,379.349h-1.257v-0.29l0.577-0.737c0.073-0.102,0.127-0.19,0.161-0.268
			c0.035-0.077,0.053-0.151,0.053-0.222c0-0.095-0.017-0.169-0.05-0.224c-0.032-0.054-0.079-0.08-0.141-0.08
			c-0.067,0-0.121,0.031-0.161,0.094c-0.039,0.063-0.059,0.152-0.059,0.266h-0.416c0-0.13,0.026-0.25,0.081-0.358
			c0.054-0.108,0.13-0.192,0.229-0.253c0.098-0.06,0.209-0.09,0.333-0.09c0.19,0,0.338,0.053,0.443,0.157
			c0.104,0.105,0.157,0.255,0.157,0.448c0,0.119-0.029,0.241-0.087,0.365c-0.059,0.123-0.163,0.275-0.315,0.457l-0.274,0.393h0.726
			V379.349z"/>
		<path class="st0" d="M339.094,379.349h-1.257v-0.29l0.577-0.737c0.073-0.102,0.127-0.19,0.161-0.268
			c0.035-0.077,0.053-0.151,0.053-0.222c0-0.095-0.017-0.169-0.05-0.224c-0.032-0.054-0.079-0.08-0.141-0.08
			c-0.067,0-0.121,0.031-0.161,0.094c-0.039,0.063-0.059,0.152-0.059,0.266h-0.416c0-0.13,0.026-0.25,0.081-0.358
			c0.054-0.108,0.13-0.192,0.229-0.253c0.098-0.06,0.209-0.09,0.333-0.09c0.19,0,0.338,0.053,0.443,0.157
			c0.104,0.105,0.157,0.255,0.157,0.448c0,0.119-0.029,0.241-0.087,0.365c-0.059,0.123-0.163,0.275-0.315,0.457l-0.274,0.393h0.726
			V379.349z"/>
	</g>
</g>
<g>
	<g>
		<path class="st0" d="M361.202,360.31h0.182v0.341h-0.182v0.465h-0.414v-0.465h-0.706l-0.02-0.266l0.724-1.402h0.416V360.31z
			 M360.466,360.31h0.322v-0.714l-0.009,0.017L360.466,360.31z"/>
		<path class="st0" d="M362.867,360.233c0,0.295-0.053,0.521-0.16,0.677c-0.106,0.156-0.26,0.234-0.458,0.234
			c-0.196,0-0.348-0.076-0.454-0.228c-0.107-0.152-0.163-0.369-0.167-0.653v-0.402c0-0.294,0.054-0.519,0.16-0.675
			c0.106-0.155,0.259-0.233,0.458-0.233s0.353,0.077,0.459,0.231s0.16,0.375,0.162,0.661V360.233z M362.451,359.801
			c0-0.169-0.017-0.296-0.05-0.38s-0.085-0.126-0.155-0.126c-0.132,0-0.2,0.154-0.205,0.463v0.533c0,0.173,0.018,0.302,0.051,0.386
			c0.034,0.084,0.086,0.126,0.157,0.126c0.067,0,0.117-0.039,0.15-0.118c0.032-0.079,0.05-0.199,0.052-0.362V359.801z"/>
		<path class="st0" d="M364.402,361.115h-1.257v-0.29l0.577-0.737c0.073-0.102,0.127-0.19,0.162-0.268
			c0.034-0.077,0.052-0.151,0.052-0.222c0-0.095-0.017-0.169-0.049-0.224c-0.033-0.054-0.08-0.08-0.142-0.08
			c-0.067,0-0.12,0.031-0.16,0.094c-0.039,0.063-0.06,0.152-0.06,0.266h-0.416c0-0.13,0.027-0.25,0.082-0.358
			c0.054-0.108,0.13-0.192,0.229-0.253c0.098-0.06,0.209-0.09,0.333-0.09c0.19,0,0.338,0.053,0.443,0.157
			c0.104,0.105,0.157,0.255,0.157,0.448c0,0.119-0.029,0.241-0.087,0.365c-0.059,0.123-0.164,0.275-0.316,0.457l-0.273,0.393h0.725
			V361.115z"/>
		<path class="st0" d="M365.032,359.859h0.201c0.076,0,0.132-0.026,0.168-0.08c0.035-0.053,0.053-0.125,0.053-0.214
			c0-0.086-0.018-0.152-0.055-0.199c-0.036-0.048-0.086-0.071-0.147-0.071c-0.058,0-0.104,0.022-0.141,0.067
			c-0.037,0.046-0.056,0.104-0.056,0.173h-0.414c0-0.111,0.025-0.212,0.077-0.3c0.051-0.089,0.123-0.157,0.215-0.208
			c0.093-0.049,0.194-0.074,0.307-0.074c0.196,0,0.351,0.055,0.462,0.162c0.111,0.109,0.167,0.258,0.167,0.445
			c0,0.098-0.025,0.187-0.075,0.27c-0.051,0.082-0.117,0.146-0.199,0.189c0.101,0.043,0.176,0.107,0.226,0.193
			c0.049,0.086,0.073,0.188,0.073,0.305c0,0.189-0.061,0.342-0.181,0.455c-0.121,0.115-0.279,0.172-0.476,0.172
			c-0.183,0-0.331-0.057-0.444-0.169c-0.114-0.113-0.171-0.261-0.171-0.444h0.415c0,0.076,0.02,0.142,0.06,0.193
			c0.04,0.053,0.091,0.078,0.152,0.078c0.071,0,0.128-0.026,0.17-0.079c0.041-0.053,0.062-0.123,0.062-0.212
			c0-0.211-0.081-0.316-0.244-0.318h-0.204V359.859z"/>
	</g>
</g>
<g>
	<g>
		<path class="st0" d="M386.77,342.516h0.182v0.341h-0.182v0.465h-0.415v-0.465h-0.706l-0.019-0.266l0.724-1.402h0.416V342.516z
			 M386.033,342.516h0.322v-0.714l-0.009,0.017L386.033,342.516z"/>
		<path class="st0" d="M388.434,342.439c0,0.295-0.054,0.521-0.161,0.677c-0.106,0.156-0.259,0.234-0.457,0.234
			c-0.196,0-0.349-0.076-0.455-0.228c-0.107-0.152-0.162-0.369-0.166-0.653v-0.402c0-0.294,0.053-0.519,0.159-0.675
			c0.106-0.155,0.26-0.233,0.459-0.233s0.352,0.077,0.458,0.231s0.161,0.375,0.163,0.661V342.439z M388.018,342.007
			c0-0.169-0.017-0.296-0.05-0.38s-0.085-0.126-0.155-0.126c-0.132,0-0.2,0.154-0.205,0.463v0.533c0,0.173,0.017,0.302,0.05,0.386
			c0.034,0.084,0.087,0.126,0.158,0.126c0.067,0,0.117-0.039,0.149-0.118c0.033-0.079,0.051-0.199,0.053-0.362V342.007z"/>
		<path class="st0" d="M389.081,342.065h0.2c0.076,0,0.132-0.026,0.168-0.08c0.035-0.053,0.054-0.125,0.054-0.214
			c0-0.086-0.019-0.152-0.056-0.199c-0.036-0.048-0.085-0.071-0.146-0.071c-0.058,0-0.105,0.022-0.142,0.067
			c-0.037,0.046-0.055,0.104-0.055,0.173h-0.415c0-0.111,0.025-0.212,0.077-0.3c0.051-0.089,0.123-0.157,0.215-0.208
			c0.093-0.049,0.195-0.074,0.308-0.074c0.196,0,0.35,0.055,0.461,0.162c0.111,0.109,0.167,0.258,0.167,0.445
			c0,0.098-0.025,0.187-0.075,0.27c-0.051,0.082-0.116,0.146-0.198,0.189c0.101,0.043,0.175,0.107,0.225,0.193
			c0.049,0.086,0.074,0.188,0.074,0.305c0,0.189-0.061,0.342-0.182,0.455c-0.12,0.115-0.278,0.172-0.475,0.172
			c-0.183,0-0.331-0.057-0.445-0.169c-0.113-0.113-0.17-0.261-0.17-0.444h0.414c0,0.076,0.021,0.142,0.061,0.193
			c0.04,0.053,0.091,0.078,0.152,0.078c0.071,0,0.127-0.026,0.169-0.079c0.041-0.053,0.062-0.123,0.062-0.212
			c0-0.211-0.082-0.316-0.245-0.318h-0.203V342.065z"/>
		<path class="st0" d="M391.142,343.321h-0.416v-1.629l-0.405,0.156v-0.346l0.777-0.317h0.044V343.321z"/>
	</g>
</g>
<g>
	<g>
		<path class="st0" d="M413.336,327.208h0.182v0.341h-0.182v0.465h-0.415v-0.465h-0.706l-0.019-0.266l0.724-1.402h0.416V327.208z
			 M412.599,327.208h0.322v-0.714l-0.009,0.017L412.599,327.208z"/>
		<path class="st0" d="M415,327.132c0,0.295-0.054,0.521-0.161,0.677c-0.106,0.156-0.259,0.234-0.457,0.234
			c-0.196,0-0.349-0.076-0.455-0.228c-0.107-0.152-0.162-0.369-0.166-0.653v-0.402c0-0.294,0.053-0.519,0.159-0.675
			c0.106-0.155,0.26-0.233,0.459-0.233s0.352,0.077,0.458,0.231s0.161,0.375,0.163,0.661V327.132z M414.584,326.699
			c0-0.169-0.017-0.296-0.05-0.38s-0.085-0.126-0.155-0.126c-0.132,0-0.2,0.154-0.205,0.463v0.533c0,0.173,0.017,0.302,0.05,0.386
			c0.034,0.084,0.087,0.126,0.158,0.126c0.067,0,0.117-0.039,0.149-0.118c0.033-0.079,0.051-0.199,0.053-0.362V326.699z"/>
		<path class="st0" d="M415.648,326.758h0.2c0.076,0,0.132-0.026,0.168-0.08c0.035-0.053,0.054-0.125,0.054-0.214
			c0-0.086-0.019-0.152-0.056-0.199c-0.036-0.048-0.085-0.071-0.146-0.071c-0.058,0-0.105,0.022-0.142,0.067
			c-0.037,0.046-0.055,0.104-0.055,0.173h-0.415c0-0.111,0.025-0.212,0.077-0.3c0.051-0.089,0.123-0.157,0.215-0.208
			c0.093-0.049,0.195-0.074,0.308-0.074c0.196,0,0.35,0.055,0.461,0.162c0.111,0.109,0.167,0.258,0.167,0.445
			c0,0.098-0.025,0.187-0.075,0.27c-0.051,0.082-0.116,0.146-0.198,0.189c0.101,0.043,0.175,0.107,0.225,0.193
			c0.049,0.086,0.074,0.188,0.074,0.305c0,0.189-0.061,0.342-0.182,0.455c-0.12,0.115-0.278,0.172-0.475,0.172
			c-0.183,0-0.331-0.057-0.445-0.169c-0.113-0.113-0.17-0.261-0.17-0.444h0.414c0,0.076,0.021,0.142,0.061,0.193
			c0.04,0.053,0.091,0.078,0.152,0.078c0.071,0,0.127-0.026,0.169-0.079c0.041-0.053,0.062-0.123,0.062-0.212
			c0-0.211-0.082-0.316-0.245-0.318h-0.203V326.758z"/>
		<path class="st0" d="M418.053,328.014h-1.257v-0.29l0.577-0.737c0.073-0.102,0.127-0.19,0.161-0.268
			c0.035-0.077,0.053-0.151,0.053-0.222c0-0.095-0.017-0.169-0.05-0.224c-0.032-0.054-0.079-0.08-0.141-0.08
			c-0.067,0-0.121,0.031-0.161,0.094c-0.039,0.063-0.059,0.152-0.059,0.266h-0.416c0-0.13,0.026-0.25,0.081-0.358
			c0.054-0.108,0.13-0.192,0.229-0.253c0.098-0.06,0.209-0.09,0.333-0.09c0.19,0,0.338,0.053,0.443,0.157
			c0.104,0.105,0.157,0.255,0.157,0.448c0,0.119-0.029,0.241-0.087,0.365c-0.059,0.123-0.163,0.275-0.315,0.457l-0.274,0.393h0.726
			V328.014z"/>
	</g>
</g>
<g>
	<g>
		<path class="st0" d="M425.27,320.359h0.182v0.341h-0.182v0.465h-0.415V320.7h-0.706l-0.019-0.266l0.724-1.402h0.416V320.359z
			 M424.533,320.359h0.322v-0.714l-0.009,0.017L424.533,320.359z"/>
		<path class="st0" d="M426.934,320.283c0,0.295-0.054,0.521-0.161,0.677c-0.106,0.156-0.259,0.234-0.457,0.234
			c-0.196,0-0.349-0.076-0.455-0.228c-0.107-0.152-0.162-0.369-0.166-0.653v-0.402c0-0.294,0.053-0.519,0.159-0.675
			c0.106-0.155,0.26-0.233,0.459-0.233s0.352,0.077,0.458,0.231s0.161,0.375,0.163,0.661V320.283z M426.518,319.851
			c0-0.169-0.017-0.296-0.05-0.38s-0.085-0.126-0.155-0.126c-0.132,0-0.2,0.154-0.205,0.463v0.533c0,0.173,0.017,0.302,0.05,0.386
			c0.034,0.084,0.087,0.126,0.158,0.126c0.067,0,0.117-0.039,0.149-0.118c0.033-0.079,0.051-0.199,0.053-0.362V319.851z"/>
		<path class="st0" d="M428.305,320.359h0.182v0.341h-0.182v0.465h-0.415V320.7h-0.706l-0.019-0.266l0.724-1.402h0.416V320.359z
			 M427.568,320.359h0.322v-0.714l-0.009,0.017L427.568,320.359z"/>
		<path class="st0" d="M429.969,320.283c0,0.295-0.054,0.521-0.161,0.677c-0.106,0.156-0.259,0.234-0.457,0.234
			c-0.196,0-0.349-0.076-0.455-0.228c-0.107-0.152-0.162-0.369-0.166-0.653v-0.402c0-0.294,0.053-0.519,0.159-0.675
			c0.106-0.155,0.26-0.233,0.459-0.233s0.352,0.077,0.458,0.231s0.161,0.375,0.163,0.661V320.283z M429.553,319.851
			c0-0.169-0.017-0.296-0.05-0.38s-0.085-0.126-0.155-0.126c-0.132,0-0.2,0.154-0.205,0.463v0.533c0,0.173,0.017,0.302,0.05,0.386
			c0.034,0.084,0.087,0.126,0.158,0.126c0.067,0,0.117-0.039,0.149-0.118c0.033-0.079,0.051-0.199,0.053-0.362V319.851z"/>
	</g>
</g>
<g>
	<g>
		<path class="st0" d="M444.97,302.58h0.182v0.341h-0.182v0.465h-0.415v-0.465h-0.706l-0.019-0.266l0.724-1.402h0.416V302.58z
			 M444.233,302.58h0.322v-0.714l-0.009,0.017L444.233,302.58z"/>
		<path class="st0" d="M446.634,302.504c0,0.295-0.054,0.521-0.161,0.677c-0.106,0.156-0.259,0.234-0.457,0.234
			c-0.196,0-0.349-0.076-0.455-0.228c-0.107-0.152-0.162-0.369-0.166-0.653v-0.402c0-0.294,0.053-0.519,0.159-0.675
			c0.106-0.155,0.26-0.233,0.459-0.233s0.352,0.077,0.458,0.231s0.161,0.375,0.163,0.661V302.504z M446.218,302.071
			c0-0.169-0.017-0.296-0.05-0.38s-0.085-0.126-0.155-0.126c-0.132,0-0.2,0.154-0.205,0.463v0.533c0,0.173,0.017,0.302,0.05,0.386
			c0.034,0.084,0.087,0.126,0.158,0.126c0.067,0,0.117-0.039,0.149-0.118c0.033-0.079,0.051-0.199,0.053-0.362V302.071z"/>
		<path class="st0" d="M447.282,302.13h0.2c0.076,0,0.132-0.026,0.168-0.08c0.035-0.053,0.054-0.125,0.054-0.214
			c0-0.086-0.019-0.152-0.056-0.199c-0.036-0.048-0.085-0.071-0.146-0.071c-0.058,0-0.105,0.022-0.142,0.067
			c-0.037,0.046-0.055,0.104-0.055,0.173h-0.415c0-0.111,0.025-0.212,0.077-0.3c0.051-0.089,0.123-0.157,0.215-0.208
			c0.093-0.049,0.195-0.074,0.308-0.074c0.196,0,0.35,0.055,0.461,0.162c0.111,0.109,0.167,0.258,0.167,0.445
			c0,0.098-0.025,0.187-0.075,0.27c-0.051,0.082-0.116,0.146-0.198,0.189c0.101,0.043,0.175,0.107,0.225,0.193
			c0.049,0.086,0.074,0.188,0.074,0.305c0,0.189-0.061,0.342-0.182,0.455c-0.12,0.115-0.278,0.172-0.475,0.172
			c-0.183,0-0.331-0.057-0.445-0.169c-0.113-0.113-0.17-0.261-0.17-0.444h0.414c0,0.076,0.021,0.142,0.061,0.193
			c0.04,0.053,0.091,0.078,0.152,0.078c0.071,0,0.127-0.026,0.169-0.079c0.041-0.053,0.062-0.123,0.062-0.212
			c0-0.211-0.082-0.316-0.245-0.318h-0.203V302.13z"/>
		<path class="st0" d="M448.799,302.13h0.2c0.076,0,0.132-0.026,0.168-0.08c0.035-0.053,0.054-0.125,0.054-0.214
			c0-0.086-0.019-0.152-0.056-0.199c-0.036-0.048-0.085-0.071-0.146-0.071c-0.058,0-0.105,0.022-0.142,0.067
			c-0.037,0.046-0.055,0.104-0.055,0.173h-0.415c0-0.111,0.025-0.212,0.077-0.3c0.051-0.089,0.123-0.157,0.215-0.208
			c0.093-0.049,0.195-0.074,0.308-0.074c0.196,0,0.35,0.055,0.461,0.162c0.111,0.109,0.167,0.258,0.167,0.445
			c0,0.098-0.025,0.187-0.075,0.27c-0.051,0.082-0.116,0.146-0.198,0.189c0.101,0.043,0.175,0.107,0.225,0.193
			c0.049,0.086,0.074,0.188,0.074,0.305c0,0.189-0.061,0.342-0.182,0.455c-0.12,0.115-0.278,0.172-0.475,0.172
			c-0.183,0-0.331-0.057-0.445-0.169c-0.113-0.113-0.17-0.261-0.17-0.444h0.414c0,0.076,0.021,0.142,0.061,0.193
			c0.04,0.053,0.091,0.078,0.152,0.078c0.071,0,0.127-0.026,0.169-0.079c0.041-0.053,0.062-0.123,0.062-0.212
			c0-0.211-0.082-0.316-0.245-0.318h-0.203V302.13z"/>
	</g>
</g>
<g>
	<g>
		<path class="st0" d="M425.669,268.326h0.182v0.341h-0.182v0.465h-0.414v-0.465h-0.706l-0.02-0.266l0.724-1.402h0.416V268.326z
			 M424.933,268.326h0.322v-0.714l-0.009,0.017L424.933,268.326z"/>
		<path class="st0" d="M427.333,268.25c0,0.295-0.053,0.521-0.16,0.677c-0.106,0.156-0.26,0.234-0.458,0.234
			c-0.196,0-0.348-0.076-0.454-0.228c-0.107-0.152-0.163-0.369-0.167-0.653v-0.402c0-0.294,0.054-0.519,0.16-0.675
			c0.106-0.155,0.259-0.233,0.458-0.233s0.353,0.077,0.459,0.231s0.16,0.375,0.162,0.661V268.25z M426.917,267.817
			c0-0.169-0.017-0.296-0.05-0.38s-0.085-0.126-0.155-0.126c-0.132,0-0.2,0.154-0.205,0.463v0.533c0,0.173,0.018,0.302,0.051,0.386
			c0.034,0.084,0.086,0.126,0.157,0.126c0.067,0,0.117-0.039,0.15-0.118c0.032-0.079,0.05-0.199,0.052-0.362V267.817z"/>
		<path class="st0" d="M427.981,267.876h0.201c0.076,0,0.132-0.026,0.168-0.08c0.035-0.053,0.053-0.125,0.053-0.214
			c0-0.086-0.018-0.152-0.055-0.199c-0.036-0.048-0.086-0.071-0.147-0.071c-0.058,0-0.104,0.022-0.141,0.067
			c-0.037,0.046-0.056,0.104-0.056,0.173h-0.414c0-0.111,0.025-0.212,0.077-0.3c0.051-0.089,0.123-0.157,0.215-0.208
			c0.093-0.049,0.194-0.074,0.307-0.074c0.196,0,0.351,0.055,0.462,0.162c0.111,0.109,0.167,0.258,0.167,0.445
			c0,0.098-0.025,0.187-0.075,0.27c-0.051,0.082-0.117,0.146-0.199,0.189c0.101,0.043,0.176,0.107,0.226,0.193
			c0.049,0.086,0.073,0.188,0.073,0.305c0,0.189-0.061,0.342-0.181,0.455c-0.121,0.115-0.279,0.172-0.476,0.172
			c-0.183,0-0.331-0.057-0.444-0.169c-0.114-0.113-0.171-0.261-0.171-0.444h0.415c0,0.076,0.02,0.142,0.06,0.193
			c0.04,0.053,0.091,0.078,0.152,0.078c0.071,0,0.128-0.026,0.17-0.079c0.041-0.053,0.062-0.123,0.062-0.212
			c0-0.211-0.081-0.316-0.244-0.318h-0.204V267.876z"/>
		<path class="st0" d="M430.222,268.326h0.182v0.341h-0.182v0.465h-0.414v-0.465h-0.706l-0.02-0.266l0.724-1.402h0.416V268.326z
			 M429.486,268.326h0.322v-0.714l-0.009,0.017L429.486,268.326z"/>
	</g>
</g>
<g>
	<g>
		<path class="st0" d="M398.07,291.326h0.182v0.341h-0.182v0.465h-0.415v-0.465h-0.706l-0.019-0.266l0.724-1.402h0.416V291.326z
			 M397.332,291.326h0.322v-0.714l-0.009,0.017L397.332,291.326z"/>
		<path class="st0" d="M399.734,291.25c0,0.295-0.054,0.521-0.161,0.677c-0.106,0.156-0.259,0.234-0.457,0.234
			c-0.196,0-0.349-0.076-0.455-0.228c-0.107-0.152-0.162-0.369-0.166-0.653v-0.402c0-0.294,0.053-0.519,0.159-0.675
			c0.106-0.155,0.26-0.233,0.459-0.233s0.352,0.077,0.458,0.231s0.161,0.375,0.163,0.661V291.25z M399.318,290.817
			c0-0.169-0.017-0.296-0.05-0.38s-0.085-0.126-0.155-0.126c-0.132,0-0.2,0.154-0.205,0.463v0.533c0,0.173,0.017,0.302,0.05,0.386
			c0.034,0.084,0.087,0.126,0.158,0.126c0.067,0,0.117-0.039,0.149-0.118c0.033-0.079,0.051-0.199,0.053-0.362V290.817z"/>
		<path class="st0" d="M400.381,290.876h0.2c0.076,0,0.132-0.026,0.168-0.08c0.035-0.053,0.054-0.125,0.054-0.214
			c0-0.086-0.019-0.152-0.056-0.199c-0.036-0.048-0.085-0.071-0.146-0.071c-0.058,0-0.105,0.022-0.142,0.067
			c-0.037,0.046-0.055,0.104-0.055,0.173h-0.415c0-0.111,0.025-0.212,0.077-0.3c0.051-0.089,0.123-0.157,0.215-0.208
			c0.093-0.049,0.195-0.074,0.308-0.074c0.196,0,0.35,0.055,0.461,0.162c0.111,0.109,0.167,0.258,0.167,0.445
			c0,0.098-0.025,0.187-0.075,0.27c-0.051,0.082-0.116,0.146-0.198,0.189c0.101,0.043,0.175,0.107,0.225,0.193
			c0.049,0.086,0.074,0.188,0.074,0.305c0,0.189-0.061,0.342-0.182,0.455c-0.12,0.115-0.278,0.172-0.475,0.172
			c-0.183,0-0.331-0.057-0.445-0.169c-0.113-0.113-0.17-0.261-0.17-0.444h0.414c0,0.076,0.021,0.142,0.061,0.193
			c0.04,0.053,0.091,0.078,0.152,0.078c0.071,0,0.127-0.026,0.169-0.079c0.041-0.053,0.062-0.123,0.062-0.212
			c0-0.211-0.082-0.316-0.245-0.318h-0.203V290.876z"/>
		<path class="st0" d="M401.572,291.083l0.105-1.084h1.033v0.354h-0.693l-0.038,0.457c0.08-0.054,0.163-0.081,0.248-0.081
			c0.176,0,0.311,0.063,0.406,0.188c0.095,0.126,0.143,0.303,0.143,0.531c0,0.213-0.057,0.386-0.17,0.517s-0.265,0.196-0.454,0.196
			c-0.112,0-0.216-0.026-0.312-0.08c-0.096-0.053-0.172-0.127-0.227-0.222c-0.056-0.095-0.083-0.202-0.084-0.322h0.41
			c0.007,0.09,0.028,0.159,0.065,0.209c0.037,0.049,0.085,0.073,0.144,0.073c0.068,0,0.121-0.032,0.158-0.099
			s0.056-0.165,0.056-0.297c0-0.123-0.022-0.216-0.066-0.279c-0.045-0.062-0.106-0.094-0.187-0.094
			c-0.078,0-0.139,0.027-0.182,0.081l-0.026,0.036L401.572,291.083z"/>
	</g>
</g>
<g>
	<g>
		<path class="st0" d="M351.735,267.436h0.182v0.341h-0.182v0.465h-0.414v-0.465h-0.706l-0.02-0.266l0.724-1.402h0.416V267.436z
			 M350.998,267.436h0.322v-0.714l-0.009,0.017L350.998,267.436z"/>
		<path class="st0" d="M353.399,267.359c0,0.295-0.053,0.521-0.16,0.677c-0.106,0.156-0.26,0.234-0.458,0.234
			c-0.196,0-0.348-0.076-0.454-0.228c-0.107-0.152-0.163-0.369-0.167-0.653v-0.402c0-0.294,0.054-0.519,0.16-0.675
			c0.106-0.155,0.259-0.233,0.458-0.233s0.353,0.077,0.459,0.231s0.16,0.375,0.162,0.661V267.359z M352.983,266.927
			c0-0.169-0.017-0.296-0.05-0.38s-0.085-0.126-0.155-0.126c-0.132,0-0.2,0.154-0.205,0.463v0.533c0,0.173,0.018,0.302,0.051,0.386
			c0.034,0.084,0.086,0.126,0.157,0.126c0.067,0,0.117-0.039,0.15-0.118c0.032-0.079,0.05-0.199,0.052-0.362V266.927z"/>
		<path class="st0" d="M354.046,266.985h0.201c0.076,0,0.132-0.026,0.168-0.08c0.035-0.053,0.053-0.125,0.053-0.214
			c0-0.086-0.018-0.152-0.055-0.199c-0.036-0.048-0.086-0.071-0.147-0.071c-0.058,0-0.104,0.022-0.141,0.067
			c-0.037,0.046-0.056,0.104-0.056,0.173h-0.414c0-0.111,0.025-0.212,0.077-0.3c0.051-0.089,0.123-0.157,0.215-0.208
			c0.093-0.049,0.194-0.074,0.307-0.074c0.196,0,0.351,0.055,0.462,0.162c0.111,0.109,0.167,0.258,0.167,0.445
			c0,0.098-0.025,0.187-0.075,0.27c-0.051,0.082-0.117,0.146-0.199,0.189c0.101,0.043,0.176,0.107,0.226,0.193
			c0.049,0.086,0.073,0.188,0.073,0.305c0,0.189-0.061,0.342-0.181,0.455c-0.121,0.115-0.279,0.172-0.476,0.172
			c-0.183,0-0.331-0.057-0.444-0.169c-0.114-0.113-0.171-0.261-0.171-0.444h0.415c0,0.076,0.02,0.142,0.06,0.193
			c0.04,0.053,0.091,0.078,0.152,0.078c0.071,0,0.128-0.026,0.17-0.079c0.041-0.053,0.062-0.123,0.062-0.212
			c0-0.211-0.081-0.316-0.244-0.318h-0.204V266.985z"/>
		<path class="st0" d="M355.999,267.417c-0.088,0.09-0.185,0.135-0.289,0.135c-0.162,0-0.29-0.065-0.383-0.196
			c-0.094-0.13-0.14-0.304-0.14-0.522c0-0.141,0.026-0.269,0.079-0.386c0.053-0.116,0.126-0.207,0.221-0.271
			c0.094-0.064,0.199-0.097,0.315-0.097c0.12,0,0.227,0.036,0.32,0.107s0.167,0.173,0.219,0.307
			c0.052,0.133,0.077,0.285,0.077,0.455v0.15c0,0.363-0.079,0.647-0.239,0.852c-0.159,0.205-0.386,0.309-0.679,0.312h-0.043v-0.357
			h0.028c0.162,0,0.283-0.042,0.365-0.125C355.933,267.697,355.983,267.576,355.999,267.417z M355.816,267.226
			c0.08,0,0.144-0.055,0.189-0.164v-0.191c0-0.14-0.02-0.25-0.058-0.33s-0.087-0.119-0.147-0.119c-0.06,0-0.107,0.039-0.145,0.118
			c-0.036,0.079-0.055,0.175-0.055,0.289c0,0.123,0.019,0.221,0.057,0.291C355.696,267.19,355.748,267.226,355.816,267.226z"/>
	</g>
</g>
<g>
	<g>
		<path class="st0" d="M368.831,258.42h0.182v0.341h-0.182v0.465h-0.414v-0.465h-0.706l-0.02-0.266l0.724-1.402h0.416V258.42z
			 M368.095,258.42h0.322v-0.714l-0.009,0.017L368.095,258.42z"/>
		<path class="st0" d="M370.495,258.344c0,0.295-0.053,0.521-0.16,0.677c-0.106,0.156-0.26,0.234-0.458,0.234
			c-0.196,0-0.348-0.076-0.454-0.228c-0.107-0.152-0.163-0.369-0.167-0.653v-0.402c0-0.294,0.054-0.519,0.16-0.675
			c0.106-0.155,0.259-0.233,0.458-0.233s0.353,0.077,0.459,0.231s0.16,0.375,0.162,0.661V258.344z M370.079,257.911
			c0-0.169-0.017-0.296-0.05-0.38s-0.085-0.126-0.155-0.126c-0.132,0-0.2,0.154-0.205,0.463v0.533c0,0.173,0.018,0.302,0.051,0.386
			c0.034,0.084,0.086,0.126,0.157,0.126c0.067,0,0.117-0.039,0.15-0.118c0.032-0.079,0.05-0.199,0.052-0.362V257.911z"/>
		<path class="st0" d="M371.143,257.97h0.201c0.076,0,0.132-0.026,0.168-0.08c0.035-0.053,0.053-0.125,0.053-0.214
			c0-0.086-0.018-0.152-0.055-0.199c-0.036-0.048-0.086-0.071-0.147-0.071c-0.058,0-0.104,0.022-0.141,0.067
			c-0.037,0.046-0.056,0.104-0.056,0.173h-0.414c0-0.111,0.025-0.212,0.077-0.3c0.051-0.089,0.123-0.157,0.215-0.208
			c0.093-0.049,0.194-0.074,0.307-0.074c0.196,0,0.351,0.055,0.462,0.162c0.111,0.109,0.167,0.258,0.167,0.445
			c0,0.098-0.025,0.187-0.075,0.27c-0.051,0.082-0.117,0.146-0.199,0.189c0.101,0.043,0.176,0.107,0.226,0.193
			c0.049,0.086,0.073,0.188,0.073,0.305c0,0.189-0.061,0.342-0.181,0.455c-0.121,0.115-0.279,0.172-0.476,0.172
			c-0.183,0-0.331-0.057-0.444-0.169c-0.114-0.113-0.171-0.261-0.171-0.444h0.415c0,0.076,0.02,0.142,0.06,0.193
			c0.04,0.053,0.091,0.078,0.152,0.078c0.071,0,0.128-0.026,0.17-0.079c0.041-0.053,0.062-0.123,0.062-0.212
			c0-0.211-0.081-0.316-0.244-0.318h-0.204V257.97z"/>
		<path class="st0" d="M373.487,257.659c0,0.104-0.021,0.194-0.065,0.274s-0.104,0.145-0.182,0.192
			c0.088,0.05,0.157,0.118,0.208,0.206c0.051,0.087,0.076,0.19,0.076,0.309c0,0.189-0.055,0.339-0.164,0.449
			s-0.259,0.165-0.447,0.165s-0.338-0.055-0.449-0.165s-0.167-0.26-0.167-0.449c0-0.118,0.025-0.222,0.076-0.31
			s0.12-0.156,0.209-0.205c-0.078-0.048-0.139-0.112-0.183-0.192s-0.066-0.171-0.066-0.274c0-0.187,0.053-0.332,0.157-0.438
			s0.244-0.158,0.42-0.158c0.178,0,0.318,0.053,0.422,0.159S373.487,257.475,373.487,257.659z M372.912,258.913
			c0.062,0,0.111-0.026,0.145-0.08c0.034-0.054,0.051-0.129,0.051-0.225c0-0.095-0.018-0.17-0.053-0.225
			c-0.035-0.054-0.084-0.081-0.146-0.081s-0.11,0.027-0.146,0.081c-0.036,0.055-0.054,0.13-0.054,0.225
			c0,0.096,0.018,0.171,0.054,0.225C372.799,258.887,372.849,258.913,372.912,258.913z M373.074,257.68
			c0-0.083-0.014-0.149-0.04-0.2c-0.027-0.05-0.068-0.074-0.124-0.074c-0.053,0-0.093,0.023-0.12,0.072s-0.041,0.116-0.041,0.202
			c0,0.085,0.014,0.153,0.041,0.204c0.027,0.052,0.068,0.078,0.123,0.078s0.096-0.026,0.122-0.078
			C373.061,257.833,373.074,257.765,373.074,257.68z"/>
	</g>
</g>
<g>
	<g>
		<path class="st0" d="M390.931,254.912l0.156-0.094l0.176,0.291l-0.154,0.094l0.24,0.397l-0.354,0.216l-0.242-0.398l-0.603,0.367
			l-0.154-0.217l-0.11-1.574l0.355-0.217L390.931,254.912z M390.302,255.295l0.275-0.168l-0.371-0.609l0.001,0.018L390.302,255.295z
			"/>
		<path class="st0" d="M392.314,253.983c0.153,0.252,0.225,0.472,0.215,0.661c-0.011,0.189-0.101,0.335-0.27,0.438
			c-0.168,0.103-0.338,0.116-0.508,0.042s-0.33-0.231-0.48-0.472l-0.209-0.344c-0.152-0.252-0.224-0.471-0.215-0.66
			c0.011-0.188,0.102-0.334,0.271-0.438s0.341-0.116,0.512-0.039c0.171,0.076,0.332,0.236,0.482,0.48L392.314,253.983z
			 M391.734,253.829c-0.088-0.144-0.168-0.244-0.24-0.299s-0.137-0.063-0.197-0.026c-0.113,0.068-0.092,0.235,0.064,0.502
			l0.277,0.455c0.09,0.148,0.172,0.25,0.243,0.305c0.073,0.053,0.14,0.062,0.2,0.025c0.058-0.035,0.08-0.095,0.066-0.18
			c-0.014-0.084-0.061-0.195-0.143-0.336L391.734,253.829z"/>
		<path class="st0" d="M392.673,253.327l0.172-0.104c0.064-0.039,0.099-0.09,0.102-0.155c0.003-0.063-0.02-0.134-0.065-0.21
			c-0.044-0.074-0.095-0.121-0.15-0.143s-0.11-0.016-0.163,0.016c-0.049,0.03-0.078,0.074-0.086,0.131
			c-0.008,0.059,0.007,0.117,0.043,0.176l-0.354,0.216c-0.058-0.095-0.088-0.194-0.089-0.296c-0.004-0.103,0.023-0.199,0.075-0.289
			c0.054-0.09,0.128-0.164,0.224-0.223c0.168-0.103,0.328-0.136,0.479-0.102c0.152,0.035,0.277,0.134,0.374,0.294
			c0.051,0.083,0.075,0.173,0.075,0.27s-0.023,0.185-0.07,0.265c0.107-0.016,0.205,0.001,0.293,0.049
			c0.086,0.048,0.16,0.121,0.221,0.222c0.098,0.162,0.125,0.323,0.082,0.483c-0.044,0.16-0.15,0.291-0.318,0.393
			c-0.156,0.096-0.312,0.124-0.467,0.088c-0.156-0.039-0.281-0.135-0.377-0.292l0.354-0.215c0.04,0.065,0.091,0.11,0.151,0.134
			c0.062,0.024,0.119,0.02,0.172-0.012c0.061-0.037,0.095-0.09,0.104-0.156c0.008-0.066-0.012-0.137-0.058-0.213
			c-0.109-0.181-0.233-0.229-0.374-0.146l-0.174,0.105L392.673,253.327z"/>
		<path class="st0" d="M394.392,251.534l0.408,1.971l-0.375,0.228l-0.352-1.883l-0.73,0.444l-0.178-0.292l1.104-0.67
			L394.392,251.534z"/>
	</g>
</g>
<g>
	<g>
		<path class="st0" d="M365.903,312.506h0.182v0.342h-0.182v0.465h-0.414v-0.465h-0.706l-0.02-0.266l0.724-1.402h0.416V312.506z
			 M365.166,312.506h0.322v-0.713l-0.009,0.016L365.166,312.506z"/>
		<path class="st0" d="M367.567,312.43c0,0.295-0.053,0.521-0.16,0.678c-0.106,0.156-0.26,0.234-0.458,0.234
			c-0.196,0-0.348-0.076-0.454-0.229c-0.107-0.152-0.163-0.369-0.167-0.652v-0.402c0-0.295,0.054-0.52,0.16-0.676
			c0.106-0.154,0.259-0.232,0.458-0.232s0.353,0.076,0.459,0.23s0.16,0.375,0.162,0.662V312.43z M367.151,311.998
			c0-0.17-0.017-0.297-0.05-0.381s-0.085-0.125-0.155-0.125c-0.132,0-0.2,0.154-0.205,0.463v0.533c0,0.172,0.018,0.301,0.051,0.385
			c0.034,0.084,0.086,0.127,0.157,0.127c0.067,0,0.117-0.039,0.15-0.119c0.032-0.078,0.05-0.199,0.052-0.361V311.998z"/>
		<path class="st0" d="M368.938,312.506h0.182v0.342h-0.182v0.465h-0.414v-0.465h-0.706l-0.02-0.266l0.724-1.402h0.416V312.506z
			 M368.202,312.506h0.322v-0.713l-0.009,0.016L368.202,312.506z"/>
		<path class="st0" d="M370.276,313.312h-0.416v-1.629l-0.406,0.156v-0.346l0.778-0.318h0.044V313.312z"/>
	</g>
</g>
<g>
	<g>
		<path class="st0" d="M321.903,339.272h0.182v0.341h-0.182v0.465h-0.414v-0.465h-0.706l-0.02-0.266l0.724-1.402h0.416V339.272z
			 M321.166,339.272h0.322v-0.714l-0.009,0.017L321.166,339.272z"/>
		<path class="st0" d="M323.567,339.196c0,0.295-0.053,0.521-0.16,0.677c-0.106,0.156-0.26,0.234-0.458,0.234
			c-0.196,0-0.348-0.076-0.454-0.228c-0.107-0.152-0.163-0.369-0.167-0.653v-0.402c0-0.294,0.054-0.519,0.16-0.675
			c0.106-0.155,0.259-0.233,0.458-0.233s0.353,0.077,0.459,0.231s0.16,0.375,0.162,0.661V339.196z M323.151,338.764
			c0-0.169-0.017-0.296-0.05-0.38s-0.085-0.126-0.155-0.126c-0.132,0-0.2,0.154-0.205,0.463v0.533c0,0.173,0.018,0.302,0.051,0.386
			c0.034,0.084,0.086,0.126,0.157,0.126c0.067,0,0.117-0.039,0.15-0.118c0.032-0.079,0.05-0.199,0.052-0.362V338.764z"/>
		<path class="st0" d="M325.102,340.078h-1.257v-0.29l0.577-0.737c0.073-0.102,0.127-0.19,0.162-0.268
			c0.034-0.077,0.052-0.151,0.052-0.222c0-0.095-0.017-0.169-0.049-0.224c-0.033-0.054-0.08-0.08-0.142-0.08
			c-0.067,0-0.12,0.031-0.16,0.094c-0.039,0.063-0.06,0.152-0.06,0.266h-0.416c0-0.13,0.027-0.25,0.082-0.358
			c0.054-0.108,0.13-0.192,0.229-0.253c0.098-0.06,0.209-0.09,0.333-0.09c0.19,0,0.338,0.053,0.443,0.157
			c0.104,0.105,0.157,0.255,0.157,0.448c0,0.119-0.029,0.241-0.087,0.365c-0.059,0.123-0.164,0.275-0.316,0.457l-0.273,0.393h0.725
			V340.078z"/>
		<path class="st0" d="M325.406,339.029l0.105-1.084h1.032v0.354h-0.692l-0.038,0.457c0.08-0.054,0.162-0.081,0.247-0.081
			c0.176,0,0.312,0.063,0.407,0.188c0.095,0.126,0.143,0.303,0.143,0.531c0,0.213-0.057,0.386-0.17,0.517s-0.265,0.196-0.454,0.196
			c-0.112,0-0.217-0.026-0.312-0.08c-0.096-0.053-0.171-0.127-0.226-0.222c-0.056-0.095-0.084-0.202-0.085-0.322h0.41
			c0.007,0.09,0.029,0.159,0.066,0.209c0.037,0.049,0.085,0.073,0.144,0.073c0.068,0,0.121-0.032,0.158-0.099
			s0.056-0.165,0.056-0.297c0-0.123-0.022-0.216-0.066-0.279c-0.045-0.062-0.107-0.094-0.188-0.094
			c-0.078,0-0.139,0.027-0.182,0.081l-0.026,0.036L325.406,339.029z"/>
	</g>
</g>
<g>
	<g>
		<path class="st0" d="M291.169,336.572h0.182v0.341h-0.182v0.465h-0.414v-0.465h-0.706l-0.02-0.266l0.724-1.402h0.416V336.572z
			 M290.433,336.572h0.322v-0.714l-0.009,0.017L290.433,336.572z"/>
		<path class="st0" d="M292.833,336.496c0,0.295-0.053,0.521-0.16,0.677c-0.106,0.156-0.26,0.234-0.458,0.234
			c-0.196,0-0.348-0.076-0.454-0.228c-0.107-0.152-0.163-0.369-0.167-0.653v-0.402c0-0.294,0.054-0.519,0.16-0.675
			c0.106-0.155,0.259-0.233,0.458-0.233s0.353,0.077,0.459,0.231s0.16,0.375,0.162,0.661V336.496z M292.417,336.063
			c0-0.169-0.017-0.296-0.05-0.38s-0.085-0.126-0.155-0.126c-0.132,0-0.2,0.154-0.205,0.463v0.533c0,0.173,0.018,0.302,0.051,0.386
			c0.034,0.084,0.086,0.126,0.157,0.126c0.067,0,0.117-0.039,0.15-0.118c0.032-0.079,0.05-0.199,0.052-0.362V336.063z"/>
		<path class="st0" d="M294.368,337.378h-1.257v-0.29l0.577-0.737c0.073-0.102,0.127-0.19,0.162-0.268
			c0.034-0.077,0.052-0.151,0.052-0.222c0-0.095-0.017-0.169-0.049-0.224c-0.033-0.054-0.08-0.08-0.142-0.08
			c-0.067,0-0.12,0.031-0.16,0.094c-0.039,0.063-0.06,0.152-0.06,0.266h-0.416c0-0.13,0.027-0.25,0.082-0.358
			c0.054-0.108,0.13-0.192,0.229-0.253c0.098-0.06,0.209-0.09,0.333-0.09c0.19,0,0.338,0.053,0.443,0.157
			c0.104,0.105,0.157,0.255,0.157,0.448c0,0.119-0.029,0.241-0.087,0.365c-0.059,0.123-0.164,0.275-0.316,0.457l-0.273,0.393h0.725
			V337.378z"/>
		<path class="st0" d="M295.434,336.554c-0.088,0.09-0.185,0.135-0.289,0.135c-0.162,0-0.29-0.065-0.383-0.196
			c-0.094-0.13-0.14-0.304-0.14-0.522c0-0.141,0.026-0.269,0.079-0.386c0.053-0.116,0.126-0.207,0.221-0.271
			c0.094-0.064,0.199-0.097,0.315-0.097c0.12,0,0.227,0.036,0.32,0.107s0.167,0.173,0.219,0.307
			c0.052,0.133,0.077,0.285,0.077,0.455v0.15c0,0.363-0.079,0.647-0.239,0.852c-0.159,0.205-0.386,0.309-0.679,0.312h-0.043v-0.357
			h0.028c0.162,0,0.283-0.042,0.365-0.125C295.368,336.834,295.417,336.713,295.434,336.554z M295.25,336.362
			c0.08,0,0.144-0.055,0.189-0.164v-0.191c0-0.14-0.02-0.25-0.058-0.33s-0.087-0.119-0.147-0.119c-0.06,0-0.107,0.039-0.145,0.118
			c-0.036,0.079-0.055,0.175-0.055,0.289c0,0.123,0.019,0.221,0.057,0.291C295.13,336.327,295.183,336.362,295.25,336.362z"/>
	</g>
</g>
<g>
	<g>
		<path class="st0" d="M284.515,348.732h0.182v0.341h-0.182v0.465h-0.414v-0.465h-0.706l-0.02-0.266l0.724-1.402h0.416V348.732z
			 M283.779,348.732h0.322v-0.714l-0.009,0.017L283.779,348.732z"/>
		<path class="st0" d="M286.179,348.656c0,0.295-0.053,0.521-0.16,0.677c-0.106,0.156-0.26,0.234-0.458,0.234
			c-0.196,0-0.348-0.076-0.454-0.228c-0.107-0.152-0.163-0.369-0.167-0.653v-0.402c0-0.294,0.054-0.519,0.16-0.675
			c0.106-0.155,0.259-0.233,0.458-0.233s0.353,0.077,0.459,0.231s0.16,0.375,0.162,0.661V348.656z M285.763,348.224
			c0-0.169-0.017-0.296-0.05-0.38s-0.085-0.126-0.155-0.126c-0.132,0-0.2,0.154-0.205,0.463v0.533c0,0.173,0.018,0.302,0.051,0.386
			c0.034,0.084,0.086,0.126,0.157,0.126c0.067,0,0.117-0.039,0.15-0.118c0.032-0.079,0.05-0.199,0.052-0.362V348.224z"/>
		<path class="st0" d="M287.714,349.538h-1.257v-0.29l0.577-0.737c0.073-0.102,0.127-0.19,0.162-0.268
			c0.034-0.077,0.052-0.151,0.052-0.222c0-0.095-0.017-0.169-0.049-0.224c-0.033-0.054-0.08-0.08-0.142-0.08
			c-0.067,0-0.12,0.031-0.16,0.094c-0.039,0.063-0.06,0.152-0.06,0.266h-0.416c0-0.13,0.027-0.25,0.082-0.358
			c0.054-0.108,0.13-0.192,0.229-0.253c0.098-0.06,0.209-0.09,0.333-0.09c0.19,0,0.338,0.053,0.443,0.157
			c0.104,0.105,0.157,0.255,0.157,0.448c0,0.119-0.029,0.241-0.087,0.365c-0.059,0.123-0.164,0.275-0.316,0.457l-0.273,0.393h0.725
			V349.538z"/>
		<path class="st0" d="M289.17,347.972c0,0.104-0.021,0.194-0.065,0.274s-0.104,0.145-0.182,0.192
			c0.088,0.05,0.157,0.118,0.208,0.206c0.051,0.087,0.076,0.19,0.076,0.309c0,0.189-0.055,0.339-0.164,0.449
			s-0.259,0.165-0.447,0.165s-0.338-0.055-0.449-0.165s-0.167-0.26-0.167-0.449c0-0.118,0.025-0.222,0.076-0.31
			s0.12-0.156,0.209-0.205c-0.078-0.048-0.139-0.112-0.183-0.192s-0.066-0.171-0.066-0.274c0-0.187,0.053-0.332,0.157-0.438
			s0.244-0.158,0.42-0.158c0.178,0,0.318,0.053,0.422,0.159S289.17,347.787,289.17,347.972z M288.596,349.226
			c0.062,0,0.111-0.026,0.145-0.08c0.034-0.054,0.051-0.129,0.051-0.225c0-0.095-0.018-0.17-0.053-0.225
			c-0.035-0.054-0.084-0.081-0.146-0.081s-0.11,0.027-0.146,0.081c-0.036,0.055-0.054,0.13-0.054,0.225
			c0,0.096,0.018,0.171,0.054,0.225C288.483,349.199,288.533,349.226,288.596,349.226z M288.757,347.992
			c0-0.083-0.014-0.149-0.04-0.2c-0.027-0.05-0.068-0.074-0.124-0.074c-0.053,0-0.093,0.023-0.12,0.072s-0.041,0.116-0.041,0.202
			c0,0.085,0.014,0.153,0.041,0.204c0.027,0.052,0.068,0.078,0.123,0.078s0.096-0.026,0.122-0.078
			C288.744,348.146,288.757,348.077,288.757,347.992z"/>
	</g>
</g>
<g>
	<g>
		<path class="st0" d="M254.208,353.466h0.182v0.341h-0.182v0.465h-0.414v-0.465h-0.706l-0.02-0.266l0.724-1.402h0.416V353.466z
			 M253.472,353.466h0.322v-0.714l-0.009,0.017L253.472,353.466z"/>
		<path class="st0" d="M255.872,353.39c0,0.295-0.053,0.521-0.16,0.677c-0.106,0.156-0.26,0.234-0.458,0.234
			c-0.196,0-0.348-0.076-0.454-0.228c-0.107-0.152-0.163-0.369-0.167-0.653v-0.402c0-0.294,0.054-0.519,0.16-0.675
			c0.106-0.155,0.259-0.233,0.458-0.233s0.353,0.077,0.459,0.231s0.16,0.375,0.162,0.661V353.39z M255.456,352.957
			c0-0.169-0.017-0.296-0.05-0.38s-0.085-0.126-0.155-0.126c-0.132,0-0.2,0.154-0.205,0.463v0.533c0,0.173,0.018,0.302,0.051,0.386
			c0.034,0.084,0.086,0.126,0.157,0.126c0.067,0,0.117-0.039,0.15-0.118c0.032-0.079,0.05-0.199,0.052-0.362V352.957z"/>
		<path class="st0" d="M257.39,353.39c0,0.295-0.053,0.521-0.16,0.677c-0.106,0.156-0.26,0.234-0.458,0.234
			c-0.196,0-0.348-0.076-0.454-0.228c-0.107-0.152-0.163-0.369-0.167-0.653v-0.402c0-0.294,0.054-0.519,0.16-0.675
			c0.106-0.155,0.259-0.233,0.458-0.233s0.353,0.077,0.459,0.231s0.16,0.375,0.162,0.661V353.39z M256.974,352.957
			c0-0.169-0.017-0.296-0.05-0.38s-0.085-0.126-0.155-0.126c-0.132,0-0.2,0.154-0.205,0.463v0.533c0,0.173,0.018,0.302,0.051,0.386
			c0.034,0.084,0.086,0.126,0.157,0.126c0.067,0,0.117-0.039,0.15-0.118c0.032-0.079,0.05-0.199,0.052-0.362V352.957z"/>
		<path class="st0" d="M258.658,352.117v0.352h-0.023c-0.155,0.001-0.279,0.047-0.37,0.14c-0.092,0.092-0.146,0.222-0.166,0.388
			c0.089-0.102,0.2-0.152,0.334-0.152c0.154,0,0.277,0.065,0.37,0.197c0.092,0.132,0.138,0.308,0.138,0.527
			c0,0.14-0.026,0.266-0.079,0.378s-0.126,0.199-0.222,0.262c-0.095,0.062-0.203,0.093-0.323,0.093
			c-0.193,0-0.349-0.078-0.465-0.232c-0.117-0.156-0.175-0.364-0.175-0.627v-0.154c0-0.235,0.036-0.441,0.11-0.618
			c0.073-0.177,0.181-0.312,0.319-0.408c0.14-0.095,0.302-0.143,0.487-0.144H258.658z M258.301,353.185
			c-0.053,0-0.097,0.017-0.132,0.05c-0.036,0.033-0.062,0.075-0.08,0.124v0.15c0,0.151,0.02,0.264,0.06,0.339
			c0.04,0.074,0.093,0.111,0.158,0.111c0.066,0,0.12-0.035,0.16-0.107s0.06-0.165,0.06-0.278c0-0.114-0.021-0.208-0.062-0.28
			C258.423,353.221,258.368,353.185,258.301,353.185z"/>
	</g>
</g>
<g>
	<g>
		<path class="st0" d="M238.61,342.211h0.182v0.341h-0.182v0.465h-0.415v-0.465h-0.706l-0.019-0.266l0.724-1.402h0.416V342.211z
			 M237.873,342.211h0.322v-0.714l-0.009,0.017L237.873,342.211z"/>
		<path class="st0" d="M240.274,342.135c0,0.295-0.053,0.521-0.161,0.677c-0.106,0.156-0.259,0.234-0.458,0.234
			c-0.196,0-0.348-0.076-0.455-0.228c-0.107-0.152-0.163-0.369-0.167-0.653v-0.402c0-0.294,0.053-0.519,0.16-0.675
			c0.106-0.155,0.259-0.233,0.458-0.233s0.352,0.077,0.458,0.231s0.161,0.375,0.163,0.661V342.135z M239.858,341.702
			c0-0.169-0.017-0.296-0.05-0.38s-0.085-0.126-0.155-0.126c-0.132,0-0.2,0.154-0.205,0.463v0.533c0,0.173,0.017,0.302,0.05,0.386
			c0.034,0.084,0.086,0.126,0.158,0.126c0.067,0,0.117-0.039,0.15-0.118s0.05-0.199,0.052-0.362V341.702z"/>
		<path class="st0" d="M241.791,342.135c0,0.295-0.054,0.521-0.161,0.677c-0.106,0.156-0.259,0.234-0.457,0.234
			c-0.196,0-0.348-0.076-0.455-0.228c-0.107-0.152-0.163-0.369-0.167-0.653v-0.402c0-0.294,0.053-0.519,0.16-0.675
			c0.106-0.155,0.259-0.233,0.458-0.233s0.352,0.077,0.458,0.231s0.161,0.375,0.163,0.661V342.135z M241.375,341.702
			c0-0.169-0.017-0.296-0.05-0.38s-0.085-0.126-0.155-0.126c-0.132,0-0.2,0.154-0.205,0.463v0.533c0,0.173,0.017,0.302,0.05,0.386
			c0.034,0.084,0.086,0.126,0.158,0.126c0.067,0,0.117-0.039,0.15-0.118s0.05-0.199,0.052-0.362V341.702z"/>
		<path class="st0" d="M243.265,341.45c0,0.104-0.022,0.194-0.066,0.274s-0.104,0.145-0.182,0.192
			c0.088,0.05,0.157,0.118,0.208,0.206c0.051,0.087,0.076,0.19,0.076,0.309c0,0.189-0.055,0.339-0.164,0.449
			s-0.258,0.165-0.446,0.165s-0.339-0.055-0.45-0.165s-0.167-0.26-0.167-0.449c0-0.118,0.025-0.222,0.076-0.31
			s0.121-0.156,0.21-0.205c-0.078-0.048-0.14-0.112-0.184-0.192s-0.065-0.171-0.065-0.274c0-0.187,0.052-0.332,0.156-0.438
			s0.245-0.158,0.421-0.158c0.178,0,0.318,0.053,0.422,0.159S243.265,341.266,243.265,341.45z M242.691,342.704
			c0.062,0,0.11-0.026,0.144-0.08c0.034-0.054,0.051-0.129,0.051-0.225c0-0.095-0.018-0.17-0.053-0.225
			c-0.035-0.054-0.083-0.081-0.145-0.081s-0.11,0.027-0.146,0.081c-0.035,0.055-0.053,0.13-0.053,0.225
			c0,0.096,0.018,0.171,0.053,0.225C242.577,342.678,242.627,342.704,242.691,342.704z M242.852,341.471
			c0-0.083-0.014-0.149-0.041-0.2c-0.026-0.05-0.067-0.074-0.123-0.074c-0.053,0-0.093,0.023-0.12,0.072s-0.041,0.116-0.041,0.202
			c0,0.085,0.014,0.153,0.041,0.204c0.027,0.052,0.068,0.078,0.123,0.078s0.095-0.026,0.121-0.078
			C242.838,341.624,242.852,341.556,242.852,341.471z"/>
	</g>
</g>
<g>
	<g>
		<path class="st0" d="M225.816,324.214h0.182v0.341h-0.182v0.465h-0.415v-0.465h-0.706l-0.019-0.266l0.724-1.402h0.416V324.214z
			 M225.079,324.214h0.322V323.5l-0.009,0.017L225.079,324.214z"/>
		<path class="st0" d="M227.48,324.138c0,0.295-0.053,0.521-0.161,0.677c-0.106,0.156-0.259,0.234-0.458,0.234
			c-0.196,0-0.348-0.076-0.455-0.228c-0.107-0.152-0.163-0.369-0.167-0.653v-0.402c0-0.294,0.053-0.519,0.16-0.675
			c0.106-0.155,0.259-0.233,0.458-0.233s0.352,0.077,0.458,0.231s0.161,0.375,0.163,0.661V324.138z M227.064,323.705
			c0-0.169-0.017-0.296-0.05-0.38s-0.085-0.126-0.155-0.126c-0.132,0-0.2,0.154-0.205,0.463v0.533c0,0.173,0.017,0.302,0.05,0.386
			c0.034,0.084,0.086,0.126,0.158,0.126c0.067,0,0.117-0.039,0.15-0.118s0.05-0.199,0.052-0.362V323.705z"/>
		<path class="st0" d="M228.998,324.138c0,0.295-0.053,0.521-0.161,0.677c-0.106,0.156-0.259,0.234-0.458,0.234
			c-0.196,0-0.348-0.076-0.455-0.228c-0.107-0.152-0.163-0.369-0.167-0.653v-0.402c0-0.294,0.053-0.519,0.16-0.675
			c0.106-0.155,0.259-0.233,0.458-0.233s0.352,0.077,0.458,0.231s0.161,0.375,0.163,0.661V324.138z M228.582,323.705
			c0-0.169-0.017-0.296-0.05-0.38s-0.085-0.126-0.155-0.126c-0.132,0-0.2,0.154-0.205,0.463v0.533c0,0.173,0.017,0.302,0.05,0.386
			c0.034,0.084,0.086,0.126,0.158,0.126c0.067,0,0.117-0.039,0.15-0.118s0.05-0.199,0.052-0.362V323.705z"/>
		<path class="st0" d="M230.08,324.195c-0.088,0.09-0.184,0.135-0.289,0.135c-0.162,0-0.29-0.065-0.383-0.196
			c-0.093-0.13-0.14-0.304-0.14-0.522c0-0.141,0.026-0.269,0.079-0.386c0.053-0.116,0.126-0.207,0.221-0.271
			c0.094-0.064,0.199-0.097,0.315-0.097c0.12,0,0.227,0.036,0.321,0.107s0.167,0.173,0.218,0.307
			c0.052,0.133,0.078,0.285,0.078,0.455v0.15c0,0.363-0.08,0.647-0.24,0.852c-0.159,0.205-0.386,0.309-0.679,0.312h-0.042v-0.357
			h0.028c0.162,0,0.284-0.042,0.365-0.125S230.064,324.354,230.08,324.195z M229.897,324.004c0.08,0,0.143-0.055,0.189-0.164v-0.191
			c0-0.14-0.019-0.25-0.057-0.33s-0.087-0.119-0.148-0.119c-0.06,0-0.107,0.039-0.145,0.118c-0.036,0.079-0.055,0.175-0.055,0.289
			c0,0.123,0.019,0.221,0.057,0.291C229.777,323.969,229.83,324.004,229.897,324.004z"/>
	</g>
</g>
<g>
	<g>
		<path class="st0" d="M234.784,310.225h0.182v0.341h-0.182v0.465h-0.415v-0.465h-0.706l-0.019-0.266l0.724-1.402h0.416V310.225z
			 M234.047,310.225h0.322v-0.714l-0.009,0.017L234.047,310.225z"/>
		<path class="st0" d="M236.448,310.148c0,0.295-0.053,0.521-0.161,0.677c-0.106,0.156-0.259,0.234-0.458,0.234
			c-0.196,0-0.348-0.076-0.455-0.228c-0.107-0.152-0.163-0.369-0.167-0.653v-0.402c0-0.294,0.053-0.519,0.16-0.675
			c0.106-0.155,0.259-0.233,0.458-0.233s0.352,0.077,0.458,0.231s0.161,0.375,0.163,0.661V310.148z M236.032,309.716
			c0-0.169-0.017-0.296-0.05-0.38s-0.085-0.126-0.155-0.126c-0.132,0-0.2,0.154-0.205,0.463v0.533c0,0.173,0.017,0.302,0.05,0.386
			c0.034,0.084,0.086,0.126,0.158,0.126c0.067,0,0.117-0.039,0.15-0.118s0.05-0.199,0.052-0.362V309.716z"/>
		<path class="st0" d="M237.639,311.03h-0.416v-1.629l-0.406,0.156v-0.346l0.778-0.317h0.044V311.03z"/>
		<path class="st0" d="M239.156,311.03h-0.416v-1.629l-0.406,0.156v-0.346l0.778-0.317h0.044V311.03z"/>
	</g>
</g>
<g>
	<g>
		<path class="st0" d="M259.767,314.392h0.182v0.341h-0.182v0.465h-0.415v-0.465h-0.706l-0.019-0.266l0.724-1.402h0.416V314.392z
			 M259.03,314.392h0.322v-0.714l-0.009,0.017L259.03,314.392z"/>
		<path class="st0" d="M261.431,314.315c0,0.295-0.054,0.521-0.161,0.677c-0.106,0.156-0.259,0.234-0.457,0.234
			c-0.196,0-0.349-0.076-0.455-0.228c-0.107-0.152-0.162-0.369-0.166-0.653v-0.402c0-0.294,0.053-0.519,0.159-0.675
			c0.106-0.155,0.26-0.233,0.459-0.233s0.352,0.077,0.458,0.231s0.161,0.375,0.163,0.661V314.315z M261.015,313.883
			c0-0.169-0.017-0.296-0.05-0.38s-0.085-0.126-0.155-0.126c-0.132,0-0.2,0.154-0.205,0.463v0.533c0,0.173,0.017,0.302,0.05,0.386
			c0.034,0.084,0.087,0.126,0.158,0.126c0.067,0,0.117-0.039,0.149-0.118c0.033-0.079,0.051-0.199,0.053-0.362V313.883z"/>
		<path class="st0" d="M262.949,314.315c0,0.295-0.054,0.521-0.161,0.677c-0.106,0.156-0.259,0.234-0.457,0.234
			c-0.196,0-0.349-0.076-0.455-0.228c-0.107-0.152-0.162-0.369-0.166-0.653v-0.402c0-0.294,0.053-0.519,0.159-0.675
			c0.106-0.155,0.26-0.233,0.459-0.233s0.352,0.077,0.458,0.231s0.161,0.375,0.163,0.661V314.315z M262.533,313.883
			c0-0.169-0.017-0.296-0.05-0.38s-0.085-0.126-0.155-0.126c-0.132,0-0.2,0.154-0.205,0.463v0.533c0,0.173,0.017,0.302,0.05,0.386
			c0.034,0.084,0.087,0.126,0.158,0.126c0.067,0,0.117-0.039,0.149-0.118c0.033-0.079,0.051-0.199,0.053-0.362V313.883z"/>
		<path class="st0" d="M264.32,314.392h0.182v0.341h-0.182v0.465h-0.415v-0.465h-0.706l-0.019-0.266l0.724-1.402h0.416V314.392z
			 M263.582,314.392h0.322v-0.714l-0.009,0.017L263.582,314.392z"/>
	</g>
</g>
<g>
	<g>
		<path class="st0" d="M259.967,333h0.182v0.341h-0.182v0.465h-0.415v-0.465h-0.706l-0.019-0.266l0.724-1.402h0.416V333z
			 M259.23,333h0.322v-0.714l-0.009,0.017L259.23,333z"/>
		<path class="st0" d="M261.631,332.924c0,0.295-0.054,0.521-0.161,0.677c-0.106,0.156-0.259,0.234-0.457,0.234
			c-0.196,0-0.349-0.076-0.455-0.228c-0.107-0.152-0.162-0.369-0.166-0.653v-0.402c0-0.294,0.053-0.519,0.159-0.675
			c0.106-0.155,0.26-0.233,0.459-0.233s0.352,0.077,0.458,0.231s0.161,0.375,0.163,0.661V332.924z M261.215,332.491
			c0-0.169-0.017-0.296-0.05-0.38s-0.085-0.126-0.155-0.126c-0.132,0-0.2,0.154-0.205,0.463v0.533c0,0.173,0.017,0.302,0.05,0.386
			c0.034,0.084,0.087,0.126,0.158,0.126c0.067,0,0.117-0.039,0.149-0.118c0.033-0.079,0.051-0.199,0.053-0.362V332.491z"/>
		<path class="st0" d="M263.149,332.924c0,0.295-0.054,0.521-0.161,0.677c-0.106,0.156-0.259,0.234-0.457,0.234
			c-0.196,0-0.349-0.076-0.455-0.228c-0.107-0.152-0.162-0.369-0.166-0.653v-0.402c0-0.294,0.053-0.519,0.159-0.675
			c0.106-0.155,0.26-0.233,0.459-0.233s0.352,0.077,0.458,0.231s0.161,0.375,0.163,0.661V332.924z M262.733,332.491
			c0-0.169-0.017-0.296-0.05-0.38s-0.085-0.126-0.155-0.126c-0.132,0-0.2,0.154-0.205,0.463v0.533c0,0.173,0.017,0.302,0.05,0.386
			c0.034,0.084,0.087,0.126,0.158,0.126c0.067,0,0.117-0.039,0.149-0.118c0.033-0.079,0.051-0.199,0.053-0.362V332.491z"/>
		<path class="st0" d="M263.469,332.757l0.105-1.084h1.033v0.354h-0.693l-0.038,0.457c0.08-0.054,0.163-0.081,0.248-0.081
			c0.176,0,0.311,0.063,0.406,0.188c0.095,0.126,0.143,0.303,0.143,0.531c0,0.213-0.057,0.386-0.17,0.517s-0.265,0.196-0.454,0.196
			c-0.112,0-0.216-0.026-0.312-0.08c-0.096-0.053-0.172-0.127-0.227-0.222c-0.056-0.095-0.083-0.202-0.084-0.322h0.41
			c0.007,0.09,0.028,0.159,0.065,0.209c0.037,0.049,0.085,0.073,0.144,0.073c0.068,0,0.121-0.032,0.158-0.099
			s0.056-0.165,0.056-0.297c0-0.123-0.022-0.216-0.066-0.279c-0.045-0.062-0.106-0.094-0.187-0.094
			c-0.078,0-0.139,0.027-0.182,0.081l-0.026,0.036L263.469,332.757z"/>
	</g>
</g>
<g>
	<g>
		<path class="st0" d="M293.015,360.272h0.182v0.341h-0.182v0.465h-0.414v-0.465h-0.706l-0.02-0.266l0.724-1.402h0.416V360.272z
			 M292.279,360.272h0.322v-0.714l-0.009,0.017L292.279,360.272z"/>
		<path class="st0" d="M294.679,360.196c0,0.295-0.053,0.521-0.16,0.677c-0.106,0.156-0.26,0.234-0.458,0.234
			c-0.196,0-0.348-0.076-0.454-0.228c-0.107-0.152-0.163-0.369-0.167-0.653v-0.402c0-0.294,0.054-0.519,0.16-0.675
			c0.106-0.155,0.259-0.233,0.458-0.233s0.353,0.077,0.459,0.231s0.16,0.375,0.162,0.661V360.196z M294.263,359.764
			c0-0.169-0.017-0.296-0.05-0.38s-0.085-0.126-0.155-0.126c-0.132,0-0.2,0.154-0.205,0.463v0.533c0,0.173,0.018,0.302,0.051,0.386
			c0.034,0.084,0.086,0.126,0.157,0.126c0.067,0,0.117-0.039,0.15-0.118c0.032-0.079,0.05-0.199,0.052-0.362V359.764z"/>
		<path class="st0" d="M296.214,361.078h-1.257v-0.29l0.577-0.737c0.073-0.102,0.127-0.19,0.162-0.268
			c0.034-0.077,0.052-0.151,0.052-0.222c0-0.095-0.017-0.169-0.049-0.224c-0.033-0.054-0.08-0.08-0.142-0.08
			c-0.067,0-0.12,0.031-0.16,0.094c-0.039,0.063-0.06,0.152-0.06,0.266h-0.416c0-0.13,0.027-0.25,0.082-0.358
			c0.054-0.108,0.13-0.192,0.229-0.253c0.098-0.06,0.209-0.09,0.333-0.09c0.19,0,0.338,0.053,0.443,0.157
			c0.104,0.105,0.157,0.255,0.157,0.448c0,0.119-0.029,0.241-0.087,0.365c-0.059,0.123-0.164,0.275-0.316,0.457l-0.273,0.393h0.725
			V361.078z"/>
		<path class="st0" d="M297.464,358.924v0.352h-0.023c-0.155,0.001-0.279,0.047-0.37,0.14c-0.092,0.092-0.146,0.222-0.166,0.388
			c0.089-0.102,0.2-0.152,0.334-0.152c0.154,0,0.277,0.065,0.37,0.197c0.092,0.132,0.138,0.308,0.138,0.527
			c0,0.14-0.026,0.266-0.079,0.378s-0.126,0.199-0.222,0.262c-0.095,0.062-0.203,0.093-0.323,0.093
			c-0.193,0-0.349-0.078-0.465-0.232c-0.117-0.156-0.175-0.364-0.175-0.627v-0.154c0-0.235,0.036-0.441,0.11-0.618
			c0.073-0.177,0.181-0.312,0.319-0.408c0.14-0.095,0.302-0.143,0.487-0.144H297.464z M297.108,359.991
			c-0.053,0-0.097,0.017-0.132,0.05c-0.036,0.033-0.062,0.075-0.08,0.124v0.15c0,0.151,0.02,0.264,0.06,0.339
			c0.04,0.074,0.093,0.111,0.158,0.111c0.066,0,0.12-0.035,0.16-0.107s0.06-0.165,0.06-0.278c0-0.114-0.021-0.208-0.062-0.28
			C297.23,360.027,297.175,359.991,297.108,359.991z"/>
	</g>
</g>
<g>
	<g>
		<path class="st0" d="M217.824,223.614h0.182v0.341h-0.182v0.465h-0.415v-0.465h-0.706l-0.019-0.266l0.724-1.402h0.416V223.614z
			 M217.087,223.614h0.322V222.9l-0.009,0.017L217.087,223.614z"/>
		<path class="st0" d="M219.488,223.538c0,0.295-0.053,0.521-0.161,0.677c-0.106,0.156-0.259,0.234-0.458,0.234
			c-0.196,0-0.348-0.076-0.455-0.228c-0.107-0.152-0.163-0.369-0.167-0.653v-0.402c0-0.294,0.053-0.519,0.16-0.675
			c0.106-0.155,0.259-0.233,0.458-0.233s0.352,0.077,0.458,0.231s0.161,0.375,0.163,0.661V223.538z M219.072,223.105
			c0-0.169-0.017-0.296-0.05-0.38s-0.085-0.126-0.155-0.126c-0.132,0-0.2,0.154-0.205,0.463v0.533c0,0.173,0.017,0.302,0.05,0.386
			c0.034,0.084,0.086,0.126,0.158,0.126c0.067,0,0.117-0.039,0.15-0.118s0.05-0.199,0.052-0.362V223.105z"/>
		<path class="st0" d="M219.809,223.371l0.105-1.084h1.033v0.354h-0.693l-0.038,0.457c0.08-0.054,0.163-0.081,0.248-0.081
			c0.176,0,0.311,0.063,0.407,0.188c0.095,0.126,0.143,0.303,0.143,0.531c0,0.213-0.057,0.386-0.17,0.517s-0.265,0.196-0.454,0.196
			c-0.112,0-0.216-0.026-0.312-0.08c-0.096-0.053-0.171-0.127-0.226-0.222c-0.056-0.095-0.083-0.202-0.084-0.322h0.41
			c0.007,0.09,0.029,0.159,0.066,0.209c0.037,0.049,0.085,0.073,0.144,0.073c0.068,0,0.121-0.032,0.158-0.099
			s0.056-0.165,0.056-0.297c0-0.123-0.022-0.216-0.066-0.279c-0.045-0.062-0.107-0.094-0.187-0.094
			c-0.078,0-0.139,0.027-0.182,0.081l-0.026,0.036L219.809,223.371z"/>
		<path class="st0" d="M222.197,224.42h-0.416v-1.629l-0.406,0.156v-0.346l0.778-0.317h0.044V224.42z"/>
	</g>
</g>
<g>
	<g>
		<path class="st0" d="M169.504,235.534h0.182v0.341h-0.182v0.465h-0.415v-0.465h-0.706l-0.019-0.266l0.724-1.402h0.416V235.534z
			 M168.767,235.534h0.322v-0.714l-0.009,0.017L168.767,235.534z"/>
		<path class="st0" d="M171.168,235.458c0,0.295-0.053,0.521-0.161,0.677c-0.106,0.156-0.259,0.234-0.458,0.234
			c-0.196,0-0.348-0.076-0.455-0.228c-0.107-0.152-0.163-0.369-0.167-0.653v-0.402c0-0.294,0.053-0.519,0.16-0.675
			c0.106-0.155,0.259-0.233,0.458-0.233s0.352,0.077,0.458,0.231s0.161,0.375,0.163,0.661V235.458z M170.752,235.025
			c0-0.169-0.017-0.296-0.05-0.38s-0.085-0.126-0.155-0.126c-0.132,0-0.2,0.154-0.205,0.463v0.533c0,0.173,0.017,0.302,0.05,0.386
			c0.034,0.084,0.086,0.126,0.158,0.126c0.067,0,0.117-0.039,0.15-0.118s0.05-0.199,0.052-0.362V235.025z"/>
		<path class="st0" d="M172.686,235.458c0,0.295-0.053,0.521-0.161,0.677c-0.106,0.156-0.259,0.234-0.458,0.234
			c-0.196,0-0.348-0.076-0.455-0.228c-0.107-0.152-0.163-0.369-0.167-0.653v-0.402c0-0.294,0.053-0.519,0.16-0.675
			c0.106-0.155,0.259-0.233,0.458-0.233s0.352,0.077,0.458,0.231s0.161,0.375,0.163,0.661V235.458z M172.27,235.025
			c0-0.169-0.017-0.296-0.05-0.38s-0.085-0.126-0.155-0.126c-0.132,0-0.2,0.154-0.205,0.463v0.533c0,0.173,0.017,0.302,0.05,0.386
			c0.034,0.084,0.086,0.126,0.158,0.126c0.067,0,0.117-0.039,0.15-0.118s0.05-0.199,0.052-0.362V235.025z"/>
		<path class="st0" d="M174.221,236.34h-1.257v-0.29l0.577-0.737c0.073-0.102,0.127-0.19,0.162-0.268s0.052-0.151,0.052-0.222
			c0-0.095-0.017-0.169-0.049-0.224c-0.033-0.054-0.08-0.08-0.141-0.08c-0.067,0-0.121,0.031-0.161,0.094
			c-0.039,0.063-0.059,0.152-0.059,0.266h-0.416c0-0.13,0.027-0.25,0.082-0.358c0.054-0.108,0.13-0.192,0.229-0.253
			c0.098-0.06,0.209-0.09,0.333-0.09c0.19,0,0.338,0.053,0.443,0.157c0.104,0.105,0.157,0.255,0.157,0.448
			c0,0.119-0.029,0.241-0.087,0.365c-0.059,0.123-0.164,0.275-0.316,0.457l-0.274,0.393h0.725V236.34z"/>
	</g>
</g>
<g>
	<g>
		<path class="st0" d="M150.458,203.732h0.182v0.341h-0.182v0.465h-0.415v-0.465h-0.706l-0.019-0.266l0.724-1.402h0.416V203.732z
			 M149.721,203.732h0.322v-0.714l-0.009,0.017L149.721,203.732z"/>
		<path class="st0" d="M152.122,203.656c0,0.295-0.053,0.521-0.161,0.677c-0.106,0.156-0.259,0.234-0.458,0.234
			c-0.196,0-0.348-0.076-0.455-0.228c-0.107-0.152-0.163-0.369-0.167-0.653v-0.402c0-0.294,0.053-0.519,0.16-0.675
			c0.106-0.155,0.259-0.233,0.458-0.233s0.352,0.077,0.458,0.231s0.161,0.375,0.163,0.661V203.656z M151.706,203.224
			c0-0.169-0.017-0.296-0.05-0.38s-0.085-0.126-0.155-0.126c-0.132,0-0.2,0.154-0.205,0.463v0.533c0,0.173,0.017,0.302,0.05,0.386
			c0.034,0.084,0.086,0.126,0.158,0.126c0.067,0,0.117-0.039,0.15-0.118s0.05-0.199,0.052-0.362V203.224z"/>
		<path class="st0" d="M153.639,203.656c0,0.295-0.053,0.521-0.161,0.677c-0.106,0.156-0.259,0.234-0.458,0.234
			c-0.196,0-0.348-0.076-0.455-0.228c-0.107-0.152-0.163-0.369-0.167-0.653v-0.402c0-0.294,0.053-0.519,0.16-0.675
			c0.106-0.155,0.259-0.233,0.458-0.233s0.352,0.077,0.458,0.231s0.161,0.375,0.163,0.661V203.656z M153.223,203.224
			c0-0.169-0.017-0.296-0.05-0.38s-0.085-0.126-0.155-0.126c-0.132,0-0.2,0.154-0.205,0.463v0.533c0,0.173,0.017,0.302,0.05,0.386
			c0.034,0.084,0.086,0.126,0.158,0.126c0.067,0,0.117-0.039,0.15-0.118s0.05-0.199,0.052-0.362V203.224z"/>
		<path class="st0" d="M154.83,204.538h-0.416v-1.629l-0.406,0.156v-0.346l0.778-0.317h0.044V204.538z"/>
	</g>
</g>
<g>
	<g>
		<path class="st0" d="M114.668,131.64h0.182v0.341h-0.182v0.465h-0.415v-0.465h-0.706l-0.019-0.266l0.724-1.402h0.416V131.64z
			 M113.931,131.64h0.322v-0.714l-0.009,0.017L113.931,131.64z"/>
		<path class="st0" d="M116.186,131.64h0.182v0.341h-0.182v0.465h-0.415v-0.465h-0.706l-0.019-0.266l0.724-1.402h0.416V131.64z
			 M115.449,131.64h0.322v-0.714l-0.009,0.017L115.449,131.64z"/>
		<path class="st0" d="M117.523,132.445h-0.416v-1.629l-0.406,0.156v-0.346l0.778-0.317h0.044V132.445z"/>
		<path class="st0" d="M119.324,130.879c0,0.104-0.022,0.194-0.066,0.274s-0.104,0.145-0.182,0.192
			c0.088,0.05,0.157,0.118,0.208,0.206c0.051,0.087,0.076,0.19,0.076,0.309c0,0.189-0.055,0.339-0.164,0.449
			s-0.258,0.165-0.447,0.165s-0.338-0.055-0.45-0.165s-0.167-0.26-0.167-0.449c0-0.118,0.025-0.222,0.076-0.31
			s0.121-0.156,0.209-0.205c-0.078-0.048-0.139-0.112-0.183-0.192s-0.066-0.171-0.066-0.274c0-0.187,0.052-0.332,0.157-0.438
			s0.245-0.158,0.42-0.158c0.178,0,0.318,0.053,0.422,0.159S119.324,130.694,119.324,130.879z M118.749,132.133
			c0.062,0,0.111-0.026,0.144-0.08c0.034-0.054,0.051-0.129,0.051-0.225c0-0.095-0.018-0.17-0.053-0.225
			c-0.035-0.054-0.083-0.081-0.145-0.081s-0.11,0.027-0.146,0.081c-0.036,0.055-0.053,0.13-0.053,0.225
			c0,0.096,0.018,0.171,0.053,0.225S118.686,132.133,118.749,132.133z M118.91,130.899c0-0.083-0.014-0.149-0.041-0.2
			c-0.027-0.05-0.068-0.074-0.124-0.074c-0.053,0-0.093,0.023-0.12,0.072s-0.041,0.116-0.041,0.202c0,0.085,0.014,0.153,0.041,0.204
			c0.027,0.052,0.068,0.078,0.123,0.078s0.095-0.026,0.122-0.078C118.897,131.053,118.91,130.984,118.91,130.899z"/>
	</g>
</g>
<g>
	<g>
		<path class="st0" d="M61.668,121.217h0.182v0.341h-0.182v0.465h-0.415v-0.465h-0.706l-0.019-0.266l0.724-1.402h0.416V121.217z
			 M60.931,121.217h0.322v-0.714l-0.009,0.017L60.931,121.217z"/>
		<path class="st0" d="M63.186,121.217h0.182v0.341h-0.182v0.465h-0.415v-0.465h-0.706l-0.019-0.266l0.724-1.402h0.416V121.217z
			 M62.449,121.217h0.322v-0.714l-0.009,0.017L62.449,121.217z"/>
		<path class="st0" d="M64.85,121.141c0,0.295-0.053,0.521-0.161,0.677c-0.106,0.156-0.259,0.234-0.458,0.234
			c-0.196,0-0.348-0.076-0.455-0.228c-0.107-0.152-0.163-0.369-0.167-0.653v-0.402c0-0.294,0.053-0.519,0.16-0.675
			c0.106-0.155,0.259-0.233,0.458-0.233s0.352,0.077,0.458,0.231s0.161,0.375,0.163,0.661V121.141z M64.434,120.708
			c0-0.169-0.017-0.296-0.05-0.38s-0.085-0.126-0.155-0.126c-0.132,0-0.2,0.154-0.205,0.463v0.533c0,0.173,0.017,0.302,0.05,0.386
			c0.034,0.084,0.086,0.126,0.158,0.126c0.067,0,0.117-0.039,0.15-0.118s0.05-0.199,0.052-0.362V120.708z"/>
		<path class="st0" d="M66.324,120.456c0,0.104-0.022,0.194-0.066,0.274s-0.104,0.145-0.182,0.192
			c0.088,0.05,0.157,0.118,0.208,0.206c0.051,0.087,0.076,0.19,0.076,0.309c0,0.189-0.055,0.339-0.164,0.449
			s-0.258,0.165-0.447,0.165s-0.338-0.055-0.45-0.165s-0.167-0.26-0.167-0.449c0-0.118,0.025-0.222,0.076-0.31
			s0.121-0.156,0.209-0.205c-0.078-0.048-0.139-0.112-0.183-0.192s-0.066-0.171-0.066-0.274c0-0.187,0.052-0.332,0.157-0.438
			s0.245-0.158,0.42-0.158c0.178,0,0.318,0.053,0.422,0.159S66.324,120.271,66.324,120.456z M65.749,121.71
			c0.062,0,0.111-0.026,0.144-0.08c0.034-0.054,0.051-0.129,0.051-0.225c0-0.095-0.018-0.17-0.053-0.225
			c-0.035-0.054-0.083-0.081-0.145-0.081s-0.11,0.027-0.146,0.081c-0.036,0.055-0.053,0.13-0.053,0.225
			c0,0.096,0.018,0.171,0.053,0.225S65.686,121.71,65.749,121.71z M65.91,120.477c0-0.083-0.014-0.149-0.041-0.2
			c-0.027-0.05-0.068-0.074-0.124-0.074c-0.053,0-0.093,0.023-0.12,0.072s-0.041,0.116-0.041,0.202c0,0.085,0.014,0.153,0.041,0.204
			c0.027,0.052,0.068,0.078,0.123,0.078s0.095-0.026,0.122-0.078C65.897,120.63,65.91,120.562,65.91,120.477z"/>
	</g>
</g>
<g>
	<g>
		<path class="st0" d="M77.168,130.551h0.182v0.341h-0.182v0.465h-0.415v-0.465h-0.706l-0.019-0.266l0.724-1.402h0.416V130.551z
			 M76.431,130.551h0.322v-0.714l-0.009,0.017L76.431,130.551z"/>
		<path class="st0" d="M78.686,130.551h0.182v0.341h-0.182v0.465h-0.415v-0.465h-0.706l-0.019-0.266l0.724-1.402h0.416V130.551z
			 M77.949,130.551h0.322v-0.714l-0.009,0.017L77.949,130.551z"/>
		<path class="st0" d="M80.35,130.475c0,0.295-0.053,0.521-0.161,0.677c-0.106,0.156-0.259,0.234-0.458,0.234
			c-0.196,0-0.348-0.076-0.455-0.228c-0.107-0.152-0.163-0.369-0.167-0.653v-0.402c0-0.294,0.053-0.519,0.16-0.675
			c0.106-0.155,0.259-0.233,0.458-0.233s0.352,0.077,0.458,0.231s0.161,0.375,0.163,0.661V130.475z M79.934,130.042
			c0-0.169-0.017-0.296-0.05-0.38s-0.085-0.126-0.155-0.126c-0.132,0-0.2,0.154-0.205,0.463v0.533c0,0.173,0.017,0.302,0.05,0.386
			c0.034,0.084,0.086,0.126,0.158,0.126c0.067,0,0.117-0.039,0.15-0.118s0.05-0.199,0.052-0.362V130.042z"/>
		<path class="st0" d="M81.879,129.46l-0.674,1.896h-0.438l0.677-1.791h-0.855v-0.342h1.291V129.46z"/>
	</g>
</g>
<g>
	<g>
		<path class="st0" d="M80.186,148.884h0.182v0.341h-0.182v0.465h-0.415v-0.465h-0.706l-0.019-0.266l0.724-1.402h0.416V148.884z
			 M79.449,148.884h0.322v-0.714l-0.009,0.017L79.449,148.884z"/>
		<path class="st0" d="M81.703,148.884h0.182v0.341h-0.182v0.465h-0.415v-0.465h-0.706l-0.019-0.266l0.724-1.402h0.416V148.884z
			 M80.967,148.884h0.322v-0.714l-0.009,0.017L80.967,148.884z"/>
		<path class="st0" d="M83.041,149.689h-0.416v-1.629l-0.406,0.156v-0.346l0.778-0.317h0.044V149.689z"/>
		<path class="st0" d="M84.885,148.808c0,0.295-0.053,0.521-0.161,0.677c-0.106,0.156-0.259,0.234-0.458,0.234
			c-0.196,0-0.348-0.076-0.455-0.228c-0.107-0.152-0.163-0.369-0.167-0.653v-0.402c0-0.294,0.053-0.519,0.16-0.675
			c0.106-0.155,0.259-0.233,0.458-0.233s0.352,0.077,0.458,0.231s0.161,0.375,0.163,0.661V148.808z M84.469,148.375
			c0-0.169-0.017-0.296-0.05-0.38s-0.085-0.126-0.155-0.126c-0.132,0-0.2,0.154-0.205,0.463v0.533c0,0.173,0.017,0.302,0.05,0.386
			c0.034,0.084,0.086,0.126,0.158,0.126c0.067,0,0.117-0.039,0.15-0.118s0.05-0.199,0.052-0.362V148.375z"/>
	</g>
</g>
<g>
</g>
<g>
</g>
<g>
</g>
<g>
</g>
<g>
</g>
<g>
</g>
</svg>
