<?xml version="1.0" encoding="utf-8"?>
<!-- Generator: Adobe Illustrator 19.0.1, SVG Export Plug-In . SVG Version: 6.00 Build 0)  -->
<svg version="1.1" xmlns="http://www.w3.org/2000/svg" xmlns:xlink="http://www.w3.org/1999/xlink" x="0px" y="0px"
	 viewBox="0 0 922.454 992.95" style="enable-background:new 0 0 922.454 992.95;" xml:space="preserve">
<style type="text/css">
	.st0{fill:#FFFFFF;stroke:#383838;stroke-width:0.5;stroke-miterlimit:10;}
	.st1{fill:#61A1A1;stroke:#383838;stroke-width:0.5;stroke-miterlimit:10;}
	.st2{fill:#EBF0F2;stroke:#383838;stroke-width:0.5;stroke-miterlimit:10;}
	.st3{fill:#BFD9E0;stroke:#383838;stroke-width:0.5;stroke-miterlimit:10;}
	.st4{fill:#ED865B;stroke:#383838;stroke-width:0.5;stroke-miterlimit:10;}
	.st5{fill:#A3CCCB;stroke:#383838;stroke-width:0.5;stroke-miterlimit:10;}
	.st6{fill:none;stroke:#383838;stroke-width:0.5;stroke-miterlimit:10;}
	.st7{fill:#ED9B7E;stroke:#383838;stroke-width:0.5;stroke-miterlimit:10;}
	.st8{fill:none;stroke:#383838;stroke-width:0.5;stroke-miterlimit:10;stroke-dasharray:2;}
</style>
<g id="locaux">
	<path class="st0" d="M802.444,921.567l9.661,15.461l-43.563,27.221L680.88,823.961l17.465-10.914l-8.95-14.323l6.013-3.757
		l-34.671-75.873l12.085-4.965l-8.051-12.884l-26.21-41.945c0,0-150.326,94.01-156.372,97.712
		c-31.96,19.573-89.614,20.963-122.82-28.355c-8.108-12.042-41.117-65.802-41.117-65.802l21.188-13.239l-30.411-48.668
		l-21.317,13.24l-38.108-60.986l-91.912-147.297l-19.099-30.564l-30.036-47.86l-47.693-76.324l38.313-23.94l7.589,12.145
		l127.559-79.707l55.832-34.888l134.856-84.267L583.44,294.037l48.101-30.057l140.266,224.473l40.189,64.523l-2.968,1.855
		l-18.94,11.835l-12.643,7.9l-60.413,37.75l-66.404,41.494l33.608,53.785l62.358-28.217L849.94,898.647L802.444,921.567z"/>
	<polygon class="st1" points="309.974,174.402 341.882,154.463 399.91,247.328 378.831,261.085 368.265,267.687 338.589,220.196 
		322.521,230.237 309.184,208.895 325.253,198.854 	"/>
	<polyline class="st2" points="716.96,692.766 723.712,707.491 692.692,721.126 698.521,730.454 716.503,721.429 722.061,732.626 
		725.591,730.785 812.112,916.939 	"/>
	<polygon class="st2" points="835.874,868.802 797.905,886.372 812.112,916.939 849.94,898.647 	"/>
	<polygon class="st2" points="835.874,868.802 821.714,838.76 783.999,856.452 797.905,886.372 	"/>
	<polygon class="st2" points="821.714,838.76 807.673,808.969 770.197,826.758 783.999,856.452 	"/>
	<polygon class="st2" points="807.673,808.969 793.841,779.621 756.292,796.838 770.197,826.758 	"/>
	<polygon class="st2" points="793.841,779.621 779.778,749.782 742.373,766.891 756.292,796.838 	"/>
	<polygon class="st2" points="779.778,749.782 765.699,719.911 728.754,737.59 742.373,766.891 	"/>
	<polygon class="st2" points="725.591,730.785 728.754,737.59 765.699,719.911 746.596,679.378 716.96,692.766 733.171,727.228 	"/>
	<polygon class="st2" points="727.894,716.011 707.809,725.917 703.357,716.471 723.712,707.491 	"/>
	<polygon class="st2" points="703.357,716.471 692.692,721.126 698.521,730.454 707.809,725.917 	"/>
	<polygon class="st2" points="797.766,945.989 779.749,917.155 787.028,912.607 782.744,905.752 746.242,928.561 768.542,964.25 	
		"/>
	<line class="st2" x1="787.028" y1="912.607" x2="794.088" y2="908.195"/>
	<line class="st2" x1="802.444" y1="921.567" x2="799.167" y2="916.322"/>
	<polygon class="st2" points="782.744,905.752 779.079,899.886 771.234,904.788 753.097,875.762 724.439,893.669 746.242,928.561 	
		"/>
	<polygon class="st3" points="779.079,899.886 786.139,895.474 770.419,870.315 755.514,879.629 771.234,904.788 	"/>
	
		<rect x="745.436" y="856.467" transform="matrix(0.5299 0.848 -0.848 0.5299 1089.579 -235.1429)" class="st3" width="22.917" height="17.576"/>
	
		<rect x="738.965" y="840.177" transform="matrix(0.5299 0.848 -0.848 0.5299 1070.9797 -234.1682)" class="st2" width="15.5" height="17.576"/>
	<polygon class="st2" points="743,842.148 739.291,836.212 702.788,859.021 724.439,893.669 753.097,875.762 735.156,847.05 	"/>
	<polygon class="st2" points="739.291,836.212 735.537,830.205 727.693,835.106 709.539,806.053 680.88,823.961 702.788,859.021 	
		"/>
	<polygon class="st2" points="735.537,830.205 742.598,825.793 735.576,814.556 720.671,823.87 727.693,835.106 	"/>
	
		<rect x="712.053" y="801.517" transform="matrix(0.5299 0.848 -0.848 0.5299 1026.8378 -231.8548)" class="st2" width="21.009" height="17.576"/>
	<polygon class="st2" points="693.518,790.83 714.689,781.129 705.503,766.429 686.343,775.129 	"/>
	<polygon class="st2" points="705.503,766.429 696.76,752.437 679.47,760.087 686.343,775.129 	"/>
	<polygon class="st2" points="696.76,752.437 687.945,738.329 672.553,744.951 679.47,760.087 	"/>
	<polygon class="st2" points="687.945,738.329 679.317,724.522 665.941,730.481 672.553,744.951 	"/>
	<polygon class="st2" points="679.317,724.522 672.823,714.129 660.737,719.094 665.941,730.481 	"/>
	<line class="st2" x1="714.689" y1="781.129" x2="717.692" y2="785.934"/>
	<line class="st2" x1="724.443" y1="796.74" x2="721.843" y2="792.577"/>
	
		<rect x="639.4" y="632.804" transform="matrix(-0.5299 -0.848 0.848 -0.5299 455.1696 1529.9131)" class="st2" width="24.414" height="12"/>
	
		<rect x="649.93" y="625.808" transform="matrix(-0.5299 -0.848 0.848 -0.5299 476.8596 1528.7764)" class="st2" width="24.414" height="12.833"/>
	
		<rect x="660.716" y="619.183" transform="matrix(-0.5299 -0.848 0.848 -0.5299 499.0767 1527.6121)" class="st2" width="24.414" height="12.603"/>
	
		<rect x="666.559" y="609.819" transform="matrix(-0.5299 -0.848 0.848 -0.5299 520.803 1520.9265)" class="st2" width="30.748" height="12.603"/>
	
		<rect x="648.033" y="582.505" transform="matrix(-0.5299 -0.848 0.848 -0.5299 517.8546 1464.6658)" class="st2" width="33.667" height="12.603"/>
	
		<rect x="646.384" y="562.93" transform="matrix(-0.5299 -0.848 0.848 -0.5299 515.7413 1424.3428)" class="st2" width="12.5" height="12.603"/>
	
		<rect x="663.279" y="551.013" transform="matrix(-0.5299 -0.848 0.848 -0.5299 553.8995 1427.8899)" class="st2" width="18.833" height="18.833"/>
	
		<rect x="679.251" y="541.032" transform="matrix(-0.5299 -0.848 0.848 -0.5299 586.7983 1426.1658)" class="st2" width="18.833" height="18.833"/>
	
		<rect x="692.608" y="535.769" transform="matrix(-0.5299 -0.848 0.848 -0.5299 614.3111 1424.7239)" class="st2" width="18.833" height="12.667"/>
	
		<rect x="704.74" y="543.69" transform="matrix(-0.5299 -0.848 0.848 -0.5299 660.7736 1478.4852)" class="st2" width="70.831" height="24.833"/>
	
		<rect x="626.877" y="572.685" transform="matrix(-0.5299 -0.848 0.848 -0.5299 477.1494 1428.9928)" class="st2" width="15.5" height="19.135"/>
	
		<rect x="635.09" y="585.829" transform="matrix(-0.5299 -0.848 0.848 -0.5299 478.5684 1456.0688)" class="st2" width="15.5" height="19.135"/>
	
		<rect x="643.304" y="598.974" transform="matrix(-0.5299 -0.848 0.848 -0.5299 479.9874 1483.1449)" class="st2" width="15.5" height="19.135"/>
	
		<rect x="624.174" y="607.505" transform="matrix(-0.5299 -0.848 0.848 -0.5299 452.4386 1477.801)" class="st2" width="23.25" height="12"/>
	
		<rect x="611.853" y="587.788" transform="matrix(-0.5299 -0.848 0.848 -0.5299 450.3101 1437.187)" class="st2" width="23.25" height="12"/>
	<polygon class="st2" points="695.424,625.819 721.821,609.324 691.043,560.069 669.7,573.405 659.72,557.433 654.666,560.592 	"/>
	<polygon class="st2" points="721.821,609.324 748.393,592.72 707.635,527.493 702.405,530.761 712.385,546.732 691.043,560.069 	
		"/>
	
		<rect x="707.36" y="520.451" transform="matrix(-0.848 0.5299 -0.5299 -0.848 1607.5905 586.0162)" class="st2" width="24.833" height="6.083"/>
	<polygon class="st2" points="728.695,514.333 725.25,508.821 735.709,502.285 739.154,507.798 771.332,487.691 812.09,552.918 
		769.453,579.56 	"/>
	<polygon class="st2" points="725.25,508.821 735.709,502.285 739.154,507.798 771.332,487.691 751.46,455.889 727.48,470.873 
		735.605,483.877 716.948,495.535 	"/>
	
		<rect x="714.547" y="472.204" transform="matrix(0.5299 0.848 -0.848 0.5299 749.2792 -385.3271)" class="st2" width="15.333" height="22"/>
	<polygon class="st2" points="751.46,455.889 708.823,482.532 705.643,477.443 716.244,470.819 699.375,443.823 731.411,423.805 	
		"/>
	
		<rect x="686.592" y="454.383" transform="matrix(0.5299 0.848 -0.848 0.5299 720.875 -379.2265)" class="st2" width="31.833" height="12.5"/>
	
		<rect x="670.361" y="427.74" transform="matrix(0.5299 0.848 -0.848 0.5299 690.4545 -377.6322)" class="st2" width="31" height="12.5"/>
	
		<rect x="686.613" y="399.317" transform="matrix(-0.848 0.5299 -0.5299 -0.848 1525.2972 398.5952)" class="st2" width="37.777" height="37.333"/>
	
		<rect x="667.957" y="409.225" transform="matrix(-0.5299 -0.848 0.848 -0.5299 679.2678 1207.4735)" class="st2" width="12.667" height="12.5"/>
	<polygon class="st2" points="676.235,406.792 681.464,403.524 665.655,378.224 649.825,388.116 665.634,413.416 	"/>
	
		<rect x="635.804" y="339.219" transform="matrix(-0.848 0.5299 -0.5299 -0.848 1411.4133 312.2225)" class="st2" width="50.277" height="38.5"/>
	
		<rect x="617.345" y="313.346" transform="matrix(-0.848 0.5299 -0.5299 -0.848 1361.6465 267.4122)" class="st2" width="50.277" height="31.167"/>
	
		<rect x="597.086" y="273.86" transform="matrix(-0.848 0.5299 -0.5299 -0.848 1307.0258 218.2315)" class="st2" width="50.277" height="45.295"/>
	
		<rect x="642" y="467.356" transform="matrix(-0.848 0.5299 -0.5299 -0.848 1490.5883 545.1267)" class="st2" width="50.277" height="37.833"/>
	
		<rect x="617.138" y="418.485" transform="matrix(-0.848 0.5299 -0.5299 -0.848 1423.5577 484.7722)" class="st2" width="50.277" height="56"/>
	
		<rect x="608.79" y="401.879" transform="matrix(-0.848 0.5299 -0.5299 -0.848 1378.0029 427.6223)" class="st2" width="37.805" height="19"/>
	
		<rect x="600.138" y="415.2" transform="matrix(-0.848 0.5299 -0.5299 -0.848 1345.6646 463.5377)" class="st2" width="12.472" height="19"/>
	
		<rect x="588.686" y="394.262" transform="matrix(-0.848 0.5299 -0.5299 -0.848 1314.7885 435.7367)" class="st2" width="12.472" height="24.222"/>
	
		<rect x="655.217" y="516.767" transform="matrix(-0.5299 -0.848 0.848 -0.5299 578.1483 1366.4794)" class="st0" width="25.167" height="12.472"/>
	<line class="st2" x1="676.356" y1="524.928" x2="691.197" y2="515.655"/>
	<line class="st2" x1="597.222" y1="398.287" x2="612.062" y2="389.013"/>
	
		<rect x="637.176" y="528.877" transform="matrix(-0.5299 -0.848 0.848 -0.5299 527.8979 1369.0399)" class="st2" width="12.417" height="18.667"/>
	<polygon class="st0" points="576.107,529.3 602.293,571.208 638.759,548.422 612.665,506.456 	"/>
	
		<rect x="611.837" y="507.949" transform="matrix(-0.5299 -0.848 0.848 -0.5299 525.731 1325.8734)" class="st2" width="37" height="18.558"/>
	
		<rect x="603.298" y="482.706" transform="matrix(-0.5299 -0.848 0.848 -0.5299 517.6664 1277.2136)" class="st2" width="19.042" height="24.854"/>
	
		<rect x="598.826" y="469.672" transform="matrix(-0.5299 -0.848 0.848 -0.5299 527.496 1243.3444)" class="st2" width="19.042" height="11.604"/>
	
		<rect x="572.627" y="437.897" transform="matrix(-0.5299 -0.848 0.848 -0.5299 524.0658 1177.8923)" class="st2" width="31.729" height="11.604"/>
	
		<rect x="547.17" y="406.198" transform="matrix(-0.5299 -0.848 0.848 -0.5299 492.2873 1130.3173)" class="st2" width="24.493" height="45.042"/>
	
		<rect x="562.565" y="443.924" transform="matrix(-0.5299 -0.848 0.848 -0.5299 503.3403 1178.9785)" class="st2" width="31.729" height="12.125"/>
	
		<rect x="552.282" y="450.349" transform="matrix(-0.5299 -0.848 0.848 -0.5299 482.1598 1180.0885)" class="st2" width="31.729" height="12.125"/>
	
		<rect x="541.867" y="456.701" transform="matrix(-0.5299 -0.848 0.848 -0.5299 460.7064 1181.2129)" class="st2" width="31.729" height="12.438"/>
	
		<rect x="530.922" y="463.071" transform="matrix(-0.5299 -0.848 0.848 -0.5299 438.1612 1182.3944)" class="st2" width="31.729" height="13.375"/>
	
		<rect x="521.021" y="436.746" transform="matrix(-0.5299 -0.848 0.848 -0.5299 438.4263 1133.14)" class="st2" width="24.493" height="16.625"/>
	
		<rect x="582.677" y="496.13" transform="matrix(-0.5299 -0.848 0.848 -0.5299 485.2314 1273.1659)" class="st2" width="25.604" height="11.938"/>
	
		<rect x="572.554" y="502.456" transform="matrix(-0.5299 -0.848 0.848 -0.5299 464.3785 1274.2588)" class="st2" width="25.604" height="11.938"/>
	
		<rect x="562.006" y="508.547" transform="matrix(-0.5299 -0.848 0.848 -0.5299 442.6521 1275.3973)" class="st2" width="25.604" height="12.938"/>
	<polygon class="st2" points="601.818,454.078 608.222,464.326 598.381,470.475 608.471,486.623 597.235,493.644 593.757,488.079 
		562.538,507.587 549.522,486.757 	"/>
	
		<rect x="584.205" y="640.719" transform="matrix(-0.5299 -0.848 0.848 -0.5299 362.742 1520.5382)" class="st2" width="37.179" height="38.028"/>
	
		<rect x="565.15" y="609.548" transform="matrix(-0.5299 -0.848 0.848 -0.5299 359.377 1456.3306)" class="st2" width="36.333" height="38.028"/>
	
		<rect x="552.674" y="661.27" transform="matrix(-0.5299 -0.848 0.848 -0.5299 297.793 1523.942)" class="st2" width="37.179" height="36.333"/>
	
		<rect x="535.865" y="688.285" transform="matrix(-0.5299 -0.848 0.848 -0.5299 254.2434 1531.3333)" class="st2" width="31.346" height="13.833"/>
	
		<rect x="524.133" y="695.616" transform="matrix(-0.5299 -0.848 0.848 -0.5299 230.0788 1532.5997)" class="st2" width="31.346" height="13.833"/>
	
		<rect x="511.483" y="702.437" transform="matrix(-0.5299 -0.848 0.848 -0.5299 204.0217 1533.9653)" class="st2" width="31.346" height="16"/>
	
		<rect x="499.187" y="711.621" transform="matrix(-0.5299 -0.848 0.848 -0.5299 178.6925 1535.2927)" class="st2" width="31.346" height="13"/>
	
		<rect x="487.597" y="718.197" transform="matrix(-0.5299 -0.848 0.848 -0.5299 154.819 1536.5439)" class="st2" width="31.346" height="14.333"/>
	
		<rect x="475.159" y="725.635" transform="matrix(-0.5299 -0.848 0.848 -0.5299 129.1986 1537.8866)" class="st2" width="31.346" height="15"/>
	
		<rect x="533.619" y="630.099" transform="matrix(-0.5299 -0.848 0.848 -0.5299 294.428 1459.7345)" class="st2" width="36.333" height="36.333"/>
	<polygon class="st2" points="492.777,750.401 477.675,759.565 464.858,730.884 476.166,723.818 	"/>
	<path class="st2" d="M477.675,759.565c0,0-10.29,4.797-15.14,6.114l-7.995-29.92l10.318-4.875L477.675,759.565z"/>
	<path class="st2" d="M454.541,735.759l-12.455,2.083l-1.641,31.698c0,0,11.114-0.212,22.091-3.861L454.541,735.759z"/>
	<path class="st2" d="M442.085,737.842l-15.405-1.379l-3.991,32.407c0,0,14.668,1.434,17.755,0.67L442.085,737.842z"/>
	<path class="st2" d="M417.511,735.314l-12.472-3.605l-13.707,26.842c0,0,10.659,5.356,15.798,6.833L417.511,735.314z"/>
	<path class="st2" d="M405.039,731.709l-9.522-8.004l-19.919,23.66c0,0,9.343,7.908,15.733,11.186L405.039,731.709z"/>
	<path class="st2" d="M395.518,723.705l-6.589-7.085l-24.743,18.63c0,0,7.001,8.564,11.414,12.115L395.518,723.705z"/>
	<path class="st2" d="M388.929,716.62l-5.829-9.329l-26.769,16.727c0,0,6.641,9.778,7.855,11.232L388.929,716.62z"/>
	<polygon class="st2" points="383.099,707.291 375.769,695.56 348.914,712.341 356.331,724.018 	"/>
	<polygon class="st2" points="375.769,695.56 369.233,685.101 359.935,690.911 356.313,685.116 338.757,696.086 348.914,712.341 	
		"/>
	
		<rect x="351.835" y="675.456" transform="matrix(0.5299 0.848 -0.848 0.5299 746.7769 14.6565)" class="st2" width="16.667" height="10.965"/>
	<polygon class="st2" points="360.401,670.966 355.544,663.193 328.689,679.973 338.757,696.086 356.313,685.116 351.103,676.777 	
		"/>
	
		<rect x="326.874" y="647.301" transform="matrix(0.5299 0.848 -0.848 0.5299 720.6453 25.9695)" class="st2" width="20.048" height="31.447"/>
	
		<rect x="483.447" y="657.914" transform="matrix(0.848 -0.5299 0.5299 0.848 -279.9311 370.7596)" class="st2" width="46.167" height="31.167"/>
	
		<rect x="471.931" y="677.621" transform="matrix(0.848 -0.5299 0.5299 0.848 -293.4883 359.7272)" class="st2" width="17.167" height="28"/>
	<polygon class="st2" points="478.697,672.515 453.681,667.707 449.245,684.825 460.022,687.918 480.375,675.2 	"/>
	<polygon class="st2" points="460.022,687.918 457.707,694.278 470.337,714.49 480.655,708.042 465.817,684.297 	"/>
	<polygon class="st2" points="470.337,714.49 457.051,722.792 453.959,717.845 457.247,705.178 462.476,701.91 	"/>
	<polygon class="st2" points="457.051,722.792 452.386,725.706 437.016,727.843 431.106,726.426 433.855,712.72 453.959,717.845 	
		"/>
	<polygon class="st2" points="433.855,712.72 436.542,700.035 457.247,705.178 453.959,717.845 	"/>
	<polygon class="st2" points="436.542,700.035 440.995,682.316 449.245,684.825 460.022,687.918 457.707,694.278 462.476,701.91 
		457.247,705.178 	"/>
	<polygon class="st2" points="419.332,723.76 409.474,722.452 399.229,712.345 407.568,707.135 422.407,710.44 	"/>
	<polygon class="st2" points="422.407,710.44 426.101,693.392 417.268,691.836 415.2,702.365 407.568,707.135 	"/>
	<polygon class="st2" points="426.101,693.392 429.124,680.301 408.56,675.07 404.813,689.203 417.268,691.836 	"/>
	<polygon class="st2" points="421.12,678.265 424.974,661.079 412.201,658.251 408.56,675.07 	"/>
	<polygon class="st2" points="407.301,679.991 398.896,678.16 396.638,687.383 404.813,689.203 	"/>
	<polygon class="st2" points="396.638,687.383 404.813,689.203 417.268,691.836 415.2,702.365 399.229,712.345 387.283,693.229 	"/>
	<polygon class="st2" points="398.896,678.16 400.16,672.163 396.583,666.438 377.855,678.141 387.283,693.229 396.638,687.383 	"/>
	
		<rect x="381.646" y="658.159" transform="matrix(0.5299 0.848 -0.848 0.5299 744.5428 -18.7071)" class="st2" width="15" height="8.167"/>
	
		<rect x="367.055" y="658.237" transform="matrix(0.5299 0.848 -0.848 0.5299 741.7949 -7.8422)" class="st2" width="21.833" height="13.917"/>
	<polygon class="st2" points="381.708,658.045 378.087,652.25 366.285,659.625 360.5,650.367 379.228,638.665 388.634,653.718 	"/>
	
		<rect x="484.84" y="618.574" transform="matrix(0.5299 0.848 -0.848 0.5299 764.8365 -123.986)" class="st3" width="18.833" height="18.667"/>
	
		<rect x="468.656" y="628.27" transform="matrix(-0.5299 -0.848 0.848 -0.5299 190.341 1381.5486)" class="st3" width="18.833" height="19.5"/>
	
		<rect x="452.44" y="590.175" transform="matrix(-0.5299 -0.848 0.848 -0.5299 204.0739 1331.637)" class="st2" width="37.333" height="38.167"/>
	<path class="st4" d="M445.031,603.541l-29.72-47.561l-7.774,4.858l-11.217-17.95c0,0,13.278-20.58,41.438-11.055l2.898-7.314
		l36.741,58.798L445.031,603.541z"/>
	<polygon class="st4" points="437.759,531.831 434.101,542.175 437.943,548.323 440.699,546.601 455.36,570.064 448.01,574.656 
		460.154,594.091 477.398,583.316 440.657,524.518 	"/>
	<polygon class="st4" points="437.943,548.323 435.778,555.08 448.01,574.656 455.36,570.064 440.699,546.601 	"/>
	<path class="st5" d="M394.376,558.056l-4.152,2.594l-3.348-0.954c0,0-2.624,9.796-0.373,18.117l3.162-0.6l2.526,6.873l-2.615,1.634
		l37.845,60.565l5.795-3.621l5.52,8.834l26.077-16.295l-49.503-79.222l-7.774,4.858l-8.215,5.134L394.376,558.056z"/>
	
		<rect x="405.926" y="554.057" transform="matrix(0.5299 0.848 -0.848 0.5299 670.0701 -81.8705)" class="st4" width="5.917" height="18.854"/>
	
		<rect x="334.382" y="632.516" transform="matrix(-0.5299 -0.848 0.848 -0.5299 -19.77 1268.3706)" class="st2" width="14.535" height="14.296"/>
	
		<rect x="345.703" y="626.292" transform="matrix(-0.5299 -0.848 0.848 -0.5299 3.5486 1267.1486)" class="st2" width="14.535" height="12.598"/>
	
		<rect x="356.387" y="619.615" transform="matrix(-0.5299 -0.848 0.848 -0.5299 25.5559 1265.9952)" class="st2" width="14.535" height="12.598"/>
	
		<rect x="319.691" y="591.218" transform="matrix(-0.5299 -0.848 0.848 -0.5299 -0.2342 1221.7002)" class="st2" width="37.583" height="39.395"/>
	
		<rect x="319.026" y="570.016" transform="matrix(-0.5299 -0.848 0.848 -0.5299 -2.5229 1178.0291)" class="st2" width="12.417" height="39.395"/>
	
		<rect x="245.354" y="554.254" transform="matrix(-0.5299 -0.848 0.848 -0.5299 -63.1665 1098.5883)" class="st6" width="55.083" height="25.094"/>
	<polygon class="st3" points="268.941,536.796 263.686,528.386 255.103,533.749 250.202,525.904 237.516,533.831 247.673,550.085 	
		"/>
	
		<rect x="252.319" y="522.085" transform="matrix(0.5299 0.848 -0.848 0.5299 567.8286 29.9)" class="st2" width="9.25" height="10.12"/>
	
		<rect x="241.972" y="506.926" transform="matrix(-0.5299 -0.848 0.848 -0.5299 -51.4703 999.7375)" class="st2" width="18.75" height="14.417"/>
	
		<rect x="229.51" y="514.434" transform="matrix(-0.5299 -0.848 0.848 -0.5299 -77.1402 1001.0828)" class="st2" width="18.75" height="14.973"/>
	
		<rect x="225.687" y="487.505" transform="matrix(-0.5299 -0.848 0.848 -0.5299 -66.2649 967.6696)" class="st2" width="18.75" height="29.39"/>
	
		<rect x="215.751" y="471.604" transform="matrix(-0.5299 -0.848 0.848 -0.5299 -67.9814 934.9163)" class="st2" width="18.75" height="29.39"/>
	
		<rect x="205.815" y="455.704" transform="matrix(-0.5299 -0.848 0.848 -0.5299 -69.6979 902.163)" class="st2" width="18.75" height="29.39"/>
	
		<rect x="181.663" y="431.923" transform="matrix(-0.5299 -0.848 0.848 -0.5299 -72.2651 853.1786)" class="st2" width="37.333" height="29.39"/>
	
		<rect x="160.413" y="399.45" transform="matrix(-0.5299 -0.848 0.848 -0.5299 -75.7706 786.2891)" class="st2" width="39.25" height="29.39"/>
	
		<rect x="144.663" y="363.52" transform="matrix(-0.5299 -0.848 0.848 -0.5299 -83.2343 706.5428)" class="st2" width="19.083" height="25.64"/>
	<polygon class="st2" points="427.422,646.284 431.153,652.255 429.528,653.271 406.447,647.942 404.04,644.091 419.871,634.199 	
		"/>
	
		<rect x="401.852" y="624.211" transform="matrix(-0.5299 -0.848 0.848 -0.5299 87.6284 1315.6617)" class="st5" width="13.208" height="18.667"/>
	
		<rect x="395.777" y="613.522" transform="matrix(-0.5299 -0.848 0.848 -0.5299 86.4746 1293.6442)" class="st5" width="12" height="18.667"/>
	
		<rect x="388.939" y="603.08" transform="matrix(-0.5299 -0.848 0.848 -0.5299 85.3474 1272.1362)" class="st5" width="12.625" height="18.667"/>
	
		<rect x="379.774" y="596.953" transform="matrix(-0.5299 -0.848 0.848 -0.5299 79.0296 1250.4623)" class="st1" width="12.625" height="12.75"/>
	
		<rect x="372.892" y="586.14" transform="matrix(-0.5299 -0.848 0.848 -0.5299 77.8623 1228.1901)" class="st0" width="12.875" height="12.75"/>
	
		<rect x="357.097" y="570.248" transform="matrix(-0.5299 -0.848 0.848 -0.5299 76.1467 1195.455)" class="st5" width="24.604" height="12.75"/>
	<path class="st1" d="M440.657,524.518l-36.299-58.091l-74.664,46.655l25.524,40.848l5.406-3.378l4.841-3.025l7.662,12.261
		l-4.841,3.025l26.551,42.491l5.018-3.135l-10.278-16.449l2.615-1.634l-2.526-6.873l-3.162,0.6c0,0-1.731-5.601,0.373-18.117
		l3.348,0.954l4.152-2.594l4.946,7.915l8.215-5.134l-11.217-17.95c0,0,13.42-20.669,41.438-11.055L440.657,524.518z"/>
	<line class="st2" x1="278.674" y1="552.371" x2="298.039" y2="540.27"/>
	<polygon class="st2" points="512.989,605.099 529.643,594.692 539.491,610.451 528.335,617.422 519.478,615.485 	"/>
	<polyline class="st2" points="571.029,568.831 568.96,577.793 563.71,581.073 560.264,575.558 529.643,594.692 	"/>
	<polygon class="st2" points="544.954,585.125 571.029,568.831 573.247,560.223 556.076,532.743 524.537,552.451 	"/>
	
		<rect x="499.916" y="559.511" transform="matrix(0.848 -0.5299 0.5299 0.848 -227.8769 362.8483)" class="st2" width="37.692" height="38.528"/>
	<polygon class="st2" points="556.076,532.743 557.974,524.519 544.872,503.55 536.031,501.47 504.854,520.952 524.537,552.451 	"/>
	<polygon class="st2" points="524.537,552.451 492.572,572.425 483.202,570.262 470.64,550.159 472.798,540.983 504.854,520.952 	
		"/>
	<polygon class="st2" points="536.031,501.47 519.606,475.185 511.285,473.263 485.229,489.545 504.854,520.952 	"/>
	<polygon class="st2" points="472.798,540.983 456.737,515.28 458.795,506.365 485.365,489.763 504.854,520.952 	"/>
	<polygon class="st2" points="471.867,410.288 473.95,401.266 457.724,375.299 425.77,395.267 445.465,426.786 	"/>
	<polygon class="st2" points="445.465,426.786 419.288,443.143 409.779,440.948 393.74,415.281 425.77,395.267 	"/>
	<polygon class="st1" points="457.724,375.299 459.785,366.375 446.612,345.295 437.72,343.106 405.593,363.181 425.678,395.324 	
		"/>
	<polygon class="st2" points="425.678,395.324 393.74,415.281 385.06,413.277 371.352,391.34 373.336,383.337 405.593,363.181 	"/>
	
		<rect x="420.129" y="333.355" transform="matrix(-0.5299 -0.848 0.848 -0.5299 364.2956 884.394)" class="st2" width="14.264" height="15.751"/>
	
		<rect x="407.207" y="341.943" transform="matrix(-0.5299 -0.848 0.848 -0.5299 337.677 885.7891)" class="st2" width="14.264" height="14.725"/>
	
		<rect x="391.591" y="347.949" transform="matrix(-0.5299 -0.848 0.848 -0.5299 305.5102 887.4749)" class="st2" width="14.264" height="22.23"/>
	
		<rect x="401.319" y="309.756" transform="matrix(-0.5299 -0.848 0.848 -0.5299 349.3141 843.5524)" class="st2" width="14.264" height="30.413"/>
	
		<rect x="378.97" y="327.844" transform="matrix(-0.5299 -0.848 0.848 -0.5299 303.2793 845.965)" class="st2" width="14.264" height="22.167"/>
	
		<rect x="360.09" y="339.545" transform="matrix(-0.5299 -0.848 0.848 -0.5299 264.3882 848.0032)" class="st2" width="14.264" height="22.361"/>
	
		<rect x="372.454" y="359.571" transform="matrix(-0.5299 -0.848 0.848 -0.5299 266.0919 889.5406)" class="st2" width="14.264" height="22.901"/>
	<polygon class="st2" points="385.444,330.967 417.568,310.856 419.681,301.704 406.736,280.988 396.96,278.731 365.231,298.558 	
		"/>
	<polygon class="st2" points="385.563,330.892 354.096,350.517 345.066,348.328 332.121,327.613 334.249,317.918 365.296,298.517 	
		"/>
	<path class="st2" d="M349.874,308.154l-2.688-4.301l-16.136,10.083l2.688,4.301C333.738,318.237,350.58,307.712,349.874,308.154z"
		/>
	
		<rect x="375.426" y="266.795" transform="matrix(0.5299 0.848 -0.848 0.5299 414.7808 -196.2126)" class="st2" width="17.905" height="18.482"/>
	
		<rect x="495.081" y="381.414" transform="matrix(-0.5299 -0.848 0.848 -0.5299 451.7524 1050.05)" class="st2" width="43.642" height="36.813"/>
	
		<rect x="539.326" y="355.418" transform="matrix(-0.5299 -0.848 0.848 -0.5299 533.7101 1051.0098)" class="st2" width="37.642" height="44.333"/>
	
		<rect x="564.206" y="344.043" transform="matrix(-0.5299 -0.848 0.848 -0.5299 594.1382 1042.588)" class="st2" width="43.642" height="25.167"/>
	
		<rect x="604.483" y="353.73" transform="matrix(-0.5299 -0.848 0.848 -0.5299 628.6554 1068.5133)" class="st2" width="11.975" height="12.583"/>
	
		<rect x="587.383" y="327.451" transform="matrix(-0.5299 -0.848 0.848 -0.5299 625.8185 1014.383)" class="st2" width="13.333" height="12.583"/>
	
		<rect x="567.086" y="305.206" transform="matrix(-0.5299 -0.848 0.848 -0.5299 623.4172 968.5621)" class="st2" width="26.128" height="12.583"/>
	
		<rect x="551.044" y="308.925" transform="matrix(-0.5299 -0.848 0.848 -0.5299 590.3735 970.2938)" class="st2" width="26.128" height="25.194"/>
	
		<rect x="535.126" y="325.17" transform="matrix(-0.5299 -0.848 0.848 -0.5299 557.585 972.0121)" class="st2" width="26.128" height="12.597"/>
	
		<rect x="524.443" y="331.846" transform="matrix(-0.5299 -0.848 0.848 -0.5299 535.5799 973.1654)" class="st2" width="26.128" height="12.597"/>
	
		<rect x="508.309" y="335.5" transform="matrix(-0.5299 -0.848 0.848 -0.5299 502.3469 974.907)" class="st2" width="26.128" height="25.452"/>
	
		<rect x="480.38" y="349.073" transform="matrix(-0.5299 -0.848 0.848 -0.5299 448.2612 983.4344)" class="st2" width="32.628" height="36.813"/>
	
		<rect x="446.84" y="310.063" transform="matrix(-0.5299 -0.848 0.848 -0.5299 446.2806 906.6485)" class="st4" width="55.164" height="39.146"/>
	
		<rect x="488.476" y="241.398" transform="matrix(-0.5299 -0.848 0.848 -0.5299 559.7728 884.8264)" class="st7" width="73.289" height="91.744"/>
	
		<rect x="316.467" y="105.427" transform="matrix(-0.5299 -0.848 0.848 -0.5299 511.8971 625.4935)" class="st0" width="225.679" height="130.89"/>
	
		<rect x="593.274" y="340.879" transform="matrix(-0.5299 -0.848 0.848 -0.5299 627.2681 1042.0413)" class="st2" width="18.333" height="12.583"/>
	
		<rect x="363.986" y="252.856" transform="matrix(0.5299 0.848 -0.848 0.5299 393.7577 -192.1866)" class="st2" width="12.5" height="12.459"/>
	
		<rect x="328.313" y="245.541" transform="matrix(0.5299 0.848 -0.848 0.5299 387.6786 -164.6005)" class="st2" width="28" height="43.708"/>
	
		<rect x="313.475" y="221.796" transform="matrix(0.5299 0.848 -0.848 0.5299 360.5664 -163.1796)" class="st2" width="28" height="43.708"/>
	
		<rect x="284.887" y="227.969" transform="matrix(0.5299 0.848 -0.848 0.5299 335.7786 -143.6554)" class="st2" width="25.167" height="6.167"/>
	
		<rect x="295.385" y="215.196" transform="matrix(0.5299 0.848 -0.848 0.5299 335.1504 -155.6427)" class="st2" width="25.167" height="18.593"/>
	
		<rect x="263.755" y="164.765" transform="matrix(-0.5299 -0.848 0.848 -0.5299 288.2273 533.004)" class="st1" width="56.167" height="43.708"/>
	
		<rect x="305.019" y="134.03" transform="matrix(-0.5299 -0.848 0.848 -0.5299 357.9457 504.0974)" class="st1" width="27.333" height="37.626"/>
	<polygon class="st1" points="327.398,131.283 274.395,164.403 270.95,158.891 291.445,146.084 281.502,130.173 314.011,109.859 	
		"/>
	<line class="st2" x1="270.95" y1="158.891" x2="260.632" y2="165.338"/>
	
		<rect x="241.324" y="148.322" transform="matrix(0.5299 0.848 -0.848 0.5299 249.1107 -134.151)" class="st2" width="8.477" height="18.612"/>
	<polygon class="st2" points="127.44,226.441 166.617,289.137 146.051,301.988 138.765,290.327 132.047,288.776 112.242,257.08 
		113.786,250.596 106.765,239.361 	"/>
	
		<rect x="240.691" y="244.252" transform="matrix(-0.5299 -0.848 0.848 -0.5299 201.8573 638.9796)" class="st0" width="74.667" height="38.583"/>
	
		<rect x="202.065" y="253.524" transform="matrix(0.848 -0.5299 0.5299 0.848 -118.5262 168.3643)" class="st0" width="64.5" height="74.667"/>
	<polygon class="st2" points="146.051,301.988 187.182,276.286 226.749,339.607 185.619,365.309 171.819,343.224 166.306,346.668 
		154.052,327.057 159.564,323.613 	"/>
	
		<rect x="130.71" y="305.124" transform="matrix(0.5299 0.848 -0.848 0.5299 330.2464 20.9678)" class="st2" width="31" height="6.5"/>
	<polygon class="st4" points="106.765,239.361 89.647,249.865 110.893,283.865 114.602,289.802 104.193,296.306 101.941,292.701 
		90.976,299.553 60.77,251.214 99.176,227.216 	"/>
	
		<rect x="106.247" y="331.648" transform="matrix(-0.5299 -0.848 0.848 -0.5299 -86.675 640.8906)" class="st4" width="56.083" height="25.64"/>
	
		<rect x="88.749" y="303.681" transform="matrix(0.5299 0.848 -0.848 0.5299 312.4475 56.5118)" class="st2" width="33" height="12.82"/>
	<line class="st2" x1="114.602" y1="289.802" x2="125.863" y2="307.823"/>
	<polygon class="st2" points="237.524,356.851 257.528,388.865 213.642,416.288 209.138,409.08 220.245,402.139 204.745,377.334 	
		"/>
	
		<rect x="200.393" y="378.582" transform="matrix(0.848 -0.5299 0.5299 0.848 -176.9228 169.4106)" class="st2" width="13.097" height="29.25"/>
	<polygon class="st2" points="213.642,416.288 217.351,422.225 228.458,415.284 244.533,441.008 277.312,420.525 257.528,388.865 	
		"/>
	
		<rect x="200.539" y="391.216" transform="matrix(-0.5299 -0.848 0.848 -0.5299 -16.363 786.46)" class="st2" width="18.5" height="13.097"/>
	<polygon class="st2" points="277.312,420.525 244.533,441.008 260.519,466.591 249.412,473.531 253.298,479.75 297.184,452.327 	
		"/>
	<polygon class="st2" points="253.298,479.75 297.184,452.327 317.056,484.129 284.277,504.612 268.335,479.1 257.228,486.04 	"/>
	
		<rect x="218.145" y="420.792" transform="matrix(0.5299 0.848 -0.848 0.5299 469.7111 7.3004)" class="st2" width="20.25" height="13.097"/>
	
		<rect x="231.234" y="433.637" transform="matrix(0.5299 0.848 -0.848 0.5299 484.3766 6.5318)" class="st2" width="10.125" height="13.097"/>
	
		<rect x="236.61" y="442.241" transform="matrix(0.5299 0.848 -0.848 0.5299 494.2007 6.0169)" class="st2" width="10.125" height="13.097"/>
	
		<rect x="242.193" y="450.436" transform="matrix(0.5299 0.848 -0.848 0.5299 503.5578 5.5266)" class="st2" width="9.202" height="13.097"/>
	
		<rect x="260.553" y="480.041" transform="matrix(0.5299 0.848 -0.848 0.5299 537.3602 3.755)" class="st2" width="9.479" height="13.097"/>
	
		<rect x="265.391" y="488.415" transform="matrix(0.5299 0.848 -0.848 0.5299 546.9221 3.2539)" class="st2" width="10.271" height="13.097"/>
	
		<rect x="270.819" y="497.152" transform="matrix(0.5299 0.848 -0.848 0.5299 556.8975 2.7311)" class="st2" width="10.333" height="13.097"/>
	
		<rect x="246.689" y="458.925" transform="matrix(0.5299 0.848 -0.848 0.5299 513.2508 5.0186)" class="st2" width="10.819" height="13.097"/>
	
		<rect x="305.237" y="488.202" transform="matrix(0.5299 0.848 -0.848 0.5299 569.3237 -33.4339)" class="st2" width="19.167" height="17.25"/>
	<polygon class="st2" points="327.213,500.383 355.622,482.631 343.103,462.596 337.525,457.68 333.728,451.602 307.12,468.228 	"/>
	<polygon class="st2" points="307.12,468.228 335.53,450.476 323.01,430.441 317.433,425.524 313.635,419.447 287.027,436.073 	"/>
	<polygon class="st2" points="267.575,404.942 295.984,387.19 283.465,367.155 277.887,362.239 274.62,357.009 248.012,373.635 	"/>
	<polygon class="st2" points="267.531,404.872 295.94,387.119 308.46,407.155 310.433,414.323 313.635,419.447 287.027,436.073 	"/>
	
		<rect x="246.176" y="341.243" transform="matrix(0.5299 0.848 -0.848 0.5299 423.0683 -49.3752)" class="st2" width="19.792" height="31.375"/>
	<polygon class="st2" points="358.008,392.251 325.853,412.344 313.274,392.215 311.301,385.046 307.503,378.968 337.856,360.002 	
		"/>
	<polygon class="st2" points="318.359,328.801 286.204,348.893 298.723,368.929 304.301,373.845 307.503,378.968 337.856,360.002 	
		"/>
	<polygon class="st2" points="397.656,455.702 365.501,475.795 352.982,455.76 351.008,448.591 347.21,442.514 377.563,423.547 	"/>
	<polygon class="st2" points="358.008,392.251 325.853,412.344 338.431,432.474 344.009,437.39 347.21,442.514 377.563,423.547 	"/>
	
		<rect x="295.75" y="316.268" transform="matrix(-0.5299 -0.848 0.848 -0.5299 190.7948 757.2532)" class="st3" width="19.048" height="18.958"/>
	
		<rect x="279.69" y="326.282" transform="matrix(-0.5299 -0.848 0.848 -0.5299 157.714 758.9869)" class="st3" width="19.048" height="19"/>
	<polygon class="st2" points="692.462,361.473 711.627,392.144 679.591,412.163 676.235,406.792 681.464,403.524 665.655,378.224 	
		"/>
	
		<rect x="289.054" y="611.828" transform="matrix(0.5299 0.848 -0.848 0.5299 674.695 31.5686)" class="st5" width="39.636" height="25.094"/>
	<line class="st8" x1="235.425" y1="158.965" x2="166.096" y2="289.462"/>
	<line class="st8" x1="274.601" y1="221.661" x2="126.781" y2="226.853"/>
	<line class="st8" x1="314.169" y1="284.982" x2="241.881" y2="242.107"/>
	<line class="st8" x1="455.202" y1="442.395" x2="414.045" y2="446.101"/>
	<line class="st8" x1="495.457" y1="437.62" x2="475.31" y2="439.435"/>
	<line class="st8" x1="455.202" y1="442.395" x2="476.893" y2="406.83"/>
	<line class="st8" x1="432.937" y1="476.687" x2="443.412" y2="459.136"/>
	<line class="st8" x1="281.448" y1="305.428" x2="187.182" y2="276.286"/>
	
		<rect x="164.056" y="160.384" transform="matrix(-0.5299 -0.848 0.848 -0.5299 117.5393 513.2552)" class="st6" width="73.929" height="127.333"/>
	<line class="st8" x1="425.011" y1="40.498" x2="433.602" y2="301.246"/>
	<line class="st8" x1="314.011" y1="109.859" x2="544.603" y2="231.885"/>
	<line class="st8" x1="274.601" y1="221.661" x2="281.448" y2="305.428"/>
	<line class="st8" x1="241.845" y1="242.129" x2="226.749" y2="339.607"/>
	<line class="st8" x1="268.931" y1="536.779" x2="276.85" y2="596.807"/>
	<line class="st8" x1="298.131" y1="583.509" x2="247.66" y2="550.093"/>
	<line class="st8" x1="388.147" y1="594.596" x2="370.512" y2="590.434"/>
	<polygon class="st2" points="396.96,278.731 387.412,263.485 381.466,267.299 390.955,282.484 	"/>
	<line class="st8" x1="638.759" y1="548.422" x2="576.107" y2="529.3"/>
	<line class="st8" x1="602.293" y1="571.208" x2="612.665" y2="506.456"/>
	<line class="st8" x1="679.757" y1="530.37" x2="655.844" y2="515.636"/>
	<line class="st8" x1="669.18" y1="536.979" x2="666.42" y2="509.028"/>
	
		<rect x="640.288" y="479.48" transform="matrix(-0.848 0.5299 -0.5299 -0.848 1451.5684 562.4714)" class="st2" width="9.706" height="19.741"/>
	<line class="st8" x1="381.325" y1="583.678" x2="377.335" y2="601.353"/>
</g>
<g id="murs">
	<line class="st6" x1="480.422" y1="448.346" x2="449.336" y2="467.771"/>
	<line class="st6" x1="481.774" y1="450.509" x2="450.688" y2="469.934"/>
	<line class="st6" x1="483.126" y1="452.673" x2="452.04" y2="472.098"/>
	<line class="st6" x1="484.478" y1="454.836" x2="453.392" y2="474.261"/>
	<line class="st6" x1="485.83" y1="457" x2="454.744" y2="476.425"/>
	<line class="st6" x1="487.182" y1="459.163" x2="456.096" y2="478.588"/>
	<line class="st6" x1="488.534" y1="461.327" x2="457.448" y2="480.752"/>
	<line class="st6" x1="489.886" y1="463.49" x2="458.799" y2="482.915"/>
	<line class="st6" x1="470.823" y1="432.983" x2="439.736" y2="452.408"/>
	<line class="st6" x1="472.174" y1="435.147" x2="441.088" y2="454.571"/>
	<line class="st6" x1="473.526" y1="437.31" x2="442.44" y2="456.735"/>
	<line class="st6" x1="474.878" y1="439.474" x2="443.792" y2="458.898"/>
	<line class="st6" x1="476.23" y1="441.637" x2="445.144" y2="461.062"/>
	<line class="st6" x1="477.582" y1="443.801" x2="446.496" y2="463.225"/>
	<line class="st6" x1="478.934" y1="445.964" x2="447.848" y2="465.389"/>
	<line class="st6" x1="469.97" y1="431.618" x2="490.99" y2="465.257"/>
	<line class="st6" x1="459.903" y1="484.682" x2="438.883" y2="451.043"/>
	<polyline class="st6" points="479.994,447.66 496.113,437.588 477.036,407.058 413.894,446.514 432.971,477.043 448.908,467.085 	
		"/>
	<line class="st6" x1="347.186" y1="303.853" x2="345.596" y2="301.308"/>
	<polyline class="st6" points="342.085,295.641 340.407,292.956 371.798,273.341 381.286,288.525 	"/>
	<line class="st6" x1="135.24" y1="296.952" x2="128.88" y2="300.926"/>
	<polyline class="st6" points="106.545,247.964 98.807,252.799 104.238,261.492 98.683,264.963 	"/>
	<polyline class="st6" points="312.584,509.524 283.326,527.807 280.544,523.354 	"/>
	<line class="st6" x1="273.17" y1="511.552" x2="275.908" y2="515.934"/>
	<polyline class="st6" points="318.359,328.801 304.909,307.276 293.849,314.187 	"/>
	<polyline class="st6" points="283.461,320.679 272.754,327.369 286.204,348.893 	"/>
	<polyline class="st6" points="331.317,515.678 311.14,528.286 334.635,565.885 344.723,559.581 	"/>
	<polyline class="st6" points="489.131,649.584 478.107,656.473 464.814,635.201 497.182,614.976 510.474,636.248 499.237,643.269 	
		"/>
	<polyline class="st6" points="448.877,655.773 450.025,657.61 468.919,662.214 478.107,656.473 	"/>
	<polyline class="st6" points="539.491,610.451 570.112,591.317 568.06,588.035 	"/>
	<polyline class="st6" points="170.133,377.638 173.313,375.651 176.316,380.457 	"/>
	<polyline class="st6" points="698.481,488.994 711.817,510.337 701.099,517.034 	"/>
	<polyline class="st6" points="687.763,495.691 697.39,511.097 704.033,506.946 	"/>
	<polyline class="st6" points="638.688,393.306 625.617,372.387 614.899,379.085 	"/>
	<polyline class="st6" points="625.207,380.799 618.564,384.95 627.97,400.003 	"/>
	<polyline class="st6" points="402.457,570.988 408.684,580.953 414.002,577.63 	"/>
	<line class="st2" x1="420.221" y1="573.744" x2="424.673" y2="570.962"/>
</g>
</svg>
