<?xml version="1.0" encoding="utf-8"?>
<!-- Generator: Adobe Illustrator 19.0.1, SVG Export Plug-In . SVG Version: 6.00 Build 0)  -->
<svg version="1.1" xmlns="http://www.w3.org/2000/svg" xmlns:xlink="http://www.w3.org/1999/xlink" x="0px" y="0px"
	 viewBox="0 0 1136 1268" style="enable-background:new 0 0 1136 1268;" xml:space="preserve">
<style type="text/css">
	.st0{fill:none;stroke:#383838;stroke-width:0.5;stroke-miterlimit:10;}
	.st1{fill:#EBF0F2;stroke:#383838;stroke-width:0.5;stroke-miterlimit:10;}
	.st2{fill:#FFFFFF;stroke:#383838;stroke-width:0.5;stroke-miterlimit:10;}
	.st3{fill:#BFD9E0;stroke:#383838;stroke-width:0.5;stroke-miterlimit:10;}
	.st4{fill:#61A1A1;stroke:#383838;stroke-width:0.5;stroke-miterlimit:10;}
	.st5{fill:#A3CCCB;stroke:#383838;stroke-width:0.5;stroke-miterlimit:10;}
	.st6{fill:#C7DEE2;stroke:#383838;stroke-width:0.5;stroke-miterlimit:10;}
	.st7{fill:#ED9B7E;stroke:#383838;stroke-width:0.5;stroke-miterlimit:10;}
	.st8{fill:#ED865B;stroke:#383838;stroke-width:0.5;stroke-miterlimit:10;}
	.st9{fill:#FFFFFF;}
	.st10{fill:none;stroke:#383838;stroke-width:0.5;stroke-miterlimit:10;stroke-dasharray:2.001,2.001;}
	.st11{fill:none;stroke:#383838;stroke-width:0.5;stroke-miterlimit:10;stroke-dasharray:2.0485,2.0485;}
	.st12{fill:none;stroke:#383838;stroke-width:0.5;stroke-miterlimit:10;stroke-dasharray:1.9069,1.9069;}
	.st13{fill:none;stroke:#383838;stroke-width:0.5;stroke-miterlimit:10;stroke-dasharray:1.9045,1.9045;}
	.st14{fill:none;stroke:#383838;stroke-width:0.5;stroke-miterlimit:10;stroke-dasharray:1.9103,1.9103;}
	.st15{fill:#383838;}
	.st16{fill:none;stroke:#383838;stroke-width:0.5;stroke-miterlimit:10;stroke-dasharray:1.9638,1.9638;}
	.st17{fill:none;stroke:#383838;stroke-width:0.5;stroke-miterlimit:10;stroke-dasharray:2.0901,2.0901;}
	.st18{fill:none;stroke:#383838;stroke-width:0.5;stroke-miterlimit:10;stroke-dasharray:2.0297,2.0297;}
	.st19{fill:none;stroke:#383838;stroke-width:0.5;stroke-miterlimit:10;stroke-dasharray:2.0013,2.0013;}
	.st20{fill:none;stroke:#383838;stroke-width:0.5;stroke-miterlimit:10;stroke-dasharray:1.9341,1.9341;}
</style>
<g id="locaux">
	<path class="st0" d="M439.726,863.976c-8.005-11.89-40.097-64.169-40.097-64.169l20.919-13.071l-30.523-48.848l-21.046,13.072
		l-37.624-60.211l5.18-3.237l-90.837-145.37l-5.088,3.18l-18.856-30.176l20.636-12.895l-19.784-31.66l-20.728,12.952l-54.582-87.349
		l20.728-12.952l5.123,8.198l143.037-89.38l-7.066-11.307l55.123-34.445l7.242,11.59L504.626,184.7l156.326,250.174l47.491-29.675
		l138.486,221.623l16.396-10.245l49.812,79.716l-50.6,31.619l-9.892-15.83l-59.646,37.271l9.892,15.83l-65.3,40.804l23.14,37.031
		l61.306-27.695l95.381,202.963l-25.616,10.64l6.533,15.434l-21.484,10.28l9.539,15.265l-42.685,26.673l-86.553-138.515
		l17.244-10.775l-8.832-14.134l5.936-3.709l-34.231-74.91l11.748-4.787l-7.949-12.721l-10.865,6.2l-25.613-40.989
		c0,0-137.633,86.077-143.603,89.733C529.433,911.295,472.511,912.668,439.726,863.976z"/>
	<polygon class="st1" points="879.466,1017.041 870.987,1003.472 873.248,1002.059 866.13,986.265 896.101,972.927 910.093,1002.7 	
		"/>
	<polygon class="st1" points="886.496,1031.122 917.254,1018.387 910.093,1002.7 879.466,1017.041 872.778,1021.22 
		876.664,1027.439 883.036,1024.193 	"/>
	<polygon class="st1" points="889.804,1048.466 876.664,1027.439 883.036,1024.193 886.496,1031.122 891.801,1028.925 
		898.172,1044.461 	"/>
	
		<rect x="769.994" y="761.223" transform="matrix(0.5299 0.848 -0.848 0.5299 1017.5726 -300.8039)" class="st1" width="20.25" height="12.5"/>
	
		<rect x="763.615" y="763.872" transform="matrix(0.848 -0.5299 0.5299 0.848 -293.2023 525.4771)" class="st1" width="12.125" height="20.25"/>
	
		<rect x="752.408" y="770.563" transform="matrix(0.848 -0.5299 0.5299 0.848 -298.3745 520.82)" class="st1" width="13.125" height="20.25"/>
	
		<rect x="742.009" y="777.308" transform="matrix(0.848 -0.5299 0.5299 0.848 -303.5893 516.1246)" class="st1" width="12.333" height="20.25"/>
	
		<rect x="731.265" y="783.925" transform="matrix(0.848 -0.5299 0.5299 0.848 -308.7051 511.5183)" class="st1" width="12.641" height="20.25"/>
	
		<rect x="760.751" y="735.984" transform="matrix(0.848 -0.5299 0.5299 0.848 -278.6033 519.6131)" class="st1" width="12" height="19.25"/>
	
		<rect x="749.997" y="742.509" transform="matrix(0.848 -0.5299 0.5299 0.848 -283.6475 515.0714)" class="st1" width="12.625" height="19.25"/>
	<polygon class="st1" points="756.057,763.641 750.403,767.174 743.098,765.548 729.519,743.817 739.696,737.458 	"/>
	
		<rect x="724.472" y="745.264" transform="matrix(0.848 -0.5299 0.5299 0.848 -289.2325 501.6044)" class="st1" width="11.125" height="19.75"/>
	
		<rect x="711.481" y="752.179" transform="matrix(0.848 -0.5299 0.5299 0.848 -294.5788 496.7906)" class="st1" width="14.975" height="19.75"/>
	
		<rect x="725.583" y="769.298" transform="matrix(-0.5299 -0.848 0.848 -0.5299 466.464 1807.1189)" class="st1" width="17" height="9.958"/>
	
		<rect x="717.608" y="774.835" transform="matrix(-0.5299 -0.848 0.848 -0.5299 450.0366 1807.9797)" class="st1" width="17" height="8.85"/>
	
		<rect x="695.237" y="712.814" transform="matrix(0.5299 0.848 -0.848 0.5299 956.1698 -261.2482)" class="st1" width="37" height="38.1"/>
	
		<rect x="731.102" y="695.861" transform="matrix(-0.848 0.5299 -0.5299 -0.848 1755.4988 936.9661)" class="st1" width="24.625" height="48.625"/>
	<polygon class="st1" points="792.999,749.352 791.175,750.492 770.862,717.983 802.557,698.178 822.871,730.686 	"/>
	
		<rect x="758.406" y="673.704" transform="matrix(0.5299 0.848 -0.848 0.5299 952.3899 -333.3736)" class="st1" width="37" height="37.375"/>
	<polygon class="st1" points="782.95,666.8 802.456,654.612 814.328,647.193 854.249,711.079 822.871,730.686 	"/>
	
		<rect x="804.207" y="650.095" transform="matrix(-0.848 0.5299 -0.5299 -0.848 1846.4625 781.3505)" class="st1" width="14" height="10.625"/>
	<polygon class="st2" points="882.931,647.954 833.935,678.571 854.249,711.079 852.645,712.081 862.536,727.912 913.137,696.293 	
		"/>
	<polygon class="st2" points="846.929,626.822 840.3,630.964 859.907,662.342 882.931,647.954 863.324,616.577 	"/>
	
		<rect x="821.805" y="636.267" transform="matrix(0.848 -0.5299 0.5299 0.848 -219.7722 543.0978)" class="st2" width="30.625" height="37"/>
	
		<rect x="792.798" y="605.219" transform="matrix(0.848 -0.5299 0.5299 0.848 -203.5871 525.8193)" class="st1" width="44.567" height="25.375"/>
	
		<rect x="784.749" y="620.306" transform="matrix(0.848 -0.5299 0.5299 0.848 -215.251 515.3171)" class="st1" width="12.375" height="25.375"/>
	<polygon class="st1" points="788.703,641.095 783.191,644.54 773.454,628.957 763.277,635.316 733.867,588.249 743.937,581.957 
		707.836,524.183 713.455,520.673 728.69,545.054 776.979,514.879 827.255,595.338 778.966,625.513 	"/>
	
		<rect x="767.234" y="630.74" transform="matrix(0.848 -0.5299 0.5299 0.848 -221.6158 506.9899)" class="st3" width="12" height="18.375"/>
	<polygon class="st1" points="752.072,663.617 755.682,669.394 744.763,676.217 731.581,655.122 741.122,649.16 750.693,664.478 	
		"/>
	
		<rect x="708.358" y="665.258" transform="matrix(0.848 -0.5299 0.5299 0.848 -248.2806 482.9498)" class="st3" width="19.25" height="18.292"/>
	<polygon class="st4" points="714.667,687.26 677.798,710.298 651.832,668.744 688.418,645.883 	"/>
	
		<rect x="693.361" y="638.85" transform="matrix(-0.848 0.5299 -0.5299 -0.848 1644.4297 830.4376)" class="st4" width="19.583" height="24.271"/>
	
		<rect x="666.302" y="614.04" transform="matrix(0.5299 0.848 -0.848 0.5299 853.0458 -286.3557)" class="st4" width="37.042" height="24.5"/>
	
		<rect x="631.65" y="613.841" transform="matrix(0.848 -0.5299 0.5299 0.848 -235.4764 440.7282)" class="st4" width="38.225" height="34.25"/>
	
		<rect x="665.303" y="592.953" transform="matrix(0.5299 0.848 -0.848 0.5299 828.9697 -285.0939)" class="st4" width="12.688" height="24.5"/>
	
		<rect x="630.515" y="566.638" transform="matrix(0.5299 0.848 -0.848 0.5299 798.9224 -283.5192)" class="st1" width="49.375" height="24.5"/>
	
		<rect x="609.493" y="570.82" transform="matrix(0.848 -0.5299 0.5299 0.848 -220.0529 423.5986)" class="st1" width="38.225" height="49.375"/>
	
		<rect x="650.934" y="642.438" transform="matrix(0.5299 0.848 -0.848 0.5299 865.3918 -250.5234)" class="st4" width="15.479" height="25.808"/>
	
		<rect x="668.674" y="637.475" transform="matrix(-0.848 0.5299 -0.5299 -0.848 1589.1263 834.754)" class="st4" width="12.417" height="15.479"/>
	<path class="st5" d="M704.59,802.238l-37.801-60.494l-104.261,65.149L528.871,829.3l-2.651,11.483l9.001,2.139l-0.822,3.56
		l11.393,18.233l-12.367,7.728l7.859,28.176c0,0,11.19-3.354,21.66-9.871L704.59,802.238z"/>
	<polygon class="st1" points="556.63,810.82 535.066,805.875 528.871,829.3 	"/>
	
		<rect x="444.348" y="768.926" transform="matrix(-0.848 0.5299 -0.5299 -0.848 1239.6714 1186.7988)" class="st1" width="10.666" height="4.417"/>
	
		<rect x="406.586" y="752.38" transform="matrix(-0.848 0.5299 -0.5299 -0.848 1173.0432 1186.8129)" class="st1" width="19.558" height="18.417"/>
	
		<rect x="402.051" y="738.771" transform="matrix(0.5299 0.848 -0.848 0.5299 826.7017 5.6908)" class="st1" width="12.333" height="19.558"/>
	
		<rect x="419.966" y="730.834" transform="matrix(-0.848 0.5299 -0.5299 -0.848 1188.8723 1151.515)" class="st1" width="18.749" height="30.75"/>
	
		<rect x="414.127" y="719.879" transform="matrix(0.5299 0.848 -0.848 0.5299 813.5486 -15.0894)" class="st1" width="12.517" height="12.832"/>
	
		<rect x="391.405" y="730.187" transform="matrix(-0.848 0.5299 -0.5299 -0.848 1137.1307 1146.8237)" class="st1" width="25.475" height="12.517"/>
	
		<rect x="361.987" y="726.61" transform="matrix(-0.848 0.5299 -0.5299 -0.848 1082.0006 1162.183)" class="st1" width="24.775" height="19.221"/>
	<polygon class="st1" points="422.51,717.588 413.466,703.115 399.133,712.071 397.941,710.163 379.788,721.506 389.988,737.831 	
		"/>
	<path class="st2" d="M379.408,720.9l0.379,0.607l-21.011,13.129c0,0-26.191-41.709-27.423-43.886l5.18-3.237l-1.369-2.191
		l15.83-9.892"/>
	
		<rect x="726.17" y="614.747" transform="matrix(0.5299 0.848 -0.848 0.5299 885.0735 -329.8457)" class="st1" width="27.792" height="37.375"/>
	
		<rect x="711.538" y="591.231" transform="matrix(0.5299 0.848 -0.848 0.5299 858.2236 -328.4386)" class="st1" width="27.667" height="37.375"/>
	<polygon class="st1" points="702.193,608.09 672.871,561.165 714.637,535.067 743.937,581.957 	"/>
	
		<rect x="663.818" y="544.272" transform="matrix(0.5299 0.848 -0.848 0.5299 782.9809 -312.1157)" class="st1" width="18.417" height="11.875"/>
	<polygon class="st6" points="707.836,524.183 704.878,519.448 695.302,525.432 705.061,541.05 714.637,535.067 	"/>
	
		<rect x="720.146" y="515.259" transform="matrix(-0.848 0.5299 -0.5299 -0.848 1660.7439 570.2247)" class="st1" width="56.942" height="15.917"/>
	
		<rect x="727.78" y="494.154" transform="matrix(0.848 -0.5299 0.5299 0.848 -153.3464 472.4414)" class="st1" width="38.692" height="18.917"/>
	
		<rect x="724.406" y="506.216" transform="matrix(0.848 -0.5299 0.5299 0.848 -162.6717 464.0449)" class="st1" width="6.833" height="18.917"/>
	
		<rect x="547.328" y="766.826" transform="matrix(-0.848 0.5299 -0.5299 -0.848 1439.7072 1138.8224)" class="st3" width="18.5" height="18"/>
	
		<rect x="562.99" y="756.931" transform="matrix(-0.848 0.5299 -0.5299 -0.848 1463.7269 1112.1456)" class="st3" width="18.844" height="18"/>
	<polygon class="st1" points="575.633,753.306 568.612,742.069 560.301,740.151 549.435,746.94 559.653,763.292 	"/>
	<polygon class="st1" points="549.435,746.94 544.453,750.054 542.549,758.3 536.918,761.819 543.964,773.095 559.653,763.292 	"/>
	<polygon class="st1" points="544.453,750.054 541.489,745.31 530.782,752 536.918,761.819 542.549,758.3 	"/>
	<polygon class="st4" points="541.489,745.31 557.204,735.49 559.043,727.523 532.564,685.147 524.275,683.234 498.051,699.62 
		530.782,752 	"/>
	<polygon class="st1" points="498.051,699.62 494.748,694.333 479.059,704.136 488.796,719.719 504.485,709.916 	"/>
	
		<rect x="472.492" y="706.019" transform="matrix(0.848 -0.5299 0.5299 0.848 -306.2654 362.3387)" class="st1" width="12.375" height="18.375"/>
	
		<rect x="461.882" y="712.61" transform="matrix(0.848 -0.5299 0.5299 0.848 -311.3607 357.7509)" class="st1" width="12.5" height="18.375"/>
	
		<rect x="451.628" y="719.135" transform="matrix(0.848 -0.5299 0.5299 0.848 -316.4049 353.2091)" class="st1" width="12.125" height="18.375"/>
	
		<rect x="459.71" y="735.192" transform="matrix(-0.5299 -0.848 0.848 -0.5299 83.974 1529.0571)" class="st1" width="12.125" height="12.125"/>
	
		<rect x="470.439" y="730.324" transform="matrix(-0.848 0.5299 -0.5299 -0.848 1265.3934 1109.9266)" class="st1" width="6.25" height="12.125"/>
	
		<rect x="474.799" y="723.733" transform="matrix(-0.848 0.5299 -0.5299 -0.848 1281.3932 1092.157)" class="st1" width="18.625" height="12.125"/>
	<polygon class="st1" points="495.221,730.002 498.728,735.613 514.417,725.81 504.485,709.916 488.796,719.719 	"/>
	
		<rect x="502.075" y="729.574" transform="matrix(-0.5299 -0.848 0.848 -0.5299 156.2118 1564.2384)" class="st1" width="19.133" height="18.5"/>
	
		<rect x="494.883" y="742.307" transform="matrix(0.848 -0.5299 0.5299 0.848 -320.8975 379.0528)" class="st1" width="11.25" height="13.542"/>
	
		<rect x="483.148" y="748.898" transform="matrix(0.848 -0.5299 0.5299 0.848 -325.9929 374.4649)" class="st1" width="13.625" height="13.542"/>
	<polygon class="st1" points="463.843,749.609 477.489,771.446 487.771,765.021 480.595,753.537 501.691,740.355 495.221,730.002 	
		"/>
	<polygon class="st1" points="477.489,771.446 483.693,781.375 499.223,771.671 503.485,778.491 519.333,768.588 508.867,751.839 	
		"/>
	<polygon class="st1" points="483.693,781.375 486.034,785.121 511.235,790.893 499.223,771.671 	"/>
	<polygon class="st1" points="511.235,790.893 522.1,784.104 523.293,786.012 528.275,782.899 519.333,768.588 503.485,778.491 	"/>
	
		<rect x="520.908" y="757.206" transform="matrix(0.848 -0.5299 0.5299 0.848 -326.6614 397.7092)" class="st1" width="18.5" height="22.5"/>
	
		<rect x="513.391" y="743.677" transform="matrix(-0.5299 -0.848 0.848 -0.5299 157.7341 1593.2865)" class="st1" width="14.125" height="18.5"/>
	
		<rect x="439.661" y="702.024" transform="matrix(-0.848 0.5299 -0.5299 -0.848 1204.8214 1071.071)" class="st1" width="18.375" height="12.5"/>
	
		<rect x="455.695" y="693.86" transform="matrix(-0.848 0.5299 -0.5299 -0.848 1224.6403 1049.0599)" class="st1" width="12.437" height="12.5"/>
	
		<rect x="466.238" y="687.253" transform="matrix(-0.848 0.5299 -0.5299 -0.848 1240.6803 1031.2457)" class="st1" width="12.5" height="12.5"/>
	
		<rect x="476.862" y="680.711" transform="matrix(-0.848 0.5299 -0.5299 -0.848 1256.5596 1013.61)" class="st1" width="12.188" height="12.5"/>
	<polygon class="st1" points="491.436,689.032 497.372,685.323 502.142,682.342 495.518,671.742 484.812,678.432 	"/>
	<polygon class="st1" points="496.789,685.687 505.444,687.686 521.16,677.865 523.083,669.533 516.335,658.734 495.518,671.742 
		502.142,682.342 	"/>
	<polygon class="st7" points="870.987,1003.472 864.3,1007.651 837.892,965.39 803.635,891.283 848.194,870.984 896.101,972.927 
		866.13,986.265 873.248,1002.059 	"/>
	<polygon class="st8" points="822.036,815.322 848.194,870.984 803.635,891.283 793.92,870.036 797.533,868.466 792.093,857.715 
		775.715,865.885 770.212,857.924 798.781,844.397 791.732,829.013 	"/>
	<polygon class="st8" points="871.881,1078.971 854.239,1050.738 868.726,1041.685 799.771,931.333 757.107,957.992 
		843.705,1096.577 	"/>
	<polygon class="st8" points="769.664,925.429 737.268,854.534 749.017,849.747 790.726,916.496 	"/>
	<line class="st1" x1="790.726" y1="916.496" x2="795.032" y2="923.387"/>
	<polygon class="st4" points="589.978,568.645 621.789,548.767 602.447,517.813 612.729,511.388 593.917,481.282 578.476,490.931 
		585.63,502.38 564.438,515.622 576.362,534.703 570.901,538.115 	"/>
	<polygon class="st5" points="570.901,538.115 488.543,589.578 410.203,464.208 493.409,412.215 553.732,508.751 558.344,505.869 
		564.438,515.622 564.438,515.622 576.362,534.703 	"/>
	<polygon class="st1" points="591.455,743.42 597.814,753.596 605.759,755.461 616.148,748.969 606.388,733.351 	"/>
	
		<rect x="578.794" y="700.187" transform="matrix(0.5299 0.848 -0.848 0.5299 889.8363 -168.7187)" class="st1" width="36.625" height="36.215"/>
	<polygon class="st1" points="622.167,724.229 637.826,714.444 640.74,719.108 651.4,712.447 653.329,704.093 634.219,673.51 
		602.758,693.169 	"/>
	
		<rect x="589.516" y="648.731" transform="matrix(0.5299 0.848 -0.848 0.5299 851.9073 -202.3223)" class="st1" width="37.875" height="37.097"/>
	
		<rect x="558.262" y="668.504" transform="matrix(0.5299 0.848 -0.848 0.5299 853.6616 -166.8228)" class="st1" width="38.094" height="36.215"/>
	
		<rect x="546.788" y="665.244" transform="matrix(0.5299 0.848 -0.848 0.5299 829.4031 -153.7957)" class="st1" width="13.281" height="12"/>
	
		<rect x="556.624" y="659.5" transform="matrix(0.5299 0.848 -0.848 0.5299 828.8145 -165.0254)" class="st1" width="13.281" height="11.195"/>
	<polygon class="st1" points="564.492,656.5 565.93,652.801 574.275,647.586 582.572,660.864 571.53,667.763 	"/>
	<polygon class="st1" points="565.93,652.801 561.578,651.836 552.246,636.902 563.288,630.003 574.275,647.586 	"/>
	
		<rect x="546.567" y="638.53" transform="matrix(0.848 -0.5299 0.5299 0.848 -259.1329 390.9666)" class="st1" width="11.195" height="17.609"/>
	<polygon class="st1" points="552.084,657.768 541.907,664.127 535.747,654.269 537.611,646.047 542.752,642.835 	"/>
	<path class="st1" d="M614.148,641.39c0,0-16.226-25.2-16.096-25.759c0.129-0.56-8.816-1.843-8.816-1.843l-25.948,16.214
		l19.284,30.861L614.148,641.39z"/>
	<polygon class="st1" points="349.772,676.193 354.507,673.234 344.395,657.051 325.052,669.137 335.165,685.321 	"/>
	
		<rect x="221.063" y="588.687" transform="matrix(0.5299 0.848 -0.848 0.5299 647.7469 31.6161)" class="st4" width="148.583" height="22.808"/>
	<polygon class="st4" points="407.934,639.849 319.085,497.66 275.127,525.128 353.865,651.133 383.829,632.41 393.942,648.593 	"/>
	<polygon class="st1" points="572.319,609.453 582.696,602.969 584.635,594.572 578.193,584.263 570.722,582.538 559.782,589.374 	
		"/>
	
		<rect x="521.888" y="579.789" transform="matrix(0.848 -0.5299 0.5299 0.848 -231.9773 376.3275)" class="st1" width="36.656" height="25.75"/>
	
		<rect x="551.614" y="597.016" transform="matrix(0.848 -0.5299 0.5299 0.848 -236.1177 388.9657)" class="st3" width="17.139" height="18.375"/>
	
		<rect x="534.882" y="606.728" transform="matrix(0.848 -0.5299 0.5299 0.848 -243.6263 382.2049)" class="st3" width="19.517" height="18.375"/>
	<line class="st1" x1="550.311" y1="574.233" x2="519.225" y2="593.658"/>
	<line class="st1" x1="551.663" y1="576.397" x2="520.577" y2="595.822"/>
	<line class="st1" x1="553.015" y1="578.56" x2="521.929" y2="597.985"/>
	<line class="st1" x1="554.367" y1="580.724" x2="523.281" y2="600.149"/>
	<line class="st1" x1="555.719" y1="582.887" x2="524.633" y2="602.312"/>
	<line class="st1" x1="557.071" y1="585.051" x2="525.985" y2="604.476"/>
	<line class="st1" x1="558.423" y1="587.214" x2="527.337" y2="606.639"/>
	<line class="st1" x1="559.775" y1="589.378" x2="528.689" y2="608.803"/>
	<polygon class="st1" points="414.401,635.809 431.962,624.835 369.741,525.26 364.511,528.528 387.607,565.489 375.275,573.195 	
		"/>
	
		<rect x="371.688" y="556.665" transform="matrix(0.5299 0.848 -0.848 0.5299 655.9644 -55.5203)" class="st1" width="12.75" height="14.542"/>
	
		<rect x="365.123" y="545.958" transform="matrix(0.5299 0.848 -0.848 0.5299 643.7397 -54.8797)" class="st1" width="12.5" height="14.542"/>
	
		<rect x="358.626" y="535.428" transform="matrix(0.5299 0.848 -0.848 0.5299 631.7168 -54.2496)" class="st1" width="12.333" height="14.542"/>
	<polygon class="st1" points="364.511,528.528 360.272,521.744 347.94,529.45 355.359,541.322 367.691,533.616 	"/>
	<polygon class="st1" points="347.94,529.45 325.551,493.619 343.113,482.646 369.741,525.26 364.511,528.528 360.272,521.744 	"/>
	
		<rect x="427.447" y="609.089" transform="matrix(-0.848 0.5299 -0.5299 -0.848 1131.1486 906.1599)" class="st1" width="16.417" height="12.333"/>
	
		<rect x="433.275" y="572.16" transform="matrix(-0.848 0.5299 -0.5299 -0.848 1147.8457 852.1801)" class="st1" width="36.938" height="37"/>
	
		<rect x="418.525" y="557.722" transform="matrix(-0.848 0.5299 -0.5299 -0.848 1108.0798 816.3748)" class="st1" width="36.938" height="18.667"/>
	
		<rect x="408.633" y="541.892" transform="matrix(-0.848 0.5299 -0.5299 -0.848 1081.4105 792.3616)" class="st1" width="36.938" height="18.667"/>
	
		<rect x="420.912" y="598.63" transform="matrix(-0.848 0.5299 -0.5299 -0.848 1113.5277 890.294)" class="st1" width="16.417" height="12.333"/>
	
		<rect x="414.376" y="588.171" transform="matrix(-0.848 0.5299 -0.5299 -0.848 1095.907 874.4282)" class="st1" width="16.417" height="12.333"/>
	
		<rect x="407.84" y="577.711" transform="matrix(-0.848 0.5299 -0.5299 -0.848 1078.2861 858.5623)" class="st1" width="16.417" height="12.333"/>
	
		<rect x="401.305" y="567.252" transform="matrix(-0.848 0.5299 -0.5299 -0.848 1060.6654 842.6965)" class="st1" width="16.417" height="12.333"/>
	
		<rect x="394.857" y="556.934" transform="matrix(-0.848 0.5299 -0.5299 -0.848 1043.2827 827.045)" class="st1" width="16.417" height="12.333"/>
	
		<rect x="388.322" y="546.475" transform="matrix(-0.848 0.5299 -0.5299 -0.848 1025.6619 811.1793)" class="st1" width="16.417" height="12.333"/>
	
		<rect x="381.676" y="535.631" transform="matrix(-0.848 0.5299 -0.5299 -0.848 1007.7434 795.0454)" class="st1" width="16.417" height="12.75"/>
	
		<rect x="372.005" y="519.904" transform="matrix(-0.848 0.5299 -0.5299 -0.848 981.6694 771.5682)" class="st1" width="16.417" height="13.25"/>
	
		<rect x="365.215" y="509.476" transform="matrix(-0.848 0.5299 -0.5299 -0.848 963.364 755.086)" class="st1" width="16.417" height="12.375"/>
	
		<rect x="358.657" y="498.981" transform="matrix(-0.848 0.5299 -0.5299 -0.848 945.6837 739.1666)" class="st1" width="16.417" height="12.375"/>
	
		<rect x="352.099" y="488.486" transform="matrix(-0.848 0.5299 -0.5299 -0.848 928.0034 723.2471)" class="st1" width="16.417" height="12.375"/>
	
		<rect x="345.343" y="477.299" transform="matrix(-0.848 0.5299 -0.5299 -0.848 909.7873 706.8453)" class="st1" width="16.417" height="13.125"/>
	<polygon class="st1" points="393.467,532.25 406.494,553.097 437.819,533.523 418.41,502.464 387.086,522.038 390.685,527.797 
		376.763,536.497 379.545,540.949 	"/>
	
		<rect x="374.142" y="477.925" transform="matrix(0.5299 0.848 -0.848 0.5299 605.6323 -99.8017)" class="st1" width="37.396" height="36.938"/>
	
		<rect x="375.989" y="458.22" transform="matrix(0.5299 0.848 -0.848 0.5299 577.7086 -107.3044)" class="st3" width="19.313" height="18.469"/>
	
		<rect x="360.749" y="467.585" transform="matrix(0.848 -0.5299 0.5299 0.848 -196.6799 268.5789)" class="st3" width="18.469" height="19.313"/>
	
		<rect x="417.92" y="444.235" transform="matrix(0.5299 0.848 -0.848 0.5299 582.5712 -144.0154)" class="st1" width="6.542" height="18.5"/>
	
		<rect x="471.375" y="400.001" transform="matrix(0.5299 0.848 -0.848 0.5299 573.0797 -215.1205)" class="st1" width="18.417" height="18.74"/>
	
		<rect x="454.85" y="410.229" transform="matrix(0.848 -0.5299 0.5299 0.848 -151.6899 309.8686)" class="st1" width="19.25" height="18.417"/>
	
		<rect x="457.191" y="374.863" transform="matrix(-0.5299 -0.848 0.848 -0.5299 390.3562 978.9691)" class="st1" width="18.625" height="12.865"/>
	
		<rect x="452.581" y="361.983" transform="matrix(-0.5299 -0.848 0.848 -0.5299 388.9658 952.4389)" class="st3" width="11.75" height="12.865"/>
	
		<rect x="434.975" y="345.712" transform="matrix(-0.5299 -0.848 0.848 -0.5299 387.2092 918.9213)" class="st1" width="26.625" height="12.865"/>
	
		<rect x="415.898" y="315.182" transform="matrix(-0.5299 -0.848 0.848 -0.5299 383.9135 856.035)" class="st1" width="26.625" height="12.865"/>
	
		<rect x="412.977" y="298.804" transform="matrix(-0.5299 -0.848 0.848 -0.5299 382.1454 822.2991)" class="st1" width="12" height="12.865"/>
	
		<rect x="401.645" y="285.871" transform="matrix(-0.5299 -0.848 0.848 -0.5299 380.7493 795.6598)" class="st1" width="18.5" height="12.865"/>
	
		<rect x="381.628" y="257.777" transform="matrix(-0.5299 -0.848 0.848 -0.5299 372.7342 740.9032)" class="st1" width="20.167" height="18.74"/>
	
		<rect x="365.538" y="267.597" transform="matrix(-0.5299 -0.848 0.848 -0.5299 339.5896 742.6402)" class="st1" width="20.167" height="19.208"/>
	<polygon class="st5" points="424.429,418.568 461.001,395.715 428.411,343.56 402.44,359.789 391.839,366.413 	"/>
	
		<rect x="403.948" y="329.999" transform="matrix(0.5299 0.848 -0.848 0.5299 481.8865 -193.5974)" class="st1" width="23.25" height="15.75"/>
	<polygon class="st5" points="416.091,323.843 395.556,290.981 369.161,307.475 378.964,323.164 368.788,329.523 391.839,366.413 
		415.055,351.906 402.734,332.189 	"/>
	<polygon class="st4" points="368.788,329.523 424.429,418.568 414.253,424.927 348.808,320.193 369.161,307.475 378.964,323.164 	
		"/>
	
		<rect x="396.86" y="249.037" transform="matrix(0.5299 0.848 -0.848 0.5299 505.5177 -283.8265)" class="st4" width="223.833" height="130.077"/>
	<polygon class="st1" points="578.476,490.931 593.917,481.282 612.729,511.388 602.447,517.813 621.789,548.767 748.629,469.509 
		708.443,405.199 660.952,434.874 623.24,374.521 512.928,443.452 553.732,508.751 558.344,505.869 564.438,515.622 585.63,502.38 	
		"/>
	
		<rect x="290.46" y="370.927" transform="matrix(-0.5299 -0.848 0.848 -0.5299 139.0174 931.1622)" class="st8" width="74.25" height="112.25"/>
	
		<rect x="243.395" y="303.681" transform="matrix(-0.5299 -0.848 0.848 -0.5299 117.3413 801.655)" class="st4" width="74.917" height="129.25"/>
	
		<rect x="227.651" y="448.361" transform="matrix(-0.5299 -0.848 0.848 -0.5299 9.6419 937.9424)" class="st7" width="74.25" height="35.875"/>
	
		<rect x="198.153" y="457.036" transform="matrix(-0.5299 -0.848 0.848 -0.5299 -80.707 893.7775)" class="st2" width="18.417" height="24.442"/>
	
		<rect x="227.74" y="504.385" transform="matrix(-0.5299 -0.848 0.848 -0.5299 -75.5956 991.3095)" class="st2" width="18.417" height="24.442"/>
	<polygon class="st2" points="185.449,457.253 195.767,450.805 187.465,437.519 197.875,431.014 168.023,383.241 147.295,396.193 	
		"/>
	
		<rect x="193.433" y="405.191" transform="matrix(-0.848 0.5299 -0.5299 -0.848 599.1559 670.244)" class="st1" width="20.1" height="31.667"/>
	
		<rect x="204.522" y="380.099" transform="matrix(-0.848 0.5299 -0.5299 -0.848 607.9137 627.7155)" class="st1" width="18.875" height="41.833"/>
	<polygon class="st1" points="229.891,444.321 223.753,434.497 233.258,428.558 226.545,417.816 233.047,413.753 245.898,434.318 	
		"/>
	
		<rect x="218.816" y="420.552" transform="matrix(0.5299 0.848 -0.848 0.5299 467.2396 9.3908)" class="st1" width="12.667" height="11.208"/>
	<path class="st8" d="M446.329,775.833l-2.34-3.746l-44.36,27.719l40.097,64.169c0,0,32.427,55.149,101.558,36.643l-7.859-28.176
		l12.367-7.728l-11.393-18.233l0.822-3.56l-9.001-2.139l8.845-34.908l-43.009-9.385l-6.628,28.708l-7.844-1.78l2.783-13.236
		l-18.68-29.894l-9.045,5.652L446.329,775.833z"/>
	<polygon class="st1" points="480.368,810.181 488.452,812.107 485.429,825.197 477.585,823.417 	"/>
	<polygon class="st3" points="833.781,985.762 819.167,995.019 827.833,1009.333 842.628,999.92 	"/>
	<polygon class="st3" points="842.628,999.92 827.833,1009.333 837,1024.193 851.869,1014.707 	"/>
	<g>
		<line class="st9" x1="168.023" y1="383.241" x2="185.449" y2="457.253"/>
		<g>
			<line class="st0" x1="168.023" y1="383.241" x2="168.252" y2="384.214"/>
			<line class="st10" x1="168.711" y1="386.162" x2="184.991" y2="455.306"/>
			<line class="st0" x1="185.22" y1="456.279" x2="185.449" y2="457.253"/>
		</g>
	</g>
	<g>
		<line class="st9" x1="147.295" y1="396.193" x2="197.875" y2="431.014"/>
		<g>
			<line class="st0" x1="147.295" y1="396.193" x2="148.119" y2="396.76"/>
			<line class="st11" x1="149.806" y1="397.922" x2="196.208" y2="429.867"/>
			<line class="st0" x1="197.051" y1="430.447" x2="197.875" y2="431.015"/>
		</g>
	</g>
	<g>
		<line class="st9" x1="212.845" y1="454.972" x2="201.877" y2="483.542"/>
		<g>
			<line class="st0" x1="212.845" y1="454.972" x2="212.487" y2="455.905"/>
			<line class="st12" x1="211.803" y1="457.686" x2="202.577" y2="481.719"/>
			<line class="st0" x1="202.235" y1="482.609" x2="201.877" y2="483.542"/>
		</g>
	</g>
	<g>
		<g>
			<line class="st0" x1="192.117" y1="467.924" x2="193.114" y2="468.011"/>
			<line class="st12" x1="195.013" y1="468.177" x2="220.659" y2="470.42"/>
			<line class="st0" x1="221.608" y1="470.503" x2="222.605" y2="470.59"/>
		</g>
	</g>
	<g>
		<g>
			<line class="st0" x1="221.752" y1="515.145" x2="222.748" y2="515.237"/>
			<line class="st13" x1="224.645" y1="515.411" x2="250.248" y2="517.761"/>
			<line class="st0" x1="251.196" y1="517.848" x2="252.192" y2="517.939"/>
		</g>
	</g>
	<g>
		<g>
			<line class="st0" x1="242.388" y1="502.251" x2="242.032" y2="503.185"/>
			<line class="st14" x1="241.351" y1="504.97" x2="232.161" y2="529.065"/>
			<line class="st0" x1="231.82" y1="529.957" x2="231.464" y2="530.892"/>
		</g>
	</g>
	<polygon class="st1" points="676.046,514.864 666.767,499.445 654.61,506.75 664.109,522.323 	"/>
	<polygon class="st1" points="859.461,1026.858 844.753,1036.169 854.239,1050.738 868.726,1041.685 	"/>
	<g>
		<g>
			<path class="st15" d="M855.195,1040.173h-0.414v-1.773l-0.39,0.01v-0.318l0.804-0.082V1040.173z"/>
			<path class="st15" d="M855.868,1039.231l0.111-1.191h1.093v0.332h-0.753l-0.052,0.518c0.036-0.03,0.082-0.056,0.136-0.076
				c0.055-0.021,0.112-0.031,0.174-0.033c0.18-0.004,0.317,0.058,0.415,0.183c0.097,0.125,0.146,0.3,0.146,0.526
				c0,0.209-0.053,0.38-0.16,0.514c-0.106,0.134-0.272,0.201-0.496,0.201c-0.18,0-0.334-0.053-0.463-0.157s-0.19-0.247-0.186-0.428
				l0.003-0.007l0.401-0.021c0,0.093,0.022,0.164,0.067,0.215s0.104,0.076,0.177,0.076c0.085,0,0.146-0.033,0.185-0.1
				c0.037-0.066,0.056-0.163,0.056-0.291c0-0.126-0.021-0.227-0.063-0.301c-0.042-0.073-0.105-0.11-0.19-0.11
				c-0.067,0-0.119,0.016-0.155,0.047s-0.062,0.074-0.075,0.129L855.868,1039.231z"/>
			<path class="st15" d="M858.547,1039.379h0.204v0.325h-0.204v0.469h-0.416v-0.469h-0.769l-0.021-0.254l0.788-1.41h0.417V1039.379z
				 M857.709,1039.379h0.422v-0.771l-0.009-0.002l-0.038,0.086L857.709,1039.379z"/>
			<path class="st15" d="M860.28,1039.399c0,0.251-0.061,0.448-0.181,0.59c-0.12,0.144-0.278,0.215-0.475,0.215
				c-0.199,0-0.359-0.071-0.479-0.215c-0.121-0.142-0.181-0.339-0.181-0.59v-0.584c0-0.25,0.06-0.446,0.18-0.59
				c0.12-0.145,0.279-0.217,0.478-0.217c0.197,0,0.356,0.072,0.478,0.217c0.12,0.144,0.181,0.34,0.181,0.59V1039.399z
				 M859.865,1038.778c0-0.141-0.021-0.25-0.064-0.328c-0.044-0.078-0.104-0.117-0.179-0.117c-0.077,0-0.137,0.039-0.179,0.117
				c-0.043,0.078-0.064,0.188-0.064,0.328v0.654c0,0.145,0.021,0.255,0.064,0.332c0.043,0.078,0.104,0.117,0.182,0.117
				c0.075,0,0.135-0.039,0.177-0.117c0.043-0.077,0.063-0.188,0.063-0.332V1038.778z"/>
		</g>
	</g>
</g>
<g id="murs">
	<polyline class="st0" points="791.732,829.013 798.781,844.397 770.212,857.924 767.511,853.602 	"/>
	<polyline class="st0" points="757.166,660.802 773.014,650.899 763.277,635.316 741.122,649.16 750.693,664.478 752.072,663.617 	
		"/>
	<polyline class="st0" points="705.061,541.05 695.302,525.432 678.959,535.644 	"/>
	<line class="st0" x1="719.913" y1="509.464" x2="715.178" y2="512.422"/>
	<polyline class="st0" points="527.929,793.432 529.122,795.341 547.035,799.476 556.682,793.448 543.964,773.095 523.293,786.012 
		523.293,786.012 	"/>
	<line class="st0" x1="556.682" y1="793.448" x2="567.388" y2="786.758"/>
	<polyline class="st0" points="585.172,768.571 588.351,773.659 577.353,780.532 	"/>
	<line class="st0" x1="647.254" y1="729.532" x2="615.935" y2="749.102"/>
	<line class="st0" x1="393.942" y1="648.593" x2="363.977" y2="667.317"/>
	<line class="st0" x1="451.433" y1="416.728" x2="421.009" y2="435.739"/>
	<line class="st0" x1="197.875" y1="431.014" x2="208.032" y2="447.269"/>
	<line class="st0" x1="362.133" y1="273.74" x2="339.659" y2="287.782"/>
	<line class="st0" x1="372.819" y1="290.842" x2="350.346" y2="304.885"/>
	<g>
		<line class="st9" x1="882.931" y1="647.954" x2="862.536" y2="727.912"/>
		<g>
			<line class="st0" x1="882.931" y1="647.954" x2="882.684" y2="648.923"/>
			<line class="st16" x1="882.199" y1="650.826" x2="863.026" y2="725.991"/>
			<line class="st0" x1="862.784" y1="726.943" x2="862.536" y2="727.912"/>
		</g>
	</g>
	<g>
		<line class="st9" x1="863.324" y1="616.577" x2="859.907" y2="662.342"/>
		<g>
			<line class="st0" x1="863.324" y1="616.577" x2="863.25" y2="617.574"/>
			<line class="st17" x1="863.094" y1="619.658" x2="860.059" y2="660.302"/>
			<line class="st0" x1="859.981" y1="661.345" x2="859.907" y2="662.342"/>
		</g>
	</g>
	<g>
		<line class="st9" x1="833.935" y1="678.571" x2="913.137" y2="696.293"/>
		<g>
			<line class="st0" x1="833.935" y1="678.571" x2="834.911" y2="678.789"/>
			<line class="st18" x1="836.892" y1="679.232" x2="911.17" y2="695.853"/>
			<line class="st0" x1="912.161" y1="696.075" x2="913.137" y2="696.293"/>
		</g>
	</g>
	<g>
		<line class="st9" x1="840.3" y1="630.964" x2="882.931" y2="647.954"/>
		<g>
			<line class="st0" x1="840.3" y1="630.964" x2="841.229" y2="631.334"/>
			<line class="st17" x1="843.17" y1="632.108" x2="881.031" y2="647.197"/>
			<line class="st0" x1="882.002" y1="647.584" x2="882.931" y2="647.954"/>
		</g>
	</g>
	<g>
		<line class="st9" x1="814.328" y1="647.193" x2="859.907" y2="662.342"/>
		<g>
			<line class="st0" x1="814.328" y1="647.193" x2="815.277" y2="647.508"/>
			<line class="st19" x1="817.176" y1="648.139" x2="858.008" y2="661.711"/>
			<line class="st0" x1="858.958" y1="662.026" x2="859.907" y2="662.342"/>
		</g>
	</g>
	<g>
		<line class="st9" x1="840.3" y1="630.964" x2="833.935" y2="678.571"/>
		<g>
			<line class="st0" x1="840.3" y1="630.964" x2="840.167" y2="631.955"/>
			<line class="st19" x1="839.902" y1="633.939" x2="834.2" y2="676.588"/>
			<line class="st0" x1="834.068" y1="677.579" x2="833.935" y2="678.571"/>
		</g>
	</g>
	<line class="st1" x1="760.731" y1="843.018" x2="763.292" y2="847.117"/>
	<g>
		<line class="st9" x1="354.507" y1="673.234" x2="383.527" y2="719.035"/>
		<g>
			<line class="st0" x1="354.507" y1="673.234" x2="355.043" y2="674.079"/>
			<line class="st20" x1="356.078" y1="675.713" x2="382.474" y2="717.373"/>
			<line class="st0" x1="382.992" y1="718.19" x2="383.527" y2="719.035"/>
		</g>
	</g>
</g>
</svg>
