<?xml version="1.0" encoding="utf-8"?>
<!-- Generator: Adobe Illustrator 19.0.1, SVG Export Plug-In . SVG Version: 6.00 Build 0)  -->
<svg version="1.1" id="icones" xmlns="http://www.w3.org/2000/svg" xmlns:xlink="http://www.w3.org/1999/xlink" x="0px" y="0px"
	 viewBox="0 0 776.961 823.459" style="enable-background:new 0 0 776.961 823.459;" xml:space="preserve">
<style type="text/css">
	.st0{fill:#010101;}
	.st1{fill:#FFFFFF;}
</style>
<g>
	<path class="st0" d="M360.975,334.164h-96.839c-1.388,0-2.513-1.125-2.513-2.513v-21.203c0-1.388,1.125-2.513,2.513-2.513h96.839
		c1.388,0,2.513,1.125,2.513,2.513v21.203C363.489,333.038,362.364,334.164,360.975,334.164z"/>
	<g>
		<path class="st1" d="M269.195,318.095c-0.288,0.144-0.863,0.287-1.6,0.287c-1.708,0-2.993-1.078-2.993-3.064
			c0-1.896,1.285-3.182,3.164-3.182c0.755,0,1.231,0.162,1.438,0.27l-0.189,0.639c-0.296-0.145-0.719-0.252-1.222-0.252
			c-1.42,0-2.364,0.907-2.364,2.498c0,1.483,0.854,2.436,2.328,2.436c0.477,0,0.962-0.099,1.276-0.251L269.195,318.095z"/>
		<path class="st1" d="M272.497,318.292l-0.063-0.548h-0.027c-0.242,0.342-0.71,0.646-1.33,0.646c-0.88,0-1.33-0.62-1.33-1.249
			c0-1.052,0.935-1.627,2.615-1.617v-0.09c0-0.359-0.099-1.007-0.988-1.007c-0.405,0-0.827,0.126-1.132,0.323l-0.18-0.521
			c0.36-0.233,0.881-0.386,1.429-0.386c1.33,0,1.654,0.907,1.654,1.779v1.627c0,0.377,0.018,0.746,0.072,1.042H272.497z
			 M272.38,316.073c-0.863-0.018-1.842,0.135-1.842,0.979c0,0.513,0.341,0.755,0.746,0.755c0.566,0,0.926-0.359,1.051-0.728
			c0.027-0.081,0.045-0.171,0.045-0.252V316.073z"/>
		<path class="st1" d="M274.422,315.3c0-0.513-0.009-0.953-0.036-1.357h0.692l0.027,0.854h0.036
			c0.198-0.584,0.674-0.952,1.205-0.952c0.09,0,0.153,0.009,0.225,0.026v0.746c-0.081-0.018-0.162-0.026-0.27-0.026
			c-0.558,0-0.953,0.422-1.061,1.016c-0.018,0.107-0.036,0.233-0.036,0.368v2.318h-0.782V315.3z"/>
		<path class="st1" d="M277.398,315.3c0-0.513-0.009-0.953-0.036-1.357h0.692l0.027,0.854h0.036
			c0.198-0.584,0.674-0.952,1.205-0.952c0.09,0,0.152,0.009,0.225,0.026v0.746c-0.081-0.018-0.162-0.026-0.27-0.026
			c-0.558,0-0.953,0.422-1.061,1.016c-0.018,0.107-0.036,0.233-0.036,0.368v2.318h-0.782V315.3z"/>
		<path class="st1" d="M280.689,316.261c0.018,1.07,0.701,1.51,1.492,1.51c0.566,0,0.908-0.099,1.204-0.225l0.135,0.566
			c-0.279,0.126-0.755,0.27-1.447,0.27c-1.339,0-2.139-0.881-2.139-2.192c0-1.313,0.773-2.346,2.041-2.346
			c1.42,0,1.797,1.249,1.797,2.049c0,0.162-0.018,0.288-0.027,0.368H280.689z M283.007,315.696c0.009-0.504-0.207-1.286-1.096-1.286
			c-0.8,0-1.15,0.737-1.213,1.286H283.007z"/>
		<path class="st1" d="M284.834,318.292v-3.747h-0.611v-0.603h0.611v-0.207c0-0.611,0.135-1.168,0.503-1.519
			c0.296-0.288,0.692-0.404,1.061-0.404c0.279,0,0.521,0.063,0.674,0.126l-0.107,0.61c-0.117-0.054-0.279-0.099-0.503-0.099
			c-0.674,0-0.845,0.594-0.845,1.259v0.233h1.051v0.603h-1.051v3.747H284.834z"/>
		<path class="st1" d="M291.199,316.081c0,1.609-1.115,2.31-2.166,2.31c-1.178,0-2.085-0.862-2.085-2.237
			c0-1.456,0.953-2.31,2.157-2.31C290.354,313.844,291.199,314.751,291.199,316.081z M287.748,316.126
			c0,0.953,0.548,1.672,1.321,1.672c0.755,0,1.321-0.71,1.321-1.689c0-0.737-0.369-1.672-1.303-1.672S287.748,315.3,287.748,316.126
			z"/>
		<path class="st1" d="M295.839,317.106c0,0.45,0.009,0.846,0.036,1.187h-0.701l-0.045-0.71h-0.018
			c-0.207,0.351-0.665,0.809-1.438,0.809c-0.683,0-1.501-0.377-1.501-1.905v-2.543h0.791v2.408c0,0.827,0.252,1.385,0.971,1.385
			c0.53,0,0.899-0.369,1.042-0.72c0.045-0.116,0.072-0.26,0.072-0.404v-2.669h0.791V317.106z"/>
		<path class="st1" d="M297.153,315.3c0-0.513-0.009-0.953-0.036-1.357h0.692l0.027,0.854h0.036
			c0.198-0.584,0.674-0.952,1.205-0.952c0.09,0,0.153,0.009,0.225,0.026v0.746c-0.081-0.018-0.162-0.026-0.27-0.026
			c-0.558,0-0.953,0.422-1.061,1.016c-0.018,0.107-0.036,0.233-0.036,0.368v2.318h-0.782V315.3z"/>
		<path class="st1" d="M305.756,311.911v5.258c0,0.387,0.009,0.827,0.036,1.123h-0.71l-0.036-0.755h-0.018
			c-0.243,0.485-0.773,0.854-1.483,0.854c-1.052,0-1.861-0.89-1.861-2.21c-0.009-1.447,0.89-2.337,1.951-2.337
			c0.665,0,1.114,0.314,1.312,0.665h0.018v-2.598H305.756z M304.965,315.713c0-0.099-0.009-0.233-0.036-0.333
			c-0.117-0.503-0.548-0.916-1.141-0.916c-0.818,0-1.303,0.719-1.303,1.681c0,0.881,0.431,1.608,1.285,1.608
			c0.53,0,1.016-0.351,1.159-0.943c0.027-0.108,0.036-0.216,0.036-0.342V315.713z"/>
		<path class="st1" d="M307.511,316.261c0.018,1.07,0.701,1.51,1.492,1.51c0.566,0,0.908-0.099,1.204-0.225l0.135,0.566
			c-0.279,0.126-0.755,0.27-1.447,0.27c-1.339,0-2.139-0.881-2.139-2.192c0-1.313,0.773-2.346,2.041-2.346
			c1.42,0,1.797,1.249,1.797,2.049c0,0.162-0.018,0.288-0.027,0.368H307.511z M309.83,315.696c0.009-0.504-0.207-1.286-1.096-1.286
			c-0.8,0-1.15,0.737-1.213,1.286H309.83z"/>
		<path class="st1" d="M313.482,311.911h0.791v6.381h-0.791V311.911z"/>
		<path class="st1" d="M316.655,312.136c-0.207,0.755-0.593,1.717-0.845,2.13l-0.503,0.063c0.198-0.53,0.431-1.465,0.53-2.112
			L316.655,312.136z"/>
		<path class="st1" d="M318.049,312.72c0.009,0.27-0.188,0.485-0.503,0.485c-0.279,0-0.477-0.216-0.477-0.485
			c0-0.278,0.207-0.494,0.495-0.494C317.86,312.226,318.049,312.442,318.049,312.72z M317.169,318.292v-4.35h0.791v4.35H317.169z"/>
		<path class="st1" d="M319.273,315.12c0-0.45-0.009-0.818-0.036-1.178h0.701l0.045,0.719h0.018
			c0.215-0.413,0.719-0.817,1.438-0.817c0.602,0,1.537,0.359,1.537,1.852v2.597h-0.791v-2.507c0-0.701-0.26-1.285-1.006-1.285
			c-0.521,0-0.926,0.368-1.061,0.809c-0.036,0.099-0.054,0.233-0.054,0.368v2.615h-0.791V315.12z"/>
		<path class="st1" d="M324.343,318.292v-3.747h-0.611v-0.603h0.611v-0.207c0-0.611,0.135-1.168,0.503-1.519
			c0.296-0.288,0.692-0.404,1.061-0.404c0.279,0,0.521,0.063,0.674,0.126l-0.107,0.61c-0.117-0.054-0.279-0.099-0.503-0.099
			c-0.674,0-0.845,0.594-0.845,1.259v0.233h1.051v0.603h-1.051v3.747H324.343z"/>
		<path class="st1" d="M330.708,316.081c0,1.609-1.115,2.31-2.166,2.31c-1.178,0-2.085-0.862-2.085-2.237
			c0-1.456,0.953-2.31,2.157-2.31C329.863,313.844,330.708,314.751,330.708,316.081z M327.257,316.126
			c0,0.953,0.548,1.672,1.321,1.672c0.755,0,1.321-0.71,1.321-1.689c0-0.737-0.369-1.672-1.303-1.672S327.257,315.3,327.257,316.126
			z"/>
		<path class="st1" d="M331.708,315.3c0-0.513-0.009-0.953-0.036-1.357h0.692l0.027,0.854h0.036
			c0.198-0.584,0.674-0.952,1.205-0.952c0.09,0,0.153,0.009,0.225,0.026v0.746c-0.081-0.018-0.162-0.026-0.27-0.026
			c-0.558,0-0.953,0.422-1.061,1.016c-0.018,0.107-0.036,0.233-0.036,0.368v2.318h-0.782V315.3z"/>
		<path class="st1" d="M334.685,315.12c0-0.45-0.009-0.818-0.036-1.178h0.692l0.036,0.701h0.027c0.243-0.414,0.647-0.8,1.366-0.8
			c0.593,0,1.042,0.359,1.231,0.871h0.018c0.135-0.242,0.306-0.431,0.485-0.565c0.261-0.198,0.548-0.306,0.962-0.306
			c0.575,0,1.429,0.377,1.429,1.887v2.562h-0.773v-2.462c0-0.836-0.305-1.34-0.943-1.34c-0.45,0-0.8,0.333-0.935,0.72
			c-0.036,0.107-0.063,0.251-0.063,0.396v2.687h-0.773v-2.606c0-0.691-0.306-1.195-0.908-1.195c-0.495,0-0.854,0.396-0.98,0.791
			c-0.045,0.117-0.063,0.252-0.063,0.387v2.624h-0.773V315.12z"/>
		<path class="st1" d="M344.592,318.292l-0.063-0.548h-0.027c-0.242,0.342-0.71,0.646-1.33,0.646c-0.88,0-1.33-0.62-1.33-1.249
			c0-1.052,0.935-1.627,2.615-1.617v-0.09c0-0.359-0.099-1.007-0.988-1.007c-0.405,0-0.827,0.126-1.132,0.323l-0.18-0.521
			c0.36-0.233,0.881-0.386,1.429-0.386c1.33,0,1.654,0.907,1.654,1.779v1.627c0,0.377,0.018,0.746,0.072,1.042H344.592z
			 M344.475,316.073c-0.863-0.018-1.842,0.135-1.842,0.979c0,0.513,0.341,0.755,0.746,0.755c0.566,0,0.926-0.359,1.051-0.728
			c0.027-0.081,0.045-0.171,0.045-0.252V316.073z"/>
		<path class="st1" d="M347.434,312.694v1.249h1.132v0.603h-1.132v2.346c0,0.539,0.153,0.845,0.593,0.845
			c0.207,0,0.359-0.027,0.458-0.055l0.036,0.594c-0.153,0.063-0.396,0.107-0.701,0.107c-0.368,0-0.665-0.116-0.854-0.332
			c-0.225-0.234-0.306-0.62-0.306-1.133v-2.372h-0.674v-0.603h0.674V312.9L347.434,312.694z"/>
		<path class="st1" d="M350.339,312.72c0.009,0.27-0.188,0.485-0.503,0.485c-0.279,0-0.477-0.216-0.477-0.485
			c0-0.278,0.207-0.494,0.495-0.494C350.15,312.226,350.339,312.442,350.339,312.72z M349.458,318.292v-4.35h0.791v4.35H349.458z"/>
		<path class="st1" d="M355.499,316.081c0,1.609-1.115,2.31-2.166,2.31c-1.178,0-2.085-0.862-2.085-2.237
			c0-1.456,0.953-2.31,2.157-2.31C354.653,313.844,355.499,314.751,355.499,316.081z M352.047,316.126
			c0,0.953,0.548,1.672,1.321,1.672c0.755,0,1.321-0.71,1.321-1.689c0-0.737-0.369-1.672-1.303-1.672S352.047,315.3,352.047,316.126
			z"/>
		<path class="st1" d="M356.499,315.12c0-0.45-0.009-0.818-0.036-1.178h0.701l0.045,0.719h0.018
			c0.215-0.413,0.719-0.817,1.438-0.817c0.602,0,1.537,0.359,1.537,1.852v2.597h-0.791v-2.507c0-0.701-0.261-1.285-1.006-1.285
			c-0.521,0-0.926,0.368-1.061,0.809c-0.036,0.099-0.054,0.233-0.054,0.368v2.615h-0.791V315.12z"/>
		<path class="st1" d="M288.251,322.845c-0.656,0.881-1.132,2.05-1.132,3.676c0,1.601,0.494,2.751,1.132,3.649h-0.62
			c-0.566-0.746-1.177-1.896-1.177-3.649c0.009-1.771,0.611-2.921,1.177-3.676H288.251z"/>
		<path class="st1" d="M289.115,323.106c0.341-0.071,0.881-0.126,1.429-0.126c0.782,0,1.286,0.135,1.663,0.44
			c0.314,0.234,0.503,0.594,0.503,1.069c0,0.585-0.386,1.097-1.024,1.331v0.018c0.575,0.144,1.25,0.62,1.25,1.519
			c0,0.521-0.207,0.917-0.513,1.214c-0.422,0.386-1.105,0.565-2.094,0.565c-0.54,0-0.953-0.035-1.213-0.071V323.106z
			 M289.897,325.586h0.71c0.827,0,1.313-0.432,1.313-1.016c0-0.71-0.54-0.988-1.33-0.988c-0.36,0-0.566,0.027-0.692,0.054V325.586z
			 M289.897,328.49c0.153,0.026,0.377,0.036,0.656,0.036c0.809,0,1.555-0.297,1.555-1.178c0-0.827-0.71-1.168-1.564-1.168h-0.647
			V328.49z"/>
		<path class="st1" d="M294.842,323.51c0.009,0.27-0.188,0.485-0.503,0.485c-0.279,0-0.477-0.216-0.477-0.485
			c0-0.278,0.207-0.494,0.495-0.494C294.653,323.016,294.842,323.232,294.842,323.51z M293.962,329.082v-4.35h0.791v4.35H293.962z"
			/>
		<path class="st1" d="M296.029,329.082c0.018-0.296,0.036-0.736,0.036-1.123v-5.258h0.782v2.732h0.018
			c0.278-0.485,0.782-0.8,1.483-0.8c1.079,0,1.842,0.898,1.833,2.22c0,1.555-0.98,2.327-1.95,2.327
			c-0.629,0-1.133-0.242-1.456-0.817h-0.027l-0.036,0.719H296.029z M296.847,327.339c0,0.099,0.018,0.197,0.036,0.287
			c0.153,0.549,0.611,0.926,1.186,0.926c0.827,0,1.321-0.674,1.321-1.672c0-0.871-0.449-1.617-1.294-1.617
			c-0.539,0-1.042,0.368-1.204,0.971c-0.018,0.09-0.045,0.197-0.045,0.323V327.339z"/>
		<path class="st1" d="M301.182,322.701h0.791v6.381h-0.791V322.701z"/>
		<path class="st1" d="M304.184,323.51c0.009,0.27-0.188,0.485-0.503,0.485c-0.279,0-0.477-0.216-0.477-0.485
			c0-0.278,0.207-0.494,0.495-0.494C303.996,323.016,304.184,323.232,304.184,323.51z M303.304,329.082v-4.35h0.791v4.35H303.304z"
			/>
		<path class="st1" d="M309.344,326.871c0,1.609-1.115,2.31-2.166,2.31c-1.178,0-2.085-0.862-2.085-2.237
			c0-1.456,0.953-2.31,2.157-2.31C308.499,324.634,309.344,325.541,309.344,326.871z M305.893,326.916
			c0,0.953,0.548,1.672,1.321,1.672c0.755,0,1.321-0.71,1.321-1.689c0-0.737-0.369-1.672-1.303-1.672
			S305.893,326.09,305.893,326.916z"/>
		<path class="st1" d="M311.297,323.484v1.249h1.132v0.603h-1.132v2.346c0,0.539,0.153,0.845,0.593,0.845
			c0.207,0,0.359-0.027,0.458-0.055l0.036,0.594c-0.153,0.063-0.396,0.107-0.701,0.107c-0.368,0-0.665-0.116-0.854-0.332
			c-0.225-0.234-0.306-0.62-0.306-1.133v-2.372h-0.674v-0.603h0.674v-1.043L311.297,323.484z"/>
		<path class="st1" d="M313.32,322.701h0.791v2.714h0.018c0.126-0.225,0.324-0.422,0.566-0.557c0.233-0.135,0.512-0.225,0.809-0.225
			c0.584,0,1.519,0.359,1.519,1.86v2.588h-0.791v-2.498c0-0.701-0.26-1.294-1.006-1.294c-0.512,0-0.917,0.359-1.061,0.79
			c-0.045,0.108-0.054,0.225-0.054,0.378v2.624h-0.791V322.701z"/>
		<path class="st1" d="M318.751,327.051c0.018,1.07,0.701,1.51,1.492,1.51c0.566,0,0.908-0.099,1.204-0.225l0.135,0.566
			c-0.279,0.126-0.755,0.27-1.447,0.27c-1.339,0-2.139-0.881-2.139-2.192c0-1.313,0.773-2.346,2.041-2.346
			c1.42,0,1.797,1.249,1.797,2.049c0,0.162-0.018,0.288-0.027,0.368H318.751z M321.069,326.486c0.009-0.504-0.207-1.286-1.096-1.286
			c-0.8,0-1.15,0.737-1.213,1.286H321.069z M319.739,322.854l0.791,1.286h-0.566l-1.096-1.286H319.739z"/>
		<path class="st1" d="M325.781,328.408h-0.018c-0.234,0.432-0.719,0.772-1.42,0.772c-1.016,0-1.843-0.88-1.843-2.201
			c0-1.627,1.052-2.346,1.968-2.346c0.674,0,1.124,0.332,1.339,0.755h0.018l0.027-0.656h0.746c-0.018,0.368-0.027,0.746-0.027,1.195
			v4.934h-0.791V328.408z M325.781,326.494c0-0.108-0.009-0.234-0.036-0.333c-0.117-0.485-0.539-0.898-1.132-0.898
			c-0.818,0-1.312,0.692-1.312,1.672c0,0.862,0.413,1.617,1.285,1.617c0.512,0,0.953-0.314,1.132-0.862
			c0.036-0.108,0.063-0.261,0.063-0.378V326.494z"/>
		<path class="st1" d="M331.518,327.896c0,0.45,0.009,0.846,0.036,1.187h-0.701l-0.045-0.71h-0.018
			c-0.207,0.351-0.665,0.809-1.438,0.809c-0.683,0-1.501-0.377-1.501-1.905v-2.543h0.791v2.408c0,0.827,0.252,1.385,0.971,1.385
			c0.53,0,0.899-0.369,1.042-0.72c0.045-0.116,0.072-0.26,0.072-0.404v-2.669h0.791V327.896z"/>
		<path class="st1" d="M333.273,327.051c0.018,1.07,0.701,1.51,1.492,1.51c0.566,0,0.908-0.099,1.204-0.225l0.135,0.566
			c-0.279,0.126-0.755,0.27-1.447,0.27c-1.339,0-2.139-0.881-2.139-2.192c0-1.313,0.773-2.346,2.041-2.346
			c1.42,0,1.797,1.249,1.797,2.049c0,0.162-0.018,0.288-0.027,0.368H333.273z M335.591,326.486c0.009-0.504-0.207-1.286-1.096-1.286
			c-0.8,0-1.15,0.737-1.213,1.286H335.591z"/>
		<path class="st1" d="M336.861,330.17c0.638-0.89,1.132-2.059,1.132-3.676c0-1.609-0.485-2.76-1.132-3.649h0.611
			c0.575,0.737,1.177,1.888,1.177,3.658c0,1.762-0.602,2.903-1.177,3.667H336.861z"/>
	</g>
</g>
<g>
	<path class="st0" d="M444.988,375.932h-99.812c-1.388,0-2.513-1.125-2.513-2.513v-11.271c0-1.388,1.125-2.513,2.513-2.513h99.812
		c1.388,0,2.513,1.125,2.513,2.513v11.271C447.501,374.807,446.376,375.932,444.988,375.932z"/>
	<g>
		<path class="st1" d="M359.976,369.47c0.351,0.216,0.863,0.396,1.402,0.396c0.8,0,1.268-0.423,1.268-1.034
			c0-0.566-0.324-0.889-1.142-1.203c-0.989-0.352-1.6-0.863-1.6-1.717c0-0.944,0.782-1.645,1.959-1.645
			c0.62,0,1.07,0.143,1.339,0.296l-0.216,0.638c-0.198-0.107-0.602-0.287-1.15-0.287c-0.827,0-1.142,0.494-1.142,0.908
			c0,0.566,0.369,0.844,1.205,1.168c1.024,0.396,1.546,0.89,1.546,1.779c0,0.936-0.692,1.744-2.121,1.744
			c-0.584,0-1.222-0.172-1.546-0.387L359.976,369.47z"/>
		<path class="st1" d="M364.984,368.392c0.018,1.069,0.701,1.51,1.492,1.51c0.566,0,0.908-0.1,1.204-0.225l0.135,0.566
			c-0.279,0.125-0.755,0.27-1.447,0.27c-1.339,0-2.139-0.881-2.139-2.193s0.773-2.346,2.041-2.346c1.42,0,1.797,1.249,1.797,2.049
			c0,0.162-0.018,0.288-0.027,0.369H364.984z M367.303,367.825c0.009-0.504-0.207-1.285-1.096-1.285c-0.8,0-1.15,0.736-1.213,1.285
			H367.303z"/>
		<path class="st1" d="M369.049,367.43c0-0.513-0.009-0.952-0.036-1.357h0.692l0.027,0.854h0.036
			c0.198-0.584,0.674-0.953,1.205-0.953c0.09,0,0.152,0.009,0.225,0.027v0.746c-0.081-0.019-0.162-0.027-0.27-0.027
			c-0.558,0-0.953,0.422-1.061,1.016c-0.018,0.107-0.036,0.233-0.036,0.368v2.319h-0.782V367.43z"/>
		<path class="st1" d="M372.519,366.073l0.854,2.444c0.144,0.396,0.261,0.756,0.351,1.115h0.027
			c0.099-0.359,0.225-0.719,0.369-1.115l0.845-2.444h0.827l-1.708,4.351h-0.755l-1.654-4.351H372.519z"/>
		<path class="st1" d="M377.419,364.851c0.009,0.27-0.188,0.484-0.503,0.484c-0.279,0-0.477-0.215-0.477-0.484
			c0-0.279,0.207-0.494,0.495-0.494C377.231,364.357,377.419,364.572,377.419,364.851z M376.539,370.423v-4.351h0.791v4.351H376.539
			z"/>
		<path class="st1" d="M381.744,370.261c-0.207,0.107-0.665,0.252-1.25,0.252c-1.312,0-2.166-0.891-2.166-2.221
			c0-1.339,0.917-2.31,2.337-2.31c0.467,0,0.881,0.117,1.097,0.225l-0.18,0.611c-0.188-0.108-0.485-0.206-0.917-0.206
			c-0.998,0-1.537,0.736-1.537,1.645c0,1.006,0.647,1.627,1.51,1.627c0.449,0,0.746-0.117,0.971-0.217L381.744,370.261z"/>
		<path class="st1" d="M383.058,368.392c0.018,1.069,0.701,1.51,1.492,1.51c0.566,0,0.908-0.1,1.204-0.225l0.135,0.566
			c-0.279,0.125-0.755,0.27-1.447,0.27c-1.339,0-2.139-0.881-2.139-2.193s0.773-2.346,2.041-2.346c1.42,0,1.797,1.249,1.797,2.049
			c0,0.162-0.018,0.288-0.027,0.369H383.058z M385.376,367.825c0.009-0.504-0.207-1.285-1.096-1.285c-0.8,0-1.15,0.736-1.213,1.285
			H385.376z"/>
		<path class="st1" d="M391.437,370.423l-0.063-0.549h-0.027c-0.243,0.342-0.71,0.646-1.33,0.646c-0.88,0-1.33-0.619-1.33-1.248
			c0-1.053,0.935-1.627,2.615-1.618v-0.09c0-0.359-0.099-1.007-0.988-1.007c-0.405,0-0.827,0.126-1.132,0.324l-0.18-0.521
			c0.36-0.234,0.881-0.387,1.429-0.387c1.33,0,1.654,0.908,1.654,1.779v1.627c0,0.377,0.018,0.746,0.072,1.043H391.437z
			 M391.32,368.202c-0.863-0.018-1.842,0.135-1.842,0.98c0,0.512,0.341,0.754,0.746,0.754c0.566,0,0.926-0.359,1.051-0.728
			c0.027-0.081,0.045-0.171,0.045-0.251V368.202z"/>
		<path class="st1" d="M397.002,369.236c0,0.45,0.009,0.846,0.036,1.188h-0.701l-0.045-0.711h-0.018
			c-0.207,0.352-0.665,0.809-1.438,0.809c-0.683,0-1.501-0.377-1.501-1.904v-2.544h0.791v2.409c0,0.826,0.252,1.384,0.971,1.384
			c0.53,0,0.899-0.368,1.042-0.72c0.045-0.116,0.072-0.26,0.072-0.404v-2.669h0.791V369.236z"/>
		<path class="st1" d="M402.073,364.042v5.257c0,0.387,0.009,0.827,0.036,1.124h-0.71l-0.036-0.756h-0.018
			c-0.243,0.486-0.773,0.854-1.483,0.854c-1.052,0-1.861-0.889-1.861-2.21c-0.009-1.447,0.89-2.337,1.951-2.337
			c0.665,0,1.114,0.314,1.312,0.665h0.018v-2.597H402.073z M401.283,367.843c0-0.099-0.009-0.233-0.036-0.332
			c-0.117-0.504-0.548-0.917-1.142-0.917c-0.817,0-1.303,0.719-1.303,1.681c0,0.881,0.431,1.609,1.285,1.609
			c0.53,0,1.016-0.352,1.159-0.944c0.027-0.108,0.036-0.216,0.036-0.341V367.843z"/>
		<path class="st1" d="M404.269,364.851c0.009,0.27-0.188,0.484-0.503,0.484c-0.279,0-0.477-0.215-0.477-0.484
			c0-0.279,0.207-0.494,0.495-0.494C404.08,364.357,404.269,364.572,404.269,364.851z M403.388,370.423v-4.351h0.791v4.351H403.388z
			"/>
		<path class="st1" d="M409.429,368.212c0,1.608-1.115,2.309-2.166,2.309c-1.178,0-2.085-0.862-2.085-2.237
			c0-1.456,0.953-2.31,2.157-2.31C408.584,365.974,409.429,366.882,409.429,368.212z M405.978,368.257
			c0,0.952,0.548,1.672,1.321,1.672c0.755,0,1.321-0.711,1.321-1.69c0-0.737-0.369-1.671-1.303-1.671
			S405.978,367.43,405.978,368.257z"/>
		<path class="st1" d="M410.671,366.073l0.854,2.444c0.144,0.396,0.261,0.756,0.351,1.115h0.027
			c0.099-0.359,0.225-0.719,0.369-1.115l0.845-2.444h0.827l-1.708,4.351h-0.755l-1.654-4.351H410.671z"/>
		<path class="st1" d="M415.571,364.851c0.009,0.27-0.188,0.484-0.503,0.484c-0.279,0-0.477-0.215-0.477-0.484
			c0-0.279,0.207-0.494,0.495-0.494C415.383,364.357,415.571,364.572,415.571,364.851z M414.691,370.423v-4.351h0.791v4.351H414.691
			z"/>
		<path class="st1" d="M416.688,369.614c0.233,0.153,0.646,0.315,1.042,0.315c0.575,0,0.845-0.288,0.845-0.648
			c0-0.377-0.225-0.584-0.809-0.799c-0.782-0.279-1.15-0.711-1.15-1.231c0-0.701,0.566-1.276,1.501-1.276
			c0.44,0,0.827,0.126,1.069,0.27l-0.197,0.575c-0.171-0.108-0.485-0.251-0.89-0.251c-0.468,0-0.729,0.27-0.729,0.593
			c0,0.359,0.261,0.521,0.827,0.737c0.755,0.287,1.142,0.664,1.142,1.312c0,0.765-0.594,1.304-1.627,1.304
			c-0.477,0-0.917-0.117-1.223-0.297L416.688,369.614z"/>
		<path class="st1" d="M423.995,369.236c0,0.45,0.01,0.846,0.036,1.188h-0.701l-0.045-0.711h-0.018
			c-0.207,0.352-0.665,0.809-1.438,0.809c-0.683,0-1.501-0.377-1.501-1.904v-2.544h0.791v2.409c0,0.826,0.252,1.384,0.971,1.384
			c0.53,0,0.899-0.368,1.043-0.72c0.045-0.116,0.071-0.26,0.071-0.404v-2.669h0.791V369.236z"/>
		<path class="st1" d="M425.751,368.392c0.018,1.069,0.7,1.51,1.491,1.51c0.566,0,0.908-0.1,1.204-0.225l0.136,0.566
			c-0.279,0.125-0.756,0.27-1.447,0.27c-1.339,0-2.14-0.881-2.14-2.193s0.773-2.346,2.041-2.346c1.42,0,1.797,1.249,1.797,2.049
			c0,0.162-0.018,0.288-0.026,0.369H425.751z M428.069,367.825c0.009-0.504-0.207-1.285-1.097-1.285c-0.8,0-1.15,0.736-1.213,1.285
			H428.069z"/>
		<path class="st1" d="M429.816,364.042h0.79v6.381h-0.79V364.042z"/>
	</g>
</g>
<g>
	<path class="st0" d="M237.246,286.788H124.434c-1.388,0-2.513-1.125-2.513-2.513v-11.271c0-1.388,1.125-2.513,2.513-2.513h112.812
		c1.388,0,2.513,1.125,2.513,2.513v11.271C239.76,285.662,238.634,286.788,237.246,286.788z"/>
	<g>
		<path class="st1" d="M131.313,275.302c0.476-0.072,1.042-0.126,1.663-0.126c1.124,0,1.923,0.261,2.454,0.755
			c0.539,0.495,0.854,1.195,0.854,2.175c0,0.988-0.306,1.797-0.872,2.354c-0.566,0.566-1.501,0.871-2.678,0.871
			c-0.557,0-1.024-0.026-1.42-0.071V275.302z M132.095,280.657c0.198,0.036,0.485,0.045,0.791,0.045c1.672,0,2.58-0.935,2.58-2.57
			c0.009-1.429-0.8-2.336-2.454-2.336c-0.405,0-0.71,0.036-0.917,0.081V280.657z"/>
		<path class="st1" d="M137.193,280.325c0.351,0.216,0.863,0.396,1.402,0.396c0.8,0,1.268-0.423,1.268-1.034
			c0-0.566-0.324-0.89-1.142-1.204c-0.989-0.351-1.6-0.862-1.6-1.716c0-0.944,0.782-1.645,1.959-1.645
			c0.62,0,1.07,0.144,1.339,0.296l-0.216,0.638c-0.198-0.108-0.602-0.288-1.15-0.288c-0.827,0-1.142,0.494-1.142,0.908
			c0,0.566,0.369,0.844,1.205,1.168c1.024,0.396,1.546,0.89,1.546,1.779c0,0.935-0.692,1.743-2.121,1.743
			c-0.584,0-1.222-0.171-1.546-0.386L137.193,280.325z"/>
		<path class="st1" d="M142.885,275.885h-1.842v-0.665h4.484v0.665h-1.851v5.392h-0.791V275.885z"/>
		<path class="st1" d="M146.985,275.22v6.057h-0.782v-6.057H146.985z"/>
		<path class="st1" d="M151.948,275.041c-0.656,0.881-1.132,2.049-1.132,3.675c0,1.601,0.494,2.751,1.132,3.649h-0.62
			c-0.566-0.746-1.177-1.896-1.177-3.649c0.009-1.771,0.611-2.92,1.177-3.675H151.948z"/>
		<path class="st1" d="M152.704,280.325c0.351,0.216,0.863,0.396,1.402,0.396c0.8,0,1.268-0.423,1.268-1.034
			c0-0.566-0.324-0.89-1.142-1.204c-0.989-0.351-1.6-0.862-1.6-1.716c0-0.944,0.782-1.645,1.959-1.645
			c0.62,0,1.07,0.144,1.339,0.296l-0.216,0.638c-0.198-0.108-0.602-0.288-1.15-0.288c-0.827,0-1.142,0.494-1.142,0.908
			c0,0.566,0.369,0.844,1.205,1.168c1.024,0.396,1.546,0.89,1.546,1.779c0,0.935-0.692,1.743-2.121,1.743
			c-0.584,0-1.222-0.171-1.546-0.386L152.704,280.325z"/>
		<path class="st1" d="M157.713,279.246c0.018,1.07,0.701,1.51,1.492,1.51c0.566,0,0.908-0.099,1.204-0.225l0.135,0.566
			c-0.279,0.126-0.755,0.27-1.447,0.27c-1.339,0-2.139-0.881-2.139-2.192c0-1.313,0.773-2.346,2.041-2.346
			c1.42,0,1.797,1.249,1.797,2.049c0,0.162-0.018,0.288-0.027,0.368H157.713z M160.031,278.681c0.009-0.504-0.207-1.286-1.096-1.286
			c-0.8,0-1.15,0.737-1.213,1.286H160.031z"/>
		<path class="st1" d="M161.777,278.285c0-0.513-0.009-0.953-0.036-1.357h0.692l0.027,0.854h0.036
			c0.198-0.584,0.674-0.952,1.205-0.952c0.09,0,0.152,0.009,0.225,0.027v0.746c-0.081-0.018-0.162-0.026-0.27-0.026
			c-0.558,0-0.953,0.422-1.061,1.016c-0.018,0.107-0.036,0.233-0.036,0.368v2.318h-0.782V278.285z"/>
		<path class="st1" d="M165.247,276.928l0.854,2.444c0.144,0.396,0.261,0.755,0.351,1.114h0.027
			c0.099-0.359,0.225-0.719,0.369-1.114l0.845-2.444h0.827l-1.708,4.35h-0.755l-1.654-4.35H165.247z"/>
		<path class="st1" d="M170.148,275.706c0.009,0.27-0.188,0.485-0.503,0.485c-0.279,0-0.477-0.216-0.477-0.485
			c0-0.278,0.207-0.494,0.495-0.494C169.959,275.212,170.148,275.427,170.148,275.706z M169.267,281.278v-4.35h0.791v4.35H169.267z"
			/>
		<path class="st1" d="M174.472,281.116c-0.207,0.107-0.665,0.251-1.25,0.251c-1.312,0-2.166-0.89-2.166-2.22
			c0-1.339,0.917-2.31,2.337-2.31c0.467,0,0.881,0.117,1.097,0.225l-0.18,0.611c-0.188-0.108-0.485-0.207-0.917-0.207
			c-0.998,0-1.537,0.737-1.537,1.645c0,1.007,0.647,1.627,1.51,1.627c0.449,0,0.746-0.117,0.971-0.216L174.472,281.116z"/>
		<path class="st1" d="M175.786,279.246c0.018,1.07,0.701,1.51,1.492,1.51c0.566,0,0.908-0.099,1.204-0.225l0.135,0.566
			c-0.279,0.126-0.755,0.27-1.447,0.27c-1.339,0-2.139-0.881-2.139-2.192c0-1.313,0.773-2.346,2.041-2.346
			c1.42,0,1.797,1.249,1.797,2.049c0,0.162-0.018,0.288-0.027,0.368H175.786z M178.104,278.681c0.009-0.504-0.207-1.286-1.096-1.286
			c-0.8,0-1.15,0.737-1.213,1.286H178.104z"/>
		<path class="st1" d="M182.637,275.706c0.009,0.27-0.188,0.485-0.503,0.485c-0.279,0-0.477-0.216-0.477-0.485
			c0-0.278,0.207-0.494,0.495-0.494C182.448,275.212,182.637,275.427,182.637,275.706z M181.756,281.278v-4.35h0.791v4.35H181.756z"
			/>
		<path class="st1" d="M183.86,278.106c0-0.45-0.009-0.818-0.036-1.178h0.701l0.045,0.719h0.018
			c0.215-0.413,0.719-0.817,1.438-0.817c0.602,0,1.537,0.359,1.537,1.852v2.597h-0.791v-2.507c0-0.701-0.26-1.285-1.006-1.285
			c-0.521,0-0.926,0.368-1.061,0.809c-0.036,0.099-0.054,0.233-0.054,0.368v2.615h-0.791V278.106z"/>
		<path class="st1" d="M188.931,281.278v-3.747h-0.611v-0.603h0.611v-0.207c0-0.611,0.135-1.168,0.503-1.519
			c0.296-0.288,0.692-0.404,1.061-0.404c0.279,0,0.521,0.063,0.674,0.126l-0.107,0.611c-0.117-0.054-0.279-0.099-0.503-0.099
			c-0.674,0-0.845,0.593-0.845,1.258v0.233h1.051v0.603h-1.051v3.747H188.931z"/>
		<path class="st1" d="M195.296,279.067c0,1.609-1.115,2.31-2.166,2.31c-1.178,0-2.085-0.862-2.085-2.237
			c0-1.456,0.953-2.31,2.157-2.31C194.451,276.829,195.296,277.737,195.296,279.067z M191.845,279.112
			c0,0.953,0.548,1.672,1.321,1.672c0.755,0,1.321-0.71,1.321-1.689c0-0.737-0.369-1.672-1.303-1.672
			S191.845,278.285,191.845,279.112z"/>
		<path class="st1" d="M196.296,278.285c0-0.513-0.009-0.953-0.036-1.357h0.692l0.027,0.854h0.036
			c0.198-0.584,0.674-0.952,1.205-0.952c0.09,0,0.153,0.009,0.225,0.027v0.746c-0.081-0.018-0.162-0.026-0.27-0.026
			c-0.558,0-0.953,0.422-1.061,1.016c-0.018,0.107-0.036,0.233-0.036,0.368v2.318h-0.782V278.285z"/>
		<path class="st1" d="M199.273,278.106c0-0.45-0.009-0.818-0.036-1.178h0.692l0.036,0.701h0.027c0.243-0.414,0.647-0.8,1.366-0.8
			c0.593,0,1.042,0.359,1.231,0.871h0.018c0.135-0.242,0.306-0.431,0.485-0.565c0.261-0.198,0.548-0.306,0.962-0.306
			c0.575,0,1.429,0.377,1.429,1.887v2.562h-0.773v-2.462c0-0.836-0.305-1.34-0.943-1.34c-0.45,0-0.8,0.333-0.935,0.72
			c-0.036,0.107-0.063,0.251-0.063,0.396v2.687h-0.773v-2.606c0-0.691-0.306-1.195-0.908-1.195c-0.495,0-0.854,0.396-0.98,0.791
			c-0.045,0.117-0.063,0.252-0.063,0.387v2.624h-0.773V278.106z"/>
		<path class="st1" d="M209.18,281.278l-0.063-0.548h-0.027c-0.242,0.342-0.71,0.646-1.33,0.646c-0.88,0-1.33-0.62-1.33-1.249
			c0-1.052,0.935-1.627,2.615-1.617v-0.09c0-0.359-0.099-1.007-0.988-1.007c-0.405,0-0.827,0.126-1.132,0.323l-0.18-0.521
			c0.36-0.233,0.881-0.386,1.429-0.386c1.33,0,1.654,0.907,1.654,1.779v1.627c0,0.377,0.018,0.746,0.072,1.042H209.18z
			 M209.063,279.058c-0.863-0.018-1.842,0.135-1.842,0.979c0,0.513,0.341,0.755,0.746,0.755c0.566,0,0.926-0.359,1.051-0.728
			c0.027-0.081,0.045-0.171,0.045-0.252V279.058z"/>
		<path class="st1" d="M212.022,275.679v1.249h1.132v0.603h-1.132v2.346c0,0.539,0.153,0.845,0.593,0.845
			c0.207,0,0.359-0.027,0.458-0.055l0.036,0.594c-0.153,0.063-0.396,0.107-0.701,0.107c-0.368,0-0.665-0.116-0.854-0.332
			c-0.225-0.234-0.306-0.62-0.306-1.133v-2.372h-0.674v-0.603h0.674v-1.042L212.022,275.679z"/>
		<path class="st1" d="M214.926,275.706c0.009,0.27-0.188,0.485-0.503,0.485c-0.279,0-0.477-0.216-0.477-0.485
			c0-0.278,0.207-0.494,0.495-0.494C214.738,275.212,214.926,275.427,214.926,275.706z M214.046,281.278v-4.35h0.791v4.35H214.046z"
			/>
		<path class="st1" d="M219.116,280.604h-0.018c-0.234,0.432-0.719,0.772-1.42,0.772c-1.016,0-1.843-0.88-1.843-2.201
			c0-1.627,1.052-2.346,1.968-2.346c0.674,0,1.124,0.332,1.339,0.755h0.018l0.027-0.656h0.746c-0.018,0.368-0.027,0.746-0.027,1.195
			v4.934h-0.791V280.604z M219.116,278.69c0-0.108-0.009-0.234-0.036-0.333c-0.117-0.485-0.539-0.898-1.132-0.898
			c-0.818,0-1.312,0.692-1.312,1.672c0,0.862,0.413,1.617,1.285,1.617c0.512,0,0.953-0.314,1.132-0.862
			c0.036-0.108,0.063-0.261,0.063-0.378V278.69z"/>
		<path class="st1" d="M224.852,280.091c0,0.45,0.009,0.846,0.036,1.187h-0.701l-0.045-0.71h-0.018
			c-0.207,0.351-0.665,0.809-1.438,0.809c-0.683,0-1.501-0.377-1.501-1.905v-2.543h0.791v2.408c0,0.827,0.252,1.385,0.971,1.385
			c0.53,0,0.899-0.369,1.042-0.72c0.045-0.116,0.072-0.26,0.072-0.404v-2.669h0.791V280.091z"/>
		<path class="st1" d="M226.607,279.246c0.018,1.07,0.701,1.51,1.492,1.51c0.566,0,0.908-0.099,1.204-0.225l0.135,0.566
			c-0.279,0.126-0.755,0.27-1.447,0.27c-1.339,0-2.139-0.881-2.139-2.192c0-1.313,0.773-2.346,2.041-2.346
			c1.42,0,1.797,1.249,1.797,2.049c0,0.162-0.018,0.288-0.027,0.368H226.607z M228.925,278.681c0.009-0.504-0.207-1.286-1.096-1.286
			c-0.8,0-1.15,0.737-1.213,1.286H228.925z"/>
		<path class="st1" d="M230.195,282.365c0.638-0.89,1.132-2.059,1.132-3.676c0-1.609-0.485-2.759-1.132-3.649h0.611
			c0.575,0.737,1.177,1.887,1.177,3.658c0,1.762-0.602,2.903-1.177,3.667H230.195z"/>
	</g>
</g>
</svg>
