<?xml version="1.0" encoding="utf-8"?>
<!-- Generator: Adobe Illustrator 19.0.1, SVG Export Plug-In . SVG Version: 6.00 Build 0)  -->
<svg version="1.1" id="icones" xmlns="http://www.w3.org/2000/svg" xmlns:xlink="http://www.w3.org/1999/xlink" x="0px" y="0px"
	 width="761.962px" height="716.964px" viewBox="0 0 761.962 716.964" style="enable-background:new 0 0 761.962 716.964;"
	 xml:space="preserve">
<style type="text/css">
	.st0{fill:#1D1D1B;}
	.st1{fill:#FFFFFF;}
</style>
<g>
	<g>
		<path class="st0" d="M197.733,484.112h-7.594c-1.034,0-1.872-0.838-1.872-1.872v-7.594c0-1.034,0.838-1.872,1.872-1.872h7.594
			c1.034,0,1.872,0.838,1.872,1.872v7.594C199.605,483.274,198.767,484.112,197.733,484.112z"/>
		<g>
			<path class="st1" d="M192.467,483.034h-2.058c-0.517,0-0.936-0.419-0.936-0.936v-7.311c0-0.517,0.419-0.936,0.936-0.936h2.058
				c0.517,0,0.936,0.419,0.936,0.936v7.311C193.403,482.615,192.984,483.034,192.467,483.034z"/>
			<path class="st1" d="M197.463,483.034h-2.058c-0.517,0-0.936-0.419-0.936-0.936v-7.311c0-0.517,0.419-0.936,0.936-0.936h2.058
				c0.517,0,0.936,0.419,0.936,0.936v7.311C198.399,482.615,197.98,483.034,197.463,483.034z"/>
		</g>
	</g>
	<path class="st0" d="M192.921,477.78l-1.444-1.444c-0.061-0.061-0.159-0.061-0.22,0l-1.444,1.444
		c-0.098,0.098-0.029,0.265,0.11,0.265h0.849v2.19c0,0.199,0.161,0.36,0.36,0.36h0.471c0.199,0,0.36-0.161,0.36-0.36v-2.19h0.849
		C192.95,478.046,193.019,477.878,192.921,477.78z"/>
	<path class="st0" d="M194.88,479.105l1.444,1.444c0.061,0.061,0.159,0.061,0.22,0l1.444-1.444c0.098-0.098,0.029-0.265-0.11-0.265
		h-0.849v-2.19c0-0.199-0.161-0.36-0.36-0.36h-0.471c-0.199,0-0.36,0.161-0.36,0.36v2.19h-0.849
		C194.851,478.84,194.782,479.008,194.88,479.105z"/>
</g>
<g>
	<g>
		<path class="st0" d="M531.269,325.146h-7.594c-1.034,0-1.872-0.838-1.872-1.872v-7.594c0-1.034,0.838-1.872,1.872-1.872h7.594
			c1.034,0,1.872,0.838,1.872,1.872v7.594C533.141,324.307,532.302,325.146,531.269,325.146z"/>
		<g>
			<path class="st1" d="M526.002,324.068h-2.058c-0.517,0-0.936-0.419-0.936-0.936v-7.311c0-0.517,0.419-0.936,0.936-0.936h2.058
				c0.517,0,0.936,0.419,0.936,0.936v7.311C526.938,323.648,526.519,324.068,526.002,324.068z"/>
			<path class="st1" d="M530.999,324.068h-2.058c-0.517,0-0.936-0.419-0.936-0.936v-7.311c0-0.517,0.419-0.936,0.936-0.936h2.058
				c0.517,0,0.936,0.419,0.936,0.936v7.311C531.935,323.648,531.516,324.068,530.999,324.068z"/>
		</g>
	</g>
	<path class="st0" d="M526.457,318.814l-1.444-1.444c-0.061-0.061-0.159-0.061-0.22,0l-1.444,1.444
		c-0.098,0.098-0.029,0.265,0.11,0.265h0.849v2.19c0,0.199,0.161,0.36,0.36,0.36h0.471c0.199,0,0.36-0.161,0.36-0.36v-2.19h0.849
		C526.486,319.079,526.555,318.912,526.457,318.814z"/>
	<path class="st0" d="M528.415,320.139l1.444,1.444c0.061,0.061,0.159,0.061,0.22,0l1.444-1.444c0.098-0.098,0.029-0.265-0.11-0.265
		h-0.849v-2.19c0-0.199-0.161-0.36-0.36-0.36h-0.471c-0.199,0-0.36,0.161-0.36,0.36v2.19h-0.849
		C528.387,319.874,528.318,320.041,528.415,320.139z"/>
</g>
<g>
	<path class="st0" d="M228.359,469.346h-7.594c-1.034,0-1.872-0.838-1.872-1.872v-7.594c0-1.034,0.838-1.872,1.872-1.872h7.594
		c1.034,0,1.872,0.838,1.872,1.872v7.594C230.231,468.508,229.393,469.346,228.359,469.346z"/>
	<polygon class="st1" points="224.561,459.979 224.561,462.444 222.474,462.444 222.474,464.909 220.387,464.909 220.387,467.374 
		224.561,467.374 224.561,464.909 226.648,464.909 226.648,462.444 228.736,462.444 228.736,459.979 	"/>
</g>
<g>
	<path class="st0" d="M243.926,248.464h-7.594c-1.034,0-1.872-0.838-1.872-1.872v-7.594c0-1.034,0.838-1.872,1.872-1.872h7.594
		c1.034,0,1.872,0.838,1.872,1.872v7.594C245.798,247.626,244.96,248.464,243.926,248.464z"/>
	<polygon class="st1" points="240.129,239.097 240.129,241.562 238.042,241.562 238.042,244.027 235.955,244.027 235.955,246.492 
		240.129,246.492 240.129,244.027 242.216,244.027 242.216,241.562 244.303,241.562 244.303,239.097 	"/>
</g>
<g>
	<path class="st0" d="M71.872,261.198h-7.594c-1.034,0-1.872-0.838-1.872-1.872v-7.594c0-1.034,0.838-1.872,1.872-1.872h7.594
		c1.034,0,1.872,0.838,1.872,1.872v7.594C73.744,260.36,72.906,261.198,71.872,261.198z"/>
	<polygon class="st1" points="68.075,251.832 68.075,254.297 65.988,254.297 65.988,256.761 63.901,256.761 63.901,259.226 
		68.075,259.226 68.075,256.761 70.162,256.761 70.162,254.297 72.249,254.297 72.249,251.832 	"/>
</g>
<g>
	<path class="st0" d="M106.701,354.054h-7.594c-1.034,0-1.872-0.838-1.872-1.872v-7.594c0-1.034,0.838-1.872,1.872-1.872h7.594
		c1.034,0,1.872,0.838,1.872,1.872v7.594C108.573,353.216,107.735,354.054,106.701,354.054z"/>
	<polygon class="st1" points="102.903,344.687 102.903,347.152 100.816,347.152 100.816,349.617 98.729,349.617 98.729,352.082 
		102.903,352.082 102.903,349.617 104.991,349.617 104.991,347.152 107.078,347.152 107.078,344.687 	"/>
</g>
<g>
	<path class="st0" d="M479.598,542.747h-7.594c-1.034,0-1.872-0.838-1.872-1.872v-7.594c0-1.034,0.838-1.872,1.872-1.872h7.594
		c1.034,0,1.872,0.838,1.872,1.872v7.594C481.47,541.909,480.632,542.747,479.598,542.747z"/>
	<polygon class="st1" points="475.8,533.381 475.8,535.846 473.713,535.846 473.713,538.311 471.626,538.311 471.626,540.776 
		475.8,540.776 475.8,538.311 477.888,538.311 477.888,535.846 479.975,535.846 479.975,533.381 	"/>
</g>
<g>
	<path class="st0" d="M569.203,344.411h-7.594c-1.034,0-1.872-0.838-1.872-1.872v-7.594c0-1.034,0.838-1.872,1.872-1.872h7.594
		c1.034,0,1.872,0.838,1.872,1.872v7.594C571.076,343.573,570.237,344.411,569.203,344.411z"/>
	<polygon class="st1" points="565.406,335.045 565.406,337.51 563.319,337.51 563.319,339.974 561.232,339.974 561.232,342.439 
		565.406,342.439 565.406,339.974 567.493,339.974 567.493,337.51 569.581,337.51 569.581,335.045 	"/>
</g>
<g>
	<path class="st0" d="M390.094,600.936H382.5c-1.034,0-1.872-0.838-1.872-1.872v-7.594c0-1.034,0.838-1.872,1.872-1.872h7.594
		c1.034,0,1.872,0.838,1.872,1.872v7.594C391.966,600.098,391.128,600.936,390.094,600.936z"/>
	<polygon class="st1" points="386.297,591.569 386.297,594.034 384.21,594.034 384.21,596.499 382.123,596.499 382.123,598.964 
		386.297,598.964 386.297,596.499 388.384,596.499 388.384,594.034 390.471,594.034 390.471,591.569 	"/>
</g>
<g>
	<circle class="st0" cx="98.165" cy="251.832" r="4.535"/>
	<path class="st1" d="M100.194,253.261l0.688-2.92c0.029-0.123-0.047-0.246-0.17-0.275l-2.92-0.688
		c-0.198-0.047-0.354,0.169-0.247,0.342l0.656,1.06l-2.735,1.692c-0.248,0.154-0.325,0.48-0.172,0.728l0.364,0.589
		c0.154,0.248,0.48,0.325,0.728,0.172l2.735-1.692l0.656,1.06C99.885,253.502,100.148,253.459,100.194,253.261z"/>
</g>
<g>
	<circle class="st0" cx="85.717" cy="230.843" r="4.535"/>
	<path class="st1" d="M87.746,232.273l0.688-2.92c0.029-0.123-0.047-0.246-0.17-0.275l-2.92-0.688
		c-0.198-0.047-0.354,0.169-0.247,0.342l0.656,1.06l-2.735,1.692c-0.248,0.154-0.325,0.48-0.172,0.728l0.364,0.589
		c0.154,0.248,0.48,0.325,0.728,0.172l2.735-1.692l0.656,1.06C87.437,232.513,87.699,232.471,87.746,232.273z"/>
</g>
<g>
</g>
<g>
</g>
<g>
</g>
<g>
</g>
<g>
</g>
<g>
</g>
</svg>
