<?xml version="1.0" encoding="utf-8"?>
<!-- Generator: Adobe Illustrator 19.0.1, SVG Export Plug-In . SVG Version: 6.00 Build 0)  -->
<svg version="1.1" id="icones" xmlns="http://www.w3.org/2000/svg" xmlns:xlink="http://www.w3.org/1999/xlink" x="0px" y="0px"
	 viewBox="0 0 776.961 823.459" style="enable-background:new 0 0 776.961 823.459;" xml:space="preserve">
<style type="text/css">
	.st0{fill:#1D1D1B;}
	.st1{fill:#FFFFFF;}
</style>
<g>
	<path class="st0" d="M88.878,205.027h-7.594c-1.034,0-1.872-0.838-1.872-1.872v-7.594c0-1.034,0.838-1.872,1.872-1.872h7.594
		c1.034,0,1.872,0.838,1.872,1.872v7.594C90.75,204.189,89.912,205.027,88.878,205.027z"/>
	<polygon class="st1" points="85.081,195.66 85.081,198.125 82.994,198.125 82.994,200.59 80.907,200.59 80.907,203.055 
		85.081,203.055 85.081,200.59 87.168,200.59 87.168,198.125 89.255,198.125 89.255,195.66 	"/>
</g>
<g>
	<path class="st0" d="M580.606,336.826h-7.594c-1.034,0-1.872-0.838-1.872-1.872v-7.594c0-1.034,0.838-1.872,1.872-1.872h7.594
		c1.034,0,1.872,0.838,1.872,1.872v7.594C582.478,335.988,581.64,336.826,580.606,336.826z"/>
	<polygon class="st1" points="576.808,327.459 576.808,329.924 574.721,329.924 574.721,332.389 572.634,332.389 572.634,334.854 
		576.808,334.854 576.808,332.389 578.896,332.389 578.896,329.924 580.983,329.924 580.983,327.459 	"/>
</g>
<g>
	<path class="st0" d="M65.223,217.529h-7.594c-1.034,0-1.872-0.838-1.872-1.872v-7.594c0-1.034,0.838-1.872,1.872-1.872h7.594
		c1.034,0,1.872,0.838,1.872,1.872v7.594C67.095,216.691,66.257,217.529,65.223,217.529z"/>
	<polygon class="st1" points="61.426,208.163 61.426,210.628 59.339,210.628 59.339,213.093 57.251,213.093 57.251,215.557 
		61.426,215.557 61.426,213.093 63.513,213.093 63.513,210.628 65.6,210.628 65.6,208.163 	"/>
</g>
<g>
	<path class="st0" d="M194.524,335.502h-7.594c-1.034,0-1.872-0.838-1.872-1.872v-7.594c0-1.034,0.838-1.872,1.872-1.872h7.594
		c1.034,0,1.872,0.838,1.872,1.872v7.594C196.396,334.663,195.558,335.502,194.524,335.502z"/>
	<polygon class="st1" points="190.727,326.135 190.727,328.6 188.64,328.6 188.64,331.065 186.553,331.065 186.553,333.53 
		190.727,333.53 190.727,331.065 192.814,331.065 192.814,328.6 194.901,328.6 194.901,326.135 	"/>
</g>
<g>
	<path class="st0" d="M362.061,475.281h-7.594c-1.034,0-1.872-0.838-1.872-1.872v-7.594c0-1.034,0.838-1.872,1.872-1.872h7.594
		c1.034,0,1.872,0.838,1.872,1.872v7.594C363.933,474.442,363.095,475.281,362.061,475.281z"/>
	<polygon class="st1" points="358.264,465.914 358.264,468.379 356.177,468.379 356.177,470.844 354.089,470.844 354.089,473.309 
		358.264,473.309 358.264,470.844 360.351,470.844 360.351,468.379 362.438,468.379 362.438,465.914 	"/>
</g>
<g>
	<path class="st0" d="M318.093,571.595h-7.594c-1.034,0-1.872-0.838-1.872-1.872v-7.594c0-1.034,0.838-1.872,1.872-1.872h7.594
		c1.034,0,1.872,0.838,1.872,1.872v7.594C319.965,570.757,319.127,571.595,318.093,571.595z"/>
	<polygon class="st1" points="314.295,562.229 314.295,564.694 312.208,564.694 312.208,567.158 310.121,567.158 310.121,569.623 
		314.295,569.623 314.295,567.158 316.383,567.158 316.383,564.694 318.47,564.694 318.47,562.229 	"/>
</g>
<g>
	<path class="st0" d="M450.157,418.42h-7.594c-1.034,0-1.872-0.838-1.872-1.872v-7.594c0-1.034,0.838-1.872,1.872-1.872h7.594
		c1.034,0,1.872,0.838,1.872,1.872v7.594C452.029,417.581,451.19,418.42,450.157,418.42z"/>
	<polygon class="st1" points="446.359,409.053 446.359,411.518 444.272,411.518 444.272,413.983 442.185,413.983 442.185,416.448 
		446.359,416.448 446.359,413.983 448.446,413.983 448.446,411.518 450.534,411.518 450.534,409.053 	"/>
</g>
<g>
	<path class="st0" d="M308.344,383.933h-7.594c-1.034,0-1.872-0.838-1.872-1.872v-7.594c0-1.034,0.838-1.872,1.872-1.872h7.594
		c1.034,0,1.872,0.838,1.872,1.872v7.594C310.216,383.095,309.378,383.933,308.344,383.933z"/>
	<polygon class="st1" points="304.547,374.566 304.547,377.031 302.46,377.031 302.46,379.496 300.372,379.496 300.372,381.961 
		304.547,381.961 304.547,379.496 306.634,379.496 306.634,377.031 308.721,377.031 308.721,374.566 	"/>
</g>
<g>
	<path class="st0" d="M511.82,224.944h-7.594c-1.034,0-1.872-0.838-1.872-1.872v-7.594c0-1.034,0.838-1.872,1.872-1.872h7.594
		c1.034,0,1.872,0.838,1.872,1.872v7.594C513.692,224.106,512.854,224.944,511.82,224.944z"/>
	<polygon class="st1" points="508.023,215.577 508.023,218.042 505.936,218.042 505.936,220.507 503.849,220.507 503.849,222.972 
		508.023,222.972 508.023,220.507 510.11,220.507 510.11,218.042 512.197,218.042 512.197,215.577 	"/>
</g>
<g>
	<path class="st0" d="M602.802,533.063h-7.594c-1.034,0-1.872-0.838-1.872-1.872v-7.594c0-1.034,0.838-1.872,1.872-1.872h7.594
		c1.034,0,1.872,0.838,1.872,1.872v7.594C604.674,532.224,603.835,533.063,602.802,533.063z"/>
	<polygon class="st1" points="599.004,523.696 599.004,526.161 596.917,526.161 596.917,528.626 594.83,528.626 594.83,531.091 
		599.004,531.091 599.004,528.626 601.091,528.626 601.091,526.161 603.179,526.161 603.179,523.696 	"/>
</g>
<g>
	<path class="st0" d="M606.976,619.176h-7.594c-1.034,0-1.872-0.838-1.872-1.872v-7.594c0-1.034,0.838-1.872,1.872-1.872h7.594
		c1.034,0,1.872,0.838,1.872,1.872v7.594C608.848,618.338,608.01,619.176,606.976,619.176z"/>
	<polygon class="st1" points="603.179,609.81 603.179,612.274 601.091,612.274 601.091,614.739 599.004,614.739 599.004,617.204 
		603.179,617.204 603.179,614.739 605.266,614.739 605.266,612.274 607.353,612.274 607.353,609.81 	"/>
</g>
<g>
	<path class="st0" d="M692.954,746.764h-7.594c-1.034,0-1.872-0.838-1.872-1.872v-7.594c0-1.034,0.838-1.872,1.872-1.872h7.594
		c1.034,0,1.872,0.838,1.872,1.872v7.594C694.826,745.926,693.988,746.764,692.954,746.764z"/>
	<polygon class="st1" points="689.157,737.397 689.157,739.862 687.07,739.862 687.07,742.327 684.983,742.327 684.983,744.792 
		689.157,744.792 689.157,742.327 691.244,742.327 691.244,739.862 693.331,739.862 693.331,737.397 	"/>
</g>
<g>
	<g>
		<path class="st0" d="M620.251,553.211h-7.594c-1.034,0-1.872-0.838-1.872-1.872v-7.594c0-1.034,0.838-1.872,1.872-1.872h7.594
			c1.034,0,1.872,0.838,1.872,1.872v7.594C622.123,552.373,621.285,553.211,620.251,553.211z"/>
		<g>
			<path class="st1" d="M614.985,552.133h-2.058c-0.517,0-0.936-0.419-0.936-0.936v-7.311c0-0.517,0.419-0.936,0.936-0.936h2.058
				c0.517,0,0.936,0.419,0.936,0.936v7.311C615.921,551.714,615.502,552.133,614.985,552.133z"/>
			<path class="st1" d="M619.981,552.133h-2.058c-0.517,0-0.936-0.419-0.936-0.936v-7.311c0-0.517,0.419-0.936,0.936-0.936h2.058
				c0.517,0,0.936,0.419,0.936,0.936v7.311C620.917,551.714,620.498,552.133,619.981,552.133z"/>
		</g>
	</g>
	<path class="st0" d="M615.44,546.879l-1.444-1.444c-0.061-0.061-0.159-0.061-0.22,0l-1.444,1.444
		c-0.098,0.098-0.029,0.265,0.11,0.265h0.849v2.19c0,0.199,0.161,0.36,0.36,0.36h0.471c0.199,0,0.36-0.161,0.36-0.36v-2.19h0.849
		C615.468,547.145,615.537,546.977,615.44,546.879z"/>
	<path class="st0" d="M617.398,548.204l1.444,1.444c0.061,0.061,0.159,0.061,0.22,0l1.444-1.444c0.098-0.098,0.029-0.265-0.11-0.265
		h-0.849v-2.19c0-0.199-0.161-0.36-0.36-0.36h-0.471c-0.199,0-0.36,0.161-0.36,0.36v2.19h-0.849
		C617.369,547.939,617.3,548.107,617.398,548.204z"/>
</g>
<g>
	<g>
		<path class="st0" d="M303.742,505.246h-7.594c-1.034,0-1.872-0.838-1.872-1.872v-7.594c0-1.034,0.838-1.872,1.872-1.872h7.594
			c1.034,0,1.872,0.838,1.872,1.872v7.594C305.614,504.407,304.776,505.246,303.742,505.246z"/>
		<g>
			<path class="st1" d="M298.476,504.168h-2.058c-0.517,0-0.936-0.419-0.936-0.936v-7.311c0-0.517,0.419-0.936,0.936-0.936h2.058
				c0.517,0,0.936,0.419,0.936,0.936v7.311C299.412,503.749,298.993,504.168,298.476,504.168z"/>
			<path class="st1" d="M303.472,504.168h-2.058c-0.517,0-0.936-0.419-0.936-0.936v-7.311c0-0.517,0.419-0.936,0.936-0.936h2.058
				c0.517,0,0.936,0.419,0.936,0.936v7.311C304.408,503.749,303.989,504.168,303.472,504.168z"/>
		</g>
	</g>
	<path class="st0" d="M298.93,498.914l-1.444-1.444c-0.061-0.061-0.159-0.061-0.22,0l-1.444,1.444
		c-0.098,0.098-0.029,0.265,0.11,0.265h0.849v2.19c0,0.199,0.161,0.36,0.36,0.36h0.471c0.199,0,0.36-0.161,0.36-0.36v-2.19h0.849
		C298.959,499.179,299.028,499.012,298.93,498.914z"/>
	<path class="st0" d="M300.889,500.239l1.444,1.444c0.061,0.061,0.159,0.061,0.22,0l1.444-1.444c0.098-0.098,0.029-0.265-0.11-0.265
		h-0.849v-2.19c0-0.199-0.161-0.36-0.36-0.36h-0.471c-0.199,0-0.36,0.161-0.36,0.36v2.19h-0.849
		C300.86,499.974,300.791,500.141,300.889,500.239z"/>
</g>
<g>
	<g>
		<path class="st0" d="M163.095,346.048h-7.594c-1.034,0-1.872-0.838-1.872-1.872v-7.594c0-1.034,0.838-1.872,1.872-1.872h7.594
			c1.034,0,1.872,0.838,1.872,1.872v7.594C164.967,345.21,164.129,346.048,163.095,346.048z"/>
		<g>
			<path class="st1" d="M157.829,344.97h-2.058c-0.517,0-0.936-0.419-0.936-0.936v-7.311c0-0.517,0.419-0.936,0.936-0.936h2.058
				c0.517,0,0.936,0.419,0.936,0.936v7.311C158.765,344.551,158.346,344.97,157.829,344.97z"/>
			<path class="st1" d="M162.825,344.97h-2.058c-0.517,0-0.936-0.419-0.936-0.936v-7.311c0-0.517,0.419-0.936,0.936-0.936h2.058
				c0.517,0,0.936,0.419,0.936,0.936v7.311C163.761,344.551,163.342,344.97,162.825,344.97z"/>
		</g>
	</g>
	<path class="st0" d="M158.284,339.716l-1.444-1.444c-0.061-0.061-0.159-0.061-0.22,0l-1.444,1.444
		c-0.098,0.098-0.029,0.265,0.11,0.265h0.849v2.19c0,0.199,0.161,0.36,0.36,0.36h0.471c0.199,0,0.36-0.161,0.36-0.36v-2.19h0.849
		C158.312,339.981,158.382,339.814,158.284,339.716z"/>
	<path class="st0" d="M160.242,341.041l1.444,1.444c0.061,0.061,0.159,0.061,0.22,0l1.444-1.444c0.098-0.098,0.029-0.265-0.11-0.265
		h-0.849v-2.19c0-0.199-0.161-0.36-0.36-0.36h-0.471c-0.199,0-0.36,0.161-0.36,0.36v2.19h-0.849
		C160.214,340.776,160.144,340.943,160.242,341.041z"/>
</g>
<g>
	<g>
		<path class="st0" d="M289.413,424.613h-7.594c-1.034,0-1.872-0.838-1.872-1.872v-7.594c0-1.034,0.838-1.872,1.872-1.872h7.594
			c1.034,0,1.872,0.838,1.872,1.872v7.594C291.285,423.774,290.447,424.613,289.413,424.613z"/>
		<g>
			<path class="st1" d="M284.147,423.535h-2.058c-0.517,0-0.936-0.419-0.936-0.936v-7.311c0-0.517,0.419-0.936,0.936-0.936h2.058
				c0.517,0,0.936,0.419,0.936,0.936v7.311C285.083,423.116,284.664,423.535,284.147,423.535z"/>
			<path class="st1" d="M289.143,423.535h-2.058c-0.517,0-0.936-0.419-0.936-0.936v-7.311c0-0.517,0.419-0.936,0.936-0.936h2.058
				c0.517,0,0.936,0.419,0.936,0.936v7.311C290.079,423.116,289.66,423.535,289.143,423.535z"/>
		</g>
	</g>
	<path class="st0" d="M284.601,418.281l-1.444-1.444c-0.061-0.061-0.159-0.061-0.22,0l-1.444,1.444
		c-0.098,0.098-0.029,0.265,0.11,0.265h0.849v2.19c0,0.199,0.161,0.36,0.36,0.36h0.471c0.199,0,0.36-0.161,0.36-0.36v-2.19h0.849
		C284.63,418.546,284.699,418.379,284.601,418.281z"/>
	<path class="st0" d="M286.56,419.606l1.444,1.444c0.061,0.061,0.159,0.061,0.22,0l1.444-1.444c0.098-0.098,0.029-0.265-0.11-0.265
		h-0.849v-2.19c0-0.199-0.161-0.36-0.36-0.36h-0.471c-0.199,0-0.36,0.161-0.36,0.36v2.19h-0.849
		C286.531,419.341,286.462,419.508,286.56,419.606z"/>
</g>
<g>
	<circle class="st0" cx="297.727" cy="363.247" r="4.535"/>
	<path class="st1" d="M299.147,361.212l-2.923-0.675c-0.123-0.028-0.245,0.048-0.274,0.171l-0.675,2.923
		c-0.046,0.198,0.171,0.353,0.343,0.245l1.057-0.661l1.704,2.728c0.155,0.248,0.481,0.323,0.729,0.168l0.587-0.367
		c0.248-0.155,0.323-0.481,0.168-0.729l-1.704-2.728l1.057-0.661C299.389,361.52,299.345,361.258,299.147,361.212z"/>
</g>
<g>
	<circle class="st0" cx="384.299" cy="382.641" r="4.535"/>
	<path class="st1" d="M382.878,384.677l2.923,0.675c0.123,0.028,0.245-0.048,0.274-0.171l0.675-2.923
		c0.046-0.198-0.171-0.353-0.343-0.245l-1.057,0.661l-1.704-2.728c-0.155-0.248-0.481-0.323-0.729-0.168l-0.587,0.367
		c-0.248,0.155-0.323,0.481-0.168,0.729l1.704,2.728l-1.057,0.661C382.636,384.368,382.68,384.631,382.878,384.677z"/>
</g>
<g>
	<path class="st0" d="M147.49,344.193h-7.594c-1.034,0-1.872-0.838-1.872-1.872v-7.594c0-1.034,0.838-1.872,1.872-1.872h7.594
		c1.034,0,1.872,0.838,1.872,1.872v7.594C149.362,343.355,148.524,344.193,147.49,344.193z"/>
	<g>
		<circle class="st1" cx="143.693" cy="334.618" r="0.779"/>
		<path class="st1" d="M145.804,338.443l-0.668-2.199c-0.13-0.389-0.518-0.695-1.084-0.695h-0.718c-0.567,0-0.955,0.306-1.085,0.695
			l-0.668,2.199c-0.138,0.473,0.408,0.641,0.551,0.199l0.705-2.011h0.081c0,0-0.926,3.6-0.965,3.735
			c-0.02,0.067,0.008,0.116,0.08,0.116c0.044,0,0.802,0,0.802,0l0.001,2.364c0,0.481,0.72,0.481,0.72,0v-2.382h0.276l0,2.382
			c0,0.481,0.72,0.481,0.72,0l0-2.364c0,0,0.757,0,0.801,0c0.071,0,0.1-0.049,0.08-0.116c-0.039-0.135-0.966-3.735-0.966-3.735
			h0.082l0.705,2.011C145.397,339.084,145.943,338.916,145.804,338.443z"/>
	</g>
</g>
<g>
	<path class="st0" d="M378.792,463.388h-7.594c-1.034,0-1.872-0.838-1.872-1.872v-7.594c0-1.034,0.838-1.872,1.872-1.872h7.594
		c1.034,0,1.872,0.838,1.872,1.872v7.594C380.664,462.55,379.826,463.388,378.792,463.388z"/>
	<g>
		<circle class="st1" cx="374.995" cy="453.813" r="0.779"/>
		<path class="st1" d="M377.106,457.639l-0.668-2.199c-0.13-0.389-0.518-0.695-1.084-0.695h-0.718c-0.567,0-0.955,0.306-1.085,0.695
			l-0.668,2.199c-0.138,0.473,0.408,0.641,0.551,0.199l0.705-2.011h0.081c0,0-0.926,3.6-0.965,3.735
			c-0.02,0.067,0.008,0.116,0.08,0.116c0.044,0,0.802,0,0.802,0l0.001,2.364c0,0.481,0.72,0.481,0.72,0v-2.382h0.276l0,2.382
			c0,0.481,0.72,0.481,0.72,0l0-2.364c0,0,0.757,0,0.801,0c0.071,0,0.1-0.049,0.08-0.116c-0.039-0.135-0.966-3.735-0.966-3.735
			h0.082l0.705,2.011C376.699,458.28,377.245,458.112,377.106,457.639z"/>
	</g>
</g>
<g>
	<path class="st0" d="M669.275,710.044h-7.594c-1.034,0-1.872-0.838-1.872-1.872v-7.594c0-1.034,0.838-1.872,1.872-1.872h7.594
		c1.034,0,1.872,0.838,1.872,1.872v7.594C671.147,709.206,670.309,710.044,669.275,710.044z"/>
	<g>
		<circle class="st1" cx="665.478" cy="700.469" r="0.779"/>
		<path class="st1" d="M667.589,704.295l-0.668-2.199c-0.13-0.389-0.518-0.695-1.084-0.695h-0.718c-0.567,0-0.955,0.306-1.085,0.695
			l-0.668,2.199c-0.138,0.473,0.408,0.641,0.551,0.199l0.705-2.011h0.081c0,0-0.926,3.6-0.965,3.735
			c-0.02,0.067,0.008,0.116,0.08,0.116c0.044,0,0.802,0,0.802,0l0.001,2.364c0,0.481,0.72,0.481,0.72,0v-2.382h0.276l0,2.382
			c0,0.481,0.72,0.481,0.72,0l0-2.364c0,0,0.757,0,0.801,0c0.071,0,0.1-0.049,0.08-0.116c-0.039-0.135-0.966-3.735-0.966-3.735
			h0.082l0.705,2.011C667.182,704.936,667.728,704.768,667.589,704.295z"/>
	</g>
</g>
<g>
	<path class="st0" d="M378.014,419.422h-7.594c-1.034,0-1.872-0.838-1.872-1.872v-7.594c0-1.034,0.838-1.872,1.872-1.872h7.594
		c1.034,0,1.872,0.838,1.872,1.872v7.594C379.886,418.584,379.048,419.422,378.014,419.422z"/>
	<g>
		<circle class="st1" cx="374.217" cy="409.847" r="0.779"/>
		<path class="st1" d="M376.328,413.673l-0.668-2.199c-0.13-0.389-0.518-0.695-1.084-0.695h-0.718c-0.567,0-0.955,0.306-1.085,0.695
			l-0.668,2.199c-0.138,0.473,0.408,0.641,0.551,0.199l0.705-2.011h0.081c0,0-0.926,3.6-0.965,3.735
			c-0.02,0.067,0.008,0.116,0.08,0.116c0.044,0,0.801,0,0.801,0l0.001,2.364c0,0.481,0.72,0.481,0.72,0v-2.382h0.276l0,2.382
			c0,0.481,0.72,0.481,0.72,0l0-2.364c0,0,0.757,0,0.801,0c0.071,0,0.1-0.049,0.08-0.116c-0.039-0.135-0.966-3.735-0.966-3.735
			h0.082l0.705,2.011C375.92,414.314,376.467,414.146,376.328,413.673z"/>
	</g>
</g>
<g>
	<path class="st0" d="M156.934,361.108h-7.594c-1.034,0-1.872-0.838-1.872-1.872v-7.594c0-1.034,0.838-1.872,1.872-1.872h7.594
		c1.034,0,1.872,0.838,1.872,1.872v7.594C158.806,360.27,157.968,361.108,156.934,361.108z"/>
	<g>
		<circle class="st1" cx="153.137" cy="351.489" r="0.787"/>
		<path class="st1" d="M153.983,352.431l-0.847,0.001l-0.846-0.001c-0.759,0-1.006,0.196-1.006,1.022v2.417
			c0,0.469,0.634,0.469,0.634,0l0.054-2.21h0.163v6.051c0,0.628,0.862,0.61,0.862,0l0.055-3.513h0.171l0.054,3.513
			c0,0.61,0.862,0.628,0.862,0v-6.051h0.163l0.055,2.21c0,0.469,0.633,0.469,0.633,0v-2.417
			C154.988,352.626,154.742,352.431,153.983,352.431z"/>
	</g>
</g>
<g>
	<path class="st0" d="M394.223,453.402h-7.594c-1.034,0-1.872-0.838-1.872-1.872v-7.594c0-1.034,0.838-1.872,1.872-1.872h7.594
		c1.034,0,1.872,0.838,1.872,1.872v7.594C396.095,452.564,395.257,453.402,394.223,453.402z"/>
	<g>
		<circle class="st1" cx="390.426" cy="443.783" r="0.787"/>
		<path class="st1" d="M391.273,444.726l-0.847,0.001l-0.846-0.001c-0.759,0-1.006,0.196-1.006,1.022v2.417
			c0,0.469,0.634,0.469,0.634,0l0.054-2.21h0.163v6.051c0,0.628,0.862,0.61,0.862,0l0.055-3.513h0.171l0.054,3.513
			c0,0.61,0.862,0.628,0.862,0v-6.051h0.163l0.055,2.21c0,0.469,0.633,0.469,0.633,0v-2.417
			C392.278,444.921,392.031,444.726,391.273,444.726z"/>
	</g>
</g>
<g>
	<path class="st0" d="M656.238,689.353h-7.594c-1.034,0-1.872-0.838-1.872-1.872v-7.594c0-1.034,0.838-1.872,1.872-1.872h7.594
		c1.034,0,1.872,0.838,1.872,1.872v7.594C658.11,688.515,657.271,689.353,656.238,689.353z"/>
	<g>
		<circle class="st1" cx="652.44" cy="679.734" r="0.787"/>
		<path class="st1" d="M653.287,680.676l-0.847,0.001l-0.846-0.001c-0.759,0-1.006,0.196-1.006,1.022v2.417
			c0,0.469,0.634,0.469,0.634,0l0.054-2.21h0.163v6.052c0,0.628,0.862,0.61,0.862,0l0.055-3.513h0.171l0.054,3.513
			c0,0.61,0.862,0.628,0.862,0v-6.052h0.163l0.055,2.21c0,0.469,0.633,0.469,0.633,0v-2.417
			C654.292,680.871,654.046,680.676,653.287,680.676z"/>
	</g>
</g>
<g>
	<path class="st0" d="M355.955,433.022h-7.594c-1.034,0-1.872-0.838-1.872-1.872v-7.594c0-1.034,0.838-1.872,1.872-1.872h7.594
		c1.034,0,1.872,0.838,1.872,1.872v7.594C357.827,432.184,356.989,433.022,355.955,433.022z"/>
	<g>
		<circle class="st1" cx="352.158" cy="423.403" r="0.787"/>
		<path class="st1" d="M353.005,424.345l-0.847,0.001l-0.846-0.001c-0.759,0-1.006,0.196-1.006,1.022v2.417
			c0,0.469,0.634,0.469,0.634,0l0.054-2.21h0.163v6.051c0,0.628,0.862,0.61,0.862,0l0.055-3.513h0.171l0.054,3.513
			c0,0.61,0.862,0.628,0.862,0v-6.051h0.163l0.055,2.21c0,0.469,0.633,0.469,0.633,0v-2.417
			C354.01,424.541,353.763,424.345,353.005,424.345z"/>
	</g>
</g>
<g>
	<path class="st0" d="M259.878,120.688h-7.594c-1.034,0-1.872-0.838-1.872-1.872v-7.594c0-1.034,0.838-1.872,1.872-1.872h7.594
		c1.034,0,1.872,0.838,1.872,1.872v7.594C261.75,119.85,260.912,120.688,259.878,120.688z"/>
	<polygon class="st1" points="256.081,111.322 256.081,113.786 253.994,113.786 253.994,116.251 251.907,116.251 251.907,118.716 
		256.081,118.716 256.081,116.251 258.168,116.251 258.168,113.786 260.255,113.786 260.255,111.322 	"/>
</g>
</svg>
