<?xml version="1.0" encoding="utf-8"?>
<!-- Generator: Adobe Illustrator 19.0.1, SVG Export Plug-In . SVG Version: 6.00 Build 0)  -->
<svg version="1.1" xmlns="http://www.w3.org/2000/svg" xmlns:xlink="http://www.w3.org/1999/xlink" x="0px" y="0px"
	 viewBox="0 0 776.961 823.459" style="enable-background:new 0 0 776.961 823.459;" xml:space="preserve">
<style type="text/css">
	.st0{fill:#FFFFFF;stroke:#383938;stroke-width:0.5;stroke-miterlimit:10;}
	.st1{fill:#ECF0F2;stroke:#383938;stroke-width:0.5;stroke-miterlimit:10;}
	.st2{fill:#BFD9E0;stroke:#383938;stroke-width:0.5;stroke-miterlimit:10;}
	.st3{fill:#A3CBCB;stroke:#383938;stroke-width:0.5;stroke-miterlimit:10;}
	.st4{fill:#62A2A1;stroke:#383938;stroke-width:0.5;stroke-miterlimit:10;}
	.st5{fill:#ED855A;stroke:#383938;stroke-width:0.5;stroke-miterlimit:10;}
	.st6{fill:none;stroke:#383938;stroke-width:0.5;stroke-miterlimit:10;}
</style>
<g id="locaux">
	<polygon class="st0" points="642.566,497.691 745.91,716.96 698.415,739.88 708.076,755.341 664.513,782.562 576.808,642.206 
		592.578,632.352 583.67,618.097 591.379,613.28 556.708,537.407 	"/>
	<path class="st0" d="M35.884,195.769l17.777,28.449l91.912,147.297l39.655,63.462l21.281-13.298l29.469,47.161l-21.188,13.239
		c0,0,32.44,52.848,40.548,64.891c33.206,49.318,90.86,47.928,122.82,28.355c6.046-3.703,143.652-89.763,143.652-89.763
		l-38.557-61.704l-9.647,6.028l-7.154-11.449l3.675-2.296l-13.248-21.201l-30.671,19.165l-58.291-93.285l31.236-19.519
		l-80.636-129.045l-96.536,60.322l40.186,64.31l-37.879,23.67l-89.115-142.613l-38.021,23.758l-9.892-15.83l-19.929,12.453
		l-9.98-15.972L35.884,195.769z"/>
	<polygon class="st1" points="706.994,735.739 692.294,704.375 731.427,686.23 745.91,716.96 	"/>
	<polygon class="st1" points="692.294,704.375 678.464,674.694 717.624,656.945 731.427,686.23 	"/>
	<polygon class="st1" points="678.464,674.694 664.864,645.065 703.523,627.026 717.624,656.945 	"/>
	<polygon class="st1" points="703.523,627.026 689.65,597.591 650.662,615.419 664.864,645.065 	"/>
	<polygon class="st1" points="650.662,615.419 636.867,586.109 675.628,567.839 689.65,597.591 	"/>
	<polygon class="st1" points="636.867,586.109 623.585,556.675 661.871,538.651 675.628,567.839 	"/>
	<polygon class="st1" points="623.585,556.675 620.385,550.342 626.382,547.459 622.739,539.91 625.606,538.633 620.655,529.027 
		634.753,522.969 645.027,526.179 654.017,521.987 661.871,538.651 	"/>
	<polygon class="st1" points="620.655,529.027 612.261,511.709 642.566,497.691 654.017,521.987 645.027,526.179 634.753,522.969 	
		"/>
	<polygon class="st1" points="692.634,764.99 674.042,735.237 681.25,730.732 677.011,723.948 641.681,746.024 664.513,782.562 	"/>
	<polygon class="st1" points="666.517,722.251 648.5,693.417 619.955,711.254 641.681,746.024 677.011,723.948 673.301,718.012 	"/>
	<polygon class="st1" points="648.5,693.417 631.012,665.432 637.797,661.193 633.822,654.832 598.493,676.909 619.955,711.254 	"/>
	
		<rect x="634.499" y="659.141" transform="matrix(0.5299 0.848 -0.848 0.5299 868.1793 -230.9544)" class="st1" width="15.833" height="17"/>
	
		<rect x="641.44" y="675.184" transform="matrix(0.5299 0.848 -0.848 0.5299 886.4962 -231.9143)" class="st2" width="22" height="17"/>
	
		<rect x="620.818" y="634.212" transform="matrix(0.5299 0.848 -0.848 0.5299 839.7152 -229.4626)" class="st1" width="12.041" height="17"/>
	
		<rect x="607.645" y="620.236" transform="matrix(0.5299 0.848 -0.848 0.5299 823.7572 -228.6263)" class="st1" width="20.92" height="17"/>
	
		<rect x="651.414" y="696.879" transform="matrix(0.5299 0.848 -0.848 0.5299 911.2682 -233.2126)" class="st2" width="29.167" height="17"/>
	<polygon class="st1" points="633.822,654.832 629.605,648.082 622.82,652.322 605.354,624.369 576.808,642.206 598.493,676.909 	
		"/>
	<polygon class="st1" points="589.447,609.053 610.101,599.887 601.004,585.329 582.411,593.655 	"/>
	<polygon class="st1" points="601.004,585.329 592.084,571.053 575.563,578.669 582.411,593.655 	"/>
	<polygon class="st1" points="592.084,571.053 583.429,557.202 568.841,563.959 575.563,578.669 	"/>
	<polygon class="st1" points="583.429,557.202 574.928,543.598 562.154,549.325 568.841,563.959 	"/>
	<polygon class="st1" points="574.928,543.598 567.841,532.257 556.708,537.407 562.154,549.325 	"/>
	<polygon class="st1" points="620.385,550.342 616.256,552.338 610.745,541.041 620.928,536.226 626.382,547.459 	"/>
	<polygon class="st1" points="622.739,539.91 625.606,538.633 619.918,527.507 590.314,540.543 594.42,547.115 601.783,543.447 
		602.53,544.996 620.928,536.226 	"/>
	<polygon class="st1" points="483.254,423.857 456.505,440.572 488.83,492.303 485.579,494.335 491.817,504.318 521.818,485.572 	
		"/>
	<polygon class="st1" points="456.505,440.572 399.968,475.9 416.661,502.614 424.584,504.443 476.244,472.162 	"/>
	<polygon class="st1" points="476.244,472.162 488.83,492.303 485.579,494.335 491.817,504.318 438.532,537.614 423.55,513.638 
		424.929,504.523 	"/>
	<polygon class="st1" points="423.55,513.638 417.189,517.613 415.6,515.069 383.939,534.852 400.511,561.372 438.532,537.614 	"/>
	
		<rect x="378.066" y="548.777" transform="matrix(0.848 -0.5299 0.5299 0.848 -236.9714 290.1681)" class="st1" width="18.833" height="19.031"/>
	
		<rect x="375.016" y="537.411" transform="matrix(0.848 -0.5299 0.5299 0.848 -230.0429 284.8075)" class="st1" width="13.167" height="12.241"/>
	<polygon class="st1" points="372.773,541.83 362.031,548.542 368.518,558.923 374.454,555.213 379.26,552.21 	"/>
	<polygon class="st1" points="362.031,548.542 349.028,556.667 332.58,559.28 333.25,572.619 348.306,571.552 368.518,558.923 	"/>
	<path class="st1" d="M362.723,562.544l9.907,15.854c0,0,4.838-2.637,7.385-4.222l4.523-2.826l-10.083-16.137L362.723,562.544z"/>
	<path class="st1" d="M372.63,578.398c0,0-12.207,6.018-21.718,7.532l-2.605-14.378l14.417-9.009L372.63,578.398z"/>
	<path class="st1" d="M350.911,585.93c0,0-11.056,1.996-16.654,2.02l-1.007-15.331l15.056-1.066L350.911,585.93z"/>
	<path class="st1" d="M332.58,559.28l-8.957-2.068l-3.934,30.103c0,0,8.129,1.062,14.568,0.634L332.58,559.28z"/>
	<path class="st1" d="M304.468,584.124l9.827-28.944l-9.46-2.245l-14.91-9.55l-6.607-8.057l-22.708,18.804
		C260.611,554.132,277.092,576.178,304.468,584.124z"/>
	<path class="st1" d="M260.611,554.132l22.708-18.804l-5.661-7.959l-21.373-34.205l-25.046,15.65l23.914,38.271
		C255.153,547.086,259.256,553.01,260.611,554.132z"/>
	<polygon class="st1" points="256.284,493.165 260.242,490.692 243.608,464.072 214.791,482.079 231.425,508.699 	"/>
	
		<rect x="246.371" y="459.087" transform="matrix(-0.5299 -0.848 0.848 -0.5299 1.4709 942.9053)" class="st1" width="31.389" height="23.917"/>
	
		<rect x="261.267" y="456.131" transform="matrix(-0.5299 -0.848 0.848 -0.5299 28.0466 934.725)" class="st1" width="23.639" height="6.917"/>
	
		<rect x="388.975" y="482.572" transform="matrix(0.848 -0.5299 0.5299 0.848 -203.8851 285.8618)" class="st1" width="15.083" height="31.75"/>
	<polygon class="st1" points="381.709,488.981 354.359,506.071 337.364,502.147 327.409,545.266 335.735,547.188 349.276,546.686 
		398.534,515.906 	"/>
	<polygon class="st1" points="374.995,493.176 350.249,487.463 346.378,504.228 354.359,506.071 	"/>
	<polygon class="st1" points="317.017,542.867 309.571,541.329 304.114,538.057 306.576,527.393 319.938,530.478 	"/>
	<polygon class="st1" points="319.938,530.478 322.543,519.194 309.378,515.773 306.646,527.41 	"/>
	<polygon class="st1" points="322.543,519.194 326.725,501.082 305.538,496.19 301.958,513.953 	"/>
	<polygon class="st1" points="301.738,514.091 288.841,522.15 297.792,533.801 304.114,538.057 309.378,515.773 	"/>
	<polygon class="st1" points="302.846,508.871 294.063,506.604 283.321,513.316 288.841,522.15 301.738,514.091 	"/>
	<polygon class="st1" points="317.997,499.067 322.266,480.579 309.678,477.733 305.538,496.19 	"/>
	<polygon class="st1" points="283.321,513.316 271.663,494.659 279.436,489.801 285.121,491.114 293.566,485.837 297.032,491.384 
		294.063,506.604 	"/>
	<polygon class="st1" points="295.599,498.731 304.547,500.862 302.846,508.871 294.063,506.604 	"/>
	
		<rect x="435.776" y="423.135" transform="matrix(-0.848 0.5299 -0.5299 -0.848 1052.5367 550.3771)" class="st1" width="23.167" height="5.917"/>
	
		<rect x="421.79" y="429.289" transform="matrix(0.848 -0.5299 0.5299 0.848 -164.9598 293.7106)" class="st3" width="15.75" height="10.417"/>
	
		<rect x="416.27" y="420.455" transform="matrix(0.848 -0.5299 0.5299 0.848 -161.1173 289.4431)" class="st3" width="15.75" height="10.417"/>
	
		<rect x="410.971" y="412.391" transform="matrix(0.848 -0.5299 0.5299 0.848 -157.4286 285.3464)" class="st3" width="15.75" height="9.583"/>
	<polygon class="st3" points="422.985,408.946 409.629,417.292 405.901,415.1 401.353,407.822 416.406,398.416 	"/>
	
		<rect x="399.827" y="389.226" transform="matrix(0.5299 0.848 -0.848 0.5299 528.3414 -156.9505)" class="st3" width="11.833" height="17.75"/>
	
		<rect x="390.548" y="377.524" transform="matrix(0.5299 0.848 -0.848 0.5299 513.4864 -158.6398)" class="st3" width="18.583" height="12.667"/>
	
		<rect x="401.021" y="438.865" transform="matrix(0.848 -0.5299 0.5299 0.848 -173.4276 283.5826)" class="st3" width="13.5" height="10.667"/>
	
		<rect x="397.056" y="428.553" transform="matrix(0.5299 0.848 -0.848 0.5299 558.2298 -136.4682)" class="st3" width="10.313" height="13.5"/>
	
		<rect x="391.432" y="419.719" transform="matrix(0.5299 0.848 -0.848 0.5299 548.1435 -135.9396)" class="st3" width="10.521" height="13.5"/>
	
		<rect x="380.854" y="438.206" transform="matrix(0.848 -0.5299 0.5299 0.848 -177.907 274.9979)" class="st2" width="19.417" height="19.021"/>
	
		<rect x="365.389" y="448.208" transform="matrix(0.848 -0.5299 0.5299 0.848 -185.6396 268.0354)" class="st2" width="18.333" height="19.021"/>
	
		<rect x="378.664" y="426.141" transform="matrix(-0.5299 -0.848 0.848 -0.5299 223.2763 987.5466)" class="st3" width="13.354" height="11.5"/>
	
		<rect x="366.721" y="431.021" transform="matrix(-0.5299 -0.848 0.848 -0.5299 198.675 988.8359)" class="st3" width="13.354" height="16.667"/>
	
		<rect x="352.587" y="439.853" transform="matrix(-0.5299 -0.848 0.848 -0.5299 169.5609 990.3618)" class="st3" width="13.354" height="16.667"/>
	
		<rect x="381.896" y="404.074" transform="matrix(-0.5299 -0.848 0.848 -0.5299 243.5527 956.6514)" class="st3" width="10.042" height="13.5"/>
	
		<rect x="376.574" y="395.558" transform="matrix(-0.5299 -0.848 0.848 -0.5299 242.6334 939.1102)" class="st3" width="10.042" height="13.5"/>
	<polygon class="st3" points="367.684,392.994 373.21,401.627 384.659,394.473 379.338,385.957 	"/>
	<polygon class="st1" points="356.224,400.155 361.656,408.847 373.21,401.627 367.684,392.994 	"/>
	
		<rect x="362.713" y="406.941" transform="matrix(-0.5299 -0.848 0.848 -0.5299 219.4015 949.1224)" class="st2" width="20.083" height="13.625"/>
	
		<rect x="357.825" y="417.856" transform="matrix(-0.5299 -0.848 0.848 -0.5299 197.4131 957.0989)" class="st3" width="12.292" height="11.958"/>
	
		<rect x="342.825" y="421.479" transform="matrix(-0.5299 -0.848 0.848 -0.5299 176.2684 952.6237)" class="st2" width="18.667" height="11.958"/>
	
		<rect x="332.821" y="395.553" transform="matrix(-0.5299 -0.848 0.848 -0.5299 176.8754 904.6708)" class="st1" width="12.701" height="15.521"/>
	
		<rect x="339.793" y="405.889" transform="matrix(-0.5299 -0.848 0.848 -0.5299 177.9911 925.9604)" class="st1" width="11.674" height="15.521"/>
	
		<rect x="325.67" y="384.549" transform="matrix(-0.5299 -0.848 0.848 -0.5299 175.6875 882.0046)" class="st1" width="13.25" height="15.521"/>
	
		<rect x="319.414" y="373.737" transform="matrix(-0.5299 -0.848 0.848 -0.5299 174.5203 859.7324)" class="st1" width="12.25" height="15.521"/>
	
		<rect x="312.922" y="363.348" transform="matrix(-0.5299 -0.848 0.848 -0.5299 173.3988 838.3336)" class="st1" width="12.25" height="15.521"/>
	
		<rect x="306.431" y="352.96" transform="matrix(-0.5299 -0.848 0.848 -0.5299 172.2773 816.9348)" class="st1" width="12.25" height="15.521"/>
	
		<rect x="315.413" y="415.243" transform="matrix(-0.5299 -0.848 0.848 -0.5299 132.7025 925.5851)" class="st3" width="14.938" height="21.542"/>
	<polygon class="st3" points="309.789,425.387 302.263,430.09 328.516,472.104 332.343,472.882 355.735,458.265 335.973,426.64 
		317.705,438.055 	"/>
	<polygon class="st1" points="328.516,472.104 302.816,466.594 300.774,463.326 316.78,453.323 	"/>
	
		<rect x="296.491" y="448.577" transform="matrix(0.5299 0.848 -0.848 0.5299 527.9645 -42.9453)" class="st1" width="12.458" height="12.375"/>
	<polygon class="st1" points="316.78,453.323 311.268,456.768 304.666,446.203 294.172,452.76 280.891,431.506 296.897,421.504 	"/>
	
		<rect x="277.245" y="417.11" transform="matrix(0.5299 0.848 -0.848 0.5299 492.037 -41.0624)" class="st1" width="11.625" height="12.375"/>
	
		<rect x="269.842" y="406.563" transform="matrix(0.5299 0.848 -0.848 0.5299 479.9938 -40.4312)" class="st1" width="13.25" height="12.375"/>
	
		<rect x="258.456" y="385.016" transform="matrix(0.848 -0.5299 0.5299 0.848 -168.4841 200.0824)" class="st4" width="12.375" height="17.625"/>
	
		<rect x="270.425" y="380.186" transform="matrix(0.5299 0.848 -0.848 0.5299 466.5058 -61.5808)" class="st0" width="36.75" height="19.646"/>
	
		<rect x="286.423" y="370.971" transform="matrix(0.5299 0.848 -0.848 0.5299 465.5485 -79.8472)" class="st0" width="36.75" height="18.083"/>
	
		<rect x="223.821" y="422.271" transform="matrix(-0.5299 -0.848 0.848 -0.5299 -3.5205 882.42)" class="st1" width="37.971" height="39.83"/>
	
		<rect x="204.144" y="390.316" transform="matrix(-0.5299 -0.848 0.848 -0.5299 -6.97 816.5983)" class="st1" width="37.39" height="39.83"/>
	
		<rect x="183.864" y="358.349" transform="matrix(-0.5299 -0.848 0.848 -0.5299 -10.4209 750.7512)" class="st1" width="38" height="39.83"/>
	
		<rect x="139.117" y="384.323" transform="matrix(-0.5299 -0.848 0.848 -0.5299 -66.8817 756.5565)" class="st0" width="74.25" height="24.984"/>
	
		<rect x="260.309" y="278.067" transform="matrix(-0.5299 -0.848 0.848 -0.5299 164.2964 664.9968)" class="st4" width="12.292" height="17.792"/>
	
		<rect x="246.46" y="256.371" transform="matrix(-0.5299 -0.848 0.848 -0.5299 161.9543 620.3068)" class="st4" width="12.875" height="17.792"/>
	
		<rect x="226.609" y="224.231" transform="matrix(-0.5299 -0.848 0.848 -0.5299 171.8687 575.5218)" class="st4" width="37.667" height="31.792"/>
	
		<rect x="249.418" y="214.874" transform="matrix(-0.5299 -0.848 0.848 -0.5299 218.8514 573.0596)" class="st4" width="37.667" height="22"/>
	
		<rect x="253.254" y="267.343" transform="matrix(-0.5299 -0.848 0.848 -0.5299 163.1387 642.9066)" class="st4" width="13" height="17.792"/>
	<polygon class="st4" points="274.312,214.815 288.199,206.138 291.975,212.18 296.851,209.133 286.363,192.349 267.6,204.073 	"/>
	<polygon class="st4" points="291.975,212.18 296.851,209.133 306.323,224.292 287.56,236.017 274.312,214.815 288.199,206.138 	"/>
	<polygon class="st4" points="306.323,224.292 321.8,214.621 315.905,205.187 321.841,201.477 318.264,195.753 296.851,209.133 	"/>
	
		<rect x="317.359" y="199.13" transform="matrix(-0.848 0.5299 -0.5299 -0.848 713.137 204.8971)" class="st4" width="19.667" height="11.125"/>
	
		<rect x="306.909" y="180.533" transform="matrix(0.5299 0.848 -0.848 0.5299 308.9823 -183.6855)" class="st4" width="26.542" height="12.667"/>
	
		<rect x="297.771" y="184.393" transform="matrix(0.5299 0.848 -0.848 0.5299 306.356 -171.2694)" class="st4" width="19.792" height="12.625"/>
	
		<rect x="287.065" y="191.083" transform="matrix(-0.5299 -0.848 0.848 -0.5299 286.9243 553.8367)" class="st4" width="19.792" height="12.625"/>
	<polygon class="st4" points="290.207,410.797 296.897,421.504 291.385,424.948 278.203,403.853 267.709,410.411 264.066,404.581 
		274.56,398.023 265.22,383.076 254.726,389.634 215.136,326.277 277.256,287.461 257.031,255.094 338.479,204.199 399.154,301.301 
		367.918,320.82 400.287,372.621 379.227,385.781 356.224,400.155 365.785,415.455 355.643,421.792 352.265,416.386 
		355.304,414.487 315.891,351.413 302.729,359.638 302.729,359.638 287.393,369.221 287.393,369.221 270.733,379.631 	"/>
	
		<rect x="352.648" y="247.491" transform="matrix(-0.5299 -0.848 0.848 -0.5299 365.6792 714.7649)" class="st4" width="56.583" height="17.083"/>
	<polygon class="st0" points="560.773,351.737 481.727,225.236 545.118,185.625 604.734,281.03 573.038,300.836 592.469,331.931 	
		"/>
	
		<rect x="551.455" y="335.322" transform="matrix(0.5299 0.848 -0.848 0.5299 552.6963 -315.1971)" class="st0" width="18.417" height="11.25"/>
	
		<rect x="485.751" y="220.856" transform="matrix(-0.848 0.5299 -0.5299 -0.848 1030.0029 164.7802)" class="st0" width="11.25" height="18.417"/>
	
		<rect x="523.375" y="187.476" transform="matrix(-0.5299 -0.848 0.848 -0.5299 645.0722 769.8962)" class="st1" width="25.083" height="37.375"/>
	
		<rect x="201.824" y="308.106" transform="matrix(0.5299 0.848 -0.848 0.5299 368.2053 -30.5472)" class="st1" width="19.667" height="17.5"/>
	
		<rect x="112.134" y="247.489" transform="matrix(0.5299 0.848 -0.848 0.5299 309.1273 -10.7022)" class="st5" width="104.167" height="52"/>
	<polygon class="st1" points="97.153,201.703 100.597,207.216 125.756,191.495 139.004,212.696 151.866,204.659 135.174,177.945 	
		"/>
	
		<rect x="142.419" y="206.536" transform="matrix(-0.5299 -0.848 0.848 -0.5299 46.1227 453.8042)" class="st1" width="12.833" height="15.167"/>
	<polygon class="st1" points="125.756,191.495 100.597,207.216 94.52,211.013 114.568,243.098 145.805,223.579 	"/>
	
		<rect x="42.191" y="184.391" transform="matrix(0.5299 0.848 -0.848 0.5299 191.3656 48.8621)" class="st0" width="18.834" height="25.314"/>
	
		<rect x="133.193" y="323.901" transform="matrix(0.5299 0.848 -0.848 0.5299 354.332 38.2176)" class="st2" width="19" height="29.647"/>
	
		<rect x="102.088" y="296.128" transform="matrix(0.5299 0.848 -0.848 0.5299 322.6205 39.8796)" class="st1" width="46.5" height="29.647"/>
	
		<rect x="78.02" y="257.012" transform="matrix(0.5299 0.848 -0.848 0.5299 277.9581 42.2202)" class="st1" width="45.75" height="29.647"/>
	
		<rect x="142.928" y="340.615" transform="matrix(0.5299 0.848 -0.848 0.5299 373.4154 37.2175)" class="st2" width="20.417" height="29.647"/>
	
		<rect x="85.564" y="235.833" transform="matrix(-0.5299 -0.848 0.848 -0.5299 -66.3856 450.2855)" class="st1" width="12.083" height="15.417"/>
	<polygon class="st1" points="94.941,234.333 89.245,225.217 64.103,240.927 76.203,260.291 88.27,252.75 81.867,242.503 	"/>
	
		<rect x="64.626" y="211.57" transform="matrix(0.5299 0.848 -0.848 0.5299 226.0739 44.9394)" class="st1" width="15.75" height="29.647"/>
	<polygon class="st0" points="270.779,27.765 195.727,74.663 216.129,107.313 196.836,119.369 216.178,150.322 310.523,91.369 	"/>
	<polygon class="st1" points="196.836,119.369 228.425,99.629 233.327,107.473 227.179,111.315 236.187,125.732 242.336,121.89 
		247.767,130.583 216.178,150.322 	"/>
	
		<rect x="116.966" y="238.771" transform="matrix(0.5299 0.848 -0.848 0.5299 269.704 8.2341)" class="st1" width="20.917" height="17.25"/>
	<path class="st1" d="M291.385,375.609l-3.992,2.655c0,0-9.755,6.882-4.923,20.152l7.737,12.381l16.661-10.411L291.385,375.609z"/>
	<polygon class="st3" points="290.207,410.797 302.263,430.09 328.058,413.972 334.288,410.143 322.203,390.804 	"/>
</g>
<g id="murs">
	<line class="st6" x1="681.25" y1="730.732" x2="688.883" y2="725.963"/>
	<line class="st6" x1="610.101" y1="599.887" x2="612.486" y2="603.703"/>
	<line class="st6" x1="619.77" y1="615.36" x2="617.454" y2="611.653"/>
	<line class="st6" x1="590.314" y1="540.543" x2="588.658" y2="537.893"/>
	<line class="st6" x1="581.258" y1="526.05" x2="583.127" y2="529.041"/>
	<polyline class="st6" points="426.209,414.105 435.968,429.723 457.612,416.199 	"/>
	<polyline class="st6" points="403.835,450.637 406.595,455.054 394.935,462.341 	"/>
	<polyline class="st6" points="371.821,470.642 374.581,475.059 384.899,468.611 	"/>
	<polyline class="st6" points="374.581,475.059 364.476,481.374 346.677,477.264 345.484,475.356 	"/>
	<line class="st6" x1="523.182" y1="221.049" x2="508.023" y2="230.521"/>
	<line class="st6" x1="582.709" y1="316.313" x2="567.55" y2="325.785"/>
	<line class="st6" x1="94.52" y1="211.013" x2="89.82" y2="213.95"/>
	<line class="st6" x1="71.007" y1="196.03" x2="76.792" y2="205.288"/>
	<polyline class="st6" points="209.447,329.832 180.19,348.115 177.783,344.263 	"/>
	<line class="st6" x1="169.768" y1="331.436" x2="173.014" y2="336.631"/>
	<polyline class="st6" points="278.297,111.506 268.626,96.029 242.337,112.456 	"/>
	<line class="st6" x1="416.322" y1="445.144" x2="424.145" y2="440.601"/>
</g>
</svg>
