<?xml version="1.0" encoding="utf-8"?>
<!-- Generator: Adobe Illustrator 19.0.1, SVG Export Plug-In . SVG Version: 6.00 Build 0)  -->
<svg version="1.1" id="icones" xmlns="http://www.w3.org/2000/svg" xmlns:xlink="http://www.w3.org/1999/xlink" x="0px" y="0px"
	 viewBox="0 0 602.97 520.474" style="enable-background:new 0 0 602.97 520.474;" xml:space="preserve">
<style type="text/css">
	.st0{fill:#1D1D1B;}
	.st1{fill:#FFFFFF;}
</style>
<g>
	<path class="st0" d="M458.495,301.912h-7.594c-1.034,0-1.872-0.838-1.872-1.872v-7.594c0-1.034,0.838-1.872,1.872-1.872h7.594
		c1.034,0,1.872,0.838,1.872,1.872v7.594C460.367,301.074,459.529,301.912,458.495,301.912z"/>
	<polygon class="st1" points="454.698,292.545 454.698,295.01 452.611,295.01 452.611,297.475 450.524,297.475 450.524,299.94 
		454.698,299.94 454.698,297.475 456.785,297.475 456.785,295.01 458.872,295.01 458.872,292.545 	"/>
</g>
<g>
	<path class="st0" d="M368.809,359.522h-7.594c-1.034,0-1.872-0.838-1.872-1.872v-7.594c0-1.034,0.838-1.872,1.872-1.872h7.594
		c1.034,0,1.872,0.838,1.872,1.872v7.594C370.681,358.684,369.843,359.522,368.809,359.522z"/>
	<polygon class="st1" points="365.012,350.156 365.012,352.621 362.925,352.621 362.925,355.086 360.838,355.086 360.838,357.551 
		365.012,357.551 365.012,355.086 367.099,355.086 367.099,352.621 369.186,352.621 369.186,350.156 	"/>
</g>
<g>
	<path class="st0" d="M324.53,461.969h-7.594c-1.034,0-1.872-0.838-1.872-1.872v-7.594c0-1.034,0.838-1.872,1.872-1.872h7.594
		c1.034,0,1.872,0.838,1.872,1.872v7.594C326.402,461.13,325.564,461.969,324.53,461.969z"/>
	<polygon class="st1" points="320.733,452.602 320.733,455.067 318.646,455.067 318.646,457.532 316.558,457.532 316.558,459.997 
		320.733,459.997 320.733,457.532 322.82,457.532 322.82,455.067 324.907,455.067 324.907,452.602 	"/>
</g>
<g>
	<path class="st0" d="M201.023,221.059h-7.594c-1.034,0-1.872-0.838-1.872-1.872v-7.594c0-1.034,0.838-1.872,1.872-1.872h7.594
		c1.034,0,1.872,0.838,1.872,1.872v7.594C202.895,220.22,202.057,221.059,201.023,221.059z"/>
	<polygon class="st1" points="197.226,211.692 197.226,214.157 195.138,214.157 195.138,216.622 193.051,216.622 193.051,219.087 
		197.226,219.087 197.226,216.622 199.313,216.622 199.313,214.157 201.4,214.157 201.4,211.692 	"/>
</g>
<g>
	<path class="st0" d="M95.165,91.674h-7.594c-1.034,0-1.872-0.838-1.872-1.872v-7.594c0-1.034,0.838-1.872,1.872-1.872h7.594
		c1.034,0,1.872,0.838,1.872,1.872v7.594C97.038,90.836,96.199,91.674,95.165,91.674z"/>
	<polygon class="st1" points="91.368,82.307 91.368,84.772 89.281,84.772 89.281,87.237 87.194,87.237 87.194,89.702 91.368,89.702 
		91.368,87.237 93.455,87.237 93.455,84.772 95.542,84.772 95.542,82.307 	"/>
</g>
<g>
	<g>
		<path class="st0" d="M166.363,231.023h-7.594c-1.034,0-1.872-0.838-1.872-1.872v-7.594c0-1.034,0.838-1.872,1.872-1.872h7.594
			c1.034,0,1.872,0.838,1.872,1.872v7.594C168.235,230.185,167.397,231.023,166.363,231.023z"/>
		<g>
			<path class="st1" d="M161.097,229.945h-2.058c-0.517,0-0.936-0.419-0.936-0.936v-7.311c0-0.517,0.419-0.936,0.936-0.936h2.058
				c0.517,0,0.936,0.419,0.936,0.936v7.311C162.033,229.526,161.614,229.945,161.097,229.945z"/>
			<path class="st1" d="M166.093,229.945h-2.058c-0.517,0-0.936-0.419-0.936-0.936v-7.311c0-0.517,0.419-0.936,0.936-0.936h2.058
				c0.517,0,0.936,0.419,0.936,0.936v7.311C167.029,229.526,166.61,229.945,166.093,229.945z"/>
		</g>
	</g>
	<path class="st0" d="M161.552,224.691l-1.444-1.444c-0.061-0.061-0.159-0.061-0.22,0l-1.444,1.444
		c-0.098,0.098-0.029,0.265,0.11,0.265h0.849v2.19c0,0.199,0.161,0.36,0.36,0.36h0.471c0.199,0,0.36-0.161,0.36-0.36v-2.19h0.849
		C161.58,224.956,161.65,224.789,161.552,224.691z"/>
	<path class="st0" d="M163.51,226.016l1.444,1.444c0.061,0.061,0.159,0.061,0.22,0l1.444-1.444c0.098-0.098,0.029-0.265-0.11-0.265
		h-0.849v-2.19c0-0.199-0.161-0.36-0.36-0.36h-0.471c-0.199,0-0.36,0.161-0.36,0.36v2.19h-0.849
		C163.481,225.751,163.412,225.918,163.51,226.016z"/>
</g>
<g>
	<g>
		<path class="st0" d="M309.918,390.645h-7.594c-1.034,0-1.872-0.838-1.872-1.872v-7.594c0-1.034,0.838-1.872,1.872-1.872h7.594
			c1.034,0,1.872,0.838,1.872,1.872v7.594C311.79,389.807,310.951,390.645,309.918,390.645z"/>
		<g>
			<path class="st1" d="M304.651,389.567h-2.058c-0.517,0-0.936-0.419-0.936-0.936v-7.311c0-0.517,0.419-0.936,0.936-0.936h2.058
				c0.517,0,0.936,0.419,0.936,0.936v7.311C305.587,389.148,305.168,389.567,304.651,389.567z"/>
			<path class="st1" d="M309.648,389.567h-2.058c-0.517,0-0.936-0.419-0.936-0.936v-7.311c0-0.517,0.419-0.936,0.936-0.936h2.058
				c0.517,0,0.936,0.419,0.936,0.936v7.311C310.584,389.148,310.165,389.567,309.648,389.567z"/>
		</g>
	</g>
	<path class="st0" d="M305.106,384.313l-1.444-1.444c-0.061-0.061-0.159-0.061-0.22,0l-1.444,1.444
		c-0.098,0.098-0.029,0.265,0.11,0.265h0.849v2.19c0,0.199,0.161,0.36,0.36,0.36h0.471c0.199,0,0.36-0.161,0.36-0.36v-2.19h0.849
		C305.135,384.579,305.204,384.411,305.106,384.313z"/>
	<path class="st0" d="M307.064,385.638l1.444,1.444c0.061,0.061,0.159,0.061,0.22,0l1.444-1.444c0.098-0.098,0.029-0.265-0.11-0.265
		h-0.849v-2.19c0-0.199-0.161-0.36-0.36-0.36h-0.471c-0.199,0-0.36,0.161-0.36,0.36v2.19h-0.849
		C307.036,385.373,306.966,385.541,307.064,385.638z"/>
</g>
<g>
	<path class="st0" d="M384.484,348.295h-7.594c-1.034,0-1.872-0.838-1.872-1.872v-7.594c0-1.034,0.838-1.872,1.872-1.872h7.594
		c1.034,0,1.872,0.838,1.872,1.872v7.594C386.356,347.457,385.518,348.295,384.484,348.295z"/>
	<g>
		<circle class="st1" cx="380.687" cy="338.72" r="0.779"/>
		<path class="st1" d="M382.798,342.546l-0.668-2.199c-0.13-0.389-0.518-0.695-1.084-0.695h-0.718c-0.567,0-0.955,0.306-1.085,0.695
			l-0.668,2.199c-0.138,0.473,0.408,0.641,0.551,0.199l0.705-2.011h0.081c0,0-0.926,3.6-0.965,3.735
			c-0.02,0.067,0.008,0.116,0.08,0.116c0.044,0,0.802,0,0.802,0l0.001,2.364c0,0.481,0.72,0.481,0.72,0v-2.382h0.276l0,2.382
			c0,0.481,0.72,0.481,0.72,0l0-2.364c0,0,0.757,0,0.801,0c0.071,0,0.1-0.049,0.08-0.116c-0.039-0.135-0.966-3.735-0.966-3.735
			h0.082l0.705,2.011C382.391,343.186,382.937,343.018,382.798,342.546z"/>
	</g>
</g>
<g>
	<path class="st0" d="M148.498,231.834h-7.594c-1.034,0-1.872-0.838-1.872-1.872v-7.594c0-1.034,0.838-1.872,1.872-1.872h7.594
		c1.034,0,1.872,0.838,1.872,1.872v7.594C150.37,230.995,149.532,231.834,148.498,231.834z"/>
	<g>
		<circle class="st1" cx="144.702" cy="222.259" r="0.779"/>
		<path class="st1" d="M146.813,226.084l-0.668-2.199c-0.13-0.389-0.518-0.695-1.084-0.695h-0.718c-0.567,0-0.955,0.306-1.085,0.695
			l-0.668,2.199c-0.138,0.473,0.408,0.641,0.551,0.199l0.705-2.011h0.081c0,0-0.926,3.6-0.965,3.735
			c-0.02,0.067,0.008,0.116,0.08,0.116c0.044,0,0.801,0,0.801,0l0.001,2.364c0,0.481,0.72,0.481,0.72,0v-2.382h0.276l0,2.382
			c0,0.481,0.72,0.481,0.72,0l0-2.364c0,0,0.757,0,0.801,0c0.071,0,0.1-0.049,0.08-0.116c-0.039-0.135-0.966-3.735-0.966-3.735
			h0.082l0.705,2.011C146.405,226.725,146.951,226.557,146.813,226.084z"/>
	</g>
</g>
<g>
	<path class="st0" d="M400.632,337.961h-7.594c-1.034,0-1.872-0.838-1.872-1.872v-7.594c0-1.034,0.838-1.872,1.872-1.872h7.594
		c1.034,0,1.872,0.838,1.872,1.872v7.594C402.504,337.123,401.666,337.961,400.632,337.961z"/>
	<g>
		<circle class="st1" cx="396.835" cy="328.342" r="0.787"/>
		<path class="st1" d="M397.682,329.285l-0.847,0.001l-0.846-0.001c-0.759,0-1.006,0.196-1.006,1.022v2.417
			c0,0.469,0.634,0.469,0.634,0l0.054-2.21h0.163v6.051c0,0.628,0.862,0.61,0.862,0l0.055-3.513h0.171l0.054,3.513
			c0,0.61,0.862,0.628,0.862,0v-6.051h0.163l0.055,2.21c0,0.469,0.633,0.469,0.633,0v-2.417
			C398.687,329.48,398.44,329.285,397.682,329.285z"/>
	</g>
</g>
<g>
	<path class="st0" d="M158.53,247.581h-7.594c-1.034,0-1.872-0.838-1.872-1.872v-7.594c0-1.034,0.838-1.872,1.872-1.872h7.594
		c1.034,0,1.872,0.838,1.872,1.872v7.594C160.402,246.742,159.564,247.581,158.53,247.581z"/>
	<g>
		<circle class="st1" cx="154.733" cy="237.962" r="0.787"/>
		<path class="st1" d="M155.579,238.904l-0.847,0.001l-0.846-0.001c-0.759,0-1.006,0.196-1.006,1.022v2.417
			c0,0.469,0.634,0.469,0.634,0l0.054-2.21h0.163v6.051c0,0.628,0.862,0.61,0.862,0l0.055-3.513h0.171l0.054,3.513
			c0,0.61,0.862,0.628,0.862,0v-6.051h0.163l0.055,2.21c0,0.469,0.633,0.469,0.633,0v-2.417
			C156.584,239.099,156.338,238.904,155.579,238.904z"/>
	</g>
</g>
</svg>
