<?xml version="1.0" encoding="utf-8"?>
<!-- Generator: Adobe Illustrator 19.0.1, SVG Export Plug-In . SVG Version: 6.00 Build 0)  -->
<svg version="1.1" xmlns="http://www.w3.org/2000/svg" xmlns:xlink="http://www.w3.org/1999/xlink" x="0px" y="0px"
	 viewBox="0 0 602.97 520.474" style="enable-background:new 0 0 602.97 520.474;" xml:space="preserve">
<style type="text/css">
	.st0{fill:#FFFFFF;stroke:#383938;stroke-width:0.5;stroke-miterlimit:10;}
	.st1{fill:#ECF0F2;stroke:#383938;stroke-width:0.5;stroke-miterlimit:10;}
	.st2{fill:#C0D9E0;stroke:#383938;stroke-width:0.5;stroke-miterlimit:10;}
	.st3{fill:none;stroke:#383938;stroke-width:0.5;stroke-miterlimit:10;}
	.st4{fill:#C6E4E2;stroke:#383938;stroke-width:0.5;stroke-miterlimit:10;}
	.st5{fill:none;stroke:#383938;stroke-width:0.5;stroke-miterlimit:10;stroke-dasharray:2;}
</style>
<g id="locaux">
	<path class="st0" d="M476.863,301.236l-13.577-21.727l-30.577,19.107l-65.3,40.804l-98.413-157.494l-37.879,23.67L142.003,62.982
		l-38.088,23.8L93.494,70.104l-17.204,10.75l10.073,16.121L62.237,112.05l76.107,122.004l13.263,21.225l21.281-13.298
		l69.905,111.872l-21.188,13.239c0,0,32.455,52.872,40.563,64.914c33.206,49.318,90.86,47.928,122.82,28.355
		c6.046-3.703,143.652-89.763,143.652-89.763l-38.557-61.704l-6.066,3.791L476.863,301.236z"/>
	<polygon class="st1" points="480.436,314.923 465.965,323.965 479.375,345.426 491.434,337.89 503.493,330.355 490.083,308.894 	
		"/>
	<polygon class="st1" points="479.375,345.426 488.207,359.56 481.705,363.623 498.035,389.756 528.655,370.622 503.493,330.355 	
		"/>
	
		<rect x="464.459" y="368.568" transform="matrix(0.848 -0.5299 0.5299 0.848 -130.8114 311.7583)" class="st1" width="27.5" height="30.816"/>
	<polygon class="st1" points="458.384,378.196 441.847,388.529 429.445,385.666 416.3,393.88 437.4,427.645 474.714,404.329 	"/>
	
		<rect x="441.143" y="335.411" transform="matrix(0.5299 0.848 -0.848 0.5299 510.1376 -223.8235)" class="st1" width="31.639" height="25.667"/>
	<polygon class="st1" points="452.871,381.64 430.629,346.045 398.828,365.917 416.3,393.88 429.445,385.666 441.847,388.529 	"/>
	
		<rect x="409.984" y="404.691" transform="matrix(0.848 -0.5299 0.5299 0.848 -158.7377 286.6133)" class="st1" width="20.833" height="30.816"/>
	<path class="st1" d="M403.402,412.552l-34.77,21.727l12.102,28.499c0,0,4.376-2.442,6.772-3.955l32.226-20.137L403.402,412.552z"/>
	<path class="st1" d="M368.632,434.279l-8.834,5.52l-18.029,4.486l-11.677-2.333l-3.913,30.36c0,0,28.101,4.44,54.555-9.533
		L368.632,434.279z"/>
	<path class="st1" d="M320.773,439.618l-14.371-3.499l-14-12.182l-4.372-6.996l-22.456,19.836c0,0,16.482,24.025,45.595,32.347
		L320.773,439.618z"/>
	<path class="st1" d="M288.03,416.94l-17.355-27.774l-25.553,15.967l13.734,21.979c0,0,3.409,5.451,6.718,9.664L288.03,416.94z"/>
	
		<rect x="223.779" y="363.172" transform="matrix(0.5299 0.848 -0.848 0.5299 436.3779 -30.9873)" class="st1" width="44.723" height="29.916"/>
	
		<rect x="446.382" y="306.279" transform="matrix(0.5299 0.848 -0.848 0.5299 477.8908 -233.6635)" class="st1" width="6.667" height="15.917"/>
	
		<rect x="414.52" y="304.534" transform="matrix(-0.5299 -0.848 0.848 -0.5299 384.8636 847.4841)" class="st1" width="25.593" height="25.083"/>
	
		<rect x="398.795" y="320.901" transform="matrix(-0.5299 -0.848 0.848 -0.5299 352.4742 849.1816)" class="st1" width="25.593" height="12"/>
	
		<rect x="387.08" y="323.035" transform="matrix(-0.5299 -0.848 0.848 -0.5299 325.1197 845.2873)" class="st2" width="19.509" height="19"/>
	
		<rect x="370.932" y="333.084" transform="matrix(-0.5299 -0.848 0.848 -0.5299 291.8569 847.0305)" class="st2" width="19.509" height="19.083"/>
	<polygon class="st1" points="390.085,373.313 362.099,390.801 359.343,399.598 372.149,420.093 406.848,398.41 390.862,372.827 	
		"/>
	<polygon class="st1" points="382.029,378.347 356.852,372.535 353.087,388.841 362.099,390.801 	"/>
	<polygon class="st1" points="372.149,420.093 358.156,428.836 342.15,432.156 335.614,421.697 336.233,417.969 361.109,402.425 	
		"/>
	<polygon class="st1" points="357.858,404.456 361.109,402.425 359.343,399.598 362.099,390.801 353.087,388.841 343.585,386.647 
		340.298,400.886 	"/>
	<polygon class="st1" points="340.298,400.886 336.348,417.996 357.858,404.456 	"/>
	<polygon class="st1" points="342.15,432.156 333.162,430.501 335.614,421.697 	"/>
	<polygon class="st1" points="322.002,426.96 327.913,404.498 307.306,399.982 300.121,407.984 296.588,410.192 300.352,416.217 
		310.139,424.645 	"/>
	<polygon class="st1" points="307.306,399.982 304.386,399.399 300.831,393.71 290.372,400.245 296.588,410.192 300.121,407.984 	
		"/>
	<polygon class="st1" points="327.913,404.498 332.464,384.261 324.294,382.193 323.543,384.923 311.238,382.687 310.018,389.541 
		308.693,395.283 300.831,393.71 304.386,399.399 	"/>
	<polygon class="st1" points="324.294,382.193 328.094,366.258 315.232,363.289 311.238,382.687 323.543,384.923 	"/>
	
		<rect x="281.288" y="368.564" transform="matrix(0.848 -0.5299 0.5299 0.848 -159.7774 210.6678)" class="st1" width="12.333" height="30.75"/>
	<polygon class="st1" points="300.831,393.71 303.801,376.132 288.025,373.215 	"/>
	<polygon class="st1" points="301.48,375.703 303.028,368.999 297.221,359.706 284.536,367.632 288.025,373.215 	"/>
	<polygon class="st1" points="310.753,385.413 302.493,383.877 300.831,393.71 308.693,395.283 	"/>
	
		<rect x="252.185" y="346.185" transform="matrix(-0.848 0.5299 -0.5299 -0.848 667.127 524.2979)" class="st1" width="12.417" height="23.223"/>
	
		<rect x="262.715" y="339.606" transform="matrix(-0.848 0.5299 -0.5299 -0.848 683.1 506.5581)" class="st1" width="12.417" height="23.223"/>
	
		<rect x="273.179" y="332.794" transform="matrix(-0.848 0.5299 -0.5299 -0.848 699.6356 488.1935)" class="st1" width="13.291" height="23.223"/>
	
		<rect x="323.469" y="315.44" transform="matrix(0.848 -0.5299 0.5299 0.848 -124.8792 231.9487)" class="st1" width="37.083" height="36.574"/>
	<polygon class="st1" points="335.977,359.061 310.388,353.116 307.488,348.475 323.22,338.645 	"/>
	
		<rect x="305.792" y="328.984" transform="matrix(0.5299 0.848 -0.848 0.5299 433.5457 -105.6172)" class="st1" width="12.5" height="18.551"/>
	<polygon class="st1" points="300.864,337.875 297.375,332.292 313.108,322.461 296.724,296.243 328.157,276.601 348.029,308.403 	
		"/>
	
		<rect x="291.345" y="310.398" transform="matrix(0.5299 0.848 -0.848 0.5299 412.324 -104.5051)" class="st1" width="18.167" height="18.551"/>
	
		<rect x="276.172" y="291.918" transform="matrix(0.5299 0.848 -0.848 0.5299 391.2233 -103.3992)" class="st1" width="25.417" height="18.551"/>
	
		<rect x="268.185" y="273.402" transform="matrix(0.5299 0.848 -0.848 0.5299 370.0823 -102.2913)" class="st1" width="18.25" height="18.551"/>
	
		<rect x="255.026" y="252.342" transform="matrix(0.5299 0.848 -0.848 0.5299 346.0364 -101.0311)" class="st1" width="18.25" height="18.551"/>
	
		<rect x="249.753" y="239.303" transform="matrix(0.5299 0.848 -0.848 0.5299 331.149 -100.2509)" class="st1" width="12.5" height="18.551"/>
	<polygon class="st1" points="264.609,279.854 261.12,274.271 308.285,244.799 328.157,276.601 296.724,296.243 280.341,270.024 	
		"/>
	<polygon class="st1" points="244.825,248.194 241.336,242.611 288.501,213.139 308.285,244.799 276.852,264.441 260.557,238.363 	
		"/>
	<polygon class="st1" points="241.336,242.611 238.245,237.664 253.977,227.833 237.564,201.567 268.997,181.926 288.501,213.139 	
		"/>
	
		<rect x="236.868" y="218.35" transform="matrix(0.5299 0.848 -0.848 0.5299 307.2241 -98.997)" class="st1" width="12.083" height="18.551"/>
	<polygon class="st1" points="231.842,227.417 228.221,221.622 231.303,219.696 224.914,209.472 237.564,201.567 247.574,217.586 	
		"/>
	
		<rect x="229.482" y="307.46" transform="matrix(0.5299 0.848 -0.848 0.5299 394.332 -57.4594)" class="st1" width="39.027" height="39.015"/>
	
		<rect x="210.352" y="275.222" transform="matrix(0.5299 0.848 -0.848 0.5299 357.5237 -55.5304)" class="st1" width="37" height="39.015"/>
	
		<rect x="190.426" y="243.668" transform="matrix(0.5299 0.848 -0.848 0.5299 321.4952 -53.6422)" class="st1" width="37.417" height="39.015"/>
	
		<rect x="216.375" y="197.424" transform="matrix(0.5299 0.848 -0.848 0.5299 279.0972 -90.1755)" class="st1" width="9.028" height="18.481"/>
	
		<rect x="210.529" y="189.179" transform="matrix(0.5299 0.848 -0.848 0.5299 269.6834 -89.6822)" class="st0" width="10.417" height="18.481"/>
	
		<rect x="181.489" y="148.966" transform="matrix(0.848 -0.5299 0.5299 0.848 -62.8722 130.0863)" class="st1" width="27.815" height="51.417"/>
	
		<rect x="162.874" y="170.362" transform="matrix(0.848 -0.5299 0.5299 0.848 -75.1304 122.0472)" class="st1" width="24.75" height="43.333"/>
	
		<rect x="135.436" y="126.092" transform="matrix(0.848 -0.5299 0.5299 0.848 -54.942 102.5779)" class="st1" width="31.917" height="42"/>
	
		<rect x="161.174" y="104.541" transform="matrix(0.848 -0.5299 0.5299 0.848 -42.6531 110.5828)" class="st1" width="20.648" height="50.25"/>
	
		<rect x="123.995" y="68.146" transform="matrix(0.848 -0.5299 0.5299 0.848 -27.2326 88.3761)" class="st1" width="32.981" height="47.056"/>
	<polygon class="st1" points="138.969,120.365 122.361,130.743 100.105,95.125 106.594,91.07 103.915,86.782 114.033,80.46 	"/>
	
		<rect x="479.546" y="373.743" transform="matrix(0.5299 0.848 -0.848 0.5299 550.0125 -232.3458)" class="st1" width="10.083" height="12.417"/>
	
		<rect x="65.416" y="106.315" transform="matrix(0.5299 0.848 -0.848 0.5299 141.8577 -14.8396)" class="st1" width="37.796" height="28.448"/>
	
		<rect x="85.574" y="138.137" transform="matrix(0.5299 0.848 -0.848 0.5299 178.191 -16.7438)" class="st1" width="37.25" height="28.448"/>
	<polygon class="st1" points="126.131,160.618 138.275,180.052 128.071,186.429 135.755,198.725 121.834,207.424 102.006,175.693 	
		"/>
	
		<rect x="129.548" y="193.507" transform="matrix(-0.5299 -0.848 0.848 -0.5299 36.1839 435.5193)" class="st1" width="18.5" height="28.448"/>
	
		<rect x="135.451" y="216.233" transform="matrix(-0.5299 -0.848 0.848 -0.5299 29.843 468.257)" class="st2" width="18.5" height="19.249"/>
	
		<rect x="145.052" y="232.287" transform="matrix(-0.5299 -0.848 0.848 -0.5299 31.576 501.3255)" class="st2" width="19.361" height="19.249"/>
	<polygon class="st1" points="162.773,225.591 166.053,230.849 161.069,233.89 157.765,228.602 	"/>
	
		<rect x="129.765" y="183.373" transform="matrix(-0.5299 -0.848 0.848 -0.5299 49.0111 405.9451)" class="st1" width="14.5" height="12.032"/>
</g>
<g id="murs">
	<line class="st3" x1="454.698" y1="307.193" x2="464.451" y2="301.099"/>
	<line class="st3" x1="413.284" y1="340.932" x2="401.977" y2="347.998"/>
	<polyline class="st3" points="377.764,355.955 380.988,361.114 391.659,354.445 	"/>
	<polyline class="st3" points="380.988,361.114 371.942,366.766 353.454,362.498 351.953,360.095 	"/>
	<polyline class="st3" points="215.445,215.389 186.752,233.318 183.779,228.56 	"/>
	<line class="st3" x1="100.105" y1="95.125" x2="95.97" y2="97.708"/>
	<line class="st4" x1="157.765" y1="228.602" x2="165.566" y2="223.727"/>
	<line class="st5" x1="220.814" y1="189.106" x2="210.661" y2="207.733"/>
	<line class="st5" x1="226.334" y1="197.94" x2="205.141" y2="198.9"/>
	<line class="st3" x1="155.762" y1="208.038" x2="160.402" y2="215.389"/>
</g>
</svg>
