<?xml version="1.0" encoding="utf-8"?>
<!-- Generator: Adobe Illustrator 19.0.1, SVG Export Plug-In . SVG Version: 6.00 Build 0)  -->
<svg version="1.1" id="textes" xmlns="http://www.w3.org/2000/svg" xmlns:xlink="http://www.w3.org/1999/xlink" x="0px" y="0px"
	 viewBox="0 0 922.454 992.95" style="enable-background:new 0 0 922.454 992.95;" xml:space="preserve">
<style type="text/css">
	.st0{fill:#FFFFFF;}
</style>
<g>
	<path d="M393.207,211.534h-105.47c-1.388,0-2.513-1.125-2.513-2.513V197.75c0-1.388,1.125-2.513,2.513-2.513h105.47
		c1.388,0,2.513,1.125,2.513,2.513v11.271C395.721,210.409,394.595,211.534,393.207,211.534z"/>
	<g>
		<path class="st0" d="M293.929,205.827c-0.288,0.144-0.863,0.288-1.6,0.288c-1.708,0-2.993-1.079-2.993-3.064
			c0-1.896,1.285-3.182,3.164-3.182c0.755,0,1.231,0.162,1.438,0.27l-0.189,0.638c-0.296-0.144-0.719-0.252-1.222-0.252
			c-1.42,0-2.364,0.908-2.364,2.499c0,1.483,0.854,2.436,2.328,2.436c0.477,0,0.962-0.099,1.276-0.251L293.929,205.827z"/>
		<path class="st0" d="M298.722,203.814c0,1.609-1.115,2.31-2.166,2.31c-1.178,0-2.085-0.863-2.085-2.238
			c0-1.456,0.953-2.31,2.157-2.31C297.876,201.576,298.722,202.483,298.722,203.814z M295.27,203.858
			c0,0.953,0.548,1.672,1.321,1.672c0.755,0,1.321-0.71,1.321-1.69c0-0.737-0.369-1.671-1.303-1.671S295.27,203.032,295.27,203.858z
			"/>
		<path class="st0" d="M299.722,202.852c0-0.45-0.009-0.818-0.036-1.178h0.701l0.045,0.719h0.018
			c0.215-0.414,0.719-0.818,1.438-0.818c0.602,0,1.537,0.359,1.537,1.852v2.597h-0.791v-2.507c0-0.701-0.261-1.285-1.006-1.285
			c-0.521,0-0.926,0.368-1.061,0.809c-0.036,0.099-0.054,0.234-0.054,0.369v2.615h-0.791V202.852z"/>
		<path class="st0" d="M308.469,199.644v5.257c0,0.387,0.009,0.827,0.036,1.124h-0.71l-0.036-0.755h-0.018
			c-0.243,0.485-0.773,0.854-1.483,0.854c-1.052,0-1.861-0.89-1.861-2.21c-0.009-1.447,0.89-2.337,1.951-2.337
			c0.665,0,1.114,0.314,1.312,0.665h0.018v-2.597H308.469z M307.678,203.445c0-0.099-0.009-0.233-0.036-0.333
			c-0.117-0.503-0.548-0.917-1.142-0.917c-0.817,0-1.303,0.719-1.303,1.681c0,0.881,0.431,1.609,1.285,1.609
			c0.53,0,1.016-0.351,1.159-0.944c0.027-0.108,0.036-0.216,0.036-0.341V203.445z"/>
		<path class="st0" d="M310.664,200.452c0.009,0.27-0.188,0.485-0.503,0.485c-0.279,0-0.477-0.216-0.477-0.485
			c0-0.278,0.207-0.494,0.495-0.494C310.476,199.958,310.664,200.174,310.664,200.452z M309.784,206.024v-4.35h0.791v4.35H309.784z"
			/>
		<path class="st0" d="M312.84,200.425v1.249h1.132v0.603h-1.132v2.346c0,0.539,0.153,0.845,0.593,0.845
			c0.207,0,0.359-0.027,0.458-0.054l0.036,0.593c-0.153,0.063-0.396,0.108-0.701,0.108c-0.368,0-0.665-0.117-0.854-0.333
			c-0.225-0.234-0.306-0.62-0.306-1.132v-2.373h-0.674v-0.603h0.674v-1.042L312.84,200.425z"/>
		<path class="st0" d="M315.744,200.452c0.009,0.27-0.188,0.485-0.503,0.485c-0.279,0-0.477-0.216-0.477-0.485
			c0-0.278,0.207-0.494,0.495-0.494C315.556,199.958,315.744,200.174,315.744,200.452z M314.864,206.024v-4.35h0.791v4.35H314.864z"
			/>
		<path class="st0" d="M320.904,203.814c0,1.609-1.115,2.31-2.166,2.31c-1.178,0-2.085-0.863-2.085-2.238
			c0-1.456,0.953-2.31,2.157-2.31C320.059,201.576,320.904,202.483,320.904,203.814z M317.453,203.858
			c0,0.953,0.548,1.672,1.321,1.672c0.755,0,1.321-0.71,1.321-1.69c0-0.737-0.369-1.671-1.303-1.671
			S317.453,203.032,317.453,203.858z"/>
		<path class="st0" d="M321.904,202.852c0-0.45-0.009-0.818-0.036-1.178h0.701l0.045,0.719h0.018
			c0.215-0.414,0.719-0.818,1.438-0.818c0.602,0,1.537,0.359,1.537,1.852v2.597h-0.791v-2.507c0-0.701-0.261-1.285-1.006-1.285
			c-0.521,0-0.926,0.368-1.061,0.809c-0.036,0.099-0.054,0.234-0.054,0.369v2.615h-0.791V202.852z"/>
		<path class="st0" d="M326.895,202.852c0-0.45-0.009-0.818-0.036-1.178h0.701l0.045,0.719h0.018
			c0.215-0.414,0.719-0.818,1.438-0.818c0.602,0,1.537,0.359,1.537,1.852v2.597h-0.791v-2.507c0-0.701-0.261-1.285-1.006-1.285
			c-0.521,0-0.926,0.368-1.061,0.809c-0.036,0.099-0.054,0.234-0.054,0.369v2.615h-0.791V202.852z"/>
		<path class="st0" d="M332.326,203.993c0.018,1.07,0.701,1.51,1.492,1.51c0.566,0,0.908-0.099,1.204-0.225l0.135,0.566
			c-0.279,0.126-0.755,0.27-1.447,0.27c-1.339,0-2.139-0.881-2.139-2.193s0.773-2.346,2.041-2.346c1.42,0,1.797,1.249,1.797,2.049
			c0,0.162-0.018,0.288-0.027,0.368H332.326z M334.644,203.427c0.009-0.503-0.207-1.286-1.096-1.286c-0.8,0-1.15,0.737-1.213,1.286
			H334.644z"/>
		<path class="st0" d="M336.39,202.852c0-0.45-0.009-0.818-0.036-1.178h0.692l0.036,0.701h0.027c0.243-0.414,0.647-0.8,1.366-0.8
			c0.593,0,1.042,0.359,1.231,0.872h0.018c0.135-0.243,0.306-0.431,0.485-0.566c0.261-0.198,0.548-0.306,0.962-0.306
			c0.575,0,1.429,0.377,1.429,1.887v2.562h-0.773v-2.462c0-0.836-0.305-1.339-0.943-1.339c-0.45,0-0.8,0.333-0.935,0.719
			c-0.036,0.108-0.063,0.251-0.063,0.396v2.687h-0.773v-2.606c0-0.692-0.306-1.195-0.908-1.195c-0.495,0-0.854,0.396-0.98,0.791
			c-0.045,0.117-0.063,0.251-0.063,0.386v2.625h-0.773V202.852z"/>
		<path class="st0" d="M344.33,203.993c0.018,1.07,0.701,1.51,1.492,1.51c0.566,0,0.908-0.099,1.204-0.225l0.135,0.566
			c-0.279,0.126-0.755,0.27-1.447,0.27c-1.339,0-2.139-0.881-2.139-2.193s0.773-2.346,2.041-2.346c1.42,0,1.797,1.249,1.797,2.049
			c0,0.162-0.018,0.288-0.026,0.368H344.33z M346.648,203.427c0.009-0.503-0.207-1.286-1.096-1.286c-0.8,0-1.15,0.737-1.213,1.286
			H346.648z"/>
		<path class="st0" d="M348.394,202.852c0-0.45-0.009-0.818-0.036-1.178h0.701l0.045,0.719h0.018
			c0.216-0.414,0.72-0.818,1.438-0.818c0.602,0,1.537,0.359,1.537,1.852v2.597h-0.791v-2.507c0-0.701-0.261-1.285-1.007-1.285
			c-0.521,0-0.926,0.368-1.061,0.809c-0.036,0.099-0.054,0.234-0.054,0.369v2.615h-0.791V202.852z"/>
		<path class="st0" d="M354.3,200.425v1.249h1.133v0.603H354.3v2.346c0,0.539,0.153,0.845,0.594,0.845
			c0.206,0,0.359-0.027,0.458-0.054l0.036,0.593c-0.153,0.063-0.396,0.108-0.701,0.108c-0.368,0-0.665-0.117-0.854-0.333
			c-0.225-0.234-0.306-0.62-0.306-1.132v-2.373h-0.674v-0.603h0.674v-1.042L354.3,200.425z"/>
		<path class="st0" d="M358.231,203.095c0-0.558-0.019-1.007-0.036-1.42h0.71l0.036,0.746h0.018c0.324-0.53,0.836-0.845,1.546-0.845
			c1.052,0,1.843,0.89,1.843,2.211c0,1.564-0.953,2.336-1.978,2.336c-0.575,0-1.078-0.251-1.339-0.683h-0.018v2.363h-0.782V203.095z
			 M359.013,204.254c0,0.117,0.018,0.225,0.035,0.324c0.145,0.548,0.62,0.925,1.187,0.925c0.836,0,1.321-0.683,1.321-1.681
			c0-0.872-0.458-1.618-1.294-1.618c-0.539,0-1.043,0.387-1.195,0.98c-0.027,0.099-0.054,0.215-0.054,0.323V204.254z"/>
		<path class="st0" d="M363.347,199.644h0.791v2.714h0.018c0.126-0.225,0.323-0.422,0.566-0.557
			c0.233-0.135,0.512-0.225,0.809-0.225c0.584,0,1.52,0.359,1.52,1.86v2.588h-0.791v-2.499c0-0.701-0.261-1.294-1.007-1.294
			c-0.513,0-0.917,0.359-1.061,0.791c-0.045,0.108-0.054,0.225-0.054,0.377v2.625h-0.791V199.644z"/>
		<path class="st0" d="M368.508,201.674l0.953,2.571c0.099,0.288,0.207,0.629,0.278,0.89h0.019c0.08-0.261,0.17-0.593,0.278-0.908
			l0.862-2.553h0.836l-1.187,3.101c-0.565,1.492-0.952,2.256-1.491,2.723c-0.387,0.341-0.773,0.476-0.971,0.512l-0.198-0.665
			c0.198-0.063,0.459-0.189,0.692-0.387c0.216-0.17,0.485-0.476,0.665-0.881c0.036-0.081,0.063-0.144,0.063-0.188
			s-0.018-0.108-0.054-0.207l-1.608-4.009H368.508z"/>
		<path class="st0" d="M372.293,205.215c0.234,0.153,0.647,0.315,1.043,0.315c0.575,0,0.845-0.288,0.845-0.647
			c0-0.377-0.225-0.584-0.809-0.8c-0.782-0.278-1.15-0.71-1.15-1.231c0-0.701,0.566-1.276,1.501-1.276
			c0.44,0,0.826,0.126,1.069,0.27l-0.198,0.575c-0.17-0.108-0.485-0.251-0.89-0.251c-0.467,0-0.728,0.27-0.728,0.593
			c0,0.359,0.261,0.521,0.827,0.737c0.755,0.288,1.141,0.665,1.141,1.312c0,0.764-0.593,1.303-1.626,1.303
			c-0.477,0-0.917-0.117-1.223-0.296L372.293,205.215z"/>
		<path class="st0" d="M376.843,200.452c0.009,0.27-0.189,0.485-0.504,0.485c-0.278,0-0.476-0.216-0.476-0.485
			c0-0.278,0.206-0.494,0.494-0.494C376.654,199.958,376.843,200.174,376.843,200.452z M375.962,206.024v-4.35h0.791v4.35H375.962z"
			/>
		<path class="st0" d="M381.033,205.351h-0.019c-0.233,0.431-0.719,0.772-1.42,0.772c-1.016,0-1.842-0.88-1.842-2.202
			c0-1.627,1.051-2.346,1.968-2.346c0.674,0,1.124,0.333,1.339,0.755h0.019l0.026-0.656h0.746c-0.018,0.369-0.026,0.746-0.026,1.195
			v4.934h-0.791V205.351z M381.033,203.436c0-0.108-0.009-0.234-0.036-0.333c-0.117-0.485-0.539-0.899-1.133-0.899
			c-0.817,0-1.312,0.692-1.312,1.672c0,0.863,0.413,1.618,1.285,1.618c0.512,0,0.952-0.314,1.132-0.863
			c0.036-0.108,0.063-0.261,0.063-0.377V203.436z"/>
		<path class="st0" d="M386.769,204.838c0,0.45,0.009,0.845,0.036,1.187h-0.701l-0.045-0.71h-0.018
			c-0.207,0.351-0.665,0.809-1.438,0.809c-0.683,0-1.501-0.377-1.501-1.905v-2.543h0.791v2.409c0,0.827,0.252,1.384,0.971,1.384
			c0.53,0,0.898-0.369,1.043-0.719c0.045-0.117,0.071-0.26,0.071-0.404v-2.669h0.791V204.838z"/>
		<path class="st0" d="M388.524,203.993c0.018,1.07,0.701,1.51,1.491,1.51c0.566,0,0.908-0.099,1.205-0.225l0.135,0.566
			c-0.279,0.126-0.755,0.27-1.447,0.27c-1.339,0-2.139-0.881-2.139-2.193s0.772-2.346,2.04-2.346c1.42,0,1.797,1.249,1.797,2.049
			c0,0.162-0.018,0.288-0.026,0.368H388.524z M390.842,203.427c0.009-0.503-0.206-1.286-1.097-1.286c-0.8,0-1.15,0.737-1.213,1.286
			H390.842z"/>
	</g>
</g>
<g>
	<path d="M145.21,332.666H45.398c-1.388,0-2.513-1.125-2.513-2.513v-11.271c0-1.388,1.125-2.513,2.513-2.513h99.812
		c1.388,0,2.513,1.125,2.513,2.513v11.271C147.723,331.541,146.598,332.666,145.21,332.666z"/>
	<g>
		<path class="st0" d="M50.029,324.316h-2.355v2.184h2.625v0.656h-3.406v-6.058h3.271v0.656h-2.49v1.914h2.355V324.316z"/>
		<path class="st0" d="M51.181,326.347c0.233,0.153,0.647,0.315,1.042,0.315c0.575,0,0.845-0.288,0.845-0.647
			c0-0.377-0.225-0.584-0.809-0.8c-0.782-0.278-1.15-0.71-1.15-1.231c0-0.701,0.566-1.276,1.5-1.276c0.44,0,0.827,0.126,1.07,0.27
			l-0.198,0.575c-0.171-0.108-0.485-0.251-0.89-0.251c-0.468,0-0.728,0.27-0.728,0.593c0,0.359,0.26,0.521,0.827,0.737
			c0.755,0.288,1.142,0.665,1.142,1.312c0,0.764-0.593,1.303-1.627,1.303c-0.476,0-0.917-0.117-1.222-0.296L51.181,326.347z"/>
		<path class="st0" d="M54.85,324.227c0-0.558-0.018-1.007-0.036-1.42h0.71l0.036,0.746h0.018c0.323-0.53,0.835-0.845,1.545-0.845
			c1.052,0,1.843,0.89,1.843,2.211c0,1.564-0.953,2.336-1.978,2.336c-0.575,0-1.078-0.251-1.339-0.683h-0.018v2.363H54.85V324.227z
			 M55.632,325.386c0,0.117,0.018,0.225,0.036,0.324c0.144,0.548,0.62,0.925,1.186,0.925c0.836,0,1.321-0.683,1.321-1.681
			c0-0.872-0.458-1.618-1.294-1.618c-0.539,0-1.042,0.387-1.195,0.98c-0.027,0.099-0.054,0.215-0.054,0.323V325.386z"/>
		<path class="st0" d="M62.375,327.156l-0.063-0.548h-0.027c-0.242,0.342-0.71,0.647-1.33,0.647c-0.88,0-1.33-0.62-1.33-1.249
			c0-1.052,0.935-1.627,2.615-1.618v-0.09c0-0.359-0.099-1.007-0.988-1.007c-0.405,0-0.827,0.126-1.132,0.324l-0.18-0.521
			c0.36-0.233,0.881-0.386,1.429-0.386c1.33,0,1.654,0.908,1.654,1.779v1.627c0,0.377,0.018,0.746,0.072,1.042H62.375z
			 M62.258,324.937c-0.863-0.018-1.842,0.135-1.842,0.979c0,0.512,0.341,0.755,0.746,0.755c0.566,0,0.926-0.359,1.051-0.728
			c0.027-0.081,0.045-0.171,0.045-0.251V324.937z"/>
		<path class="st0" d="M67.401,326.995c-0.207,0.108-0.665,0.251-1.25,0.251c-1.312,0-2.166-0.89-2.166-2.22
			c0-1.339,0.917-2.31,2.337-2.31c0.467,0,0.881,0.117,1.097,0.225l-0.18,0.611c-0.188-0.108-0.485-0.207-0.917-0.207
			c-0.998,0-1.537,0.737-1.537,1.645c0,1.007,0.647,1.627,1.51,1.627c0.449,0,0.746-0.117,0.971-0.216L67.401,326.995z"/>
		<path class="st0" d="M68.715,325.125c0.018,1.07,0.701,1.51,1.492,1.51c0.566,0,0.908-0.099,1.204-0.225l0.135,0.566
			c-0.279,0.126-0.755,0.27-1.447,0.27c-1.339,0-2.139-0.881-2.139-2.193s0.773-2.346,2.041-2.346c1.42,0,1.797,1.249,1.797,2.049
			c0,0.162-0.018,0.288-0.027,0.368H68.715z M71.033,324.559c0.009-0.503-0.207-1.286-1.096-1.286c-0.8,0-1.15,0.737-1.213,1.286
			H71.033z"/>
		<path class="st0" d="M74.712,321.171c0.377-0.063,0.872-0.117,1.501-0.117c0.773,0,1.339,0.18,1.698,0.503
			c0.333,0.288,0.53,0.728,0.53,1.267c0,0.548-0.162,0.979-0.467,1.294c-0.413,0.44-1.087,0.665-1.851,0.665
			c-0.234,0-0.45-0.009-0.629-0.054v2.427h-0.782V321.171z M75.494,324.091c0.171,0.045,0.387,0.063,0.647,0.063
			c0.944,0,1.519-0.458,1.519-1.294c0-0.8-0.566-1.187-1.429-1.187c-0.342,0-0.603,0.027-0.737,0.063V324.091z"/>
		<path class="st0" d="M81.644,327.156l-0.063-0.548h-0.027c-0.243,0.342-0.71,0.647-1.33,0.647c-0.88,0-1.33-0.62-1.33-1.249
			c0-1.052,0.935-1.627,2.615-1.618v-0.09c0-0.359-0.099-1.007-0.988-1.007c-0.405,0-0.827,0.126-1.132,0.324l-0.18-0.521
			c0.36-0.233,0.881-0.386,1.429-0.386c1.33,0,1.654,0.908,1.654,1.779v1.627c0,0.377,0.018,0.746,0.072,1.042H81.644z
			 M81.527,324.937c-0.863-0.018-1.842,0.135-1.842,0.979c0,0.512,0.341,0.755,0.746,0.755c0.566,0,0.926-0.359,1.051-0.728
			c0.027-0.081,0.045-0.171,0.045-0.251V324.937z"/>
		<path class="st0" d="M87.209,325.97c0,0.45,0.009,0.845,0.036,1.187h-0.701l-0.045-0.71h-0.018
			c-0.207,0.351-0.665,0.809-1.438,0.809c-0.683,0-1.501-0.377-1.501-1.905v-2.543h0.791v2.409c0,0.827,0.252,1.384,0.971,1.384
			c0.53,0,0.899-0.369,1.042-0.719c0.045-0.117,0.072-0.26,0.072-0.404v-2.669h0.791V325.97z"/>
		<path class="st0" d="M88.524,320.775h0.791v6.381h-0.791V320.775z"/>
		<path class="st0" d="M92.479,324.433v0.584h-2.22v-0.584H92.479z"/>
		<path class="st0" d="M96.57,324.316h-2.355v2.184h2.625v0.656h-3.406v-6.058h3.271v0.656h-2.49v1.914h2.355V324.316z"/>
		<path class="st0" d="M101.407,325.97c0,0.45,0.009,0.845,0.036,1.187h-0.701l-0.045-0.71h-0.018
			c-0.207,0.351-0.665,0.809-1.438,0.809c-0.683,0-1.501-0.377-1.501-1.905v-2.543h0.791v2.409c0,0.827,0.252,1.384,0.971,1.384
			c0.53,0,0.899-0.369,1.042-0.719c0.045-0.117,0.072-0.26,0.072-0.404v-2.669h0.791V325.97z"/>
		<path class="st0" d="M106.469,322.806c-0.018,0.315-0.036,0.665-0.036,1.195v2.526c0,0.998-0.197,1.608-0.62,1.986
			c-0.422,0.396-1.033,0.521-1.582,0.521c-0.521,0-1.097-0.126-1.447-0.359l0.197-0.603c0.288,0.18,0.737,0.342,1.276,0.342
			c0.809,0,1.402-0.422,1.402-1.519v-0.485h-0.019c-0.242,0.405-0.71,0.728-1.384,0.728c-1.079,0-1.852-0.917-1.852-2.121
			c0-1.474,0.962-2.31,1.959-2.31c0.755,0,1.168,0.396,1.357,0.755h0.019l0.035-0.656H106.469z M105.652,324.523
			c0-0.135-0.01-0.251-0.045-0.359c-0.145-0.458-0.53-0.836-1.106-0.836c-0.755,0-1.294,0.638-1.294,1.645
			c0,0.854,0.431,1.564,1.285,1.564c0.485,0,0.925-0.306,1.096-0.809c0.045-0.135,0.063-0.288,0.063-0.422V324.523z"/>
		<path class="st0" d="M108.189,325.125c0.018,1.07,0.701,1.51,1.491,1.51c0.566,0,0.908-0.099,1.205-0.225l0.135,0.566
			c-0.279,0.126-0.755,0.27-1.447,0.27c-1.339,0-2.139-0.881-2.139-2.193s0.772-2.346,2.04-2.346c1.42,0,1.797,1.249,1.797,2.049
			c0,0.162-0.018,0.288-0.026,0.368H108.189z M110.507,324.559c0.009-0.503-0.206-1.286-1.097-1.286c-0.8,0-1.15,0.737-1.213,1.286
			H110.507z M109.177,320.928l0.791,1.286h-0.566l-1.097-1.286H109.177z"/>
		<path class="st0" d="M112.253,323.984c0-0.45-0.009-0.818-0.036-1.178h0.701l0.045,0.719h0.018
			c0.216-0.414,0.72-0.818,1.438-0.818c0.602,0,1.537,0.359,1.537,1.852v2.597h-0.791v-2.507c0-0.701-0.261-1.285-1.007-1.285
			c-0.521,0-0.926,0.368-1.061,0.809c-0.036,0.099-0.054,0.234-0.054,0.369v2.615h-0.791V323.984z"/>
		<path class="st0" d="M117.684,325.125c0.018,1.07,0.701,1.51,1.492,1.51c0.565,0,0.907-0.099,1.204-0.225l0.135,0.566
			c-0.279,0.126-0.755,0.27-1.447,0.27c-1.339,0-2.139-0.881-2.139-2.193s0.772-2.346,2.04-2.346c1.42,0,1.797,1.249,1.797,2.049
			c0,0.162-0.018,0.288-0.026,0.368H117.684z M120.002,324.559c0.009-0.503-0.206-1.286-1.097-1.286c-0.8,0-1.15,0.737-1.213,1.286
			H120.002z"/>
		<path class="st0" d="M123.833,324.433v0.584h-2.22v-0.584H123.833z"/>
		<path class="st0" d="M125.847,321.099h0.782v4.053c0,1.609-0.791,2.103-1.833,2.103c-0.288,0-0.639-0.063-0.836-0.144l0.116-0.638
			c0.162,0.063,0.396,0.117,0.656,0.117c0.701,0,1.114-0.314,1.114-1.5V321.099z"/>
		<path class="st0" d="M131.844,324.945c0,1.609-1.114,2.31-2.166,2.31c-1.178,0-2.085-0.863-2.085-2.238
			c0-1.456,0.952-2.31,2.156-2.31C130.999,322.708,131.844,323.615,131.844,324.945z M128.393,324.99
			c0,0.953,0.548,1.672,1.321,1.672c0.755,0,1.321-0.71,1.321-1.69c0-0.737-0.369-1.671-1.304-1.671S128.393,324.164,128.393,324.99
			z"/>
		<path class="st0" d="M132.808,327.156c0.018-0.296,0.036-0.737,0.036-1.124v-5.257h0.781v2.732h0.019
			c0.278-0.485,0.782-0.8,1.482-0.8c1.079,0,1.843,0.899,1.834,2.22c0,1.555-0.979,2.328-1.95,2.328
			c-0.629,0-1.133-0.242-1.456-0.817h-0.027l-0.036,0.719H132.808z M133.625,325.413c0,0.099,0.019,0.198,0.036,0.288
			c0.153,0.548,0.611,0.926,1.187,0.926c0.827,0,1.321-0.674,1.321-1.672c0-0.872-0.449-1.618-1.294-1.618
			c-0.539,0-1.043,0.369-1.204,0.971c-0.019,0.09-0.046,0.198-0.046,0.324V325.413z"/>
		<path class="st0" d="M138.841,321.584c0.009,0.27-0.189,0.485-0.504,0.485c-0.278,0-0.476-0.216-0.476-0.485
			c0-0.278,0.206-0.494,0.494-0.494C138.652,321.09,138.841,321.306,138.841,321.584z M137.96,327.156v-4.35h0.791v4.35H137.96z"/>
		<path class="st0" d="M140.064,323.984c0-0.45-0.009-0.818-0.036-1.178h0.701l0.045,0.719h0.018
			c0.216-0.414,0.72-0.818,1.438-0.818c0.602,0,1.537,0.359,1.537,1.852v2.597h-0.791v-2.507c0-0.701-0.261-1.285-1.007-1.285
			c-0.521,0-0.926,0.368-1.061,0.809c-0.036,0.099-0.054,0.234-0.054,0.369v2.615h-0.791V323.984z"/>
	</g>
</g>
<g>
	<path d="M565.287,293.328h-85.192c-1.388,0-2.513-1.125-2.513-2.513v-11.271c0-1.388,1.125-2.513,2.513-2.513h85.192
		c1.388,0,2.513,1.125,2.513,2.513v11.271C567.8,292.203,566.675,293.328,565.287,293.328z"/>
	<g>
		<path class="st0" d="M488.998,283.326h-1.842v-0.665h4.484v0.665h-1.851v5.393h-0.791V283.326z"/>
		<path class="st0" d="M492.092,286.687c0.018,1.07,0.701,1.51,1.492,1.51c0.566,0,0.908-0.099,1.204-0.225l0.135,0.566
			c-0.279,0.126-0.755,0.27-1.447,0.27c-1.339,0-2.139-0.881-2.139-2.193s0.773-2.346,2.041-2.346c1.42,0,1.797,1.249,1.797,2.049
			c0,0.162-0.018,0.288-0.027,0.368H492.092z M494.41,286.121c0.009-0.503-0.207-1.286-1.096-1.286c-0.8,0-1.15,0.737-1.213,1.286
			H494.41z"/>
		<path class="st0" d="M496.156,285.726c0-0.512-0.009-0.953-0.036-1.357h0.692l0.027,0.854h0.036
			c0.198-0.584,0.675-0.953,1.205-0.953c0.09,0,0.152,0.009,0.225,0.027v0.746c-0.081-0.018-0.162-0.027-0.27-0.027
			c-0.558,0-0.953,0.422-1.061,1.016c-0.018,0.107-0.036,0.233-0.036,0.368v2.319h-0.782V285.726z"/>
		<path class="st0" d="M499.133,285.726c0-0.512-0.01-0.953-0.036-1.357h0.691l0.027,0.854h0.036
			c0.197-0.584,0.674-0.953,1.204-0.953c0.09,0,0.152,0.009,0.225,0.027v0.746c-0.081-0.018-0.162-0.027-0.27-0.027
			c-0.558,0-0.953,0.422-1.061,1.016c-0.018,0.107-0.036,0.233-0.036,0.368v2.319h-0.781V285.726z"/>
		<path class="st0" d="M504.436,288.718l-0.063-0.548h-0.027c-0.243,0.342-0.71,0.647-1.33,0.647c-0.881,0-1.33-0.62-1.33-1.249
			c0-1.052,0.935-1.627,2.615-1.618v-0.09c0-0.359-0.099-1.007-0.988-1.007c-0.405,0-0.827,0.126-1.133,0.324l-0.18-0.521
			c0.359-0.233,0.881-0.386,1.429-0.386c1.33,0,1.654,0.908,1.654,1.779v1.627c0,0.377,0.018,0.746,0.071,1.042H504.436z
			 M504.319,286.499c-0.862-0.018-1.842,0.135-1.842,0.979c0,0.512,0.341,0.755,0.746,0.755c0.565,0,0.926-0.359,1.051-0.728
			c0.027-0.081,0.045-0.171,0.045-0.251V286.499z"/>
		<path class="st0" d="M506.254,287.909c0.233,0.153,0.647,0.315,1.043,0.315c0.575,0,0.845-0.288,0.845-0.647
			c0-0.377-0.225-0.584-0.809-0.8c-0.782-0.278-1.15-0.71-1.15-1.231c0-0.701,0.565-1.276,1.5-1.276c0.44,0,0.827,0.126,1.07,0.27
			l-0.198,0.575c-0.171-0.108-0.485-0.251-0.89-0.251c-0.468,0-0.728,0.27-0.728,0.593c0,0.359,0.26,0.521,0.826,0.737
			c0.755,0.288,1.142,0.665,1.142,1.312c0,0.764-0.593,1.303-1.627,1.303c-0.476,0-0.916-0.117-1.222-0.296L506.254,287.909z"/>
		<path class="st0" d="M509.814,287.909c0.233,0.153,0.647,0.315,1.043,0.315c0.575,0,0.845-0.288,0.845-0.647
			c0-0.377-0.225-0.584-0.809-0.8c-0.782-0.278-1.15-0.71-1.15-1.231c0-0.701,0.565-1.276,1.5-1.276c0.44,0,0.827,0.126,1.07,0.27
			l-0.198,0.575c-0.171-0.108-0.485-0.251-0.89-0.251c-0.468,0-0.728,0.27-0.728,0.593c0,0.359,0.26,0.521,0.826,0.737
			c0.755,0.288,1.142,0.665,1.142,1.312c0,0.764-0.593,1.303-1.627,1.303c-0.476,0-0.916-0.117-1.222-0.296L509.814,287.909z"/>
		<path class="st0" d="M513.924,286.687c0.018,1.07,0.701,1.51,1.492,1.51c0.566,0,0.907-0.099,1.204-0.225l0.135,0.566
			c-0.278,0.126-0.755,0.27-1.447,0.27c-1.339,0-2.139-0.881-2.139-2.193s0.772-2.346,2.04-2.346c1.42,0,1.798,1.249,1.798,2.049
			c0,0.162-0.019,0.288-0.027,0.368H513.924z M516.242,286.121c0.01-0.503-0.206-1.286-1.096-1.286c-0.8,0-1.15,0.737-1.214,1.286
			H516.242z"/>
		<path class="st0" d="M519.786,287.909c0.233,0.153,0.647,0.315,1.043,0.315c0.575,0,0.845-0.288,0.845-0.647
			c0-0.377-0.225-0.584-0.809-0.8c-0.782-0.278-1.15-0.71-1.15-1.231c0-0.701,0.565-1.276,1.5-1.276c0.44,0,0.827,0.126,1.07,0.27
			l-0.198,0.575c-0.171-0.108-0.485-0.251-0.89-0.251c-0.468,0-0.728,0.27-0.728,0.593c0,0.359,0.26,0.521,0.826,0.737
			c0.755,0.288,1.142,0.665,1.142,1.312c0,0.764-0.593,1.303-1.627,1.303c-0.476,0-0.916-0.117-1.222-0.296L519.786,287.909z"/>
		<path class="st0" d="M527.095,287.532c0,0.45,0.01,0.845,0.036,1.187h-0.701l-0.045-0.71h-0.018
			c-0.207,0.351-0.665,0.809-1.438,0.809c-0.683,0-1.501-0.377-1.501-1.905v-2.543h0.791v2.409c0,0.827,0.252,1.384,0.971,1.384
			c0.53,0,0.899-0.369,1.043-0.719c0.045-0.117,0.071-0.26,0.071-0.404v-2.669h0.791V287.532z"/>
		<path class="st0" d="M528.41,285.726c0-0.512-0.01-0.953-0.036-1.357h0.691l0.027,0.854h0.036
			c0.197-0.584,0.674-0.953,1.204-0.953c0.09,0,0.152,0.009,0.225,0.027v0.746c-0.081-0.018-0.162-0.027-0.27-0.027
			c-0.558,0-0.953,0.422-1.061,1.016c-0.018,0.107-0.036,0.233-0.036,0.368v2.319h-0.781V285.726z"/>
		<path class="st0" d="M533.256,282.337h0.791v6.381h-0.791V282.337z"/>
		<path class="st0" d="M535.818,286.687c0.018,1.07,0.701,1.51,1.492,1.51c0.566,0,0.907-0.099,1.204-0.225l0.135,0.566
			c-0.278,0.126-0.755,0.27-1.447,0.27c-1.339,0-2.139-0.881-2.139-2.193s0.772-2.346,2.04-2.346c1.42,0,1.798,1.249,1.798,2.049
			c0,0.162-0.019,0.288-0.027,0.368H535.818z M538.137,286.121c0.01-0.503-0.206-1.286-1.096-1.286c-0.8,0-1.15,0.737-1.214,1.286
			H538.137z"/>
		<path class="st0" d="M542.742,283.119v1.249h1.132v0.603h-1.132v2.346c0,0.539,0.152,0.845,0.593,0.845
			c0.207,0,0.359-0.027,0.458-0.054l0.036,0.593c-0.152,0.063-0.396,0.108-0.701,0.108c-0.368,0-0.665-0.117-0.854-0.333
			c-0.225-0.234-0.306-0.62-0.306-1.132v-2.373h-0.674v-0.603h0.674v-1.042L542.742,283.119z"/>
		<path class="st0" d="M548.647,286.507c0,1.609-1.114,2.31-2.166,2.31c-1.177,0-2.085-0.863-2.085-2.238
			c0-1.456,0.953-2.31,2.157-2.31C547.803,284.27,548.647,285.177,548.647,286.507z M545.197,286.552
			c0,0.953,0.548,1.672,1.32,1.672c0.755,0,1.321-0.71,1.321-1.69c0-0.737-0.368-1.671-1.303-1.671
			C545.601,284.863,545.197,285.726,545.197,286.552z"/>
		<path class="st0" d="M550.528,283.146c0.009,0.27-0.189,0.485-0.504,0.485c-0.278,0-0.476-0.216-0.476-0.485
			c0-0.278,0.206-0.494,0.494-0.494C550.339,282.652,550.528,282.868,550.528,283.146z M549.647,288.718v-4.35h0.791v4.35H549.647z"
			/>
		<path class="st0" d="M552.704,283.119v1.249h1.133v0.603h-1.133v2.346c0,0.539,0.153,0.845,0.594,0.845
			c0.206,0,0.359-0.027,0.458-0.054l0.036,0.593c-0.153,0.063-0.396,0.108-0.701,0.108c-0.368,0-0.665-0.117-0.854-0.333
			c-0.225-0.234-0.306-0.62-0.306-1.132v-2.373h-0.674v-0.603h0.674v-1.042L552.704,283.119z"/>
	</g>
</g>
<g>
	<path d="M476.725,581.908h-96.839c-1.388,0-2.513-1.125-2.513-2.513v-21.203c0-1.388,1.125-2.513,2.513-2.513h96.839
		c1.388,0,2.513,1.125,2.513,2.513v21.203C479.238,580.782,478.113,581.908,476.725,581.908z"/>
	<g>
		<path class="st0" d="M384.944,565.838c-0.288,0.145-0.863,0.288-1.6,0.288c-1.708,0-2.993-1.079-2.993-3.064
			c0-1.896,1.285-3.182,3.164-3.182c0.755,0,1.231,0.161,1.438,0.27l-0.189,0.638c-0.296-0.144-0.719-0.252-1.222-0.252
			c-1.42,0-2.364,0.908-2.364,2.499c0,1.482,0.854,2.436,2.328,2.436c0.477,0,0.962-0.099,1.276-0.252L384.944,565.838z"/>
		<path class="st0" d="M388.246,566.037l-0.063-0.549h-0.027c-0.242,0.342-0.71,0.647-1.33,0.647c-0.88,0-1.33-0.62-1.33-1.249
			c0-1.052,0.935-1.627,2.615-1.618v-0.09c0-0.359-0.099-1.007-0.988-1.007c-0.405,0-0.827,0.126-1.132,0.324l-0.18-0.521
			c0.36-0.233,0.881-0.387,1.429-0.387c1.33,0,1.654,0.908,1.654,1.779v1.627c0,0.378,0.018,0.746,0.072,1.043H388.246z
			 M388.128,563.817c-0.863-0.019-1.842,0.135-1.842,0.979c0,0.512,0.341,0.755,0.746,0.755c0.566,0,0.926-0.359,1.051-0.729
			c0.027-0.08,0.045-0.171,0.045-0.251V563.817z"/>
		<path class="st0" d="M390.171,563.044c0-0.512-0.009-0.952-0.036-1.357h0.692l0.027,0.854h0.036
			c0.198-0.584,0.674-0.953,1.205-0.953c0.09,0,0.153,0.009,0.225,0.027v0.746c-0.081-0.019-0.162-0.027-0.27-0.027
			c-0.558,0-0.953,0.423-1.061,1.016c-0.018,0.107-0.036,0.233-0.036,0.368v2.319h-0.782V563.044z"/>
		<path class="st0" d="M393.147,563.044c0-0.512-0.009-0.952-0.036-1.357h0.692l0.027,0.854h0.036
			c0.198-0.584,0.674-0.953,1.205-0.953c0.09,0,0.152,0.009,0.225,0.027v0.746c-0.081-0.019-0.162-0.027-0.27-0.027
			c-0.558,0-0.953,0.423-1.061,1.016c-0.018,0.107-0.036,0.233-0.036,0.368v2.319h-0.782V563.044z"/>
		<path class="st0" d="M396.438,564.005c0.018,1.069,0.701,1.51,1.492,1.51c0.566,0,0.908-0.099,1.204-0.225l0.135,0.566
			c-0.279,0.126-0.755,0.27-1.447,0.27c-1.339,0-2.139-0.881-2.139-2.193c0-1.312,0.773-2.346,2.041-2.346
			c1.42,0,1.797,1.249,1.797,2.05c0,0.161-0.018,0.287-0.027,0.368H396.438z M398.756,563.439c0.009-0.503-0.207-1.285-1.096-1.285
			c-0.8,0-1.15,0.737-1.213,1.285H398.756z"/>
		<path class="st0" d="M400.583,566.037v-3.748h-0.611v-0.603h0.611v-0.206c0-0.611,0.135-1.169,0.503-1.52
			c0.296-0.287,0.692-0.404,1.061-0.404c0.279,0,0.521,0.063,0.674,0.126l-0.107,0.611c-0.117-0.054-0.279-0.099-0.503-0.099
			c-0.674,0-0.845,0.593-0.845,1.258v0.233h1.051v0.603h-1.051v3.748H400.583z"/>
		<path class="st0" d="M406.948,563.826c0,1.608-1.115,2.31-2.166,2.31c-1.178,0-2.085-0.863-2.085-2.238
			c0-1.455,0.953-2.31,2.157-2.31C406.103,561.587,406.948,562.496,406.948,563.826z M403.497,563.871
			c0,0.952,0.548,1.672,1.321,1.672c0.755,0,1.321-0.71,1.321-1.69c0-0.736-0.369-1.671-1.303-1.671
			S403.497,563.044,403.497,563.871z"/>
		<path class="st0" d="M411.587,564.85c0,0.449,0.009,0.845,0.036,1.187h-0.701l-0.045-0.71h-0.018
			c-0.207,0.351-0.665,0.809-1.438,0.809c-0.683,0-1.501-0.378-1.501-1.905v-2.544h0.791v2.409c0,0.827,0.252,1.384,0.971,1.384
			c0.53,0,0.899-0.368,1.042-0.719c0.045-0.117,0.072-0.261,0.072-0.404v-2.67h0.791V564.85z"/>
		<path class="st0" d="M412.902,563.044c0-0.512-0.009-0.952-0.036-1.357h0.692l0.027,0.854h0.036
			c0.198-0.584,0.674-0.953,1.205-0.953c0.09,0,0.153,0.009,0.225,0.027v0.746c-0.081-0.019-0.162-0.027-0.27-0.027
			c-0.558,0-0.953,0.423-1.061,1.016c-0.018,0.107-0.036,0.233-0.036,0.368v2.319h-0.782V563.044z"/>
		<path class="st0" d="M421.505,559.656v5.257c0,0.387,0.009,0.827,0.036,1.124h-0.71l-0.036-0.755h-0.018
			c-0.243,0.485-0.773,0.854-1.483,0.854c-1.052,0-1.861-0.89-1.861-2.211c-0.009-1.447,0.89-2.337,1.951-2.337
			c0.665,0,1.114,0.314,1.312,0.665h0.018v-2.597H421.505z M420.714,563.457c0-0.099-0.009-0.233-0.036-0.332
			c-0.117-0.503-0.548-0.917-1.141-0.917c-0.818,0-1.303,0.719-1.303,1.681c0,0.881,0.431,1.609,1.285,1.609
			c0.53,0,1.016-0.351,1.159-0.944c0.027-0.107,0.036-0.216,0.036-0.341V563.457z"/>
		<path class="st0" d="M423.26,564.005c0.018,1.069,0.701,1.51,1.492,1.51c0.566,0,0.908-0.099,1.204-0.225l0.135,0.566
			c-0.279,0.126-0.755,0.27-1.447,0.27c-1.339,0-2.139-0.881-2.139-2.193c0-1.312,0.773-2.346,2.041-2.346
			c1.42,0,1.797,1.249,1.797,2.05c0,0.161-0.018,0.287-0.027,0.368H423.26z M425.579,563.439c0.009-0.503-0.207-1.285-1.096-1.285
			c-0.8,0-1.15,0.737-1.213,1.285H425.579z"/>
		<path class="st0" d="M429.231,559.656h0.791v6.381h-0.791V559.656z"/>
		<path class="st0" d="M432.404,559.88c-0.207,0.755-0.593,1.716-0.845,2.13l-0.503,0.063c0.198-0.53,0.431-1.465,0.53-2.112
			L432.404,559.88z"/>
		<path class="st0" d="M433.798,560.464c0.009,0.27-0.188,0.485-0.503,0.485c-0.279,0-0.477-0.216-0.477-0.485
			c0-0.278,0.207-0.494,0.495-0.494C433.609,559.97,433.798,560.186,433.798,560.464z M432.917,566.037v-4.351h0.791v4.351H432.917z
			"/>
		<path class="st0" d="M435.021,562.864c0-0.449-0.009-0.817-0.036-1.178h0.701l0.045,0.72h0.018
			c0.215-0.414,0.719-0.818,1.438-0.818c0.602,0,1.537,0.359,1.537,1.852v2.598h-0.791v-2.508c0-0.701-0.26-1.285-1.006-1.285
			c-0.521,0-0.926,0.368-1.061,0.809c-0.036,0.1-0.054,0.234-0.054,0.369v2.615h-0.791V562.864z"/>
		<path class="st0" d="M440.092,566.037v-3.748h-0.611v-0.603h0.611v-0.206c0-0.611,0.135-1.169,0.503-1.52
			c0.296-0.287,0.692-0.404,1.061-0.404c0.279,0,0.521,0.063,0.674,0.126l-0.107,0.611c-0.117-0.054-0.279-0.099-0.503-0.099
			c-0.674,0-0.845,0.593-0.845,1.258v0.233h1.051v0.603h-1.051v3.748H440.092z"/>
		<path class="st0" d="M446.457,563.826c0,1.608-1.115,2.31-2.166,2.31c-1.178,0-2.085-0.863-2.085-2.238
			c0-1.455,0.953-2.31,2.157-2.31C445.612,561.587,446.457,562.496,446.457,563.826z M443.006,563.871
			c0,0.952,0.548,1.672,1.321,1.672c0.755,0,1.321-0.71,1.321-1.69c0-0.736-0.369-1.671-1.303-1.671
			S443.006,563.044,443.006,563.871z"/>
		<path class="st0" d="M447.457,563.044c0-0.512-0.009-0.952-0.036-1.357h0.692l0.027,0.854h0.036
			c0.198-0.584,0.674-0.953,1.205-0.953c0.09,0,0.153,0.009,0.225,0.027v0.746c-0.081-0.019-0.162-0.027-0.27-0.027
			c-0.558,0-0.953,0.423-1.061,1.016c-0.018,0.107-0.036,0.233-0.036,0.368v2.319h-0.782V563.044z"/>
		<path class="st0" d="M450.434,562.864c0-0.449-0.009-0.817-0.036-1.178h0.692l0.036,0.701h0.027c0.243-0.413,0.647-0.8,1.366-0.8
			c0.593,0,1.042,0.359,1.231,0.872h0.018c0.135-0.243,0.306-0.432,0.485-0.566c0.261-0.197,0.548-0.306,0.962-0.306
			c0.575,0,1.429,0.378,1.429,1.888v2.562h-0.773v-2.463c0-0.836-0.305-1.339-0.943-1.339c-0.45,0-0.8,0.332-0.935,0.719
			c-0.036,0.108-0.063,0.252-0.063,0.396v2.688h-0.773v-2.606c0-0.692-0.306-1.195-0.908-1.195c-0.495,0-0.854,0.396-0.98,0.791
			c-0.045,0.116-0.063,0.251-0.063,0.386v2.625h-0.773V562.864z"/>
		<path class="st0" d="M460.341,566.037l-0.063-0.549h-0.027c-0.242,0.342-0.71,0.647-1.33,0.647c-0.88,0-1.33-0.62-1.33-1.249
			c0-1.052,0.935-1.627,2.615-1.618v-0.09c0-0.359-0.099-1.007-0.988-1.007c-0.405,0-0.827,0.126-1.132,0.324l-0.18-0.521
			c0.36-0.233,0.881-0.387,1.429-0.387c1.33,0,1.654,0.908,1.654,1.779v1.627c0,0.378,0.018,0.746,0.072,1.043H460.341z
			 M460.224,563.817c-0.863-0.019-1.842,0.135-1.842,0.979c0,0.512,0.341,0.755,0.746,0.755c0.566,0,0.926-0.359,1.051-0.729
			c0.027-0.08,0.045-0.171,0.045-0.251V563.817z"/>
		<path class="st0" d="M463.183,560.437v1.249h1.132v0.603h-1.132v2.346c0,0.539,0.153,0.845,0.593,0.845
			c0.207,0,0.359-0.026,0.458-0.054l0.036,0.593c-0.153,0.063-0.396,0.108-0.701,0.108c-0.368,0-0.665-0.117-0.854-0.333
			c-0.225-0.233-0.306-0.62-0.306-1.132v-2.373h-0.674v-0.603h0.674v-1.042L463.183,560.437z"/>
		<path class="st0" d="M466.087,560.464c0.009,0.27-0.188,0.485-0.503,0.485c-0.279,0-0.477-0.216-0.477-0.485
			c0-0.278,0.207-0.494,0.495-0.494C465.899,559.97,466.087,560.186,466.087,560.464z M465.207,566.037v-4.351h0.791v4.351H465.207z
			"/>
		<path class="st0" d="M471.248,563.826c0,1.608-1.115,2.31-2.166,2.31c-1.178,0-2.085-0.863-2.085-2.238
			c0-1.455,0.953-2.31,2.157-2.31C470.402,561.587,471.248,562.496,471.248,563.826z M467.796,563.871
			c0,0.952,0.548,1.672,1.321,1.672c0.755,0,1.321-0.71,1.321-1.69c0-0.736-0.369-1.671-1.303-1.671
			S467.796,563.044,467.796,563.871z"/>
		<path class="st0" d="M472.248,562.864c0-0.449-0.009-0.817-0.036-1.178h0.701l0.045,0.72h0.018
			c0.215-0.414,0.719-0.818,1.438-0.818c0.602,0,1.537,0.359,1.537,1.852v2.598h-0.791v-2.508c0-0.701-0.261-1.285-1.006-1.285
			c-0.521,0-0.926,0.368-1.061,0.809c-0.036,0.1-0.054,0.234-0.054,0.369v2.615h-0.791V562.864z"/>
		<path class="st0" d="M403.999,570.589c-0.656,0.881-1.132,2.049-1.132,3.676c0,1.6,0.494,2.75,1.132,3.648h-0.62
			c-0.566-0.746-1.177-1.896-1.177-3.648c0.009-1.771,0.611-2.921,1.177-3.676H403.999z"/>
		<path class="st0" d="M404.864,570.85c0.341-0.072,0.881-0.126,1.429-0.126c0.782,0,1.286,0.135,1.663,0.44
			c0.314,0.233,0.503,0.593,0.503,1.069c0,0.584-0.386,1.097-1.024,1.33v0.018c0.575,0.145,1.25,0.62,1.25,1.52
			c0,0.521-0.207,0.916-0.513,1.213c-0.422,0.387-1.105,0.566-2.094,0.566c-0.54,0-0.953-0.036-1.213-0.072V570.85z
			 M405.645,573.331h0.71c0.827,0,1.313-0.432,1.313-1.016c0-0.71-0.54-0.989-1.33-0.989c-0.36,0-0.566,0.027-0.692,0.055V573.331z
			 M405.645,576.233c0.153,0.027,0.377,0.036,0.656,0.036c0.809,0,1.555-0.297,1.555-1.177c0-0.827-0.71-1.169-1.564-1.169h-0.647
			V576.233z"/>
		<path class="st0" d="M410.591,571.254c0.009,0.27-0.188,0.485-0.503,0.485c-0.279,0-0.477-0.216-0.477-0.485
			c0-0.278,0.207-0.494,0.495-0.494C410.402,570.76,410.591,570.976,410.591,571.254z M409.71,576.827v-4.351h0.791v4.351H409.71z"
			/>
		<path class="st0" d="M411.778,576.827c0.018-0.297,0.036-0.737,0.036-1.124v-5.257h0.782v2.731h0.018
			c0.278-0.485,0.782-0.8,1.483-0.8c1.079,0,1.842,0.899,1.833,2.22c0,1.556-0.98,2.328-1.95,2.328
			c-0.629,0-1.133-0.242-1.456-0.817h-0.027l-0.036,0.719H411.778z M412.596,575.083c0,0.1,0.018,0.198,0.036,0.288
			c0.153,0.548,0.611,0.926,1.186,0.926c0.827,0,1.321-0.674,1.321-1.672c0-0.872-0.449-1.618-1.294-1.618
			c-0.539,0-1.042,0.369-1.204,0.971c-0.018,0.09-0.045,0.198-0.045,0.324V575.083z"/>
		<path class="st0" d="M416.931,570.446h0.791v6.381h-0.791V570.446z"/>
		<path class="st0" d="M419.933,571.254c0.009,0.27-0.188,0.485-0.503,0.485c-0.279,0-0.477-0.216-0.477-0.485
			c0-0.278,0.207-0.494,0.495-0.494C419.745,570.76,419.933,570.976,419.933,571.254z M419.053,576.827v-4.351h0.791v4.351H419.053z
			"/>
		<path class="st0" d="M425.093,574.616c0,1.608-1.115,2.31-2.166,2.31c-1.178,0-2.085-0.863-2.085-2.238
			c0-1.455,0.953-2.31,2.157-2.31C424.248,572.378,425.093,573.286,425.093,574.616z M421.642,574.661
			c0,0.952,0.548,1.672,1.321,1.672c0.755,0,1.321-0.71,1.321-1.69c0-0.736-0.369-1.671-1.303-1.671
			S421.642,573.834,421.642,574.661z"/>
		<path class="st0" d="M427.046,571.227v1.249h1.132v0.603h-1.132v2.346c0,0.539,0.153,0.845,0.593,0.845
			c0.207,0,0.359-0.026,0.458-0.054l0.036,0.593c-0.153,0.063-0.396,0.108-0.701,0.108c-0.368,0-0.665-0.117-0.854-0.333
			c-0.225-0.233-0.306-0.62-0.306-1.132v-2.373h-0.674v-0.603h0.674v-1.042L427.046,571.227z"/>
		<path class="st0" d="M429.069,570.446h0.791v2.714h0.018c0.126-0.225,0.324-0.423,0.566-0.558
			c0.233-0.135,0.512-0.225,0.809-0.225c0.584,0,1.519,0.359,1.519,1.86v2.589h-0.791v-2.499c0-0.701-0.26-1.294-1.006-1.294
			c-0.512,0-0.917,0.359-1.061,0.791c-0.045,0.107-0.054,0.225-0.054,0.377v2.625h-0.791V570.446z"/>
		<path class="st0" d="M434.5,574.795c0.018,1.069,0.701,1.51,1.492,1.51c0.566,0,0.908-0.099,1.204-0.225l0.135,0.566
			c-0.279,0.126-0.755,0.27-1.447,0.27c-1.339,0-2.139-0.881-2.139-2.193c0-1.312,0.773-2.346,2.041-2.346
			c1.42,0,1.797,1.249,1.797,2.05c0,0.161-0.018,0.287-0.027,0.368H434.5z M436.818,574.229c0.009-0.503-0.207-1.285-1.096-1.285
			c-0.8,0-1.15,0.737-1.213,1.285H436.818z M435.488,570.598l0.791,1.285h-0.566l-1.096-1.285H435.488z"/>
		<path class="st0" d="M441.53,576.153h-0.018c-0.234,0.431-0.719,0.772-1.42,0.772c-1.016,0-1.843-0.881-1.843-2.202
			c0-1.627,1.052-2.346,1.968-2.346c0.674,0,1.124,0.333,1.339,0.755h0.018l0.027-0.656h0.746c-0.018,0.369-0.027,0.746-0.027,1.195
			v4.935h-0.791V576.153z M441.53,574.238c0-0.107-0.009-0.233-0.036-0.332c-0.117-0.485-0.539-0.899-1.132-0.899
			c-0.818,0-1.312,0.692-1.312,1.672c0,0.863,0.413,1.618,1.285,1.618c0.512,0,0.953-0.314,1.132-0.863
			c0.036-0.107,0.063-0.261,0.063-0.377V574.238z"/>
		<path class="st0" d="M447.267,575.64c0,0.449,0.009,0.845,0.036,1.187h-0.701l-0.045-0.71h-0.018
			c-0.207,0.351-0.665,0.809-1.438,0.809c-0.683,0-1.501-0.378-1.501-1.905v-2.544h0.791v2.409c0,0.827,0.252,1.384,0.971,1.384
			c0.53,0,0.899-0.368,1.042-0.719c0.045-0.117,0.072-0.261,0.072-0.404v-2.67h0.791V575.64z"/>
		<path class="st0" d="M449.022,574.795c0.018,1.069,0.701,1.51,1.492,1.51c0.566,0,0.908-0.099,1.204-0.225l0.135,0.566
			c-0.279,0.126-0.755,0.27-1.447,0.27c-1.339,0-2.139-0.881-2.139-2.193c0-1.312,0.773-2.346,2.041-2.346
			c1.42,0,1.797,1.249,1.797,2.05c0,0.161-0.018,0.287-0.027,0.368H449.022z M451.34,574.229c0.009-0.503-0.207-1.285-1.096-1.285
			c-0.8,0-1.15,0.737-1.213,1.285H451.34z"/>
		<path class="st0" d="M452.61,577.914c0.638-0.89,1.132-2.058,1.132-3.676c0-1.608-0.485-2.759-1.132-3.648h0.611
			c0.575,0.736,1.177,1.887,1.177,3.657c0,1.762-0.602,2.903-1.177,3.667H452.61z"/>
	</g>
</g>
<g>
	<path d="M325.709,574.034h-58.29c-1.388,0-2.513-1.125-2.513-2.513v-11.271c0-1.388,1.125-2.513,2.513-2.513h58.29
		c1.388,0,2.513,1.125,2.513,2.513v11.271C328.222,572.909,327.097,574.034,325.709,574.034z"/>
	<g>
		<path class="st0" d="M278.792,562.466h0.782v5.401h2.588v0.656h-3.37V562.466z"/>
		<path class="st0" d="M285.418,568.524l-0.063-0.548h-0.027c-0.243,0.342-0.71,0.646-1.33,0.646c-0.88,0-1.33-0.62-1.33-1.249
			c0-1.052,0.935-1.627,2.615-1.617v-0.09c0-0.359-0.099-1.007-0.988-1.007c-0.405,0-0.827,0.126-1.132,0.323l-0.18-0.521
			c0.36-0.233,0.881-0.386,1.429-0.386c1.33,0,1.654,0.907,1.654,1.779v1.627c0,0.377,0.018,0.746,0.072,1.042H285.418z
			 M285.301,566.304c-0.863-0.018-1.842,0.135-1.842,0.979c0,0.513,0.341,0.755,0.746,0.755c0.566,0,0.926-0.359,1.051-0.728
			c0.027-0.081,0.045-0.171,0.045-0.252V566.304z"/>
		<path class="st0" d="M293.887,568.254c-0.351,0.126-1.042,0.333-1.86,0.333c-0.917,0-1.671-0.234-2.265-0.8
			c-0.521-0.504-0.845-1.313-0.845-2.256c0.009-1.807,1.249-3.128,3.28-3.128c0.701,0,1.249,0.152,1.51,0.278l-0.188,0.639
			c-0.324-0.145-0.728-0.261-1.339-0.261c-1.474,0-2.436,0.916-2.436,2.436c0,1.537,0.926,2.444,2.337,2.444
			c0.512,0,0.863-0.072,1.042-0.162v-1.806h-1.231v-0.63h1.995V568.254z"/>
		<path class="st0" d="M297.539,568.524l-0.063-0.548h-0.027c-0.242,0.342-0.71,0.646-1.33,0.646c-0.88,0-1.33-0.62-1.33-1.249
			c0-1.052,0.935-1.627,2.615-1.617v-0.09c0-0.359-0.099-1.007-0.988-1.007c-0.405,0-0.827,0.126-1.132,0.323l-0.18-0.521
			c0.36-0.233,0.881-0.386,1.429-0.386c1.33,0,1.654,0.907,1.654,1.779v1.627c0,0.377,0.018,0.746,0.072,1.042H297.539z
			 M297.421,566.304c-0.863-0.018-1.842,0.135-1.842,0.979c0,0.513,0.341,0.755,0.746,0.755c0.566,0,0.926-0.359,1.051-0.728
			c0.027-0.081,0.045-0.171,0.045-0.252V566.304z"/>
		<path class="st0" d="M299.464,562.143h0.791v6.381h-0.791V562.143z"/>
		<path class="st0" d="M302.026,566.493c0.018,1.07,0.701,1.51,1.492,1.51c0.566,0,0.908-0.099,1.204-0.225l0.135,0.566
			c-0.279,0.126-0.755,0.27-1.447,0.27c-1.339,0-2.139-0.881-2.139-2.192c0-1.313,0.773-2.346,2.041-2.346
			c1.42,0,1.797,1.249,1.797,2.049c0,0.162-0.018,0.288-0.027,0.368H302.026z M304.345,565.927c0.009-0.504-0.207-1.286-1.096-1.286
			c-0.8,0-1.15,0.737-1.213,1.286H304.345z"/>
		<path class="st0" d="M306.091,565.532c0-0.513-0.009-0.953-0.036-1.357h0.692l0.027,0.854h0.036
			c0.198-0.584,0.674-0.952,1.205-0.952c0.09,0,0.153,0.009,0.225,0.026v0.746c-0.081-0.018-0.162-0.026-0.27-0.026
			c-0.558,0-0.953,0.422-1.061,1.016c-0.018,0.107-0.036,0.233-0.036,0.368v2.318h-0.782V565.532z"/>
		<path class="st0" d="M309.947,562.952c0.009,0.27-0.188,0.485-0.503,0.485c-0.279,0-0.477-0.216-0.477-0.485
			c0-0.278,0.207-0.494,0.495-0.494C309.759,562.458,309.947,562.673,309.947,562.952z M309.067,568.524v-4.35h0.791v4.35H309.067z"
			/>
		<path class="st0" d="M311.611,566.493c0.018,1.07,0.701,1.51,1.492,1.51c0.566,0,0.908-0.099,1.204-0.225l0.135,0.566
			c-0.279,0.126-0.755,0.27-1.447,0.27c-1.339,0-2.139-0.881-2.139-2.192c0-1.313,0.773-2.346,2.041-2.346
			c1.42,0,1.797,1.249,1.797,2.049c0,0.162-0.018,0.288-0.027,0.368H311.611z M313.93,565.927c0.009-0.504-0.207-1.286-1.096-1.286
			c-0.8,0-1.15,0.737-1.213,1.286H313.93z"/>
	</g>
</g>
<g>
	<path d="M468.593,630.573h-62.555c-1.388,0-2.513-1.125-2.513-2.513v-20.152c0-1.388,1.125-2.513,2.513-2.513h62.555
		c1.388,0,2.513,1.125,2.513,2.513v20.152C471.106,629.447,469.981,630.573,468.593,630.573z"/>
	<g>
		<path class="st0" d="M417.405,615.03c-0.288,0.145-0.863,0.288-1.6,0.288c-1.708,0-2.993-1.079-2.993-3.064
			c0-1.896,1.285-3.182,3.164-3.182c0.755,0,1.231,0.161,1.438,0.27l-0.189,0.638c-0.296-0.144-0.719-0.252-1.222-0.252
			c-1.42,0-2.364,0.908-2.364,2.499c0,1.482,0.854,2.436,2.328,2.436c0.477,0,0.962-0.099,1.276-0.252L417.405,615.03z"/>
		<path class="st0" d="M418.702,613.197c0.018,1.069,0.701,1.51,1.492,1.51c0.566,0,0.908-0.099,1.204-0.225l0.135,0.566
			c-0.279,0.126-0.755,0.27-1.447,0.27c-1.339,0-2.139-0.881-2.139-2.193c0-1.312,0.773-2.346,2.041-2.346
			c1.42,0,1.797,1.249,1.797,2.05c0,0.161-0.018,0.287-0.027,0.368H418.702z M421.02,612.63c0.009-0.503-0.207-1.285-1.096-1.285
			c-0.8,0-1.15,0.737-1.213,1.285H421.02z"/>
		<path class="st0" d="M422.767,612.055c0-0.449-0.009-0.817-0.036-1.178h0.701l0.045,0.72h0.018
			c0.215-0.414,0.719-0.818,1.438-0.818c0.602,0,1.537,0.359,1.537,1.852v2.598h-0.791v-2.508c0-0.701-0.261-1.285-1.006-1.285
			c-0.521,0-0.926,0.368-1.061,0.809c-0.036,0.1-0.054,0.234-0.054,0.369v2.615h-0.791V612.055z"/>
		<path class="st0" d="M428.674,609.628v1.249h1.132v0.603h-1.132v2.346c0,0.539,0.153,0.845,0.593,0.845
			c0.207,0,0.359-0.026,0.458-0.054l0.036,0.593c-0.153,0.063-0.396,0.108-0.701,0.108c-0.368,0-0.665-0.117-0.854-0.333
			c-0.225-0.233-0.306-0.62-0.306-1.132v-2.373h-0.674v-0.603h0.674v-1.042L428.674,609.628z"/>
		<path class="st0" d="M430.697,612.235c0-0.512-0.009-0.952-0.036-1.357h0.692l0.027,0.854h0.036
			c0.198-0.584,0.674-0.953,1.205-0.953c0.09,0,0.152,0.009,0.225,0.027v0.746c-0.081-0.019-0.162-0.027-0.27-0.027
			c-0.558,0-0.953,0.423-1.061,1.016c-0.018,0.107-0.036,0.233-0.036,0.368v2.319h-0.782V612.235z"/>
		<path class="st0" d="M433.988,613.197c0.018,1.069,0.701,1.51,1.492,1.51c0.566,0,0.908-0.099,1.204-0.225l0.135,0.566
			c-0.279,0.126-0.755,0.27-1.447,0.27c-1.339,0-2.139-0.881-2.139-2.193c0-1.312,0.773-2.346,2.041-2.346
			c1.42,0,1.797,1.249,1.797,2.05c0,0.161-0.018,0.287-0.027,0.368H433.988z M436.307,612.63c0.009-0.503-0.207-1.285-1.096-1.285
			c-0.8,0-1.15,0.737-1.213,1.285H436.307z"/>
		<path class="st0" d="M443.715,608.847v5.257c0,0.387,0.009,0.827,0.036,1.124h-0.71l-0.036-0.755h-0.018
			c-0.243,0.485-0.773,0.854-1.483,0.854c-1.052,0-1.861-0.89-1.861-2.211c-0.009-1.447,0.89-2.337,1.951-2.337
			c0.665,0,1.114,0.314,1.312,0.665h0.018v-2.597H443.715z M442.925,612.648c0-0.099-0.009-0.233-0.036-0.332
			c-0.117-0.503-0.548-0.917-1.141-0.917c-0.818,0-1.303,0.719-1.303,1.681c0,0.881,0.431,1.609,1.285,1.609
			c0.53,0,1.016-0.351,1.159-0.944c0.027-0.107,0.036-0.216,0.036-0.341V612.648z"/>
		<path class="st0" d="M446.082,609.072c-0.207,0.755-0.593,1.716-0.845,2.13l-0.503,0.063c0.198-0.53,0.431-1.465,0.53-2.112
			L446.082,609.072z"/>
		<path class="st0" d="M449.192,615.228l-0.063-0.549h-0.027c-0.242,0.342-0.71,0.647-1.33,0.647c-0.88,0-1.33-0.62-1.33-1.249
			c0-1.052,0.935-1.627,2.615-1.618v-0.09c0-0.359-0.099-1.007-0.988-1.007c-0.405,0-0.827,0.126-1.132,0.324l-0.18-0.521
			c0.36-0.233,0.881-0.387,1.429-0.387c1.33,0,1.654,0.908,1.654,1.779v1.627c0,0.378,0.018,0.746,0.072,1.043H449.192z
			 M449.075,613.008c-0.863-0.019-1.842,0.135-1.842,0.979c0,0.512,0.341,0.755,0.746,0.755c0.566,0,0.926-0.359,1.051-0.729
			c0.027-0.08,0.045-0.171,0.045-0.251V613.008z"/>
		<path class="st0" d="M451.998,609.656c0.009,0.27-0.188,0.485-0.503,0.485c-0.279,0-0.477-0.216-0.477-0.485
			c0-0.278,0.207-0.494,0.495-0.494C451.81,609.162,451.998,609.378,451.998,609.656z M451.118,615.228v-4.351h0.791v4.351H451.118z
			"/>
		<path class="st0" d="M456.978,608.847v5.257c0,0.387,0.009,0.827,0.036,1.124h-0.71l-0.036-0.755h-0.018
			c-0.243,0.485-0.773,0.854-1.483,0.854c-1.052,0-1.861-0.89-1.861-2.211c-0.009-1.447,0.89-2.337,1.951-2.337
			c0.665,0,1.114,0.314,1.312,0.665h0.018v-2.597H456.978z M456.187,612.648c0-0.099-0.009-0.233-0.036-0.332
			c-0.117-0.503-0.548-0.917-1.141-0.917c-0.818,0-1.303,0.719-1.303,1.681c0,0.881,0.431,1.609,1.285,1.609
			c0.53,0,1.016-0.351,1.159-0.944c0.027-0.107,0.036-0.216,0.036-0.341V612.648z"/>
		<path class="st0" d="M458.733,613.197c0.018,1.069,0.701,1.51,1.492,1.51c0.566,0,0.908-0.099,1.204-0.225l0.135,0.566
			c-0.279,0.126-0.755,0.27-1.447,0.27c-1.339,0-2.139-0.881-2.139-2.193c0-1.312,0.773-2.346,2.041-2.346
			c1.42,0,1.797,1.249,1.797,2.05c0,0.161-0.018,0.287-0.027,0.368H458.733z M461.052,612.63c0.009-0.503-0.207-1.285-1.096-1.285
			c-0.8,0-1.15,0.737-1.213,1.285H461.052z"/>
		<path class="st0" d="M418.598,626.018l-0.063-0.549h-0.027c-0.243,0.342-0.71,0.647-1.33,0.647c-0.88,0-1.33-0.62-1.33-1.249
			c0-1.052,0.935-1.627,2.615-1.618v-0.09c0-0.359-0.099-1.007-0.988-1.007c-0.405,0-0.827,0.126-1.132,0.324l-0.18-0.521
			c0.36-0.233,0.881-0.387,1.429-0.387c1.33,0,1.654,0.908,1.654,1.779v1.627c0,0.378,0.018,0.746,0.072,1.043H418.598z
			 M417.259,619.79l0.782,1.285h-0.557l-1.096-1.285H417.259z M418.481,623.798c-0.863-0.019-1.842,0.135-1.842,0.979
			c0,0.512,0.341,0.755,0.746,0.755c0.566,0,0.926-0.359,1.051-0.729c0.027-0.08,0.045-0.171,0.045-0.251V623.798z"/>
		<path class="st0" d="M422.43,619.637h0.791v6.381h-0.791V619.637z"/>
		<path class="st0" d="M426.96,626.018l-0.063-0.549h-0.027c-0.243,0.342-0.71,0.647-1.33,0.647c-0.88,0-1.33-0.62-1.33-1.249
			c0-1.052,0.935-1.627,2.615-1.618v-0.09c0-0.359-0.099-1.007-0.988-1.007c-0.405,0-0.827,0.126-1.132,0.324l-0.18-0.521
			c0.36-0.233,0.881-0.387,1.429-0.387c1.33,0,1.654,0.908,1.654,1.779v1.627c0,0.378,0.018,0.746,0.072,1.043H426.96z
			 M426.843,623.798c-0.863-0.019-1.842,0.135-1.842,0.979c0,0.512,0.341,0.755,0.746,0.755c0.566,0,0.926-0.359,1.051-0.729
			c0.027-0.08,0.045-0.171,0.045-0.251V623.798z"/>
		<path class="st0" d="M430.792,623.025c0-0.512-0.009-0.952-0.036-1.357h0.692l0.027,0.854h0.036
			c0.198-0.584,0.674-0.953,1.205-0.953c0.09,0,0.152,0.009,0.225,0.027v0.746c-0.081-0.019-0.162-0.027-0.27-0.027
			c-0.558,0-0.953,0.423-1.061,1.016c-0.018,0.107-0.036,0.233-0.036,0.368v2.319h-0.782V623.025z"/>
		<path class="st0" d="M434.082,623.987c0.018,1.069,0.701,1.51,1.492,1.51c0.566,0,0.908-0.099,1.204-0.225l0.135,0.566
			c-0.279,0.126-0.755,0.27-1.447,0.27c-1.339,0-2.139-0.881-2.139-2.193c0-1.312,0.773-2.346,2.041-2.346
			c1.42,0,1.797,1.249,1.797,2.05c0,0.161-0.018,0.287-0.027,0.368H434.082z M436.401,623.42c0.009-0.503-0.207-1.285-1.096-1.285
			c-0.8,0-1.15,0.737-1.213,1.285H436.401z M436.59,619.79l-1.097,1.285h-0.566l0.791-1.285H436.59z"/>
		<path class="st0" d="M441.787,624.832c0,0.449,0.009,0.845,0.036,1.187h-0.701l-0.045-0.71h-0.018
			c-0.207,0.351-0.665,0.809-1.438,0.809c-0.683,0-1.501-0.378-1.501-1.905v-2.544h0.791v2.409c0,0.827,0.252,1.384,0.971,1.384
			c0.53,0,0.899-0.368,1.042-0.719c0.045-0.117,0.072-0.261,0.072-0.404v-2.67h0.791V624.832z"/>
		<path class="st0" d="M442.994,625.209c0.233,0.153,0.647,0.315,1.042,0.315c0.575,0,0.845-0.288,0.845-0.647
			c0-0.378-0.225-0.584-0.809-0.8c-0.782-0.278-1.15-0.71-1.15-1.231c0-0.701,0.566-1.276,1.5-1.276c0.44,0,0.827,0.126,1.07,0.27
			l-0.198,0.575c-0.171-0.107-0.485-0.251-0.89-0.251c-0.468,0-0.728,0.27-0.728,0.593c0,0.359,0.26,0.521,0.827,0.737
			c0.755,0.287,1.142,0.665,1.142,1.312c0,0.765-0.593,1.304-1.627,1.304c-0.476,0-0.917-0.117-1.222-0.297L442.994,625.209z"/>
		<path class="st0" d="M446.554,625.209c0.233,0.153,0.647,0.315,1.042,0.315c0.575,0,0.845-0.288,0.845-0.647
			c0-0.378-0.225-0.584-0.809-0.8c-0.782-0.278-1.15-0.71-1.15-1.231c0-0.701,0.566-1.276,1.5-1.276c0.44,0,0.827,0.126,1.07,0.27
			l-0.198,0.575c-0.171-0.107-0.485-0.251-0.89-0.251c-0.468,0-0.728,0.27-0.728,0.593c0,0.359,0.26,0.521,0.827,0.737
			c0.755,0.287,1.142,0.665,1.142,1.312c0,0.765-0.593,1.304-1.627,1.304c-0.476,0-0.917-0.117-1.222-0.297L446.554,625.209z"/>
		<path class="st0" d="M451.103,620.446c0.009,0.27-0.188,0.485-0.503,0.485c-0.279,0-0.477-0.216-0.477-0.485
			c0-0.278,0.207-0.494,0.495-0.494C450.915,619.952,451.103,620.168,451.103,620.446z M450.223,626.018v-4.351h0.791v4.351H450.223
			z"/>
		<path class="st0" d="M453.28,620.419v1.249h1.132v0.603h-1.132v2.346c0,0.539,0.153,0.845,0.593,0.845
			c0.207,0,0.359-0.026,0.458-0.054l0.036,0.593c-0.153,0.063-0.396,0.108-0.701,0.108c-0.368,0-0.665-0.117-0.854-0.333
			c-0.225-0.233-0.306-0.62-0.306-1.132v-2.373h-0.674v-0.603h0.674v-1.042L453.28,620.419z"/>
		<path class="st0" d="M455.69,623.987c0.018,1.069,0.701,1.51,1.492,1.51c0.566,0,0.908-0.099,1.204-0.225l0.135,0.566
			c-0.279,0.126-0.755,0.27-1.447,0.27c-1.339,0-2.139-0.881-2.139-2.193c0-1.312,0.773-2.346,2.041-2.346
			c1.42,0,1.797,1.249,1.797,2.05c0,0.161-0.018,0.287-0.027,0.368H455.69z M458.008,623.42c0.009-0.503-0.207-1.285-1.096-1.285
			c-0.8,0-1.15,0.737-1.213,1.285H458.008z"/>
	</g>
</g>
<g>
	<path d="M503.124,341.624h-55.145c-1.388,0-2.513-1.125-2.513-2.513v-20.152c0-1.388,1.125-2.513,2.513-2.513h55.145
		c1.388,0,2.513,1.125,2.513,2.513v20.152C505.637,340.499,504.512,341.624,503.124,341.624z"/>
	<g>
		<path class="st0" d="M465.705,325.327c0.351,0.216,0.863,0.396,1.402,0.396c0.8,0,1.268-0.422,1.268-1.034
			c0-0.566-0.324-0.89-1.142-1.204c-0.989-0.351-1.6-0.863-1.6-1.717c0-0.944,0.782-1.645,1.959-1.645
			c0.62,0,1.07,0.144,1.339,0.296l-0.216,0.638c-0.198-0.108-0.602-0.288-1.15-0.288c-0.827,0-1.142,0.494-1.142,0.908
			c0,0.566,0.369,0.845,1.205,1.168c1.024,0.396,1.546,0.89,1.546,1.779c0,0.935-0.692,1.744-2.121,1.744
			c-0.584,0-1.222-0.171-1.546-0.386L465.705,325.327z"/>
		<path class="st0" d="M472.655,326.279l-0.063-0.548h-0.027c-0.242,0.342-0.71,0.647-1.33,0.647c-0.88,0-1.33-0.62-1.33-1.249
			c0-1.052,0.935-1.627,2.615-1.618v-0.09c0-0.359-0.099-1.007-0.988-1.007c-0.405,0-0.827,0.126-1.132,0.324l-0.18-0.521
			c0.36-0.233,0.881-0.386,1.429-0.386c1.33,0,1.654,0.908,1.654,1.779v1.627c0,0.377,0.018,0.746,0.072,1.042H472.655z
			 M472.538,324.06c-0.863-0.018-1.842,0.135-1.842,0.979c0,0.512,0.341,0.755,0.746,0.755c0.566,0,0.926-0.359,1.051-0.728
			c0.027-0.081,0.045-0.171,0.045-0.251V324.06z"/>
		<path class="st0" d="M474.58,319.899h0.791v6.381h-0.791V319.899z"/>
		<path class="st0" d="M480.639,324.068c0,1.609-1.115,2.31-2.166,2.31c-1.178,0-2.085-0.863-2.085-2.238
			c0-1.456,0.953-2.31,2.157-2.31C479.793,321.831,480.639,322.738,480.639,324.068z M477.187,324.113
			c0,0.953,0.548,1.672,1.321,1.672c0.755,0,1.321-0.71,1.321-1.69c0-0.737-0.369-1.671-1.303-1.671
			S477.187,323.287,477.187,324.113z"/>
		<path class="st0" d="M481.639,323.107c0-0.45-0.009-0.818-0.036-1.178h0.701l0.045,0.719h0.018
			c0.215-0.414,0.719-0.818,1.438-0.818c0.602,0,1.537,0.359,1.537,1.852v2.597h-0.791v-2.507c0-0.701-0.26-1.285-1.006-1.285
			c-0.521,0-0.926,0.368-1.061,0.809c-0.036,0.099-0.054,0.234-0.054,0.369v2.615h-0.791V323.107z"/>
		<path class="st0" d="M455.165,330.689v5.257c0,0.387,0.009,0.827,0.036,1.124h-0.71l-0.036-0.755h-0.018
			c-0.243,0.485-0.773,0.854-1.483,0.854c-1.052,0-1.861-0.89-1.861-2.21c-0.009-1.447,0.89-2.337,1.951-2.337
			c0.665,0,1.114,0.314,1.312,0.665h0.018v-2.597H455.165z M454.374,334.49c0-0.099-0.009-0.233-0.036-0.333
			c-0.117-0.503-0.548-0.917-1.142-0.917c-0.817,0-1.303,0.719-1.303,1.681c0,0.881,0.431,1.609,1.285,1.609
			c0.53,0,1.016-0.351,1.159-0.944c0.027-0.108,0.036-0.216,0.036-0.341V334.49z"/>
		<path class="st0" d="M460.119,335.883c0,0.45,0.009,0.845,0.036,1.187h-0.701l-0.045-0.71h-0.018
			c-0.207,0.351-0.665,0.809-1.438,0.809c-0.683,0-1.501-0.377-1.501-1.905v-2.543h0.791v2.409c0,0.827,0.252,1.384,0.971,1.384
			c0.53,0,0.899-0.369,1.042-0.719c0.045-0.117,0.072-0.26,0.072-0.404v-2.669h0.791V335.883z"/>
		<path class="st0" d="M463.34,334.14c0-0.558-0.018-1.007-0.036-1.42h0.71l0.036,0.746h0.018c0.323-0.53,0.835-0.845,1.545-0.845
			c1.052,0,1.843,0.89,1.843,2.211c0,1.564-0.953,2.336-1.978,2.336c-0.575,0-1.078-0.251-1.339-0.683h-0.018v2.363h-0.782V334.14z
			 M464.122,335.299c0,0.117,0.018,0.225,0.036,0.324c0.144,0.548,0.62,0.925,1.186,0.925c0.836,0,1.321-0.683,1.321-1.681
			c0-0.872-0.458-1.618-1.294-1.618c-0.539,0-1.042,0.387-1.195,0.98c-0.027,0.099-0.054,0.215-0.054,0.323V335.299z"/>
		<path class="st0" d="M468.897,335.038c0.018,1.07,0.701,1.51,1.492,1.51c0.566,0,0.908-0.099,1.204-0.225l0.135,0.566
			c-0.279,0.126-0.755,0.27-1.447,0.27c-1.339,0-2.139-0.881-2.139-2.193s0.773-2.346,2.041-2.346c1.42,0,1.797,1.249,1.797,2.049
			c0,0.162-0.018,0.288-0.027,0.368H468.897z M471.215,334.472c0.009-0.503-0.207-1.286-1.096-1.286c-0.8,0-1.15,0.737-1.213,1.286
			H471.215z"/>
		<path class="st0" d="M472.961,334.077c0-0.512-0.009-0.953-0.036-1.357h0.692l0.027,0.854h0.036
			c0.198-0.584,0.674-0.953,1.205-0.953c0.09,0,0.152,0.009,0.225,0.027v0.746c-0.081-0.018-0.162-0.027-0.27-0.027
			c-0.558,0-0.953,0.422-1.061,1.016c-0.018,0.107-0.036,0.233-0.036,0.368v2.319h-0.782V334.077z"/>
		<path class="st0" d="M475.793,336.26c0.233,0.153,0.647,0.315,1.042,0.315c0.575,0,0.845-0.288,0.845-0.647
			c0-0.377-0.225-0.584-0.809-0.8c-0.782-0.278-1.15-0.71-1.15-1.231c0-0.701,0.566-1.276,1.5-1.276c0.44,0,0.827,0.126,1.07,0.27
			l-0.198,0.575c-0.171-0.108-0.485-0.251-0.89-0.251c-0.468,0-0.728,0.27-0.728,0.593c0,0.359,0.26,0.521,0.827,0.737
			c0.755,0.288,1.142,0.665,1.142,1.312c0,0.764-0.593,1.303-1.627,1.303c-0.476,0-0.917-0.117-1.222-0.296L475.793,336.26z"/>
		<path class="st0" d="M483.399,334.858c0,1.609-1.115,2.31-2.166,2.31c-1.178,0-2.085-0.863-2.085-2.238
			c0-1.456,0.953-2.31,2.157-2.31C482.554,332.621,483.399,333.528,483.399,334.858z M479.948,334.903
			c0,0.953,0.548,1.672,1.321,1.672c0.755,0,1.321-0.71,1.321-1.69c0-0.737-0.369-1.671-1.303-1.671
			S479.948,334.077,479.948,334.903z"/>
		<path class="st0" d="M484.399,333.897c0-0.45-0.009-0.818-0.036-1.178h0.701l0.045,0.719h0.018
			c0.215-0.414,0.719-0.818,1.438-0.818c0.602,0,1.537,0.359,1.537,1.852v2.597h-0.791v-2.507c0-0.701-0.261-1.285-1.006-1.285
			c-0.521,0-0.926,0.368-1.061,0.809c-0.036,0.099-0.054,0.234-0.054,0.369v2.615h-0.791V333.897z"/>
		<path class="st0" d="M489.389,333.897c0-0.45-0.009-0.818-0.036-1.178h0.701l0.045,0.719h0.018
			c0.215-0.414,0.719-0.818,1.438-0.818c0.602,0,1.537,0.359,1.537,1.852v2.597h-0.791v-2.507c0-0.701-0.261-1.285-1.006-1.285
			c-0.521,0-0.926,0.368-1.061,0.809c-0.036,0.099-0.054,0.234-0.054,0.369v2.615h-0.791V333.897z"/>
		<path class="st0" d="M494.82,335.038c0.018,1.07,0.701,1.51,1.492,1.51c0.566,0,0.908-0.099,1.204-0.225l0.135,0.566
			c-0.278,0.126-0.755,0.27-1.447,0.27c-1.339,0-2.139-0.881-2.139-2.193s0.773-2.346,2.041-2.346c1.419,0,1.797,1.249,1.797,2.049
			c0,0.162-0.019,0.288-0.027,0.368H494.82z M497.138,334.472c0.009-0.503-0.207-1.286-1.096-1.286c-0.8,0-1.15,0.737-1.213,1.286
			H497.138z"/>
		<path class="st0" d="M498.884,330.689h0.791v6.381h-0.791V330.689z"/>
	</g>
</g>
<g>
	<path d="M454.588,401.602h-46.964c-1.388,0-2.513-1.125-2.513-2.513v-20.152c0-1.388,1.125-2.513,2.513-2.513h46.964
		c1.388,0,2.513,1.125,2.513,2.513v20.152C457.102,400.477,455.976,401.602,454.588,401.602z"/>
	<g>
		<path class="st0" d="M418.408,386.06c-0.288,0.144-0.863,0.288-1.6,0.288c-1.708,0-2.993-1.079-2.993-3.064
			c0-1.896,1.285-3.182,3.164-3.182c0.755,0,1.231,0.162,1.438,0.27l-0.189,0.638c-0.296-0.144-0.719-0.252-1.222-0.252
			c-1.42,0-2.364,0.908-2.364,2.499c0,1.483,0.854,2.436,2.328,2.436c0.477,0,0.962-0.099,1.276-0.251L418.408,386.06z"/>
		<path class="st0" d="M419.363,379.877h0.791v6.381h-0.791V379.877z"/>
		<path class="st0" d="M423.894,386.257l-0.063-0.548h-0.027c-0.242,0.342-0.71,0.647-1.33,0.647c-0.88,0-1.33-0.62-1.33-1.249
			c0-1.052,0.935-1.627,2.615-1.618v-0.09c0-0.359-0.099-1.007-0.988-1.007c-0.405,0-0.827,0.126-1.132,0.324l-0.18-0.521
			c0.36-0.233,0.881-0.386,1.429-0.386c1.33,0,1.654,0.908,1.654,1.779v1.627c0,0.377,0.018,0.746,0.072,1.042H423.894z
			 M423.776,384.038c-0.863-0.018-1.842,0.135-1.842,0.979c0,0.512,0.341,0.755,0.746,0.755c0.566,0,0.926-0.359,1.051-0.728
			c0.027-0.081,0.045-0.171,0.045-0.251V384.038z"/>
		<path class="st0" d="M425.711,385.448c0.233,0.153,0.647,0.315,1.042,0.315c0.575,0,0.845-0.288,0.845-0.647
			c0-0.377-0.225-0.584-0.809-0.8c-0.782-0.278-1.15-0.71-1.15-1.231c0-0.701,0.566-1.276,1.5-1.276c0.44,0,0.827,0.126,1.07,0.27
			l-0.198,0.575c-0.171-0.108-0.485-0.251-0.89-0.251c-0.468,0-0.728,0.27-0.728,0.593c0,0.359,0.26,0.521,0.827,0.737
			c0.755,0.288,1.142,0.665,1.142,1.312c0,0.764-0.593,1.303-1.627,1.303c-0.476,0-0.917-0.117-1.222-0.296L425.711,385.448z"/>
		<path class="st0" d="M429.272,385.448c0.233,0.153,0.647,0.315,1.042,0.315c0.575,0,0.845-0.288,0.845-0.647
			c0-0.377-0.225-0.584-0.809-0.8c-0.782-0.278-1.15-0.71-1.15-1.231c0-0.701,0.566-1.276,1.5-1.276c0.44,0,0.827,0.126,1.07,0.27
			l-0.198,0.575c-0.171-0.108-0.485-0.251-0.89-0.251c-0.468,0-0.728,0.27-0.728,0.593c0,0.359,0.26,0.521,0.827,0.737
			c0.755,0.288,1.142,0.665,1.142,1.312c0,0.764-0.593,1.303-1.627,1.303c-0.476,0-0.917-0.117-1.222-0.296L429.272,385.448z"/>
		<path class="st0" d="M433.381,384.226c0.018,1.07,0.701,1.51,1.492,1.51c0.566,0,0.908-0.099,1.204-0.225l0.135,0.566
			c-0.279,0.126-0.755,0.27-1.447,0.27c-1.339,0-2.139-0.881-2.139-2.193s0.773-2.346,2.041-2.346c1.42,0,1.797,1.249,1.797,2.049
			c0,0.162-0.018,0.288-0.027,0.368H433.381z M435.699,383.66c0.009-0.503-0.207-1.286-1.096-1.286c-0.8,0-1.15,0.737-1.213,1.286
			H435.699z"/>
		<path class="st0" d="M443.108,379.877v5.257c0,0.387,0.009,0.827,0.036,1.124h-0.71l-0.036-0.755h-0.018
			c-0.243,0.485-0.773,0.854-1.483,0.854c-1.052,0-1.861-0.89-1.861-2.21c-0.009-1.447,0.89-2.337,1.951-2.337
			c0.665,0,1.114,0.314,1.312,0.665h0.018v-2.597H443.108z M442.317,383.678c0-0.099-0.009-0.233-0.036-0.333
			c-0.117-0.503-0.548-0.917-1.141-0.917c-0.818,0-1.303,0.719-1.303,1.681c0,0.881,0.431,1.609,1.285,1.609
			c0.53,0,1.016-0.351,1.159-0.944c0.027-0.108,0.036-0.216,0.036-0.341V383.678z"/>
		<path class="st0" d="M448.062,385.071c0,0.45,0.009,0.845,0.036,1.187h-0.701l-0.045-0.71h-0.018
			c-0.207,0.351-0.665,0.809-1.438,0.809c-0.683,0-1.501-0.377-1.501-1.905v-2.543h0.791v2.409c0,0.827,0.252,1.384,0.971,1.384
			c0.53,0,0.899-0.369,1.042-0.719c0.045-0.117,0.072-0.26,0.072-0.404v-2.669h0.791V385.071z"/>
		<path class="st0" d="M413.28,397.047v-0.485l0.62-0.602c1.492-1.42,2.166-2.175,2.175-3.056c0-0.593-0.288-1.142-1.16-1.142
			c-0.53,0-0.971,0.27-1.24,0.494l-0.251-0.557c0.404-0.341,0.979-0.593,1.654-0.593c1.258,0,1.788,0.863,1.788,1.699
			c0,1.079-0.782,1.95-2.013,3.137l-0.467,0.432v0.018h2.625v0.656H413.28z"/>
		<path class="st0" d="M419.61,391.942h-0.018l-1.016,0.548l-0.153-0.602l1.276-0.683h0.674v5.842h-0.764V391.942z"/>
		<path class="st0" d="M423.198,395.016c0.018,1.07,0.701,1.51,1.492,1.51c0.566,0,0.908-0.099,1.204-0.225l0.135,0.566
			c-0.279,0.126-0.755,0.27-1.447,0.27c-1.339,0-2.139-0.881-2.139-2.193s0.773-2.346,2.041-2.346c1.42,0,1.797,1.249,1.797,2.049
			c0,0.162-0.018,0.288-0.027,0.368H423.198z M425.517,394.45c0.009-0.503-0.207-1.286-1.096-1.286c-0.8,0-1.15,0.737-1.213,1.286
			H425.517z"/>
		<path class="st0" d="M429.061,396.238c0.233,0.153,0.647,0.315,1.042,0.315c0.575,0,0.845-0.288,0.845-0.647
			c0-0.377-0.225-0.584-0.809-0.8c-0.782-0.278-1.15-0.71-1.15-1.231c0-0.701,0.566-1.276,1.5-1.276c0.44,0,0.827,0.126,1.07,0.27
			l-0.198,0.575c-0.171-0.108-0.485-0.251-0.89-0.251c-0.468,0-0.728,0.27-0.728,0.593c0,0.359,0.26,0.521,0.827,0.737
			c0.755,0.288,1.142,0.665,1.142,1.312c0,0.764-0.593,1.303-1.627,1.303c-0.476,0-0.917-0.117-1.222-0.296L429.061,396.238z"/>
		<path class="st0" d="M433.61,391.475c0.009,0.27-0.188,0.485-0.503,0.485c-0.279,0-0.477-0.216-0.477-0.485
			c0-0.278,0.207-0.494,0.495-0.494C433.421,390.981,433.61,391.197,433.61,391.475z M432.729,397.047v-4.35h0.791v4.35H432.729z"/>
		<path class="st0" d="M435.274,395.016c0.018,1.07,0.701,1.51,1.492,1.51c0.566,0,0.908-0.099,1.204-0.225l0.135,0.566
			c-0.279,0.126-0.755,0.27-1.447,0.27c-1.339,0-2.139-0.881-2.139-2.193s0.773-2.346,2.041-2.346c1.42,0,1.797,1.249,1.797,2.049
			c0,0.162-0.018,0.288-0.027,0.368H435.274z M437.592,394.45c0.009-0.503-0.207-1.286-1.096-1.286c-0.8,0-1.15,0.737-1.213,1.286
			H437.592z M436.262,390.819l0.791,1.286h-0.566l-1.096-1.286H436.262z"/>
		<path class="st0" d="M442.439,396.886c-0.207,0.108-0.665,0.251-1.25,0.251c-1.312,0-2.166-0.89-2.166-2.22
			c0-1.339,0.917-2.31,2.337-2.31c0.467,0,0.881,0.117,1.097,0.225l-0.18,0.611c-0.188-0.108-0.485-0.207-0.917-0.207
			c-0.998,0-1.537,0.737-1.537,1.645c0,1.007,0.647,1.627,1.51,1.627c0.449,0,0.746-0.117,0.971-0.216L442.439,396.886z"/>
		<path class="st0" d="M443.367,390.667h0.791v6.381h-0.791V390.667z"/>
		<path class="st0" d="M445.929,395.016c0.018,1.07,0.701,1.51,1.492,1.51c0.566,0,0.908-0.099,1.204-0.225l0.135,0.566
			c-0.279,0.126-0.755,0.27-1.447,0.27c-1.339,0-2.139-0.881-2.139-2.193s0.773-2.346,2.041-2.346c1.42,0,1.797,1.249,1.797,2.049
			c0,0.162-0.018,0.288-0.027,0.368H445.929z M448.248,394.45c0.009-0.503-0.207-1.286-1.096-1.286c-0.8,0-1.15,0.737-1.213,1.286
			H448.248z"/>
	</g>
</g>
<g>
	<path d="M320.905,637.13h-41.54c-1.388,0-2.513-1.125-2.513-2.513v-4.784c0-1.388,1.125-2.513,2.513-2.513h41.54
		c1.388,0,2.513,1.125,2.513,2.513v4.784C323.419,636.005,322.293,637.13,320.905,637.13z"/>
	<g>
		<path class="st0" d="M292.161,630.324h-1.11v-0.401h2.703v0.401h-1.116v3.25h-0.477V630.324z"/>
		<path class="st0" d="M294.022,632.349c0.011,0.645,0.423,0.91,0.899,0.91c0.341,0,0.547-0.06,0.726-0.136l0.081,0.342
			c-0.168,0.075-0.455,0.162-0.872,0.162c-0.807,0-1.289-0.53-1.289-1.321s0.466-1.414,1.229-1.414c0.856,0,1.083,0.753,1.083,1.235
			c0,0.098-0.011,0.173-0.017,0.222H294.022z M295.42,632.008c0.005-0.304-0.125-0.774-0.661-0.774
			c-0.482,0-0.693,0.443-0.731,0.774H295.42z"/>
		<path class="st0" d="M296.469,631.77c0-0.31-0.005-0.574-0.022-0.818h0.417l0.016,0.515h0.021
			c0.119-0.353,0.406-0.574,0.726-0.574c0.054,0,0.092,0.006,0.135,0.017v0.449c-0.049-0.011-0.097-0.017-0.163-0.017
			c-0.335,0-0.574,0.255-0.639,0.612c-0.011,0.065-0.021,0.141-0.021,0.223v1.397h-0.471V631.77z"/>
		<path class="st0" d="M298.26,631.77c0-0.31-0.005-0.574-0.022-0.818h0.417l0.016,0.515h0.021c0.119-0.353,0.406-0.574,0.726-0.574
			c0.054,0,0.092,0.006,0.135,0.017v0.449c-0.049-0.011-0.097-0.017-0.163-0.017c-0.335,0-0.574,0.255-0.639,0.612
			c-0.011,0.065-0.021,0.141-0.021,0.223v1.397h-0.471V631.77z"/>
		<path class="st0" d="M301.455,633.574l-0.038-0.331h-0.016c-0.146,0.206-0.428,0.391-0.802,0.391
			c-0.531,0-0.802-0.374-0.802-0.753c0-0.634,0.563-0.98,1.577-0.976v-0.054c0-0.217-0.06-0.606-0.596-0.606
			c-0.244,0-0.498,0.075-0.683,0.194l-0.108-0.313c0.216-0.142,0.531-0.233,0.861-0.233c0.802,0,0.997,0.547,0.997,1.072v0.98
			c0,0.228,0.011,0.45,0.043,0.629H301.455z M301.385,632.236c-0.52-0.011-1.11,0.081-1.11,0.59c0,0.309,0.206,0.455,0.449,0.455
			c0.341,0,0.558-0.217,0.634-0.438c0.017-0.049,0.027-0.103,0.027-0.151V632.236z"/>
		<path class="st0" d="M302.547,633.086c0.141,0.092,0.39,0.189,0.628,0.189c0.347,0,0.509-0.174,0.509-0.391
			c0-0.228-0.135-0.352-0.487-0.481c-0.471-0.168-0.693-0.429-0.693-0.742c0-0.423,0.341-0.77,0.905-0.77
			c0.265,0,0.498,0.076,0.645,0.162l-0.119,0.347c-0.103-0.064-0.292-0.151-0.537-0.151c-0.281,0-0.438,0.163-0.438,0.357
			c0,0.217,0.157,0.314,0.498,0.444c0.455,0.174,0.688,0.401,0.688,0.791c0,0.46-0.357,0.785-0.98,0.785
			c-0.287,0-0.552-0.07-0.736-0.179L302.547,633.086z"/>
		<path class="st0" d="M304.691,633.086c0.141,0.092,0.39,0.189,0.628,0.189c0.347,0,0.509-0.174,0.509-0.391
			c0-0.228-0.135-0.352-0.487-0.481c-0.471-0.168-0.693-0.429-0.693-0.742c0-0.423,0.341-0.77,0.905-0.77
			c0.265,0,0.498,0.076,0.645,0.162l-0.119,0.347c-0.103-0.064-0.292-0.151-0.537-0.151c-0.281,0-0.438,0.163-0.438,0.357
			c0,0.217,0.157,0.314,0.498,0.444c0.455,0.174,0.688,0.401,0.688,0.791c0,0.46-0.357,0.785-0.98,0.785
			c-0.287,0-0.552-0.07-0.736-0.179L304.691,633.086z"/>
		<path class="st0" d="M307.165,632.349c0.011,0.645,0.423,0.91,0.899,0.91c0.341,0,0.547-0.06,0.726-0.136l0.081,0.342
			c-0.168,0.075-0.455,0.162-0.872,0.162c-0.807,0-1.289-0.53-1.289-1.321s0.466-1.414,1.229-1.414c0.856,0,1.083,0.753,1.083,1.235
			c0,0.098-0.011,0.173-0.017,0.222H307.165z M308.562,632.008c0.005-0.304-0.125-0.774-0.661-0.774
			c-0.482,0-0.693,0.443-0.731,0.774H308.562z"/>
	</g>
</g>
</svg>
