<?xml version="1.0" encoding="utf-8"?>
<!-- Generator: Adobe Illustrator 19.0.1, SVG Export Plug-In . SVG Version: 6.00 Build 0)  -->
<svg version="1.1" id="icones" xmlns="http://www.w3.org/2000/svg" xmlns:xlink="http://www.w3.org/1999/xlink" x="0px" y="0px"
	 viewBox="0 0 1136 1268" style="enable-background:new 0 0 1136 1268;" xml:space="preserve">
<style type="text/css">
	.st0{fill:#1D1D1B;}
	.st1{fill:#FFFFFF;}
	.st2{fill:#D74641;}
</style>
<g>
	<path class="st0" d="M834.695,1003.217H827.1c-1.034,0-1.872-0.838-1.872-1.872v-7.594c0-1.034,0.838-1.872,1.872-1.872h7.594
		c1.034,0,1.872,0.838,1.872,1.872v7.594C836.567,1002.379,835.729,1003.217,834.695,1003.217z"/>
	<g>
		<circle class="st1" cx="830.898" cy="993.642" r="0.779"/>
		<path class="st1" d="M833.009,997.467l-0.668-2.199c-0.13-0.389-0.518-0.695-1.084-0.695h-0.718c-0.567,0-0.955,0.306-1.085,0.695
			l-0.668,2.199c-0.138,0.473,0.408,0.641,0.551,0.199l0.705-2.011h0.081c0,0-0.926,3.6-0.965,3.735
			c-0.02,0.067,0.008,0.116,0.08,0.116c0.044,0,0.802,0,0.802,0l0.001,2.364c0,0.481,0.72,0.481,0.72,0v-2.382h0.276l0,2.382
			c0,0.481,0.72,0.481,0.72,0l0-2.364c0,0,0.757,0,0.801,0c0.071,0,0.1-0.049,0.08-0.116c-0.039-0.135-0.966-3.735-0.966-3.735
			h0.082l0.705,2.011C832.601,998.108,833.148,997.94,833.009,997.467z"/>
	</g>
</g>
<g>
	<path class="st0" d="M843.648,1017.726h-7.594c-1.034,0-1.872-0.838-1.872-1.872v-7.594c0-1.034,0.838-1.872,1.872-1.872h7.594
		c1.034,0,1.872,0.838,1.872,1.872v7.594C845.52,1016.887,844.682,1017.726,843.648,1017.726z"/>
	<g>
		<circle class="st1" cx="839.851" cy="1008.107" r="0.787"/>
		<path class="st1" d="M840.698,1009.049l-0.847,0.001l-0.846-0.001c-0.759,0-1.006,0.196-1.006,1.022v2.417
			c0,0.469,0.634,0.469,0.634,0l0.054-2.21h0.163v6.051c0,0.628,0.862,0.61,0.862,0l0.055-3.513h0.171l0.054,3.513
			c0,0.61,0.862,0.628,0.862,0v-6.051h0.163l0.055,2.21c0,0.469,0.633,0.469,0.633,0v-2.417
			C841.703,1009.244,841.456,1009.049,840.698,1009.049z"/>
	</g>
</g>
<g>
	<path class="st0" d="M876.576,1070.258h-7.594c-1.034,0-1.872-0.838-1.872-1.872v-7.594c0-1.034,0.838-1.872,1.872-1.872h7.594
		c1.034,0,1.872,0.838,1.872,1.872v7.594C878.448,1069.42,877.61,1070.258,876.576,1070.258z"/>
	<polygon class="st1" points="872.778,1060.892 872.778,1063.357 870.691,1063.357 870.691,1065.822 868.604,1065.822 
		868.604,1068.286 872.778,1068.286 872.778,1065.822 874.866,1065.822 874.866,1063.357 876.953,1063.357 876.953,1060.892 	"/>
</g>
<g>
	<path class="st0" d="M783.916,849.138h-7.594c-1.034,0-1.872-0.838-1.872-1.872v-7.594c0-1.034,0.838-1.872,1.872-1.872h7.594
		c1.034,0,1.872,0.838,1.872,1.872v7.594C785.788,848.3,784.95,849.138,783.916,849.138z"/>
	<polygon class="st1" points="780.119,839.771 780.119,842.236 778.031,842.236 778.031,844.701 775.944,844.701 775.944,847.166 
		780.119,847.166 780.119,844.701 782.206,844.701 782.206,842.236 784.293,842.236 784.293,839.771 	"/>
</g>
<g>
	<path class="st0" d="M786.748,937.002h-7.594c-1.034,0-1.872-0.838-1.872-1.872v-7.594c0-1.034,0.838-1.872,1.872-1.872h7.594
		c1.034,0,1.872,0.838,1.872,1.872v7.594C788.62,936.164,787.781,937.002,786.748,937.002z"/>
	<polygon class="st1" points="782.95,927.635 782.95,930.1 780.863,930.1 780.863,932.565 778.776,932.565 778.776,935.03 
		782.95,935.03 782.95,932.565 785.037,932.565 785.037,930.1 787.125,930.1 787.125,927.635 	"/>
</g>
<g>
	<path class="st0" d="M760.36,655.566h-7.594c-1.034,0-1.872-0.838-1.872-1.872V646.1c0-1.034,0.838-1.872,1.872-1.872h7.594
		c1.034,0,1.872,0.838,1.872,1.872v7.594C762.232,654.728,761.394,655.566,760.36,655.566z"/>
	<polygon class="st1" points="756.563,646.2 756.563,648.665 754.476,648.665 754.476,651.13 752.388,651.13 752.388,653.594 
		756.563,653.594 756.563,651.13 758.65,651.13 758.65,648.665 760.737,648.665 760.737,646.2 	"/>
</g>
<g>
	<path class="st0" d="M692.215,546.72h-7.594c-1.034,0-1.872-0.838-1.872-1.872v-7.594c0-1.034,0.838-1.872,1.872-1.872h7.594
		c1.034,0,1.872,0.838,1.872,1.872v7.594C694.087,545.881,693.249,546.72,692.215,546.72z"/>
	<polygon class="st1" points="688.418,537.353 688.418,539.818 686.331,539.818 686.331,542.283 684.244,542.283 684.244,544.748 
		688.418,544.748 688.418,542.283 690.505,542.283 690.505,539.818 692.592,539.818 692.592,537.353 	"/>
</g>
<g>
	<path class="st0" d="M724.053,527.413h-7.594c-1.034,0-1.872-0.838-1.872-1.872v-7.594c0-1.034,0.838-1.872,1.872-1.872h7.594
		c1.034,0,1.872,0.838,1.872,1.872v7.594C725.925,526.575,725.086,527.413,724.053,527.413z"/>
	<polygon class="st1" points="720.255,518.046 720.255,520.511 718.168,520.511 718.168,522.976 716.081,522.976 716.081,525.441 
		720.255,525.441 720.255,522.976 722.342,522.976 722.342,520.511 724.43,520.511 724.43,518.046 	"/>
</g>
<g>
	<path class="st0" d="M357.349,297.973h-7.594c-1.034,0-1.872-0.838-1.872-1.872v-7.594c0-1.034,0.838-1.872,1.872-1.872h7.594
		c1.034,0,1.872,0.838,1.872,1.872v7.594C359.221,297.135,358.382,297.973,357.349,297.973z"/>
	<polygon class="st1" points="353.551,288.606 353.551,291.071 351.464,291.071 351.464,293.536 349.377,293.536 349.377,296.001 
		353.551,296.001 353.551,293.536 355.638,293.536 355.638,291.071 357.726,291.071 357.726,288.606 	"/>
</g>
<g>
	<path class="st0" d="M193.585,405.152h-7.594c-1.034,0-1.872-0.838-1.872-1.872v-7.594c0-1.034,0.838-1.872,1.872-1.872h7.594
		c1.034,0,1.872,0.838,1.872,1.872v7.594C195.457,404.314,194.619,405.152,193.585,405.152z"/>
	<polygon class="st1" points="189.788,395.785 189.788,398.25 187.701,398.25 187.701,400.715 185.614,400.715 185.614,403.18 
		189.788,403.18 189.788,400.715 191.875,400.715 191.875,398.25 193.962,398.25 193.962,395.785 	"/>
</g>
<g>
	<path class="st0" d="M201.672,449.121h-7.594c-1.034,0-1.872-0.838-1.872-1.872v-7.594c0-1.034,0.838-1.872,1.872-1.872h7.594
		c1.034,0,1.872,0.838,1.872,1.872v7.594C203.544,448.283,202.706,449.121,201.672,449.121z"/>
	<polygon class="st1" points="197.875,439.754 197.875,442.219 195.788,442.219 195.788,444.684 193.701,444.684 193.701,447.149 
		197.875,447.149 197.875,444.684 199.962,444.684 199.962,442.219 202.049,442.219 202.049,439.754 	"/>
</g>
<g>
	<path class="st0" d="M250.112,537.919h-7.594c-1.034,0-1.872-0.838-1.872-1.872v-7.594c0-1.034,0.838-1.872,1.872-1.872h7.594
		c1.034,0,1.872,0.838,1.872,1.872v7.594C251.985,537.081,251.146,537.919,250.112,537.919z"/>
	<polygon class="st1" points="246.315,528.552 246.315,531.017 244.228,531.017 244.228,533.482 242.141,533.482 242.141,535.947 
		246.315,535.947 246.315,533.482 248.402,533.482 248.402,531.017 250.489,531.017 250.489,528.552 	"/>
</g>
<g>
	<path class="st0" d="M545.325,793.102h-7.594c-1.034,0-1.872-0.838-1.872-1.872v-7.594c0-1.034,0.838-1.872,1.872-1.872h7.594
		c1.034,0,1.872,0.838,1.872,1.872v7.594C547.197,792.264,546.359,793.102,545.325,793.102z"/>
	<polygon class="st1" points="541.528,783.736 541.528,786.201 539.441,786.201 539.441,788.666 537.354,788.666 537.354,791.131 
		541.528,791.131 541.528,788.666 543.615,788.666 543.615,786.201 545.702,786.201 545.702,783.736 	"/>
</g>
<g>
	<path class="st0" d="M380.903,653.624h-7.594c-1.034,0-1.872-0.838-1.872-1.872v-7.594c0-1.034,0.838-1.872,1.872-1.872h7.594
		c1.034,0,1.872,0.838,1.872,1.872v7.594C382.775,652.786,381.937,653.624,380.903,653.624z"/>
	<polygon class="st1" points="377.105,644.257 377.105,646.722 375.018,646.722 375.018,649.187 372.931,649.187 372.931,651.652 
		377.105,651.652 377.105,649.187 379.193,649.187 379.193,646.722 381.28,646.722 381.28,644.257 	"/>
</g>
<g>
	<path class="st0" d="M625.586,740.672h-7.594c-1.034,0-1.872-0.838-1.872-1.872v-7.594c0-1.034,0.838-1.872,1.872-1.872h7.594
		c1.034,0,1.872,0.838,1.872,1.872v7.594C627.458,739.834,626.62,740.672,625.586,740.672z"/>
	<polygon class="st1" points="621.789,731.306 621.789,733.771 619.702,733.771 619.702,736.235 617.615,736.235 617.615,738.7 
		621.789,738.7 621.789,736.235 623.876,736.235 623.876,733.771 625.963,733.771 625.963,731.306 	"/>
</g>
<g>
	<g>
		<path class="st0" d="M486.564,823.358h-7.594c-1.034,0-1.872-0.838-1.872-1.872v-7.594c0-1.034,0.838-1.872,1.872-1.872h7.594
			c1.034,0,1.872,0.838,1.872,1.872v7.594C488.436,822.52,487.598,823.358,486.564,823.358z"/>
		<g>
			<path class="st1" d="M481.298,822.28h-2.058c-0.517,0-0.936-0.419-0.936-0.936v-7.311c0-0.517,0.419-0.936,0.936-0.936h2.058
				c0.517,0,0.936,0.419,0.936,0.936v7.311C482.234,821.861,481.815,822.28,481.298,822.28z"/>
			<path class="st1" d="M486.294,822.28h-2.058c-0.517,0-0.936-0.419-0.936-0.936v-7.311c0-0.517,0.419-0.936,0.936-0.936h2.058
				c0.517,0,0.936,0.419,0.936,0.936v7.311C487.23,821.861,486.811,822.28,486.294,822.28z"/>
		</g>
	</g>
	<path class="st0" d="M481.753,817.027l-1.444-1.444c-0.061-0.061-0.159-0.061-0.22,0l-1.444,1.444
		c-0.098,0.098-0.029,0.265,0.11,0.265h0.849v2.19c0,0.199,0.161,0.36,0.36,0.36h0.471c0.199,0,0.36-0.161,0.36-0.36v-2.19h0.849
		C481.781,817.292,481.851,817.124,481.753,817.027z"/>
	<path class="st0" d="M483.711,818.352l1.444,1.444c0.061,0.061,0.159,0.061,0.22,0l1.444-1.444c0.098-0.098,0.029-0.265-0.11-0.265
		h-0.849v-2.19c0-0.199-0.161-0.36-0.36-0.36h-0.471c-0.199,0-0.36,0.161-0.36,0.36v2.19h-0.849
		C483.683,818.086,483.613,818.254,483.711,818.352z"/>
</g>
<g>
	<g>
		<path class="st0" d="M797.069,867.904h-7.594c-1.034,0-1.872-0.838-1.872-1.872v-7.594c0-1.034,0.838-1.872,1.872-1.872h7.594
			c1.034,0,1.872,0.838,1.872,1.872v7.594C798.941,867.066,798.103,867.904,797.069,867.904z"/>
		<g>
			<path class="st1" d="M791.803,866.826h-2.058c-0.517,0-0.936-0.419-0.936-0.936v-7.311c0-0.517,0.419-0.936,0.936-0.936h2.058
				c0.517,0,0.936,0.419,0.936,0.936v7.311C792.739,866.407,792.32,866.826,791.803,866.826z"/>
			<path class="st1" d="M796.799,866.826h-2.058c-0.517,0-0.936-0.419-0.936-0.936v-7.311c0-0.517,0.419-0.936,0.936-0.936h2.058
				c0.517,0,0.936,0.419,0.936,0.936v7.311C797.735,866.407,797.316,866.826,796.799,866.826z"/>
		</g>
	</g>
	<path class="st0" d="M792.258,861.573l-1.444-1.444c-0.061-0.061-0.159-0.061-0.22,0l-1.444,1.444
		c-0.098,0.098-0.029,0.265,0.11,0.265h0.849v2.19c0,0.199,0.161,0.36,0.36,0.36h0.471c0.199,0,0.36-0.161,0.36-0.36v-2.19h0.849
		C792.286,861.838,792.356,861.67,792.258,861.573z"/>
	<path class="st0" d="M794.216,862.898l1.444,1.444c0.061,0.061,0.159,0.061,0.22,0l1.444-1.444c0.098-0.098,0.029-0.265-0.11-0.265
		h-0.849v-2.19c0-0.199-0.161-0.36-0.36-0.36h-0.471c-0.199,0-0.36,0.161-0.36,0.36v2.19h-0.849
		C794.188,862.632,794.118,862.8,794.216,862.898z"/>
</g>
<g>
	<g>
		<path class="st0" d="M691.194,510.566h-7.594c-1.034,0-1.872-0.838-1.872-1.872v-7.594c0-1.034,0.838-1.872,1.872-1.872h7.594
			c1.034,0,1.872,0.838,1.872,1.872v7.594C693.066,509.728,692.228,510.566,691.194,510.566z"/>
		<g>
			<path class="st1" d="M685.928,509.488h-2.058c-0.517,0-0.936-0.419-0.936-0.936v-7.311c0-0.517,0.419-0.936,0.936-0.936h2.058
				c0.517,0,0.936,0.419,0.936,0.936v7.311C686.864,509.069,686.445,509.488,685.928,509.488z"/>
			<path class="st1" d="M690.924,509.488h-2.058c-0.517,0-0.936-0.419-0.936-0.936v-7.311c0-0.517,0.419-0.936,0.936-0.936h2.058
				c0.517,0,0.936,0.419,0.936,0.936v7.311C691.86,509.069,691.441,509.488,690.924,509.488z"/>
		</g>
	</g>
	<path class="st0" d="M686.382,504.234l-1.444-1.444c-0.061-0.061-0.159-0.061-0.22,0l-1.444,1.444
		c-0.098,0.098-0.029,0.265,0.11,0.265h0.849v2.19c0,0.199,0.161,0.36,0.36,0.36h0.471c0.199,0,0.36-0.161,0.36-0.36v-2.19h0.849
		C686.411,504.499,686.48,504.332,686.382,504.234z"/>
	<path class="st0" d="M688.341,505.559l1.444,1.444c0.061,0.061,0.159,0.061,0.22,0l1.444-1.444c0.098-0.098,0.029-0.265-0.11-0.265
		h-0.849v-2.19c0-0.199-0.161-0.36-0.36-0.36h-0.471c-0.199,0-0.36,0.161-0.36,0.36v2.19h-0.849
		C688.312,505.294,688.243,505.461,688.341,505.559z"/>
</g>
<g>
	<path class="st0" d="M462.012,373.628h-7.594c-1.034,0-1.872-0.838-1.872-1.872v-7.594c0-1.034,0.838-1.872,1.872-1.872h7.594
		c1.034,0,1.872,0.838,1.872,1.872v7.594C463.885,372.79,463.046,373.628,462.012,373.628z"/>
	<g>
		<circle class="st1" cx="458.215" cy="364.009" r="0.787"/>
		<path class="st1" d="M459.062,364.952l-0.847,0.001l-0.846-0.001c-0.759,0-1.006,0.196-1.006,1.022v2.417
			c0,0.469,0.634,0.469,0.634,0l0.054-2.21h0.163v6.051c0,0.628,0.862,0.61,0.862,0l0.055-3.513h0.171l0.054,3.513
			c0,0.61,0.862,0.628,0.862,0v-6.051h0.163l0.055,2.21c0,0.469,0.633,0.469,0.633,0v-2.417
			C460.067,365.147,459.82,364.952,459.062,364.952z"/>
	</g>
</g>
<g>
	<g>
		<path class="st0" d="M348.192,668.389h-7.594c-1.034,0-1.872-0.838-1.872-1.872v-7.594c0-1.034,0.838-1.872,1.872-1.872h7.594
			c1.034,0,1.872,0.838,1.872,1.872v7.594C350.064,667.551,349.226,668.389,348.192,668.389z"/>
		<g>
			<path class="st1" d="M342.926,667.311h-2.058c-0.517,0-0.936-0.419-0.936-0.936v-7.311c0-0.517,0.419-0.936,0.936-0.936h2.058
				c0.517,0,0.936,0.419,0.936,0.936v7.311C343.862,666.892,343.443,667.311,342.926,667.311z"/>
			<path class="st1" d="M347.922,667.311h-2.058c-0.517,0-0.936-0.419-0.936-0.936v-7.311c0-0.517,0.419-0.936,0.936-0.936h2.058
				c0.517,0,0.936,0.419,0.936,0.936v7.311C348.858,666.892,348.439,667.311,347.922,667.311z"/>
		</g>
	</g>
	<path class="st0" d="M343.38,662.057l-1.444-1.444c-0.061-0.061-0.159-0.061-0.22,0l-1.444,1.444
		c-0.098,0.098-0.029,0.265,0.11,0.265h0.849v2.19c0,0.199,0.161,0.36,0.36,0.36h0.471c0.199,0,0.36-0.161,0.36-0.36v-2.19h0.849
		C343.409,662.323,343.478,662.155,343.38,662.057z"/>
	<path class="st0" d="M345.339,663.383l1.444,1.444c0.061,0.061,0.159,0.061,0.22,0l1.444-1.444c0.098-0.098,0.029-0.265-0.11-0.265
		h-0.849v-2.19c0-0.199-0.161-0.36-0.36-0.36h-0.471c-0.199,0-0.36,0.161-0.36,0.36v2.19h-0.849
		C345.31,663.117,345.241,663.285,345.339,663.383z"/>
</g>
<g>
	<path class="st0" d="M451.508,436.684h-7.594c-1.034,0-1.872-0.838-1.872-1.872v-7.594c0-1.034,0.838-1.872,1.872-1.872h7.594
		c1.034,0,1.872,0.838,1.872,1.872v7.594C453.38,435.846,452.542,436.684,451.508,436.684z"/>
	<polygon class="st1" points="447.711,427.317 447.711,429.782 445.623,429.782 445.623,432.247 443.536,432.247 443.536,434.712 
		447.711,434.712 447.711,432.247 449.798,432.247 449.798,429.782 451.885,429.782 451.885,427.317 	"/>
</g>
<g>
	<path class="st0" d="M390.416,473.124h-7.594c-1.034,0-1.872-0.838-1.872-1.872v-7.594c0-1.034,0.838-1.872,1.872-1.872h7.594
		c1.034,0,1.872,0.838,1.872,1.872v7.594C392.288,472.286,391.45,473.124,390.416,473.124z"/>
	<g>
		<circle class="st1" cx="386.619" cy="463.505" r="0.787"/>
		<path class="st1" d="M387.465,464.447l-0.847,0.001l-0.846-0.001c-0.759,0-1.006,0.196-1.006,1.022v2.417
			c0,0.469,0.634,0.469,0.634,0l0.054-2.21h0.163v6.051c0,0.628,0.862,0.61,0.862,0l0.055-3.513h0.171l0.054,3.513
			c0,0.61,0.862,0.628,0.862,0v-6.051h0.163l0.055,2.21c0,0.469,0.633,0.469,0.633,0v-2.417
			C388.47,464.643,388.224,464.447,387.465,464.447z"/>
	</g>
</g>
<g>
	<path class="st0" d="M374.345,482.911h-7.594c-1.034,0-1.872-0.838-1.872-1.872v-7.594c0-1.034,0.838-1.872,1.872-1.872h7.594
		c1.034,0,1.872,0.838,1.872,1.872v7.594C376.217,482.073,375.379,482.911,374.345,482.911z"/>
	<g>
		<circle class="st1" cx="370.548" cy="473.336" r="0.779"/>
		<path class="st1" d="M372.659,477.162l-0.668-2.199c-0.13-0.389-0.518-0.695-1.084-0.695h-0.718c-0.567,0-0.955,0.306-1.085,0.695
			l-0.668,2.199c-0.138,0.473,0.408,0.641,0.551,0.199l0.705-2.011h0.081c0,0-0.926,3.6-0.965,3.735
			c-0.02,0.067,0.008,0.116,0.08,0.116c0.044,0,0.802,0,0.802,0l0.001,2.364c0,0.481,0.72,0.481,0.72,0v-2.382h0.276l0,2.382
			c0,0.481,0.72,0.481,0.72,0l0-2.364c0,0,0.757,0,0.801,0c0.071,0,0.1-0.049,0.08-0.116c-0.039-0.135-0.966-3.735-0.966-3.735
			h0.082l0.705,2.011C372.251,477.802,372.798,477.634,372.659,477.162z"/>
	</g>
</g>
<g>
	<path class="st0" d="M419.846,677.411h-7.594c-1.034,0-1.872-0.838-1.872-1.872v-7.594c0-1.034,0.838-1.872,1.872-1.872h7.594
		c1.034,0,1.872,0.838,1.872,1.872v7.594C421.718,676.573,420.88,677.411,419.846,677.411z"/>
	<polygon class="st1" points="416.049,668.044 416.049,670.509 413.962,670.509 413.962,672.974 411.874,672.974 411.874,675.439 
		416.049,675.439 416.049,672.974 418.136,672.974 418.136,670.509 420.223,670.509 420.223,668.044 	"/>
</g>
<g>
	<path class="st0" d="M542.621,596.411h-7.594c-1.034,0-1.872-0.838-1.872-1.872v-7.594c0-1.034,0.838-1.872,1.872-1.872h7.594
		c1.034,0,1.872,0.838,1.872,1.872v7.594C544.493,595.573,543.655,596.411,542.621,596.411z"/>
	<polygon class="st1" points="538.824,587.044 538.824,589.509 536.737,589.509 536.737,591.974 534.65,591.974 534.65,594.439 
		538.824,594.439 538.824,591.974 540.911,591.974 540.911,589.509 542.998,589.509 542.998,587.044 	"/>
</g>
<g>
	<path class="st0" d="M563.981,611.346h-7.594c-1.034,0-1.872-0.838-1.872-1.872v-7.594c0-1.034,0.838-1.872,1.872-1.872h7.594
		c1.034,0,1.872,0.838,1.872,1.872v7.594C565.853,610.508,565.015,611.346,563.981,611.346z"/>
	<g>
		<circle class="st1" cx="560.184" cy="601.771" r="0.779"/>
		<path class="st1" d="M562.295,605.596l-0.668-2.199c-0.13-0.389-0.518-0.695-1.084-0.695h-0.718c-0.567,0-0.955,0.306-1.085,0.695
			l-0.668,2.199c-0.138,0.473,0.408,0.641,0.551,0.199l0.705-2.011h0.081c0,0-0.926,3.6-0.965,3.735
			c-0.02,0.067,0.008,0.116,0.08,0.116c0.044,0,0.802,0,0.802,0l0.001,2.364c0,0.481,0.72,0.481,0.72,0v-2.382h0.276l0,2.382
			c0,0.481,0.72,0.481,0.72,0l0-2.364c0,0,0.757,0,0.801,0c0.071,0,0.1-0.049,0.08-0.116c-0.039-0.135-0.966-3.735-0.966-3.735
			h0.082l0.705,2.011C561.887,606.237,562.433,606.069,562.295,605.596z"/>
	</g>
</g>
<g>
	<path class="st0" d="M548.438,620.925h-7.594c-1.034,0-1.872-0.838-1.872-1.872v-7.594c0-1.034,0.838-1.872,1.872-1.872h7.594
		c1.034,0,1.872,0.838,1.872,1.872v7.594C550.31,620.087,549.471,620.925,548.438,620.925z"/>
	<g>
		<circle class="st1" cx="544.641" cy="611.306" r="0.787"/>
		<path class="st1" d="M545.487,612.248l-0.847,0.001l-0.846-0.001c-0.759,0-1.006,0.196-1.006,1.022v2.417
			c0,0.469,0.634,0.469,0.634,0l0.054-2.21h0.163v6.052c0,0.628,0.862,0.61,0.862,0l0.055-3.513h0.171l0.054,3.513
			c0,0.61,0.862,0.628,0.862,0v-6.052h0.163l0.055,2.21c0,0.469,0.633,0.469,0.633,0v-2.417
			C546.492,612.444,546.246,612.248,545.487,612.248z"/>
	</g>
</g>
<g>
	<path class="st0" d="M575.843,771.601h-7.594c-1.034,0-1.872-0.838-1.872-1.872v-7.594c0-1.034,0.838-1.872,1.872-1.872h7.594
		c1.034,0,1.872,0.838,1.872,1.872v7.594C577.716,770.762,576.877,771.601,575.843,771.601z"/>
	<g>
		<circle class="st1" cx="572.046" cy="761.982" r="0.787"/>
		<path class="st1" d="M572.893,762.924l-0.847,0.001l-0.846-0.001c-0.759,0-1.006,0.196-1.006,1.022v2.417
			c0,0.469,0.634,0.469,0.634,0l0.054-2.21h0.163v6.052c0,0.628,0.862,0.61,0.862,0l0.055-3.513h0.171l0.054,3.513
			c0,0.61,0.862,0.628,0.862,0v-6.052h0.163l0.055,2.21c0,0.469,0.633,0.469,0.633,0v-2.417
			C573.898,763.119,573.651,762.924,572.893,762.924z"/>
	</g>
</g>
<g>
	<path class="st0" d="M559.76,781.502h-7.594c-1.034,0-1.872-0.838-1.872-1.872v-7.594c0-1.034,0.838-1.872,1.872-1.872h7.594
		c1.034,0,1.872,0.838,1.872,1.872v7.594C561.632,780.664,560.794,781.502,559.76,781.502z"/>
	<g>
		<circle class="st1" cx="555.963" cy="771.927" r="0.779"/>
		<path class="st1" d="M558.074,775.753l-0.668-2.199c-0.13-0.389-0.518-0.695-1.084-0.695h-0.718c-0.567,0-0.955,0.306-1.085,0.695
			l-0.668,2.199c-0.138,0.473,0.408,0.641,0.551,0.199l0.705-2.011h0.081c0,0-0.926,3.6-0.965,3.735
			c-0.02,0.067,0.008,0.116,0.08,0.116c0.044,0,0.802,0,0.802,0l0.001,2.364c0,0.481,0.72,0.481,0.72,0v-2.382h0.276l0,2.382
			c0,0.481,0.72,0.481,0.72,0l0-2.364c0,0,0.757,0,0.801,0c0.071,0,0.1-0.049,0.08-0.116c-0.039-0.135-0.966-3.735-0.966-3.735
			h0.082l0.705,2.011C557.666,776.394,558.212,776.226,558.074,775.753z"/>
	</g>
</g>
<g>
	<path class="st0" d="M777.031,645.597h-7.594c-1.034,0-1.872-0.838-1.872-1.872v-7.594c0-1.034,0.838-1.872,1.872-1.872h7.594
		c1.034,0,1.872,0.838,1.872,1.872v7.594C778.903,644.759,778.065,645.597,777.031,645.597z"/>
	<g>
		<circle class="st1" cx="773.234" cy="635.978" r="0.787"/>
		<path class="st1" d="M774.081,636.921l-0.847,0.001l-0.846-0.001c-0.759,0-1.006,0.196-1.006,1.022v2.417
			c0,0.469,0.634,0.469,0.634,0l0.054-2.21h0.163v6.051c0,0.628,0.862,0.61,0.862,0l0.055-3.513h0.171l0.054,3.513
			c0,0.61,0.862,0.628,0.862,0v-6.051h0.163l0.055,2.21c0,0.469,0.633,0.469,0.633,0v-2.417
			C775.086,637.116,774.839,636.921,774.081,636.921z"/>
	</g>
</g>
<g>
	<path class="st0" d="M708.771,535.919h-7.594c-1.034,0-1.872-0.838-1.872-1.872v-7.594c0-1.034,0.838-1.872,1.872-1.872h7.594
		c1.034,0,1.872,0.838,1.872,1.872v7.594C710.643,535.081,709.805,535.919,708.771,535.919z"/>
	<g>
		<circle class="st1" cx="704.974" cy="526.3" r="0.787"/>
		<path class="st1" d="M705.821,527.242l-0.847,0.001l-0.846-0.001c-0.759,0-1.006,0.196-1.006,1.022v2.417
			c0,0.469,0.634,0.469,0.634,0l0.054-2.21h0.163v6.051c0,0.628,0.862,0.61,0.862,0l0.055-3.513h0.171l0.054,3.513
			c0,0.61,0.862,0.628,0.862,0v-6.051h0.163l0.055,2.21c0,0.469,0.633,0.469,0.633,0v-2.417
			C706.825,527.437,706.579,527.242,705.821,527.242z"/>
	</g>
</g>
<g>
	<circle class="st0" cx="407.941" cy="275.979" r="4.535"/>
	<path class="st1" d="M409.976,277.399l0.675-2.923c0.028-0.123-0.048-0.245-0.171-0.274l-2.923-0.675
		c-0.198-0.046-0.353,0.171-0.245,0.343l0.661,1.057l-2.728,1.704c-0.248,0.155-0.323,0.481-0.168,0.729l0.367,0.587
		c0.155,0.248,0.481,0.323,0.729,0.168l2.728-1.704l0.661,1.057C409.668,277.641,409.93,277.597,409.976,277.399z"/>
</g>
<g>
	<circle class="st0" cx="209.032" cy="374.521" r="4.535"/>
	<path class="st1" d="M211.067,375.941l0.675-2.923c0.028-0.123-0.048-0.245-0.171-0.274l-2.923-0.675
		c-0.198-0.046-0.353,0.171-0.245,0.343l0.661,1.057l-2.728,1.704c-0.248,0.155-0.323,0.481-0.168,0.729l0.367,0.587
		c0.155,0.248,0.481,0.323,0.729,0.168l2.728-1.704l0.661,1.057C210.759,376.184,211.021,376.14,211.067,375.941z"/>
</g>
<g>
	<circle class="st0" cx="250.489" cy="478.097" r="4.535"/>
	<path class="st1" d="M252.525,479.517l0.675-2.923c0.028-0.123-0.048-0.245-0.171-0.274l-2.923-0.675
		c-0.198-0.046-0.353,0.171-0.245,0.343l0.661,1.057l-2.728,1.704c-0.248,0.155-0.323,0.481-0.168,0.729l0.367,0.587
		c0.155,0.248,0.481,0.323,0.729,0.168l2.728-1.704l0.661,1.057C252.216,479.759,252.479,479.715,252.525,479.517z"/>
</g>
<g>
	<circle class="st0" cx="275.127" cy="447.269" r="4.535"/>
	<path class="st1" d="M277.163,448.689l0.675-2.923c0.028-0.123-0.048-0.245-0.171-0.274l-2.923-0.675
		c-0.198-0.046-0.353,0.171-0.245,0.343l0.661,1.057l-2.728,1.704c-0.248,0.155-0.323,0.481-0.168,0.729l0.367,0.587
		c0.155,0.248,0.481,0.323,0.729,0.168l2.728-1.704l0.661,1.057C276.854,448.931,277.117,448.887,277.163,448.689z"/>
</g>
<g>
	<circle class="st0" cx="480.199" cy="391.223" r="4.535"/>
	<path class="st1" d="M482.234,392.643l0.675-2.923c0.028-0.123-0.048-0.245-0.171-0.274l-2.923-0.675
		c-0.198-0.046-0.353,0.171-0.245,0.343l0.661,1.057l-2.728,1.704c-0.248,0.155-0.323,0.481-0.168,0.729l0.367,0.587
		c0.155,0.248,0.481,0.323,0.729,0.168l2.728-1.704l0.661,1.057C481.926,392.885,482.188,392.841,482.234,392.643z"/>
</g>
<g>
	<circle class="st0" cx="580.968" cy="553.097" r="4.535"/>
	<path class="st1" d="M583.003,554.518l0.675-2.923c0.028-0.123-0.048-0.245-0.171-0.274l-2.923-0.675
		c-0.198-0.046-0.353,0.171-0.245,0.343l0.661,1.057l-2.728,1.704c-0.248,0.155-0.323,0.481-0.168,0.729l0.367,0.587
		c0.155,0.248,0.481,0.323,0.729,0.168l2.728-1.705l0.661,1.057C582.695,554.76,582.957,554.716,583.003,554.518z"/>
</g>
<g>
	<circle class="st0" cx="799.568" cy="883.052" r="4.535"/>
	<path class="st1" d="M801.4,884.726l1.05-2.81c0.044-0.118-0.016-0.25-0.134-0.294l-2.81-1.05c-0.19-0.071-0.372,0.124-0.288,0.309
		l0.517,1.134l-2.927,1.334c-0.266,0.121-0.383,0.435-0.262,0.7l0.287,0.63c0.121,0.266,0.435,0.383,0.701,0.262l2.927-1.334
		l0.517,1.134C801.063,884.926,801.329,884.916,801.4,884.726z"/>
</g>
<g>
	<circle class="st0" cx="692.592" cy="784.124" r="4.535"/>
	<path class="st1" d="M690.557,782.704l-0.675,2.923c-0.028,0.123,0.048,0.245,0.171,0.274l2.923,0.675
		c0.198,0.046,0.353-0.171,0.245-0.344l-0.661-1.057l2.728-1.705c0.248-0.155,0.323-0.481,0.168-0.729l-0.367-0.587
		c-0.155-0.248-0.481-0.323-0.729-0.168l-2.728,1.705l-0.661-1.057C690.865,782.461,690.603,782.505,690.557,782.704z"/>
</g>
<g>
	<circle class="st0" cx="448.848" cy="781.224" r="4.535"/>
	<path class="st1" d="M446.813,779.804l-0.675,2.923c-0.028,0.123,0.048,0.245,0.171,0.274l2.923,0.675
		c0.198,0.046,0.353-0.171,0.245-0.344l-0.661-1.057l2.728-1.705c0.248-0.155,0.323-0.481,0.168-0.729l-0.367-0.587
		c-0.155-0.248-0.481-0.323-0.729-0.168l-2.728,1.705l-0.661-1.057C447.121,779.562,446.859,779.606,446.813,779.804z"/>
</g>
<g>
	<circle class="st0" cx="546.345" cy="553.521" r="4.535"/>
	<path class="st1" d="M547.766,551.486l-2.923-0.675c-0.123-0.028-0.245,0.048-0.274,0.171l-0.675,2.923
		c-0.046,0.198,0.171,0.353,0.343,0.245l1.057-0.661l1.704,2.728c0.155,0.248,0.481,0.323,0.729,0.168l0.587-0.367
		c0.248-0.155,0.323-0.481,0.168-0.729l-1.704-2.728l1.057-0.661C548.008,551.794,547.964,551.532,547.766,551.486z"/>
</g>
<g>
	<circle class="st0" cx="611.347" cy="775.833" r="4.535"/>
	<path class="st1" d="M609.927,777.868l2.923,0.675c0.123,0.028,0.245-0.048,0.274-0.171l0.675-2.923
		c0.046-0.198-0.171-0.353-0.343-0.245l-1.057,0.661l-1.704-2.728c-0.155-0.248-0.481-0.323-0.729-0.168l-0.587,0.367
		c-0.248,0.155-0.323,0.481-0.168,0.729l1.704,2.728l-1.057,0.661C609.685,777.56,609.729,777.823,609.927,777.868z"/>
</g>
<g>
	<circle class="st0" cx="444.248" cy="333.338" r="4.535"/>
	<path class="st1" d="M446.283,334.759l0.675-2.923c0.028-0.123-0.048-0.245-0.171-0.274l-2.923-0.675
		c-0.198-0.046-0.353,0.171-0.245,0.343l0.661,1.057l-2.728,1.704c-0.248,0.155-0.323,0.481-0.168,0.729l0.367,0.587
		c0.155,0.248,0.481,0.323,0.729,0.168l2.728-1.704l0.661,1.057C445.975,335.001,446.237,334.957,446.283,334.759z"/>
</g>
<g>
	<circle class="st2" cx="325.661" cy="721.797" r="6.655"/>
	<g>
		<path class="st1" d="M325.29,720.34h-0.018l-1.105,0.525l-0.223-1.016l1.533-0.713h1.123v5.792h-1.31V720.34z"/>
	</g>
</g>
<g>
	<circle class="st2" cx="702.193" cy="841.323" r="6.655"/>
	<g>
		<path class="st1" d="M700.093,844.138v-0.82l0.748-0.677c1.266-1.132,1.88-1.782,1.898-2.46c0-0.472-0.285-0.846-0.954-0.846
			c-0.499,0-0.936,0.249-1.238,0.48l-0.383-0.971c0.437-0.33,1.113-0.598,1.897-0.598c1.311,0,2.032,0.767,2.032,1.818
			c0,0.971-0.704,1.746-1.542,2.495l-0.534,0.445v0.018h2.183v1.114H700.093z"/>
	</g>
</g>
<g>
	<circle class="st2" cx="763.997" cy="807.838" r="6.655"/>
	<g>
		<path class="st1" d="M762.289,809.324c0.241,0.125,0.793,0.356,1.346,0.356c0.705,0,1.061-0.338,1.061-0.774
			c0-0.57-0.57-0.829-1.167-0.829h-0.552v-0.972h0.525c0.454-0.009,1.033-0.178,1.033-0.668c0-0.348-0.285-0.606-0.855-0.606
			c-0.473,0-0.971,0.205-1.212,0.348l-0.276-0.979c0.348-0.224,1.043-0.438,1.791-0.438c1.238,0,1.926,0.65,1.926,1.444
			c0,0.614-0.348,1.096-1.061,1.345v0.019c0.695,0.124,1.256,0.65,1.256,1.407c0,1.025-0.9,1.773-2.37,1.773
			c-0.749,0-1.382-0.195-1.72-0.409L762.289,809.324z"/>
	</g>
</g>
<g>
	<circle class="st2" cx="210.2" cy="499.185" r="6.655"/>
	<g>
		<path class="st1" d="M210.649,501.999v-1.381h-2.566v-0.883l2.192-3.528h1.658v3.395h0.695v1.017h-0.695v1.381H210.649z
			 M210.649,499.601v-1.283c0-0.347,0.018-0.704,0.044-1.078h-0.036c-0.187,0.374-0.338,0.713-0.535,1.078l-0.775,1.266v0.018
			H210.649z"/>
	</g>
</g>
<g>
	<circle class="st2" cx="310.316" cy="265.443" r="6.655"/>
	<g>
		<path class="st1" d="M312.236,263.578h-2.246l-0.125,0.892c0.125-0.018,0.231-0.018,0.374-0.018c0.553,0,1.114,0.124,1.524,0.418
			c0.437,0.295,0.704,0.775,0.704,1.453c0,1.078-0.927,2.031-2.486,2.031c-0.704,0-1.292-0.16-1.613-0.329l0.24-1.017
			c0.259,0.125,0.784,0.285,1.31,0.285c0.562,0,1.159-0.267,1.159-0.882c0-0.597-0.473-0.962-1.631-0.962
			c-0.321,0-0.544,0.018-0.784,0.053l0.383-3.038h3.19V263.578z"/>
	</g>
</g>
<g>
	<rect x="339.891" y="706.047" class="st1" width="9.303" height="9.703"/>
	<path d="M349.194,708.325v-2.507c0-0.4-0.327-0.727-0.727-0.727h-8.963c-0.4,0-0.727,0.327-0.727,0.727v10.272
		c0,0.266,0.157,0.52,0.387,0.642l3.707,2.859c0.243,0.121,0.533-0.049,0.533-0.327v-2.786h5.063c0.4,0,0.727-0.327,0.727-0.727
		v-3.973h-1.454v2.883c0,0.206-0.157,0.364-0.363,0.364h-3.961v-6.014c0-0.266-0.149-0.533-0.388-0.793l-1.441-1.672h5.79
		c0.206,0,0.363,0.157,0.363,0.363v1.43h1.454V708.325z M349.194,708.325"/>
	<g>
		<path class="st0" d="M346.679,712.546c-0.171,0-0.332-0.067-0.453-0.189l-1.779-1.778c-0.121-0.119-0.188-0.281-0.188-0.453
			c0-0.173,0.067-0.335,0.19-0.456l1.777-1.777c0.121-0.121,0.282-0.188,0.452-0.188c0.354,0,0.643,0.288,0.643,0.643v0.595h2.248
			c0.493,0,0.894,0.401,0.894,0.894v0.581c0,0.492-0.401,0.894-0.894,0.894h-2.248v0.596
			C347.321,712.258,347.033,712.546,346.679,712.546z"/>
		<path class="st1" d="M346.678,708.153c0.098,0,0.193,0.076,0.193,0.192v1.046h2.698c0.245,0,0.444,0.199,0.444,0.443v0.581
			c0,0.245-0.199,0.443-0.444,0.443h-2.698v1.046c0,0.115-0.094,0.192-0.193,0.192c-0.047,0-0.095-0.018-0.134-0.057l-1.779-1.779
			c-0.075-0.075-0.075-0.196,0-0.271l1.779-1.779C346.583,708.171,346.631,708.153,346.678,708.153 M346.678,707.253
			c-0.29,0-0.564,0.114-0.77,0.32l-1.779,1.779c-0.206,0.206-0.32,0.48-0.32,0.772s0.114,0.566,0.32,0.772l1.779,1.779
			c0.206,0.206,0.48,0.32,0.77,0.32c0.603,0,1.093-0.49,1.093-1.092v-0.146h1.798c0.741,0,1.344-0.603,1.344-1.344v-0.581
			c0-0.741-0.603-1.344-1.344-1.344h-1.798v-0.146C347.771,707.743,347.281,707.253,346.678,707.253L346.678,707.253z"/>
	</g>
</g>
<g>
	<rect x="226.96" y="481.964" class="st1" width="9.303" height="9.703"/>
	<path d="M236.263,484.242v-2.507c0-0.4-0.327-0.727-0.727-0.727h-8.963c-0.4,0-0.727,0.327-0.727,0.727v10.272
		c0,0.266,0.157,0.52,0.387,0.642l3.706,2.859c0.243,0.121,0.533-0.049,0.533-0.327v-2.786h5.063c0.4,0,0.727-0.327,0.727-0.727
		v-3.973h-1.454v2.883c0,0.206-0.157,0.364-0.363,0.364h-3.961v-6.014c0-0.266-0.149-0.533-0.388-0.793l-1.441-1.672h5.79
		c0.206,0,0.363,0.157,0.363,0.363v1.429h1.454V484.242z M236.263,484.242"/>
	<g>
		<path class="st0" d="M233.748,488.463c-0.17,0-0.331-0.067-0.453-0.188l-1.779-1.779c-0.25-0.25-0.25-0.657,0-0.907l1.779-1.78
			c0.122-0.121,0.282-0.188,0.452-0.188c0.355,0,0.644,0.288,0.644,0.642v0.595h2.248c0.493,0,0.894,0.401,0.894,0.894v0.581
			c0,0.493-0.401,0.894-0.894,0.894h-2.248v0.595C234.391,488.175,234.102,488.463,233.748,488.463z"/>
		<path class="st1" d="M233.747,484.071c0.098,0,0.193,0.076,0.193,0.192v1.046h2.698c0.245,0,0.444,0.199,0.444,0.443v0.581
			c0,0.245-0.199,0.443-0.444,0.443h-2.698v1.045c0,0.115-0.094,0.192-0.193,0.192c-0.047,0-0.095-0.017-0.134-0.056l-1.779-1.779
			c-0.075-0.075-0.075-0.196,0-0.271l1.779-1.779C233.652,484.088,233.7,484.071,233.747,484.071 M233.747,483.171
			c-0.29,0-0.564,0.114-0.771,0.32l-1.779,1.779c-0.426,0.426-0.425,1.118,0,1.544l1.779,1.779c0.206,0.206,0.48,0.32,0.77,0.32
			c0.603,0,1.093-0.49,1.093-1.092v-0.145h1.798c0.741,0,1.344-0.603,1.344-1.344v-0.581c0-0.741-0.603-1.344-1.344-1.344h-1.798
			v-0.146C234.84,483.661,234.35,483.171,233.747,483.171L233.747,483.171z"/>
	</g>
</g>
<g>
	<rect x="315.733" y="279.153" class="st1" width="9.303" height="9.703"/>
	<path d="M325.036,281.43v-2.507c0-0.4-0.327-0.727-0.727-0.727h-8.963c-0.4,0-0.727,0.327-0.727,0.727v10.272
		c0,0.266,0.157,0.52,0.387,0.642l3.707,2.859c0.243,0.121,0.533-0.049,0.533-0.327v-2.786h5.063c0.4,0,0.727-0.327,0.727-0.727
		v-3.973h-1.454v2.883c0,0.206-0.157,0.364-0.363,0.364h-3.961v-6.014c0-0.266-0.149-0.533-0.388-0.793l-1.441-1.672h5.79
		c0.206,0,0.363,0.157,0.363,0.363v1.429h1.454V281.43z M325.036,281.43"/>
	<g>
		<path class="st0" d="M322.52,285.651c-0.17,0-0.331-0.067-0.452-0.188l-1.779-1.779c-0.121-0.12-0.188-0.281-0.188-0.453
			c0-0.172,0.066-0.333,0.188-0.455l1.779-1.779c0.122-0.121,0.282-0.188,0.452-0.188c0.354,0,0.643,0.288,0.643,0.642v0.595h2.248
			c0.493,0,0.894,0.401,0.894,0.894v0.581c0,0.493-0.401,0.894-0.894,0.894h-2.248v0.595
			C323.163,285.364,322.875,285.651,322.52,285.651z"/>
		<path class="st1" d="M322.52,281.259c0.098,0,0.193,0.076,0.193,0.192v1.045h2.698c0.245,0,0.443,0.199,0.443,0.443v0.581
			c0,0.245-0.199,0.443-0.443,0.443h-2.698v1.046c0,0.115-0.094,0.192-0.193,0.192c-0.047,0-0.095-0.018-0.134-0.057l-1.779-1.779
			c-0.075-0.075-0.075-0.196,0-0.271l1.779-1.779C322.425,281.277,322.473,281.259,322.52,281.259 M322.52,280.359
			c-0.29,0-0.564,0.114-0.771,0.32l-1.779,1.779c-0.425,0.426-0.425,1.118,0,1.543l1.78,1.78c0.206,0.206,0.48,0.32,0.77,0.32
			c0.603,0,1.093-0.49,1.093-1.092v-0.146h1.798c0.741,0,1.344-0.603,1.344-1.344v-0.581c0-0.741-0.603-1.344-1.344-1.344h-1.798
			v-0.145C323.613,280.849,323.123,280.359,322.52,280.359L322.52,280.359z"/>
	</g>
</g>
<g>
	<rect x="717.712" y="825.451" class="st1" width="9.303" height="9.703"/>
	<path d="M727.016,827.728v-2.507c0-0.4-0.327-0.727-0.727-0.727h-8.963c-0.4,0-0.727,0.327-0.727,0.727v10.272
		c0,0.266,0.157,0.52,0.387,0.642l3.706,2.859c0.243,0.121,0.533-0.049,0.533-0.327v-2.786h5.063c0.4,0,0.727-0.327,0.727-0.727
		v-3.973h-1.454v2.883c0,0.206-0.157,0.364-0.363,0.364h-3.961v-6.014c0-0.266-0.149-0.533-0.388-0.793l-1.441-1.672h5.79
		c0.206,0,0.363,0.157,0.363,0.363v1.429h1.454V827.728z M727.016,827.728"/>
	<g>
		<path class="st0" d="M724.499,831.949c-0.169,0-0.329-0.066-0.451-0.187l-1.78-1.78c-0.248-0.251-0.248-0.657-0.002-0.906
			l1.781-1.781c0.123-0.121,0.283-0.188,0.452-0.188c0.354,0,0.644,0.288,0.644,0.642v0.595h2.248c0.492,0,0.894,0.401,0.894,0.895
			v0.58c0,0.492-0.401,0.894-0.894,0.894h-2.248v0.596C725.143,831.661,724.854,831.949,724.499,831.949z"/>
		<path class="st1" d="M724.5,827.557c0.098,0,0.193,0.076,0.193,0.192v1.046h2.698c0.245,0,0.444,0.199,0.444,0.443v0.581
			c0,0.245-0.199,0.444-0.444,0.444h-2.698v1.045c0,0.115-0.094,0.192-0.193,0.192c-0.047,0-0.095-0.017-0.134-0.056l-1.779-1.779
			c-0.075-0.075-0.075-0.196,0-0.271l1.779-1.779C724.405,827.574,724.453,827.557,724.5,827.557 M724.5,826.657
			c-0.29,0-0.564,0.114-0.771,0.32l-1.779,1.779c-0.425,0.426-0.425,1.118,0,1.544l1.779,1.779c0.206,0.206,0.48,0.32,0.77,0.32
			c0.603,0,1.093-0.49,1.093-1.092v-0.146h1.798c0.741,0,1.344-0.603,1.344-1.344v-0.581c0-0.741-0.603-1.344-1.344-1.344h-1.798
			v-0.146C725.593,827.147,725.102,826.657,724.5,826.657L724.5,826.657z"/>
	</g>
</g>
<g>
	<rect x="740.352" y="812.868" class="st1" width="9.303" height="9.703"/>
	<path d="M749.655,815.146v-2.507c0-0.4-0.327-0.727-0.727-0.727h-8.963c-0.4,0-0.727,0.327-0.727,0.727v10.272
		c0,0.266,0.157,0.52,0.387,0.642l3.706,2.859c0.243,0.121,0.533-0.049,0.533-0.327v-2.786h5.063c0.4,0,0.727-0.327,0.727-0.727
		v-3.973h-1.454v2.883c0,0.206-0.157,0.364-0.363,0.364h-3.961v-6.014c0-0.266-0.149-0.533-0.388-0.793l-1.441-1.672h5.79
		c0.206,0,0.363,0.157,0.363,0.363v1.429h1.454V815.146z M749.655,815.146"/>
	<g>
		<path class="st0" d="M747.14,819.367c-0.171,0-0.332-0.067-0.453-0.189l-1.778-1.778c-0.12-0.119-0.188-0.279-0.188-0.451
			c0-0.172,0.066-0.334,0.188-0.456l1.779-1.779c0.121-0.121,0.282-0.188,0.452-0.188c0.354,0,0.643,0.288,0.643,0.642v0.595h2.248
			c0.492,0,0.894,0.401,0.894,0.894v0.581c0,0.492-0.401,0.894-0.894,0.894h-2.248v0.596
			C747.782,819.079,747.494,819.367,747.14,819.367z"/>
		<path class="st1" d="M747.14,814.975c0.098,0,0.193,0.076,0.193,0.192v1.045h2.698c0.245,0,0.443,0.199,0.443,0.444v0.581
			c0,0.245-0.199,0.444-0.443,0.444h-2.698v1.045c0,0.115-0.094,0.192-0.193,0.192c-0.047,0-0.095-0.017-0.134-0.056l-1.779-1.779
			c-0.075-0.075-0.075-0.196,0-0.271l1.779-1.779C747.045,814.992,747.093,814.975,747.14,814.975 M747.14,814.075
			c-0.29,0-0.564,0.114-0.771,0.32l-1.779,1.779c-0.206,0.206-0.32,0.48-0.32,0.772c0,0.292,0.114,0.566,0.32,0.772l1.779,1.779
			c0.206,0.206,0.48,0.32,0.771,0.32c0.603,0,1.093-0.49,1.093-1.092v-0.146h1.798c0.741,0,1.343-0.603,1.343-1.344v-0.581
			c0-0.741-0.603-1.344-1.343-1.344h-1.798v-0.146C748.233,814.565,747.742,814.075,747.14,814.075L747.14,814.075z"/>
	</g>
</g>
</svg>
