<?xml version="1.0" encoding="utf-8"?>
<!-- Generator: Adobe Illustrator 19.0.1, SVG Export Plug-In . SVG Version: 6.00 Build 0)  -->
<svg version="1.1" xmlns="http://www.w3.org/2000/svg" xmlns:xlink="http://www.w3.org/1999/xlink" x="0px" y="0px"
	 viewBox="0 0 880.456 857.957" style="enable-background:new 0 0 880.456 857.957;" xml:space="preserve">
<style type="text/css">
	.st0{fill:#FFFFFF;stroke:#383938;stroke-width:0.5;stroke-miterlimit:10;}
	.st1{fill:#ECF0F2;stroke:#383938;stroke-width:0.5;stroke-miterlimit:10;}
	.st2{fill:#ED855A;stroke:#383938;stroke-width:0.5;stroke-miterlimit:10;}
	.st3{fill:#BFD9E0;stroke:#383938;stroke-width:0.5;stroke-miterlimit:10;}
	.st4{fill:#A3CCCB;stroke:#383938;stroke-width:0.5;stroke-miterlimit:10;}
	.st5{fill:#62A2A1;stroke:#383938;stroke-width:0.5;stroke-miterlimit:10;}
	.st6{fill:none;stroke:#383938;stroke-width:0.5;stroke-miterlimit:10;}
</style>
<g id="locaux">
	<path class="st0" d="M602.833,672.352c-21.814,13.642-130.315,81.496-135.775,84.84c-31.96,19.573-94.731,16.597-122.82-28.355
		c-1.41-2.256-37.781-60.462-37.781-60.462l21.188-13.239L260.786,548.14l-21.262,13.286l-19.092-30.553l-73.926-118.306
		l-11.261-18.021l14.266-8.914l-18.68-29.894l-12.297,7.684L65.94,279.253l20.919-13.071l4.616,7.388l197.03-123.118l4.951-21.326
		l8.193,13.112l106.854-66.77l151.047,241.726l46.219-28.881l132.877,212.648l15.689-9.804l47.825,76.536L753.823,597.9
		l-9.009-14.417l-58.966,36.846l9.207,14.735l-83.082,51.916L602.833,672.352z"/>
	
		<rect x="609.974" y="660.371" transform="matrix(-0.5299 -0.848 0.848 -0.5299 375.1835 1554.2097)" class="st1" width="16.749" height="25.5"/>
	<path class="st0" d="M664.128,654.389l14.816,23.71c0,0,27.397,42.272-16.702,72.658l-15.406,9.627l-30.102-23.955l26.113-16.71
		c0,0,13.904-8.885,5.567-22.542l-14.816-23.71L664.128,654.389z"/>
	
		<rect x="578.51" y="375.306" transform="matrix(0.5299 0.848 -0.848 0.5299 597.8309 -316.5692)" class="st1" width="11.917" height="11.333"/>
	<path class="st1" d="M603.098,672.776l-48.289-77.279l-99.363,62.089l2.826,4.523l-9.329,5.829l-25.263-5.832l-3.886-6.219
		l-8.268-1.909l-2.28,9.875l-13.78-3.181l-10.318,6.447l-25.171-40.282l-35.971,22.477l3.638,5.821l-21.188,13.239
		c0,0,37.781,60.462,38.046,60.886c22.79,36.472,78.667,55.945,122.82,28.355L603.098,672.776z"/>
	<polygon class="st1" points="261.051,548.564 266.21,545.34 261.689,538.105 250.381,545.171 245.745,537.75 230.631,547.195 
		239.788,561.85 	"/>
	
		<rect x="247.528" y="535.328" transform="matrix(-0.848 0.5299 -0.5299 -0.848 749.5728 864.359)" class="st1" width="6.667" height="8.641"/>
	
		<rect x="243.282" y="522.767" transform="matrix(0.848 -0.5299 0.5299 0.848 -242.7074 211.6957)" class="st1" width="9" height="12.583"/>
	<polygon class="st1" points="248.264,521.338 245.437,516.815 221.136,532 230.631,547.195 247.299,536.779 240.631,526.108 	"/>
	
		<rect x="218.625" y="501.953" transform="matrix(0.5299 0.848 -0.848 0.5299 545.1074 49.1618)" class="st2" width="19.167" height="28.655"/>
	
		<rect x="196.994" y="479.339" transform="matrix(0.5299 0.848 -0.848 0.5299 519.2863 50.515)" class="st1" width="34.167" height="28.655"/>
	
		<rect x="187.686" y="455.24" transform="matrix(0.5299 0.848 -0.848 0.5299 491.7707 51.957)" class="st1" width="22.667" height="28.655"/>
	
		<rect x="182.941" y="440.046" transform="matrix(-0.5299 -0.848 0.848 -0.5299 -95.3732 855.8802)" class="st1" width="13.167" height="28.655"/>
	
		<rect x="174.944" y="428.314" transform="matrix(-0.5299 -0.848 0.848 -0.5299 -96.6396 831.7156)" class="st1" width="14.5" height="28.655"/>
	<polygon class="st1" points="190.503,428.901 184.408,419.148 176.776,423.918 170.064,413.176 153.395,423.592 166.202,444.086 	
		"/>
	
		<rect x="142.439" y="381.568" transform="matrix(0.5299 0.848 -0.848 0.5299 406.2403 57.2486)" class="st1" width="18.083" height="26.989"/>
	
		<rect x="293.221" y="503.813" transform="matrix(-0.5299 -0.848 0.848 -0.5299 28.5403 1039.6123)" class="st1" width="18.364" height="16.167"/>
	
		<rect x="265.496" y="478.265" transform="matrix(-0.5299 -0.848 0.848 -0.5299 -1.0725 1003.7687)" class="st1" width="24.333" height="47.833"/>
	
		<rect x="253.494" y="458.124" transform="matrix(-0.5299 -0.848 0.848 -0.5299 -3.2468 962.2812)" class="st1" width="23.167" height="47.833"/>
	<polygon class="st1" points="238.657,484.891 217.371,450.828 225.852,445.529 221.789,439.027 253.874,418.978 279.221,459.543 	
		"/>
	
		<rect x="214.58" y="441.094" transform="matrix(0.848 -0.5299 0.5299 0.848 -202.41 183.9674)" class="st3" width="10" height="7.667"/>
	
		<rect x="210.984" y="436.219" transform="matrix(0.848 -0.5299 0.5299 0.848 -199.6026 181.6734)" class="st3" width="12" height="5.333"/>
	
		<rect x="223.635" y="402.217" transform="matrix(0.5299 0.848 -0.848 0.5299 466.0426 -0.4959)" class="st1" width="19.667" height="35.833"/>
	<polygon class="st1" points="243.452,402.3 229.056,379.261 207.713,392.598 217.517,408.287 219.92,406.785 224.512,414.135 	"/>
	<polygon class="st1" points="199.99,419.238 190.187,403.549 207.713,392.598 217.517,408.287 212.428,411.466 208.366,404.964 
		203.843,407.791 207.906,414.292 	"/>
	
		<rect x="204.302" y="406.962" transform="matrix(0.5299 0.848 -0.848 0.5299 445.2252 16.0494)" class="st1" width="7.667" height="5.333"/>
	<polygon class="st3" points="210.482,439.803 207.303,434.715 208.999,433.655 207.674,431.535 216.155,426.236 220.659,433.444 	
		"/>
	
		<rect x="205.369" y="423.495" transform="matrix(0.848 -0.5299 0.5299 0.848 -193.9979 176.2726)" class="st1" width="10" height="5.833"/>
	<polygon class="st1" points="729.329,486.05 697.669,505.834 735.735,566.752 644.853,623.541 664.129,654.389 695.055,635.064 
		686.113,620.753 745.079,583.907 754.087,598.324 802.426,568.119 754.336,491.158 738.647,500.962 	"/>
	<polygon class="st1" points="663.354,380.468 652.471,387.269 633.703,357.234 618.014,367.037 611.699,356.931 592.053,369.208 
		559.64,317.336 605.858,288.455 	"/>
	
		<rect x="595.458" y="382.563" transform="matrix(0.5299 0.848 -0.848 0.5299 611.0714 -330.7755)" class="st1" width="16.89" height="6.5"/>
	
		<rect x="188.134" y="373.578" transform="matrix(-0.5299 -0.848 0.848 -0.5299 -26.9295 761.062)" class="st1" width="18.667" height="28.833"/>
	<polygon class="st2" points="229.056,379.261 327.995,317.438 318.103,301.607 309.622,306.906 297.523,287.543 291.304,291.429 
		303.403,310.793 204.747,372.44 214.639,388.27 	"/>
	<polygon class="st4" points="161.71,385.968 184.466,371.749 152.936,321.29 142.759,327.649 141.248,334.194 132.697,339.538 	"/>
	
		<rect x="113.832" y="336.426" transform="matrix(-0.5299 -0.848 0.848 -0.5299 -106.1834 638.6595)" class="st1" width="20.167" height="24.667"/>
	
		<rect x="113.832" y="336.426" transform="matrix(0.5299 0.848 -0.848 0.5299 354.0147 58.8584)" class="st1" width="20.167" height="24.667"/>
	
		<rect x="57.694" y="294.129" transform="matrix(-0.5299 -0.848 0.848 -0.5299 -110.7493 551.5358)" class="st1" width="79.583" height="24.667"/>
	
		<rect x="94.335" y="268.411" transform="matrix(0.5299 0.848 -0.848 0.5299 297.8034 33.404)" class="st4" width="48.872" height="33.833"/>
	
		<rect x="156.929" y="189.321" transform="matrix(-0.5299 -0.848 0.848 -0.5299 80.5072 549.4341)" class="st5" width="71.205" height="126.167"/>
	
		<rect x="151.901" y="326.85" transform="matrix(0.5299 0.848 -0.848 0.5299 369.8549 4.4642)" class="st1" width="58" height="18"/>
	
		<rect x="205.398" y="248.338" transform="matrix(0.5299 0.848 -0.848 0.5299 366.6536 -56.6188)" class="st2" width="58" height="108.167"/>
	<polygon class="st1" points="312.18,159.09 252.393,196.449 262.02,211.856 247.32,221.041 227.163,188.782 288.505,150.452 
		293.456,129.126 	"/>
	<path class="st0" d="M332.18,123.161l-14.994-23.995c0,0-25.984-43.155-72.626-16.84l-27.208,17.002l30.667,23.602l15.936-9.565
		c0,0,14.081-8.602,22.701,4.878l14.994,23.995L332.18,123.161z"/>
	
		<rect x="174.443" y="390.943" transform="matrix(0.5299 0.848 -0.848 0.5299 419.3922 32.6148)" class="st1" width="11.667" height="7.333"/>
</g>
<g id="murs">
	<polyline class="st6" points="591.241,402.504 592.403,404.365 597.209,401.362 600.167,406.097 610.909,399.384 617.136,409.349 
		625.899,403.873 616.081,388.161 605.622,394.697 596.672,380.374 602.184,376.929 595.869,366.823 576.505,378.923 
		587.104,395.884 	"/>
	<polyline class="st6" points="551.594,586.892 547.001,579.543 506.86,604.625 516.222,619.608 	"/>
	<polyline class="st6" points="300.414,523.967 273.559,540.747 272.041,538.318 	"/>
	<line class="st6" x1="167.716" y1="395.58" x2="178.314" y2="412.541"/>
	<polyline class="st6" points="455.445,657.585 446.083,642.603 427.144,654.438 	"/>
	<polyline class="st6" points="381.985,304.14 337.18,332.137 327.995,317.438 367.712,292.62 	"/>
	<line class="st6" x1="376.614" y1="307.496" x2="372.022" y2="300.146"/>
	<line class="st6" x1="366.484" y1="313.826" x2="361.892" y2="306.476"/>
	<polyline class="st6" points="135.287,322.295 136.771,315.865 130.942,306.536 117.373,315.015 129.032,333.672 131.293,332.259 
		132.247,328.125 130.039,324.592 	"/>
	<line class="st6" x1="132.247" y1="328.125" x2="136.726" y2="329.159"/>
	<line class="st6" x1="149.544" y1="323.41" x2="139.74" y2="307.721"/>
	<polyline class="st6" points="143.714,314.081 153.043,308.252 149.069,301.892 	"/>
	<line class="st6" x1="153.043" y1="308.252" x2="155.163" y2="311.644"/>
	<polyline class="st6" points="285.596,304.625 289.04,310.138 279.288,316.232 	"/>
	<line class="st6" x1="301.65" y1="142.238" x2="322.955" y2="176.334"/>
</g>
</svg>
