<?xml version="1.0" encoding="utf-8"?>
<!-- Generator: Adobe Illustrator 19.0.1, SVG Export Plug-In . SVG Version: 6.00 Build 0)  -->
<svg version="1.1" id="icones" xmlns="http://www.w3.org/2000/svg" xmlns:xlink="http://www.w3.org/1999/xlink" x="0px" y="0px"
	 viewBox="0 0 922.454 992.95" style="enable-background:new 0 0 922.454 992.95;" xml:space="preserve">
<style type="text/css">
	.st0{fill:#1D1D1B;}
	.st1{fill:#FFFFFF;}
</style>
<g>
	<path class="st0" d="M616.027,403.956h-7.594c-1.034,0-1.872-0.838-1.872-1.872v-7.594c0-1.034,0.838-1.872,1.872-1.872h7.594
		c1.034,0,1.872,0.838,1.872,1.872v7.594C617.899,403.118,617.06,403.956,616.027,403.956z"/>
	<polygon class="st1" points="612.229,394.589 612.229,397.054 610.142,397.054 610.142,399.519 608.055,399.519 608.055,401.984 
		612.229,401.984 612.229,399.519 614.316,399.519 614.316,397.054 616.404,397.054 616.404,394.589 	"/>
</g>
<g>
	<path class="st0" d="M364.644,296.518h-7.594c-1.034,0-1.872-0.838-1.872-1.872v-7.594c0-1.034,0.838-1.872,1.872-1.872h7.594
		c1.034,0,1.872,0.838,1.872,1.872v7.594C366.516,295.68,365.678,296.518,364.644,296.518z"/>
	<polygon class="st1" points="360.846,287.151 360.846,289.616 358.759,289.616 358.759,292.081 356.672,292.081 356.672,294.546 
		360.846,294.546 360.846,292.081 362.934,292.081 362.934,289.616 365.021,289.616 365.021,287.151 	"/>
</g>
<g>
	<path class="st0" d="M165.817,398.287h-7.594c-1.034,0-1.872-0.838-1.872-1.872v-7.594c0-1.034,0.838-1.872,1.872-1.872h7.594
		c1.034,0,1.872,0.838,1.872,1.872v7.594C167.689,397.448,166.851,398.287,165.817,398.287z"/>
	<polygon class="st1" points="162.02,388.92 162.02,391.385 159.933,391.385 159.933,393.85 157.846,393.85 157.846,396.315 
		162.02,396.315 162.02,393.85 164.107,393.85 164.107,391.385 166.194,391.385 166.194,388.92 	"/>
</g>
<g>
	<path class="st0" d="M119.399,310.518h-7.594c-1.034,0-1.872-0.838-1.872-1.872v-7.594c0-1.034,0.838-1.872,1.872-1.872h7.594
		c1.034,0,1.872,0.838,1.872,1.872v7.594C121.271,309.68,120.433,310.518,119.399,310.518z"/>
	<polygon class="st1" points="115.602,301.152 115.602,303.616 113.515,303.616 113.515,306.081 111.428,306.081 111.428,308.546 
		115.602,308.546 115.602,306.081 117.689,306.081 117.689,303.616 119.776,303.616 119.776,301.152 	"/>
</g>
<g>
	<path class="st0" d="M105.48,257.098h-7.594c-1.034,0-1.872-0.838-1.872-1.872v-7.594c0-1.034,0.838-1.872,1.872-1.872h7.594
		c1.034,0,1.872,0.838,1.872,1.872v7.594C107.352,256.26,106.514,257.098,105.48,257.098z"/>
	<polygon class="st1" points="101.683,247.731 101.683,250.196 99.596,250.196 99.596,252.661 97.509,252.661 97.509,255.126 
		101.683,255.126 101.683,252.661 103.77,252.661 103.77,250.196 105.857,250.196 105.857,247.731 	"/>
</g>
<g>
	<path class="st0" d="M685.262,516.767h-7.594c-1.034,0-1.872-0.838-1.872-1.872V507.3c0-1.034,0.838-1.872,1.872-1.872h7.594
		c1.034,0,1.872,0.838,1.872,1.872v7.594C687.134,515.929,686.296,516.767,685.262,516.767z"/>
	<polygon class="st1" points="681.464,507.4 681.464,509.865 679.377,509.865 679.377,512.33 677.29,512.33 677.29,514.795 
		681.464,514.795 681.464,512.33 683.552,512.33 683.552,509.865 685.639,509.865 685.639,507.4 	"/>
</g>
<g>
	<path class="st0" d="M550.604,600.361h-7.594c-1.034,0-1.872-0.838-1.872-1.872v-7.594c0-1.034,0.838-1.872,1.872-1.872h7.594
		c1.034,0,1.872,0.838,1.872,1.872v7.594C552.476,599.523,551.638,600.361,550.604,600.361z"/>
	<polygon class="st1" points="546.807,590.994 546.807,593.459 544.72,593.459 544.72,595.924 542.633,595.924 542.633,598.389 
		546.807,598.389 546.807,595.924 548.894,595.924 548.894,593.459 550.981,593.459 550.981,590.994 	"/>
</g>
<g>
	<path class="st0" d="M711.606,710.847h-7.594c-1.034,0-1.872-0.838-1.872-1.872v-7.594c0-1.034,0.838-1.872,1.872-1.872h7.594
		c1.034,0,1.872,0.838,1.872,1.872v7.594C713.478,710.009,712.64,710.847,711.606,710.847z"/>
	<polygon class="st1" points="707.809,701.481 707.809,703.946 705.722,703.946 705.722,706.411 703.635,706.411 703.635,708.876 
		707.809,708.876 707.809,706.411 709.896,706.411 709.896,703.946 711.983,703.946 711.983,701.481 	"/>
</g>
<g>
	<path class="st0" d="M708.946,802.507h-7.594c-1.034,0-1.872-0.838-1.872-1.872v-7.594c0-1.034,0.838-1.872,1.872-1.872h7.594
		c1.034,0,1.872,0.838,1.872,1.872v7.594C710.818,801.669,709.98,802.507,708.946,802.507z"/>
	<polygon class="st1" points="705.149,793.141 705.149,795.606 703.062,795.606 703.062,798.07 700.975,798.07 700.975,800.535 
		705.149,800.535 705.149,798.07 707.236,798.07 707.236,795.606 709.323,795.606 709.323,793.141 	"/>
</g>
<g>
	<path class="st0" d="M801.563,934.23h-7.594c-1.034,0-1.872-0.838-1.872-1.872v-7.594c0-1.034,0.838-1.872,1.872-1.872h7.594
		c1.034,0,1.872,0.838,1.872,1.872v7.594C803.435,933.392,802.597,934.23,801.563,934.23z"/>
	<polygon class="st1" points="797.766,924.863 797.766,927.328 795.679,927.328 795.679,929.793 793.592,929.793 793.592,932.258 
		797.766,932.258 797.766,929.793 799.853,929.793 799.853,927.328 801.94,927.328 801.94,924.863 	"/>
</g>
<g>
	<path class="st0" d="M465.836,461.346h-7.594c-1.034,0-1.872-0.838-1.872-1.872v-7.594c0-1.034,0.838-1.872,1.872-1.872h7.594
		c1.034,0,1.872,0.838,1.872,1.872v7.594C467.708,460.508,466.87,461.346,465.836,461.346z"/>
	<polygon class="st1" points="462.039,451.979 462.039,454.444 459.952,454.444 459.952,456.909 457.865,456.909 457.865,459.374 
		462.039,459.374 462.039,456.909 464.126,456.909 464.126,454.444 466.213,454.444 466.213,451.979 	"/>
</g>
<g>
	<path class="st0" d="M334.847,543.143h-7.594c-1.034,0-1.872-0.838-1.872-1.872v-7.594c0-1.034,0.838-1.872,1.872-1.872h7.594
		c1.034,0,1.872,0.838,1.872,1.872v7.594C336.719,542.304,335.881,543.143,334.847,543.143z"/>
	<polygon class="st1" points="331.05,533.776 331.05,536.241 328.963,536.241 328.963,538.706 326.875,538.706 326.875,541.171 
		331.05,541.171 331.05,538.706 333.137,538.706 333.137,536.241 335.224,536.241 335.224,533.776 	"/>
</g>
<g>
	<path class="st0" d="M297.646,516.767h-7.594c-1.034,0-1.872-0.838-1.872-1.872V507.3c0-1.034,0.838-1.872,1.872-1.872h7.594
		c1.034,0,1.872,0.838,1.872,1.872v7.594C299.519,515.929,298.68,516.767,297.646,516.767z"/>
	<polygon class="st1" points="293.849,507.4 293.849,509.865 291.762,509.865 291.762,512.33 289.675,512.33 289.675,514.795 
		293.849,514.795 293.849,512.33 295.936,512.33 295.936,509.865 298.023,509.865 298.023,507.4 	"/>
</g>
<g>
	<path class="st0" d="M464.484,655.285h-7.594c-1.034,0-1.872-0.838-1.872-1.872v-7.594c0-1.034,0.838-1.872,1.872-1.872h7.594
		c1.034,0,1.872,0.838,1.872,1.872v7.594C466.356,654.447,465.518,655.285,464.484,655.285z"/>
	<polygon class="st1" points="460.687,645.919 460.687,648.383 458.6,648.383 458.6,650.848 456.513,650.848 456.513,653.313 
		460.687,653.313 460.687,650.848 462.774,650.848 462.774,648.383 464.861,648.383 464.861,645.919 	"/>
</g>
<g>
	<path class="st0" d="M420.564,764.22h-7.594c-1.034,0-1.872-0.838-1.872-1.872v-7.594c0-1.034,0.838-1.872,1.872-1.872h7.594
		c1.034,0,1.872,0.838,1.872,1.872v7.594C422.436,763.382,421.598,764.22,420.564,764.22z"/>
	<polygon class="st1" points="416.767,754.853 416.767,757.318 414.68,757.318 414.68,759.783 412.593,759.783 412.593,762.248 
		416.767,762.248 416.767,759.783 418.854,759.783 418.854,757.318 420.941,757.318 420.941,754.853 	"/>
</g>
<g>
	<path class="st0" d="M293.011,341.452h-7.594c-1.034,0-1.872-0.838-1.872-1.872v-7.594c0-1.034,0.838-1.872,1.872-1.872h7.594
		c1.034,0,1.872,0.838,1.872,1.872v7.594C294.883,340.613,294.045,341.452,293.011,341.452z"/>
	<g>
		<circle class="st1" cx="289.214" cy="331.877" r="0.779"/>
		<path class="st1" d="M291.325,335.702l-0.668-2.199c-0.13-0.389-0.518-0.695-1.084-0.695h-0.718c-0.567,0-0.955,0.306-1.085,0.695
			l-0.668,2.199c-0.138,0.473,0.408,0.641,0.551,0.199l0.705-2.011h0.081c0,0-0.926,3.6-0.965,3.735
			c-0.02,0.067,0.008,0.116,0.08,0.116c0.044,0,0.802,0,0.802,0l0.001,2.364c0,0.481,0.72,0.481,0.72,0v-2.382h0.276l0,2.382
			c0,0.481,0.72,0.481,0.72,0l0-2.364c0,0,0.757,0,0.801,0c0.071,0,0.1-0.049,0.08-0.116c-0.039-0.135-0.966-3.735-0.966-3.735
			h0.082l0.705,2.011C290.917,336.343,291.464,336.175,291.325,335.702z"/>
	</g>
</g>
<g>
	<path class="st0" d="M309.071,332.675h-7.594c-1.034,0-1.872-0.838-1.872-1.872v-7.594c0-1.034,0.838-1.872,1.872-1.872h7.594
		c1.034,0,1.872,0.838,1.872,1.872v7.594C310.943,331.837,310.105,332.675,309.071,332.675z"/>
	<g>
		<circle class="st1" cx="305.274" cy="323.056" r="0.787"/>
		<path class="st1" d="M306.12,323.998l-0.847,0.001l-0.846-0.001c-0.759,0-1.006,0.196-1.006,1.022v2.417
			c0,0.469,0.634,0.469,0.634,0l0.054-2.21h0.163v6.051c0,0.628,0.862,0.61,0.862,0l0.055-3.513h0.171l0.054,3.513
			c0,0.61,0.862,0.628,0.862,0v-6.051h0.163l0.055,2.21c0,0.469,0.633,0.469,0.633,0v-2.417
			C307.125,324.193,306.879,323.998,306.12,323.998z"/>
	</g>
</g>
<g>
	<path class="st0" d="M482.731,644.474h-7.594c-1.034,0-1.872-0.838-1.872-1.872v-7.594c0-1.034,0.838-1.872,1.872-1.872h7.594
		c1.034,0,1.872,0.838,1.872,1.872v7.594C484.603,643.635,483.765,644.474,482.731,644.474z"/>
	<g>
		<circle class="st1" cx="478.935" cy="634.898" r="0.779"/>
		<path class="st1" d="M481.046,638.724l-0.668-2.199c-0.13-0.389-0.518-0.695-1.084-0.695h-0.718c-0.567,0-0.955,0.306-1.085,0.695
			l-0.668,2.199c-0.138,0.473,0.408,0.641,0.551,0.199l0.705-2.011h0.081c0,0-0.926,3.6-0.965,3.735
			c-0.02,0.067,0.008,0.116,0.08,0.116c0.044,0,0.802,0,0.802,0l0.001,2.364c0,0.481,0.72,0.481,0.72,0v-2.382h0.276l0,2.382
			c0,0.481,0.72,0.481,0.72,0l0-2.364c0,0,0.757,0,0.801,0c0.071,0,0.1-0.049,0.08-0.116c-0.039-0.135-0.966-3.735-0.966-3.735
			h0.082l0.705,2.011C480.638,639.365,481.184,639.197,481.046,638.724z"/>
	</g>
</g>
<g>
	<path class="st0" d="M498.054,633.577h-7.594c-1.034,0-1.872-0.838-1.872-1.872v-7.594c0-1.034,0.838-1.872,1.872-1.872h7.594
		c1.034,0,1.872,0.838,1.872,1.872v7.594C499.926,632.739,499.088,633.577,498.054,633.577z"/>
	<g>
		<circle class="st1" cx="494.257" cy="623.958" r="0.787"/>
		<path class="st1" d="M495.103,624.9l-0.847,0.001l-0.846-0.001c-0.759,0-1.006,0.196-1.006,1.022v2.417
			c0,0.469,0.634,0.469,0.634,0l0.054-2.21h0.163v6.051c0,0.628,0.862,0.61,0.862,0l0.055-3.513h0.171l0.054,3.513
			c0,0.61,0.862,0.628,0.862,0v-6.051h0.163l0.055,2.21c0,0.469,0.633,0.469,0.633,0v-2.417
			C496.108,625.096,495.862,624.9,495.103,624.9z"/>
	</g>
</g>
<g>
	<path class="st0" d="M773.995,892.041H766.4c-1.034,0-1.872-0.838-1.872-1.872v-7.594c0-1.034,0.838-1.872,1.872-1.872h7.594
		c1.034,0,1.872,0.838,1.872,1.872v7.594C775.867,891.203,775.029,892.041,773.995,892.041z"/>
	<g>
		<circle class="st1" cx="770.198" cy="882.466" r="0.779"/>
		<path class="st1" d="M772.309,886.292l-0.668-2.198c-0.13-0.389-0.518-0.695-1.084-0.695h-0.718c-0.567,0-0.955,0.306-1.085,0.695
			l-0.668,2.198c-0.138,0.473,0.408,0.641,0.551,0.199l0.705-2.011h0.081c0,0-0.926,3.6-0.965,3.735
			c-0.02,0.067,0.008,0.116,0.08,0.116c0.044,0,0.802,0,0.802,0l0.001,2.364c0,0.481,0.72,0.481,0.72,0v-2.382h0.276l0,2.382
			c0,0.481,0.72,0.481,0.72,0l0-2.364c0,0,0.757,0,0.801,0c0.071,0,0.1-0.049,0.08-0.116c-0.039-0.135-0.966-3.735-0.966-3.735
			h0.082l0.705,2.011C771.901,886.933,772.447,886.765,772.309,886.292z"/>
	</g>
</g>
<g>
	<path class="st0" d="M760.089,870.61h-7.594c-1.034,0-1.872-0.838-1.872-1.872v-7.594c0-1.034,0.838-1.872,1.872-1.872h7.594
		c1.034,0,1.872,0.838,1.872,1.872v7.594C761.961,869.772,761.123,870.61,760.089,870.61z"/>
	<g>
		<circle class="st1" cx="756.292" cy="860.991" r="0.787"/>
		<path class="st1" d="M757.138,861.933l-0.847,0.001l-0.846-0.001c-0.759,0-1.006,0.196-1.006,1.022v2.417
			c0,0.469,0.634,0.469,0.634,0l0.054-2.21h0.163v6.051c0,0.628,0.862,0.61,0.862,0l0.055-3.513h0.171l0.054,3.513
			c0,0.61,0.862,0.628,0.862,0v-6.051h0.163l0.055,2.21c0,0.469,0.633,0.469,0.633,0v-2.417
			C758.143,862.128,757.897,861.933,757.138,861.933z"/>
	</g>
</g>
<g>
	<path class="st0" d="M253.706,544.53h-7.594c-1.034,0-1.872-0.838-1.872-1.872v-7.594c0-1.034,0.838-1.872,1.872-1.872h7.594
		c1.034,0,1.872,0.838,1.872,1.872v7.594C255.578,543.692,254.74,544.53,253.706,544.53z"/>
	<g>
		<circle class="st1" cx="253.012" cy="534.955" r="0.778"/>
		<path class="st1" d="M252.175,535.887l0.837,0.001l0.837-0.001c0.75,0,0.995,0.193,0.995,1.01v2.39c0,0.464-0.626,0.464-0.626,0
			l-0.054-2.186h-0.161v5.985c0,0.621-0.852,0.603-0.852,0l-0.054-3.474h-0.169l-0.054,3.474c0,0.603-0.852,0.621-0.852,0v-5.985
			h-0.16l-0.054,2.186c0,0.464-0.626,0.464-0.626,0v-2.39C251.181,536.08,251.425,535.887,252.175,535.887z"/>
		<circle class="st1" cx="247.109" cy="534.955" r="0.778"/>
		<path class="st1" d="M244.998,538.781l0.668-2.199c0.13-0.389,0.518-0.695,1.084-0.695h0.718c0.567,0,0.955,0.306,1.085,0.695
			l0.668,2.199c0.139,0.473-0.408,0.64-0.551,0.199l-0.706-2.01h-0.081c0,0,0.926,3.6,0.966,3.734
			c0.019,0.067-0.009,0.116-0.08,0.116c-0.044,0-0.802,0-0.802,0l-0.001,2.364c0,0.481-0.72,0.481-0.72,0v-2.383h-0.276l0,2.383
			c0,0.481-0.72,0.481-0.72,0l-0.001-2.364c0,0-0.758,0-0.802,0c-0.071,0-0.1-0.048-0.08-0.116c0.039-0.135,0.966-3.734,0.966-3.734
			h-0.082l-0.705,2.01C245.405,539.421,244.859,539.253,244.998,538.781z"/>
		<path class="st1" d="M249.782,543.169c0,0.208,0.168,0.376,0.376,0.376s0.376-0.168,0.376-0.376v-8.616
			c0-0.208-0.168-0.376-0.376-0.376s-0.376,0.168-0.376,0.376V543.169z"/>
	</g>
</g>
<g>
	<path class="st0" d="M276.551,152.927h-7.594c-1.034,0-1.872-0.838-1.872-1.872v-7.594c0-1.034,0.838-1.872,1.872-1.872h7.594
		c1.034,0,1.872,0.838,1.872,1.872v7.594C278.423,152.089,277.585,152.927,276.551,152.927z"/>
	<polygon class="st1" points="272.754,143.56 272.754,146.025 270.667,146.025 270.667,148.49 268.58,148.49 268.58,150.955 
		272.754,150.955 272.754,148.49 274.841,148.49 274.841,146.025 276.928,146.025 276.928,143.56 	"/>
</g>
<g>
	<g>
		<path class="st0" d="M261.326,532.63h-7.594c-1.034,0-1.872-0.838-1.872-1.872v-7.594c0-1.034,0.838-1.872,1.872-1.872h7.594
			c1.034,0,1.872,0.838,1.872,1.872v7.594C263.198,531.792,262.36,532.63,261.326,532.63z"/>
		<g>
			<path class="st1" d="M256.06,531.552h-2.058c-0.517,0-0.936-0.419-0.936-0.936v-7.311c0-0.517,0.419-0.936,0.936-0.936h2.058
				c0.517,0,0.936,0.419,0.936,0.936v7.311C256.996,531.133,256.577,531.552,256.06,531.552z"/>
			<path class="st1" d="M261.056,531.552h-2.058c-0.517,0-0.936-0.419-0.936-0.936v-7.311c0-0.517,0.419-0.936,0.936-0.936h2.058
				c0.517,0,0.936,0.419,0.936,0.936v7.311C261.992,531.133,261.573,531.552,261.056,531.552z"/>
		</g>
	</g>
	<path class="st0" d="M256.514,526.298l-1.444-1.444c-0.061-0.061-0.159-0.061-0.22,0l-1.444,1.444
		c-0.098,0.098-0.029,0.265,0.11,0.265h0.849v2.19c0,0.199,0.161,0.36,0.36,0.36h0.471c0.199,0,0.36-0.161,0.36-0.36v-2.19h0.849
		C256.543,526.563,256.612,526.396,256.514,526.298z"/>
	<path class="st0" d="M258.473,527.623l1.444,1.444c0.061,0.061,0.159,0.061,0.22,0l1.444-1.444c0.098-0.098,0.029-0.265-0.11-0.265
		h-0.849v-2.19c0-0.199-0.161-0.36-0.36-0.36h-0.471c-0.199,0-0.36,0.161-0.36,0.36v2.19h-0.849
		C258.444,527.358,258.375,527.525,258.473,527.623z"/>
</g>
<g>
	<g>
		<path class="st0" d="M391.726,604.437h-7.594c-1.034,0-1.872-0.838-1.872-1.872v-7.594c0-1.034,0.838-1.872,1.872-1.872h7.594
			c1.034,0,1.872,0.838,1.872,1.872v7.594C393.598,603.599,392.76,604.437,391.726,604.437z"/>
		<g>
			<path class="st1" d="M386.459,603.359h-2.058c-0.517,0-0.936-0.419-0.936-0.936v-7.311c0-0.517,0.419-0.936,0.936-0.936h2.058
				c0.517,0,0.936,0.419,0.936,0.936v7.311C387.396,602.94,386.976,603.359,386.459,603.359z"/>
			<path class="st1" d="M391.456,603.359h-2.058c-0.517,0-0.936-0.419-0.936-0.936v-7.311c0-0.517,0.419-0.936,0.936-0.936h2.058
				c0.517,0,0.936,0.419,0.936,0.936v7.311C392.392,602.94,391.973,603.359,391.456,603.359z"/>
		</g>
	</g>
	<path class="st0" d="M386.914,598.105l-1.444-1.444c-0.061-0.061-0.159-0.061-0.22,0l-1.444,1.444
		c-0.098,0.098-0.029,0.265,0.11,0.265h0.849v2.19c0,0.199,0.161,0.36,0.36,0.36h0.471c0.199,0,0.36-0.161,0.36-0.36v-2.19h0.849
		C386.943,598.37,387.012,598.203,386.914,598.105z"/>
	<path class="st0" d="M388.872,599.43l1.444,1.444c0.061,0.061,0.159,0.061,0.22,0l1.444-1.444c0.098-0.098,0.029-0.265-0.11-0.265
		h-0.849v-2.19c0-0.199-0.161-0.36-0.36-0.36h-0.471c-0.199,0-0.36,0.161-0.36,0.36v2.19h-0.849
		C388.844,599.165,388.775,599.332,388.872,599.43z"/>
</g>
<g>
	<g>
		<path class="st0" d="M727.214,733.586h-7.594c-1.034,0-1.872-0.838-1.872-1.872v-7.594c0-1.034,0.838-1.872,1.872-1.872h7.594
			c1.034,0,1.872,0.838,1.872,1.872v7.594C729.086,732.748,728.248,733.586,727.214,733.586z"/>
		<g>
			<path class="st1" d="M721.948,732.508h-2.058c-0.517,0-0.936-0.419-0.936-0.936v-7.311c0-0.517,0.419-0.936,0.936-0.936h2.058
				c0.517,0,0.936,0.419,0.936,0.936v7.311C722.884,732.089,722.465,732.508,721.948,732.508z"/>
			<path class="st1" d="M726.944,732.508h-2.058c-0.517,0-0.936-0.419-0.936-0.936v-7.311c0-0.517,0.419-0.936,0.936-0.936h2.058
				c0.517,0,0.936,0.419,0.936,0.936v7.311C727.88,732.089,727.461,732.508,726.944,732.508z"/>
		</g>
	</g>
	<path class="st0" d="M722.403,727.254l-1.444-1.444c-0.061-0.061-0.159-0.061-0.22,0l-1.444,1.444
		c-0.098,0.098-0.029,0.265,0.11,0.265h0.849v2.19c0,0.199,0.161,0.36,0.36,0.36h0.471c0.199,0,0.36-0.161,0.36-0.36v-2.19h0.849
		C722.431,727.52,722.501,727.352,722.403,727.254z"/>
	<path class="st0" d="M724.361,728.579l1.444,1.444c0.061,0.061,0.159,0.061,0.22,0l1.444-1.444c0.098-0.098,0.029-0.265-0.11-0.265
		h-0.849v-2.19c0-0.199-0.161-0.36-0.36-0.36h-0.471c-0.199,0-0.36,0.161-0.36,0.36v2.19h-0.849
		C724.333,728.314,724.263,728.482,724.361,728.579z"/>
</g>
<g>
	<g>
		<path class="st0" d="M614.268,365.691h-7.594c-1.034,0-1.872-0.838-1.872-1.872v-7.594c0-1.034,0.838-1.872,1.872-1.872h7.594
			c1.034,0,1.872,0.838,1.872,1.872v7.594C616.14,364.853,615.302,365.691,614.268,365.691z"/>
		<g>
			<path class="st1" d="M609.002,364.613h-2.058c-0.517,0-0.936-0.419-0.936-0.936v-7.311c0-0.517,0.419-0.936,0.936-0.936h2.058
				c0.517,0,0.936,0.419,0.936,0.936v7.311C609.938,364.194,609.519,364.613,609.002,364.613z"/>
			<path class="st1" d="M613.998,364.613h-2.058c-0.517,0-0.936-0.419-0.936-0.936v-7.311c0-0.517,0.419-0.936,0.936-0.936h2.058
				c0.517,0,0.936,0.419,0.936,0.936v7.311C614.934,364.194,614.515,364.613,613.998,364.613z"/>
		</g>
	</g>
	<path class="st0" d="M609.457,359.359l-1.444-1.444c-0.061-0.061-0.159-0.061-0.22,0l-1.444,1.444
		c-0.098,0.098-0.029,0.265,0.11,0.265h0.849v2.19c0,0.199,0.161,0.36,0.36,0.36h0.471c0.199,0,0.36-0.161,0.36-0.36v-2.19h0.849
		C609.485,359.625,609.555,359.457,609.457,359.359z"/>
	<path class="st0" d="M611.415,360.685l1.444,1.444c0.061,0.061,0.159,0.061,0.22,0l1.444-1.444c0.098-0.098,0.029-0.265-0.11-0.265
		h-0.849v-2.19c0-0.199-0.161-0.36-0.36-0.36h-0.471c-0.199,0-0.36,0.161-0.36,0.36v2.19h-0.849
		C611.386,360.419,611.317,360.587,611.415,360.685z"/>
</g>
<g>
	<circle class="st0" cx="434.624" cy="516.119" r="4.535"/>
	<path class="st1" d="M432.589,514.698l-0.675,2.923c-0.028,0.123,0.048,0.245,0.171,0.274l2.923,0.675
		c0.198,0.046,0.353-0.171,0.245-0.344l-0.661-1.057l2.728-1.705c0.248-0.155,0.323-0.481,0.168-0.729l-0.367-0.587
		c-0.155-0.248-0.481-0.323-0.729-0.168l-2.728,1.705l-0.661-1.057C432.897,514.456,432.634,514.5,432.589,514.698z"/>
</g>
<g>
	<circle class="st0" cx="368.817" cy="552.864" r="4.535"/>
	<path class="st1" d="M370.853,554.284l0.675-2.923c0.028-0.123-0.048-0.245-0.171-0.274l-2.923-0.675
		c-0.198-0.046-0.353,0.171-0.245,0.343l0.661,1.057l-2.728,1.704c-0.248,0.155-0.323,0.481-0.168,0.729l0.367,0.587
		c0.155,0.248,0.481,0.323,0.729,0.168l2.728-1.704l0.661,1.057C370.544,554.526,370.807,554.482,370.853,554.284z"/>
</g>
<g>
	<circle class="st0" cx="393.763" cy="251.345" r="4.535"/>
	<path class="st1" d="M395.183,249.31l-2.923-0.675c-0.123-0.028-0.245,0.048-0.274,0.171l-0.675,2.923
		c-0.046,0.198,0.171,0.353,0.343,0.245l1.057-0.661l1.704,2.728c0.155,0.248,0.481,0.323,0.729,0.168l0.587-0.367
		c0.248-0.155,0.323-0.481,0.168-0.729l-1.704-2.728l1.057-0.661C395.425,249.618,395.381,249.355,395.183,249.31z"/>
</g>
</svg>
