<?xml version="1.0" encoding="utf-8"?>
<!-- Generator: Adobe Illustrator 19.0.1, SVG Export Plug-In . SVG Version: 6.00 Build 0)  -->
<svg version="1.0" id="rue" xmlns="http://www.w3.org/2000/svg" xmlns:xlink="http://www.w3.org/1999/xlink" x="0px" y="0px"
	 width="2428.379px" height="2650.283px" viewBox="0 0 2428.379 2650.283" enable-background="new 0 0 2428.379 2650.283"
	 xml:space="preserve">
<path fill="none" stroke="#E8E8E8" stroke-width="20" stroke-linecap="round" stroke-miterlimit="10" d="M1137.99,1810.385
	c158.842-98.755,169.337-127.553,200.316-78.85c0,0,238.055,355.947,255.648,382.337l23.458,52.78l-96.764,468.426"/>
<path fill="none" stroke="#E8E8E8" stroke-width="20" stroke-linecap="round" stroke-miterlimit="10" d="M1520.648,2635.08
	l96.764-468.426l39.585-64.509l76.971-282.962c-76.971-42.518-98.22-32.252-75.505-126.82
	c8.388-34.923,47.948-148.377-12.781-221.691c-10.667-13.946-422.06-547.367-422.06-547.367
	c-13.195-14.844-37.936-20.068-60.203-7.422c-22.267,12.645-430.151,237.291-430.151,237.291"/>
<polyline fill="none" stroke="#E8E8E8" stroke-width="20" stroke-linecap="round" stroke-miterlimit="10" points="
	1656.997,2102.144 1733.969,1819.182 2075.782,513.325 "/>
<polyline fill="none" stroke="#E8E8E8" stroke-width="20" stroke-linecap="round" stroke-miterlimit="10" points="414.174,642.846 
	1137.99,1810.385 738.269,2053.762 "/>
<polyline fill="none" stroke="#E8E8E8" stroke-width="20" stroke-linecap="round" stroke-miterlimit="10" points="
	1721.481,1865.091 1683.388,1897.986 1640.87,1897.986 920.536,2344.421 "/>
<line fill="none" stroke="#E8E8E8" stroke-width="20" stroke-linecap="round" stroke-miterlimit="10" x1="59.505" y1="871.404" x2="414.174" y2="642.846"/>
<line fill="none" stroke="#E8E8E8" stroke-width="20" stroke-linecap="round" stroke-miterlimit="10" x1="414.174" y1="642.846" x2="20.463" y2="896.46"/>
<line fill="none" stroke="#E8E8E8" stroke-width="20" stroke-linecap="round" stroke-miterlimit="10" x1="1617.412" y1="2166.653" x2="1920.9" y2="2635.08"/>
<line fill="none" stroke="#E8E8E8" stroke-width="20" stroke-linecap="round" stroke-miterlimit="10" x1="2412.051" y1="2635.08" x2="1739.514" y2="1797.997"/>
<line fill="none" stroke="#E8E8E8" stroke-width="20" stroke-linecap="round" stroke-miterlimit="10" x1="1744.965" y1="2635.08" x2="2178.527" y2="2344.421"/>
<line fill="none" stroke="#E8E8E8" stroke-width="20" stroke-linecap="round" stroke-miterlimit="10" x1="2127.623" y1="2635.08" x2="2311.616" y2="2510.072"/>
<polyline fill="none" stroke="#E8E8E8" stroke-width="20" stroke-linecap="round" stroke-miterlimit="10" points="1358.275,2635.08 
	1391.263,2552.61 1398.414,2451.005 "/>
<line fill="none" stroke="#E8E8E8" stroke-width="20" stroke-linecap="round" stroke-miterlimit="10" x1="1008.597" y1="2484.85" x2="1411.055" y2="2228.23"/>
<line fill="none" stroke="#E8E8E8" stroke-width="20" stroke-linecap="round" stroke-miterlimit="10" x1="599.006" y1="940.986" x2="202.804" y2="1188.487"/>
<polyline fill="none" stroke="#E8E8E8" stroke-width="20" stroke-linecap="round" stroke-miterlimit="10" points="20.463,896.46 
	294.969,1336.095 691.588,1090.323 "/>
<line fill="none" stroke="#E8E8E8" stroke-width="20" stroke-linecap="round" stroke-miterlimit="10" x1="518.151" y1="810.563" x2="114.506" y2="1047.074"/>
<polyline fill="none" stroke="#E8E8E8" stroke-width="20" stroke-linecap="round" stroke-miterlimit="10" points="775.257,1225.284 
	375.714,1475.297 237.325,1561.894 114.506,1632.924 "/>
<line fill="none" stroke="#E8E8E8" stroke-width="20" stroke-linecap="round" stroke-miterlimit="10" x1="956.92" y1="1518.314" x2="431.353" y2="1847.003"/>
<polyline fill="none" stroke="#E8E8E8" stroke-width="20" stroke-linecap="round" stroke-miterlimit="10" points="599.006,2140.806 
	738.269,2053.762 1102.803,2635.08 1500.122,2387.671 1570.352,2394.466 "/>
<polyline fill="none" stroke="#E8E8E8" stroke-width="20" stroke-linecap="round" stroke-miterlimit="10" points="836.763,2210.829 
	1306.594,1930.182 1202.458,1769.094 "/>
<path fill="none" stroke="#E8E8E8" stroke-width="20" stroke-linecap="round" stroke-miterlimit="10" d="M1889.424,1225.284
	l-764.263-870.759c-26.39-28.589-8.239-43.313,12.829-54.98c14.947-8.278,192.795-114.358,192.795-114.358l95.664-45.083
	L1549.604,13.77"/>
<line fill="none" stroke="#E8E8E8" stroke-width="20" stroke-linecap="round" stroke-miterlimit="10" x1="1330.785" y1="185.188" x2="1985.155" y2="859.556"/>
<polyline fill="none" stroke="#E8E8E8" stroke-width="20" stroke-linecap="round" stroke-miterlimit="10" points="1500.729,63.908 
	1923.465,513.325 1878.808,748.912 "/>
<line fill="none" stroke="#E8E8E8" stroke-width="20" stroke-linecap="round" stroke-miterlimit="10" x1="567.109" y1="1762.101" x2="375.714" y2="1475.297"/>
<line fill="none" stroke="#E8E8E8" stroke-width="20" stroke-linecap="round" stroke-miterlimit="10" x1="872.952" y1="1382.871" x2="473.276" y2="1621.493"/>
<g>
	<g>
		<path fill="#999999" d="M909.105,1443.185c0.977-0.602,2.027-0.443,3.02,0.261l0.028-0.034c-0.123-1.106,0.317-1.887,0.984-2.298
			c1.227-0.756,2.7-0.232,3.536,1.126c0.925,1.502,0.445,2.832-0.521,3.426c-0.655,0.403-1.556,0.514-2.596-0.16l-0.036,0.021
			c0.213,1.201-0.1,2.215-1.041,2.794c-1.347,0.829-2.963,0.23-3.873-1.246C907.61,1445.453,907.973,1443.882,909.105,1443.185z
			 M911.72,1447.327c0.941-0.579,0.991-1.514,0.644-2.746c-0.82-0.743-1.716-0.865-2.455-0.41c-0.808,0.448-1.133,1.469-0.524,2.458
			C909.964,1447.57,910.922,1447.818,911.72,1447.327z M913.818,1442.06c-0.774,0.477-0.832,1.317-0.521,2.356
			c0.638,0.528,1.43,0.748,2.133,0.315c0.619-0.382,1.036-1.147,0.456-2.089C915.351,1441.774,914.485,1441.649,913.818,1442.06z"/>
		<path fill="#999999" d="M914.217,1449.862c-1.403,0.897-1.429,2.162-0.784,3.21c0.462,0.751,0.873,1.123,1.281,1.413l-0.641,0.641
			c-0.394-0.267-0.973-0.78-1.538-1.696c-1.093-1.777-0.579-3.557,1.162-4.627c1.739-1.071,3.741-0.89,4.775,0.79
			c1.159,1.883-0.189,3.403-1.25,4.057c-0.214,0.132-0.396,0.21-0.51,0.265L914.217,1449.862z M916.861,1452.474
			c0.675-0.399,1.535-1.324,0.81-2.502c-0.653-1.063-1.917-0.924-2.695-0.561L916.861,1452.474z"/>
		<path fill="#999999" d="M919.741,1459.208l-3.04,0.721l-0.66-1.072l9.711-2.215l0.771,1.251l-6.344,7.684l-0.682-1.107
			l1.998-2.413L919.741,1459.208z M922.173,1461.342l1.828-2.208c0.414-0.502,0.817-0.915,1.208-1.32l-0.015-0.024
			c-0.55,0.176-1.119,0.346-1.704,0.491l-2.807,0.644L922.173,1461.342z"/>
		<path fill="#999999" d="M926.743,1463.324l-2.544,3.127c-0.407,0.514-0.788,0.962-1.191,1.375l0.021,0.035
			c0.558-0.162,1.137-0.29,1.779-0.421l3.93-0.876l0.675,1.098l-7.161,1.285l-0.616-1.001l4.417-5.742L926.743,1463.324z"/>
		<path fill="#999999" d="M927.234,1471.006c-1.403,0.896-1.43,2.162-0.784,3.21c0.462,0.751,0.872,1.123,1.281,1.413l-0.641,0.641
			c-0.394-0.267-0.973-0.78-1.538-1.698c-1.093-1.775-0.578-3.555,1.161-4.626c1.74-1.071,3.742-0.89,4.776,0.79
			c1.159,1.883-0.189,3.403-1.25,4.057c-0.215,0.132-0.396,0.21-0.511,0.265L927.234,1471.006z M929.877,1473.619
			c0.674-0.399,1.535-1.324,0.809-2.504c-0.653-1.061-1.916-0.924-2.694-0.56L929.877,1473.619z"/>
		<path fill="#999999" d="M932.061,1475.458c0.596-0.367,1.078-0.68,1.532-1.009l0.572,0.929l-0.917,0.647l0.015,0.023
			c0.724-0.053,1.671,0.285,2.258,1.238c0.491,0.799,0.777,2.332-1.201,3.55l-3.444,2.119l-0.646-1.049l3.325-2.046
			c0.929-0.572,1.491-1.395,0.883-2.383c-0.426-0.692-1.244-0.927-1.938-0.746c-0.161,0.031-0.354,0.119-0.533,0.229l-3.468,2.134
			l-0.646-1.049L932.061,1475.458z"/>
		<path fill="#999999" d="M936.469,1488.516c-0.596,0.366-1.113,0.701-1.544,1.016l-0.572-0.929l0.905-0.64l-0.015-0.023
			c-0.633,0.013-1.615-0.222-2.246-1.246c-0.557-0.905-0.725-2.298,1.301-3.545l3.372-2.076l0.646,1.049l-3.193,1.966
			c-1.096,0.675-1.63,1.463-1.043,2.416c0.433,0.704,1.222,0.892,1.804,0.796c0.192-0.036,0.405-0.117,0.595-0.234l3.539-2.179
			l0.646,1.048L936.469,1488.516z"/>
		<path fill="#999999" d="M939.018,1490.148c-1.404,0.897-1.43,2.162-0.784,3.211c0.462,0.75,0.872,1.122,1.28,1.412l-0.641,0.641
			c-0.394-0.267-0.974-0.779-1.538-1.697c-1.093-1.775-0.578-3.555,1.161-4.626c1.74-1.071,3.741-0.89,4.775,0.79
			c1.159,1.883-0.189,3.403-1.25,4.057c-0.214,0.132-0.396,0.21-0.51,0.265L939.018,1490.148z M941.66,1492.76
			c0.675-0.399,1.535-1.323,0.81-2.503c-0.653-1.061-1.916-0.924-2.694-0.56L941.66,1492.76z"/>
	</g>
</g>
<g>
	<g>
		<path fill="#999999" d="M1454.196,730.943l-2.868,1.237l-0.837-0.941l9.179-3.868l0.977,1.099l-4.914,8.669l-0.864-0.973
			l1.549-2.724L1454.196,730.943z M1456.959,732.623l1.417-2.492c0.321-0.566,0.646-1.043,0.962-1.511l-0.019-0.021
			c-0.512,0.268-1.042,0.533-1.593,0.778l-2.652,1.122L1456.959,732.623z"/>
		<path fill="#999999" d="M1461.806,733.781l-1.962,3.521c-0.312,0.577-0.609,1.085-0.936,1.561l0.028,0.032
			c0.521-0.257,1.069-0.483,1.679-0.724l3.718-1.544l0.855,0.963l-6.829,2.509l-0.78-0.879l3.354-6.422L1461.806,733.781z"/>
		<path fill="#999999" d="M1463.622,741.26c-1.227,1.127-1.033,2.377-0.216,3.298c0.586,0.658,1.054,0.955,1.507,1.169l-0.52,0.742
			c-0.435-0.193-1.094-0.6-1.81-1.405c-1.385-1.559-1.188-3.4,0.34-4.757s3.53-1.525,4.841-0.05
			c1.468,1.653,0.404,3.384-0.526,4.211c-0.188,0.167-0.354,0.276-0.457,0.35L1463.622,741.26z M1466.678,743.374
			c0.596-0.51,1.282-1.569,0.362-2.604c-0.827-0.932-2.047-0.578-2.751-0.084L1466.678,743.374z"/>
		<path fill="#999999" d="M1469.149,744.808c0.523-0.465,0.943-0.856,1.334-1.259l0.724,0.815l-0.79,0.796l0.02,0.021
			c0.703-0.178,1.694-0.01,2.438,0.827c0.622,0.701,1.17,2.161-0.566,3.703l-3.023,2.686l-0.817-0.921l2.918-2.593
			c0.816-0.725,1.228-1.631,0.456-2.5c-0.54-0.607-1.386-0.697-2.038-0.398c-0.153,0.059-0.328,0.178-0.484,0.317l-3.045,2.704
			l-0.817-0.92L1469.149,744.808z"/>
		<path fill="#999999" d="M1475.756,756.902c-0.522,0.464-0.974,0.884-1.344,1.269l-0.725-0.815l0.78-0.787l-0.019-0.021
			c-0.622,0.122-1.63,0.063-2.429-0.837c-0.706-0.795-1.112-2.137,0.666-3.717l2.96-2.63l0.818,0.921l-2.804,2.491
			c-0.962,0.854-1.351,1.724-0.607,2.561c0.549,0.617,1.358,0.665,1.914,0.47c0.183-0.068,0.378-0.186,0.546-0.334l3.106-2.76
			l0.818,0.921L1475.756,756.902z"/>
		<path fill="#999999" d="M1478.55,758.067c-1.227,1.126-1.032,2.377-0.215,3.297c0.585,0.659,1.054,0.955,1.506,1.169l-0.52,0.743
			c-0.435-0.194-1.094-0.601-1.81-1.405c-1.384-1.559-1.187-3.4,0.341-4.757s3.53-1.526,4.84-0.05
			c1.469,1.652,0.404,3.383-0.526,4.21c-0.188,0.167-0.354,0.277-0.457,0.35L1478.55,758.067z M1481.606,760.181
			c0.596-0.511,1.282-1.57,0.363-2.605c-0.828-0.932-2.047-0.577-2.751-0.084L1481.606,760.181z"/>
		<path fill="#999999" d="M1486.988,771.865c-0.464-0.185-1.226-0.707-1.988-1.565c-1.765-1.987-1.839-4.598,0.474-6.652
			c2.207-1.96,5.032-1.793,6.974,0.393c0.781,0.879,1.085,1.6,1.173,1.953l-0.938,0.44c-0.14-0.494-0.45-1.097-0.971-1.683
			c-1.469-1.653-3.501-1.813-5.353-0.167c-1.726,1.533-1.952,3.511-0.428,5.227c0.492,0.555,1.108,1.017,1.612,1.226
			L1486.988,771.865z"/>
		<path fill="#999999" d="M1494.283,775.357c-1.873,1.664-3.842,1.091-4.929-0.132c-1.217-1.371-1.151-3.32,0.449-4.741
			c1.694-1.505,3.673-1.28,4.918,0.123C1496.014,772.06,1495.831,773.982,1494.283,775.357z M1490.662,771.388
			c-1.109,0.985-1.379,2.366-0.58,3.265c0.78,0.879,2.192,0.804,3.333-0.208c0.857-0.762,1.564-2.157,0.599-3.245
			C1493.047,770.11,1491.624,770.533,1490.662,771.388z"/>
		<path fill="#999999" d="M1496.432,775.523c0.523-0.465,0.943-0.856,1.334-1.259l0.724,0.815l-0.79,0.796l0.02,0.021
			c0.703-0.178,1.695-0.01,2.438,0.827c0.622,0.701,1.17,2.161-0.566,3.703l-3.023,2.686l-0.817-0.921l2.918-2.593
			c0.816-0.725,1.228-1.631,0.456-2.5c-0.54-0.607-1.386-0.697-2.038-0.398c-0.153,0.059-0.328,0.178-0.484,0.317l-3.045,2.704
			l-0.817-0.92L1496.432,775.523z"/>
		<path fill="#999999" d="M1503.162,780.34l-1.979,2.955c-0.435,0.649-0.837,1.25-1.276,1.808l0.028,0.031
			c0.615-0.339,1.307-0.656,2-0.972l3.317-1.469l0.688,0.775l-1.835,3.032c-0.439,0.728-0.843,1.349-1.253,1.919l0.027,0.031
			c0.588-0.372,1.241-0.71,1.986-1.072l3.184-1.536l0.809,0.91l-6.514,2.865l-0.743-0.836l1.729-2.921
			c0.406-0.68,0.778-1.272,1.264-1.927l-0.02-0.021c-0.718,0.413-1.381,0.721-2.082,1.027l-3.131,1.321l-0.743-0.837l3.706-6.025
			L1503.162,780.34z"/>
		<path fill="#999999" d="M1507.065,794.931l0.573-0.639l-0.027-0.032c-0.649,0.071-1.487-0.157-2.129-0.879
			c-0.911-1.025-0.653-2.19,0.078-2.84c1.225-1.087,2.86-0.593,4.587,1.372l0.105-0.093c0.418-0.372,1.069-1.157,0.149-2.192
			c-0.419-0.471-1.001-0.832-1.547-0.983l0.421-0.749c0.644,0.178,1.359,0.626,1.927,1.264c1.375,1.549,0.653,2.864-0.361,3.766
			l-1.894,1.682c-0.439,0.391-0.85,0.792-1.14,1.161L1507.065,794.931z M1509.529,792.5c-0.872-1.023-2.063-2.005-3.046-1.132
			c-0.597,0.529-0.525,1.178-0.107,1.648c0.585,0.659,1.375,0.706,1.935,0.471c0.122-0.051,0.245-0.124,0.34-0.208L1509.529,792.5z"
			/>
		<path fill="#999999" d="M1514.338,792.921l-2.007,3.767c-0.231,0.413-0.519,0.892-0.747,1.244l0.019,0.021
			c0.387-0.176,0.867-0.415,1.345-0.614l3.863-1.635l0.863,0.973l-4.835,1.825c-2.322,0.883-3.611,1.224-4.713,1.079
			c-0.797-0.097-1.354-0.407-1.6-0.6l0.569-0.917c0.278,0.164,0.694,0.338,1.166,0.405c0.422,0.076,1.056,0.073,1.712-0.136
			c0.132-0.042,0.233-0.075,0.285-0.122c0.053-0.046,0.107-0.132,0.186-0.276l3.002-6.018L1514.338,792.921z"/>
	</g>
</g>
<g>
	<g>
		<path fill="#999999" d="M1395.424,247.147l-2.822,1.339l-0.87-0.911l9.035-4.193l1.015,1.063l-4.602,8.838l-0.898-0.941
			l1.451-2.777L1395.424,247.147z M1398.246,248.727l1.327-2.542c0.301-0.577,0.608-1.065,0.906-1.543l-0.02-0.021
			c-0.501,0.286-1.021,0.571-1.563,0.834l-2.611,1.216L1398.246,248.727z"/>
		<path fill="#999999" d="M1403.131,249.711l-1.836,3.589c-0.29,0.587-0.569,1.105-0.878,1.593l0.028,0.03
			c0.512-0.274,1.052-0.52,1.652-0.782l3.66-1.677l0.89,0.932l-6.735,2.751l-0.811-0.85l3.121-6.538L1403.131,249.711z"/>
		<path fill="#999999" d="M1405.213,257.121c-1.186,1.17-0.947,2.413-0.098,3.303c0.608,0.638,1.088,0.917,1.547,1.115l-0.492,0.761
			c-0.441-0.179-1.115-0.561-1.858-1.34c-1.439-1.508-1.308-3.356,0.17-4.767c1.478-1.411,3.474-1.65,4.835-0.223
			c1.527,1.6,0.525,3.368-0.375,4.228c-0.183,0.174-0.344,0.289-0.444,0.365L1405.213,257.121z M1408.342,259.124
			c0.577-0.531,1.226-1.615,0.27-2.617c-0.86-0.901-2.066-0.503-2.752,0.015L1408.342,259.124z"/>
		<path fill="#999999" d="M1410.864,260.468c0.506-0.483,0.911-0.889,1.287-1.305l0.753,0.789l-0.761,0.824l0.02,0.021
			c0.696-0.202,1.693-0.07,2.466,0.74c0.647,0.678,1.247,2.117-0.434,3.721l-2.926,2.792l-0.85-0.891l2.824-2.695
			c0.79-0.754,1.168-1.675,0.366-2.515c-0.561-0.588-1.41-0.647-2.051-0.325c-0.15,0.065-0.321,0.19-0.474,0.335l-2.945,2.811
			l-0.851-0.891L1410.864,260.468z"/>
		<path fill="#999999" d="M1417.898,272.32c-0.506,0.483-0.942,0.917-1.298,1.315l-0.753-0.79l0.751-0.814l-0.02-0.021
			c-0.616,0.144-1.626,0.121-2.456-0.75c-0.734-0.77-1.188-2.097,0.532-3.739l2.865-2.733l0.85,0.891l-2.713,2.589
			c-0.931,0.889-1.288,1.771-0.516,2.581c0.57,0.598,1.381,0.616,1.931,0.401c0.181-0.075,0.371-0.199,0.533-0.353l3.006-2.869
			l0.851,0.891L1417.898,272.32z"/>
		<path fill="#999999" d="M1420.732,273.384c-1.186,1.169-0.948,2.412-0.099,3.303c0.609,0.638,1.088,0.917,1.548,1.115
			l-0.492,0.761c-0.441-0.179-1.115-0.561-1.858-1.34c-1.439-1.508-1.309-3.357,0.17-4.767c1.479-1.411,3.474-1.65,4.836-0.223
			c1.525,1.6,0.524,3.368-0.377,4.228c-0.182,0.174-0.343,0.289-0.443,0.366L1420.732,273.384z M1423.862,275.387
			c0.576-0.531,1.225-1.615,0.269-2.617c-0.86-0.901-2.066-0.503-2.752,0.015L1423.862,275.387z"/>
		<path fill="#999999" d="M1431.616,275.893c0.447,0.307,1.088,0.856,1.678,1.474c0.84,0.881,1.229,1.592,1.291,2.347
			c0.074,0.604-0.128,1.204-0.664,1.716c-0.658,0.628-1.65,0.743-2.599,0.276l-0.021,0.019c0.456,0.803,0.644,2.073-0.368,3.039
			c-0.588,0.561-1.255,0.753-1.917,0.728c-0.891-0.061-1.826-0.637-2.889-1.75c-0.579-0.607-0.984-1.112-1.224-1.444
			L1431.616,275.893z M1426.393,282.559c0.135,0.202,0.365,0.464,0.664,0.778c0.87,0.912,2.006,1.433,2.998,0.486
			c0.932-0.889,0.553-2.056-0.365-3.017l-0.695-0.729L1426.393,282.559z M1429.662,279.439l0.764,0.8
			c0.889,0.932,1.896,1.014,2.554,0.387c0.8-0.763,0.534-1.669-0.315-2.56c-0.387-0.405-0.64-0.609-0.805-0.723L1429.662,279.439z"
			/>
		<path fill="#999999" d="M1432.89,286.125c-1.186,1.17-0.947,2.412-0.099,3.303c0.609,0.638,1.089,0.917,1.548,1.115l-0.492,0.761
			c-0.441-0.179-1.115-0.561-1.858-1.34c-1.439-1.508-1.308-3.356,0.17-4.767c1.479-1.411,3.474-1.65,4.836-0.224
			c1.525,1.6,0.524,3.368-0.377,4.228c-0.182,0.174-0.343,0.289-0.443,0.366L1432.89,286.125z M1436.02,288.128
			c0.576-0.531,1.225-1.615,0.269-2.617c-0.86-0.901-2.066-0.503-2.752,0.015L1436.02,288.128z"/>
		<path fill="#999999" d="M1438.337,289.665c0.577-0.551,1.063-1.034,1.49-1.499l0.743,0.779l-0.932,0.948l0.038,0.04
			c0.87-0.405,1.798-0.264,2.367,0.333c0.097,0.101,0.154,0.183,0.211,0.282l-0.84,0.802c-0.067-0.11-0.144-0.211-0.259-0.332
			c-0.6-0.628-1.5-0.619-2.284-0.103c-0.142,0.095-0.303,0.21-0.454,0.355l-2.612,2.492l-0.84-0.88L1438.337,289.665z"/>
		<path fill="#999999" d="M1446.974,295.656c-0.373,0.317-0.788,0.674-1.385,1.244l-2.845,2.714
			c-1.124,1.072-2.024,1.506-2.903,1.437c-0.899-0.051-1.698-0.604-2.287-1.222c-0.561-0.587-1.037-1.37-1.15-2.016l0.891-0.425
			c0.106,0.518,0.407,1.197,0.987,1.805c0.869,0.912,1.982,1.125,3.217-0.054l0.547-0.521l-0.019-0.02
			c-0.717,0.161-1.583-0.018-2.308-0.777c-1.159-1.214-0.958-3.071,0.398-4.365c1.66-1.584,3.636-1.399,4.708-0.276
			c0.812,0.851,0.811,1.742,0.608,2.34l0.019,0.02l0.778-0.664L1446.974,295.656z M1444.162,296.58
			c0.151-0.145,0.273-0.28,0.356-0.437c0.361-0.655,0.371-1.496-0.247-2.144c-0.812-0.851-2.109-0.771-3.243,0.311
			c-0.962,0.917-1.298,2.166-0.38,3.128c0.521,0.546,1.338,0.713,2.09,0.365c0.199-0.094,0.391-0.238,0.543-0.383L1444.162,296.58z"
			/>
		<path fill="#999999" d="M1446.206,300.08c-1.186,1.17-0.947,2.412-0.098,3.303c0.608,0.638,1.088,0.917,1.548,1.115l-0.493,0.761
			c-0.44-0.179-1.114-0.561-1.858-1.34c-1.439-1.508-1.308-3.357,0.17-4.767c1.479-1.411,3.474-1.65,4.836-0.223
			c1.526,1.6,0.525,3.368-0.376,4.228c-0.183,0.174-0.344,0.289-0.444,0.366L1446.206,300.08z M1449.336,302.083
			c0.576-0.531,1.225-1.615,0.269-2.617c-0.859-0.901-2.066-0.503-2.751,0.015L1449.336,302.083z"/>
		<path fill="#999999" d="M1451.858,303.428c0.506-0.483,0.911-0.889,1.287-1.306l0.743,0.779l-0.751,0.794l0.029,0.03
			c0.727-0.171,1.597-0.131,2.369,0.679c0.638,0.668,0.716,1.561,0.342,2.324l0.02,0.02c0.418-0.108,0.814-0.119,1.158-0.062
			c0.504,0.081,0.934,0.289,1.379,0.755c0.618,0.647,1.11,2.015-0.59,3.638l-2.886,2.753l-0.831-0.871l2.774-2.647
			c0.941-0.898,1.18-1.783,0.494-2.502c-0.482-0.506-1.234-0.543-1.814-0.28c-0.16,0.076-0.351,0.2-0.513,0.355l-3.027,2.888
			l-0.831-0.871l2.936-2.801c0.779-0.744,1.019-1.629,0.371-2.307c-0.531-0.557-1.363-0.537-1.944-0.253
			c-0.179,0.075-0.351,0.199-0.502,0.344l-2.956,2.821l-0.831-0.87L1451.858,303.428z"/>
		<path fill="#999999" d="M1463.059,317.335c-1.812,1.729-3.8,1.227-4.93,0.042c-1.266-1.326-1.27-3.276,0.279-4.754
			c1.64-1.565,3.625-1.41,4.92-0.053C1464.672,313.978,1464.557,315.906,1463.059,317.335z M1459.299,313.497
			c-1.073,1.024-1.294,2.414-0.463,3.285c0.811,0.85,2.219,0.725,3.322-0.328c0.83-0.792,1.487-2.211,0.483-3.264
			C1461.636,312.135,1460.231,312.608,1459.299,313.497z"/>
		<path fill="#999999" d="M1465.213,317.424c0.506-0.483,0.911-0.889,1.287-1.306l0.753,0.789l-0.761,0.823l0.02,0.021
			c0.697-0.202,1.693-0.069,2.467,0.741c0.646,0.678,1.246,2.118-0.434,3.721l-2.926,2.792l-0.851-0.891l2.824-2.695
			c0.79-0.753,1.168-1.674,0.366-2.515c-0.561-0.588-1.41-0.646-2.051-0.325c-0.15,0.065-0.321,0.19-0.474,0.335l-2.945,2.811
			l-0.851-0.891L1465.213,317.424z"/>
		<path fill="#999999" d="M1474.29,321.465l-1.407,1.343l1.218,1.275l-0.679,0.647l-1.217-1.274l-2.643,2.521
			c-0.607,0.58-0.787,1.08-0.314,1.576c0.223,0.232,0.418,0.376,0.554,0.458l-0.629,0.677c-0.235-0.104-0.547-0.329-0.875-0.673
			c-0.396-0.416-0.583-0.875-0.543-1.319c0.021-0.505,0.37-1.011,0.947-1.562l2.672-2.55l-0.725-0.76l0.679-0.647l0.725,0.76
			l1.174-1.121L1474.29,321.465z"/>
	</g>
</g>
<g>
	<g>
		<path fill="#999999" d="M1424.595,1864.844c0.947-0.647,2.004-0.539,3.028,0.116l0.027-0.034
			c-0.176-1.101,0.226-1.901,0.873-2.343c1.189-0.813,2.686-0.361,3.585,0.956c0.996,1.456,0.58,2.806-0.355,3.446
			c-0.636,0.434-1.53,0.588-2.601-0.035l-0.034,0.023c0.27,1.188,0.006,2.215-0.907,2.839c-1.305,0.893-2.949,0.372-3.928-1.06
			C1423.209,1867.181,1423.497,1865.594,1424.595,1864.844z M1427.405,1868.857c0.913-0.624,0.918-1.56,0.512-2.773
			c-0.854-0.705-1.756-0.783-2.472-0.294c-0.786,0.487-1.062,1.522-0.406,2.481
			C1425.662,1869.183,1426.631,1869.386,1427.405,1868.857z M1429.248,1863.495c-0.751,0.513-0.769,1.356-0.407,2.38
			c0.662,0.498,1.464,0.678,2.146,0.212c0.601-0.41,0.979-1.194,0.355-2.107C1430.766,1863.135,1429.896,1863.052,1429.248,1863.495
			z"/>
		<path fill="#999999" d="M1430.021,1871.269c-1.359,0.963-1.325,2.228-0.631,3.244c0.498,0.728,0.925,1.08,1.347,1.351
			l-0.609,0.671c-0.406-0.247-1.01-0.733-1.617-1.623c-1.176-1.721-0.747-3.523,0.939-4.677c1.687-1.152,3.694-1.066,4.808,0.563
			c1.247,1.825-0.026,3.408-1.055,4.11c-0.208,0.143-0.386,0.229-0.497,0.29L1430.021,1871.269z M1432.785,1873.753
			c0.654-0.432,1.47-1.396,0.688-2.539c-0.703-1.029-1.958-0.832-2.719-0.432L1432.785,1873.753z"/>
		<path fill="#999999" d="M1435.985,1880.342l-3.002,0.864l-0.711-1.04l9.594-2.677l0.83,1.215l-5.971,7.978l-0.734-1.074
			l1.881-2.506L1435.985,1880.342z M1438.514,1882.357l1.721-2.293c0.39-0.521,0.772-0.953,1.145-1.376l-0.016-0.023
			c-0.541,0.2-1.102,0.397-1.678,0.571l-2.774,0.777L1438.514,1882.357z"/>
		<path fill="#999999" d="M1443.175,1884.118l-2.392,3.245c-0.382,0.533-0.741,0.998-1.125,1.43l0.023,0.035
			c0.55-0.189,1.122-0.344,1.757-0.506l3.884-1.063l0.727,1.063l-7.091,1.626l-0.663-0.97l4.138-5.947L1443.175,1884.118z"/>
		<path fill="#999999" d="M1444.031,1891.768c-1.359,0.963-1.325,2.228-0.63,3.244c0.497,0.727,0.925,1.079,1.347,1.35l-0.609,0.671
			c-0.406-0.247-1.01-0.733-1.617-1.622c-1.177-1.722-0.748-3.523,0.938-4.677c1.687-1.152,3.694-1.066,4.808,0.562
			c1.248,1.825-0.026,3.408-1.055,4.11c-0.208,0.143-0.385,0.23-0.497,0.29L1444.031,1891.768z M1446.796,1894.251
			c0.655-0.432,1.47-1.396,0.688-2.539c-0.703-1.029-1.958-0.83-2.718-0.432L1446.796,1894.251z"/>
		<path fill="#999999" d="M1449.066,1895.985c0.578-0.395,1.044-0.73,1.482-1.081l0.615,0.901l-0.885,0.689l0.017,0.023
			c0.72-0.087,1.683,0.205,2.314,1.129c0.528,0.774,0.888,2.292-1.03,3.603l-3.338,2.281l-0.695-1.017l3.224-2.202
			c0.9-0.617,1.423-1.465,0.768-2.423c-0.458-0.671-1.287-0.866-1.972-0.652c-0.159,0.04-0.348,0.136-0.521,0.255l-3.362,2.297
			l-0.694-1.017L1449.066,1895.985z"/>
		<path fill="#999999" d="M1454.092,1908.818c-0.577,0.395-1.078,0.753-1.493,1.088l-0.616-0.9l0.873-0.682l-0.016-0.023
			c-0.632,0.043-1.624-0.145-2.303-1.138c-0.601-0.878-0.834-2.261,1.13-3.604l3.27-2.234l0.694,1.017l-3.096,2.116
			c-1.063,0.726-1.558,1.54-0.926,2.464c0.466,0.682,1.263,0.832,1.84,0.708c0.189-0.045,0.397-0.136,0.583-0.263l3.431-2.345
			l0.695,1.017L1454.092,1908.818z"/>
		<path fill="#999999" d="M1456.716,1910.326c-1.359,0.963-1.325,2.228-0.63,3.244c0.497,0.728,0.924,1.08,1.347,1.35l-0.609,0.672
			c-0.406-0.248-1.01-0.733-1.618-1.623c-1.176-1.722-0.747-3.523,0.939-4.677c1.687-1.152,3.694-1.066,4.808,0.563
			c1.248,1.825-0.026,3.408-1.055,4.11c-0.208,0.143-0.386,0.229-0.497,0.289L1456.716,1910.326z M1459.481,1912.808
			c0.655-0.43,1.47-1.395,0.688-2.537c-0.703-1.029-1.958-0.832-2.718-0.432L1459.481,1912.808z"/>
	</g>
</g>
<g>
	<g>
		<path fill="#999999" d="M119.193,826.648l-0.023,0.015l-0.877,1.567l-0.704-0.664l1.109-1.963l0.886-0.563l4.873,7.68
			l-1.005,0.638L119.193,826.648z"/>
		<path fill="#999999" d="M127.229,821.218c-0.219,0.122-0.484,0.307-0.75,0.541c-1.457,1.307-1.563,3.047-0.938,4.424l0.035-0.022
			c0.059-0.717,0.442-1.523,1.292-2.063c1.359-0.862,2.939-0.489,3.891,1.011c0.892,1.406,0.759,3.313-0.835,4.325
			c-1.643,1.042-3.527,0.449-4.794-1.548c-0.959-1.512-1.173-3.05-0.896-4.287c0.24-1.031,0.845-1.961,1.738-2.694
			c0.277-0.242,0.529-0.418,0.718-0.538L127.229,821.218z M129.745,825.835c-0.697-1.099-1.743-1.363-2.7-0.756
			c-0.626,0.397-0.958,1.154-0.889,1.89c0.003,0.163,0.054,0.346,0.174,0.536c0.824,1.249,1.996,1.815,3.083,1.125
			C130.312,828.06,130.442,826.935,129.745,825.835z"/>
		<path fill="#999999" d="M132.528,823.854c0.917,1.391,2.182,1.4,3.221,0.741c0.744-0.472,1.112-0.887,1.396-1.3l0.65,0.632
			c-0.262,0.397-0.768,0.984-1.677,1.561c-1.761,1.117-3.548,0.627-4.643-1.098c-1.095-1.725-0.939-3.729,0.726-4.785
			c1.867-1.185,3.405,0.143,4.072,1.194c0.135,0.212,0.217,0.393,0.272,0.507L132.528,823.854z M135.105,821.175
			c-0.408-0.669-1.345-1.517-2.514-0.775c-1.053,0.667-0.898,1.928-0.523,2.702L135.105,821.175z"/>
		<path fill="#999999" d="M137.115,813.668c0.452-0.436,1.16-0.967,1.869-1.417c1.098-0.697,1.935-0.946,2.716-0.813
			c0.626,0.1,1.196,0.501,1.586,1.116c0.667,1.051,0.448,2.168-0.212,2.984l0.022,0.035c0.75-0.177,1.477,0.157,2.189,0.864
			c0.965,0.946,1.641,1.594,2.001,1.796l-1.063,0.675c-0.272-0.142-0.884-0.715-1.738-1.565c-0.934-0.948-1.622-1.092-2.578-0.535
			l-0.969,0.615l2.188,3.45l-1.027,0.652L137.115,813.668z M140.444,816.644l1.053-0.667c1.098-0.697,1.414-1.742,0.836-2.652
			c-0.652-1.028-1.682-1.005-2.777-0.327c-0.496,0.315-0.82,0.587-0.957,0.74L140.444,816.644z"/>
		<path fill="#999999" d="M152.215,812.92c0.375,0.591,0.716,1.104,1.037,1.53l-0.922,0.584l-0.65-0.896l-0.024,0.015
			c0.021,0.633-0.2,1.618-1.215,2.263c-0.898,0.57-2.289,0.756-3.563-1.253l-2.121-3.343l1.04-0.66l2.009,3.167
			c0.69,1.087,1.486,1.609,2.43,1.01c0.698-0.442,0.874-1.234,0.771-1.815c-0.039-0.191-0.123-0.402-0.242-0.591l-2.227-3.509
			l1.039-0.66L152.215,812.92z"/>
		<path fill="#999999" d="M153.811,810.35c0.917,1.391,2.182,1.4,3.222,0.74c0.743-0.472,1.111-0.887,1.395-1.299l0.65,0.632
			c-0.262,0.397-0.768,0.984-1.677,1.561c-1.761,1.117-3.548,0.627-4.643-1.098s-0.939-3.729,0.726-4.785
			c1.867-1.185,3.405,0.143,4.072,1.194c0.135,0.212,0.217,0.393,0.272,0.507L153.811,810.35z M156.388,807.671
			c-0.408-0.669-1.345-1.518-2.514-0.775c-1.053,0.667-0.898,1.929-0.523,2.702L156.388,807.671z"/>
	</g>
</g>
<g>
	<g>
		<path fill="#999999" d="M241.223,1161.233l-0.023,0.015l-0.877,1.567l-0.704-0.664l1.109-1.963l0.886-0.563l4.873,7.68
			l-1.005,0.638L241.223,1161.233z"/>
		<path fill="#999999" d="M249.55,1155.817l-2.93,1.859l0.956,2.161c0.163-0.136,0.313-0.265,0.597-0.445
			c0.59-0.375,1.264-0.62,1.916-0.636c0.821-0.04,1.736,0.307,2.351,1.276c0.952,1.5,0.471,3.379-1.194,4.437
			c-0.839,0.532-1.698,0.746-2.214,0.742l-0.243-0.957c0.439-0.013,1.215-0.174,1.913-0.617c0.98-0.622,1.415-1.792,0.762-2.82
			c-0.641-0.985-1.753-1.274-3.288-0.299c-0.438,0.277-0.75,0.542-1.012,0.757l-1.842-4.001l3.674-2.331L249.55,1155.817z"/>
		<path fill="#999999" d="M254.558,1158.439c0.917,1.391,2.182,1.4,3.221,0.741c0.744-0.472,1.112-0.887,1.396-1.3l0.65,0.632
			c-0.262,0.397-0.768,0.984-1.677,1.561c-1.761,1.117-3.548,0.627-4.643-1.098c-1.095-1.725-0.939-3.729,0.726-4.785
			c1.867-1.185,3.405,0.143,4.072,1.194c0.135,0.212,0.217,0.393,0.272,0.507L254.558,1158.439z M257.135,1155.76
			c-0.408-0.669-1.345-1.517-2.514-0.775c-1.053,0.667-0.898,1.928-0.523,2.702L257.135,1155.76z"/>
		<path fill="#999999" d="M259.145,1148.253c0.452-0.436,1.16-0.967,1.869-1.417c1.098-0.697,1.935-0.946,2.716-0.813
			c0.626,0.1,1.196,0.501,1.586,1.116c0.667,1.051,0.448,2.168-0.212,2.984l0.022,0.035c0.75-0.177,1.477,0.157,2.189,0.864
			c0.965,0.946,1.641,1.594,2.001,1.796l-1.063,0.675c-0.272-0.142-0.884-0.715-1.738-1.565c-0.934-0.948-1.622-1.092-2.578-0.535
			l-0.969,0.615l2.188,3.45l-1.027,0.652L259.145,1148.253z M262.474,1151.229l1.053-0.667c1.098-0.697,1.414-1.742,0.836-2.652
			c-0.652-1.028-1.682-1.005-2.777-0.327c-0.496,0.315-0.82,0.587-0.957,0.74L262.474,1151.229z"/>
		<path fill="#999999" d="M274.244,1147.505c0.375,0.591,0.716,1.104,1.037,1.53l-0.922,0.584l-0.65-0.896l-0.024,0.015
			c0.021,0.633-0.2,1.618-1.215,2.263c-0.898,0.57-2.289,0.756-3.563-1.253l-2.121-3.343l1.04-0.66l2.009,3.167
			c0.69,1.087,1.486,1.609,2.43,1.01c0.698-0.442,0.874-1.234,0.771-1.815c-0.039-0.191-0.123-0.402-0.242-0.591l-2.227-3.509
			l1.039-0.66L274.244,1147.505z"/>
		<path fill="#999999" d="M275.841,1144.934c0.917,1.391,2.182,1.4,3.222,0.74c0.743-0.472,1.111-0.887,1.395-1.299l0.65,0.632
			c-0.262,0.397-0.768,0.984-1.677,1.561c-1.761,1.117-3.548,0.627-4.643-1.098s-0.939-3.729,0.726-4.785
			c1.867-1.185,3.405,0.143,4.072,1.194c0.135,0.212,0.217,0.393,0.272,0.507L275.841,1144.934z M278.418,1142.256
			c-0.408-0.669-1.345-1.518-2.514-0.775c-1.053,0.667-0.898,1.929-0.523,2.702L278.418,1142.256z"/>
	</g>
</g>
<g>
	<g>
		<path fill="#999999" d="M410.223,1450.574l-0.023,0.016l-0.877,1.566l-0.704-0.663l1.109-1.963l0.886-0.563l4.873,7.68
			l-1.005,0.638L410.223,1450.574z"/>
		<path fill="#999999" d="M421.497,1452.832l-1.327-2.091l-3.568,2.264l-0.435-0.686l0.315-7.077l1.122-0.712l3.029,4.773
			l1.075-0.682l0.517,0.814l-1.075,0.683l1.327,2.091L421.497,1452.832z M419.654,1449.926l-1.627-2.563
			c-0.255-0.402-0.498-0.811-0.729-1.229l-0.035,0.023c0.048,0.599,0.069,1.049,0.081,1.539l-0.221,3.803l0.015,0.023
			L419.654,1449.926z"/>
		<path fill="#999999" d="M423.558,1447.78c0.917,1.391,2.182,1.399,3.221,0.741c0.744-0.473,1.112-0.888,1.396-1.301l0.65,0.633
			c-0.262,0.396-0.768,0.983-1.677,1.561c-1.761,1.117-3.548,0.627-4.643-1.099c-1.095-1.725-0.939-3.729,0.726-4.785
			c1.867-1.185,3.405,0.143,4.072,1.194c0.135,0.213,0.217,0.393,0.272,0.507L423.558,1447.78z M426.135,1445.101
			c-0.408-0.669-1.345-1.518-2.514-0.775c-1.053,0.668-0.898,1.929-0.523,2.702L426.135,1445.101z"/>
		<path fill="#999999" d="M428.145,1437.594c0.452-0.436,1.16-0.968,1.869-1.417c1.098-0.697,1.935-0.946,2.716-0.813
			c0.626,0.1,1.196,0.502,1.586,1.115c0.667,1.052,0.448,2.168-0.212,2.984l0.022,0.035c0.75-0.177,1.477,0.158,2.189,0.865
			c0.965,0.945,1.641,1.594,2.001,1.795l-1.063,0.676c-0.272-0.143-0.884-0.715-1.738-1.565c-0.934-0.948-1.622-1.092-2.578-0.535
			l-0.969,0.614l2.188,3.45l-1.027,0.651L428.145,1437.594z M431.474,1440.57l1.053-0.668c1.098-0.697,1.414-1.742,0.836-2.651
			c-0.652-1.028-1.682-1.005-2.777-0.327c-0.496,0.315-0.82,0.588-0.957,0.74L431.474,1440.57z"/>
		<path fill="#999999" d="M443.244,1436.846c0.375,0.591,0.716,1.104,1.037,1.53l-0.922,0.584l-0.65-0.896l-0.024,0.015
			c0.021,0.633-0.2,1.618-1.215,2.263c-0.898,0.569-2.289,0.756-3.563-1.253l-2.121-3.344l1.04-0.659l2.009,3.167
			c0.69,1.086,1.486,1.609,2.43,1.01c0.698-0.443,0.874-1.234,0.771-1.815c-0.039-0.19-0.123-0.402-0.242-0.591l-2.227-3.51
			l1.039-0.66L443.244,1436.846z"/>
		<path fill="#999999" d="M444.841,1434.275c0.917,1.391,2.182,1.4,3.222,0.74c0.743-0.471,1.111-0.887,1.395-1.299l0.65,0.632
			c-0.262,0.397-0.768,0.983-1.677,1.561c-1.761,1.117-3.548,0.627-4.643-1.099c-1.095-1.725-0.939-3.729,0.726-4.785
			c1.867-1.184,3.405,0.143,4.072,1.195c0.135,0.212,0.217,0.393,0.272,0.506L444.841,1434.275z M447.418,1431.597
			c-0.408-0.67-1.345-1.518-2.514-0.775c-1.053,0.668-0.898,1.929-0.523,2.702L447.418,1431.597z"/>
	</g>
</g>
<g>
	<g>
		<path fill="#999999" d="M577.881,1751.853l-0.023,0.014l-0.877,1.568l-0.704-0.664l1.109-1.963l0.886-0.563l4.873,7.68
			l-1.005,0.638L577.881,1751.853z"/>
		<path fill="#999999" d="M585.432,1754.798c0.416,0.002,1.288-0.137,2.008-0.594c1.335-0.848,1.208-1.961,0.793-2.591
			c-0.694-1.068-1.955-0.914-2.96-0.276l-0.579,0.367l-0.495-0.78l0.579-0.367c0.757-0.479,1.466-1.477,0.889-2.387
			c-0.39-0.614-1.125-0.91-2.083-0.303c-0.614,0.39-1.031,1.036-1.213,1.482l-0.752-0.584c0.214-0.55,0.807-1.341,1.634-1.865
			c1.513-0.96,2.767-0.497,3.359,0.437c0.502,0.792,0.458,1.766-0.271,2.708l0.015,0.023c1.066-0.411,2.283-0.188,2.966,0.886
			c0.779,1.229,0.503,2.912-1.339,4.081c-0.862,0.547-1.791,0.755-2.326,0.747L585.432,1754.798z"/>
		<path fill="#999999" d="M591.216,1749.058c0.917,1.391,2.182,1.4,3.221,0.74c0.744-0.472,1.112-0.887,1.396-1.299l0.65,0.631
			c-0.262,0.398-0.768,0.984-1.677,1.561c-1.761,1.117-3.548,0.627-4.643-1.098s-0.939-3.729,0.726-4.785
			c1.867-1.185,3.405,0.143,4.072,1.194c0.135,0.212,0.217,0.394,0.272,0.507L591.216,1749.058z M593.793,1746.379
			c-0.408-0.669-1.345-1.517-2.514-0.774c-1.053,0.667-0.898,1.928-0.523,2.701L593.793,1746.379z"/>
		<path fill="#999999" d="M595.803,1738.872c0.452-0.436,1.16-0.967,1.869-1.417c1.098-0.696,1.935-0.946,2.716-0.813
			c0.626,0.1,1.196,0.501,1.586,1.116c0.667,1.051,0.448,2.168-0.212,2.984l0.022,0.035c0.75-0.178,1.477,0.156,2.189,0.863
			c0.965,0.946,1.641,1.594,2.001,1.797l-1.063,0.674c-0.272-0.142-0.884-0.715-1.738-1.564c-0.934-0.948-1.622-1.092-2.578-0.535
			l-0.969,0.615l2.188,3.449l-1.027,0.652L595.803,1738.872z M599.132,1741.848l1.053-0.667c1.098-0.697,1.414-1.742,0.836-2.652
			c-0.652-1.027-1.682-1.005-2.777-0.326c-0.496,0.314-0.82,0.586-0.957,0.739L599.132,1741.848z"/>
		<path fill="#999999" d="M610.902,1738.124c0.375,0.591,0.716,1.104,1.037,1.529l-0.922,0.585l-0.65-0.896l-0.024,0.015
			c0.021,0.633-0.2,1.618-1.215,2.263c-0.898,0.57-2.289,0.756-3.563-1.253l-2.121-3.343l1.04-0.66l2.009,3.166
			c0.69,1.088,1.486,1.609,2.43,1.01c0.698-0.441,0.874-1.233,0.771-1.814c-0.039-0.191-0.123-0.402-0.242-0.592l-2.227-3.509
			l1.039-0.659L610.902,1738.124z"/>
		<path fill="#999999" d="M612.499,1735.554c0.917,1.391,2.182,1.399,3.222,0.74c0.743-0.473,1.111-0.888,1.395-1.3l0.65,0.632
			c-0.262,0.397-0.768,0.984-1.677,1.561c-1.761,1.117-3.548,0.627-4.643-1.098c-1.095-1.726-0.939-3.729,0.726-4.785
			c1.867-1.186,3.405,0.143,4.072,1.193c0.135,0.213,0.217,0.394,0.272,0.508L612.499,1735.554z M615.076,1732.875
			c-0.408-0.669-1.345-1.518-2.514-0.775c-1.053,0.667-0.898,1.929-0.523,2.702L615.076,1732.875z"/>
	</g>
</g>
<g>
	<g>
		<path fill="#999999" d="M749.223,2044.388l-0.023,0.014l-0.877,1.568l-0.704-0.664l1.109-1.963l0.886-0.563l4.873,7.68
			l-1.005,0.638L749.223,2044.388z"/>
		<path fill="#999999" d="M757.283,2048.685l-0.405-0.638l0.313-1.31c0.776-3.11,1.033-4.665,0.311-5.83
			c-0.495-0.78-1.331-1.261-2.477-0.534c-0.697,0.442-1.051,1.165-1.219,1.685l-0.794-0.523c0.246-0.785,0.793-1.596,1.678-2.158
			c1.654-1.05,3.072-0.357,3.77,0.741c0.899,1.417,0.599,3.216-0.031,5.802l-0.254,0.958l0.015,0.023l3.45-2.189l0.547,0.862
			L757.283,2048.685z"/>
		<path fill="#999999" d="M762.558,2041.593c0.917,1.391,2.182,1.4,3.221,0.74c0.744-0.472,1.112-0.887,1.396-1.299l0.65,0.631
			c-0.262,0.398-0.768,0.984-1.677,1.561c-1.761,1.117-3.548,0.627-4.643-1.098s-0.939-3.729,0.726-4.785
			c1.867-1.185,3.405,0.143,4.072,1.194c0.135,0.212,0.217,0.394,0.272,0.507L762.558,2041.593z M765.135,2038.914
			c-0.408-0.669-1.345-1.517-2.514-0.774c-1.053,0.667-0.898,1.928-0.523,2.701L765.135,2038.914z"/>
		<path fill="#999999" d="M767.145,2031.408c0.452-0.436,1.16-0.967,1.869-1.417c1.098-0.696,1.935-0.946,2.716-0.813
			c0.626,0.1,1.196,0.501,1.586,1.116c0.667,1.051,0.448,2.168-0.212,2.984l0.022,0.035c0.75-0.178,1.477,0.156,2.189,0.863
			c0.965,0.946,1.641,1.594,2.001,1.797l-1.063,0.674c-0.272-0.142-0.884-0.715-1.738-1.564c-0.934-0.948-1.622-1.092-2.578-0.535
			l-0.969,0.615l2.188,3.449l-1.027,0.652L767.145,2031.408z M770.474,2034.383l1.053-0.667c1.098-0.697,1.414-1.742,0.836-2.652
			c-0.652-1.027-1.682-1.005-2.777-0.326c-0.496,0.314-0.82,0.586-0.957,0.739L770.474,2034.383z"/>
		<path fill="#999999" d="M782.244,2030.66c0.375,0.591,0.716,1.104,1.037,1.529l-0.922,0.585l-0.65-0.896l-0.024,0.015
			c0.021,0.633-0.2,1.618-1.215,2.263c-0.898,0.57-2.289,0.756-3.563-1.253l-2.121-3.343l1.04-0.66l2.009,3.166
			c0.69,1.088,1.486,1.609,2.43,1.01c0.698-0.441,0.874-1.233,0.771-1.814c-0.039-0.191-0.123-0.402-0.242-0.592l-2.227-3.509
			l1.039-0.659L782.244,2030.66z"/>
		<path fill="#999999" d="M783.841,2028.089c0.917,1.391,2.182,1.399,3.222,0.74c0.743-0.473,1.111-0.888,1.395-1.3l0.65,0.632
			c-0.262,0.397-0.768,0.984-1.677,1.561c-1.761,1.117-3.548,0.627-4.643-1.098c-1.095-1.726-0.939-3.729,0.726-4.785
			c1.867-1.186,3.405,0.143,4.072,1.193c0.135,0.213,0.217,0.394,0.272,0.508L783.841,2028.089z M786.418,2025.411
			c-0.408-0.669-1.345-1.518-2.514-0.775c-1.053,0.667-0.898,1.929-0.523,2.702L786.418,2025.411z"/>
	</g>
</g>
<g>
	<g>
		<path fill="#999999" d="M1238.337,1742.388l-0.023,0.014l-0.878,1.568l-0.703-0.664l1.108-1.963l0.886-0.563l4.873,7.68
			l-1.005,0.638L1238.337,1742.388z"/>
		<path fill="#999999" d="M1246.398,1746.685l-0.405-0.638l0.313-1.31c0.776-3.11,1.033-4.665,0.311-5.83
			c-0.494-0.78-1.331-1.261-2.477-0.534c-0.697,0.442-1.051,1.165-1.219,1.685l-0.794-0.523c0.246-0.785,0.793-1.596,1.678-2.158
			c1.654-1.05,3.072-0.357,3.77,0.741c0.899,1.417,0.599,3.216-0.031,5.802l-0.255,0.958l0.016,0.023l3.45-2.189l0.547,0.862
			L1246.398,1746.685z"/>
		<path fill="#999999" d="M1251.672,1739.593c0.917,1.391,2.182,1.4,3.221,0.74c0.744-0.472,1.111-0.887,1.396-1.299l0.65,0.631
			c-0.262,0.398-0.768,0.984-1.677,1.561c-1.761,1.117-3.548,0.627-4.643-1.098s-0.939-3.729,0.726-4.785
			c1.867-1.185,3.405,0.143,4.072,1.194c0.136,0.212,0.217,0.394,0.272,0.507L1251.672,1739.593z M1254.249,1736.914
			c-0.408-0.669-1.345-1.517-2.514-0.774c-1.053,0.667-0.898,1.928-0.523,2.701L1254.249,1736.914z"/>
		<path fill="#999999" d="M1256.259,1729.408c0.452-0.436,1.16-0.967,1.869-1.417c1.098-0.696,1.935-0.946,2.716-0.813
			c0.626,0.1,1.195,0.501,1.586,1.116c0.667,1.051,0.448,2.168-0.212,2.984l0.022,0.035c0.75-0.178,1.477,0.156,2.189,0.863
			c0.965,0.946,1.641,1.594,2.001,1.797l-1.063,0.674c-0.272-0.142-0.884-0.715-1.738-1.564c-0.934-0.948-1.621-1.092-2.577-0.535
			l-0.969,0.615l2.188,3.449l-1.027,0.652L1256.259,1729.408z M1259.588,1732.383l1.053-0.667c1.098-0.697,1.413-1.742,0.836-2.652
			c-0.652-1.027-1.682-1.005-2.776-0.326c-0.496,0.314-0.82,0.586-0.957,0.739L1259.588,1732.383z"/>
		<path fill="#999999" d="M1271.359,1728.66c0.375,0.591,0.716,1.104,1.037,1.529l-0.922,0.585l-0.65-0.896l-0.024,0.015
			c0.021,0.633-0.2,1.618-1.216,2.263c-0.898,0.57-2.288,0.756-3.563-1.253l-2.121-3.343l1.04-0.66l2.009,3.166
			c0.689,1.088,1.485,1.609,2.43,1.01c0.698-0.441,0.874-1.233,0.771-1.814c-0.039-0.191-0.123-0.402-0.242-0.592l-2.227-3.509
			l1.039-0.659L1271.359,1728.66z"/>
		<path fill="#999999" d="M1272.955,1726.089c0.917,1.391,2.182,1.399,3.222,0.74c0.743-0.473,1.11-0.888,1.395-1.3l0.65,0.632
			c-0.262,0.397-0.768,0.984-1.677,1.561c-1.761,1.117-3.548,0.627-4.643-1.098c-1.095-1.726-0.939-3.729,0.726-4.785
			c1.867-1.186,3.405,0.143,4.072,1.193c0.136,0.213,0.217,0.394,0.272,0.508L1272.955,1726.089z M1275.532,1723.411
			c-0.408-0.669-1.345-1.518-2.514-0.775c-1.053,0.667-0.898,1.929-0.523,2.702L1275.532,1723.411z"/>
	</g>
</g>
<g>
	<g>
		<path fill="#999999" d="M1043.746,2264.13l-0.023,0.014l-0.877,1.568l-0.704-0.664l1.109-1.963l0.886-0.563l4.873,7.68
			l-1.005,0.638L1043.746,2264.13z"/>
		<path fill="#999999" d="M1049.804,2260.285l-0.022,0.016l-0.877,1.567l-0.704-0.664l1.108-1.963l0.886-0.562l4.873,7.68
			l-1.005,0.637L1049.804,2260.285z"/>
		<path fill="#999999" d="M1057.081,2261.335c0.917,1.391,2.182,1.4,3.221,0.74c0.744-0.472,1.112-0.887,1.396-1.299l0.65,0.631
			c-0.262,0.398-0.768,0.984-1.677,1.561c-1.761,1.117-3.548,0.627-4.643-1.098s-0.939-3.729,0.726-4.785
			c1.867-1.185,3.405,0.143,4.072,1.194c0.135,0.212,0.217,0.394,0.272,0.507L1057.081,2261.335z M1059.658,2258.657
			c-0.408-0.669-1.345-1.517-2.514-0.774c-1.053,0.667-0.898,1.928-0.523,2.701L1059.658,2258.657z"/>
		<path fill="#999999" d="M1061.668,2251.15c0.452-0.436,1.16-0.967,1.869-1.417c1.098-0.696,1.935-0.946,2.716-0.813
			c0.626,0.1,1.196,0.501,1.586,1.116c0.667,1.051,0.448,2.168-0.212,2.984l0.022,0.035c0.75-0.178,1.477,0.156,2.189,0.863
			c0.965,0.946,1.641,1.594,2.001,1.797l-1.063,0.674c-0.272-0.142-0.884-0.715-1.738-1.564c-0.934-0.948-1.622-1.092-2.578-0.535
			l-0.969,0.615l2.188,3.449l-1.027,0.652L1061.668,2251.15z M1064.997,2254.125l1.053-0.667c1.098-0.697,1.414-1.742,0.836-2.652
			c-0.652-1.027-1.682-1.005-2.777-0.326c-0.496,0.314-0.82,0.586-0.957,0.739L1064.997,2254.125z"/>
		<path fill="#999999" d="M1076.767,2250.402c0.375,0.591,0.716,1.104,1.037,1.529l-0.922,0.585l-0.65-0.896l-0.024,0.015
			c0.021,0.633-0.2,1.618-1.215,2.263c-0.898,0.57-2.289,0.756-3.563-1.253l-2.121-3.343l1.04-0.66l2.009,3.166
			c0.69,1.088,1.486,1.609,2.43,1.01c0.698-0.441,0.874-1.233,0.771-1.814c-0.039-0.191-0.123-0.402-0.242-0.592l-2.227-3.509
			l1.039-0.659L1076.767,2250.402z"/>
		<path fill="#999999" d="M1078.364,2247.832c0.917,1.391,2.182,1.399,3.222,0.74c0.743-0.473,1.111-0.888,1.395-1.3l0.65,0.632
			c-0.262,0.397-0.768,0.984-1.677,1.561c-1.761,1.117-3.548,0.627-4.643-1.098c-1.095-1.726-0.939-3.729,0.726-4.785
			c1.867-1.186,3.405,0.143,4.072,1.193c0.135,0.213,0.217,0.394,0.272,0.508L1078.364,2247.832z M1080.941,2245.153
			c-0.408-0.669-1.345-1.518-2.514-0.775c-1.053,0.667-0.898,1.929-0.523,2.702L1080.941,2245.153z"/>
	</g>
</g>
<g>
	<g>
		<path fill="#999999" d="M1409.22,2039.388l-0.023,0.014l-0.877,1.568l-0.704-0.664l1.109-1.963l0.886-0.563l4.872,7.68
			l-1.005,0.638L1409.22,2039.388z"/>
		<path fill="#999999" d="M1415.279,2035.542l-0.022,0.016l-0.877,1.567l-0.704-0.664l1.108-1.963l0.886-0.562l4.872,7.68
			l-1.005,0.637L1415.279,2035.542z"/>
		<path fill="#999999" d="M1422.555,2036.593c0.917,1.391,2.182,1.4,3.221,0.74c0.744-0.472,1.112-0.887,1.396-1.299l0.65,0.631
			c-0.262,0.398-0.768,0.984-1.677,1.561c-1.761,1.117-3.548,0.627-4.643-1.098s-0.938-3.729,0.727-4.785
			c1.867-1.185,3.405,0.143,4.072,1.194c0.135,0.212,0.217,0.394,0.271,0.507L1422.555,2036.593z M1425.132,2033.914
			c-0.408-0.669-1.345-1.517-2.514-0.774c-1.053,0.667-0.897,1.928-0.523,2.701L1425.132,2033.914z"/>
		<path fill="#999999" d="M1427.143,2026.408c0.451-0.436,1.159-0.967,1.868-1.417c1.098-0.696,1.936-0.946,2.716-0.813
			c0.627,0.1,1.196,0.501,1.586,1.116c0.667,1.051,0.448,2.168-0.212,2.984l0.022,0.035c0.75-0.178,1.477,0.156,2.189,0.863
			c0.965,0.946,1.642,1.594,2.001,1.797l-1.063,0.674c-0.271-0.142-0.884-0.715-1.737-1.564c-0.934-0.948-1.622-1.092-2.578-0.535
			l-0.969,0.615l2.188,3.449l-1.027,0.652L1427.143,2026.408z M1430.471,2029.383l1.053-0.667c1.098-0.697,1.414-1.742,0.837-2.652
			c-0.652-1.027-1.683-1.005-2.777-0.326c-0.496,0.314-0.82,0.586-0.956,0.739L1430.471,2029.383z"/>
		<path fill="#999999" d="M1442.241,2025.66c0.375,0.591,0.717,1.104,1.037,1.529l-0.922,0.585l-0.65-0.896l-0.024,0.015
			c0.021,0.633-0.199,1.618-1.215,2.263c-0.898,0.57-2.289,0.756-3.563-1.253l-2.121-3.343l1.04-0.66l2.009,3.166
			c0.69,1.088,1.486,1.609,2.431,1.01c0.698-0.441,0.874-1.233,0.771-1.814c-0.038-0.191-0.122-0.402-0.242-0.592l-2.227-3.509
			l1.039-0.659L1442.241,2025.66z"/>
		<path fill="#999999" d="M1443.838,2023.089c0.917,1.391,2.182,1.399,3.222,0.74c0.743-0.473,1.111-0.888,1.395-1.3l0.65,0.632
			c-0.262,0.397-0.768,0.984-1.677,1.561c-1.761,1.117-3.548,0.627-4.643-1.098c-1.095-1.726-0.938-3.729,0.727-4.785
			c1.867-1.186,3.405,0.143,4.072,1.193c0.135,0.213,0.217,0.394,0.271,0.508L1443.838,2023.089z M1446.415,2020.411
			c-0.408-0.669-1.345-1.518-2.514-0.775c-1.053,0.667-0.897,1.929-0.523,2.702L1446.415,2020.411z"/>
	</g>
</g>
<g>
	<g>
		<path fill="#999999" d="M1582.863,2358.847c0.131,0.482,0.174,1.404-0.053,2.529c-0.523,2.605-2.564,4.236-5.596,3.627
			c-2.895-0.582-4.462-2.938-3.886-5.805c0.231-1.152,0.625-1.829,0.853-2.112l0.916,0.484c-0.311,0.408-0.604,1.021-0.759,1.788
			c-0.436,2.168,0.66,3.887,3.089,4.375c2.263,0.454,3.979-0.556,4.432-2.806c0.146-0.727,0.144-1.498,0.008-2.025
			L1582.863,2358.847z"/>
		<path fill="#999999" d="M1573.716,2355.498l0.242-1.208l4.144,0.833l0.005-0.026c-0.304-0.262-0.545-0.624-0.677-1.036
			c-0.134-0.398-0.186-0.851-0.095-1.304c0.18-0.892,1.015-2.208,3.306-1.748l3.951,0.795l-0.243,1.208l-3.813-0.767
			c-1.069-0.216-2.056-0.001-2.284,1.138c-0.157,0.782,0.268,1.51,0.882,1.862c0.151,0.102,0.326,0.15,0.56,0.197l4.006,0.806
			l-0.242,1.208L1573.716,2355.498z"/>
		<path fill="#999999" d="M1582.021,2348.548c1.638,0.302,2.52-0.606,2.762-1.813c0.174-0.863,0.128-1.416,0.027-1.907l0.905-0.031
			c0.106,0.464,0.18,1.234-0.032,2.29c-0.411,2.045-2.001,2.996-4.004,2.594s-3.343-1.9-2.954-3.835
			c0.436-2.167,2.458-2.36,3.68-2.114c0.247,0.05,0.433,0.115,0.554,0.153L1582.021,2348.548z M1581.868,2344.836
			c-0.766-0.169-2.025-0.079-2.299,1.278c-0.245,1.222,0.771,1.981,1.59,2.247L1581.868,2344.836z"/>
		<path fill="#999999" d="M1581.525,2342c-0.686-0.138-1.251-0.237-1.808-0.307l0.212-1.056l1.081,0.16l0.008-0.041
			c-0.556-0.498-1.022-1.233-0.802-2.331c0.183-0.905,0.869-1.48,1.709-1.611l0.006-0.028c-0.329-0.279-0.565-0.599-0.716-0.913
			c-0.222-0.459-0.298-0.931-0.171-1.563c0.176-0.878,1.014-2.066,3.318-1.603l3.91,0.786l-0.237,1.181l-3.759-0.756
			c-1.275-0.257-2.138,0.056-2.334,1.029c-0.137,0.686,0.263,1.323,0.812,1.646c0.153,0.088,0.364,0.173,0.584,0.217l4.102,0.825
			l-0.237,1.181l-3.979-0.8c-1.056-0.213-1.918,0.1-2.103,1.019c-0.151,0.754,0.342,1.424,0.907,1.738
			c0.164,0.104,0.364,0.173,0.57,0.214l4.006,0.806l-0.238,1.18L1581.525,2342z"/>
		<path fill="#999999" d="M1580.431,2328.482c0.415,0.069,0.684,0.437,0.587,0.916c-0.085,0.426-0.476,0.662-0.887,0.579
			c-0.425-0.086-0.691-0.467-0.603-0.905C1579.619,2328.619,1580.006,2328.396,1580.431,2328.482z M1588.666,2331.536l-6.64-1.335
			l0.243-1.207l6.64,1.335L1588.666,2331.536z"/>
		<path fill="#999999" d="M1584.469,2327.353c-0.686-0.138-1.251-0.237-1.808-0.307l0.215-1.069l1.111,0.151l0.006-0.027
			c-0.565-0.455-1.028-1.349-0.808-2.445c0.185-0.919,1.021-2.235,3.298-1.777l3.964,0.797l-0.243,1.207l-3.826-0.77
			c-1.07-0.215-2.042,0.003-2.271,1.142c-0.16,0.796,0.279,1.526,0.91,1.867c0.14,0.085,0.34,0.154,0.545,0.195l3.992,0.803
			l-0.242,1.207L1584.469,2327.353z"/>
		<path fill="#999999" d="M1582.839,2310.117l8.024,1.613c0.59,0.118,1.265,0.24,1.726,0.29l-0.217,1.084l-1.164-0.177l-0.005,0.026
			c0.666,0.52,1.065,1.442,0.848,2.526c-0.322,1.604-1.929,2.566-3.945,2.161c-2.212-0.432-3.294-2.075-2.968-3.694
			c0.203-1.015,0.821-1.604,1.417-1.799l0.006-0.027l-3.965-0.797L1582.839,2310.117z M1588.399,2312.49
			c-0.15-0.03-0.359-0.058-0.519-0.047c-0.804,0.024-1.567,0.556-1.749,1.462c-0.251,1.248,0.697,2.209,2.165,2.504
			c1.345,0.271,2.588-0.165,2.85-1.469c0.163-0.809-0.223-1.657-1.084-2.059c-0.156-0.074-0.318-0.121-0.511-0.159L1588.399,2312.49
			z"/>
		<path fill="#999999" d="M1590.015,2308.779c1.639,0.301,2.521-0.606,2.763-1.813c0.174-0.864,0.128-1.416,0.026-1.907l0.906-0.032
			c0.106,0.465,0.18,1.235-0.032,2.291c-0.411,2.044-2.001,2.995-4.004,2.593s-3.343-1.9-2.954-3.834
			c0.436-2.168,2.458-2.361,3.68-2.115c0.246,0.05,0.433,0.116,0.554,0.154L1590.015,2308.779z M1589.863,2305.066
			c-0.766-0.168-2.024-0.078-2.298,1.279c-0.245,1.222,0.772,1.981,1.59,2.247L1589.863,2305.066z"/>
		<path fill="#999999" d="M1585.206,2298.338l0.243-1.207l9.739,1.958l-0.242,1.207L1585.206,2298.338z"/>
		<path fill="#999999" d="M1596.336,2293.383l-0.856-0.073l-0.008,0.041c0.447,0.476,0.77,1.283,0.579,2.229
			c-0.27,1.345-1.354,1.841-2.314,1.647c-1.605-0.322-2.196-1.927-1.667-4.488l-0.137-0.027c-0.549-0.11-1.567-0.158-1.84,1.199
			c-0.124,0.617-0.062,1.301,0.146,1.827l-0.852,0.115c-0.246-0.62-0.319-1.463-0.151-2.3c0.408-2.03,1.894-2.246,3.224-1.979
			l2.483,0.499c0.576,0.116,1.144,0.203,1.613,0.211L1596.336,2293.383z M1592.912,2292.879c-0.292,1.313-0.36,2.855,0.93,3.114
			c0.782,0.157,1.257-0.291,1.382-0.908c0.173-0.863-0.266-1.522-0.789-1.828c-0.115-0.065-0.247-0.121-0.37-0.146
			L1592.912,2292.879z"/>
		<path fill="#999999" d="M1598.516,2280.981c0.131,0.482,0.174,1.404-0.052,2.529c-0.524,2.605-2.564,4.236-5.597,3.627
			c-2.895-0.582-4.462-2.938-3.886-5.805c0.232-1.152,0.625-1.829,0.854-2.112l0.916,0.484c-0.311,0.408-0.604,1.02-0.76,1.789
			c-0.436,2.166,0.66,3.886,3.089,4.374c2.264,0.454,3.979-0.556,4.432-2.806c0.146-0.727,0.145-1.498,0.008-2.025
			L1598.516,2280.981z"/>
		<path fill="#999999" d="M1599.829,2276.008l-0.855-0.073l-0.009,0.041c0.446,0.476,0.77,1.283,0.579,2.229
			c-0.27,1.345-1.354,1.841-2.314,1.647c-1.605-0.322-2.196-1.927-1.667-4.488l-0.138-0.027c-0.549-0.11-1.566-0.159-1.839,1.199
			c-0.124,0.617-0.062,1.301,0.146,1.827l-0.852,0.115c-0.246-0.62-0.319-1.463-0.151-2.3c0.408-2.03,1.894-2.246,3.224-1.979
			l2.483,0.499c0.576,0.116,1.144,0.203,1.613,0.211L1599.829,2276.008z M1596.406,2275.504c-0.293,1.313-0.36,2.855,0.93,3.114
			c0.781,0.157,1.257-0.291,1.381-0.908c0.174-0.863-0.265-1.522-0.788-1.828c-0.115-0.065-0.247-0.121-0.37-0.146
			L1596.406,2275.504z"/>
		<path fill="#999999" d="M1595.576,2272.101c-0.686-0.138-1.251-0.237-1.808-0.307l0.215-1.069l1.111,0.151l0.006-0.027
			c-0.565-0.456-1.028-1.349-0.808-2.445c0.185-0.92,1.021-2.235,3.298-1.777l3.964,0.797l-0.242,1.207l-3.827-0.77
			c-1.07-0.215-2.042,0.003-2.271,1.141c-0.16,0.797,0.279,1.526,0.91,1.867c0.14,0.086,0.34,0.155,0.545,0.196l3.992,0.803
			l-0.242,1.207L1595.576,2272.101z"/>
		<path fill="#999999" d="M1602.689,2261.787l-0.856-0.073l-0.009,0.041c0.447,0.477,0.771,1.283,0.58,2.23
			c-0.271,1.344-1.355,1.84-2.315,1.646c-1.604-0.322-2.196-1.927-1.667-4.488l-0.137-0.027c-0.549-0.11-1.566-0.158-1.84,1.199
			c-0.124,0.617-0.062,1.301,0.146,1.828l-0.851,0.114c-0.247-0.62-0.32-1.463-0.151-2.299c0.408-2.031,1.893-2.247,3.224-1.979
			l2.482,0.499c0.576,0.116,1.145,0.203,1.613,0.212L1602.689,2261.787z M1599.264,2261.283c-0.292,1.313-0.359,2.855,0.93,3.114
			c0.782,0.157,1.258-0.291,1.382-0.908c0.174-0.863-0.265-1.522-0.789-1.827c-0.115-0.066-0.246-0.122-0.37-0.147
			L1599.264,2261.283z"/>
		<path fill="#999999" d="M1598.71,2257.934c-0.782-0.157-1.457-0.278-2.083-0.361l0.213-1.056l1.312,0.221l0.011-0.055
			c-0.831-0.48-1.247-1.321-1.085-2.131c0.027-0.137,0.061-0.23,0.11-0.335l1.139,0.229c-0.052,0.118-0.091,0.238-0.124,0.402
			c-0.171,0.851,0.353,1.584,1.225,1.931c0.159,0.061,0.346,0.128,0.552,0.169l3.539,0.712l-0.24,1.192L1598.71,2257.934z"/>
		<path fill="#999999" d="M1595.565,2246.815l8.024,1.613c0.59,0.118,1.266,0.24,1.727,0.29l-0.219,1.084l-1.162-0.178l-0.006,0.027
			c0.666,0.519,1.065,1.442,0.848,2.525c-0.322,1.605-1.929,2.566-3.945,2.161c-2.211-0.431-3.294-2.075-2.968-3.694
			c0.204-1.015,0.821-1.604,1.417-1.799l0.006-0.026l-3.965-0.797L1595.565,2246.815z M1601.124,2249.188
			c-0.15-0.03-0.359-0.058-0.518-0.047c-0.805,0.023-1.568,0.556-1.75,1.461c-0.251,1.249,0.697,2.209,2.166,2.504
			c1.344,0.271,2.587-0.164,2.85-1.468c0.162-0.81-0.224-1.658-1.085-2.059c-0.156-0.074-0.318-0.121-0.511-0.16L1601.124,2249.188z
			"/>
		<path fill="#999999" d="M1597.472,2243.717c0.414,0.069,0.683,0.437,0.586,0.916c-0.085,0.426-0.475,0.663-0.887,0.58
			c-0.425-0.086-0.691-0.468-0.603-0.906C1596.659,2243.854,1597.046,2243.631,1597.472,2243.717z M1605.706,2246.772l-6.639-1.335
			l0.242-1.208l6.64,1.335L1605.706,2246.772z"/>
		<path fill="#999999" d="M1597.283,2239.47l2.204-0.813l-0.174,0.864l-2.298,1.279L1597.283,2239.47z M1603.387,2242.267
			c1.638,0.301,2.52-0.607,2.763-1.814c0.173-0.864,0.127-1.416,0.025-1.907l0.906-0.031c0.106,0.464,0.18,1.234-0.032,2.29
			c-0.411,2.045-2.001,2.995-4.004,2.593s-3.343-1.899-2.954-3.834c0.436-2.167,2.458-2.361,3.68-2.115
			c0.246,0.05,0.434,0.116,0.554,0.155L1603.387,2242.267z M1603.234,2238.554c-0.766-0.169-2.024-0.079-2.298,1.278
			c-0.245,1.222,0.772,1.981,1.59,2.247L1603.234,2238.554z"/>
		<path fill="#999999" d="M1603.165,2235.773c-0.782-0.157-1.457-0.278-2.082-0.361l0.212-1.056l1.312,0.22l0.011-0.054
			c-0.831-0.48-1.247-1.321-1.085-2.131c0.027-0.137,0.061-0.23,0.11-0.335l1.139,0.229c-0.052,0.118-0.091,0.238-0.124,0.402
			c-0.171,0.851,0.353,1.584,1.225,1.931c0.159,0.061,0.346,0.127,0.552,0.168l3.539,0.712l-0.24,1.193L1603.165,2235.773z"/>
		<path fill="#999999" d="M1605.642,2231.048c1.639,0.301,2.52-0.606,2.763-1.813c0.173-0.865,0.128-1.417,0.026-1.908l0.905-0.032
			c0.106,0.465,0.181,1.235-0.032,2.291c-0.41,2.044-2,2.995-4.004,2.593c-2.002-0.402-3.343-1.9-2.954-3.834
			c0.436-2.168,2.459-2.361,3.68-2.115c0.247,0.05,0.434,0.116,0.554,0.154L1605.642,2231.048z M1605.49,2227.335
			c-0.766-0.168-2.025-0.078-2.299,1.279c-0.245,1.222,0.772,1.981,1.59,2.247L1605.49,2227.335z"/>
	</g>
</g>
<g>
	<g>
		<path fill="#999999" d="M1842.919,1423.976c0.105,0.489,0.097,1.412-0.191,2.522c-0.667,2.573-2.795,4.089-5.788,3.313
			c-2.857-0.741-4.292-3.18-3.559-6.01c0.295-1.139,0.726-1.793,0.969-2.063l0.888,0.535c-0.332,0.39-0.66,0.984-0.857,1.743
			c-0.555,2.141,0.444,3.917,2.842,4.539c2.235,0.579,4.004-0.335,4.58-2.557c0.187-0.717,0.228-1.488,0.12-2.021L1842.919,1423.976
			z"/>
		<path fill="#999999" d="M1833.973,1420.125l0.31-1.191l4.09,1.061l0.007-0.026c-0.289-0.278-0.51-0.653-0.618-1.072
			c-0.112-0.405-0.139-0.859-0.022-1.307c0.229-0.88,1.136-2.148,3.397-1.563l3.9,1.012l-0.309,1.192l-3.766-0.977
			c-1.057-0.273-2.053-0.113-2.344,1.011c-0.2,0.771,0.184,1.522,0.777,1.907c0.145,0.11,0.317,0.17,0.548,0.229l3.955,1.025
			l-0.31,1.191L1833.973,1420.125z"/>
		<path fill="#999999" d="M1842.649,1413.647c1.619,0.391,2.55-0.466,2.859-1.658c0.221-0.853,0.205-1.406,0.132-1.901l0.906,0.018
			c0.08,0.469,0.111,1.242-0.16,2.285c-0.523,2.019-2.163,2.881-4.141,2.368s-3.232-2.083-2.737-3.992
			c0.555-2.141,2.585-2.221,3.791-1.908c0.243,0.063,0.426,0.14,0.544,0.184L1842.649,1413.647z M1842.702,1409.932
			c-0.756-0.211-2.018-0.19-2.365,1.149c-0.313,1.207,0.661,2.021,1.462,2.332L1842.702,1409.932z"/>
		<path fill="#999999" d="M1842.517,1407.08c-0.678-0.176-1.236-0.307-1.789-0.405l0.271-1.043l1.07,0.22l0.011-0.041
			c-0.528-0.526-0.953-1.288-0.672-2.371c0.232-0.895,0.949-1.431,1.795-1.515l0.008-0.027c-0.313-0.298-0.531-0.63-0.664-0.953
			c-0.196-0.47-0.246-0.945-0.084-1.568c0.225-0.867,1.127-2.007,3.402-1.417l3.86,1.001l-0.303,1.166l-3.711-0.962
			c-1.26-0.327-2.138-0.063-2.387,0.898c-0.176,0.677,0.188,1.335,0.718,1.689c0.149,0.096,0.355,0.192,0.572,0.249l4.049,1.05
			l-0.302,1.165l-3.928-1.019c-1.043-0.271-1.921-0.006-2.156,0.901c-0.193,0.745,0.263,1.441,0.809,1.785
			c0.159,0.113,0.355,0.193,0.559,0.246l3.955,1.025l-0.302,1.164L1842.517,1407.08z"/>
		<path fill="#999999" d="M1842.172,1393.523c0.41,0.092,0.658,0.475,0.535,0.948c-0.108,0.42-0.511,0.634-0.918,0.528
			c-0.419-0.108-0.664-0.506-0.552-0.938C1841.354,1393.615,1841.753,1393.414,1842.172,1393.523z M1850.226,1397.028l-6.556-1.7
			l0.31-1.191l6.555,1.699L1850.226,1397.028z"/>
		<path fill="#999999" d="M1846.267,1392.62c-0.678-0.176-1.236-0.307-1.789-0.407l0.274-1.055l1.101,0.212l0.008-0.027
			c-0.539-0.485-0.952-1.402-0.671-2.485c0.235-0.908,1.142-2.176,3.391-1.593l3.914,1.015l-0.309,1.192l-3.779-0.979
			c-1.057-0.274-2.038-0.111-2.33,1.013c-0.204,0.787,0.193,1.54,0.805,1.915c0.135,0.094,0.331,0.174,0.534,0.227l3.941,1.021
			l-0.309,1.191L1846.267,1392.62z"/>
		<path fill="#999999" d="M1845.592,1375.32l7.924,2.055c0.582,0.15,1.249,0.31,1.707,0.384l-0.277,1.07l-1.151-0.241l-0.008,0.026
			c0.637,0.556,0.984,1.5,0.707,2.57c-0.41,1.584-2.067,2.456-4.059,1.939c-2.185-0.553-3.174-2.255-2.76-3.854
			c0.26-1.002,0.91-1.556,1.516-1.718l0.007-0.026l-3.915-1.015L1845.592,1375.32z M1851.012,1377.996
			c-0.148-0.039-0.355-0.077-0.515-0.076c-0.805-0.021-1.596,0.468-1.828,1.362c-0.319,1.232,0.574,2.245,2.023,2.621
			c1.328,0.344,2.594-0.021,2.928-1.31c0.207-0.799-0.132-1.667-0.97-2.115c-0.151-0.082-0.312-0.138-0.501-0.188L1851.012,1377.996
			z"/>
		<path fill="#999999" d="M1852.831,1374.38c1.619,0.391,2.55-0.466,2.859-1.657c0.221-0.854,0.205-1.408,0.132-1.903l0.905,0.018
			c0.081,0.47,0.111,1.243-0.158,2.286c-0.523,2.018-2.164,2.88-4.141,2.367c-1.979-0.513-3.233-2.082-2.738-3.992
			c0.555-2.14,2.586-2.221,3.791-1.908c0.244,0.063,0.426,0.14,0.545,0.185L1852.831,1374.38z M1852.885,1370.664
			c-0.755-0.21-2.019-0.19-2.365,1.149c-0.313,1.207,0.661,2.022,1.462,2.332L1852.885,1370.664z"/>
		<path fill="#999999" d="M1848.608,1363.69l0.31-1.191l9.616,2.493l-0.31,1.191L1848.608,1363.69z"/>
		<path fill="#999999" d="M1859.994,1359.357l-0.851-0.119l-0.011,0.041c0.42,0.5,0.698,1.323,0.456,2.258
			c-0.345,1.327-1.455,1.763-2.403,1.517c-1.585-0.411-2.086-2.045-1.415-4.573l-0.136-0.035c-0.542-0.141-1.556-0.244-1.903,1.096
			c-0.158,0.61-0.134,1.295,0.045,1.832l-0.855,0.068c-0.212-0.633-0.238-1.479-0.024-2.305c0.52-2.005,2.015-2.138,3.328-1.797
			l2.452,0.636c0.568,0.147,1.131,0.265,1.599,0.299L1859.994,1359.357z M1856.604,1358.666c-0.364,1.293-0.518,2.829,0.756,3.159
			c0.772,0.2,1.271-0.22,1.43-0.829c0.221-0.854-0.181-1.535-0.687-1.869c-0.111-0.072-0.24-0.135-0.361-0.166L1856.604,1358.666z"
			/>
		<path fill="#999999" d="M1862.857,1347.094c0.104,0.489,0.096,1.412-0.191,2.523c-0.668,2.572-2.795,4.089-5.788,3.313
			c-2.858-0.741-4.293-3.181-3.56-6.011c0.296-1.138,0.726-1.793,0.969-2.063l0.888,0.534c-0.332,0.391-0.659,0.984-0.856,1.744
			c-0.555,2.14,0.444,3.916,2.842,4.538c2.234,0.579,4.004-0.334,4.58-2.556c0.186-0.718,0.227-1.488,0.119-2.022L1862.857,1347.094
			z"/>
		<path fill="#999999" d="M1864.444,1342.202l-0.851-0.119l-0.011,0.041c0.42,0.499,0.697,1.323,0.455,2.258
			c-0.345,1.327-1.454,1.763-2.402,1.517c-1.585-0.411-2.087-2.045-1.416-4.574l-0.136-0.034c-0.542-0.141-1.556-0.245-1.902,1.096
			c-0.158,0.609-0.135,1.295,0.045,1.832l-0.856,0.068c-0.212-0.634-0.238-1.479-0.024-2.305c0.521-2.005,2.015-2.139,3.328-1.798
			l2.452,0.636c0.568,0.147,1.131,0.266,1.599,0.3L1864.444,1342.202z M1861.052,1341.51c-0.364,1.294-0.518,2.83,0.756,3.16
			c0.772,0.2,1.271-0.22,1.43-0.83c0.222-0.853-0.18-1.534-0.686-1.868c-0.111-0.072-0.24-0.136-0.362-0.167L1861.052,1341.51z"/>
		<path fill="#999999" d="M1860.413,1338.066c-0.678-0.176-1.236-0.307-1.788-0.406l0.273-1.057l1.102,0.214l0.007-0.027
			c-0.539-0.485-0.951-1.403-0.671-2.486c0.235-0.907,1.143-2.176,3.392-1.593l3.914,1.015l-0.31,1.192l-3.778-0.979
			c-1.057-0.274-2.039-0.11-2.33,1.014c-0.205,0.786,0.193,1.539,0.804,1.915c0.136,0.094,0.331,0.173,0.534,0.226l3.941,1.021
			l-0.309,1.191L1860.413,1338.066z"/>
		<path fill="#999999" d="M1868.085,1328.161l-0.852-0.119l-0.01,0.04c0.419,0.5,0.697,1.323,0.455,2.258
			c-0.345,1.327-1.455,1.764-2.402,1.518c-1.586-0.411-2.087-2.046-1.416-4.574l-0.136-0.035c-0.542-0.141-1.556-0.244-1.903,1.097
			c-0.158,0.609-0.134,1.294,0.045,1.832l-0.855,0.068c-0.212-0.634-0.238-1.479-0.024-2.305c0.521-2.006,2.015-2.139,3.328-1.798
			l2.452,0.636c0.568,0.147,1.131,0.266,1.599,0.3L1868.085,1328.161z M1864.694,1327.469c-0.364,1.294-0.518,2.83,0.756,3.16
			c0.772,0.2,1.271-0.221,1.43-0.83c0.221-0.853-0.181-1.535-0.687-1.868c-0.111-0.073-0.239-0.136-0.361-0.167L1864.694,1327.469z"
			/>
		<path fill="#999999" d="M1864.325,1324.095c-0.772-0.2-1.439-0.359-2.059-0.477l0.27-1.043l1.297,0.293l0.015-0.054
			c-0.804-0.526-1.173-1.389-0.965-2.188c0.034-0.135,0.073-0.227,0.128-0.327l1.124,0.291c-0.058,0.114-0.104,0.232-0.146,0.395
			c-0.218,0.84,0.264,1.602,1.116,1.996c0.155,0.069,0.338,0.146,0.541,0.198l3.494,0.906l-0.306,1.178L1864.325,1324.095z"/>
		<path fill="#999999" d="M1861.8,1312.818l7.924,2.055c0.582,0.15,1.249,0.31,1.707,0.385l-0.277,1.07l-1.152-0.241l-0.007,0.026
			c0.637,0.555,0.984,1.499,0.707,2.569c-0.411,1.585-2.067,2.456-4.059,1.939c-2.185-0.552-3.174-2.254-2.76-3.853
			c0.261-1.002,0.909-1.556,1.516-1.718l0.007-0.026l-3.914-1.015L1861.8,1312.818z M1867.22,1315.495
			c-0.148-0.039-0.355-0.078-0.515-0.076c-0.804-0.021-1.596,0.468-1.828,1.362c-0.319,1.232,0.575,2.244,2.024,2.62
			c1.327,0.344,2.593-0.021,2.926-1.309c0.208-0.799-0.131-1.668-0.969-2.115c-0.152-0.083-0.311-0.139-0.5-0.188L1867.22,1315.495z
			"/>
		<path fill="#999999" d="M1863.875,1309.83c0.41,0.092,0.658,0.475,0.535,0.948c-0.108,0.42-0.511,0.634-0.918,0.528
			c-0.419-0.108-0.664-0.505-0.552-0.938C1863.057,1309.921,1863.456,1309.722,1863.875,1309.83z M1871.929,1313.335l-6.555-1.699
			l0.309-1.193l6.556,1.7L1871.929,1313.335z"/>
		<path fill="#999999" d="M1863.923,1305.579l2.246-0.69l-0.222,0.854l-2.365,1.15L1863.923,1305.579z M1869.862,1308.709
			c1.619,0.391,2.55-0.467,2.858-1.658c0.222-0.853,0.206-1.407,0.133-1.902l0.905,0.018c0.081,0.47,0.111,1.243-0.159,2.285
			c-0.523,2.019-2.163,2.881-4.141,2.368c-1.978-0.514-3.232-2.082-2.738-3.992c0.556-2.14,2.586-2.221,3.791-1.908
			c0.244,0.063,0.427,0.14,0.545,0.185L1869.862,1308.709z M1869.915,1304.994c-0.756-0.211-2.019-0.191-2.366,1.15
			c-0.313,1.205,0.661,2.021,1.463,2.331L1869.915,1304.994z"/>
		<path fill="#999999" d="M1869.999,1302.214c-0.771-0.2-1.439-0.36-2.059-0.477l0.271-1.043l1.297,0.293l0.014-0.054
			c-0.803-0.526-1.172-1.389-0.965-2.188c0.035-0.135,0.073-0.227,0.128-0.328l1.125,0.291c-0.059,0.115-0.104,0.233-0.146,0.396
			c-0.218,0.84,0.265,1.602,1.116,1.996c0.155,0.069,0.339,0.145,0.542,0.197l3.494,0.906l-0.306,1.179L1869.999,1302.214z"/>
		<path fill="#999999" d="M1872.734,1297.633c1.619,0.391,2.55-0.466,2.859-1.657c0.221-0.854,0.205-1.408,0.131-1.903l0.906,0.018
			c0.081,0.47,0.111,1.243-0.158,2.285c-0.523,2.019-2.164,2.881-4.142,2.368c-1.978-0.514-3.232-2.082-2.737-3.992
			c0.555-2.14,2.585-2.221,3.791-1.908c0.243,0.063,0.426,0.14,0.544,0.185L1872.734,1297.633z M1872.787,1293.917
			c-0.755-0.21-2.019-0.189-2.366,1.15c-0.313,1.205,0.662,2.021,1.463,2.331L1872.787,1293.917z"/>
	</g>
</g>
</svg>
